<svg width="157" height="157" viewBox="0 0 157 157" fill="none" xmlns="http://www.w3.org/2000/svg">
<path d="M78.1655 153.487C119.018 153.487 152.136 120.37 152.136 79.517C152.136 38.6644 119.018 5.54688 78.1655 5.54688C37.3129 5.54688 4.19531 38.6644 4.19531 79.517C4.19531 120.37 37.3129 153.487 78.1655 153.487Z" fill="url(#paint0_linear_584_210)"/>
<path d="M124.3 61.5084L11.9181 112.416C12.5698 113.737 13.2743 115.058 14.0052 116.299L126.114 65.524C126.646 65.2834 127.062 64.8412 127.268 64.2945C127.474 63.7479 127.455 63.1417 127.215 62.6092C126.974 62.0767 126.532 61.6616 125.985 61.4551C125.439 61.2487 124.832 61.2679 124.3 61.5084V61.5084ZM120.681 72.0756L15.8896 119.416C16.6998 120.676 17.5363 121.909 18.4169 123.115L122.495 76.0911C123.027 75.8506 123.442 75.4083 123.649 74.8617C123.855 74.3151 123.836 73.7088 123.595 73.1763C123.355 72.6438 122.913 72.2287 122.366 72.0223C121.819 71.8159 121.213 71.835 120.681 72.0756V72.0756ZM118.823 81.7622L20.6977 126.065C21.6605 127.239 22.6585 128.399 23.6917 129.543L120.628 85.7777C121.153 85.5337 121.561 85.0925 121.763 84.5498C121.965 84.0072 121.946 83.4067 121.708 82.8785C121.471 82.3503 121.035 81.937 120.494 81.728C119.954 81.5191 119.354 81.5313 118.823 81.7622V81.7622ZM127.532 51.3287L8.72157 105.045C9.23232 106.428 9.7959 107.784 10.3859 109.131L129.337 55.3442C129.818 55.0788 130.182 54.6433 130.358 54.1231C130.534 53.6029 130.51 53.0356 130.289 52.5326C130.069 52.0296 129.668 51.6272 129.166 51.4045C128.664 51.1818 128.097 51.1547 127.576 51.3287H127.532ZM115.564 92.0299L26.3775 132.308C27.5135 133.427 28.6935 134.501 29.8999 135.54L117.378 96.0542C117.911 95.8137 118.326 95.3715 118.532 94.8248C118.739 94.2782 118.72 93.672 118.479 93.1395C118.239 92.607 117.796 92.1919 117.25 91.9854C116.703 91.779 116.097 91.7982 115.564 92.0387V92.0299ZM133.669 42.2498C133.551 41.986 133.381 41.7482 133.17 41.5501C132.959 41.3519 132.711 41.1973 132.44 41.0951C132.17 40.9929 131.881 40.945 131.592 40.9543C131.303 40.9635 131.018 41.0297 130.755 41.149L6.36157 97.3135C6.72262 98.7577 7.11008 100.193 7.55038 101.611L132.595 45.1822C132.858 45.0608 133.094 44.8889 133.29 44.6763C133.486 44.4637 133.638 44.2145 133.738 43.943C133.838 43.6715 133.883 43.383 133.871 43.094C133.86 42.8049 133.791 42.5211 133.669 42.2586V42.2498Z" fill="#339E0B"/>
<path fill-rule="evenodd" clip-rule="evenodd" d="M74.8718 103.857L76.2984 97.3754C75.4178 96.4948 74.3523 96.2395 73.4893 97.3754C72.6263 98.5114 71.0412 101.699 71.7281 103.196C71.8675 103.423 72.0536 103.619 72.2741 103.769C72.4979 103.912 72.7503 104.005 73.0138 104.042C73.6264 104.178 74.2652 104.135 74.8542 103.918L74.8718 103.857Z" fill="#EACDB5"/>
<path fill-rule="evenodd" clip-rule="evenodd" d="M87.4381 84.9854L78.8259 86.5176C79.5935 87.7344 80.0836 89.1054 80.2613 90.5331C80.7104 94.3285 78.139 95.8783 75.6646 98.5642L82.7798 102.298L85.4744 102.175L89.349 94.2492C90.3441 92.2151 91.1102 90.7268 90.2296 88.3845C89.6661 86.9932 88.6806 85.8137 87.4117 85.0118L87.4381 84.9854Z" fill="#DB7B12"/>
<path fill-rule="evenodd" clip-rule="evenodd" d="M77.8749 104.146L79.0549 98.6604C78.9358 98.0461 78.59 97.4992 78.0862 97.1281C77.7295 96.9035 77.3081 96.8043 76.8886 96.8463C76.469 96.8894 76.0771 97.0761 75.7791 97.3747C75.1104 97.9931 74.5716 98.7385 74.194 99.5674C73.822 100.399 73.6214 101.298 73.604 102.209C73.604 103.468 74.2292 104.05 75.4709 104.323C76.2752 104.46 77.101 104.396 77.8749 104.138V104.146Z" fill="#EACDB5"/>
<path fill-rule="evenodd" clip-rule="evenodd" d="M74.7664 102.359C74.4404 101.455 74.2476 100.509 74.194 99.5498C73.8175 100.38 73.6167 101.28 73.604 102.192C73.604 103.451 74.2292 104.032 75.4709 104.305H75.7879C75.375 103.697 75.0324 103.044 74.7664 102.359Z" fill="#D3A37F"/>
<path fill-rule="evenodd" clip-rule="evenodd" d="M85.5183 102.157C84.8655 102.006 84.2329 101.779 83.6338 101.479C82.6367 101.061 81.8065 100.324 81.2738 99.383C80.999 98.9718 80.6459 98.6187 80.2347 98.3439C80.1144 98.2397 79.9746 98.1605 79.8235 98.1106C79.6723 98.0607 79.5128 98.0412 79.3541 98.0533C79.1882 98.0567 79.0247 98.0935 78.8734 98.1616C78.7221 98.2297 78.5861 98.3276 78.4735 98.4495C77.5121 99.3275 76.8889 100.515 76.7123 101.805C76.4217 103.46 76.3777 104.244 78.2446 104.869C80.6046 105.618 84.9547 105.283 85.5535 102.227L85.5183 102.157Z" fill="#EACDB5"/>
<path fill-rule="evenodd" clip-rule="evenodd" d="M78.7291 104.006C77.9439 103.14 77.3311 102.133 76.9238 101.038C76.8546 101.29 76.7987 101.546 76.7565 101.804C76.4659 103.46 76.4219 104.243 78.2888 104.869C78.8215 105.032 79.3709 105.136 79.9267 105.177C79.4913 104.825 79.0903 104.433 78.7291 104.006V104.006Z" fill="#D3A37F"/>
<path fill-rule="evenodd" clip-rule="evenodd" d="M58.3079 84.9854L61.7246 85.7339C61.9095 89.2562 62.0768 92.7258 62.6052 96.1513C63.0814 97.9869 63.0448 99.918 62.4995 101.734L51.4304 99.3391C53.2621 96.5564 52.2318 91.4137 52.0204 88.1115L58.3079 84.9854Z" fill="#DB7B12"/>
<path fill-rule="evenodd" clip-rule="evenodd" d="M51.6859 104.358L51.9324 99.0747C51.5026 98.9473 51.0447 98.9505 50.6167 99.0838C50.1887 99.217 49.8099 99.4744 49.5284 99.8232C49.1023 100.357 48.8014 100.98 48.6478 101.646C48.4983 102.316 48.4983 103.01 48.6478 103.68C48.7626 103.958 48.9515 104.198 49.1938 104.376C49.4513 104.561 49.7577 104.665 50.0744 104.675C50.6306 104.722 51.1888 104.612 51.6859 104.358Z" fill="#EACDB5"/>
<path fill-rule="evenodd" clip-rule="evenodd" d="M49.1145 103.838C48.868 103.477 48.6743 103.063 48.4453 102.676C48.4184 103.019 48.4634 103.364 48.5774 103.688C48.6751 103.942 48.8394 104.164 49.0529 104.331C49.2656 104.505 49.5212 104.617 49.7926 104.657C49.5452 104.403 49.3185 104.129 49.1145 103.838Z" fill="#D3A37F"/>
<path fill-rule="evenodd" clip-rule="evenodd" d="M54.803 104.252V99.2415C54.3685 98.9047 53.8398 98.7117 53.2905 98.6896C52.7412 98.6675 52.1986 98.8174 51.7385 99.1182C51.0272 99.654 50.5231 100.419 50.312 101.284C50.1006 102.464 50.0654 103.873 51.3335 104.349C51.8992 104.544 52.4967 104.631 53.0946 104.604C53.705 104.575 54.3036 104.426 54.8558 104.164L54.803 104.252Z" fill="#EACDB5"/>
<path fill-rule="evenodd" clip-rule="evenodd" d="M50.2065 102.139C50.1105 102.594 50.1694 103.068 50.3738 103.486C50.5833 103.901 50.9238 104.235 51.3425 104.437C51.7829 104.621 52.2567 104.711 52.7338 104.701C51.7472 104.002 50.8916 103.135 50.2065 102.139V102.139Z" fill="#D3A37F"/>
<path fill-rule="evenodd" clip-rule="evenodd" d="M56.4674 99.4708C55.7365 99.0481 54.4596 98.6518 53.9577 99.5941C53.3946 100.641 53.2619 101.867 53.5879 103.011C54.2659 105.723 59.0916 105.248 60.8352 104.059C61.3972 103.635 61.8619 103.096 62.1976 102.478C62.5334 101.86 62.7324 101.177 62.7813 100.475C60.6151 100.863 58.3811 100.51 56.441 99.4708H56.4674Z" fill="#EACDB5"/>
<path fill-rule="evenodd" clip-rule="evenodd" d="M53.4031 101.479C53.3846 101.996 53.447 102.513 53.588 103.011C53.7969 103.611 54.1949 104.126 54.7221 104.48C55.2494 104.835 55.8773 105.008 56.5116 104.974C55.2086 104.077 54.1421 102.877 53.4031 101.479V101.479Z" fill="#D3A37F"/>
<path fill-rule="evenodd" clip-rule="evenodd" d="M40.9337 61.1385L61.478 52.5615C63.5826 56.0839 70.1343 56.0839 73.7359 55.626L80.6926 54.8423C85.2893 54.3227 87.5877 53.9617 92.2901 55.1505C93.3333 55.3853 94.3576 55.6973 95.3546 56.0839C101.087 58.2766 102.619 60.3548 105.42 64.8458C102.355 75.5715 97.3535 83.5233 86.2404 86.7287C71.6401 90.9115 58.1846 89.027 46.2789 79.8336C41.0834 75.8533 40.3349 67.1178 40.9337 61.0945V61.1385Z" fill="#F7941D"/>
<path fill-rule="evenodd" clip-rule="evenodd" d="M46.2789 79.8335L46.9393 80.3266H47.1419C52.5858 78.02 57.7306 75.0632 62.4643 71.5207C64.4395 70.0407 66.2519 68.3552 67.8711 66.4925C69.1742 64.6194 70.2724 62.6119 71.1469 60.5044C71.7281 59.1043 72.3005 57.7129 72.9081 56.3304L72.459 57.3607C72.6704 56.8587 72.8905 56.348 73.0754 55.8284C69.3329 56.1366 63.5122 55.9077 61.566 52.6143L40.9337 61.1384C40.3349 67.1617 41.0746 75.8972 46.2789 79.8335Z" fill="#E07A0B"/>
<path fill-rule="evenodd" clip-rule="evenodd" d="M101.748 65.189C100.323 64.0469 98.7826 63.0582 97.151 62.239C96.5065 61.9898 95.8403 61.8012 95.1609 61.6754C94.5015 61.6225 93.8389 61.6225 93.1795 61.6754C91.5273 61.9586 89.9097 62.4161 88.3539 63.0403C87.4276 63.468 86.5432 63.9809 85.7121 64.5725C84.9319 65.2309 84.2074 65.9525 83.5458 66.73C82.9033 67.6193 82.3489 68.5689 81.8903 69.5655C81.4926 70.6268 81.1977 71.7237 81.0097 72.8414C80.904 73.919 80.904 75.0043 81.0097 76.0819C81.3352 77.7834 81.8491 79.4432 82.5419 81.0309C83.4264 83.0708 84.4809 85.0327 85.6945 86.8957L86.3549 86.7108C96.5434 83.7872 101.677 76.8921 104.742 67.4521C103.65 66.7212 102.716 65.9375 101.748 65.189Z" fill="#E07A0B"/>
<path fill-rule="evenodd" clip-rule="evenodd" d="M40.9337 61.1381L45.0725 59.377C49.6692 70.6838 56.758 77.2971 66.5238 79.1111C73.322 80.3616 76.4834 78.4067 82.762 78.2922C87.4312 78.1889 92.0536 79.2416 96.2176 81.3567C93.3346 83.8881 89.9139 85.731 86.214 86.7459C71.6401 90.9111 58.1846 89.0267 46.2789 79.8332C41.0834 75.8441 40.3349 67.1174 40.9337 61.0941V61.1381Z" fill="#FFEBD8"/>
<path fill-rule="evenodd" clip-rule="evenodd" d="M51.2014 70.0585C48.6065 66.8512 46.5269 63.2594 45.0372 59.4121L40.8984 61.1733C40.5972 64.1664 40.6889 67.1861 41.1714 70.1554C44.5412 70.2141 47.8845 70.1818 51.2014 70.0585Z" fill="#DDBFA6"/>
<path fill-rule="evenodd" clip-rule="evenodd" d="M81.001 78.5921C81.1187 79.1126 81.2717 79.6246 81.4589 80.1244C81.841 80.9167 82.2918 81.674 82.8062 82.3875C83.7262 83.5056 84.7525 84.5319 85.8707 85.452L87.174 86.3326C90.5119 85.3263 93.6017 83.6314 96.2441 81.3572C92.0849 79.2377 87.4643 78.1846 82.7974 78.2927H81.0362L81.001 78.5921Z" fill="#DDBFA6"/>
<path fill-rule="evenodd" clip-rule="evenodd" d="M103.509 71.6354L105.041 64.1768C105.864 65.4312 106.56 66.7646 107.119 68.1571C107.947 70.1208 108.519 72.56 109.409 74.4093C110.783 77.3335 112.428 80.1225 114.323 82.7397C116.022 85.0117 122.248 91.1582 125.251 88.5341C125.618 88.1725 125.877 87.7153 125.999 87.2143C126.12 86.7132 126.099 86.1882 125.938 85.6985C125.233 82.1145 128.527 82.546 129.892 84.7475C130.687 85.8961 131.069 87.2809 130.975 88.675C130.877 90.0681 130.305 91.3858 129.354 92.4087C127.593 94.5573 125.022 94.892 122.31 94.575C119.278 94.2321 116.435 92.9266 114.199 90.85C108.766 85.6985 105.578 79.05 103.474 71.653L103.509 71.6354Z" fill="#F7941D"/>
<path fill-rule="evenodd" clip-rule="evenodd" d="M103.509 71.6354L105.041 64.1768C105.864 65.4312 106.56 66.7646 107.119 68.1571C107.947 70.1208 108.519 72.56 109.409 74.4093C110.783 77.3335 112.428 80.1225 114.323 82.7397C116.022 85.0117 122.248 91.1582 125.251 88.5341C125.618 88.1725 125.877 87.7153 125.999 87.2143C126.12 86.7132 126.099 86.1882 125.938 85.6985C125.233 82.1145 128.527 82.546 129.892 84.7475C130.687 85.8961 131.069 87.2809 130.975 88.675C130.877 90.0681 130.305 91.3858 129.354 92.4087C127.593 94.5573 125.022 94.892 122.31 94.575C119.278 94.2321 116.435 92.9266 114.199 90.85C108.766 85.6985 105.578 79.05 103.474 71.653L103.509 71.6354Z" fill="#E07A0B"/>
<path fill-rule="evenodd" clip-rule="evenodd" d="M58.9244 89.6344C56.6994 89.2223 54.6186 88.2425 52.8835 86.79L50.6292 89.1765C53.0487 90.2423 55.6483 90.8399 58.2903 90.9376C59.4263 90.9376 61.0026 90.057 58.986 89.6344H58.9244Z" fill="#4F2004"/>
<path fill-rule="evenodd" clip-rule="evenodd" d="M109.206 74.0391C109.27 74.1589 109.325 74.2824 109.374 74.4089L110.906 77.4734C109.878 78.9241 108.539 80.1274 106.987 80.9958C106.618 80.2297 106.248 79.4635 105.931 78.6886C107.419 77.4871 108.544 75.8956 109.18 74.0919L109.206 74.0391ZM112.535 80.2032C113.055 81.031 113.592 81.7355 114.067 82.5808C113.054 84.0613 111.661 85.2416 110.034 85.9976C109.497 85.2491 109.013 84.4653 108.502 83.6992C110.052 82.7973 111.41 81.6006 112.5 80.1768L112.535 80.2032ZM116.014 84.8C116.705 85.4967 117.431 86.158 118.189 86.7813C117.62 88.6698 116.52 90.3544 115.018 91.6334C114.739 91.4192 114.472 91.1899 114.217 90.9465C113.53 90.2861 112.87 89.5992 112.245 88.8947C113.111 88.4935 113.891 87.9283 114.543 87.2304C115.191 86.5138 115.691 85.6758 116.014 84.7647V84.8ZM120.795 88.5073C121.603 88.9706 122.507 89.239 123.437 89.291C123.638 90.2206 123.632 91.183 123.419 92.11C123.206 93.0369 122.791 93.9054 122.204 94.6538C120.724 94.4438 119.284 94.0103 117.933 93.3682C118.732 92.7728 119.398 92.0169 119.888 91.1491C120.372 90.2958 120.671 89.351 120.769 88.3752L120.795 88.5073ZM125.392 88.5073C125.683 88.1398 125.882 87.7081 125.973 87.248C126.062 86.7848 126.034 86.3068 125.894 85.8567C125.189 82.2726 128.483 82.7041 129.848 84.9056C130.643 86.0542 131.025 87.439 130.931 88.8331C130.833 90.2262 130.261 91.5439 129.311 92.5668C128.911 93.0706 128.429 93.5024 127.884 93.8437C127.925 92.8208 127.72 91.803 127.285 90.8761C126.853 89.9508 126.204 89.144 125.392 88.5249V88.5073Z" fill="#4F2004"/>
<path fill-rule="evenodd" clip-rule="evenodd" d="M84.9812 73.247C85.1675 76.2174 86.1234 79.0883 87.755 81.5774C89.8861 84.7388 94.7558 87.1604 98.2341 88.4461C99.9346 88.9379 101.505 89.8011 102.831 90.9734C104.616 93.1165 105.539 95.8478 105.42 98.6346C105.357 99.5475 105.07 100.431 104.583 101.206C107.007 103.314 110.134 104.436 113.345 104.35C114.613 102.245 114.525 99.1982 114.023 95.8783L113.882 94.8304C113.743 92.5266 113.449 90.2348 113.002 87.9705C112.915 87.6544 112.812 87.3428 112.694 87.0371C112.323 85.8461 111.624 84.7838 110.677 83.9726C108.612 81.8952 107.418 79.1075 107.34 76.1794C107.34 73.9338 107.093 71.9789 106.943 70.1825C105.825 58.0655 93.4261 58.3561 87.7727 63.6837C84.9812 66.3959 84.7082 69.5837 84.9812 73.247Z" fill="#F7941D"/>
<path fill-rule="evenodd" clip-rule="evenodd" d="M66.1718 71.8198C65.5105 77.1268 63.375 82.1421 60.0076 86.2968C57.896 88.6962 55.6184 90.9443 53.1918 93.0246C50.4797 95.5438 48.2086 98.4995 46.4728 101.769L37.2794 100.774L35.4565 98.4138C42.1579 93.7907 45.5482 85.4867 48.1195 77.94C47.9966 73.7246 48.3929 69.51 49.2995 65.3915C52.1791 54.5513 68.1883 55.0444 66.2598 71.8198H66.1718Z" fill="#F7941D"/>
<path fill-rule="evenodd" clip-rule="evenodd" d="M49.2379 67.954C51.6859 67.3288 54.1428 66.7476 56.6261 66.1928C58.8389 65.6967 61.0023 65.0011 63.0897 64.1146L65.2383 63.1811C61.8216 55.3438 51.4482 56.8937 49.2379 65.4267C49.0265 66.2456 48.8416 67.1438 48.6919 68.0685L49.2379 67.954Z" fill="#E07A0B"/>
<path fill-rule="evenodd" clip-rule="evenodd" d="M36.6717 104.887L38.5737 99.753C37.5346 98.6962 35.6766 97.5162 34.1708 98.3528C33.3804 99.0139 32.7763 99.8699 32.4184 100.836C32.0664 101.802 31.9693 102.842 32.1366 103.857C32.6914 105.389 34.9457 105.389 36.5396 104.869L36.6717 104.887Z" fill="#FFEBD8"/>
<path fill-rule="evenodd" clip-rule="evenodd" d="M32.2687 101.285C31.9704 102.115 31.9154 103.014 32.1102 103.874C32.3346 104.335 32.698 104.714 33.1493 104.957C33.6002 105.196 34.1159 105.282 34.6199 105.204C33.5101 104.123 32.7 102.773 32.2687 101.285V101.285Z" fill="#EDBF9A"/>
<path fill-rule="evenodd" clip-rule="evenodd" d="M45.0108 104.578C45.6447 104.236 46.1672 103.72 46.5167 103.09C46.8604 102.457 47.0191 101.74 46.9746 101.02C46.2121 101.126 45.4387 101.126 44.6762 101.02C43.3222 100.887 42.0051 100.502 40.7928 99.8845C40.0907 99.5324 39.3347 99.3003 38.5561 99.1976C37.9018 99.1477 37.2506 99.3284 36.7156 99.7084C36.1835 100.093 35.8008 100.65 35.6325 101.285C34.7519 103.486 34.972 105.203 37.6402 105.265C39.7537 105.265 43.4434 105.371 45.0108 104.534V104.578Z" fill="#FFEBD8"/>
<path fill-rule="evenodd" clip-rule="evenodd" d="M35.8967 100.774C35.7962 100.953 35.708 101.139 35.6325 101.329C34.7519 103.539 34.972 105.248 37.6402 105.309H38.5208C37.2165 104.091 36.3032 102.513 35.8967 100.774V100.774Z" fill="#EDBF9A"/>
<path fill-rule="evenodd" clip-rule="evenodd" d="M102.065 106.322L103.06 100.395C101.704 99.5676 100.841 100.061 100.198 101.346C99.57 102.465 99.2652 103.737 99.3172 105.018C99.4669 106.718 100.585 107.352 102.065 106.322Z" fill="#FFEBD8"/>
<path fill-rule="evenodd" clip-rule="evenodd" d="M99.3438 104.358C99.3261 104.608 99.3261 104.858 99.3438 105.107C99.4495 106.498 100.224 107.176 101.334 106.789C100.56 106.076 99.89 105.258 99.3438 104.358V104.358Z" fill="#EDBF9A"/>
<path fill-rule="evenodd" clip-rule="evenodd" d="M104.997 106.12V100.836C104.645 99.3037 102.355 99.6735 101.589 101.514C101.041 102.67 100.79 103.944 100.858 105.221C100.875 105.486 100.947 105.744 101.07 105.979C101.197 106.213 101.371 106.42 101.58 106.586C101.791 106.752 102.034 106.872 102.294 106.938C102.552 106.991 102.819 106.991 103.077 106.938C103.763 106.856 104.409 106.575 104.935 106.128L104.997 106.12Z" fill="#FFEBD8"/>
<path fill-rule="evenodd" clip-rule="evenodd" d="M101.228 102.658C100.946 103.466 100.841 104.325 100.92 105.177C100.937 105.441 101.009 105.699 101.131 105.934C101.256 106.17 101.431 106.378 101.642 106.542C101.851 106.705 102.09 106.825 102.347 106.894C102.608 106.947 102.878 106.947 103.139 106.894H103.359C102.385 105.631 101.662 104.193 101.228 102.658V102.658Z" fill="#EDBF9A"/>
<path fill-rule="evenodd" clip-rule="evenodd" d="M10.7998 29.4286L13.8643 20.1118C12.5162 17.9521 10.6041 16.2013 8.33411 15.0484C7.43103 14.6459 6.41876 14.559 5.46031 14.8018C4.50186 15.0446 3.65303 15.603 3.05053 16.3869C1.98501 17.5423 1.22787 18.9475 0.849036 20.4729C0.5316 21.8103 0.67431 23.2157 1.25411 24.462C1.83537 25.7048 2.81462 26.7181 4.0368 27.3415C6.08498 28.5401 8.38029 29.254 10.7469 29.4286H10.7998Z" fill="#F7941D"/>
<path fill-rule="evenodd" clip-rule="evenodd" d="M111.258 106.815C111.809 106.666 112.305 106.36 112.685 105.935C113.054 105.495 113.284 104.955 113.345 104.385C111.685 104.25 110.079 103.725 108.66 102.852C107.815 102.276 107.046 101.595 106.371 100.827C106.187 100.655 105.976 100.516 105.746 100.413C104.751 99.9993 104.213 100.581 103.905 101.488C103.43 102.923 103.553 105.794 104.83 106.771C106.107 107.749 109.955 107.343 111.293 106.771L111.258 106.815Z" fill="#FFEBD8"/>
<path fill-rule="evenodd" clip-rule="evenodd" d="M103.597 102.967C103.494 103.645 103.545 104.337 103.747 104.993C103.948 105.648 104.294 106.25 104.759 106.753C106.091 107.324 107.559 107.495 108.986 107.247C106.775 106.439 104.885 104.937 103.597 102.967V102.967Z" fill="#EDBF9A"/>
<path fill-rule="evenodd" clip-rule="evenodd" d="M12.0149 27.8609L13.7761 22.2515C11.7683 19.3896 7.23326 15.1099 4.66192 19.8827C4.24605 20.6238 3.98538 21.4417 3.8958 22.2867C3.68445 24.5851 4.47699 25.3512 6.37908 26.2406C8.15523 27.0885 10.0597 27.636 12.0149 27.8609V27.8609Z" fill="#FCB040"/>
<path fill-rule="evenodd" clip-rule="evenodd" d="M59.0564 15.8054L52.179 8.76064C52.4591 6.23395 53.4175 3.83012 54.9528 1.80392C55.5883 1.04707 56.4598 0.525988 57.4273 0.32452C58.395 0.124876 59.4015 0.251856 60.2893 0.685565C61.7555 1.2634 63.052 2.20242 64.0582 3.41542C64.9263 4.48519 65.411 5.81494 65.4349 7.19241C65.4589 8.56988 65.0207 9.91567 64.1903 11.015C62.8638 12.9799 61.1083 14.6179 59.0564 15.8054Z" fill="#F7941D"/>
<path fill-rule="evenodd" clip-rule="evenodd" d="M57.2687 14.9425L53.2356 10.6539C53.808 7.1932 56.0271 1.37246 60.4125 4.48977C61.1096 4.98047 61.7072 5.59903 62.1737 6.31261C63.3713 8.30276 62.9574 9.30664 61.6629 10.9093C60.4203 12.4509 58.9328 13.7777 57.2599 14.8368L57.2687 14.9425Z" fill="#FCB040"/>
<path fill-rule="evenodd" clip-rule="evenodd" d="M7.44464 36.9311C7.76165 33.8666 8.17553 31.0047 8.69509 28.2484C9.85747 21.9962 10.333 20.5872 15.8543 17.5227C26.2809 11.9786 37.7765 8.73831 49.5636 8.0211C55.1818 7.62483 56.3618 7.80095 59.7961 12.0807L75.9903 32.2111C83.6515 41.4045 68.8311 52.3944 61.5573 56.7269C56.0004 60.1493 49.911 62.6196 43.5403 64.0359C29.5036 67.1004 16.7878 65.7971 11.0551 63.0056C3.97509 59.6241 5.75389 52.773 7.44464 36.9311Z" fill="#F7941D"/>
<path fill-rule="evenodd" clip-rule="evenodd" d="M28.2619 21.7938L30.0231 48.2821L53.2973 42.3557L43.1528 18.06C47.7495 16.2988 52.9274 15.2245 56.1064 19.7156L64.5161 31.6653C68.6637 37.5477 70.3368 41.5632 66.8937 47.516C63.1071 54.0676 52.8041 59.4305 45.7594 61.3062C39.1725 63.0674 26.2277 64.6612 20.7504 59.6947C19.49 58.5498 18.4512 57.1826 17.6859 55.6615C15.4492 51.2585 15.6253 46.9436 16.0832 42.2236L17.1047 31.7357C17.8092 24.5941 21.1555 23.0442 28.3059 21.7762L28.2619 21.7938Z" fill="#FFEBD8"/>
<path d="M33.3959 57.3692C33.3283 57.3545 33.265 57.3244 33.211 57.2812C33.1546 57.2363 33.1094 57.1791 33.0789 57.1139C33.0438 57.0521 33.0256 56.9823 33.026 56.9113C33.0205 56.8401 33.0319 56.7687 33.0595 56.7028C33.0871 56.637 33.1299 56.5786 33.1845 56.5327C33.2366 56.4828 33.3001 56.4465 33.3695 56.427C33.4393 56.4139 33.511 56.4139 33.5808 56.427C33.6523 56.4371 33.7211 56.461 33.7833 56.4974C35.6104 57.4403 37.723 57.6694 39.7098 57.1403C40.6035 56.7795 41.4173 56.2462 42.1048 55.5708C42.7923 54.8954 43.3399 54.0912 43.7165 53.204L43.9102 52.8165L44.3241 52.975C46.1522 53.8577 48.2242 54.0997 50.2065 53.6619C51.0132 53.403 51.7599 52.9852 52.4027 52.4332C53.0454 51.8812 53.5712 51.2061 53.949 50.4477C54.0135 50.3321 54.1212 50.2466 54.2484 50.21C54.3768 50.1788 54.5122 50.1977 54.6271 50.2628C54.684 50.2941 54.7337 50.3368 54.7731 50.3884C54.8125 50.4399 54.8408 50.4991 54.856 50.5622C54.8737 50.6241 54.8781 50.689 54.869 50.7528C54.8599 50.8165 54.8375 50.8776 54.8032 50.9321C54.3701 51.8007 53.7676 52.5739 53.031 53.206C52.2945 53.8382 51.4389 54.3166 50.5147 54.613C48.4532 55.0985 46.2898 54.9007 44.3505 54.0494C43.4666 55.8924 41.9097 57.3264 40.0004 58.0561C37.7826 58.6718 35.414 58.4265 33.3695 57.3692H33.3959Z" fill="#4F2004"/>
<path fill-rule="evenodd" clip-rule="evenodd" d="M24.0615 34.4828C24.3354 34.4855 24.6033 34.4024 24.8276 34.2451C25.0564 34.0961 25.2345 33.8811 25.3384 33.6287C25.4618 33.3134 25.4652 32.9639 25.348 32.6462C25.2309 32.3286 25.0013 32.065 24.7027 31.9055C24.4041 31.7459 24.0574 31.7014 23.7282 31.7804C23.399 31.8594 23.1103 32.0565 22.9167 32.3342C22.7671 32.5617 22.6875 32.828 22.6878 33.1003C22.6868 33.282 22.7222 33.462 22.7917 33.6299C22.8613 33.7977 22.9637 33.95 23.0928 34.0778C23.3499 34.3349 23.6979 34.4804 24.0615 34.4828V34.4828Z" fill="#4F2004"/>
<path fill-rule="evenodd" clip-rule="evenodd" d="M51.2808 26.478C51.6209 26.4461 51.9359 26.2855 52.1614 26.0289C52.3935 25.7769 52.5224 25.4468 52.5224 25.1042C52.5101 24.7772 52.3822 24.4652 52.1614 24.2236C51.9359 23.9671 51.6209 23.8064 51.2808 23.7745C51.0878 23.7552 50.8929 23.7762 50.7084 23.8362C50.5251 23.8983 50.3549 23.9939 50.2065 24.118C50.0651 24.2499 49.9514 24.4085 49.8718 24.5847C49.7915 24.7618 49.7495 24.9538 49.7485 25.1483C49.7494 25.3399 49.7915 25.5291 49.8718 25.7031C49.9492 25.8805 50.0633 26.0395 50.2065 26.1698C50.3524 26.2996 50.5232 26.3984 50.7084 26.4604C50.8959 26.5056 51.0908 26.5116 51.2808 26.478V26.478Z" fill="#4F2004"/>
<path fill-rule="evenodd" clip-rule="evenodd" d="M7.77933 60.5137C10.5791 56.5295 14.2464 53.2326 18.505 50.8712C20.4071 49.8321 20.6449 50.6598 19.3152 52.2537C16.4755 55.6717 14.2282 59.5412 12.6666 63.7015C12.0855 63.4901 11.5307 63.2612 11.0375 63.0322C9.75728 62.4589 8.63373 61.5861 7.76172 60.4873L7.77933 60.5137Z" fill="#4F2004"/>
<path fill-rule="evenodd" clip-rule="evenodd" d="M5.92107 53.2839C8.90375 50.4207 12.4907 48.2632 16.4178 46.97C18.179 46.3976 17.95 47.3839 16.682 48.3349C12.8164 51.183 9.45327 54.6562 6.73122 58.6115C6.13806 56.9 5.86348 55.0943 5.92107 53.2839V53.2839Z" fill="#4F2004"/>
<path fill-rule="evenodd" clip-rule="evenodd" d="M77.8748 35.7952C73.4009 34.479 68.6896 34.1782 64.0846 34.9146C62.2353 35.17 62.0592 36.1122 64.0846 36.4468C68.7603 37.247 73.3699 38.395 77.8748 39.8812C78.2093 38.5278 78.2093 37.1133 77.8748 35.76V35.7952Z" fill="#4F2004"/>
<path fill-rule="evenodd" clip-rule="evenodd" d="M77.0646 42.1266C72.7566 40.2312 68.0617 39.3804 63.3625 39.6434C62.2618 39.6434 61.0642 40.3302 62.658 40.8674C66.767 42.1219 70.6259 44.0826 74.0618 46.6617C75.2868 45.2754 76.3178 43.729 77.1262 42.065L77.0646 42.1266Z" fill="#4F2004"/>
<path fill-rule="evenodd" clip-rule="evenodd" d="M29.9966 48.2815C36.2576 42.6633 43.7867 39.9158 53.2708 42.355C52.343 44.348 51.0165 46.1295 49.3732 47.5896C47.7298 49.0497 45.8045 50.1573 43.7163 50.844C41.4011 51.5916 38.9357 51.7488 36.5443 51.3012C34.1529 50.8537 31.9112 49.8157 30.023 48.2815H29.9966Z" fill="#4F2004"/>
<path fill-rule="evenodd" clip-rule="evenodd" d="M51.1398 44.0731C49.0733 45.2973 46.8793 46.2924 44.597 47.0407C42.1801 47.9104 39.6717 48.5013 37.1207 48.8019C36.0548 48.9675 34.9739 49.0148 33.8977 48.9428C32.6561 48.8371 31.432 48.6081 30.208 48.4056C32.0886 49.8856 34.3034 50.8819 36.6585 51.3071C39.0135 51.7324 41.4369 51.5737 43.7164 50.8449C45.7559 50.1702 47.6417 49.0984 49.2649 47.6913C50.8881 46.2842 52.2167 44.5696 53.174 42.6465C52.5318 43.1713 51.8519 43.6481 51.1398 44.0731V44.0731Z" fill="#351505"/>
<path fill-rule="evenodd" clip-rule="evenodd" d="M77.2496 69.1955C76.3691 72.3675 76.2634 75.7047 76.9414 78.9261L78.3768 78.7324V69.2131C78.3768 66.4568 77.7339 66.765 77.1968 69.2131L77.2496 69.1955Z" fill="#4F2004"/>
<path fill-rule="evenodd" clip-rule="evenodd" d="M68.373 73.4755C67.8837 75.3865 67.6294 77.35 67.6157 79.3226C68.2762 79.4195 68.919 79.4811 69.5178 79.5252V73.5371C69.5178 70.7632 68.875 71.0626 68.3378 73.5371L68.373 73.4755Z" fill="#4F2004"/>
<path fill-rule="evenodd" clip-rule="evenodd" d="M49 89.0271C47.2091 89.2262 45.3968 89.0919 43.6548 88.6309C43.1793 89.5115 42.6597 90.392 42.1226 91.2198C44.3362 91.3396 46.555 91.1168 48.7006 90.5594C49.8014 90.2688 51.0254 88.9303 48.9384 89.1152L49 89.0271Z" fill="#4F2004"/>
<path fill-rule="evenodd" clip-rule="evenodd" d="M48.0401 76.98C51.0174 76.5314 53.8742 75.4892 56.441 73.9155C59.1973 72.4625 57.9732 73.9948 56.6259 75.2981C54.1117 77.9353 50.8245 79.7053 47.2388 80.3527C47.5294 79.5601 47.8024 78.8204 48.1194 77.9663V76.9712L48.0401 76.98Z" fill="#4F2004"/>
<path fill-rule="evenodd" clip-rule="evenodd" d="M46.2084 94.7422C47.695 94.7709 49.1533 95.1544 50.4617 95.8606C50.0508 96.3537 49.6633 96.8645 49.2993 97.3928C48.4364 96.3642 47.2452 95.6645 45.9266 95.4115C44.9139 95.1561 45.2662 94.6982 46.1556 94.7422H46.2084Z" fill="#4F2004"/>
<path fill-rule="evenodd" clip-rule="evenodd" d="M54.3892 83.5847C57.6372 83.3276 60.7827 82.3273 63.5826 80.6611C62.9908 81.8743 62.3262 83.0505 61.5925 84.1835C59.2337 85.0366 56.6928 85.2582 54.2219 84.8264C51.994 84.5093 52.3638 83.7256 54.4068 83.6023L54.3892 83.5847Z" fill="#4F2004"/>
<path fill-rule="evenodd" clip-rule="evenodd" d="M67.3781 55.6699C67.4814 57.8232 67.3068 59.9808 66.8585 62.0895C66.339 64.5727 67.4397 64.4495 68.3907 62.4593C69.3233 60.3775 69.8437 58.1346 69.923 55.8548C69.0717 55.8461 68.2217 55.7843 67.3781 55.6699Z" fill="#4F2004"/>
<path fill-rule="evenodd" clip-rule="evenodd" d="M72.7762 55.7937C73.3115 59.7146 73.1834 63.6976 72.3976 67.5761C71.4289 71.8822 72.8115 70.5437 74.1588 67.5761C75.8177 63.7514 76.5247 59.5816 76.2194 55.4238L73.8594 55.688L72.8203 55.7761L72.7762 55.7937Z" fill="#4F2004"/>
<path fill-rule="evenodd" clip-rule="evenodd" d="M79.2573 55.0885C80.0158 57.9874 80.3656 60.978 80.2964 63.9737C80.2964 66.6155 81.723 65.9991 82.0576 63.9737C82.6224 60.9393 82.673 57.8315 82.2073 54.7803L80.6751 54.9476L79.2573 55.0885Z" fill="#4F2004"/>
<path fill-rule="evenodd" clip-rule="evenodd" d="M85.5625 54.4727C86.3746 55.9338 86.8471 57.5591 86.945 59.2279C87.1123 61.2444 88.2043 60.7601 88.354 59.1222C88.4965 57.5786 88.3623 56.0219 87.9577 54.5255C87.1605 54.4638 86.3597 54.4638 85.5625 54.5255V54.4727Z" fill="#4F2004"/>
<path fill-rule="evenodd" clip-rule="evenodd" d="M61.6453 59.0605C61.2046 61.8792 59.7327 64.4337 57.5153 66.2286C55.983 67.3029 56.6347 67.8929 58.5104 66.889C60.9974 65.6486 62.8957 63.4782 63.7939 60.8482C63.1925 60.1264 62.4644 59.5206 61.6453 59.0605V59.0605Z" fill="#4F2004"/>
<path fill-rule="evenodd" clip-rule="evenodd" d="M59.303 96.3361C60.3733 96.0887 61.4758 96.0115 62.57 96.1071C62.6581 96.7147 62.755 97.3312 62.8254 97.9564C61.7712 97.3043 60.5401 96.9965 59.303 97.0758C58.2463 97.0758 58.4753 96.5562 59.303 96.3537V96.3361Z" fill="#4F2004"/>
<path fill-rule="evenodd" clip-rule="evenodd" d="M86.0996 91.1491C87.4136 90.2166 88.9169 89.5852 90.5026 89.2998C90.6523 89.9963 90.6523 90.7167 90.5026 91.4132C89.0901 91.1401 87.6275 91.3156 86.3198 91.9152C85.2014 92.3731 85.2278 91.7214 86.0732 91.1491H86.0996Z" fill="#4F2004"/>
<path fill-rule="evenodd" clip-rule="evenodd" d="M85.448 94.4163C83.5874 94.0581 81.8195 93.324 80.2525 92.2588C80.0993 93.1617 79.7408 94.0173 79.2046 94.7597C81.0051 95.3158 82.8696 95.6384 84.7523 95.7195C85.8883 95.7195 87.4646 94.8742 85.448 94.4163Z" fill="#4F2004"/>
<path fill-rule="evenodd" clip-rule="evenodd" d="M101.836 76.8751C104.227 74.2557 105.96 71.1041 106.89 67.6816L107.093 68.1748C107.463 69.0554 107.78 70.024 108.106 71.0103C107.082 73.8477 105.154 76.2703 102.62 77.9054C100.753 79.1734 100.489 78.3457 101.915 76.8751H101.836Z" fill="#4F2004"/>
<path fill-rule="evenodd" clip-rule="evenodd" d="M87.7462 81.5945C90.6083 80.5003 93.2157 78.8309 95.4074 76.6896C97.7674 74.6378 96.8516 76.4342 95.9005 77.9753C94.4318 80.4375 92.3702 82.493 89.9037 83.9545C89.0565 83.2763 88.3094 82.4818 87.6846 81.5945H87.7462Z" fill="#4F2004"/>
<path fill-rule="evenodd" clip-rule="evenodd" d="M110.175 96.2739C108.426 96.3248 106.682 96.0654 105.023 95.5078C105.246 96.3412 105.364 97.199 105.376 98.0615C106.852 98.0953 108.328 97.9743 109.779 97.7005C110.923 97.498 112.244 96.1683 110.175 96.2739Z" fill="#4F2004"/>
<path fill-rule="evenodd" clip-rule="evenodd" d="M103.817 84.9854C102.917 86.6321 101.699 88.0838 100.233 89.2563C101.042 89.6401 101.797 90.1287 102.479 90.7093C103.456 89.2296 104.249 87.6355 104.839 85.9629C105.244 84.8886 104.839 83.1098 103.817 84.9238V84.9854Z" fill="#4F2004"/>
<path fill-rule="evenodd" clip-rule="evenodd" d="M109.039 93.2535C110.369 92.3021 111.899 91.6694 113.513 91.4043C113.513 92.1352 113.653 92.9365 113.715 93.5794C112.239 93.2344 110.69 93.3893 109.312 94.0197C108.15 94.4776 108.185 93.7907 109.039 93.2535Z" fill="#4F2004"/>
<path d="M133.238 111.887L20.319 115.736C15.2686 115.874 10.4738 117.987 6.96373 121.621C3.45369 125.255 1.50831 130.12 1.54519 135.172C1.58208 140.224 3.59829 145.06 7.16102 148.643C10.7237 152.225 15.549 154.268 20.6008 154.332L133.537 156.498C136.518 156.557 139.48 156.017 142.249 154.912C145.017 153.806 147.537 152.157 149.657 150.062C151.778 147.967 153.457 145.468 154.596 142.713C155.735 139.957 156.31 137.002 156.288 134.021C156.266 131.04 155.646 128.093 154.466 125.356C153.286 122.618 151.569 120.145 149.417 118.081C147.265 116.018 144.722 114.407 141.937 113.343C139.152 112.279 136.182 111.784 133.203 111.887H133.238Z" fill="url(#paint1_linear_584_210)"/>
<path fill-rule="evenodd" clip-rule="evenodd" d="M5.95654 132.537C8.13162 125.897 10.6677 122.56 15.0091 120.763C17.2247 119.917 19.5437 119.372 21.9042 119.143C26.5361 118.588 31.8637 118.395 36.98 118.192C48.6567 117.708 59.8755 117.725 70.7333 117.382C59.9283 118.122 48.8152 118.738 37.2706 119.654C32.2336 120.059 27.038 120.288 22.4501 121.001C15.5374 122.111 10.1746 124.612 5.95654 132.537Z" fill="#FEFEFE"/>
<path d="M98.4191 28.8818L93.1355 35.3366L99.0091 41.2102L103.703 35.046L98.4191 28.8818Z" fill="#339E0B"/>
<path d="M140.397 63.666L136.285 69.8302L140.547 75.695L144.95 69.3899L140.397 63.666Z" fill="#339E0B"/>
<path d="M16.5236 73.3525L13.0012 79.6576L17.1136 84.36L20.4863 79.0764L16.5236 73.3525Z" fill="#339E0B"/>
<defs>
<linearGradient id="paint0_linear_584_210" x1="32.5946" y1="1.3024" x2="124.511" y2="159.035" gradientUnits="userSpaceOnUse">
<stop stop-color="#DBFF00"/>
<stop offset="0.93" stop-color="#569A00"/>
</linearGradient>
<linearGradient id="paint1_linear_584_210" x1="78.9844" y1="111.209" x2="78.9844" y2="157" gradientUnits="userSpaceOnUse">
<stop stop-color="#F33877"/>
<stop offset="1" stop-color="#D11253"/>
</linearGradient>
</defs>
</svg>
