<svg width="177" height="177" viewBox="0 0 177 177" fill="none" xmlns="http://www.w3.org/2000/svg">
<path d="M88.1653 164.487C129.018 164.487 162.135 131.369 162.135 90.5166C162.135 49.664 129.018 16.5464 88.1653 16.5464C47.3128 16.5464 14.1952 49.664 14.1952 90.5166C14.1952 131.369 47.3128 164.487 88.1653 164.487Z" fill="url(#paint0_linear_396_90)"/>
<path d="M134.3 72.5084L21.918 123.416C22.5697 124.737 23.2741 126.058 24.005 127.299L136.114 76.524C136.646 76.2834 137.061 75.8412 137.268 75.2945C137.474 74.7479 137.455 74.1417 137.215 73.6092C136.974 73.0767 136.532 72.6616 135.985 72.4551C135.439 72.2487 134.832 72.2679 134.3 72.5084ZM130.681 83.0756L25.8895 130.416C26.6997 131.676 27.5362 132.909 28.4168 134.115L132.495 87.0911C133.027 86.8506 133.442 86.4083 133.649 85.8617C133.855 85.3151 133.836 84.7088 133.595 84.1763C133.355 83.6438 132.913 83.2287 132.366 83.0223C131.819 82.8159 131.213 82.835 130.681 83.0756ZM128.822 92.7622L30.6976 137.065C31.6604 138.239 32.6584 139.399 33.6916 140.543L130.628 96.7777C131.153 96.5336 131.561 96.0925 131.763 95.5498C131.965 95.0072 131.945 94.4067 131.708 93.8785C131.47 93.3503 131.034 92.937 130.494 92.728C129.954 92.5191 129.354 92.5313 128.822 92.7622ZM137.532 62.3287L18.7215 116.045C19.2322 117.428 19.7958 118.784 20.3858 120.131L139.337 66.3442C139.818 66.0788 140.182 65.6433 140.358 65.1231C140.534 64.6029 140.51 64.0356 140.289 63.5326C140.069 63.0296 139.668 62.6272 139.166 62.4045C138.664 62.1818 138.097 62.1547 137.576 62.3287H137.532ZM125.564 103.03L36.3774 143.308C37.5134 144.427 38.6934 145.501 39.8998 146.54L127.378 107.054C127.911 106.814 128.326 106.371 128.532 105.825C128.739 105.278 128.72 104.672 128.479 104.139C128.238 103.607 127.796 103.192 127.25 102.985C126.703 102.779 126.097 102.798 125.564 103.039V103.03ZM143.669 53.2498C143.55 52.986 143.381 52.7482 143.17 52.5501C142.959 52.3519 142.711 52.1973 142.44 52.0951C142.169 51.9929 141.881 51.945 141.592 51.9543C141.303 51.9635 141.018 52.0297 140.755 52.149L16.3615 108.314C16.7225 109.758 17.11 111.193 17.5503 112.611L142.595 56.1822C142.858 56.0608 143.094 55.8889 143.29 55.6763C143.486 55.4637 143.638 55.2145 143.738 54.943C143.838 54.6715 143.883 54.383 143.871 54.094C143.86 53.8049 143.791 53.5211 143.669 53.2586V53.2498Z" fill="#339E0B"/>
<path fill-rule="evenodd" clip-rule="evenodd" d="M84.872 114.856L86.2985 108.375C85.4179 107.494 84.3524 107.239 83.4894 108.375C82.6264 109.511 81.0413 112.699 81.7282 114.196C81.8677 114.423 82.0538 114.618 82.2742 114.768C82.498 114.912 82.7504 115.005 83.0139 115.041C83.6265 115.177 84.2653 115.134 84.8543 114.918L84.872 114.856Z" fill="#EACDB5"/>
<path fill-rule="evenodd" clip-rule="evenodd" d="M97.438 95.9854L88.8258 97.5176C89.5934 98.7344 90.0835 100.105 90.2611 101.533C90.7102 105.328 88.1389 106.878 85.6644 109.564L92.7796 113.298L95.4743 113.175L99.3489 105.249C100.344 103.215 101.11 101.727 100.229 99.3845C99.666 97.9932 98.6805 96.8137 97.4116 96.0118L97.438 95.9854Z" fill="#DB7B12"/>
<path fill-rule="evenodd" clip-rule="evenodd" d="M87.8748 115.147L89.0548 109.661C88.9357 109.047 88.5899 108.5 88.0861 108.129C87.7294 107.904 87.308 107.805 86.8885 107.847C86.4688 107.89 86.0769 108.077 85.779 108.375C85.1103 108.994 84.5714 109.739 84.1939 110.568C83.8219 111.4 83.6212 112.298 83.6039 113.21C83.6039 114.469 84.2291 115.05 85.4707 115.323C86.2751 115.46 87.1009 115.397 87.8748 115.138V115.147Z" fill="#EACDB5"/>
<path fill-rule="evenodd" clip-rule="evenodd" d="M84.7663 113.359C84.4403 112.456 84.2475 111.509 84.1939 110.55C83.8174 111.381 83.6166 112.28 83.6039 113.192C83.6039 114.451 84.2291 115.033 85.4707 115.306H85.7878C85.3749 114.697 85.0322 114.045 84.7663 113.359Z" fill="#D3A37F"/>
<path fill-rule="evenodd" clip-rule="evenodd" d="M95.5183 113.157C94.8655 113.006 94.2329 112.779 93.6338 112.479C92.6367 112.061 91.8065 111.324 91.2738 110.383C90.999 109.972 90.6459 109.619 90.2347 109.344C90.1144 109.24 89.9746 109.16 89.8235 109.111C89.6723 109.061 89.5128 109.041 89.3541 109.053C89.1882 109.057 89.0247 109.094 88.8734 109.162C88.7221 109.23 88.5861 109.328 88.4735 109.45C87.5121 110.327 86.8889 111.515 86.7123 112.805C86.4217 114.46 86.3777 115.244 88.2446 115.869C90.6046 116.618 94.9547 116.283 95.5535 113.227L95.5183 113.157Z" fill="#EACDB5"/>
<path fill-rule="evenodd" clip-rule="evenodd" d="M88.7289 115.006C87.9437 114.141 87.331 113.134 86.9237 112.039C86.8545 112.291 86.7986 112.547 86.7564 112.805C86.4658 114.46 86.4218 115.244 88.2886 115.869C88.8214 116.033 89.3708 116.136 89.9266 116.177C89.4912 115.826 89.0902 115.434 88.7289 115.006Z" fill="#D3A37F"/>
<path fill-rule="evenodd" clip-rule="evenodd" d="M68.3079 95.9854L71.7246 96.7339C71.9095 100.256 72.0768 103.726 72.6052 107.151C73.0814 108.987 73.0448 110.918 72.4995 112.734L61.4304 110.339C63.2621 107.556 62.2318 102.414 62.0204 99.1115L68.3079 95.9854Z" fill="#DB7B12"/>
<path fill-rule="evenodd" clip-rule="evenodd" d="M61.6858 115.358L61.9323 110.075C61.5025 109.947 61.0446 109.951 60.6166 110.084C60.1886 110.217 59.8098 110.474 59.5283 110.823C59.1022 111.357 58.8013 111.98 58.6477 112.646C58.4981 113.316 58.4981 114.01 58.6477 114.68C58.7625 114.958 58.9513 115.198 59.1937 115.376C59.4511 115.561 59.7576 115.665 60.0743 115.675C60.6305 115.722 61.1886 115.612 61.6858 115.358Z" fill="#EACDB5"/>
<path fill-rule="evenodd" clip-rule="evenodd" d="M59.1144 114.839C58.8679 114.478 58.6741 114.064 58.4452 113.676C58.4183 114.019 58.4633 114.364 58.5773 114.689C58.6749 114.942 58.8392 115.164 59.0528 115.332C59.2655 115.505 59.5211 115.618 59.7925 115.658C59.5451 115.403 59.3184 115.129 59.1144 114.839Z" fill="#D3A37F"/>
<path fill-rule="evenodd" clip-rule="evenodd" d="M64.8031 115.253V110.242C64.3686 109.905 63.8399 109.712 63.2906 109.69C62.7413 109.668 62.1988 109.818 61.7386 110.119C61.0273 110.654 60.5233 111.42 60.3121 112.285C60.1007 113.465 60.0655 114.874 61.3336 115.349C61.8993 115.545 62.4969 115.631 63.0948 115.605C63.7052 115.576 64.3038 115.426 64.856 115.165L64.8031 115.253Z" fill="#EACDB5"/>
<path fill-rule="evenodd" clip-rule="evenodd" d="M60.2064 113.139C60.1104 113.594 60.1693 114.069 60.3737 114.486C60.5832 114.901 60.9237 115.236 61.3423 115.438C61.7827 115.621 62.2566 115.711 62.7337 115.702C61.7471 115.003 60.8915 114.135 60.2064 113.139Z" fill="#D3A37F"/>
<path fill-rule="evenodd" clip-rule="evenodd" d="M66.4674 110.471C65.7365 110.048 64.4596 109.652 63.9577 110.594C63.3946 111.641 63.2619 112.867 63.5879 114.011C64.2659 116.723 69.0916 116.247 70.8352 115.059C71.3972 114.635 71.8619 114.096 72.1976 113.478C72.5334 112.86 72.7324 112.177 72.7813 111.475C70.6151 111.863 68.3811 111.51 66.441 110.471H66.4674Z" fill="#EACDB5"/>
<path fill-rule="evenodd" clip-rule="evenodd" d="M63.4029 112.479C63.3845 112.996 63.4469 113.513 63.5879 114.011C63.7968 114.611 64.1948 115.126 64.722 115.48C65.2492 115.835 65.8772 116.008 66.5114 115.974C65.2085 115.077 64.142 113.877 63.4029 112.479Z" fill="#D3A37F"/>
<path fill-rule="evenodd" clip-rule="evenodd" d="M50.9337 72.1385L71.478 63.5615C73.5826 67.0839 80.1343 67.0839 83.7359 66.626L90.6926 65.8423C95.2893 65.3227 97.5877 64.9617 102.29 66.1505C103.333 66.3853 104.358 66.6973 105.355 67.0839C111.087 69.2766 112.619 71.3548 115.42 75.8458C112.355 86.5715 107.354 94.5233 96.2404 97.7287C81.6401 101.912 68.1846 100.027 56.2789 90.8336C51.0834 86.8533 50.3349 78.1178 50.9337 72.0945V72.1385Z" fill="#F7941D"/>
<path fill-rule="evenodd" clip-rule="evenodd" d="M56.2789 90.8335L56.9393 91.3266H57.1419C62.5858 89.02 67.7306 86.0632 72.4643 82.5207C74.4395 81.0407 76.2519 79.3552 77.8711 77.4925C79.1742 75.6194 80.2724 73.6119 81.1469 71.5044C81.7281 70.1043 82.3005 68.7129 82.9081 67.3304L82.459 68.3607C82.6704 67.8587 82.8905 67.348 83.0754 66.8284C79.3329 67.1366 73.5122 66.9077 71.566 63.6143L50.9337 72.1384C50.3349 78.1617 51.0746 86.8972 56.2789 90.8335Z" fill="#E07A0B"/>
<path fill-rule="evenodd" clip-rule="evenodd" d="M111.748 76.1895C110.323 75.0474 108.783 74.0586 107.151 73.2395C106.507 72.9903 105.84 72.8017 105.161 72.6759C104.501 72.623 103.839 72.623 103.18 72.6759C101.527 72.9591 99.9097 73.4166 98.3539 74.0408C97.4276 74.4685 96.5432 74.9814 95.7121 75.573C94.9319 76.2314 94.2074 76.953 93.5458 77.7305C92.9033 78.6198 92.3489 79.5694 91.8903 80.566C91.4926 81.6272 91.1977 82.7242 91.0097 83.8418C90.904 84.9195 90.904 86.0048 91.0097 87.0824C91.3352 88.7838 91.8491 90.4437 92.5419 92.0314C93.4264 94.0713 94.4809 96.0331 95.6945 97.8962L96.3549 97.7112C106.543 94.7877 111.677 87.8926 114.742 78.4526C113.65 77.7217 112.716 76.938 111.748 76.1895Z" fill="#E07A0B"/>
<path fill-rule="evenodd" clip-rule="evenodd" d="M50.9337 72.1386L55.0725 70.3774C59.6692 81.6843 66.758 88.2976 76.5238 90.1116C83.322 91.3621 86.4834 89.4071 92.762 89.2927C97.4312 89.1894 102.054 90.2421 106.218 92.3571C103.335 94.8886 99.9139 96.7314 96.214 97.7464C81.6401 101.912 68.1846 100.027 56.2789 90.8337C51.0834 86.8446 50.3349 78.1179 50.9337 72.0946V72.1386Z" fill="#FFEBD8"/>
<path fill-rule="evenodd" clip-rule="evenodd" d="M61.2014 81.059C58.6065 77.8517 56.5269 74.2598 55.0372 70.4126L50.8984 72.1738C50.5972 75.1669 50.6889 78.1866 51.1714 81.1559C54.5412 81.2146 57.8845 81.1823 61.2014 81.059Z" fill="#DDBFA6"/>
<path fill-rule="evenodd" clip-rule="evenodd" d="M91.0009 89.5921C91.1186 90.1126 91.2716 90.6246 91.4588 91.1244C91.8408 91.9167 92.2917 92.674 92.8061 93.3875C93.7261 94.5056 94.7524 95.5319 95.8706 96.452L97.1738 97.3326C100.512 96.3263 103.602 94.6314 106.244 92.3572C102.085 90.2377 97.4641 89.1846 92.7973 89.2927H91.0361L91.0009 89.5921Z" fill="#DDBFA6"/>
<path fill-rule="evenodd" clip-rule="evenodd" d="M113.509 82.6354L115.041 75.1768C115.864 76.4312 116.56 77.7646 117.119 79.1571C117.947 81.1208 118.519 83.56 119.409 85.4093C120.783 88.3335 122.428 91.1225 124.323 93.7397C126.022 96.0117 132.248 102.158 135.251 99.5341C135.618 99.1725 135.877 98.7153 135.999 98.2143C136.12 97.7132 136.099 97.1882 135.938 96.6985C135.233 93.1145 138.527 93.546 139.892 95.7475C140.687 96.8961 141.069 98.2809 140.975 99.675C140.877 101.068 140.305 102.386 139.354 103.409C137.593 105.557 135.022 105.892 132.31 105.575C129.278 105.232 126.435 103.927 124.199 101.85C118.766 96.6985 115.578 90.05 113.474 82.653L113.509 82.6354Z" fill="#F7941D"/>
<path fill-rule="evenodd" clip-rule="evenodd" d="M113.509 82.6354L115.041 75.1768C115.864 76.4312 116.56 77.7646 117.119 79.1571C117.947 81.1208 118.519 83.56 119.409 85.4093C120.783 88.3335 122.428 91.1225 124.323 93.7397C126.022 96.0117 132.248 102.158 135.251 99.5341C135.618 99.1725 135.877 98.7153 135.999 98.2143C136.12 97.7132 136.099 97.1882 135.938 96.6985C135.233 93.1145 138.527 93.546 139.892 95.7475C140.687 96.8961 141.069 98.2809 140.975 99.675C140.877 101.068 140.305 102.386 139.354 103.409C137.593 105.557 135.022 105.892 132.31 105.575C129.278 105.232 126.435 103.927 124.199 101.85C118.766 96.6985 115.578 90.05 113.474 82.653L113.509 82.6354Z" fill="#E07A0B"/>
<path fill-rule="evenodd" clip-rule="evenodd" d="M68.9243 100.635C66.6993 100.223 64.6185 99.243 62.8834 97.7905L60.629 100.177C63.0485 101.243 65.6482 101.84 68.2902 101.938C69.4262 101.938 71.0025 101.058 68.9859 100.635H68.9243Z" fill="#4F2004"/>
<path fill-rule="evenodd" clip-rule="evenodd" d="M119.206 85.0391C119.269 85.1589 119.325 85.2824 119.374 85.4089L120.906 88.4734C119.878 89.9241 118.539 91.1274 116.987 91.9958C116.617 91.2297 116.248 90.4635 115.931 89.6886C117.419 88.4871 118.544 86.8956 119.18 85.0919L119.206 85.0391ZM122.535 91.2032C123.055 92.031 123.592 92.7355 124.067 93.5808C123.054 95.0613 121.661 96.2416 120.034 96.9976C119.497 96.2491 119.013 95.4653 118.502 94.6992C120.052 93.7973 121.41 92.6006 122.5 91.1768L122.535 91.2032ZM126.013 95.8C126.704 96.4967 127.43 97.158 128.188 97.7813C127.62 99.6698 126.519 101.354 125.018 102.633C124.739 102.419 124.471 102.19 124.217 101.947C123.53 101.286 122.87 100.599 122.244 99.8947C123.111 99.4935 123.891 98.9283 124.543 98.2304C125.191 97.5138 125.691 96.6758 126.013 95.7647V95.8ZM130.795 99.5073C131.603 99.9706 132.507 100.239 133.437 100.291C133.638 101.221 133.632 102.183 133.419 103.11C133.206 104.037 132.791 104.905 132.204 105.654C130.723 105.444 129.283 105.01 127.933 104.368C128.732 103.773 129.398 103.017 129.888 102.149C130.371 101.296 130.671 100.351 130.769 99.3752L130.795 99.5073ZM135.392 99.5073C135.683 99.1398 135.882 98.7081 135.973 98.248C136.062 97.7848 136.034 97.3068 135.894 96.8567C135.189 93.2726 138.483 93.7041 139.848 95.9056C140.643 97.0542 141.025 98.439 140.931 99.8331C140.833 101.226 140.261 102.544 139.31 103.567C138.911 104.071 138.429 104.502 137.884 104.844C137.925 103.821 137.72 102.803 137.285 101.876C136.853 100.951 136.204 100.144 135.392 99.5249V99.5073Z" fill="#4F2004"/>
<path fill-rule="evenodd" clip-rule="evenodd" d="M94.9812 84.247C95.1675 87.2174 96.1234 90.0883 97.755 92.5774C99.8861 95.7388 104.756 98.1604 108.234 99.4461C109.935 99.9379 111.505 100.801 112.831 101.973C114.616 104.116 115.539 106.848 115.42 109.635C115.357 110.548 115.07 111.431 114.583 112.206C117.007 114.314 120.134 115.436 123.345 115.35C124.613 113.245 124.525 110.198 124.023 106.878L123.882 105.83C123.743 103.527 123.449 101.235 123.002 98.9705C122.915 98.6544 122.812 98.3428 122.694 98.0371C122.323 96.8461 121.624 95.7838 120.677 94.9726C118.612 92.8952 117.418 90.1075 117.34 87.1794C117.34 84.9338 117.093 82.9789 116.943 81.1825C115.825 69.0655 103.426 69.3561 97.7727 74.6837C94.9812 77.3959 94.7082 80.5837 94.9812 84.247Z" fill="#F7941D"/>
<path fill-rule="evenodd" clip-rule="evenodd" d="M76.1717 82.8203C75.5104 88.1272 73.3749 93.1426 70.0075 97.2973C67.8958 99.6967 65.6183 101.945 63.1917 104.025C60.4796 106.544 58.2085 109.5 56.4727 112.769L47.2793 111.774L45.4564 109.414C52.1578 104.791 55.5481 96.4872 58.1194 88.9404C57.9965 84.725 58.3928 80.5105 59.2994 76.3919C62.179 65.5518 78.1882 66.0449 76.2597 82.8203H76.1717Z" fill="#F7941D"/>
<path fill-rule="evenodd" clip-rule="evenodd" d="M59.2377 78.9545C61.6858 78.3292 64.1427 77.7481 66.626 77.1933C68.8388 76.6972 71.0022 76.0016 73.0895 75.1151L75.2382 74.1816C71.8215 66.3443 61.448 67.8942 59.2377 76.4272C59.0264 77.2461 58.8415 78.1443 58.6918 79.0689L59.2377 78.9545Z" fill="#E07A0B"/>
<path fill-rule="evenodd" clip-rule="evenodd" d="M46.6717 115.887L48.5737 110.753C47.5346 109.696 45.6766 108.516 44.1708 109.353C43.3804 110.014 42.7763 110.87 42.4184 111.836C42.0664 112.802 41.9693 113.842 42.1366 114.857C42.6914 116.389 44.9457 116.389 46.5396 115.869L46.6717 115.887Z" fill="#FFEBD8"/>
<path fill-rule="evenodd" clip-rule="evenodd" d="M42.2686 112.285C41.9702 113.115 41.9152 114.014 42.1101 114.874C42.3345 115.335 42.6979 115.714 43.1492 115.957C43.6 116.196 44.1158 116.282 44.6198 116.204C43.51 115.123 42.6999 113.773 42.2686 112.285Z" fill="#EDBF9A"/>
<path fill-rule="evenodd" clip-rule="evenodd" d="M55.0108 115.579C55.6447 115.237 56.1672 114.72 56.5167 114.09C56.8604 113.457 57.0191 112.74 56.9746 112.021C56.2121 112.127 55.4387 112.127 54.6762 112.021C53.3222 111.888 52.0051 111.502 50.7928 110.885C50.0907 110.533 49.3347 110.301 48.5561 110.198C47.9018 110.148 47.2506 110.329 46.7156 110.709C46.1835 111.093 45.8008 111.65 45.6325 112.285C44.7519 114.487 44.972 116.204 47.6402 116.265C49.7537 116.265 53.4434 116.371 55.0108 115.535V115.579Z" fill="#FFEBD8"/>
<path fill-rule="evenodd" clip-rule="evenodd" d="M45.8967 111.774C45.7962 111.953 45.708 112.139 45.6325 112.329C44.7519 114.539 44.972 116.248 47.6402 116.309H48.5208C47.2165 115.091 46.3032 113.513 45.8967 111.774Z" fill="#EDBF9A"/>
<path fill-rule="evenodd" clip-rule="evenodd" d="M112.065 117.322L113.06 111.395C111.704 110.568 110.841 111.061 110.198 112.346C109.57 113.465 109.265 114.737 109.317 116.018C109.467 117.718 110.585 118.352 112.065 117.322Z" fill="#FFEBD8"/>
<path fill-rule="evenodd" clip-rule="evenodd" d="M109.344 115.358C109.326 115.608 109.326 115.858 109.344 116.107C109.449 117.498 110.224 118.176 111.334 117.789C110.56 117.076 109.89 116.258 109.344 115.358Z" fill="#EDBF9A"/>
<path fill-rule="evenodd" clip-rule="evenodd" d="M114.997 117.12V111.836C114.645 110.304 112.355 110.674 111.589 112.514C111.041 113.67 110.79 114.944 110.858 116.221C110.876 116.486 110.948 116.744 111.07 116.979C111.198 117.213 111.371 117.42 111.58 117.586C111.791 117.752 112.034 117.872 112.294 117.938C112.552 117.991 112.819 117.991 113.077 117.938C113.763 117.856 114.409 117.575 114.936 117.128L114.997 117.12Z" fill="#FFEBD8"/>
<path fill-rule="evenodd" clip-rule="evenodd" d="M111.228 113.659C110.946 114.466 110.841 115.325 110.92 116.177C110.937 116.442 111.009 116.699 111.131 116.934C111.256 117.171 111.431 117.378 111.642 117.542C111.851 117.706 112.09 117.826 112.347 117.894C112.608 117.947 112.878 117.947 113.139 117.894H113.359C112.385 116.631 111.662 115.193 111.228 113.659Z" fill="#EDBF9A"/>
<path fill-rule="evenodd" clip-rule="evenodd" d="M20.7997 40.4281L23.8641 31.1113C22.5161 28.9516 20.6039 27.2008 18.334 26.0479C17.4309 25.6454 16.4186 25.5585 15.4602 25.8013C14.5017 26.0441 13.6529 26.6025 13.0504 27.3864C11.9849 28.5418 11.2277 29.9471 10.8489 31.4724C10.5315 32.8098 10.6742 34.2152 11.254 35.4615C11.8352 36.7043 12.8145 37.7176 14.0367 38.3411C16.0849 39.5396 18.3802 40.2535 20.7468 40.4281H20.7997Z" fill="#F7941D"/>
<path fill-rule="evenodd" clip-rule="evenodd" d="M121.258 117.815C121.809 117.666 122.305 117.36 122.685 116.935C123.054 116.495 123.284 115.955 123.345 115.385C121.685 115.25 120.079 114.725 118.66 113.852C117.815 113.276 117.046 112.595 116.371 111.827C116.187 111.655 115.976 111.516 115.746 111.413C114.751 110.999 114.213 111.581 113.905 112.488C113.43 113.923 113.553 116.794 114.83 117.771C116.107 118.749 119.955 118.343 121.293 117.771L121.258 117.815Z" fill="#FFEBD8"/>
<path fill-rule="evenodd" clip-rule="evenodd" d="M113.597 113.967C113.494 114.645 113.545 115.337 113.747 115.993C113.948 116.648 114.294 117.25 114.759 117.753C116.091 118.324 117.559 118.495 118.986 118.247C116.775 117.439 114.885 115.937 113.597 113.967Z" fill="#EDBF9A"/>
<path fill-rule="evenodd" clip-rule="evenodd" d="M22.0149 38.8609L23.7761 33.2515C21.7683 30.3896 17.2333 26.1099 14.6619 30.8827C14.246 31.6238 13.9854 32.4417 13.8958 33.2867C13.6845 35.5851 14.477 36.3512 16.3791 37.2406C18.1552 38.0885 20.0597 38.636 22.0149 38.8609Z" fill="#FCB040"/>
<path fill-rule="evenodd" clip-rule="evenodd" d="M69.0564 26.8054L62.179 19.7606C62.4591 17.234 63.4175 14.8301 64.9528 12.8039C65.5883 12.0471 66.4598 11.526 67.4273 11.3245C68.395 11.1249 69.4015 11.2519 70.2893 11.6856C71.7555 12.2634 73.052 13.2024 74.0582 14.4154C74.9263 15.4852 75.411 16.8149 75.4349 18.1924C75.4589 19.5699 75.0207 20.9157 74.1903 22.015C72.8638 23.9799 71.1083 25.6179 69.0564 26.8054Z" fill="#F7941D"/>
<path fill-rule="evenodd" clip-rule="evenodd" d="M67.2687 25.9425L63.2356 21.6539C63.808 18.1932 66.0271 12.3725 70.4125 15.4898C71.1096 15.9805 71.7072 16.599 72.1737 17.3126C73.3713 19.3028 72.9574 20.3066 71.6629 21.9093C70.4203 23.4509 68.9328 24.7777 67.2599 25.8368L67.2687 25.9425Z" fill="#FCB040"/>
<path fill-rule="evenodd" clip-rule="evenodd" d="M17.4446 47.9311C17.7617 44.8666 18.1755 42.0047 18.6951 39.2484C19.8575 32.9962 20.333 31.5872 25.8543 28.5227C36.2809 22.9786 47.7765 19.7383 59.5636 19.0211C65.1818 18.6248 66.3618 18.801 69.7961 23.0807L85.9903 43.2111C93.6515 52.4045 78.8311 63.3944 71.5573 67.7269C66.0004 71.1493 59.911 73.6196 53.5403 75.0359C39.5036 78.1004 26.7878 76.7971 21.0551 74.0056C13.9751 70.6241 15.7539 63.773 17.4446 47.9311Z" fill="#F7941D"/>
<path fill-rule="evenodd" clip-rule="evenodd" d="M38.2619 32.7933L40.0231 59.2816L63.2973 53.3552L53.1528 29.0596C57.7495 27.2984 62.9274 26.224 66.1064 30.7151L74.5161 42.6648C78.6637 48.5472 80.3368 52.5627 76.8937 58.5155C73.1071 65.0672 62.8041 70.43 55.7594 72.3057C49.1725 74.0669 36.2277 75.6607 30.7504 70.6942C29.49 69.5493 28.4512 68.1821 27.6859 66.661C25.4492 62.2581 25.6253 57.9431 26.0832 53.2231L27.1047 42.7352C27.8092 35.5936 31.1555 34.0437 38.3059 32.7757L38.2619 32.7933Z" fill="#FFEBD8"/>
<path d="M43.3958 68.3697C43.3282 68.355 43.2649 68.3249 43.2108 68.2817C43.1545 68.2368 43.1093 68.1796 43.0787 68.1143C43.0437 68.0526 43.0255 67.9828 43.0259 67.9118C43.0203 67.8406 43.0318 67.7692 43.0594 67.7033C43.0869 67.6375 43.1298 67.5791 43.1844 67.5331C43.2365 67.4833 43.3 67.447 43.3693 67.4275C43.4392 67.4144 43.5108 67.4144 43.5807 67.4275C43.6521 67.4376 43.7209 67.4615 43.7832 67.4979C45.6103 68.4408 47.7229 68.6699 49.7096 68.1408C50.6033 67.78 51.4172 67.2467 52.1047 66.5713C52.7922 65.8959 53.3398 65.0916 53.7164 64.2045L53.9101 63.817L54.324 63.9755C56.1521 64.8582 58.224 65.1002 60.2064 64.6624C61.0131 64.4035 61.7598 63.9857 62.4026 63.4337C63.0453 62.8817 63.5711 62.2066 63.9489 61.4482C64.0134 61.3326 64.121 61.2471 64.2483 61.2105C64.3766 61.1793 64.512 61.1982 64.6269 61.2633C64.6838 61.2945 64.7336 61.3373 64.773 61.3889C64.8124 61.4404 64.8407 61.4996 64.8559 61.5627C64.8736 61.6246 64.878 61.6895 64.8689 61.7533C64.8598 61.817 64.8374 61.8781 64.8031 61.9326C64.37 62.8012 63.7674 63.5744 63.0309 64.2065C62.2944 64.8387 61.4388 65.3171 60.5146 65.6134C58.4531 66.099 56.2896 65.9012 54.3504 65.0499C53.4664 66.8929 51.9096 68.3268 50.0002 69.0566C47.7824 69.6723 45.4139 69.4269 43.3693 68.3697H43.3958Z" fill="#4F2004"/>
<path fill-rule="evenodd" clip-rule="evenodd" d="M34.0615 45.4828C34.3354 45.4855 34.6033 45.4024 34.8276 45.2451C35.0564 45.0961 35.2345 44.8811 35.3384 44.6287C35.4618 44.3134 35.4652 43.9639 35.348 43.6462C35.2309 43.3286 35.0013 43.065 34.7027 42.9055C34.4041 42.7459 34.0574 42.7014 33.7282 42.7804C33.399 42.8594 33.1103 43.0565 32.9167 43.3342C32.7671 43.5617 32.6875 43.828 32.6878 44.1003C32.6868 44.282 32.7222 44.462 32.7917 44.6299C32.8613 44.7977 32.9637 44.95 33.0928 45.0778C33.3499 45.3349 33.6979 45.4804 34.0615 45.4828Z" fill="#4F2004"/>
<path fill-rule="evenodd" clip-rule="evenodd" d="M61.2807 37.4785C61.6207 37.4466 61.9358 37.2859 62.1613 37.0294C62.3934 36.7774 62.5223 36.4473 62.5223 36.1047C62.51 35.7777 62.382 35.4657 62.1613 35.2241C61.9358 34.9676 61.6207 34.8069 61.2807 34.775C61.0877 34.7557 60.8927 34.7767 60.7083 34.8367C60.525 34.8988 60.3548 34.9944 60.2063 35.1185C60.065 35.2504 59.9513 35.409 59.8717 35.5852C59.7914 35.7623 59.7494 35.9543 59.7484 36.1488C59.7493 36.3404 59.7914 36.5296 59.8717 36.7035C59.9491 36.881 60.0632 37.04 60.2063 37.1703C60.3523 37.3001 60.523 37.3989 60.7083 37.4609C60.8958 37.5061 61.0907 37.5121 61.2807 37.4785Z" fill="#4F2004"/>
<path fill-rule="evenodd" clip-rule="evenodd" d="M17.7792 71.5132C20.579 67.5291 24.2463 64.2321 28.5049 61.8707C30.407 60.8316 30.6447 61.6593 29.315 63.2532C26.4754 66.6713 24.2281 70.5407 22.6665 74.701C22.0853 74.4896 21.5306 74.2607 21.0374 74.0317C19.7572 73.4584 18.6336 72.5856 17.7616 71.4868L17.7792 71.5132Z" fill="#4F2004"/>
<path fill-rule="evenodd" clip-rule="evenodd" d="M15.9212 64.2834C18.9039 61.4203 22.4908 59.2627 26.4179 57.9695C28.1791 57.3971 27.9501 58.3834 26.6821 59.3345C22.8165 62.1825 19.4534 65.6557 16.7313 69.611C16.1382 67.8995 15.8636 66.0939 15.9212 64.2834Z" fill="#4F2004"/>
<path fill-rule="evenodd" clip-rule="evenodd" d="M87.8748 46.7952C83.4009 45.479 78.6896 45.1782 74.0846 45.9146C72.2353 46.17 72.0592 47.1122 74.0846 47.4468C78.7603 48.247 83.3699 49.395 87.8748 50.8812C88.2093 49.5278 88.2093 48.1133 87.8748 46.76V46.7952Z" fill="#4F2004"/>
<path fill-rule="evenodd" clip-rule="evenodd" d="M87.0646 53.1266C82.7566 51.2312 78.0617 50.3804 73.3625 50.6434C72.2618 50.6434 71.0642 51.3302 72.658 51.8674C76.767 53.1219 80.6259 55.0826 84.0618 57.6617C85.2868 56.2754 86.3178 54.729 87.1262 53.065L87.0646 53.1266Z" fill="#4F2004"/>
<path fill-rule="evenodd" clip-rule="evenodd" d="M39.9967 59.282C46.2577 53.6637 53.7868 50.9163 63.2709 53.3555C62.3432 55.3485 61.0166 57.13 59.3733 58.5901C57.7299 60.0502 55.8047 61.1578 53.7164 61.8445C51.4012 62.5921 48.9358 62.7492 46.5444 62.3017C44.153 61.8542 41.9113 60.8162 40.0231 59.282H39.9967Z" fill="#4F2004"/>
<path fill-rule="evenodd" clip-rule="evenodd" d="M61.1398 55.0726C59.0733 56.2968 56.8793 57.2919 54.597 58.0402C52.18 58.91 49.6717 59.5008 47.1207 59.8014C46.0548 59.967 44.9739 60.0143 43.8977 59.9423C42.6561 59.8366 41.432 59.6076 40.208 59.4051C42.0886 60.8851 44.3034 61.8814 46.6585 62.3066C49.0135 62.7319 51.4369 62.5732 53.7164 61.8444C55.7559 61.1697 57.6417 60.0979 59.2649 58.6908C60.8881 57.2837 62.2167 55.5691 63.174 53.646C62.5318 54.1708 61.8519 54.6476 61.1398 55.0726Z" fill="#351505"/>
<path fill-rule="evenodd" clip-rule="evenodd" d="M87.2495 80.196C86.3689 83.368 86.2632 86.7052 86.9413 89.9266L88.3766 89.7328V80.2136C88.3766 77.4573 87.7338 77.7655 87.1966 80.2136L87.2495 80.196Z" fill="#4F2004"/>
<path fill-rule="evenodd" clip-rule="evenodd" d="M78.373 84.4755C77.8837 86.3865 77.6294 88.35 77.6157 90.3226C78.2762 90.4195 78.919 90.4811 79.5178 90.5252V84.5371C79.5178 81.7632 78.875 82.0626 78.3378 84.5371L78.373 84.4755Z" fill="#4F2004"/>
<path fill-rule="evenodd" clip-rule="evenodd" d="M58.9999 100.027C57.209 100.226 55.3967 100.092 53.6547 99.6309C53.1792 100.511 52.6596 101.392 52.1224 102.22C54.336 102.34 56.5549 102.117 58.7005 101.559C59.8012 101.269 61.0253 99.9303 58.9383 100.115L58.9999 100.027Z" fill="#4F2004"/>
<path fill-rule="evenodd" clip-rule="evenodd" d="M58.0401 87.9805C61.0174 87.5318 63.8742 86.4897 66.441 84.916C69.1973 83.463 67.9732 84.9953 66.6259 86.2985C64.1117 88.9357 60.8245 90.7058 57.2388 91.3532C57.5294 90.5606 57.8024 89.8209 58.1194 88.9668V87.9717L58.0401 87.9805Z" fill="#4F2004"/>
<path fill-rule="evenodd" clip-rule="evenodd" d="M56.2084 105.742C57.695 105.771 59.1533 106.154 60.4617 106.861C60.0508 107.354 59.6633 107.864 59.2993 108.393C58.4364 107.364 57.2452 106.664 55.9266 106.411C54.9139 106.156 55.2662 105.698 56.1556 105.742H56.2084Z" fill="#4F2004"/>
<path fill-rule="evenodd" clip-rule="evenodd" d="M64.3892 94.5852C67.6372 94.3281 70.7827 93.3278 73.5826 91.6616C72.9908 92.8747 72.3262 94.051 71.5925 95.184C69.2337 96.0371 66.6928 96.2587 64.2219 95.8269C61.994 95.5098 62.3638 94.7261 64.4068 94.6028L64.3892 94.5852Z" fill="#4F2004"/>
<path fill-rule="evenodd" clip-rule="evenodd" d="M77.3781 66.6699C77.4814 68.8232 77.3068 70.9808 76.8585 73.0895C76.339 75.5727 77.4397 75.4495 78.3907 73.4593C79.3233 71.3775 79.8437 69.1346 79.923 66.8548C79.0717 66.8461 78.2217 66.7843 77.3781 66.6699Z" fill="#4F2004"/>
<path fill-rule="evenodd" clip-rule="evenodd" d="M82.7761 66.7932C83.3113 70.7141 83.1833 74.6971 82.3975 78.5756C81.4288 82.8817 82.8113 81.5432 84.1587 78.5756C85.8175 74.7509 86.5246 70.5811 86.2193 66.4233L83.8593 66.6875L82.8202 66.7756L82.7761 66.7932Z" fill="#4F2004"/>
<path fill-rule="evenodd" clip-rule="evenodd" d="M89.2573 66.089C90.0158 68.9879 90.3656 71.9785 90.2964 74.9742C90.2964 77.616 91.723 76.9996 92.0576 74.9742C92.6224 71.9398 92.673 68.832 92.2073 65.7808L90.6751 65.9481L89.2573 66.089Z" fill="#4F2004"/>
<path fill-rule="evenodd" clip-rule="evenodd" d="M95.5624 65.4727C96.3745 66.9338 96.847 68.5591 96.9449 70.2279C97.1122 72.2444 98.2042 71.7601 98.3539 70.1222C98.4964 68.5786 98.3622 67.0219 97.9576 65.5255C97.1604 65.4638 96.3596 65.4638 95.5624 65.5255V65.4727Z" fill="#4F2004"/>
<path fill-rule="evenodd" clip-rule="evenodd" d="M71.6453 70.0605C71.2046 72.8792 69.7327 75.4337 67.5153 77.2286C65.983 78.3029 66.6347 78.8929 68.5104 77.889C70.9974 76.6486 72.8957 74.4782 73.7939 71.8482C73.1925 71.1264 72.4644 70.5206 71.6453 70.0605Z" fill="#4F2004"/>
<path fill-rule="evenodd" clip-rule="evenodd" d="M69.3029 107.336C70.3731 107.089 71.4756 107.011 72.5699 107.107C72.658 107.715 72.7548 108.331 72.8253 108.956C71.771 108.304 70.54 107.997 69.3029 108.076C68.2462 108.076 68.4751 107.556 69.3029 107.354V107.336Z" fill="#4F2004"/>
<path fill-rule="evenodd" clip-rule="evenodd" d="M96.0995 102.149C97.4134 101.217 98.9168 100.585 100.502 100.3C100.652 100.996 100.652 101.717 100.502 102.413C99.09 102.14 97.6274 102.316 96.3196 102.915C95.2013 103.373 95.2277 102.721 96.0731 102.149H96.0995Z" fill="#4F2004"/>
<path fill-rule="evenodd" clip-rule="evenodd" d="M95.4479 105.416C93.5873 105.058 91.8194 104.324 90.2524 103.259C90.0992 104.162 89.7407 105.017 89.2045 105.76C91.005 106.316 92.8695 106.638 94.7522 106.72C95.8882 106.72 97.4645 105.874 95.4479 105.416Z" fill="#4F2004"/>
<path fill-rule="evenodd" clip-rule="evenodd" d="M111.836 87.8751C114.227 85.2557 115.96 82.1041 116.89 78.6816L117.093 79.1748C117.463 80.0554 117.78 81.024 118.106 82.0103C117.082 84.8477 115.154 87.2703 112.62 88.9054C110.753 90.1734 110.489 89.3457 111.915 87.8751H111.836Z" fill="#4F2004"/>
<path fill-rule="evenodd" clip-rule="evenodd" d="M97.7462 92.595C100.608 91.5008 103.216 89.8314 105.407 87.6901C107.767 85.6383 106.852 87.4347 105.901 88.9758C104.432 91.438 102.37 93.4935 99.9037 94.955C99.0565 94.2768 98.3094 93.4823 97.6846 92.595H97.7462Z" fill="#4F2004"/>
<path fill-rule="evenodd" clip-rule="evenodd" d="M120.175 107.274C118.426 107.325 116.682 107.066 115.024 106.508C115.246 107.342 115.364 108.2 115.376 109.062C116.852 109.096 118.328 108.975 119.779 108.701C120.924 108.498 122.244 107.169 120.175 107.274Z" fill="#4F2004"/>
<path fill-rule="evenodd" clip-rule="evenodd" d="M113.817 95.9849C112.917 97.6316 111.699 99.0833 110.233 100.256C111.042 100.64 111.797 101.128 112.479 101.709C113.456 100.229 114.249 98.635 114.839 96.9624C115.244 95.8881 114.839 94.1093 113.817 95.9233V95.9849Z" fill="#4F2004"/>
<path fill-rule="evenodd" clip-rule="evenodd" d="M119.039 104.254C120.369 103.303 121.899 102.67 123.513 102.405C123.513 103.136 123.653 103.937 123.715 104.58C122.239 104.235 120.69 104.39 119.312 105.02C118.15 105.478 118.185 104.791 119.039 104.254Z" fill="#4F2004"/>
<path d="M143.238 122.887L30.3189 126.736C25.2685 126.874 20.4736 128.987 16.9636 132.621C13.4536 136.255 11.5082 141.12 11.5451 146.172C11.582 151.224 13.5982 156.06 17.1609 159.643C20.7236 163.225 25.5488 165.268 30.6007 165.332L143.537 167.498C146.518 167.557 149.48 167.017 152.249 165.912C155.017 164.806 157.536 163.157 159.657 161.062C161.778 158.967 163.457 156.468 164.596 153.713C165.735 150.957 166.31 148.002 166.288 145.021C166.265 142.04 165.646 139.093 164.466 136.356C163.286 133.618 161.569 131.145 159.417 129.081C157.265 127.018 154.722 125.407 151.937 124.343C149.152 123.279 146.182 122.784 143.203 122.887H143.238Z" fill="url(#paint1_linear_396_90)"/>
<path d="M39.1513 140.843L34.5722 155.681H29.7113L36.6064 136.898H39.6885L39.1513 140.843ZM42.9379 155.681L38.35 140.843L37.76 136.898H40.8773L47.8164 155.681H42.9379ZM42.7618 148.636V152.158H33.128V148.636H42.7618ZM64.8824 136.862V155.645H60.3649L53.7164 143.986V155.681H49.1989V136.898H53.7164L60.3561 148.583V136.898L64.8824 136.862ZM72.5612 136.862V155.645H68.0437V136.898L72.5612 136.862ZM77.9856 136.862H81.6753L85.867 149.93L90.0674 136.862H93.7571L87.364 155.645H84.3788L77.9856 136.862ZM75.7489 136.862H79.5619L80.2752 151.26V155.663H75.7313L75.7489 136.862ZM92.1809 136.862H95.985V155.645H91.4412V151.242L92.1809 136.862ZM107.107 140.807L102.528 155.645H97.6582L104.562 136.862H107.644L107.107 140.807ZM110.894 155.645L106.306 140.807L105.707 136.862H108.833L115.772 155.645H110.894ZM110.717 148.601V152.123H101.084V148.601H110.717ZM129.562 152.123V155.645H120.069V152.123H129.562ZM121.681 136.827V155.61H117.119V136.898L121.681 136.827ZM141.142 150.617C141.145 150.348 141.103 150.08 141.019 149.825C140.915 149.567 140.752 149.338 140.543 149.155C140.235 148.905 139.894 148.698 139.531 148.539C138.982 148.273 138.414 148.049 137.831 147.87C137.003 147.588 136.211 147.28 135.445 146.936C134.716 146.609 134.027 146.198 133.393 145.712C132.812 145.262 132.324 144.703 131.957 144.066C131.595 143.383 131.414 142.619 131.429 141.847C131.419 141.084 131.607 140.331 131.975 139.663C132.345 139.001 132.86 138.432 133.481 137.998C134.177 137.51 134.956 137.152 135.779 136.942C136.717 136.683 137.686 136.556 138.659 136.563C139.909 136.54 141.149 136.787 142.296 137.285C143.295 137.713 144.153 138.416 144.77 139.31C145.375 140.225 145.682 141.305 145.651 142.401H141.142C141.151 141.964 141.051 141.531 140.851 141.142C140.658 140.763 140.35 140.455 139.971 140.261C139.52 140.038 139.02 139.932 138.518 139.953C138.027 139.935 137.537 140.023 137.083 140.209C136.727 140.349 136.421 140.591 136.202 140.904C136.004 141.178 135.899 141.508 135.903 141.847C135.903 142.122 135.982 142.391 136.131 142.621C136.326 142.867 136.558 143.081 136.818 143.255C137.162 143.475 137.524 143.664 137.901 143.819C138.333 144.004 138.782 144.18 139.346 144.347C140.254 144.634 141.137 144.993 141.987 145.422C142.707 145.766 143.371 146.214 143.96 146.751C144.486 147.213 144.904 147.784 145.184 148.425C145.478 149.096 145.625 149.823 145.616 150.556C145.627 151.332 145.459 152.101 145.122 152.801C144.792 153.46 144.309 154.031 143.713 154.465C143.051 154.934 142.307 155.278 141.521 155.478C140.59 155.725 139.63 155.844 138.668 155.83C137.708 155.829 136.753 155.708 135.823 155.469C134.923 155.236 134.068 154.852 133.296 154.333C132.545 153.824 131.922 153.149 131.473 152.361C131.007 151.474 130.777 150.483 130.804 149.481H135.348C135.335 149.954 135.407 150.425 135.559 150.873C135.695 151.218 135.92 151.522 136.211 151.753C136.517 151.992 136.871 152.16 137.25 152.246C137.716 152.347 138.191 152.394 138.668 152.387C139.147 152.408 139.624 152.324 140.068 152.141C140.387 151.999 140.656 151.766 140.843 151.471C141.001 151.236 141.103 150.968 141.142 150.688V150.617Z" fill="white"/>
<path fill-rule="evenodd" clip-rule="evenodd" d="M15.9564 143.537C18.1315 136.898 20.6676 133.56 25.009 131.764C27.2245 130.918 29.5436 130.373 31.904 130.144C36.536 129.589 41.8636 129.395 46.9799 129.192C58.6566 128.708 69.8754 128.726 80.7331 128.382C69.9282 129.122 58.8151 129.738 47.2705 130.654C42.2334 131.059 37.0379 131.288 32.45 132.002C25.5373 133.111 20.1745 135.612 15.9564 143.537Z" fill="#FEFEFE"/>
<path d="M108.419 39.8823L103.135 46.3371L109.009 52.2107L113.703 46.0465L108.419 39.8823Z" fill="#339E0B"/>
<path d="M150.397 74.666L146.285 80.8302L150.547 86.695L154.95 80.3899L150.397 74.666Z" fill="#339E0B"/>
<path d="M26.5235 84.3525L23.0011 90.6576L27.1135 95.36L30.4862 90.0764L26.5235 84.3525Z" fill="#339E0B"/>
<defs>
<linearGradient id="paint0_linear_396_90" x1="42.5944" y1="12.3019" x2="134.511" y2="170.034" gradientUnits="userSpaceOnUse">
<stop stop-color="#DBFF00"/>
<stop offset="0.93" stop-color="#569A00"/>
</linearGradient>
<linearGradient id="paint1_linear_396_90" x1="88.9843" y1="122.209" x2="88.9843" y2="168" gradientUnits="userSpaceOnUse">
<stop stop-color="#F33877"/>
<stop offset="1" stop-color="#D11253"/>
</linearGradient>
</defs>
</svg>
