<svg width="164" height="189" viewBox="0 0 164 189" fill="none" xmlns="http://www.w3.org/2000/svg">
<circle cx="81.6215" cy="102.914" r="81.6215" fill="#00B5DD"/>
<path d="M81.6212 177.441C122.78 177.441 156.145 144.075 156.145 102.917C156.145 61.7581 122.78 28.3926 81.6212 28.3926C40.4627 28.3926 7.09717 61.7581 7.09717 102.917C7.09717 144.075 40.4627 177.441 81.6212 177.441Z" fill="url(#paint0_linear_584_290)"/>
<path d="M115.547 166.367C113.701 167.16 111.619 167.204 109.741 166.488C107.863 165.773 106.337 164.355 105.487 162.535L102.071 155.145C100.853 152.522 98.6884 150.456 96.0114 149.362C93.3344 148.268 90.3428 148.226 87.6363 149.245L82.8277 151.063C80.9368 151.774 78.8428 151.715 76.995 150.899C75.1473 150.082 73.693 148.575 72.9444 146.698L71.5782 143.265C70.5508 140.687 68.6232 138.57 66.1531 137.305C63.6829 136.041 60.838 135.715 58.1461 136.389L48.2539 138.891C46.5179 139.331 44.6829 139.153 43.064 138.387C41.4451 137.621 40.1433 136.316 39.382 134.695L36.6229 128.804C35.4759 126.347 33.491 124.38 31.0245 123.255C28.5579 122.13 25.7711 121.92 23.1642 122.664L14.035 125.237C12.9 125.555 11.7076 125.609 10.5483 125.397C10.9564 126.701 11.4355 127.988 11.8969 129.256C12.9733 129.266 14.0457 129.123 15.0819 128.83L24.2111 126.258C25.9666 125.766 27.8399 125.914 29.496 126.676C31.1522 127.439 32.4833 128.765 33.2515 130.419L36.0107 136.309C37.1448 138.708 39.0768 140.639 41.4765 141.772C43.8762 142.905 46.5948 143.169 49.1677 142.52L59.0599 140.018C60.8689 139.563 62.7816 139.777 64.4448 140.622C66.1081 141.466 67.4096 142.884 68.1092 144.614L69.4666 148.047C70.5925 150.823 72.7544 153.053 75.4948 154.263C78.2353 155.473 81.3392 155.57 84.1496 154.532L88.9582 152.705C90.7861 152.012 92.8086 152.036 94.6191 152.774C96.4296 153.511 97.8938 154.906 98.7173 156.679L102.133 164.079C103.345 166.691 105.5 168.748 108.166 169.836C109.555 170.415 111.044 170.717 112.549 170.724C117.107 168.643 121.444 166.108 125.493 163.156C123.877 163.134 122.274 163.455 120.791 164.096L115.547 166.367ZM141.844 136.762C140.34 135.993 138.684 135.569 136.996 135.52C135.308 135.47 133.63 135.798 132.085 136.478L126.868 138.74C125.022 139.533 122.939 139.576 121.061 138.861C119.184 138.146 117.658 136.728 116.807 134.908L113.391 127.509C112.172 124.887 110.007 122.823 107.331 121.729C104.654 120.635 101.664 120.592 98.9569 121.609L94.1483 123.427C92.2605 124.131 90.1728 124.069 88.33 123.255C86.4871 122.441 85.0349 120.94 84.2827 119.071L82.9253 115.629C81.8964 113.053 79.9681 110.937 77.4981 109.675C75.0282 108.412 72.184 108.088 69.4933 108.762L59.5922 111.264C57.8562 111.702 56.0219 111.523 54.4034 110.758C52.7849 109.992 51.4829 108.688 50.7203 107.068L47.9789 101.141C46.8336 98.685 44.8509 96.7171 42.3861 95.5905C39.9214 94.4638 37.1359 94.2519 34.5291 94.993L25.3999 97.5925C23.5994 98.0971 21.6769 97.9309 19.9896 97.1248C18.3024 96.3187 16.9651 94.9275 16.2263 93.2097L14.1947 88.5165C13.2911 86.3584 11.7415 84.533 9.75873 83.291C9.41272 84.5863 9.08446 85.8993 8.80056 87.2212C9.67361 87.9752 10.3625 88.919 10.8145 89.9804L12.8284 94.6914C13.9263 97.2407 15.9114 99.3055 18.4156 100.503C20.9197 101.7 23.7731 101.949 26.4468 101.203L35.576 98.6216C37.3318 98.12 39.2091 98.2618 40.8698 99.0214C42.5304 99.7809 43.8653 101.108 44.6342 102.765L47.4022 108.656C48.5374 111.052 50.4681 112.98 52.8655 114.113C55.2629 115.245 57.9787 115.511 60.5504 114.866L70.4514 112.364C72.2637 111.911 74.179 112.129 75.8427 112.979C77.5064 113.829 78.806 115.252 79.5008 116.986L80.8582 120.429C81.9857 123.203 84.1483 125.431 86.8886 126.639C89.6289 127.848 92.7319 127.943 95.5412 126.905L100.35 125.087C102.177 124.391 104.201 124.415 106.012 125.152C107.823 125.89 109.287 127.287 110.109 129.061L113.516 136.451C114.787 139.15 117.055 141.25 119.842 142.312C122.63 143.374 125.72 143.315 128.465 142.147L133.673 139.876C134.61 139.466 135.62 139.248 136.643 139.234C137.666 139.221 138.681 139.411 139.629 139.796C140.577 140.18 141.439 140.75 142.164 141.472C142.888 142.195 143.461 143.055 143.849 144.001C144.629 142.821 145.375 141.606 146.093 140.382C145.002 138.838 143.541 137.594 141.844 136.762ZM124.543 154.896L119.336 157.158C117.488 157.949 115.405 157.992 113.526 157.277C111.648 156.562 110.12 155.145 109.266 153.326L105.85 145.927C104.631 143.307 102.467 141.245 99.7924 140.153C97.1176 139.061 94.129 139.019 91.4246 140.036L86.616 141.81C84.7324 142.52 82.6464 142.469 80.7999 141.667C78.9533 140.866 77.4914 139.377 76.7239 137.516L75.4108 134.056C74.3819 131.479 72.4541 129.363 69.9844 128.099C67.5147 126.835 64.6706 126.508 61.9788 127.18L52.0777 129.682C50.3417 130.124 48.506 129.946 46.8867 129.18C45.2673 128.414 43.9657 127.108 43.2058 125.486L40.4378 119.595C39.2924 117.139 37.3092 115.172 34.8442 114.047C32.3791 112.922 29.5937 112.712 26.988 113.455L17.8499 116.028C16.0506 116.53 14.1302 116.363 12.4449 115.557C10.7596 114.751 9.42381 113.361 8.68523 111.646L7.35444 108.549C7.57637 111.545 7.97631 114.526 8.55215 117.474C9.97519 118.631 11.6547 119.429 13.45 119.803C15.2453 120.177 17.1039 120.114 18.8702 119.621L27.9994 117.049C29.7542 116.546 31.6306 116.687 33.2911 117.445C34.9516 118.203 36.2872 119.528 37.0576 121.183L39.8256 127.074C40.9594 129.471 42.89 131.4 45.2878 132.533C47.6856 133.666 50.4021 133.931 52.9738 133.284L62.8748 130.782C64.6816 130.345 66.5854 130.575 68.2365 131.429C69.8875 132.283 71.1749 133.704 71.8621 135.431L73.2283 138.865C74.3448 141.648 76.5063 143.884 79.2503 145.094C81.9942 146.305 85.1029 146.393 87.9113 145.341L92.7199 143.567C94.542 142.882 96.5554 142.911 98.3569 143.648C100.158 144.386 101.615 145.776 102.435 147.541L105.85 154.94C107.132 157.636 109.408 159.73 112.2 160.782C114.993 161.834 118.085 161.763 120.826 160.583L126.034 158.321C127.821 157.54 129.839 157.47 131.676 158.125C132.661 157.238 133.628 156.298 134.569 155.349L134.276 155.18C132.776 154.415 131.125 153.993 129.442 153.944C127.759 153.895 126.086 154.22 124.543 154.896ZM128.323 145.687L123.115 147.949C121.269 148.742 119.186 148.785 117.309 148.07C115.431 147.355 113.905 145.937 113.054 144.117L109.639 136.718C108.417 134.097 106.253 132.035 103.577 130.941C100.901 129.847 97.9109 129.803 95.204 130.818L90.3955 132.645C88.5042 133.351 86.4121 133.289 84.5656 132.474C82.7191 131.658 81.2645 130.154 80.5122 128.28L79.1459 124.847C78.1137 122.274 76.1841 120.162 73.7145 118.903C71.2448 117.644 68.4024 117.322 65.7138 117.998L55.8217 120.5C54.0856 120.94 52.2506 120.761 50.6317 119.996C49.0128 119.23 47.711 117.924 46.9497 116.303L44.1817 110.412C43.0362 107.954 41.052 105.985 38.5853 104.858C36.1186 103.731 33.331 103.521 30.723 104.264L21.6116 106.819C19.8086 107.327 17.8826 107.162 16.192 106.356C14.5013 105.55 13.161 104.157 12.4203 102.437L10.4064 97.7255C9.77405 96.2456 8.83693 94.9154 7.65608 93.8219C7.43133 95.7441 7.27164 97.6812 7.177 99.633L9.00461 103.9C10.1025 106.45 12.0876 108.515 14.5918 109.712C17.0959 110.909 19.9493 111.158 22.623 110.412L31.7522 107.831C33.5081 107.335 35.3832 107.479 37.0425 108.238C38.7018 108.997 40.0373 110.321 40.8104 111.974L43.5696 117.865C44.7077 120.26 46.6402 122.188 49.0387 123.32C51.4372 124.452 54.1537 124.719 56.7266 124.075L66.6276 121.573C68.4398 121.121 70.3546 121.341 72.017 122.192C73.6794 123.044 74.9766 124.469 75.6681 126.204L77.0255 129.638C78.142 132.421 80.3034 134.657 83.0474 135.868C85.7914 137.078 88.9001 137.167 91.7085 136.114L96.5171 134.296C98.3448 133.6 100.368 133.624 102.179 134.361C103.99 135.099 105.454 136.496 106.276 138.27L109.692 145.66C110.963 148.357 113.229 150.456 116.015 151.517C118.8 152.579 121.888 152.522 124.632 151.356L129.84 149.094C130.879 148.639 132.005 148.419 133.139 148.451C134.273 148.484 135.385 148.767 136.396 149.28C137.217 149.709 137.956 150.28 138.579 150.966C139.386 150.008 140.176 149.032 140.939 148.029C140.099 147.195 139.135 146.494 138.082 145.953C136.577 145.187 134.921 144.765 133.232 144.719C131.544 144.673 129.867 145.004 128.323 145.687ZM145.632 127.553C144.128 126.784 142.473 126.36 140.785 126.309C139.098 126.258 137.42 126.583 135.873 127.26L130.683 129.531C128.84 130.311 126.767 130.347 124.899 129.633C123.03 128.919 121.51 127.509 120.658 125.699L117.242 118.299C116.024 115.677 113.859 113.611 111.182 112.517C108.505 111.423 105.514 111.381 102.807 112.4L97.9987 114.218C96.1076 114.926 94.0145 114.866 92.1674 114.05C90.3203 113.234 88.8658 111.728 88.1154 109.853L86.7136 106.464C85.6864 103.889 83.7598 101.773 81.2913 100.511C78.8228 99.2479 75.98 98.9234 73.2904 99.5975L63.3894 102.028C61.6544 102.469 59.8202 102.292 58.2014 101.528C56.5827 100.764 55.2802 99.4603 54.5175 97.8409L51.7495 91.9499C50.6054 89.4906 48.6214 87.5203 46.1542 86.3932C43.6871 85.2662 40.8988 85.0564 38.2908 85.8017L29.1616 88.3746C27.361 88.8792 25.4385 88.713 23.7513 87.9069C22.064 87.1008 20.7268 85.7096 19.988 83.9918L17.9741 79.2897C16.9805 76.9438 15.2235 75.0023 12.9881 73.7803C12.4913 74.9336 12.0299 76.1047 11.5952 77.2847C12.9139 78.1035 13.9485 79.3085 14.5584 80.7358L16.5723 85.4468C17.6635 87.9966 19.6421 90.0642 22.1413 91.2665C24.6405 92.4689 27.4909 92.7243 30.1641 91.9854L39.3022 89.4126C41.058 88.911 42.9353 89.0528 44.596 89.8123C46.2566 90.5719 47.5915 91.8994 48.3604 93.5557L51.1284 99.4467C52.2609 101.845 54.1912 103.776 56.5895 104.908C58.9877 106.041 61.7049 106.306 64.2766 105.657L74.1776 103.164C75.9888 102.707 77.9044 102.924 79.5676 103.774C81.2307 104.625 82.5281 106.05 83.2181 107.786L84.5844 111.22C85.6992 114.003 87.8585 116.239 90.6006 117.451C93.3427 118.663 96.4501 118.754 99.2585 117.705L104.067 115.886C105.894 115.188 107.917 115.209 109.728 115.946C111.54 116.682 113.004 118.078 113.826 119.852L117.242 127.251C118.512 129.951 120.779 132.054 123.566 133.117C126.354 134.181 129.445 134.123 132.191 132.956L137.399 130.685C138.435 130.232 139.559 130.013 140.689 130.044C141.82 130.075 142.93 130.354 143.94 130.862C144.95 131.371 145.836 132.095 146.535 132.984C147.234 133.874 147.728 134.906 147.983 136.008C148.027 136.185 148.072 136.354 148.125 136.531C148.897 135.014 149.633 133.47 150.299 131.9C149.194 130.032 147.574 128.522 145.632 127.553ZM42.4961 62.0516L51.6252 59.4433C53.3843 58.9436 55.264 59.0892 56.9251 59.8539C58.5862 60.6185 59.9192 61.9518 60.6835 63.6131L63.4515 69.504C64.584 71.9023 66.5143 73.8329 68.9125 74.9656C71.3107 76.0984 74.0279 76.363 76.5996 75.7143L86.5007 73.2302C88.3141 72.7772 90.2302 72.9967 91.8941 73.8483C93.558 74.6998 94.8568 76.1255 95.55 77.8613L96.9074 81.2948C98.0333 84.0711 100.195 86.3004 102.936 87.5108C105.676 88.7212 108.78 88.8178 111.59 87.7801L116.399 85.9525C118.227 85.2594 120.249 85.2841 122.06 86.0214C123.87 86.7588 125.335 88.1542 126.158 89.9271L129.529 97.3263C130.801 100.025 133.069 102.125 135.856 103.187C138.643 104.249 141.734 104.19 144.479 103.022L149.686 100.751C150.7 100.309 151.798 100.092 152.904 100.115C154.01 100.138 155.097 100.4 156.092 100.884C156.092 99.5177 155.985 98.1691 155.879 96.8206C153.337 96.0938 150.621 96.2726 148.196 97.3263L142.988 99.5975C141.14 100.385 139.059 100.425 137.182 99.7082C135.305 98.9916 133.78 97.5748 132.927 95.756L129.529 88.3657C128.302 85.748 126.131 83.6905 123.451 82.6048C120.771 81.5191 117.781 81.4853 115.077 82.5102L110.269 84.2846C108.376 84.9929 106.282 84.9328 104.433 84.1171C102.585 83.3014 101.129 81.7949 100.376 79.9196L99.019 76.4862C97.9901 73.9096 96.0623 71.7932 93.5926 70.529C91.1229 69.2647 88.2787 68.9384 85.5869 69.6105L75.6858 72.1124C73.9498 72.5539 72.1141 72.3765 70.4948 71.6105C68.8755 70.8446 67.5738 69.5381 66.8139 67.9159L64.0459 62.0339C62.9025 59.5807 60.9223 57.6152 58.4607 56.4901C55.9991 55.365 53.2171 55.1538 50.6138 55.8945L41.4758 58.4674C39.6808 58.9739 37.763 58.8125 36.0778 58.0132C34.3927 57.2138 33.0544 55.8307 32.3111 54.1201L30.2972 49.418C30.2972 49.3027 30.1907 49.2051 30.1464 49.0986C29.1793 50.0302 28.23 50.9706 27.3162 51.9465L28.8777 55.5929C29.9835 58.1337 31.9723 60.1879 34.476 61.3753C36.9797 62.5627 39.8288 62.803 42.4961 62.0516ZM143.937 107.689L138.73 109.96C136.879 110.756 134.791 110.8 132.908 110.083C131.025 109.365 129.495 107.944 128.642 106.118L125.227 98.7281C124.007 96.1066 121.842 94.0423 119.166 92.9484C116.489 91.8544 113.499 91.8115 110.792 92.8282L105.983 94.647C104.091 95.3553 101.997 95.2952 100.148 94.4795C98.2996 93.6638 96.8435 92.1573 96.0912 90.282L94.7338 86.8486C93.7065 84.2708 91.7789 82.1532 89.3088 80.8887C86.8386 79.6243 83.9936 79.2989 81.3018 79.9729L71.4273 82.5102C69.6913 82.9518 67.8556 82.7743 66.2363 82.0084C64.617 81.2425 63.3153 79.936 62.5554 78.3138L59.8051 72.3963C58.6627 69.9376 56.6803 67.9675 54.2147 66.8404C51.749 65.7133 48.9621 65.5032 46.3553 66.248L37.2616 68.8209C35.4611 69.3255 33.5386 69.1593 31.8513 68.3532C30.1641 67.5471 28.8269 66.1559 28.0881 64.4382L26.0742 59.736C25.4988 58.4104 24.6769 57.2061 23.6521 56.1873C22.8625 57.1632 22.0907 58.1657 21.3543 59.186C21.8725 59.7954 22.2943 60.4806 22.6052 61.2177L24.6192 65.9286C25.7203 68.4743 27.7071 70.5344 30.2113 71.727C32.7155 72.9195 35.5671 73.1636 38.2375 72.414L47.3667 69.8411C49.1216 69.3389 50.998 69.4794 52.6585 70.2373C54.319 70.9952 55.6546 72.3207 56.4249 73.9755L59.193 79.8487C60.3271 82.2477 62.2591 84.1785 64.6588 85.3112C67.0585 86.4439 69.7771 86.7082 72.35 86.059L82.2422 83.5926C84.0556 83.1396 85.9717 83.3591 87.6356 84.2107C89.2995 85.0622 90.5983 86.4879 91.2915 88.2237L92.6489 91.6572C93.7747 94.4377 95.9396 96.6702 98.6842 97.881C101.429 99.0918 104.537 99.1856 107.35 98.1425L112.158 96.3149C113.986 95.6218 116.009 95.6464 117.819 96.3838C119.63 97.1212 121.094 98.5166 121.917 100.29L125.324 107.689C126.597 110.385 128.866 112.484 131.653 113.544C134.44 114.605 137.53 114.544 140.273 113.376L145.481 111.113C147.234 110.355 149.206 110.276 151.014 110.893C152.821 111.51 154.334 112.777 155.258 114.449C155.515 112.781 155.71 111.087 155.852 109.383C155.187 108.82 154.458 108.337 153.679 107.946C152.176 107.184 150.522 106.766 148.837 106.721C147.152 106.677 145.479 107.007 143.937 107.689ZM149.411 118.335C147.908 117.565 146.253 117.139 144.565 117.088C142.877 117.038 141.199 117.363 139.652 118.042L134.444 120.313C132.597 121.101 130.515 121.141 128.638 120.424C126.762 119.708 125.236 118.291 124.384 116.472L120.995 109.126C119.775 106.504 117.61 104.44 114.934 103.346C112.258 102.252 109.267 102.209 106.56 103.226L101.752 105.001C99.8592 105.709 97.7649 105.649 95.9163 104.833C94.0677 104.017 92.6116 102.511 91.8593 100.636L90.4931 97.211C89.4657 94.6332 87.5381 92.5156 85.068 91.2511C82.5978 89.9867 79.7529 89.6613 77.061 90.3352L67.1688 92.8371C65.4328 93.2769 63.5978 93.0987 61.9789 92.3329C60.36 91.5672 59.0582 90.2617 58.2969 88.6407L55.5289 82.7498C54.3835 80.294 52.4003 78.3269 49.9353 77.2017C47.4702 76.0765 44.6848 75.8668 42.0791 76.6104L32.9499 79.1833C31.1493 79.6879 29.2268 79.5217 27.5396 78.7156C25.8524 77.9095 24.5151 76.5183 23.7763 74.8005L21.7802 70.0896C20.8887 67.9968 19.3898 66.2197 17.4773 64.9882C16.8385 66.0617 16.2263 67.153 15.6497 68.2619C16.8308 69.0885 17.7537 70.2328 18.3112 71.5623L20.405 76.2999C21.5067 78.8344 23.4871 80.8856 25.9813 82.0756C28.4756 83.2657 31.3158 83.5146 33.979 82.7764L43.1082 80.2035C44.863 79.7013 46.7395 79.8418 48.4 80.5997C50.0605 81.3576 51.3961 82.6831 52.1664 84.3378L54.9345 90.2288C56.0686 92.6278 58.0006 94.5586 60.4003 95.6913C62.8 96.824 65.5185 97.0883 68.0915 96.4391L77.9837 93.955C79.7971 93.5019 81.7132 93.7215 83.3771 94.573C85.041 95.4246 86.3398 96.8503 87.033 98.5861L88.3904 102.028C89.5162 104.805 91.6782 107.034 94.4186 108.244C97.1591 109.455 100.263 109.551 103.073 108.514L107.882 106.686C109.71 105.993 111.732 106.018 113.543 106.755C115.353 107.492 116.818 108.888 117.641 110.661L121.057 118.06C122.32 120.764 124.586 122.87 127.374 123.931C130.163 124.993 133.256 124.927 135.997 123.747L141.205 121.484C142.244 121.039 143.368 120.827 144.498 120.865C145.628 120.903 146.735 121.189 147.742 121.703C148.749 122.217 149.631 122.946 150.324 123.839C151.017 124.732 151.505 125.767 151.754 126.87C151.807 127.118 151.878 127.358 151.949 127.597C152.588 125.823 153.155 123.96 153.652 122.088C152.576 120.503 151.117 119.215 149.411 118.344V118.335Z" fill="url(#paint1_linear_584_290)"/>
<path fill-rule="evenodd" clip-rule="evenodd" d="M95.1064 124.209L95.7274 131.706V132.3H108.964V130.801L109.301 116.908L109.426 111.966L109.372 108L109.044 105.96C108.645 103.484 95.8073 102.331 94.5208 111.398C94.2183 114.231 94.2541 117.09 94.6273 119.915L95.1064 124.209Z" fill="#33355E"/>
<path fill-rule="evenodd" clip-rule="evenodd" d="M144.115 34.1585L141.453 36.9886L138.197 32.2599C139.28 31.4348 140.415 30.6275 141.542 29.8556L142.154 28.7644L142.429 25.5084L143.769 22.6694C143.963 21.7962 144.043 20.9016 144.008 20.0078C144.124 19.7594 144.408 19.8304 144.807 20.1409C145.845 20.9749 145.747 22.2347 145.171 23.6897C144.922 24.3107 145.41 24.2309 145.747 23.9469C147.061 22.9341 148.309 21.8376 149.482 20.6643L152.827 17.5326C153.342 17.2487 153.643 17.3019 153.484 17.9939C152.508 19.5994 151.334 21.0751 149.988 22.3855C151.789 21.1622 153.508 19.8227 155.134 18.3754C155.631 17.8786 156.145 18.2068 156.021 18.6948C155.968 18.8367 155.843 18.9343 155.728 19.1561L150.822 24.2575L150.982 24.4793L154.371 22.492L156.394 21.3564C156.979 21.2233 157.13 21.3564 156.89 21.8621C155.413 23.4261 153.774 24.8298 152.002 26.0496V26.227L156.145 25.0382C156.651 25.0382 156.819 25.2334 156.376 25.7036L151.709 27.9127C150.73 28.8835 149.629 29.7244 148.435 30.4146L146.155 31.7099L145.942 32.2511L145.552 32.668L144.115 34.1585Z" fill="#964535"/>
<path fill-rule="evenodd" clip-rule="evenodd" d="M148.862 22.2705C150.084 23.0688 150.952 24.3083 151.284 25.7306C150.615 24.4859 149.802 23.3246 148.862 22.2705Z" fill="#72281C"/>
<path fill-rule="evenodd" clip-rule="evenodd" d="M122.201 40.4759C119.506 41.6298 116.712 42.5384 113.853 43.1907C110.469 43.9546 107.031 44.4589 103.57 44.6989L102.346 44.8054C100.181 45.0094 97.3599 45.1691 95.6299 46.6507C94.4588 47.6621 98.5931 53.3934 97.7946 55.6114C97.492 57.0878 97.4739 58.6085 97.7414 60.0917C97.7414 60.4377 101.379 59.9054 101.61 59.861C108.491 58.7052 115.183 56.6158 121.5 53.6507C127.471 50.8936 132.978 47.2273 137.825 42.7826C141.062 39.8194 143.842 36.3932 146.076 32.6154L141.294 29.2529C140.587 29.6982 139.919 30.2028 139.297 30.7612C138.597 31.2757 137.887 31.7725 137.168 32.2694C135.719 33.2453 134.24 34.1768 132.732 35.064C129.358 37.121 125.838 38.9297 122.201 40.4759Z" fill="#F8A74B"/>
<path fill-rule="evenodd" clip-rule="evenodd" d="M109.461 104.274C98.4614 105.364 87.3769 105.278 76.3955 104.017C76.1949 108.608 76.5254 113.208 77.3803 117.724C78.9595 121.521 83.8213 125.664 90.6881 125.371C92.6488 125.327 93.7933 125.504 95.7096 125.327C97.484 125.158 98.318 122.461 99.9415 121.778C107.616 118.602 109.195 112.676 109.461 104.274Z" fill="#33355E"/>
<path fill-rule="evenodd" clip-rule="evenodd" d="M74.7187 72.4853L74.0622 58.4233C73.6275 53.7301 74.3017 49.9684 77.6109 48.4247C82.2383 46.0884 87.3687 44.9246 92.5512 45.0356C97.0159 44.8784 101.461 45.6989 105.575 47.4399C109 48.8594 110.011 52.6388 110.011 57.4296L110.641 73.0531L110.73 83.2025L111.457 94.2747L112.114 103.635C112.167 104.939 111.794 105.915 110.641 106.296C109.073 106.582 107.479 106.701 105.886 106.651C104.44 106.722 103.544 106.136 103.375 104.717C97.0481 105.128 90.7026 105.166 84.3713 104.832C84.3088 105.375 84.1144 105.894 83.8051 106.344C83.4958 106.794 83.081 107.161 82.5969 107.414L80.6717 107.494L77.6198 109.561L72.9177 112.098L72.4741 106.491L71.5869 102.321L74.3904 99.2429L75.4817 92.589V85.4915L74.7187 72.4853Z" fill="#F8A74B"/>
<path fill-rule="evenodd" clip-rule="evenodd" d="M103.73 64.6606C103.632 60.0738 103.499 55.1942 101.769 50.8914C101.282 49.6593 100.688 48.4719 99.995 47.3426C99.8353 47.0942 99.1078 45.5682 98.8682 45.4884C96.7937 45.1618 94.6958 45.0075 92.5958 45.027C89.74 45.0069 86.8922 45.3316 84.1143 45.9941C84.2329 46.8765 84.2981 47.7653 84.3094 48.6556C84.4514 50.6518 84.9305 52.5682 85.1966 54.5466C86.0838 61.8837 85.9419 69.3006 85.9951 76.7264C85.9951 80.3905 86.0572 84.0457 85.9951 87.7098C85.9951 89.5729 85.8975 91.4271 85.791 93.2902C85.7512 95.1547 85.6002 97.0152 85.3386 98.8618C84.9926 100.805 84.9216 102.81 84.4514 104.744L84.407 104.895C90.7413 105.229 97.0898 105.19 103.42 104.779V104.921C103.357 104.077 103.357 103.229 103.42 102.384C103.42 101.568 103.366 100.751 103.34 99.9441C103.281 98.1343 103.251 96.3362 103.251 94.55C103.251 89.5551 103.473 84.5691 103.65 79.5742C103.828 74.5794 103.881 69.8151 103.774 64.8557L103.73 64.6606Z" fill="#8D9475"/>
<path fill-rule="evenodd" clip-rule="evenodd" d="M26.8371 27.1949C28.1408 27.4811 29.4686 27.6445 30.8028 27.6829C31.0069 27.6829 31.1577 27.7716 31.344 27.7716L32.3732 28.6588L33.7128 29.2798L34.254 29.6613L36.0461 31.0542L38.2641 26.3432C37.1544 25.746 36.0765 25.0916 35.0347 24.3825C34.2025 23.7521 33.4594 23.0119 32.8256 22.1823L32.3998 21.1354C30.9182 19.8401 29.8003 18.74 29.7382 18.1988C29.6176 17.6505 29.5492 17.0921 29.5341 16.5309C29.3301 15.8566 28.993 15.901 28.4873 16.4776C28.1963 17.095 28.1274 17.7938 28.2921 18.4561C28.3506 19.1873 28.4996 19.9085 28.7357 20.6031L28.4429 20.9313C27.4935 20.8957 26.5547 20.7193 25.6571 20.4079C24.2689 19.9333 22.8562 19.5335 21.4252 19.2102C20.5091 18.9183 19.5443 18.8098 18.5862 18.8908C17.9386 19.1037 17.8587 19.4409 18.2934 19.7336C17.6331 19.6957 16.9714 19.7799 16.3416 19.9821C15.8714 20.3902 16.457 20.6829 17.1667 20.9757C16.4747 21.1531 16.2795 21.437 16.9893 21.9427L18.6128 22.6081C18.2313 22.7767 18.1249 22.9896 18.3999 23.2913C18.7635 23.5933 19.1627 23.8495 19.5887 24.0543C20.8042 24.6842 22.0196 25.2786 23.1907 25.8286C24.3657 26.3855 25.5855 26.8426 26.8371 27.1949Z" fill="#964535"/>
<path fill-rule="evenodd" clip-rule="evenodd" d="M17.4063 21.1789L17.2644 20.9748C16.6699 20.8418 15.9779 21.3741 16.5723 21.862C17.2948 22.2684 18.0519 22.6098 18.8347 22.8823C19.5799 23.2106 20.1832 23.4235 20.893 23.6808C21.8245 24.009 22.4189 24.2308 23.315 24.568C24.2111 24.9051 24.282 24.7454 23.4392 24.355C22.6548 23.9662 21.8422 23.637 21.0083 23.3703C20.3339 23.1599 19.6732 22.908 19.0299 22.6161C18.2547 22.3604 17.5084 22.0244 16.803 21.6136C16.528 21.4096 16.6078 21.2055 17.4063 21.1789Z" fill="#72281C"/>
<path fill-rule="evenodd" clip-rule="evenodd" d="M18.542 19.8842L18.125 19.5825C17.4545 19.5468 16.7845 19.662 16.1643 19.9196C16.1016 19.9557 16.0495 20.0077 16.0135 20.0705C15.9813 20.1335 15.966 20.2038 15.9692 20.2745C15.9707 20.3442 15.9923 20.4119 16.0313 20.4697C16.0711 20.528 16.1264 20.5741 16.191 20.6028C16.5746 20.866 17.0008 21.0611 17.4508 21.1795C19.0832 21.7206 20.7156 22.2086 22.3392 22.7587C22.9994 22.9799 23.6478 23.2345 24.2821 23.5216C25.054 23.8499 24.8322 23.4595 24.3354 23.2732C23.8385 23.0869 23.0578 22.732 22.419 22.5102C20.7955 21.9691 19.163 21.4279 17.4951 20.931C17.1145 20.801 16.751 20.6253 16.4128 20.4076C16.1732 20.2568 16.2797 20.1237 16.6434 20.0261C17.2651 19.8623 17.9106 19.8083 18.5509 19.8664L18.542 19.8842Z" fill="#72281C"/>
<path fill-rule="evenodd" clip-rule="evenodd" d="M86.4919 47.3958C87.3197 46.3652 88.4294 45.5977 89.6858 45.1867C89.6055 45.1048 89.4984 45.0544 89.3841 45.0447C88.4969 44.956 87.6097 44.8496 86.7226 44.7342C82.4196 44.3279 78.1707 43.4745 74.0446 42.188L72.7493 41.7C69.5021 40.3854 66.3353 38.8805 63.2652 37.1931C60.1068 35.5341 56.9484 33.9371 53.7191 32.4378C48.2895 29.8915 42.8155 27.3542 37.3859 24.7724L34.6001 23.415C34.4436 25.4483 33.5284 27.3483 32.0361 28.7382L34.0234 30.7787C36.6595 33.6931 39.5515 36.3654 42.6647 38.7634C44.4177 40.0505 46.2687 41.1985 48.2007 42.1969C50.5461 43.434 52.8182 44.8055 55.0055 46.3046C57.1791 47.8128 59.2196 49.4186 61.3666 50.9268C62.7418 51.885 64.1347 52.8077 65.5453 53.7126C67.1156 54.7063 68.7126 55.6644 70.3273 56.5694C72.3724 57.8194 74.6218 58.6993 76.9723 59.1688C80.2372 59.293 81.2752 56.1612 83.2891 54.7329C83.8866 54.3069 84.4502 53.8353 84.9748 53.3222C84.7704 51.23 85.3073 49.1325 86.4919 47.3958Z" fill="#F8A74B"/>
<path fill-rule="evenodd" clip-rule="evenodd" d="M92.0544 132.3L93.1988 117.768C93.3763 115.434 93.2876 112.551 91.7261 110.67C90.3481 109.168 88.438 108.264 86.403 108.151C84.163 107.847 81.8831 108.208 79.8466 109.189C78.8403 109.769 78.0199 110.623 77.481 111.652C76.9422 112.681 76.7072 113.842 76.8036 115C76.9278 120.722 77.1762 126.471 77.6109 132.282L92.0544 132.3Z" fill="#33355E"/>
<path fill-rule="evenodd" clip-rule="evenodd" d="M100.075 40.6176L91.1317 36.5986C90.7813 40.6719 89.1046 44.5177 86.3586 47.5466C87.4942 50.5009 90.1647 52.364 94.1038 53.1447C97.7502 53.4109 100.137 52.7544 101.494 50.1726C99.7996 47.1118 99.8173 44.1575 100.075 40.6176Z" fill="#964535"/>
<path fill-rule="evenodd" clip-rule="evenodd" d="M89.1712 36.1902C87.6541 34.1408 86.8379 31.213 86.3411 27.8595C85.8429 23.673 85.7478 19.4483 86.0571 15.2436C86.4919 11.2601 87.7339 8.3324 90.1648 6.94838C92.044 5.90694 94.1329 5.30058 96.2776 5.174C98.4234 5.05533 100.568 5.42543 102.55 6.25638C106.028 7.62265 107.98 9.6898 108.414 12.4667L109.213 18.8456L108.787 22.6871C108.946 25.1635 108.788 27.65 108.317 30.0863C107.766 31.9925 107.039 33.843 106.143 35.6135C105.664 36.9975 105.203 38.5235 104.786 40.2269C104.156 41.7617 102.71 42.1876 100.776 41.948C95.9227 41.5311 91.7884 39.9962 89.1268 36.2168L89.1712 36.1902Z" fill="#964535"/>
<path fill-rule="evenodd" clip-rule="evenodd" d="M104.573 1.51917L103.801 1.26189C102.364 -0.512495 100.767 -0.326185 99.0546 1.26189C98.7499 1.01206 98.3865 0.844113 97.9988 0.773931C97.6148 0.695269 97.2169 0.719759 96.8455 0.844906C95.7542 0.0819225 94.6718 0.144026 93.5274 1.33286C93.1847 1.14439 92.8077 1.02628 92.4188 0.98546C92.0298 0.94464 91.6366 0.981935 91.2622 1.09516C90.8878 1.20838 90.5398 1.39524 90.2387 1.64478C89.9375 1.89432 89.6892 2.20151 89.5084 2.54831C87.5654 1.8563 85.8798 2.00713 84.9748 4.53562C82.3133 5.08568 81.0978 6.48744 81.9052 9.0248C80.9825 9.94748 80.7341 11.5356 81.1067 13.6293C81.4968 15.7258 82.0728 17.7833 82.8278 19.7776C83.2453 21.1131 83.9038 22.361 84.7708 23.4594C85.9064 24.4176 86.8202 24.1514 87.4945 22.5012C87.7358 21.0598 88.0979 19.6412 88.5768 18.2605L89.8278 15.0045L90.0052 12.0767C90.0939 9.90312 91.061 9.33532 92.516 9.63696C96.0388 10.2202 99.5944 10.5846 103.162 10.7282H107.669C107.906 11.0792 108.261 11.3339 108.669 11.4462C109.078 11.5584 109.513 11.5209 109.896 11.3404C110.146 11.1711 110.34 10.9316 110.454 10.6521C110.567 10.3726 110.596 10.0656 110.535 9.77004C111.422 8.93608 111.129 8.08438 110.278 7.20606C110.49 5.98174 109.843 5.43168 108.503 5.43168L108.397 4.61547C109.231 2.53057 107.172 1.95389 104.546 1.62563L104.573 1.51917Z" fill="#492B29"/>
<path fill-rule="evenodd" clip-rule="evenodd" d="M86.5808 28.5874C87.1436 27.624 87.336 26.4885 87.122 25.3935C87.0226 24.5414 86.7764 23.713 86.3945 22.9449C86.1993 22.519 85.9775 22.0577 85.7202 21.5963C84.8951 19.9728 83.8394 19.6002 82.6062 20.2212C81.0359 20.9221 80.7786 22.4392 81.5149 24.5684C82.1262 26.0339 82.9613 27.3957 83.9902 28.6051C84.3451 28.93 84.8088 29.1101 85.2899 29.1101C85.7711 29.1101 86.2347 28.93 86.5897 28.6051L86.5808 28.5874Z" fill="#964535"/>
<path fill-rule="evenodd" clip-rule="evenodd" d="M85.2943 23.0688C84.5727 21.3654 83.5229 21.0993 82.1448 22.2704C83.511 21.7647 84.5934 21.9332 85.2943 23.0688Z" fill="#72281C"/>
<path fill-rule="evenodd" clip-rule="evenodd" d="M92.2675 18.4374L90.5464 18.9253C91.2739 18.118 92.72 16.9735 93.8379 16.938L98.4779 16.8582C98.9975 16.8498 99.5149 16.7873 100.022 16.6719C99.5336 18.0825 99.4804 18.6947 97.9278 18.8011C96.7347 18.7291 95.5486 18.569 94.379 18.322C93.6805 18.1704 92.9528 18.2259 92.2853 18.4817L92.2675 18.4374Z" fill="#60240D"/>
<path fill-rule="evenodd" clip-rule="evenodd" d="M99.7466 30.1669C99.6589 29.9889 99.6133 29.7931 99.6133 29.5947C99.6133 29.3963 99.6589 29.2005 99.7466 29.0225C99.6384 29.0923 99.5449 29.1828 99.4715 29.2886C99.3959 29.3944 99.3444 29.5156 99.3207 29.6435C99.2984 29.7727 99.2984 29.9047 99.3207 30.0339C99.3581 30.1591 99.4183 30.2764 99.4982 30.3799C99.7022 30.646 99.9418 30.4686 99.7554 30.1669H99.7466Z" fill="#72281C"/>
<path fill-rule="evenodd" clip-rule="evenodd" d="M102.026 30.4593C101.893 30.3094 101.73 30.1886 101.547 30.1044C101.368 30.0164 101.171 29.9709 100.971 29.9713C100.509 29.9181 100.705 30.3528 100.971 30.3528C101.325 30.3628 101.678 30.3984 102.026 30.4593Z" fill="#72281C"/>
<path fill-rule="evenodd" clip-rule="evenodd" d="M115.334 140.444C115.086 137.782 114.279 128.689 114.048 127.668C113.675 126.045 113.081 123.383 111.386 122.665C109.651 121.882 107.762 121.503 105.859 121.556C104.887 121.604 103.924 121.774 102.994 122.061C102.307 122.237 101.667 122.56 101.117 123.007C100.567 123.455 100.121 124.016 99.8085 124.652C99.2591 126.315 99.0303 128.067 99.1343 129.815C99.1343 131.137 97.9987 137.924 97.7236 140.462L115.334 140.444Z" fill="#D73024"/>
<path fill-rule="evenodd" clip-rule="evenodd" d="M122.316 103.44C121.829 104.958 120.857 106.273 119.548 107.184C116.532 106.803 118.466 103.298 119.708 102.438C120.24 102.045 120.842 101.758 121.483 101.595C122.254 101.781 122.538 102.393 122.316 103.44Z" fill="#E0AC69"/>
<path fill-rule="evenodd" clip-rule="evenodd" d="M105.052 125.789C104.658 125.199 104.397 124.529 104.289 123.828C104.183 123.125 104.235 122.406 104.44 121.725L105.735 121.539L108.778 121.841L109.781 122.063L110.065 122.178C111.014 124.343 110.783 125.975 109.577 127.164C108.78 127.499 107.892 127.545 107.066 127.294C106.239 127.042 105.527 126.51 105.052 125.789Z" fill="#B5271C"/>
<path fill-rule="evenodd" clip-rule="evenodd" d="M104.475 116.224L105.442 117.2C105.877 118.752 105.673 120.748 105.842 122.328C106.046 124.226 107.181 124.67 108.015 124.359C109 124.004 108.964 123.215 109.169 122.354C109.639 120.269 109.461 118.557 110.579 117.599L112.354 117.146C115.352 114.707 103.668 113.5 104.449 116.259L104.475 116.224Z" fill="#E0AC69"/>
<path fill-rule="evenodd" clip-rule="evenodd" d="M99.8883 116.224C97.6901 113.82 96.0751 110.942 95.1685 107.813C93.3941 103.377 92.3561 99.0742 92.5069 95.002C93.3941 91.1515 95.3104 88.1617 98.7172 86.3607C102.266 84.4089 105.868 83.5572 109.443 84.1871C112.85 84.7283 115.263 86.2365 116.443 89.0489C116.809 90.3584 116.956 91.7194 116.878 93.0768C116.671 95.3428 116.952 97.627 117.703 99.775L119.477 103.617C121.394 107.414 121.367 111.362 118.111 115.452C115.906 117.937 112.84 119.49 109.532 119.799C107.765 119.904 105.995 119.64 104.335 119.025C102.674 118.409 101.16 117.455 99.8883 116.224Z" fill="#E0AC69"/>
<path fill-rule="evenodd" clip-rule="evenodd" d="M103.517 101.967C102.614 102.692 102.018 103.731 101.849 104.877C102.106 107.282 104.564 108.204 106.826 107.734C107.368 107.605 107.842 107.277 108.154 106.815C108.466 106.354 108.594 105.792 108.512 105.241C108.408 104.239 108.057 103.279 107.492 102.446C107.267 102.147 106.985 101.896 106.661 101.708C106.337 101.521 105.978 101.402 105.607 101.357C105.235 101.312 104.859 101.343 104.499 101.448C104.14 101.553 103.806 101.73 103.517 101.967Z" fill="#FFEEF1"/>
<path fill-rule="evenodd" clip-rule="evenodd" d="M108.512 105.241C108.523 104.169 108.215 103.119 107.625 102.224C107.338 101.875 106.977 101.594 106.568 101.401C106.159 101.208 105.713 101.107 105.26 101.107C104.808 101.107 104.362 101.208 103.953 101.401C103.544 101.594 103.183 101.875 102.896 102.224C102.253 102.965 101.889 103.906 101.867 104.886C103.499 100.219 107.598 100.663 108.53 105.25L108.512 105.241Z" fill="#81341C"/>
<path fill-rule="evenodd" clip-rule="evenodd" d="M105.398 103.422C105.586 103.422 105.772 103.467 105.939 103.555C106.11 103.637 106.259 103.759 106.374 103.91C106.288 103.867 106.194 103.846 106.099 103.848C106.003 103.845 105.909 103.866 105.824 103.91C105.739 103.954 105.664 104.014 105.602 104.087C105.542 104.165 105.502 104.257 105.487 104.353C105.464 104.444 105.464 104.538 105.487 104.628C105.511 104.723 105.556 104.811 105.62 104.886C105.683 104.956 105.762 105.011 105.85 105.045C105.944 105.067 106.041 105.067 106.134 105.045C106.219 105.067 106.307 105.067 106.392 105.045C106.477 105.014 106.553 104.962 106.613 104.895C106.572 105.127 106.465 105.343 106.303 105.516C106.146 105.692 105.938 105.816 105.708 105.871C105.481 105.93 105.241 105.924 105.017 105.853C104.792 105.783 104.592 105.65 104.44 105.471C104.29 105.287 104.192 105.067 104.156 104.833C104.128 104.599 104.165 104.363 104.262 104.149C104.358 103.931 104.519 103.749 104.724 103.626C104.924 103.495 105.158 103.424 105.398 103.422Z" fill="#311713"/>
<path fill-rule="evenodd" clip-rule="evenodd" d="M116.86 101.382C117.522 102.045 117.936 102.916 118.031 103.848C118.014 104.259 117.902 104.661 117.703 105.021C117.504 105.381 117.225 105.69 116.887 105.924C116.552 106.162 116.166 106.317 115.76 106.377C115.353 106.443 114.936 106.409 114.545 106.279C114.135 106.117 113.794 105.818 113.579 105.433C113.365 105.049 113.289 104.602 113.365 104.168C113.436 103.334 113.681 102.524 114.083 101.79C114.935 100.672 115.867 100.575 116.86 101.382Z" fill="#FFEEF1"/>
<path fill-rule="evenodd" clip-rule="evenodd" d="M113.365 104.167C113.358 103.273 113.575 102.392 113.995 101.603C114.167 101.316 114.41 101.079 114.7 100.914C114.991 100.75 115.32 100.663 115.654 100.663C115.988 100.663 116.316 100.75 116.607 100.914C116.898 101.079 117.141 101.316 117.313 101.603C117.773 102.272 118.023 103.063 118.032 103.874C116.905 99.8908 114.021 100.255 113.365 104.167Z" fill="#81341C"/>
<path fill-rule="evenodd" clip-rule="evenodd" d="M115.556 102.642C115.416 102.648 115.279 102.688 115.157 102.757C115.038 102.83 114.937 102.93 114.864 103.05C114.917 103.041 114.971 103.041 115.024 103.05C115.138 103.076 115.237 103.146 115.299 103.245C115.368 103.337 115.405 103.449 115.405 103.564C115.405 103.68 115.368 103.792 115.299 103.884C115.234 103.982 115.137 104.055 115.024 104.088C114.96 104.082 114.897 104.067 114.838 104.043C114.781 104.01 114.731 103.968 114.687 103.919C114.705 104.148 114.804 104.364 114.967 104.526C115.13 104.689 115.345 104.788 115.574 104.806C115.845 104.782 116.098 104.657 116.281 104.456C116.465 104.255 116.567 103.992 116.567 103.72C116.567 103.447 116.465 103.185 116.281 102.984C116.098 102.782 115.845 102.657 115.574 102.633L115.556 102.642Z" fill="#311713"/>
<path fill-rule="evenodd" clip-rule="evenodd" d="M93.3855 21.7205C92.941 21.9988 92.5601 22.3676 92.2676 22.8029C91.976 23.2294 91.7794 23.7134 91.6909 24.2224C91.9393 26.2807 94.4057 27.0792 96.6681 26.6799C97.1722 26.6133 97.6304 26.3526 97.9453 25.9533C98.2601 25.554 98.4066 25.0475 98.3537 24.5418C98.2401 23.6578 97.8839 22.8226 97.3246 22.1286C96.8193 21.6018 96.1433 21.2716 95.4171 21.1971C94.6999 21.1328 93.9824 21.3176 93.3855 21.7205Z" fill="#FFEEF1"/>
<path fill-rule="evenodd" clip-rule="evenodd" d="M98.3804 24.5416C98.3854 23.6027 98.0728 22.6897 97.4932 21.951C96.8547 21.3424 96.0065 21.0029 95.1244 21.0029C94.2424 21.0029 93.3941 21.3424 92.7556 21.951C92.1283 22.5578 91.7623 23.3853 91.7354 24.2577C93.3412 20.2298 97.4489 20.6024 98.3804 24.5416Z" fill="#5B2617"/>
<path fill-rule="evenodd" clip-rule="evenodd" d="M95.3193 22.6875C95.5066 22.6884 95.6914 22.7309 95.8605 22.8117C96.0314 22.8939 96.1804 23.0155 96.2952 23.1666C96.2189 23.1532 96.1408 23.1532 96.0645 23.1666C95.9827 23.1485 95.8979 23.1485 95.8161 23.1666C95.7329 23.1933 95.657 23.2388 95.5943 23.2997C95.5297 23.3558 95.4782 23.4255 95.4435 23.5037C95.4082 23.5818 95.39 23.6665 95.39 23.7521C95.39 23.8378 95.4082 23.9225 95.4435 24.0005C95.4782 24.0788 95.5297 24.1484 95.5943 24.2046C95.6575 24.2627 95.7335 24.3053 95.8161 24.3288C95.8974 24.3511 95.9832 24.3511 96.0645 24.3288C96.153 24.3291 96.2406 24.311 96.3218 24.2756C96.4065 24.2422 96.4845 24.1942 96.5525 24.1336C96.507 24.3625 96.4005 24.5748 96.2444 24.7481C96.0882 24.9214 95.8881 25.0494 95.6653 25.1184C95.4364 25.1847 95.1933 25.1847 94.9644 25.1184C94.7384 25.0468 94.5381 24.9112 94.3877 24.728C94.2351 24.5459 94.1368 24.3246 94.1038 24.0893C94.0722 23.8536 94.1089 23.6137 94.2095 23.3983C94.3102 23.1828 94.4706 23.0008 94.6716 22.8738C94.8673 22.7557 95.0907 22.6914 95.3193 22.6875Z" fill="#311713"/>
<path fill-rule="evenodd" clip-rule="evenodd" d="M106.729 21.5524C107.341 22.1044 107.73 22.8621 107.82 23.6817C107.779 24.0503 107.657 24.4051 107.461 24.7204C107.266 25.0356 107.003 25.3033 106.691 25.5039C106.379 25.7045 106.026 25.8329 105.658 25.8799C105.29 25.9269 104.916 25.8912 104.564 25.7754C104.195 25.6519 103.883 25.4009 103.683 25.0674C103.483 24.734 103.408 24.3401 103.473 23.9567C103.54 23.2326 103.767 22.5326 104.138 21.9073C104.271 21.6937 104.45 21.5121 104.661 21.3757C104.872 21.2393 105.111 21.1514 105.361 21.1183C105.61 21.0852 105.864 21.1078 106.103 21.1844C106.343 21.261 106.563 21.3897 106.747 21.5613L106.729 21.5524Z" fill="#FFEEF1"/>
<path fill-rule="evenodd" clip-rule="evenodd" d="M103.455 23.9563C103.445 23.1736 103.651 22.4033 104.049 21.7294C104.223 21.4787 104.455 21.2739 104.726 21.1324C104.996 20.9909 105.297 20.917 105.602 20.917C105.907 20.917 106.208 20.9909 106.478 21.1324C106.748 21.2739 106.981 21.4787 107.154 21.7294C107.581 22.2954 107.817 22.9818 107.829 23.6901C106.773 20.2833 104.067 20.6027 103.455 23.9563Z" fill="#5B2617"/>
<path fill-rule="evenodd" clip-rule="evenodd" d="M105.638 22.5898C105.499 22.5907 105.362 22.6241 105.238 22.6874C105.115 22.7533 105.008 22.8475 104.928 22.9625C104.984 22.9539 105.041 22.9539 105.096 22.9625C105.161 22.9488 105.227 22.9488 105.292 22.9625C105.358 22.9838 105.419 23.0202 105.469 23.0689C105.517 23.1144 105.556 23.1686 105.584 23.2286C105.598 23.293 105.598 23.3594 105.584 23.4238C105.597 23.4883 105.597 23.5545 105.584 23.619C105.554 23.6776 105.515 23.7315 105.469 23.7787C105.418 23.8247 105.358 23.8582 105.292 23.8763C105.227 23.8899 105.161 23.8899 105.096 23.8763C105.035 23.8897 104.972 23.8897 104.91 23.8763C104.848 23.8514 104.794 23.8118 104.75 23.7609C104.774 23.9805 104.875 24.1847 105.034 24.3376C105.201 24.4878 105.414 24.5756 105.638 24.586C105.885 24.5669 106.116 24.4561 106.285 24.2755C106.457 24.0929 106.552 23.8518 106.552 23.6012C106.552 23.3507 106.457 23.1096 106.285 22.927C106.12 22.7365 105.889 22.616 105.638 22.5898Z" fill="#311713"/>
<path fill-rule="evenodd" clip-rule="evenodd" d="M93.0392 84.5688L92.081 85.3584C92.5778 82.8299 92.3915 81.1354 91.1938 80.6475C90.1735 80.8604 90.1114 82.4218 90.8123 85.0834C89.7166 84.771 88.646 84.3766 87.6095 83.9034C86.8909 83.7083 86.6691 83.9034 86.678 84.3204C87.4055 85.7044 89.0468 86.2989 91.2736 86.3965L90.1203 89.1911C89.5157 91.2022 89.3315 93.3161 89.5791 95.4014C89.74 97.1562 90.0941 98.8878 90.6349 100.565C91.0776 101.818 91.7186 102.992 92.5335 104.043C94.2546 106.323 95.7539 104.797 96.5081 102.818C97.4245 100.032 97.9296 97.127 98.0074 94.1949C98.4402 94.8862 98.9235 95.5445 99.4535 96.1644C99.9996 94.8088 100.3 93.3668 100.341 91.9059C100.332 90.1675 100.19 88.4324 99.9149 86.7158C102.576 86.5561 104.599 86.9554 105.77 88.0644C107.71 89.3391 109.074 91.3233 109.568 93.5916C109.878 95.3659 110.455 96.4749 111.644 95.9249C112.871 95.4844 113.965 94.7359 114.82 93.7513C118.076 93.1746 120.294 91.4889 120.143 87.2304L121.101 88.1708C121.802 84.2938 119.735 82.3065 116.257 81.2774C114.802 80.7362 112.371 80.9314 109.328 81.6056L103.632 82.5106H101.858C98.7947 82.4703 95.7679 83.1768 93.0392 84.5688Z" fill="#81341C"/>
<path fill-rule="evenodd" clip-rule="evenodd" d="M101.281 98.9858C101.839 98.2565 102.543 97.652 103.348 97.2114C104.146 96.7737 105.025 96.5021 105.93 96.4129C108.104 96.1468 108.539 98.4535 106.924 98.7906C105.311 99.0782 103.75 99.6045 102.293 100.352C100.864 101.142 100.252 100.308 101.281 98.9858Z" fill="#81341C"/>
<path fill-rule="evenodd" clip-rule="evenodd" d="M116.639 97.5045C115.766 96.6597 114.597 96.1913 113.383 96.2003C112.185 96.2003 111.786 98.8619 113.604 98.7554C114.62 98.729 115.635 98.8183 116.63 99.0216C117.384 99.1547 116.887 97.7263 116.63 97.5045H116.639Z" fill="#81341C"/>
<path fill-rule="evenodd" clip-rule="evenodd" d="M112.078 107.529C113.666 107.636 114.412 108.204 114.545 108.887C114.704 109.774 113.888 110.723 112.158 111.114C114.332 109.632 114.758 108.567 112.078 107.529Z" fill="#9B5816"/>
<path fill-rule="evenodd" clip-rule="evenodd" d="M93.758 104.274C94.7707 104.76 95.7542 105.305 96.7034 105.906C99.4182 108.018 100.359 109.783 99.2763 111.176C97.5539 112.181 95.5082 112.477 93.5716 112.001C92.4333 111.744 91.3659 111.238 90.4457 110.52C89.5255 109.803 88.7752 108.891 88.2485 107.849C87.3613 105.764 87.1661 104.052 88.5147 103.191C89.6769 102.606 91.5311 103.12 93.7491 104.238L93.758 104.274Z" fill="#E0AC69"/>
<path fill-rule="evenodd" clip-rule="evenodd" d="M94.6008 108.027C94.3117 107.681 93.9941 107.361 93.6515 107.069C93.491 106.946 93.2902 106.889 93.0894 106.909C92.8886 106.929 92.7027 107.024 92.5691 107.175C92.1866 107.585 91.947 108.108 91.886 108.665C91.7441 107.486 92.1433 106.785 93.0926 106.589C92.1139 105.835 90.9761 105.313 89.7656 105.063C90.7818 105.091 91.7771 105.358 92.671 105.842C93.565 106.326 94.3324 107.014 94.9113 107.849C95.2396 108.275 94.9912 108.453 94.6097 108.027H94.6008Z" fill="#C68946"/>
<path fill-rule="evenodd" clip-rule="evenodd" d="M110.633 122.346L109.905 122.08C110.055 122.541 110.153 123.017 110.198 123.5C110.311 123.92 110.28 124.366 110.11 124.767C109.939 125.167 109.639 125.499 109.257 125.709C108.802 125.867 108.319 125.93 107.838 125.895C107.357 125.853 106.891 125.707 106.472 125.469C106.03 125.202 105.649 124.845 105.354 124.422C105.049 124.006 104.832 123.532 104.715 123.029C104.601 122.58 104.553 122.117 104.573 121.654H104.413C104.218 121.654 103.987 121.761 103.792 121.787C103.328 122.635 103.139 123.605 103.251 124.564C103.359 125.463 103.703 126.318 104.246 127.042C104.79 127.766 105.514 128.335 106.347 128.69C106.976 128.884 107.641 128.93 108.29 128.823C108.93 128.712 109.537 128.457 110.065 128.078C111.28 126.942 111.724 125.416 111.005 123.402C110.916 123.039 110.791 122.685 110.633 122.346Z" fill="#FA6D6D"/>
<path d="M86.9442 113.509C87.0991 113.401 87.2445 113.279 87.379 113.146C87.7301 112.777 88.0286 112.362 88.2662 111.913C88.4346 111.552 88.6493 111.215 88.9049 110.91C89.1534 110.653 89.6768 110.431 89.9252 110.839C90.1736 111.247 89.5703 112.418 89.2776 112.862C88.9848 113.305 88.5412 113.749 88.2307 114.29C87.9765 114.697 87.8131 115.154 87.7516 115.63C87.6984 116.118 88.2218 116.171 88.5855 116.171C89.0701 116.1 89.5601 116.073 90.0494 116.091C90.1975 116.099 90.3398 116.152 90.4575 116.242C90.5732 116.337 90.6593 116.463 90.7059 116.606C90.9011 117.076 90.2269 117.378 89.8897 117.493C89.4846 117.586 89.0917 117.726 88.7186 117.91C88.3253 118.197 87.9626 118.524 87.6363 118.886C87.2811 119.214 86.8652 119.471 86.4119 119.64C85.9983 119.849 85.5557 119.996 85.0989 120.075C84.4564 120.218 83.7836 120.11 83.2181 119.773C82.6927 119.445 82.3048 118.938 82.1268 118.345C81.9228 117.515 81.7981 116.669 81.7542 115.816C81.701 114.929 81.8606 113.953 81.2751 113.155C81.0087 112.85 80.7767 112.516 80.5831 112.161C80.4589 111.868 80.3524 111.274 80.7871 111.15C81.6743 110.954 82.2776 112.578 82.7301 113.11C82.872 113.288 83.3068 113.651 83.4842 113.35C83.5458 113.102 83.5458 112.843 83.4842 112.596C83.4842 112.214 83.4132 111.815 83.3689 111.433C83.2582 110.879 83.2135 110.313 83.2358 109.748C83.2504 109.663 83.2805 109.582 83.3245 109.508C83.372 109.438 83.4322 109.378 83.502 109.331C83.5757 109.287 83.6569 109.257 83.7415 109.242C83.8234 109.225 83.908 109.225 83.9899 109.242C84.0506 109.273 84.1046 109.315 84.1488 109.367C84.1929 109.419 84.2264 109.479 84.2472 109.544C84.4995 110.311 84.6254 111.114 84.6198 111.921C84.6481 112.342 84.7347 112.757 84.8771 113.155C84.9215 113.261 85.0013 113.518 85.161 113.483C85.3207 113.447 85.3828 112.684 85.4094 112.48C85.5153 111.873 85.5864 111.26 85.6223 110.644C85.604 110.072 85.71 109.503 85.9329 108.976C86.2168 108.506 86.6515 108.754 86.8821 109.1C87.0606 109.422 87.1379 109.79 87.1039 110.156C87.0246 110.915 86.8822 111.665 86.6781 112.4C86.6781 112.587 86.3942 113.394 86.5539 113.536C86.7136 113.678 86.7757 113.563 86.9442 113.509Z" fill="#E0AC69"/>
<path d="M125.857 112.8C125.765 112.627 125.69 112.446 125.635 112.258C125.503 111.776 125.437 111.277 125.44 110.777C125.455 110.383 125.416 109.989 125.324 109.606C125.227 109.251 124.854 108.816 124.437 109.056C123.887 109.393 124.029 110.626 124.082 111.158C124.135 111.691 124.322 112.321 124.375 112.933C124.411 113.408 124.348 113.885 124.189 114.334C124.011 114.796 123.523 114.601 123.204 114.414C122.801 114.136 122.377 113.89 121.935 113.678C121.796 113.638 121.648 113.638 121.509 113.678C121.361 113.704 121.225 113.775 121.119 113.882C120.729 114.21 121.19 114.769 121.438 115.053C121.763 115.319 122.06 115.616 122.326 115.94C122.531 116.376 122.695 116.831 122.814 117.298C122.977 117.757 123.231 118.179 123.559 118.54C123.836 118.913 124.164 119.244 124.535 119.525C124.776 119.736 125.058 119.896 125.363 119.997C125.667 120.097 125.989 120.136 126.309 120.11C126.946 120.074 127.545 119.79 127.977 119.32C128.535 118.676 129.031 117.981 129.459 117.244C129.929 116.437 130.204 115.532 131.091 115.071C131.472 114.919 131.835 114.726 132.173 114.494C132.422 114.29 132.803 113.784 132.457 113.509C131.748 112.924 130.479 114.095 129.796 114.397C129.592 114.485 129.033 114.609 129.015 114.263C129.015 114.077 129.308 113.758 129.396 113.607L130.018 112.622C130.37 112.177 130.667 111.692 130.905 111.176C130.923 111.094 130.923 111.009 130.905 110.928C130.894 110.843 130.867 110.762 130.825 110.688C130.778 110.616 130.717 110.553 130.647 110.502C130.58 110.455 130.505 110.422 130.426 110.404C130.289 110.41 130.159 110.467 130.062 110.564C129.485 111.125 129.005 111.779 128.642 112.498C128.43 112.864 128.164 113.196 127.853 113.483C127.764 113.563 127.578 113.758 127.454 113.642C127.329 113.527 127.613 112.835 127.684 112.64C127.859 112.034 128.075 111.441 128.332 110.866C128.611 110.364 128.774 109.806 128.811 109.233C128.811 108.692 128.27 108.692 127.924 108.923C127.618 109.126 127.38 109.417 127.241 109.757C126.969 110.463 126.755 111.189 126.602 111.93C126.549 112.116 126.398 112.942 126.194 113.013C125.99 113.084 125.981 112.959 125.857 112.8Z" fill="#E0AC69"/>
<path d="M82.34 118.938C82.34 118.938 83.6441 120.571 86.9445 119.373C86.9445 119.373 86.4033 124.359 89.8988 124.696C93.3944 125.033 100.829 122.833 102.222 122.354C103.615 121.875 100.19 131.714 100.19 131.714C98.0515 132.288 95.8482 132.586 93.6339 132.601C92.4539 132.681 90.6086 131.865 89.4375 131.714C86.6517 131.306 84.0079 129.94 82.7836 127.278C82.2955 126.176 82.0129 124.995 81.9496 123.791C81.8964 123.044 81.8964 122.294 81.9496 121.547C81.9496 121.112 82.0294 120.66 82.1004 120.243C82.1448 120.021 82.4375 119.036 82.34 118.938Z" fill="#D73024"/>
<path fill-rule="evenodd" clip-rule="evenodd" d="M112.513 129.798C125.43 134.483 127.356 119.64 127.356 119.64C125.856 120.296 123.47 118.469 123.47 118.469C119.921 127.58 111.519 122.736 111.519 122.736L112.513 129.798Z" fill="#D73024"/>
<path fill-rule="evenodd" clip-rule="evenodd" d="M103.251 24.1605C103.601 25.3473 104.127 26.4748 104.812 27.5052C104.992 27.71 105.149 27.933 105.283 28.1706C105.391 28.3749 105.44 28.6053 105.424 28.836C105.408 29.0676 105.325 29.2896 105.185 29.4748C104.96 29.8557 104.658 30.1851 104.298 30.4418C103.934 30.6965 103.519 30.8691 103.082 30.9475C103.848 30.5362 104.487 29.9224 104.928 29.1731C105.002 29.0338 105.042 28.8786 105.043 28.7206C105.04 28.5601 105.001 28.4022 104.928 28.2593C104.802 28.0435 104.647 27.8463 104.466 27.6738C103.734 26.6288 103.31 25.3992 103.242 24.125L103.251 24.1605Z" fill="#72281C"/>
<path fill-rule="evenodd" clip-rule="evenodd" d="M109.124 18.9257C109.124 18.4288 109.124 17.932 109.062 17.4441C108.675 17.1846 108.223 17.0373 107.758 17.0182H105.655C105.02 17.0247 104.39 16.8946 103.81 16.6367C103.755 17.4107 103.999 18.1761 104.493 18.7748C105.135 19.066 105.858 19.1317 106.542 18.9612L107.598 18.7305C107.803 18.6591 108.02 18.6261 108.237 18.6329C108.452 18.65 108.661 18.7135 108.849 18.8192L109.186 19.0144L109.124 18.9257Z" fill="#60240D"/>
<path d="M72.2349 96.2181L78.4452 93.459C78.4452 93.459 82.8812 103.103 84.0345 110.883L76.3514 107.335L72.2349 96.2181Z" fill="#EFB27B"/>
<path d="M72.2349 96.2181L78.4452 93.459C78.4452 93.459 78.9509 94.5414 79.6607 96.3157L74.3375 101.905L72.2349 96.2181Z" fill="#D3854A"/>
<path d="M54.5353 81.1357C51.5484 82.3636 48.7044 83.9135 46.0537 85.758L52.264 93.9024L61.2158 97.3447H71.6846L79.9089 94.0887C77.0788 89.0051 68.9077 81.6681 68.9077 81.6681L54.5353 81.1357Z" fill="#EA5E5E"/>
<path d="M55.0058 34.0787C51.3602 34.7071 48.0662 36.6362 45.7346 39.5083C43.561 42.294 42.5141 45.8073 41.6979 49.2673C39.9235 56.7996 38.9831 65.015 42.1681 72.077C42.4212 72.755 42.8317 73.3631 43.3658 73.8514C43.8802 74.2155 44.4674 74.4637 45.087 74.5789C49.0231 75.5384 53.1572 75.288 56.9487 73.8603C58.5236 73.3244 59.9432 72.4105 61.083 71.1987C62.8574 69.1936 63.3276 66.3103 63.4518 63.5955C63.718 57.6957 62.7066 51.7337 63.576 45.896C63.8599 43.9708 64.3479 42.09 64.7915 40.2091C65.0842 38.9937 66.1932 36.341 65.3415 35.2231C64.614 34.2472 62.0767 34.1408 60.9943 33.9633C59.0045 33.6866 56.9834 33.7255 55.0058 34.0787Z" fill="#210A0A"/>
<path d="M81.0801 52.0002C83.7417 58.3436 85.7024 65.4766 83.582 72.0152C83.4531 72.4798 83.2493 72.9203 82.9787 73.3194C82.1881 74.1765 81.1062 74.708 79.9445 74.8098C75.9121 75.524 71.7589 75.0461 67.9941 73.4347C67.2466 73.1589 66.5553 72.7502 65.9535 72.2281C65.3118 71.5542 64.8297 70.7446 64.5429 69.8593C63.425 66.7985 63.4073 63.4538 63.4605 60.1978C63.4605 54.9545 63.6025 49.5515 65.5011 44.6986C66.0232 43.1202 66.9757 41.7191 68.2513 40.653C74.1955 36.2437 79.4211 48.0167 81.0801 52.0002Z" fill="#210A0A"/>
<path d="M41.1833 110.75C40.864 101.328 45.8766 93.1572 45.8766 93.1572L50.6319 97.5932C50.6319 97.5932 48.1034 103.12 48.0591 106.678L41.2543 110.883L41.1833 110.75Z" fill="#E5A26A"/>
<path d="M45.8764 93.1572L50.6317 97.5932C50.6317 97.5932 50.0905 98.8086 49.4784 100.468L41.4937 105.516C42.2098 101.169 43.6938 96.9841 45.8764 93.1572Z" fill="#D3854A"/>
<path d="M66.0422 72.8851C65.644 73.9852 65.5168 75.1651 65.6713 76.3249C65.8257 77.4847 66.2572 78.5902 66.9294 79.5479C67.8432 80.7367 69.4312 81.8812 69.0941 83.3983C68.9532 83.7929 68.7324 84.1542 68.4454 84.4596C68.1584 84.7649 67.8114 85.0077 67.4262 85.1726C66.0225 85.9344 64.469 86.3795 62.8749 86.4768C61.2774 86.5652 59.6796 86.308 58.1905 85.7227C57.204 85.378 56.334 84.7632 55.6798 83.9483C55.3579 83.5329 55.161 83.0343 55.112 82.5111C55.0605 81.9896 55.1558 81.4642 55.387 80.994C55.8306 80.2132 56.7 79.7785 57.3566 79.1664C57.9249 78.5832 58.366 77.8883 58.6519 77.1258C58.9434 76.3625 59.0703 75.5462 59.0245 74.7304C58.9105 73.101 58.5423 71.4995 57.9332 69.9839C57.5163 68.7774 57.1082 67.3224 57.9332 66.311C58.2841 65.9322 58.7229 65.6458 59.2108 65.477C60.5108 64.9627 61.9042 64.7269 63.301 64.785C64.6979 64.8431 66.0669 65.1937 67.3197 65.8141C68.9521 66.6126 69.3248 67.003 68.3222 68.5289C67.3645 69.8686 66.5972 71.3346 66.0422 72.8851Z" fill="#FFA539"/>
<path d="M66.0424 72.8847C65.4536 74.6139 65.4755 76.4928 66.1045 78.2078C64.2591 77.3207 62.3872 76.4335 60.595 75.4398L59.0247 74.5526C58.9085 72.9768 58.5556 71.4276 57.9778 69.957C57.5608 68.7415 57.1439 67.2954 57.9778 66.2751C58.3252 65.8964 58.7611 65.6099 59.2465 65.4412C60.548 64.9266 61.9429 64.6908 63.3412 64.7489C64.7394 64.8069 66.11 65.1576 67.3643 65.7783C68.9967 66.5768 69.3694 66.9671 68.3668 68.4931C67.3918 69.8419 66.6094 71.32 66.0424 72.8847Z" fill="#E87528"/>
<path d="M76.7241 140.444L73.9561 99.5184L70.9751 82.0939L66.5392 79.1396L67.6038 91.2497L58.5545 90.7973L57.9246 78.5186L53.8435 80.6389L48.0146 140.444H76.7241Z" fill="#3BDCE0"/>
<path d="M66.6013 79.1396L71.0373 82.094L71.4543 84.5426L67.0183 83.824L66.6013 79.1396Z" fill="#06BABA"/>
<path d="M74.8165 115.381L75.4375 126.915L48.5557 134.341L51.9181 100.255L74.8165 115.381Z" fill="#06BABA"/>
<path d="M53.8434 80.6389L57.9245 78.5186L58.1108 82.3778L53.7458 81.6681L53.8434 80.6389Z" fill="#06BABA"/>
<path d="M75.0027 36.6792C77.5667 38.8084 78.9685 42.0556 79.6161 45.3204C80.2163 47.6697 80.0832 50.1465 79.2346 52.4179C78.414 54.0736 77.0797 55.4194 75.431 56.2541C73.7824 57.0888 71.9079 57.3677 70.0877 57.0491C68.2755 56.6621 66.6058 55.7809 65.2637 54.503C63.9217 53.2252 62.9597 51.6007 62.4845 49.8096C62.1092 48.2812 61.9627 46.7055 62.0498 45.1341C62.0908 43.5661 62.2479 42.0034 62.52 40.4586C63.6112 34.2394 70.3184 32.7755 75.0027 36.6792Z" fill="#210A0A"/>
<path d="M52.5394 60.8275C52.3951 60.543 52.1926 60.2921 51.9449 60.0911C51.6857 59.8813 51.3824 59.7327 51.0578 59.6564C50.7498 59.5662 50.4264 59.542 50.1085 59.5854C49.7943 59.6311 49.4925 59.7397 49.2213 59.9048C48.9481 60.0702 48.7124 60.2908 48.5293 60.5524C48.3403 60.8186 48.2074 61.1205 48.1389 61.4396C48.0767 61.753 48.0767 62.0755 48.1389 62.3889C48.1983 62.7079 48.3254 63.0104 48.5115 63.2761C48.8681 63.7324 49.323 64.1024 49.8423 64.3585C50.6851 64.8553 51.7675 65.2457 52.5926 64.74C52.9005 64.506 53.1345 64.1883 53.2666 63.8249C53.3988 63.4614 53.4235 63.0677 53.3378 62.6906C53.1541 61.9377 52.8224 61.229 52.3619 60.6057L52.5216 60.9251" fill="#FFA539"/>
<path d="M49.1413 61.8124C49.372 60.73 50.5697 60.5703 51.4746 60.8188C51.5307 60.8455 51.5772 60.8888 51.6077 60.943C51.6293 61.0032 51.6293 61.0691 51.6077 61.1293C51.5913 61.1906 51.5536 61.2441 51.5012 61.2801C51.4468 61.3175 51.3804 61.3333 51.3149 61.3245C50.6761 61.1381 49.7889 61.1559 49.6115 61.9544C49.5583 62.2737 49.0792 62.1052 49.1413 61.8124Z" fill="#CE451B"/>
<path d="M74.9142 53.3306C75.5885 57.6778 76.1474 62.5662 73.5302 66.1505C72.0131 68.2176 69.6532 69.4686 67.3199 70.5864C66.5113 71.0065 65.6528 71.3225 64.7648 71.5269C63.3022 71.695 61.8211 71.4747 60.4708 70.8881C57.4778 69.7959 54.8607 67.8685 52.9297 65.3343C51.0224 62.7872 50.1021 59.6356 50.3391 56.4624C50.5933 54.4069 51.1932 52.4092 52.1134 50.5537C52.8741 48.5777 54.1297 46.8302 55.7598 45.4789C57.1334 44.5818 58.6569 43.9388 60.2579 43.5804C63.5937 42.6932 67.6481 42.0012 70.8065 43.8909C73.7698 45.6209 74.4352 50.2432 74.9142 53.3306Z" fill="#FFA539"/>
<path d="M73.6365 38.7901C73.9293 41.8243 71.596 44.4504 69.2006 46.3579C62.6181 51.6364 54.5568 54.7369 46.1336 55.2298C45.4654 51.1724 45.4355 47.0355 46.0449 42.9688C46.382 40.7508 46.9321 38.4441 48.5202 36.8295C49.6766 35.7461 51.0715 34.9498 52.5924 34.505C55.9652 33.4423 59.4589 32.8103 62.9903 32.6242C67.6924 32.2604 73.0687 32.979 73.6365 38.7901Z" fill="#210A0A"/>
<path d="M48.0589 106.633V106.855C48.0589 106.935 54.979 113.509 64.2235 113.225C64.7491 113.213 65.2541 113.019 65.6519 112.675C66.0501 112.354 66.3257 111.906 66.4326 111.406L67.1512 108.257C67.1882 108.053 67.3027 107.872 67.4706 107.751C67.6389 107.635 67.8442 107.584 68.0473 107.609C68.2513 107.634 68.4382 107.736 68.5707 107.893C68.6954 108.059 68.7582 108.263 68.7482 108.47L68.6772 110.413C68.655 110.467 68.655 110.527 68.6772 110.581C68.7132 110.634 68.7667 110.671 68.828 110.688C68.8858 110.705 68.9477 110.705 69.0055 110.688C69.0594 110.66 69.1007 110.612 69.1208 110.555L70.7798 106.784C70.8601 106.59 70.9022 106.382 70.9041 106.172C70.895 105.96 70.8437 105.752 70.7532 105.56L70.4871 105.019L71.321 105.285C71.6405 105.362 71.9418 105.5 72.2082 105.693C72.4036 105.87 72.558 106.088 72.6607 106.332C72.7668 106.572 72.8183 106.832 72.8115 107.095V107.281C72.8115 107.281 72.9801 107.281 73.0244 107.281C73.128 107.246 73.2403 107.246 73.3438 107.281C73.7076 107.449 73.7874 107.982 73.7608 108.337V108.461C73.7608 108.372 74.2399 108.532 74.3109 108.558C74.5145 108.73 74.6628 108.958 74.737 109.214C74.8112 109.47 74.808 109.742 74.7279 109.996L73.5922 113.908L69.2539 117.457L65.6519 118.184L65.572 118.113L65.2349 118.939C60.8877 119.531 56.4624 119.108 52.3062 117.703C48.1501 116.297 44.3762 113.948 41.2808 110.839L48.0589 106.633Z" fill="#E5A26A"/>
<path d="M51.2528 117.307C50.9246 117.182 49.7357 116.624 49.8777 116.073C49.8878 116.004 49.912 115.938 49.9487 115.878C49.9907 115.82 50.0453 115.771 50.1083 115.736C50.1654 115.695 50.2331 115.67 50.3035 115.665C50.3735 115.648 50.4465 115.648 50.5165 115.665C51.4036 115.967 52.2287 116.233 53.1071 116.455C53.5217 116.556 53.9426 116.63 54.3669 116.677C54.5887 116.677 54.8193 116.677 55.05 116.677C55.2807 116.677 55.6001 116.553 55.6888 116.606C55.3988 116.532 55.1009 116.493 54.8016 116.49C54.1439 116.388 53.4967 116.228 52.8675 116.011C52.5038 115.887 51.7851 115.754 51.8206 115.248C51.8233 115.171 51.8446 115.094 51.8827 115.027C51.9182 114.959 51.9701 114.901 52.0336 114.858C52.0945 114.809 52.1684 114.778 52.2465 114.769C52.3223 114.752 52.4013 114.752 52.4771 114.769C53.0097 114.936 53.556 115.055 54.1096 115.124C54.7366 115.23 55.3725 115.275 56.0082 115.257C56.0082 115.257 56.0703 115.257 56.088 115.257V115.195C55.9638 114.565 54.9968 114.477 54.5443 114.246C54.4496 114.177 54.3783 114.081 54.3402 113.971C54.3048 113.858 54.3048 113.737 54.3402 113.625C54.3755 113.513 54.4474 113.416 54.5443 113.35C54.6424 113.287 54.7562 113.253 54.8726 113.252L60.5861 114.556C61.3448 114.692 62.1132 114.766 62.8839 114.778C63.7224 114.761 64.5573 114.663 65.3769 114.485C69.5903 113.179 73.4071 110.832 76.4756 107.663L76.3692 107.37L84.0523 110.919C83.6619 111.398 70.8509 126.445 53.6394 120.501C53.4337 120.423 53.2507 120.294 53.1071 120.128C52.9633 119.965 52.868 119.765 52.832 119.551C52.832 119.711 53.7813 119.764 53.9144 119.782C54.457 119.84 55.0042 119.84 55.5468 119.782C55.3268 119.756 55.1099 119.708 54.8992 119.64C54.5532 119.587 54.1983 119.516 53.8523 119.436C52.9482 119.233 52.059 118.97 51.1907 118.646C51.0853 118.617 50.9939 118.551 50.9334 118.46C50.8736 118.371 50.8427 118.266 50.8447 118.158C50.8447 117.475 51.6343 117.75 52.0247 117.857C53.2804 118.157 54.5663 118.312 55.8573 118.318C54.8338 118.263 53.8194 118.096 52.832 117.821C52.1134 117.608 52.0424 117.582 51.2528 117.307Z" fill="#EFB27B"/>
<path d="M67.8433 65.1758C67.5384 65.8242 67.0514 66.3698 66.4416 66.7461C65.8362 67.1285 65.1348 67.3316 64.4188 67.3317C63.7015 67.3324 62.9986 67.1303 62.3911 66.7489C61.7837 66.3675 61.2963 65.8221 60.9854 65.1758C62.1021 65.5017 63.2559 65.6836 64.4188 65.717C65.5803 65.7018 66.7337 65.5195 67.8433 65.1758Z" fill="white"/>
<path d="M103.65 34.0175C103.31 34.6483 102.8 35.1709 102.177 35.5257C101.549 35.8729 100.836 36.0388 100.119 36.0048C99.4067 35.9742 98.7173 35.7432 98.1303 35.3383C97.5434 34.9333 97.0826 34.371 96.801 33.7158C97.8987 34.0951 99.0408 34.3307 100.199 34.4167C101.363 34.4487 102.525 34.3143 103.65 34.0175Z" fill="white"/>
<path d="M64.8889 62.1584H65.8826C66.2197 62.1584 66.6189 62.2116 66.8319 61.9366C67.2488 61.3954 66.2907 60.6679 65.9447 60.3574C65.5987 60.0469 66.06 59.7807 66.3084 59.9937C66.8496 60.4639 67.79 61.2889 67.3908 62.1584C67.3126 62.3074 67.1963 62.4329 67.0537 62.5221C66.9109 62.6144 66.7446 62.6636 66.5746 62.6641C66.0106 62.7085 65.444 62.7085 64.88 62.6641C64.5607 62.6641 64.5607 62.1495 64.8889 62.1584Z" fill="#E87528"/>
<path fill-rule="evenodd" clip-rule="evenodd" d="M113.081 140.444C112.425 136.451 110.828 133.027 105.984 131.528C103.656 131.001 101.253 130.887 98.886 131.19C94.4501 131.767 94.3614 132.007 90.1117 130.046L78.8267 134.571C79.3038 136.503 79.6535 138.465 79.8735 140.444H113.081Z" fill="#5C3726"/>
<path fill-rule="evenodd" clip-rule="evenodd" d="M90.3066 135.866C92.3472 136.292 93.7401 138.226 94.645 140.444H104.236C105.353 137.623 107.35 134.748 110.064 134.748H110.952C109.704 133.182 107.993 132.052 106.063 131.519C103.735 130.996 101.333 130.882 98.9656 131.182C94.5297 131.767 94.441 131.998 90.1913 130.046L89.5437 130.303C88.2395 132.974 86.8022 135.129 90.3066 135.866Z" fill="#54301F"/>
<path fill-rule="evenodd" clip-rule="evenodd" d="M81.1154 140.444C82.1556 138.039 83.5921 135.826 85.365 133.896L92.1165 130.916C91.5753 130.685 90.9188 130.41 90.1381 130.028L78.853 134.553C79.3301 136.486 79.6798 138.448 79.8999 140.426L81.1154 140.444Z" fill="#4F2917"/>
<path fill-rule="evenodd" clip-rule="evenodd" d="M85.0812 122.435C85.161 125.398 85.1699 131.449 86.1724 133.711C86.8378 135.175 87.8936 136.373 89.5615 134.997C90.6036 134.136 91.4581 133.07 92.0722 131.866C92.8885 130.304 93.2522 128.743 92.4804 127.128C91.5071 125.294 90.2528 123.624 88.763 122.177C88.1331 121.512 88.2839 121.521 87.4234 121.29C86.9604 121.186 86.513 121.022 86.0926 120.802C85.0457 120.261 85.0368 121.69 85.0546 122.399L85.0812 122.435Z" fill="#401F10"/>
<path fill-rule="evenodd" clip-rule="evenodd" d="M77.1851 123.649L77.3537 122.141C77.1225 122.028 76.8597 121.997 76.6084 122.052C76.3591 122.104 76.136 122.243 75.9785 122.443L71.9418 128.715C71.7202 129.024 71.5799 129.384 71.5337 129.762C71.4879 130.142 71.543 130.528 71.6934 130.88C72.3499 132.983 73.9469 137.143 76.5463 135.884C78.1078 135.13 78.1433 133.932 77.9392 132.45C77.9392 132.113 77.8239 131.785 77.7529 131.43C77.0705 128.887 76.8867 126.236 77.2117 123.623L77.1851 123.649Z" fill="#401F10"/>
<path fill-rule="evenodd" clip-rule="evenodd" d="M76.2979 126.63C75.7212 122.195 76.7947 119.79 79.8466 119.835C81.2826 119.559 82.7579 119.559 84.1939 119.835C85.0811 120.012 85.6932 120.083 86.1457 120.864C86.4105 121.333 86.6077 121.838 86.7312 122.363C87.0145 123.406 87.0959 124.493 86.9708 125.566C86.8565 126.553 86.6757 127.531 86.4296 128.494C85.982 129.982 85.7461 131.526 85.7287 133.08V133.24C85.7287 134.864 84.4955 135.307 83.0139 135.014C81.8319 134.731 80.6018 134.713 79.4119 134.961C78.1698 135.263 77.7085 133.79 77.6996 132.788C77.6997 132.008 77.6104 131.231 77.4335 130.472C77.1496 129.203 76.7149 127.881 76.3511 126.622L76.2979 126.63Z" fill="#5C3726"/>
<path fill-rule="evenodd" clip-rule="evenodd" d="M85.667 133.08V133.24C85.6759 133.364 85.6759 133.488 85.667 133.613C85.5251 134.934 84.3273 135.289 82.9522 135.032C81.783 134.777 80.5726 134.777 79.4034 135.032C78.1525 135.325 77.7 133.861 77.6912 132.858C77.708 132.563 77.708 132.267 77.6912 131.971C77.7899 131.251 77.9291 130.537 78.1081 129.833C78.3219 129.043 78.7449 128.326 79.3325 127.757C80.0257 126.941 80.5775 126.014 80.9649 125.016C81.2777 125.706 81.7001 126.341 82.2158 126.896C82.9177 127.442 83.5817 128.035 84.2031 128.671C85.1362 129.971 85.6808 131.509 85.7735 133.107L85.667 133.08Z" fill="#E5BFB5"/>
<path fill-rule="evenodd" clip-rule="evenodd" d="M82.7124 129.532C82.7663 129.831 82.7324 130.139 82.6148 130.419C82.4887 130.693 82.2812 130.923 82.0203 131.075L81.2485 131.661C80.8226 131.989 80.6275 131.98 80.2194 131.661L79.8911 131.368C79.2701 130.818 78.5869 130.277 78.862 129.478C79.2434 128.281 82.3664 127.997 82.7124 129.532Z" fill="#210D04"/>
<path fill-rule="evenodd" clip-rule="evenodd" d="M84.2829 125.389C84.5934 125.389 84.8329 125.06 84.8329 124.661C84.8329 124.262 84.5845 123.925 84.2829 123.925C83.9812 123.925 83.7417 124.262 83.7417 124.661C83.7417 125.06 83.9458 125.389 84.2829 125.389Z" fill="#141515"/>
<path fill-rule="evenodd" clip-rule="evenodd" d="M78.2678 125.309C78.4031 125.336 78.5435 125.317 78.667 125.255C78.79 125.198 78.8924 125.104 78.9606 124.987C79.0288 124.869 79.0595 124.734 79.0485 124.599C79.0397 124.464 78.9866 124.336 78.8977 124.235C78.811 124.128 78.6932 124.05 78.5605 124.013C78.4304 123.973 78.2914 123.973 78.1613 124.013C78.0341 124.061 77.9233 124.144 77.8419 124.253C77.7691 124.367 77.7292 124.499 77.7266 124.634C77.7146 124.795 77.7655 124.954 77.8685 125.078C77.9665 125.204 78.1097 125.287 78.2678 125.309Z" fill="#141515"/>
<path fill-rule="evenodd" clip-rule="evenodd" d="M84.5669 122.869C84.4286 122.802 84.2769 122.768 84.1233 122.768C83.9697 122.768 83.818 122.802 83.6797 122.869C83.4135 122.984 83.4135 123.703 83.8749 123.499C84.0822 123.4 84.3169 123.375 84.5403 123.428C85.2412 123.605 84.7798 123.011 84.5403 122.887L84.5669 122.869Z" fill="#E5BFB5"/>
<path fill-rule="evenodd" clip-rule="evenodd" d="M77.8593 122.887C77.9926 122.813 78.1419 122.774 78.294 122.772C78.4464 122.77 78.5975 122.8 78.7376 122.86C79.0038 122.976 79.0038 123.747 78.5336 123.49C78.3262 123.392 78.0916 123.367 77.8682 123.419C77.1673 123.597 77.6286 123.002 77.8682 122.878L77.8593 122.887Z" fill="#E5BFB5"/>
<path fill-rule="evenodd" clip-rule="evenodd" d="M82.2421 129.372C82.2086 129.226 82.1195 129.099 81.9937 129.017C81.9323 128.975 81.8629 128.945 81.7898 128.93C81.7166 128.914 81.6412 128.914 81.5679 128.928C81.8153 129.007 82.0222 129.179 82.1445 129.408C82.2244 129.532 82.2687 129.479 82.2421 129.372Z" fill="#A87E6A"/>
<path d="M71.3032 51.2373C71.7814 51.271 72.2485 51.3976 72.6783 51.6099C73.2355 51.9028 73.7111 52.3297 74.0624 52.852C74.0393 52.8928 74.0056 52.9265 73.9648 52.9496C73.5961 52.7372 73.2103 52.5562 72.8114 52.4084C72.2939 52.1556 71.7174 52.0482 71.1435 52.0979C70.5703 52.1432 70.0208 52.3458 69.5554 52.6834C69.4301 52.4208 69.2293 52.2015 68.9788 52.0535C69.6442 51.536 70.4603 51.2494 71.3032 51.2373Z" fill="#210A0A"/>
<path d="M58.4921 51.459C57.9329 51.4846 57.3829 51.6108 56.8685 51.8316C56.2333 52.1058 55.6734 52.5287 55.2361 53.0648C55.2597 53.1083 55.2972 53.1426 55.3425 53.1624C55.788 52.9508 56.2475 52.77 56.7177 52.6212C57.3477 52.3803 58.0243 52.2863 58.6961 52.3462C59.3711 52.3999 60.0256 52.6029 60.6125 52.9406C60.7715 52.6687 61.0099 52.452 61.2956 52.3196C60.4664 51.7626 59.491 51.4632 58.4921 51.459Z" fill="#210A0A"/>
<path fill-rule="evenodd" clip-rule="evenodd" d="M61.438 140.444H72.9005C72.6077 139.735 72.3593 139.007 72.0133 138.306C71.4497 137.01 70.7382 135.784 69.8929 134.651C68.4513 132.718 66.5353 131.19 64.3302 130.215C63.9758 130.084 63.6107 129.983 63.239 129.913C61.4646 129.594 60.7637 131.226 60.9855 132.779C61.0742 133.232 61.2162 137.712 61.438 140.444Z" fill="#33345E"/>
<path fill-rule="evenodd" clip-rule="evenodd" d="M56.1413 133.604C56.2744 133.683 55.8662 137.747 55.6533 140.444H63.1944C63.5827 136.926 63.7664 133.389 63.7445 129.851C62.6244 129.136 61.295 128.824 59.9739 128.964C58.5766 128.814 57.1702 129.149 55.9905 129.913C56.5139 131.971 55.2541 132.814 56.1413 133.604Z" fill="#33345E"/>
<path fill-rule="evenodd" clip-rule="evenodd" d="M56.7798 140.445L56.3274 134.527C56.8685 132.061 55.4402 129.594 53.6658 130.916C51.4922 132.575 50.188 135.024 49.0347 137.437C48.5556 138.431 48.0942 139.424 47.624 140.427L56.7798 140.445Z" fill="#33345E"/>
<path fill-rule="evenodd" clip-rule="evenodd" d="M54.2868 140.445H57.7202C57.4718 138.058 57.0726 134.305 57.0637 134.234C56.9209 132.748 56.5838 131.286 56.0612 129.887C55.7596 129.506 55.2184 129.443 54.3401 129.887C53.4617 130.331 53.2932 130.774 53.4529 131.422C53.6126 132.069 54.1183 137.135 54.2868 140.445Z" fill="#B9232A"/>
<path fill-rule="evenodd" clip-rule="evenodd" d="M63.6735 133.968V140.436H67.098C66.9472 138.661 66.5569 134.225 66.5569 134.163C66.5293 132.986 66.2795 131.824 65.8205 130.739C65.6168 130.423 65.3512 130.151 65.0398 129.94C64.7283 129.735 64.378 129.596 64.0106 129.532C63.5582 129.47 63.3541 129.674 63.4606 130.215C63.5848 131.484 63.6469 132.744 63.6735 133.968Z" fill="#B9232A"/>
<path fill-rule="evenodd" clip-rule="evenodd" d="M58.1728 124.98L58.5188 126.24C58.7612 127.492 58.8889 128.763 58.9003 130.037C59.0777 131.67 60.0359 132.033 60.7722 131.812C61.5086 131.59 61.5885 130.827 61.757 130.108C62.1474 128.334 62.1651 126.196 63.1233 125.362L64.4541 125.672C67.0092 123.614 57.5163 122.736 58.1728 125.042V124.98Z" fill="#924637"/>
<path fill-rule="evenodd" clip-rule="evenodd" d="M49.7267 124.794C47.6996 123.445 46.2428 121.395 45.6368 119.036C43.7737 113.554 43.3833 108.745 44.7496 104.744C46.4264 100.157 50.0106 97.4067 55.6886 96.6792C59.1772 96.3528 62.6694 97.2635 65.5542 99.2521C68.3685 101.397 70.5636 104.25 71.9154 107.521C72.5009 109.508 72.8824 111.389 72.4565 112.844L72.3412 114.467C72.4274 115.908 72.7574 117.324 73.3171 118.655C73.6443 119.556 73.6941 120.535 73.4601 121.465C73.2261 122.394 72.719 123.233 72.0041 123.872L70.1676 125.158C67.506 126.888 64.8445 128.13 62.3248 128.192C57.0017 127.855 52.752 126.755 49.7622 124.741L49.7267 124.794Z" fill="#924637"/>
<path fill-rule="evenodd" clip-rule="evenodd" d="M52.7431 104.975C52.4829 105.197 52.1777 105.36 51.8485 105.454C51.5193 105.547 51.1738 105.568 50.8357 105.516C50.8071 105.868 50.6642 106.201 50.4286 106.463C50.1931 106.726 49.878 106.904 49.5315 106.971C49.8243 108.053 49.3541 108.746 47.8991 109.012C47.9599 109.315 47.9095 109.63 47.7571 109.899C47.6086 110.171 47.3656 110.379 47.074 110.484C47.1697 110.63 47.2361 110.793 47.2692 110.963C47.3045 111.136 47.3045 111.314 47.2692 111.487C47.2317 111.658 47.1587 111.819 47.0547 111.959C46.9507 112.1 46.8182 112.217 46.6659 112.303C47.8458 113.652 47.5531 114.601 45.8408 115.178C44.9979 116.801 43.818 117.307 42.292 116.579C40.4555 116.97 39.3643 116.393 38.8231 115.08C37.4568 115 36.5608 114.361 36.7648 112.667C35.7091 112.356 35.23 111.647 35.5316 110.342C34.3162 110.076 34.0589 109.251 34.4493 108.089C32.6749 107.512 32.9144 105.569 34.4049 104.771C33.0475 103.884 33.1628 102.908 34.2363 101.834C34.0793 101.679 33.9559 101.493 33.8739 101.288C33.7919 101.084 33.753 100.864 33.7596 100.643C33.7663 100.423 33.8184 100.206 33.9126 100.006C34.0068 99.8066 34.1412 99.6286 34.3073 99.4832C34.255 99.1898 34.255 98.8895 34.3073 98.596C34.3849 98.2931 34.5238 98.0093 34.7154 97.7621C33.083 96.2184 34.0678 94.5948 36.1083 94.7368C35.647 92.2438 36.7648 91.4808 38.5037 91.4098C38.8231 91.0696 39.2322 90.8267 39.6837 90.7089C40.136 90.5802 40.6153 90.5802 41.0677 90.7089C41.4492 89.4491 42.3807 88.9345 43.8801 89.1741C43.7648 87.3997 44.2971 86.3528 45.3883 85.8826C46.0829 85.6334 46.8301 85.5677 47.5576 85.6921C48.285 85.8164 48.968 86.1265 49.5404 86.5924C50.7558 85.2882 52.2907 84.8889 54.4199 86.2375C54.6245 85.9968 54.9015 85.8287 55.2095 85.7584C55.5047 85.6889 55.8141 85.7106 56.0967 85.8205C56.3224 85.4135 56.663 85.082 57.076 84.8674C57.4889 84.6529 57.9559 84.5647 58.4187 84.6139C58.8815 84.6631 59.3195 84.8475 59.6781 85.1442C60.0367 85.4408 60.3 85.8365 60.4351 86.2818C61.7836 85.7761 62.8216 85.9358 63.3894 87.169C64.8621 86.8851 66.051 87.0981 66.3615 88.4998C66.8163 88.4089 67.2886 88.4845 67.6923 88.7127C68.0987 88.9381 68.4127 89.2993 68.5795 89.733C69.6264 89.733 70.5668 89.8838 70.7442 91.1082C70.7086 91.6137 70.56 92.1049 70.3095 92.5454C71.3475 92.8382 71.9419 93.4326 71.4806 94.6037C73.113 94.8876 73.5832 95.4376 72.4742 96.3781C72.78 96.6271 72.9788 96.9837 73.0299 97.3747C73.0811 97.7657 72.9806 98.1614 72.7493 98.4807C73.0671 98.6884 73.3001 99.0032 73.4058 99.3679C73.5298 99.7119 73.5298 100.088 73.4058 100.433C73.6379 100.64 73.7888 100.923 73.8316 101.231C73.867 101.541 73.795 101.854 73.6276 102.118C75.5883 103.848 75.5972 105.392 73.6808 106.767C74.3285 108.098 73.5832 108.666 72.7936 108.639C72.004 108.612 70.6555 107.61 69.928 106.084C68.4413 105.556 67.0508 104.789 65.8114 103.813C64.9939 103.944 64.1563 103.777 63.4515 103.343C62.9504 103.465 62.4221 103.405 61.961 103.174C61.433 103.451 60.8369 103.571 60.2429 103.521C59.6488 103.47 59.0814 103.252 58.6075 102.89C58.3388 103.282 57.9493 103.575 57.4985 103.724C57.0502 103.879 56.5627 103.879 56.1144 103.724C55.5733 104.496 54.6506 105.081 52.7964 105.081L52.7431 104.975Z" fill="#3E2523"/>
<path fill-rule="evenodd" clip-rule="evenodd" d="M40.8106 95.6678C40.6893 95.7901 40.5982 95.9389 40.5444 96.1025C40.5048 96.2688 40.5048 96.442 40.5444 96.6082C39.5152 96.1728 38.3718 96.0856 37.2884 96.3598C36.3569 96.759 36.1617 97.5575 37.0578 99.0214C37.945 100.184 38.8321 100.405 39.6484 100.086C40.09 99.7519 40.4318 99.3032 40.6367 98.7887C40.8415 98.2742 40.9017 97.7134 40.8106 97.1671C41.2487 97.3447 41.7387 97.3447 42.1769 97.1671C42.585 96.8655 42.6027 96.3598 42.1769 95.5791C42.6913 95.681 43.2224 95.6628 43.7287 95.5259C44.235 95.3889 44.7028 95.1369 45.0957 94.7895C45.8764 93.9023 45.2732 93.1659 44.0577 92.4739C43.7357 92.2993 43.3648 92.2369 43.0034 92.2963C42.642 92.3557 42.3106 92.5337 42.0615 92.8022C41.7823 93.1855 41.6232 93.643 41.6042 94.1168C41.5853 94.5906 41.7074 95.0594 41.9551 95.4637C41.7534 95.4195 41.5446 95.4195 41.3429 95.4637C41.137 95.5008 40.9408 95.5793 40.7662 95.6944L40.8106 95.6678Z" fill="#9C212A"/>
<path fill-rule="evenodd" clip-rule="evenodd" d="M52.2908 108.869C53.9143 107.095 56.2477 106.616 58.9979 106.953C59.5746 107.024 59.5391 107.246 59.3351 107.636L58.9979 108.213C58.6786 108.754 58.1108 108.754 57.4631 108.754C55.8212 108.72 54.1937 109.066 52.7078 109.765C51.6165 110.316 51.9182 109.224 52.2908 108.878V108.869Z" fill="#3E2523"/>
<path fill-rule="evenodd" clip-rule="evenodd" d="M65.776 118.362C65.7457 118.625 65.6479 118.876 65.4921 119.089C65.3385 119.306 65.1303 119.477 64.8888 119.586C64.1503 119.932 63.3108 119.995 62.5289 119.764C61.7659 119.56 61.1005 119.081 61.278 118.185C61.5619 119.852 64.8356 119.977 65.776 118.362Z" fill="#541916"/>
<path fill-rule="evenodd" clip-rule="evenodd" d="M71.2056 109.783C70.831 108.814 70.1203 108.012 69.2033 107.523C68.2863 107.035 67.2241 106.892 66.2107 107.122C65.918 107.166 65.6341 107.308 65.6607 107.645C65.6805 107.891 65.7596 108.128 65.8913 108.337C65.9651 108.492 66.0863 108.619 66.2373 108.701C66.3883 108.776 66.5575 108.807 66.7253 108.79C68.6416 108.79 70.0434 109.278 70.8862 110.36C71.1346 110.679 71.4629 110.298 71.2056 109.783Z" fill="#3E2523"/>
<path d="M64.4451 122.736C64.2499 123.899 62.8127 124.741 61.5351 124.741C60.9098 124.735 60.3009 124.541 59.788 124.183C59.2751 123.825 58.8822 123.321 58.6606 122.736C59.6378 123.027 60.649 123.188 61.6682 123.215C62.6101 123.171 63.5429 123.01 64.4451 122.736Z" fill="white"/>
<path d="M113.223 113.678C113.028 114.84 111.6 115.674 110.322 115.674C109.697 115.672 109.087 115.481 108.574 115.124C108.06 114.767 107.667 114.263 107.448 113.678C108.424 113.971 109.436 114.13 110.455 114.148C111.394 114.112 112.325 113.954 113.223 113.678Z" fill="white"/>
<path fill-rule="evenodd" clip-rule="evenodd" d="M41.4761 97.1144C41.3687 97.1131 41.2629 97.0889 41.1656 97.0434C41.0718 96.9974 40.9876 96.9342 40.9172 96.8571C40.8532 96.7704 40.8023 96.6748 40.7663 96.5732C40.744 96.4709 40.744 96.365 40.7663 96.2627C40.7613 96.1879 40.7722 96.1128 40.7982 96.0425C40.8242 95.9722 40.8647 95.9081 40.9172 95.8546C40.9658 95.7975 41.0255 95.7508 41.0925 95.7173C41.1596 95.6838 41.2327 95.6641 41.3075 95.6594C41.4303 95.633 41.5573 95.633 41.6802 95.6594C41.8003 95.6869 41.9126 95.7415 42.0084 95.8191C42.1086 95.8945 42.1905 95.9916 42.248 96.103C42.3031 96.2139 42.3363 96.3344 42.3455 96.4579C42.3633 96.9813 41.9286 97.1765 41.4761 97.1144ZM42.1237 95.1271C42.2135 94.8777 42.3422 94.6441 42.5052 94.4351C42.2579 94.5967 42.0684 94.8329 41.9641 95.1093C41.7712 94.7128 41.715 94.2636 41.8044 93.8318C41.892 93.3987 42.1233 93.0079 42.4609 92.7228C42.6315 92.6062 42.8251 92.5276 43.0287 92.4921C43.2269 92.4436 43.4338 92.4436 43.632 92.4921C43.9526 92.5611 44.2549 92.6972 44.5192 92.8914C44.9184 93.1753 45.4064 93.6543 45.2467 94.1867C45.0337 94.9585 43.6142 95.4199 42.6916 95.4642C42.3544 95.4642 42.3455 95.4642 42.6206 95.1981C42.8971 94.9804 43.1943 94.7902 43.5078 94.6303C43.0867 94.735 42.6893 94.9187 42.3367 95.1714C42.177 95.2956 42.0173 95.2956 42.0794 95.0739L42.1237 95.1271ZM40.1897 96.7595C39.7487 96.8053 39.3239 96.9509 38.9476 97.1854C39.4583 97.0245 39.9915 96.9466 40.5268 96.9547C40.5268 96.9547 40.5268 96.9547 40.5268 97.0257C40.4128 97.435 40.1994 97.8098 39.9058 98.1169C40.0662 98.0455 40.211 97.9429 40.3316 97.8153C40.4573 97.6897 40.5542 97.5384 40.6155 97.3717C40.7131 97.1321 40.7397 97.3717 40.722 97.4693C40.704 97.8944 40.5982 98.3112 40.4115 98.6936C40.2296 99.0796 39.9663 99.4216 39.6396 99.6961C38.4863 100.583 36.978 98.9154 36.6587 97.9217C36.5692 97.6299 36.5849 97.316 36.703 97.0345C36.9426 96.4313 38.0515 96.3603 38.6016 96.3958C39.1243 96.4341 39.6416 96.5262 40.1453 96.6708C40.305 96.6708 40.4558 96.7773 40.1453 96.7861L40.1897 96.7595ZM41.7511 95.2424C41.5765 95.1981 41.3935 95.1981 41.2188 95.2424C41.0434 95.2778 40.8789 95.3541 40.7386 95.4651C40.5983 95.5761 40.4862 95.7186 40.4115 95.8812C40.3385 96.0455 40.308 96.2255 40.3228 96.4046C39.196 95.961 36.632 95.5174 36.2328 97.1499C36.1738 97.5323 36.2084 97.9234 36.3336 98.2896C36.4587 98.6557 36.6707 98.9862 36.9514 99.2525C39.0008 101.675 40.9083 100.246 41.0148 97.3628C42.3722 97.8419 43.1263 96.9015 42.4609 95.7836C43.1787 95.8814 43.9091 95.7477 44.5458 95.4021C45.3354 95.0384 46.0451 94.5149 45.5572 93.5656C45.3821 93.1755 45.1103 92.8365 44.7676 92.5808C44.4232 92.3262 44.0206 92.1615 43.5965 92.1018C43.3604 92.0442 43.1139 92.0442 42.8779 92.1018C42.6442 92.1557 42.4258 92.2619 42.2391 92.4123L42.1237 92.5187C41.4495 93.1575 41.3164 94.0447 41.7511 95.2424Z" fill="#6E141D"/>
<path fill-rule="evenodd" clip-rule="evenodd" d="M47.3758 121.654C47.7231 120.156 47.7472 118.601 47.4468 117.094C47.1476 115.733 46.4422 114.496 45.424 113.545C44.9966 113.139 44.4527 112.877 43.8687 112.795C43.2847 112.714 42.6899 112.818 42.168 113.092C41.8957 113.305 41.6693 113.571 41.5026 113.873C41.336 114.174 41.2333 114.506 41.2009 114.849C41.0429 115.993 41.1993 117.158 41.6534 118.22C41.8127 118.712 42.0428 119.179 42.3365 119.604C42.9171 120.376 43.7002 120.972 44.5989 121.326C45.0322 121.495 45.4854 121.608 45.9474 121.663C46.0805 121.654 47.3403 121.787 47.3758 121.654Z" fill="#924637"/>
<path fill-rule="evenodd" clip-rule="evenodd" d="M45.5926 116.676C45.3571 116.609 45.1101 116.593 44.868 116.629C44.6259 116.665 44.3942 116.752 44.1885 116.885C43.9828 117.018 43.8077 117.193 43.675 117.398C43.5423 117.604 43.455 117.836 43.4189 118.078C43.5542 117.711 43.8068 117.399 44.1376 117.191C44.4753 116.977 44.8755 116.883 45.2732 116.925C45.4293 116.935 45.5783 116.994 45.699 117.093C45.8213 117.186 45.9089 117.317 45.9474 117.466C46.134 117.935 46.2824 118.419 46.391 118.912C46.116 116.055 44.9715 114.325 42.4253 114.476C43.0931 114.562 43.73 114.809 44.2816 115.196C44.8331 115.582 45.2829 116.096 45.5926 116.694V116.676Z" fill="#711C16"/>
<path fill-rule="evenodd" clip-rule="evenodd" d="M59.4949 116.872C54.7573 118.531 52.2997 117.2 51.6787 113.447C52.4594 112.055 53.7902 111.602 55.4759 111.673C58.3238 112.134 59.1932 114.281 59.5126 116.845L59.4949 116.872Z" fill="#FFEBEF"/>
<path fill-rule="evenodd" clip-rule="evenodd" d="M66.0865 114.556C65.9624 115.228 65.9624 115.916 66.0865 116.588C68.6061 116.996 70.4692 116.038 70.5224 112.782C68.7924 110.794 66.6277 112.24 66.0865 114.556Z" fill="#FFEBEF"/>
<path fill-rule="evenodd" clip-rule="evenodd" d="M57.667 112.267C58.7937 113.216 59.4414 114.698 59.4414 116.872C59.2029 115.644 58.7202 114.476 58.0219 113.438C57.7493 113.089 57.4192 112.789 57.046 112.551C55.2716 111.433 53.4972 111.886 52.0245 113.181C51.7317 113.438 51.5543 113.518 51.1905 113.279C50.9413 113.131 50.7143 112.949 50.5163 112.737C50.0993 112.303 50.5695 112.409 50.8534 112.462C51.0436 112.498 51.2366 112.516 51.4301 112.516C51.3001 112.411 51.2068 112.268 51.1639 112.107C51.1154 111.951 51.1154 111.784 51.1639 111.628C51.2265 111.752 51.3142 111.86 51.4212 111.948C51.5318 112.034 51.6585 112.097 51.7938 112.134C52.6424 111.521 53.6659 111.198 54.7126 111.212C55.7593 111.227 56.7735 111.578 57.6049 112.214L57.667 112.267Z" fill="#5B2617"/>
<path fill-rule="evenodd" clip-rule="evenodd" d="M66.0954 116.587C65.8203 114.556 66.8938 111.522 69.4401 112.293C69.7368 112.38 70.0059 112.542 70.2208 112.764C70.2686 112.825 70.3333 112.872 70.4071 112.897C70.483 112.915 70.5619 112.915 70.6378 112.897C70.8944 112.859 71.1346 112.748 71.3298 112.577C71.5161 112.4 71.5427 112.231 71.2322 112.267C70.981 112.291 70.7282 112.242 70.5047 112.125C70.6471 112.083 70.7718 111.996 70.8596 111.877C70.9466 111.758 70.9933 111.615 70.9926 111.468C70.849 111.571 70.686 111.644 70.5136 111.681C70.3439 111.717 70.1687 111.717 69.999 111.681C69.403 111.414 68.7343 111.354 68.1004 111.513C66.2196 112.081 65.563 114.964 66.0954 116.587Z" fill="#5B2617"/>
<path fill-rule="evenodd" clip-rule="evenodd" d="M55.2009 112.914C55.4134 112.912 55.6234 112.96 55.8131 113.056C56.0009 113.151 56.1647 113.288 56.2921 113.455C56.2168 113.434 56.1368 113.434 56.0615 113.455C55.9877 113.454 55.9144 113.468 55.8459 113.495C55.7774 113.523 55.715 113.563 55.6622 113.615C55.6091 113.667 55.5669 113.729 55.5381 113.798C55.5093 113.866 55.4945 113.94 55.4945 114.014C55.4945 114.089 55.5093 114.162 55.5381 114.231C55.5669 114.299 55.6091 114.361 55.6622 114.414C55.715 114.465 55.7774 114.506 55.8459 114.533C55.9144 114.561 55.9877 114.574 56.0615 114.573C56.1686 114.579 56.2755 114.558 56.372 114.511C56.4634 114.454 56.5419 114.378 56.6027 114.289C56.6039 114.561 56.5235 114.827 56.372 115.052C56.219 115.278 56.003 115.454 55.751 115.558C55.5019 115.664 55.2266 115.692 54.9614 115.638C54.6945 115.586 54.4493 115.456 54.2569 115.264C54.0645 115.072 53.9337 114.827 53.8813 114.56C53.8289 114.293 53.8573 114.017 53.9628 113.766C54.0682 113.516 54.246 113.303 54.4734 113.154C54.6962 113.003 54.9588 112.923 55.2275 112.923L55.2009 112.914Z" fill="#311713"/>
<path fill-rule="evenodd" clip-rule="evenodd" d="M68.5707 113.127C68.7322 113.17 68.8831 113.246 69.0143 113.349C69.143 113.451 69.2462 113.582 69.316 113.731C69.2608 113.698 69.201 113.674 69.1385 113.66C69.0816 113.646 69.0225 113.643 68.9647 113.653C68.9068 113.662 68.8513 113.682 68.8014 113.713C68.7006 113.775 68.6276 113.873 68.5974 113.988C68.5716 114.107 68.5939 114.231 68.6595 114.334C68.7288 114.434 68.8334 114.504 68.9522 114.529C69.0328 114.546 69.1163 114.543 69.1953 114.52C69.2742 114.496 69.3462 114.454 69.4047 114.396C69.3519 114.606 69.2412 114.796 69.0853 114.946C68.9303 115.091 68.7358 115.187 68.5264 115.221C68.3142 115.264 68.0937 115.24 67.8965 115.15C67.7013 115.062 67.5375 114.916 67.4263 114.733C67.315 114.558 67.2559 114.355 67.2559 114.148C67.2559 113.94 67.315 113.737 67.4263 113.562C67.5491 113.387 67.7224 113.254 67.9231 113.181C68.1232 113.101 68.3424 113.083 68.553 113.127H68.5707Z" fill="#311713"/>
<path fill-rule="evenodd" clip-rule="evenodd" d="M62.1029 58.8935C57.8977 61.6527 55.2006 60.9429 53.6924 57.4563C54.1182 55.9126 55.3159 55.1496 56.9484 54.7947C59.8317 54.564 61.1891 56.4271 62.1118 58.8492L62.1029 58.8935Z" fill="#FFEBEF"/>
<path fill-rule="evenodd" clip-rule="evenodd" d="M57.8357 56.6046C58.0246 56.6018 58.2115 56.6438 58.3811 56.7271C58.5507 56.8103 58.6982 56.9325 58.8116 57.0837C58.7442 57.0703 58.6749 57.0703 58.6075 57.0837C58.5376 57.0664 58.4645 57.0664 58.3946 57.0837C58.3264 57.1013 58.2648 57.1383 58.2172 57.1902C58.1615 57.2343 58.1186 57.2925 58.093 57.3587C58.0635 57.4227 58.0482 57.4923 58.0482 57.5628C58.0482 57.6332 58.0635 57.7029 58.093 57.7668C58.1209 57.8318 58.1634 57.8895 58.2172 57.9354C58.2673 57.9841 58.328 58.0206 58.3946 58.0419C58.465 58.0551 58.5372 58.0551 58.6075 58.0419C58.6972 58.0436 58.7858 58.0222 58.8648 57.9798C58.9471 57.9315 59.017 57.8647 59.0689 57.7846V57.8289C59.0657 58.0719 58.9919 58.3086 58.8564 58.5103C58.7209 58.712 58.5296 58.8698 58.3059 58.9645C58.0807 59.0546 57.8347 59.0792 57.5961 59.0355C57.3592 58.9831 57.1413 58.8665 56.9662 58.6984C56.7974 58.5252 56.6832 58.3061 56.638 58.0685C56.5868 57.831 56.6084 57.5837 56.7001 57.3587C56.7969 57.137 56.9536 56.9465 57.1525 56.8087C57.3558 56.6763 57.5931 56.6054 57.8357 56.6046Z" fill="#311713"/>
<path fill-rule="evenodd" clip-rule="evenodd" d="M68.8278 57.2348C68.4664 57.8173 68.2139 58.4606 68.0825 59.1334C70.2561 60.4198 72.3765 60.2158 73.592 57.1905C72.7048 54.7152 70.1497 55.3007 68.81 57.2348H68.8278Z" fill="#FFEBEF"/>
<path fill-rule="evenodd" clip-rule="evenodd" d="M59.264 54.8576C60.5948 55.4964 61.5618 56.7828 62.1208 58.8854C61.6016 57.7546 60.8627 56.7383 59.9472 55.8956C59.598 55.6354 59.2083 55.4345 58.7938 55.3012C56.7976 54.6447 55.1741 55.523 54.0651 57.0756C53.8433 57.4038 53.6925 57.5103 53.2844 57.3861C53.0099 57.2983 52.7453 57.1823 52.4948 57.0401C51.9979 56.7118 52.4948 56.703 52.7698 56.6852C52.9524 56.6766 53.1337 56.6499 53.311 56.6054C53.1592 56.5345 53.0347 56.4161 52.9561 56.2682C52.8779 56.1215 52.8469 55.9542 52.8674 55.7892C52.9583 55.8977 53.0739 55.9828 53.2045 56.0376C53.3289 56.0978 53.4656 56.1282 53.6037 56.1263C54.2873 55.3371 55.2061 54.7879 56.2249 54.5595C57.2437 54.3312 58.309 54.4357 59.264 54.8576Z" fill="#5B2617"/>
<path fill-rule="evenodd" clip-rule="evenodd" d="M68.0828 59.1335C68.5707 57.1461 70.6645 54.6975 72.7671 56.3388C73.0063 56.5279 73.1926 56.7754 73.3083 57.0574C73.3359 57.1303 73.3782 57.1968 73.4325 57.2526C73.4936 57.3051 73.5668 57.3417 73.6455 57.3591C73.8969 57.4121 74.1581 57.3937 74.3996 57.3058C74.6391 57.2171 74.719 57.0663 74.3996 56.9776C74.1569 56.9145 73.938 56.7819 73.7697 56.5961C73.9193 56.6065 74.0684 56.5692 74.1955 56.4896C74.3215 56.4102 74.4181 56.2918 74.4705 56.1525C74.2979 56.1879 74.1198 56.1879 73.9471 56.1525C73.7723 56.1232 73.6059 56.0567 73.4591 55.9573C73.002 55.4946 72.4015 55.2006 71.7557 55.1234C69.8039 54.9459 68.1537 57.4034 68.0562 59.1068L68.0828 59.1335Z" fill="#5B2617"/>
<path fill-rule="evenodd" clip-rule="evenodd" d="M71.4005 57.0216C71.5197 57.0714 71.6282 57.1437 71.7199 57.2346C71.8092 57.3311 71.8758 57.4463 71.9151 57.5717C71.8775 57.5372 71.8358 57.5074 71.7909 57.483C71.7439 57.4749 71.6959 57.4749 71.649 57.483C71.5996 57.4694 71.5475 57.4694 71.4981 57.483C71.4491 57.5008 71.4039 57.528 71.3651 57.5628C71.3304 57.5985 71.3033 57.6407 71.2852 57.687C71.2768 57.737 71.2768 57.7879 71.2852 57.8379C71.2905 57.8876 71.3056 57.9359 71.3296 57.9798C71.3486 58.0253 71.3792 58.0651 71.4183 58.0952C71.4565 58.1288 71.5021 58.1531 71.5514 58.1661C71.6123 58.1832 71.6767 58.1832 71.7377 58.1661C71.8007 58.1589 71.8613 58.1377 71.9151 58.104C71.8511 58.2612 71.7433 58.3966 71.6046 58.4944C71.4628 58.5898 71.2964 58.6421 71.1255 58.6452C70.9534 58.6491 70.7839 58.6029 70.6376 58.5121C70.4991 58.4156 70.3888 58.2839 70.3182 58.1306C70.2483 57.9748 70.2297 57.8009 70.2649 57.6338C70.2917 57.5109 70.3444 57.395 70.4194 57.294C70.4944 57.1929 70.59 57.109 70.6999 57.0478C70.8098 56.9865 70.9315 56.9493 71.0569 56.9387C71.1823 56.9281 71.3085 56.9443 71.4272 56.9862L71.4005 57.0216Z" fill="#311713"/>
<path d="M115.867 129.532H49.5315C45.9236 129.532 42.4633 130.965 39.9112 133.515C37.3592 136.066 35.9243 139.525 35.922 143.133V144.907C35.922 147.363 35.1219 149.753 33.6428 151.714C32.1637 153.675 30.0861 155.101 27.7243 155.775C25.3653 156.447 23.2889 157.868 21.8085 159.824C20.3281 161.78 19.5241 164.164 19.5178 166.617V174.513C19.5175 176.4 19.8933 178.267 20.6232 180.007C21.3532 181.747 22.4227 183.324 23.7691 184.645C25.1156 185.967 26.712 187.007 28.465 187.705C30.2181 188.402 32.0926 188.743 33.979 188.708L134.311 186.854C137.62 186.792 140.804 185.577 143.311 183.418C145.819 181.258 147.493 178.29 148.045 175.027L149.544 166.155C149.812 164.585 149.733 162.975 149.314 161.438C148.894 159.901 148.144 158.475 147.116 157.258C146.087 156.041 144.806 155.064 143.36 154.394C141.915 153.724 140.34 153.378 138.747 153.38C135.843 153.378 133.058 152.222 131.005 150.168C128.953 148.113 127.799 145.327 127.799 142.423V141.438C127.792 138.278 126.532 135.25 124.295 133.018C122.058 130.786 119.027 129.532 115.867 129.532Z" fill="url(#paint2_linear_584_290)"/>
<path d="M124.428 71.7141C123.712 71.7141 123.012 71.5018 122.417 71.104C121.822 70.7063 121.358 70.141 121.084 69.4796C120.81 68.8181 120.738 68.0903 120.878 67.3882C121.018 66.686 121.362 66.041 121.869 65.5348C122.375 65.0286 123.02 64.6838 123.722 64.5442C124.424 64.4045 125.152 64.4762 125.813 64.7501C126.475 65.0241 127.04 65.4881 127.438 66.0833C127.836 66.6786 128.048 67.3784 128.048 68.0943C128.048 69.0544 127.666 69.9751 126.988 70.6539C126.309 71.3327 125.388 71.7141 124.428 71.7141ZM124.428 66.249C124.063 66.249 123.706 66.3572 123.403 66.56C123.099 66.7628 122.863 67.051 122.723 67.3882C122.584 67.7254 122.547 68.0964 122.618 68.4544C122.689 68.8123 122.865 69.1411 123.123 69.3992C123.381 69.6573 123.71 69.833 124.068 69.9042C124.426 69.9754 124.797 69.9389 125.134 69.7992C125.471 69.6596 125.76 69.423 125.962 69.1196C126.165 68.8161 126.273 68.4593 126.273 68.0943C126.273 67.852 126.226 67.612 126.133 67.3882C126.04 67.1643 125.904 66.9608 125.733 66.7895C125.562 66.6181 125.358 66.4822 125.134 66.3895C124.91 66.2967 124.67 66.249 124.428 66.249Z" fill="#43C5ED"/>
<path d="M142.767 118.291C141.524 118.291 140.31 117.923 139.277 117.233C138.244 116.542 137.439 115.561 136.963 114.414C136.488 113.266 136.364 112.003 136.606 110.784C136.848 109.566 137.447 108.447 138.325 107.568C139.204 106.69 140.323 106.092 141.541 105.849C142.76 105.607 144.023 105.731 145.17 106.207C146.318 106.682 147.299 107.487 147.989 108.52C148.68 109.553 149.048 110.768 149.048 112.01C149.046 113.675 148.383 115.271 147.206 116.449C146.028 117.626 144.432 118.289 142.767 118.291ZM142.767 107.911C141.956 107.911 141.164 108.151 140.489 108.602C139.815 109.052 139.29 109.692 138.98 110.441C138.67 111.19 138.588 112.014 138.747 112.809C138.905 113.605 139.295 114.335 139.868 114.908C140.442 115.481 141.172 115.872 141.967 116.03C142.762 116.188 143.586 116.107 144.335 115.797C145.084 115.486 145.724 114.961 146.175 114.287C146.625 113.613 146.865 112.82 146.865 112.01C146.865 110.923 146.434 109.88 145.665 109.112C144.896 108.343 143.854 107.911 142.767 107.911Z" fill="#35A6D8"/>
<path d="M127.312 95.5262C128.375 95.5262 129.237 94.6642 129.237 93.601C129.237 92.5377 128.375 91.6758 127.312 91.6758C126.248 91.6758 125.386 92.5377 125.386 93.601C125.386 94.6642 126.248 95.5262 127.312 95.5262Z" fill="#35A6D8"/>
<path d="M20.4054 108.089C19.3223 108.089 18.2636 107.767 17.3633 107.165C16.4629 106.564 15.7613 105.708 15.3472 104.707C14.9332 103.707 14.8253 102.605 15.0372 101.543C15.2492 100.481 15.7714 99.506 16.5378 98.7408C17.3043 97.9756 18.2805 97.4549 19.3429 97.2447C20.4053 97.0345 21.5062 97.1442 22.5063 97.5599C23.5064 97.9755 24.3607 98.6785 24.9611 99.5799C25.5615 100.481 25.8811 101.54 25.8793 102.623C25.877 104.074 25.2992 105.464 24.2729 106.488C23.2466 107.513 21.8556 108.089 20.4054 108.089ZM20.4054 98.9239C19.6736 98.9239 18.9584 99.1409 18.35 99.5474C17.7416 99.9539 17.2674 100.532 16.9874 101.208C16.7074 101.884 16.6341 102.628 16.7769 103.345C16.9196 104.063 17.272 104.722 17.7894 105.239C18.3068 105.757 18.966 106.109 19.6836 106.252C20.4013 106.395 21.1451 106.321 21.8211 106.041C22.4971 105.761 23.0749 105.287 23.4814 104.679C23.888 104.07 24.1049 103.355 24.1049 102.623C24.1049 102.138 24.0092 101.657 23.8233 101.208C23.6374 100.759 23.3649 100.351 23.0214 100.007C22.6778 99.6639 22.27 99.3914 21.8211 99.2055C21.3723 99.0196 20.8912 98.9239 20.4054 98.9239Z" fill="#8AFCFF"/>
<path d="M25.1338 68.4667C26.1137 68.4667 26.9081 67.6723 26.9081 66.6923C26.9081 65.7124 26.1137 64.918 25.1338 64.918C24.1538 64.918 23.3594 65.7124 23.3594 66.6923C23.3594 67.6723 24.1538 68.4667 25.1338 68.4667Z" fill="#8AFCFF"/>
<path d="M34.3783 85.0211C35.7257 85.0211 36.818 83.9288 36.818 82.5814C36.818 81.2339 35.7257 80.1416 34.3783 80.1416C33.0308 80.1416 31.9385 81.2339 31.9385 82.5814C31.9385 83.9288 33.0308 85.0211 34.3783 85.0211Z" fill="#8AFCFF"/>
<path d="M25.5773 139.593C27.3755 139.593 28.8333 138.135 28.8333 136.337C28.8333 134.539 27.3755 133.081 25.5773 133.081C23.779 133.081 22.3213 134.539 22.3213 136.337C22.3213 138.135 23.779 139.593 25.5773 139.593Z" fill="#36B6DD"/>
<path d="M137.142 141.065C138.082 141.065 138.845 140.302 138.845 139.362C138.845 138.421 138.082 137.658 137.142 137.658C136.201 137.658 135.438 138.421 135.438 139.362C135.438 140.302 136.201 141.065 137.142 141.065Z" fill="#388ACE"/>
<path d="M143.876 85.0215C144.772 85.0215 145.499 84.2946 145.499 83.398C145.499 82.5013 144.772 81.7744 143.876 81.7744C142.979 81.7744 142.252 82.5013 142.252 83.398C142.252 84.2946 142.979 85.0215 143.876 85.0215Z" fill="#35AAD8"/>
<path fill-rule="evenodd" clip-rule="evenodd" d="M40.3313 140.462C40.5087 131.865 51.084 132.105 55.5732 132.389C50.9155 133.143 42.4694 134.004 40.3313 140.462Z" fill="#FEFEFE"/>
<path fill-rule="evenodd" clip-rule="evenodd" d="M25.3022 162.855C23.864 164.172 22.924 165.946 22.6407 167.876C22.2325 164.203 23.3681 162.038 25.3732 160.592C29.1526 157.922 31.9384 159.217 35.4872 154.524C36.3652 153.348 37.1598 152.111 37.8648 150.824C37.5645 152.2 37.1153 153.538 36.5252 154.817C33.2692 161.604 28.9929 159.554 25.3022 162.855Z" fill="#FEFEFE"/>
<path fill-rule="evenodd" clip-rule="evenodd" d="M124.499 146.326C124.959 148.753 126.195 150.965 128.02 152.629C129.846 154.293 132.163 155.319 134.622 155.553C138.02 156.014 141.143 156.493 143.644 158.605C144.743 159.446 145.557 160.604 145.978 161.923C145.158 160.888 144.157 160.01 143.023 159.332C140.362 157.762 137.301 157.46 134.267 156.999C128.42 156.209 123.789 152.315 124.508 146.353L124.499 146.326Z" fill="#FEFEFE"/>
<defs>
<linearGradient id="paint0_linear_584_290" x1="35.7002" y1="24.1252" x2="128.314" y2="183.039" gradientUnits="userSpaceOnUse">
<stop stop-color="#00F0FF"/>
<stop offset="0.93" stop-color="#003F9D"/>
</linearGradient>
<linearGradient id="paint1_linear_584_290" x1="20.5793" y1="15114.8" x2="25015.9" y2="15114.8" gradientUnits="userSpaceOnUse">
<stop stop-color="#00F0FF"/>
<stop offset="0.93" stop-color="#003F9D"/>
</linearGradient>
<linearGradient id="paint2_linear_584_290" x1="84.611" y1="129.532" x2="84.611" y2="188.974" gradientUnits="userSpaceOnUse">
<stop stop-color="#75FE5A"/>
<stop offset="1" stop-color="#21B804"/>
</linearGradient>
</defs>
</svg>
