<svg width="179" height="168" viewBox="0 0 179 168" fill="none" xmlns="http://www.w3.org/2000/svg">
<g clip-path="url(#clip0_396_171)">
<path d="M90.9483 167.24C135.382 167.24 171.403 131.22 171.403 86.7858C171.403 42.3522 135.382 6.33154 90.9483 6.33154C46.5146 6.33154 10.494 42.3522 10.494 86.7858C10.494 131.22 46.5146 167.24 90.9483 167.24Z" fill="#FFF27A"/>
<path d="M90.9484 160.244C131.518 160.244 164.407 127.356 164.407 86.7859C164.407 46.216 131.518 13.3276 90.9484 13.3276C50.3785 13.3276 17.4901 46.216 17.4901 86.7859C17.4901 127.356 50.3785 160.244 90.9484 160.244Z" fill="url(#paint0_linear_396_171)"/>
<path d="M151.744 92.3387L42.2648 141.766C43.7048 143.048 45.1944 144.275 46.7335 145.447L153.913 97.0698C154.275 96.967 154.612 96.7872 154.899 96.5426C155.186 96.298 155.417 95.9943 155.576 95.6524C155.735 95.3105 155.819 94.9383 155.821 94.5611C155.823 94.184 155.744 93.8108 155.589 93.4671C155.434 93.1233 155.206 92.817 154.922 92.569C154.638 92.321 154.304 92.1372 153.942 92.0302C153.581 91.9231 153.2 91.8952 152.827 91.9485C152.454 92.0017 152.096 92.1348 151.779 92.3387H151.744ZM147.913 104.459L50.8436 148.298C52.5927 149.444 54.4204 150.537 56.2831 151.534L150.082 109.19C150.611 108.85 151.001 108.332 151.179 107.728C151.358 107.125 151.314 106.478 151.055 105.905C150.797 105.332 150.341 104.87 149.77 104.605C149.2 104.34 148.554 104.288 147.948 104.459H147.913ZM153.913 80.9177L35.19 134.577C36.3706 135.959 37.6037 137.306 38.8892 138.6L156.073 85.6488C156.43 85.5399 156.761 85.3559 157.041 85.1089C157.322 84.862 157.547 84.558 157.7 84.2171C157.854 83.8763 157.933 83.5066 157.932 83.1327C157.931 82.7589 157.85 82.3895 157.695 82.0494C157.54 81.7093 157.314 81.4063 157.032 81.1608C156.75 80.9152 156.419 80.7327 156.061 80.6256C155.702 80.5184 155.325 80.4891 154.955 80.5394C154.585 80.5898 154.229 80.7188 153.913 80.9177ZM154.297 49.6455L21.1718 109.75C21.7139 111.406 22.3144 113.032 22.9732 114.63L156.798 54.2192C156.029 52.6625 155.198 51.1409 154.324 49.6455H154.297ZM161.617 69.7591C161.327 69.1365 160.805 68.6523 160.163 68.4103C159.52 68.1684 158.808 68.1879 158.18 68.4648L29.3659 126.803C30.3278 128.281 31.3335 129.724 32.4004 131.175L160.34 73.2221C160.973 72.9342 161.466 72.4069 161.71 71.7559C161.955 71.1049 161.93 70.3836 161.643 69.7503L161.617 69.7591ZM158.53 58.0232L24.696 118.539C25.4481 120.113 26.2701 121.635 27.1271 123.139L160.41 62.8767C159.842 61.2152 159.23 59.6061 158.556 58.0145L158.53 58.0232Z" fill="#E58E0E"/>
<path d="M66.7246 123.935L61.1627 134.673L69.1907 137.612L84.4857 128.552L76.449 125.622L66.7246 123.935Z" fill="#196A7F"/>
<path d="M57.21 89.383C66.9082 77.1837 65.6927 60.0784 54.499 51.176C43.3054 42.2735 26.3575 44.9407 16.6593 57.1401C6.96103 69.3394 8.17659 86.4447 19.3702 95.3209C30.5639 104.197 47.503 101.582 57.21 89.383Z" fill="#9FE6FF"/>
<path d="M17.2364 49.6021C5.76296 64.0314 5.76297 94.3329 23.6116 104.792C31.6045 109.462 40.026 108.832 48.771 106.987C49.8672 106.756 51.0088 106.887 52.0242 107.36C53.0397 107.833 53.8743 108.623 54.4028 109.61L69.1732 137.595L84.5032 128.552L77.8308 115.575L72.8461 106.025C71.0971 102.693 67.9664 99.2738 68.7797 95.2249C69.7066 90.6775 74.0267 86.8384 75.6095 82.3959C77.1162 78.3134 77.6433 73.9342 77.1487 69.6107C75.9524 61.4532 71.6311 54.0805 65.098 49.0511C51.6744 38.3385 28.7099 35.1815 17.2364 49.6021ZM60.2008 88.0802C52.4614 97.8134 38.9766 99.9734 30.0916 92.8987C21.2067 85.824 20.2535 72.173 27.9841 62.4398C35.7147 52.7065 49.217 50.5465 58.1107 57.6212C67.0044 64.696 67.9401 78.312 60.2008 88.0452V88.0802Z" fill="#B526A8"/>
<path d="M68.2112 69.8727C67.1006 69.3829 65.9987 68.8582 64.8969 68.3423C65.6588 71.7651 65.6353 75.3162 64.828 78.7286C64.0207 82.1411 62.4506 85.3262 60.2358 88.0448C58.909 89.7114 57.3716 91.1989 55.6621 92.4698C58.0408 93.6941 60.4194 94.9622 62.8418 96.2389C65.0018 97.3845 67.2143 98.5039 69.3393 99.6582C68.7442 98.2824 68.5619 96.7633 68.8146 95.2857C69.7416 90.7296 74.0617 86.8992 75.6445 82.448C76.6231 79.7831 77.2121 76.9909 77.3935 74.1577C74.3328 72.6274 71.2632 71.2369 68.2112 69.8727Z" fill="#84107E"/>
<path d="M11.9719 52.8638C0.480968 67.3369 2.09006 87.6603 15.5312 98.3468C19.045 101.11 23.1295 103.056 27.4885 104.045C31.8476 105.034 36.3722 105.042 40.7344 104.066C41.8347 103.821 42.9849 103.946 44.0075 104.42C45.03 104.894 45.8681 105.692 46.3924 106.69L61.1628 134.674L76.4491 125.675L69.7854 112.636L64.8007 103.095C63.0517 99.7635 59.921 96.3354 60.7342 92.2865C61.6087 87.7478 65.9813 83.9087 67.5554 79.4662C69.0578 75.3705 69.5819 70.9803 69.0858 66.646C67.8972 58.5013 63.5923 51.1363 57.0788 46.1039C43.6377 35.4088 23.4454 38.4783 11.9719 52.8638ZM52.1991 85.1155C44.4685 94.84 30.9836 97 22.0899 89.934C13.1962 82.8681 12.243 69.2346 19.9649 59.4663C27.6868 49.6981 41.1804 47.5818 50.0741 54.6478C58.9678 61.7138 59.9035 75.3823 52.1641 85.1155H52.1991Z" fill="#EF78DE"/>
<path d="M49.0509 62.1685C38.2333 50.3278 42.1423 86.0075 42.1423 86.0075C42.1423 86.0075 58.3993 72.409 49.0509 62.1685Z" fill="white"/>
<path d="M82.868 126.042C82.5823 125.941 82.2902 125.859 81.9935 125.797C81.259 125.624 80.4897 125.669 79.781 125.929L79.5798 126.042H82.868Z" fill="#141515"/>
<path fill-rule="evenodd" clip-rule="evenodd" d="M97.7783 126.042C101.005 120.795 102.842 114.673 98.714 111.849C95.9068 109.934 92.3126 110.729 90.0389 112.889C87.7652 115.049 86.7683 118.644 85.9375 120.83C85.3095 122.459 84.4237 123.977 83.314 125.325C83.1251 125.526 82.9924 125.773 82.9292 126.042H97.7783Z" fill="#B0172C"/>
<path fill-rule="evenodd" clip-rule="evenodd" d="M85.0367 126.042L85.5701 125.308C86.8289 123.347 87.7594 121.193 88.3248 118.933C88.9719 116.659 89.8377 113.685 91.5517 111.735C91.0063 112.045 90.5011 112.421 90.0476 112.855C87.7389 115.032 86.7769 118.609 85.9462 120.795C85.3182 122.424 84.4324 123.942 83.3227 125.29C83.1337 125.491 83.0011 125.739 82.9379 126.007L85.0367 126.042Z" fill="#FF8797"/>
<path fill-rule="evenodd" clip-rule="evenodd" d="M91.4643 126.042H94.665L94.7437 123.06C92.0485 121.76 89.202 120.799 86.2698 120.201L85.5702 121.95C87.9491 122.591 90.0321 124.037 91.4643 126.042Z" fill="#8C0013"/>
<path fill-rule="evenodd" clip-rule="evenodd" d="M92.6974 121.556C93.0231 122.953 93.2366 124.375 93.3357 125.806C93.3265 125.84 93.3265 125.877 93.3357 125.911C93.3314 125.943 93.3314 125.975 93.3357 126.007H97.7083C100.926 120.76 102.763 114.639 98.6352 111.814C95.8281 109.899 92.2339 110.695 89.9602 112.855C89.565 113.229 89.2049 113.639 88.8845 114.079C91.1058 115.854 92.1464 119.09 92.6974 121.556Z" fill="#8A0214"/>
<path d="M83.4976 126.042C83.5599 125.9 83.6424 125.767 83.7425 125.648C84.0311 125.299 84.2934 124.94 84.547 124.582C85.5755 124.924 86.5479 125.416 87.4329 126.042H89.0769C87.9334 124.997 86.5883 124.196 85.1242 123.69L85.3078 123.384C85.7398 122.624 86.1111 121.832 86.4184 121.014C86.5321 120.725 86.6895 120.288 86.8469 119.824C87.599 117.725 88.596 114.997 90.345 113.257C91.4696 112.19 92.9074 111.512 94.4464 111.324C95.8474 111.146 97.2653 111.484 98.4341 112.277C99.097 112.719 99.6383 113.321 100.008 114.026C100.883 115.67 100.725 117.839 100.008 120.148C99.3187 122.217 98.3727 124.191 97.1923 126.025H98.4079C99.4939 124.275 100.374 122.406 101.031 120.454C101.827 117.9 101.967 115.46 100.97 113.545C100.525 112.679 99.8659 111.942 99.055 111.403C97.6825 110.468 96.0145 110.07 94.3677 110.283C92.6263 110.508 91.0022 111.283 89.7328 112.496C87.7215 114.402 86.707 117.262 85.9375 119.492L85.4565 120.681C85.164 121.445 84.8131 122.184 84.4071 122.894C83.9797 123.643 83.4882 124.354 82.9379 125.019C82.6734 125.313 82.5003 125.677 82.4395 126.068L83.4976 126.042Z" fill="#141515"/>
<path fill-rule="evenodd" clip-rule="evenodd" d="M95.2071 126.042H130.135C129.737 120.937 128.739 115.898 127.161 111.027C122.841 98.259 93.1258 101.6 94.6037 113.956C95.0746 117.967 95.2762 122.004 95.2071 126.042Z" fill="#1B9DD4"/>
<path fill-rule="evenodd" clip-rule="evenodd" d="M95.2072 126.042H96.6589C96.5802 123.602 96.3528 121.189 96.1342 118.731C95.9836 116.862 95.7325 115.003 95.3821 113.161C95.2334 112.356 95.0673 111.56 94.9536 110.756C94.5875 111.781 94.4677 112.877 94.6038 113.957C95.0747 117.967 95.2763 122.005 95.2072 126.042Z" fill="#7FD9FF"/>
<path fill-rule="evenodd" clip-rule="evenodd" d="M94.9011 116.86C95.7761 117.543 96.5402 118.357 97.1661 119.273C98.5493 121.763 100.281 124.042 102.308 126.042H102.413L106.523 121.993L110.354 125.281C114.42 122.605 122.894 113.222 124.888 108.666C124.944 108.529 125.028 108.405 125.135 108.302C125.242 108.2 125.369 108.121 125.509 108.071C117.936 98.9062 93.2571 102.658 94.6038 113.948C94.7175 114.927 94.8137 115.889 94.9011 116.86Z" fill="#037CB0"/>
<path d="M94.6913 126.042H95.7232C95.7927 121.984 95.5911 117.926 95.1198 113.895C94.7612 110.826 96.484 108.333 99.2824 106.558C101.492 105.246 103.927 104.356 106.462 103.935C109.216 103.425 112.032 103.334 114.814 103.664C120.288 104.319 125.159 106.733 126.672 111.219C128.238 116.041 129.227 121.031 129.619 126.086H130.66C130.268 120.914 129.267 115.806 127.678 110.869C126.016 105.946 120.804 103.322 114.962 102.614C112.076 102.274 109.154 102.368 106.296 102.894C103.63 103.347 101.073 104.297 98.7577 105.692C95.627 107.669 93.6943 110.493 94.1228 114.018C94.5818 118.009 94.7717 122.026 94.6913 126.042Z" fill="#141515"/>
<path fill-rule="evenodd" clip-rule="evenodd" d="M131.796 126.042C131.726 122.964 131.691 119.921 131.7 116.842L113.169 121.906C113.003 123.279 112.863 124.66 112.723 126.042H131.796Z" fill="#B0172C"/>
<path fill-rule="evenodd" clip-rule="evenodd" d="M124.923 126.042C124.87 124.608 124.757 123.182 124.634 121.783C120.818 122.853 116.879 123.424 112.916 123.48L112.688 126.042H124.923Z" fill="#8A0214"/>
<path fill-rule="evenodd" clip-rule="evenodd" d="M113.965 126.042C114.105 124.547 114.263 123.051 114.429 121.564L113.169 121.906C113.003 123.278 112.863 124.66 112.723 126.042H113.965Z" fill="#FF8797"/>
<path d="M113.257 126.042C113.379 124.792 113.502 123.55 113.65 122.317L131.141 117.516C131.141 120.361 131.176 123.203 131.245 126.042H132.269C132.21 122.976 132.178 119.915 132.172 116.86C132.181 116.811 132.181 116.761 132.172 116.711C132.156 116.645 132.127 116.583 132.086 116.529C132.045 116.474 131.994 116.429 131.935 116.394C131.877 116.36 131.812 116.338 131.744 116.329C131.677 116.321 131.608 116.326 131.543 116.344L113.056 121.399C112.95 121.421 112.853 121.476 112.779 121.556C112.706 121.636 112.659 121.737 112.645 121.845C112.479 123.235 112.33 124.634 112.19 126.042H113.257Z" fill="#141515"/>
<path fill-rule="evenodd" clip-rule="evenodd" d="M106.165 117.848C110.972 114.599 116.021 111.722 121.267 109.243C118.453 114.143 114.724 118.456 110.284 121.95L106.165 117.848Z" fill="#FEFEFE"/>
<path fill-rule="evenodd" clip-rule="evenodd" d="M117.516 114.009C116.309 114.814 115.032 115.452 113.773 116.169C111.773 117.163 109.931 118.448 108.307 119.982L106.165 117.848C110.972 114.599 116.021 111.722 121.267 109.243C120.504 110.616 119.654 111.94 118.723 113.205C118.32 113.467 117.927 113.747 117.516 114.009Z" fill="#A8C9DD"/>
<path d="M112.916 113.03C115.478 111.587 118.163 110.17 121.031 108.78L122.5 108.054L121.713 109.497C120.405 111.854 118.851 114.067 117.078 116.099C115.108 118.369 112.943 120.461 110.607 122.352L110.249 122.649L105.36 117.778L105.876 117.428C107.992 115.942 110.362 114.473 112.916 113.056V113.03ZM110.292 121.259C112.457 119.489 114.47 117.541 116.309 115.435C117.658 113.884 118.878 112.226 119.956 110.476C117.673 111.63 115.478 112.776 113.432 113.974C111.114 115.286 108.946 116.598 106.987 117.971L110.292 121.259Z" fill="#141515"/>
<path fill-rule="evenodd" clip-rule="evenodd" d="M96.7375 113.266C100.264 114.26 103.523 116.028 106.278 118.443C104.856 119.905 103.524 121.452 102.291 123.078C99.7632 120.239 97.87 116.894 96.7375 113.266Z" fill="#FEFEFE"/>
<path fill-rule="evenodd" clip-rule="evenodd" d="M98.7576 117.463L98.2767 117.148C97.6461 115.904 97.1309 114.604 96.7375 113.266C100.264 114.26 103.523 116.028 106.278 118.443C105.64 119.107 105.028 119.781 104.433 120.454C102.598 119.352 100.704 118.354 98.7576 117.463Z" fill="#A8C9DD"/>
<path d="M102.238 114.971C103.821 115.81 105.291 116.847 106.611 118.058L106.995 118.416L106.637 118.792C105.911 119.553 105.212 120.314 104.547 121.092C103.882 121.871 103.27 122.614 102.693 123.392L102.308 123.908L101.888 123.41C100.569 121.905 99.3978 120.277 98.3904 118.548C97.4645 116.925 96.7253 115.203 96.1866 113.414L95.9155 112.479L96.8338 112.767C98.6815 113.336 100.473 114.074 102.186 114.971H102.238ZM97.5421 114.096C98.002 115.468 98.5875 116.794 99.2911 118.058C100.147 119.545 101.127 120.958 102.221 122.282C102.693 121.67 103.2 121.057 103.734 120.445C104.267 119.833 104.888 119.142 105.483 118.495C104.324 117.492 103.053 116.627 101.696 115.915C100.346 115.194 98.9394 114.586 97.4896 114.096H97.5421Z" fill="#141515"/>
<path fill-rule="evenodd" clip-rule="evenodd" d="M133.117 126.042C131.453 125.287 129.614 125.002 127.8 125.22C126.933 125.243 126.094 125.53 125.395 126.042H133.117Z" fill="#FFB342"/>
<path fill-rule="evenodd" clip-rule="evenodd" d="M133.047 126.042C131.386 125.278 129.544 124.994 127.73 125.22C126.862 125.236 126.021 125.523 125.325 126.042H133.047Z" fill="#EA8D13"/>
<path d="M126.173 126.042C126.663 125.814 127.185 125.664 127.721 125.596C128.761 125.465 129.815 125.504 130.843 125.71C131.262 125.791 131.674 125.902 132.076 126.042H134.525L134.42 125.972C133.373 125.349 132.224 124.917 131.027 124.695C129.892 124.474 128.729 124.432 127.581 124.573C126.42 124.649 125.334 125.176 124.556 126.042H126.173Z" fill="#141515"/>
<path fill-rule="evenodd" clip-rule="evenodd" d="M124.713 126.042H137.454C137.158 121.201 135.873 116.471 133.677 112.146C128.657 102.264 120.97 108.386 123.655 116.449C124.618 119.549 124.977 122.806 124.713 126.042Z" fill="#B0172C"/>
<path fill-rule="evenodd" clip-rule="evenodd" d="M124.713 126.042H127.1C127.03 125.317 126.96 124.582 126.89 123.865C126.613 121.867 126.643 119.838 126.978 117.848C127.599 114.761 130.24 112.348 133.178 111.228C128.167 102.667 121.057 108.605 123.655 116.475C124.615 119.568 124.974 122.815 124.713 126.042Z" fill="#8A0214"/>
<path fill-rule="evenodd" clip-rule="evenodd" d="M134.053 118.189C134.816 120.764 135.368 123.396 135.705 126.06H137.454C137.159 121.218 135.873 116.489 133.677 112.164C132.374 109.61 130.904 108.124 129.47 107.468C129.995 108.342 130.467 109.217 130.939 110.091C132.245 112.68 133.288 115.393 134.053 118.189Z" fill="#FF8797"/>
<path fill-rule="evenodd" clip-rule="evenodd" d="M124.512 119.956C128.085 118.108 132.134 117.385 136.125 117.883L137.148 122.579C133.372 122.15 129.549 122.446 125.885 123.454L124.73 123.664L124.512 119.956Z" fill="#8A0214"/>
<path d="M128.342 107.616C129.934 107.922 131.683 109.365 133.222 112.374C134.658 115.197 135.7 118.204 136.318 121.311C136.622 122.874 136.826 124.454 136.93 126.042H137.979C137.873 124.386 137.657 122.738 137.332 121.11C136.691 117.921 135.617 114.835 134.14 111.936C132.452 108.605 130.467 107.258 128.587 106.882C127.996 106.795 127.393 106.843 126.823 107.024C126.253 107.204 125.732 107.511 125.299 107.922C126.25 107.482 127.322 107.374 128.342 107.616Z" fill="#141515"/>
<path d="M124.232 126.042H126.025C125.762 126.042 125.509 125.946 125.238 125.911C125.26 125.272 125.242 124.632 125.185 123.996C127.377 123.715 129.604 123.934 131.7 124.634C132.737 124.98 133.727 125.453 134.647 126.042H136.396C135.089 124.995 133.61 124.184 132.024 123.646C129.792 122.903 127.422 122.67 125.089 122.964C124.862 120.568 124.389 117.673 123.821 116.912C124.066 118.381 124.564 123.698 124.232 126.042Z" fill="#141515"/>
<path fill-rule="evenodd" clip-rule="evenodd" d="M83.7862 47.5994C82.4003 46.8949 81.0571 46.1094 79.7635 45.247C77.7958 43.9003 77.0875 44.3725 76.6415 46.5938C76.0643 49.4971 77.516 53.7734 80.1395 55.3388C80.641 55.6391 81.1871 55.8575 81.7573 55.9859C84.7918 56.7117 89.9339 50.7389 83.7862 47.5645V47.5994Z" fill="#FFCA52"/>
<path fill-rule="evenodd" clip-rule="evenodd" d="M76.5365 47.4769C76.3616 50.3103 77.7783 53.9307 80.1394 55.3474C80.6409 55.6477 81.187 55.8662 81.7573 55.9945C82.223 56.1159 82.7131 56.1068 83.174 55.9683C82.2995 52.0243 80.9527 48.9111 79.0201 47.1621C78.2155 46.48 77.3848 46.7161 76.5365 47.5031V47.4769Z" fill="#FFA925"/>
<path fill-rule="evenodd" clip-rule="evenodd" d="M83.7861 47.5993C83.4276 47.4156 83.069 47.232 82.7367 47.0483C81.8004 49.6 80.4241 51.9678 78.6703 54.0444C79.0885 54.5508 79.5844 54.9876 80.1395 55.3386C80.6409 55.6389 81.187 55.8574 81.7573 55.9858C84.7918 56.7116 89.9339 50.7387 83.7861 47.5643V47.5993Z" fill="#FFAA25"/>
<path fill-rule="evenodd" clip-rule="evenodd" d="M78.7053 54.0791C79.1234 54.5855 79.6193 55.0224 80.1744 55.3734C80.6759 55.6737 81.222 55.8921 81.7923 56.0205C82.2492 56.1269 82.7264 56.1088 83.174 55.9681C82.7515 54.014 82.1121 52.1133 81.2676 50.3013C80.5245 51.6551 79.6455 52.9297 78.644 54.1054L78.7053 54.0791Z" fill="#EC7613"/>
<path fill-rule="evenodd" clip-rule="evenodd" d="M94.6038 126.042H101.442C101.442 124.835 101.407 123.669 101.337 122.544L94.6912 120.646C94.6912 122.343 94.665 124.179 94.6038 126.042Z" fill="#B0172C"/>
<path fill-rule="evenodd" clip-rule="evenodd" d="M101.442 126.042L101.372 124.206C99.0662 124.123 96.7888 123.666 94.63 122.85L94.5775 126.042H101.442Z" fill="#8C0013"/>
<path fill-rule="evenodd" clip-rule="evenodd" d="M94.6038 126.042H96.1954C96.2653 124.337 96.3003 122.666 96.2916 121.075L94.665 120.603C94.6912 122.343 94.665 124.179 94.6038 126.042Z" fill="#FF8797"/>
<path d="M94.0878 126.042H95.1197C95.1722 124.416 95.1984 122.824 95.1809 121.294L100.804 122.903C100.804 123.926 100.865 124.975 100.891 126.042H101.932C101.932 124.827 101.871 123.637 101.818 122.483C101.813 122.375 101.774 122.271 101.707 122.186C101.639 122.101 101.547 122.04 101.442 122.011L94.7961 120.104C94.7469 120.096 94.6967 120.096 94.6475 120.104C94.579 120.103 94.511 120.116 94.4477 120.142C94.3844 120.168 94.3272 120.207 94.2796 120.256C94.232 120.305 94.1951 120.364 94.1711 120.428C94.1471 120.492 94.1366 120.561 94.1402 120.629C94.1752 122.352 94.149 124.179 94.0878 126.042Z" fill="#141515"/>
<path fill-rule="evenodd" clip-rule="evenodd" d="M100.76 113.686C101.446 117.162 101.693 120.711 101.495 124.25C99.5259 124.118 97.5764 123.778 95.6794 123.235C94.0003 122.737 92.3825 121.941 90.6947 121.39C88.343 120.558 85.8837 120.069 83.3926 119.938C81.8097 119.895 81.5649 118.959 82.2732 117.673C85.0192 112.689 88.3948 110.931 92.9597 110.03C96.0204 109.427 100.034 110.109 100.76 113.686Z" fill="#B0172C"/>
<path fill-rule="evenodd" clip-rule="evenodd" d="M100.76 113.685C101.167 115.704 101.419 117.75 101.512 119.807C100.506 119.249 99.4632 118.761 98.3903 118.347L98.2766 120.813C93.5692 119.04 89.0612 116.777 84.8268 114.061C87.0568 111.718 89.689 110.651 92.9597 110.004C96.0204 109.4 100.034 110.082 100.76 113.659V113.685Z" fill="#8C0013"/>
<path fill-rule="evenodd" clip-rule="evenodd" d="M101.521 123.672C101.521 123.856 101.521 124.04 101.521 124.223C99.5521 124.092 97.6027 123.752 95.7056 123.209C94.0266 122.71 92.4087 121.915 90.7209 121.364C88.3692 120.532 85.9099 120.043 83.4188 119.912C81.836 119.868 81.5911 118.933 82.2995 117.647C85.0454 112.662 88.421 110.905 92.9859 110.004C93.4911 109.907 94.0025 109.845 94.5163 109.82H94.3676C90.2749 110.695 86.4971 112.444 84.0135 117.07C83.3839 118.268 83.0953 118.67 84.5032 118.705C87.0693 118.993 89.5896 119.598 92.0065 120.507C95.2771 121.635 97.8744 123.305 101.547 123.637L101.521 123.672Z" fill="#FF8797"/>
<path d="M100.253 113.764C100.134 113.143 99.8655 112.561 99.4709 112.067C99.0762 111.574 98.5673 111.183 97.9881 110.931C96.4268 110.297 94.7105 110.151 93.0646 110.511C90.9831 110.848 88.9906 111.601 87.2054 112.723C85.3102 114.051 83.7722 115.826 82.728 117.892C82.5584 118.172 82.451 118.485 82.4132 118.81C82.4002 118.901 82.4187 118.993 82.4656 119.072C82.503 119.146 82.5648 119.205 82.6405 119.238C82.8818 119.348 83.145 119.402 83.4101 119.396C84.5855 119.441 85.7553 119.581 86.9081 119.815C88.2375 120.083 89.5489 120.434 90.8346 120.865C91.6129 121.127 92.3738 121.433 93.1346 121.739C94.0091 122.098 94.8836 122.448 95.7581 122.719C96.6407 122.973 97.537 123.178 98.4428 123.331C99.2386 123.471 100.078 123.576 100.953 123.663C101.011 122.121 100.99 120.577 100.891 119.037C100.774 117.275 100.54 115.522 100.192 113.79L100.253 113.764ZM102.002 119.011C102.102 120.759 102.102 122.51 102.002 124.258C102.001 124.326 101.986 124.393 101.958 124.454C101.931 124.516 101.891 124.572 101.841 124.618C101.791 124.663 101.732 124.699 101.668 124.721C101.604 124.743 101.536 124.752 101.469 124.748C100.367 124.66 99.3173 124.529 98.3291 124.363C97.3873 124.202 96.4558 123.986 95.5395 123.716C94.6018 123.424 93.6795 123.086 92.776 122.701C92.0414 122.404 91.2981 122.107 90.546 121.827C89.2976 121.407 88.0242 121.065 86.7332 120.804C85.6301 120.577 84.5095 120.445 83.3839 120.41C82.9563 120.409 82.5346 120.31 82.1508 120.122C81.9051 119.988 81.702 119.788 81.5649 119.544C81.4396 119.302 81.3794 119.03 81.39 118.757C81.429 118.267 81.5785 117.791 81.8272 117.367C82.9531 115.158 84.6049 113.26 86.637 111.84C88.5338 110.637 90.655 109.83 92.8722 109.47C94.7337 109.067 96.6739 109.241 98.4341 109.969C99.164 110.283 99.8047 110.774 100.299 111.397C100.793 112.019 101.126 112.754 101.267 113.537C101.631 115.322 101.874 117.131 101.993 118.95L102.002 119.011Z" fill="#141515"/>
<path d="M81.3725 46.8648C80.6991 46.4626 80.0695 46.069 79.4836 45.6668C78.6615 45.1071 78.1456 44.906 77.857 45.0459C77.5684 45.1858 77.341 45.7542 77.1486 46.6899C76.9026 48.2994 77.1054 49.9456 77.7345 51.4472C78.2204 52.8596 79.1382 54.0834 80.3581 54.9453C80.5822 55.0791 80.8161 55.196 81.0577 55.2951C81.3055 55.3937 81.5597 55.4755 81.8185 55.5399C82.3808 55.5953 82.9482 55.5137 83.4721 55.302C83.996 55.0903 84.4608 54.7549 84.8268 54.3244C85.2754 53.8809 85.6346 53.3555 85.8849 52.7765C86.1203 52.2255 86.2019 51.6211 86.121 51.0275C85.9636 49.9868 85.2465 48.9287 83.4975 48.0542C82.728 47.6519 82.0021 47.2584 81.3288 46.8561L81.3725 46.8648ZM83.996 47.1447C86.0074 48.1941 86.9168 49.5321 87.118 50.8788C87.2199 51.6562 87.1143 52.4467 86.8119 53.17C86.5213 53.8871 86.0935 54.5407 85.5526 55.0939C85.0695 55.6409 84.46 56.0615 83.7771 56.3191C83.0943 56.5767 82.3589 56.6634 81.6348 56.5718C81.3193 56.4979 81.0096 56.4015 80.7079 56.2832C80.4075 56.1592 80.1154 56.0161 79.8334 55.8547C78.4093 54.8863 77.3263 53.4942 76.7376 51.8757C76.0377 50.1872 75.8169 48.3384 76.0992 46.5325C76.3616 45.2645 76.7289 44.4687 77.376 44.1626C78.0231 43.8566 78.8714 44.0752 79.9995 44.8622C80.5825 45.247 81.1947 45.6318 81.836 46.0166C82.4918 46.4101 83.2089 46.8036 83.961 47.1884L83.996 47.1447Z" fill="#141515"/>
<path d="M76.8338 48.0452C76.9695 47.6974 77.1997 47.3946 77.4984 47.1707C77.6376 47.0844 77.7982 47.039 77.9619 47.0395C78.1424 47.0458 78.319 47.0937 78.4779 47.1794C79.1439 47.5759 79.6977 48.1358 80.087 48.806C80.7811 49.9131 81.3668 51.0845 81.836 52.304C82.2735 53.4943 82.607 54.7203 82.8329 55.9682L83.5063 55.837C83.2618 54.5376 82.9048 53.2618 82.4394 52.0242C81.9734 50.7782 81.3876 49.5804 80.6904 48.4475C80.2318 47.6643 79.578 47.0135 78.7927 46.5585C78.5427 46.4327 78.2679 46.364 77.9881 46.3574C77.6802 46.3418 77.375 46.4212 77.1136 46.5848C76.7241 46.8771 76.4218 47.2702 76.2391 47.7216L76.8338 48.0452Z" fill="#141515"/>
<path fill-rule="evenodd" clip-rule="evenodd" d="M135.478 49.9603C138.418 49.9602 141.344 49.5481 144.171 48.736C147.835 47.6604 149.068 48.7798 148.648 52.4789C148.338 56.1557 146.61 59.5678 143.83 61.9935C134.402 70.2138 127.634 50.039 135.478 49.9603Z" fill="#FFCA52"/>
<path fill-rule="evenodd" clip-rule="evenodd" d="M130.677 106.602C133.462 107.727 135.97 109.44 138.032 111.624C140.094 113.808 141.66 116.411 142.623 119.256C137.25 119.11 131.888 119.794 126.724 121.285C122.151 122.738 117.374 123.45 112.575 123.392C113.038 116.099 114.053 109.243 118.845 106.532C121.469 105.036 125.544 104.442 130.677 106.602Z" fill="#B0172C"/>
<path fill-rule="evenodd" clip-rule="evenodd" d="M131.788 107.109C134.319 108.3 136.583 109.989 138.445 112.077C140.307 114.164 141.728 116.606 142.623 119.256C137.25 119.11 131.888 119.795 126.724 121.285C122.151 122.739 117.374 123.45 112.575 123.393L112.654 122.299C117.241 122.071 121.782 121.275 126.173 119.93C130.717 118.461 135.46 117.702 140.235 117.682C138.745 113.277 135.755 109.535 131.788 107.109Z" fill="#FF8797"/>
<path fill-rule="evenodd" clip-rule="evenodd" d="M130.677 106.602C132.656 107.419 134.504 108.524 136.16 109.881C131.98 110.957 128.237 114.017 124.381 117.341C122.918 116.615 121.701 115.474 120.883 114.061C118.481 115.76 115.848 117.106 113.064 118.058C113.764 112.933 115.233 108.569 118.827 106.532C121.451 105.036 125.526 104.442 130.659 106.602H130.677Z" fill="#8C0013"/>
<path d="M130.476 107.074C128.545 106.221 126.465 105.755 124.354 105.701C122.523 105.664 120.714 106.108 119.107 106.987C116.842 108.263 115.469 110.555 114.595 113.397C113.757 116.492 113.27 119.672 113.143 122.876C115.332 122.866 117.518 122.705 119.685 122.395C122.023 122.045 124.33 121.51 126.584 120.795C129.073 120.032 131.625 119.493 134.21 119.186C136.758 118.88 139.322 118.728 141.888 118.731C140.896 116.112 139.374 113.724 137.418 111.719C135.462 109.713 133.114 108.132 130.52 107.074H130.476ZM138.285 111.141C140.428 113.418 142.07 116.12 143.104 119.072C143.129 119.135 143.141 119.203 143.14 119.271C143.138 119.339 143.123 119.406 143.096 119.468C143.068 119.529 143.028 119.585 142.978 119.632C142.929 119.678 142.87 119.714 142.806 119.737C142.737 119.754 142.665 119.754 142.597 119.737C139.835 119.708 137.075 119.857 134.332 120.183C131.807 120.483 129.313 121.01 126.882 121.757C124.576 122.487 122.217 123.031 119.824 123.384C117.424 123.735 115.001 123.902 112.575 123.882C112.439 123.88 112.309 123.825 112.212 123.728C112.116 123.632 112.061 123.502 112.059 123.366C112.184 119.897 112.697 116.454 113.589 113.099C114.542 110.012 116.055 107.511 118.591 106.103C120.348 105.132 122.33 104.643 124.337 104.687C126.592 104.731 128.816 105.224 130.878 106.138C133.664 107.284 136.185 108.99 138.285 111.149V111.141Z" fill="#141515"/>
<path fill-rule="evenodd" clip-rule="evenodd" d="M135.478 49.9602C137.446 49.9505 139.409 49.7691 141.346 49.418C142.23 53.0986 143.796 56.581 145.963 59.6846C145.34 60.5308 144.624 61.3052 143.83 61.9933C134.402 70.2137 127.634 50.0389 135.478 49.9602Z" fill="#FFAA25"/>
<path fill-rule="evenodd" clip-rule="evenodd" d="M148.211 54.875C147.528 57.6444 146 60.1324 143.838 61.9934C137.787 67.2404 132.828 60.8303 132.137 55.5396L136.195 54.2628L143.882 51.823C146.506 51.1583 148.027 51.823 148.15 54.77L148.211 54.875Z" fill="#FFA925"/>
<path fill-rule="evenodd" clip-rule="evenodd" d="M145.963 59.6847C145.34 60.5309 144.624 61.3052 143.83 61.9934C137.778 67.2404 132.82 60.8303 132.129 55.5395L136.186 54.2628L142.238 52.3389C143.1 54.9624 144.356 57.4394 145.963 59.6847Z" fill="#EC7613"/>
<path d="M139.772 49.1383C141.212 48.957 142.636 48.6646 144.031 48.2638C146.033 47.6604 147.415 47.7042 148.281 48.4387C149.147 49.1733 149.391 50.5288 149.155 52.5577C148.969 54.4128 148.46 56.2211 147.651 57.9009C146.797 59.618 145.608 61.1464 144.153 62.3958C140.244 65.8064 136.755 64.6783 134.411 62.0023C132.628 59.8679 131.606 57.2001 131.508 54.4203C131.508 51.6919 132.662 49.4881 135.469 49.4619C136.903 49.4514 138.334 49.3491 139.754 49.1558L139.772 49.1383ZM147.599 55.1899C147.768 54.6997 147.795 54.1715 147.675 53.6668C147.556 53.1621 147.296 52.7016 146.925 52.339C146.584 52.0576 146.16 51.8949 145.718 51.8755C145.463 51.8617 145.207 51.8823 144.958 51.9368C140.811 53.083 136.725 54.4373 132.715 55.9944C132.851 56.6787 133.041 57.3513 133.283 58.0058C133.724 59.2118 134.379 60.3286 135.216 61.3027C137.192 63.5676 140.157 64.5121 143.489 61.6088C144.837 60.4414 145.94 59.0175 146.733 57.4199C147.088 56.7029 147.38 55.9569 147.607 55.1899H147.599ZM135.487 50.4851C133.414 50.4851 132.54 52.2341 132.566 54.3941C132.563 54.6865 132.581 54.9787 132.618 55.2686C136.611 53.7122 140.683 52.3694 144.818 51.2459C145.128 51.1769 145.445 51.1505 145.762 51.1672C146.262 51.1812 146.747 51.3377 147.161 51.6181C147.574 51.8985 147.899 52.2912 148.097 52.75C148.097 52.6276 148.097 52.5139 148.141 52.4002C148.324 50.7212 148.141 49.663 147.607 49.1821C147.074 48.7011 145.972 48.7186 144.319 49.1821C142.887 49.6015 141.425 49.9143 139.947 50.1178C138.479 50.3103 137.002 50.4154 135.522 50.4326L135.487 50.4851Z" fill="#141515"/>
<path fill-rule="evenodd" clip-rule="evenodd" d="M148.316 83.9524C148.22 93.4844 139.982 101.661 133.222 106.436C130.021 108.701 126.882 110.66 124.381 113.773C123.408 111.525 123.336 108.989 124.18 106.689C122.234 108.914 119.924 110.792 117.35 112.243C113.135 114.612 109.96 115.618 106.27 119.352C103.171 116.963 99.7305 115.053 96.0642 113.685V116.309C91.5965 113.311 87.7386 109.492 84.6957 105.054C84.6434 106.926 84.94 108.791 85.5702 110.555C77.927 106.392 72.8812 98.1368 70.3801 85.8675L68.4562 87.0131C67.4719 81.45 68.5609 75.7192 71.5169 70.9048C73.8431 66.8471 77.14 63.4977 79.6935 59.5362C82.422 55.2512 84.066 51.2547 85.99 45.6666C86.8701 43.0679 87.9188 40.5294 89.1294 38.0672C92.2864 31.727 96.6414 26.515 105.063 25.8853C109.785 25.544 114.532 25.7878 119.195 26.6112C125.08 27.6693 128.814 31.4122 132.006 36.2744C135.362 41.2243 137.932 46.664 139.623 52.4003C138.279 51.8275 136.882 51.3882 135.452 51.0885C135.717 52.7767 136.521 54.3338 137.744 55.527C138.967 56.7203 140.544 57.4856 142.238 57.7085C141.84 58.1647 141.333 58.513 140.764 58.7209C140.195 58.9288 139.583 58.9897 138.985 58.8978C149.19 69.8466 153.913 79.5798 151.77 87.6078C151.105 85.9825 149.858 84.6635 148.272 83.9086L148.316 83.9524Z" fill="#D8441D"/>
<path fill-rule="evenodd" clip-rule="evenodd" d="M71.4644 70.9049C73.7906 66.8472 77.0874 63.4979 79.641 59.5364C82.3694 55.2513 84.0135 51.2549 85.9374 45.6668C86.7265 43.314 87.6611 41.0125 88.7358 38.7757C90.8521 34.4032 93.4844 30.1181 98.4865 27.7482C100.957 26.5178 103.668 25.8489 106.427 25.7893C109.79 25.6206 113.161 25.7464 116.501 26.1654C119.253 26.4193 121.927 27.2127 124.372 28.5003C125.794 29.3112 127.098 30.3147 128.246 31.4823C130.139 33.5093 131.775 35.7621 133.117 38.1898C135.793 42.5623 138.364 47.1972 139.571 52.348C138.227 51.7752 136.829 51.3359 135.399 51.0362C135.664 52.7244 136.468 54.2815 137.691 55.4747C138.915 56.668 140.491 57.4333 142.185 57.6562C141.53 60.1398 134.315 59.4839 132.566 48.5264C132.653 48.5264 134.507 48.7363 134.507 48.7363C134.346 48.1632 134.117 47.6113 133.825 47.0922C132.417 44.6524 129.295 39.5015 127.039 36.2484C120.515 26.8562 100.428 26.5239 93.7292 36.1697C90.9483 40.1399 89.1993 44.7923 87.3716 49.2435C86.4971 51.4298 85.5351 53.5723 84.6606 55.7498C84.512 56.1083 84.3633 56.4581 84.1971 56.8167C82.2685 60.743 79.9791 64.4815 77.3585 67.9841C77.1661 68.2377 76.9825 68.4913 76.7988 68.7537C75.4048 70.546 74.103 72.4081 72.8986 74.333C70.4412 78.7055 69.8291 83.8651 70.0914 84.0312C70.1614 84.0837 72.1465 83.1043 72.2164 83.1567C72.2689 83.8476 73.3795 92.3215 75.8281 97.3587C77.735 101.222 80.0827 104.852 82.8242 108.176C83.0865 108.587 83.3489 108.998 83.62 109.409C77.0204 104.967 72.5779 97.1138 70.2925 85.8502L68.3686 86.9958C67.3844 81.4327 68.4733 75.7018 71.4294 70.8875L71.4644 70.9049Z" fill="#E87127"/>
<path fill-rule="evenodd" clip-rule="evenodd" d="M78.2592 86.401C78.9501 82.6057 80.8041 79.0552 82.1071 75.4172C82.8416 73.3797 83.5675 71.3421 84.2234 69.2957C84.8792 67.2494 85.2378 65.3779 85.7013 63.4016C87.3978 56.6417 89.689 50.1004 93.8516 44.4511C95.5132 42.1949 96.0904 40.0174 98.7139 38.7406C101.337 37.4638 103.41 39.7288 105.596 40.4284C107.03 40.8744 109.094 39.7725 110.432 39.3965C112.038 38.9368 113.67 38.5775 115.321 38.3208C119.256 37.7699 122.798 41.3553 125.264 43.9351C128.19 46.9893 130.769 50.3594 132.951 53.9832C134.813 57.1139 136.711 60.2271 138.792 63.2267C140.874 66.2262 143.375 68.9284 145.299 72.0242C146.997 74.7977 148.14 77.8746 148.665 81.084C147.719 80.5203 146.626 80.2495 145.526 80.3057C145.597 84.5672 144.479 88.7642 142.299 92.4263C138.399 98.9064 130.362 105.448 127.607 107.783C126.311 108.798 125.111 109.931 124.022 111.167C123.917 111.298 123.812 111.429 123.716 111.569C123.455 109.93 123.615 108.251 124.179 106.689C122.234 108.914 119.924 110.792 117.35 112.243C113.134 114.612 109.96 115.618 106.27 119.352C103.171 116.963 99.7304 115.053 96.0641 113.686V116.309C91.5964 113.311 87.7385 109.492 84.6956 105.054C84.6433 106.926 84.9399 108.791 85.5701 110.555C85.1678 110.336 84.7743 110.109 84.3895 109.864C84.0047 109.619 83.4013 108.01 83.1215 107.468C82.6318 106.541 82.142 105.596 81.6786 104.652C79.7721 100.769 78.1805 96.7814 77.9444 92.4088C77.826 90.3987 77.9493 88.3817 78.3117 86.401H78.2592Z" fill="#E87127"/>
<path d="M144.809 95.6705C141.734 100.022 137.911 103.794 133.519 106.812L132.164 107.756C129.47 109.636 126.917 111.438 124.783 114.053L124.241 114.726L123.9 113.93C123.161 112.2 122.919 110.298 123.2 108.438C122.675 108.963 122.107 109.488 121.503 109.986C120.283 110.996 118.975 111.894 117.594 112.671C116.51 113.283 115.504 113.79 114.542 114.289C111.62 115.608 108.956 117.435 106.672 119.684L106.357 120.008L105.99 119.737C104.412 118.562 102.761 117.487 101.049 116.519C99.62 115.716 98.1354 115.018 96.6063 114.429V117.271L95.8105 116.746C93.3994 115.145 91.163 113.296 89.1381 111.228C87.7386 109.798 86.4301 108.282 85.2203 106.689C85.2203 107.065 85.299 107.441 85.3515 107.809C85.4698 108.684 85.6869 109.544 85.9986 110.371L86.4971 111.665L85.264 111.001C81.2424 108.757 77.8917 105.482 75.557 101.512C72.8661 96.9088 70.9765 91.8818 69.969 86.6456L68.0276 87.8087L67.8964 87.0742C67.6205 85.6127 67.4887 84.1276 67.5029 82.6404V81.7659C67.5638 80.6762 67.7012 79.592 67.9139 78.5215C68.5055 75.7509 69.539 73.0934 70.9746 70.651C72.307 68.4464 73.7945 66.3393 75.4259 64.3458C76.7201 62.6843 78.0494 61.0227 79.16 59.2125C80.4669 57.1769 81.6131 55.0425 82.588 52.8286C83.585 50.5986 84.4682 48.2287 85.4127 45.4653C85.9374 43.9262 86.5204 42.4016 87.1617 40.8916C91.0182 31.823 95.6094 25.5878 106.182 25.1943C107.931 25.1331 109.68 25.1943 111.429 25.2555C114.341 25.4066 117.241 25.7337 120.113 26.235C129.234 27.8878 132.645 36.4929 136.615 43.4364C136.711 43.5938 136.798 43.7688 136.886 43.9262C138.344 46.5336 139.419 49.3375 140.078 52.2514L140.296 53.2309L139.37 52.8461C138.687 52.5575 138.005 52.3039 137.332 52.0853C136.93 51.9628 136.519 51.8492 136.108 51.7442C136.44 52.9738 137.075 54.1009 137.953 55.0236C139.136 56.1738 140.65 56.9233 142.282 57.1661L143.156 57.3323L142.605 57.9969C142.226 58.4654 141.736 58.8321 141.18 59.0638C140.831 59.1972 140.467 59.2854 140.095 59.3262C144.87 64.5732 148.377 69.5054 150.484 74.1228C152.723 79.0375 153.388 83.5849 152.295 87.7388L151.936 89.1117L151.333 87.835C150.97 87.0373 150.483 86.3023 149.89 85.6575C149.573 85.3185 149.211 85.0243 148.814 84.783C148.49 88.7132 147.113 92.4835 144.826 95.6968L144.809 95.6705ZM147.791 83.1301L148.508 83.445C149.302 83.792 150.014 84.3014 150.598 84.9404C150.949 85.3098 151.265 85.7108 151.543 86.1384C152.129 82.5879 151.411 78.7052 149.505 74.5425C147.345 69.7852 143.628 64.6519 138.539 59.195L137.664 58.268L138.932 58.3292C139.549 58.3853 140.17 58.3047 140.751 58.0931C140.861 58.0514 140.967 57.9986 141.066 57.9357C139.603 57.5617 138.268 56.8005 137.201 55.732C136.003 54.4587 135.195 52.8682 134.875 51.1496L134.708 50.3887L135.478 50.5374C136.202 50.6859 136.917 50.8728 137.621 51.0971C138.023 51.2195 138.425 51.3682 138.827 51.5081C138.122 48.8568 137.069 46.3104 135.697 43.9349C132.059 37.551 127.59 28.8935 119.868 27.4155C115.458 26.5708 110.966 26.2334 106.479 26.4099C96.8599 26.8384 91.6916 32.9424 88.1149 41.2764C87.4736 42.7689 86.8906 44.2672 86.3659 45.7714C85.4039 48.5873 84.5032 51.0184 83.5063 53.2309C82.5098 55.4894 81.3403 57.6676 80.0083 59.7459C78.8539 61.5736 77.5247 63.2439 76.2217 64.9929C74.6174 66.9491 73.1561 69.0183 71.8491 71.1844C70.46 73.5342 69.4645 76.0953 68.9021 78.7664C68.4137 81.2153 68.3545 83.7305 68.7272 86.1996L70.6248 85.0541L70.7648 85.7711C71.7394 91.132 73.636 96.2833 76.3703 100.996C78.3979 104.418 81.2019 107.315 84.5557 109.453C84.4326 108.966 84.3363 108.472 84.2671 107.975C84.1317 107.01 84.0673 106.037 84.0747 105.063V103.462L85.0017 104.765C86.4394 106.801 88.0297 108.725 89.759 110.52C91.5032 112.313 93.4155 113.936 95.4695 115.364V112.986L96.1516 113.231C97.9646 113.884 99.7198 114.689 101.399 115.635C103.021 116.553 104.589 117.563 106.095 118.661C108.41 116.489 111.069 114.716 113.965 113.414C114.927 112.916 115.933 112.409 116.982 111.814C118.311 111.057 119.567 110.179 120.734 109.19C121.788 108.307 122.773 107.346 123.681 106.313L125.386 104.398L124.555 106.829C124.16 107.952 123.974 109.137 124.005 110.327C124.041 111.139 124.185 111.941 124.433 112.715C126.518 110.497 128.867 108.543 131.429 106.899L132.776 105.963C137.061 103.016 140.794 99.3362 143.803 95.0933C146.191 91.8485 147.578 87.9755 147.791 83.9522V83.1301Z" fill="#141515"/>
<path fill-rule="evenodd" clip-rule="evenodd" d="M129.007 75.0322C131.176 63.9435 128.473 52.9773 117.428 42.2384C115.88 40.7255 114.849 40.5768 112.758 41.0315C110.424 41.5005 108.178 42.3358 106.104 43.5064C104.404 42.1423 102.559 40.9693 100.603 40.0084C100.025 39.7341 99.3757 39.6498 98.7473 39.7676C98.1188 39.8855 97.5439 40.1994 97.1049 40.6643C90.8307 47.2009 86.158 55.1035 83.4539 63.7511C74.9799 92.225 124.005 100.48 129.007 75.0322Z" fill="#FFCA52"/>
<path fill-rule="evenodd" clip-rule="evenodd" d="M129.007 75.0322C131.175 63.9435 128.473 52.9773 117.428 42.2384C115.88 40.7255 114.849 40.5768 112.758 41.0315C110.424 41.5005 108.177 42.3358 106.103 43.5064C104.404 42.1423 102.559 40.9693 100.603 40.0084C100.025 39.7341 99.3757 39.6498 98.7472 39.7676C98.1188 39.8855 97.5438 40.1994 97.1048 40.6643C90.8307 47.2009 86.1579 55.1035 83.4538 63.7511C80.3319 74.2452 85.0192 81.9933 92.4262 86.3133L85.3777 77.4983C83.0166 69.3742 86.0074 56.3703 95.8106 45.1417C97.5596 43.1304 98.7139 41.8711 99.9295 42.1247C101.145 42.3783 103.121 43.8212 104.678 44.9318C105.894 45.8063 105.911 45.8763 107.302 45.1942C109.217 44.241 111.298 43.1741 113.274 43.2003C115.469 43.2003 116.598 44.9056 118.836 47.5728C121.481 50.7248 123.582 54.2949 125.054 58.1368C128.98 68.456 124.739 81.215 116.825 88.7444C122.833 86.5844 127.625 82.107 129.015 75.0322H129.007Z" fill="#FFA925"/>
<path d="M127.677 58.6617C125.928 53.2747 122.518 47.914 117.052 42.6058C116.551 42.0355 115.899 41.6174 115.172 41.399C114.399 41.2746 113.607 41.3224 112.855 41.5389C111.652 41.7999 110.469 42.1417 109.313 42.5621C108.293 42.9356 107.31 43.401 106.375 43.9525L106.068 44.1274L105.789 43.9088C104.914 43.2267 104.04 42.5883 103.165 42.0024C102.287 41.4339 101.372 40.9227 100.428 40.472C99.9451 40.2373 99.3996 40.1641 98.8721 40.2633C98.3445 40.3625 97.8628 40.6289 97.4983 41.0229C94.3717 44.2881 91.6364 47.9068 89.3479 51.8056C87.0657 55.6003 85.2538 59.6586 83.9523 63.8912C81.1888 73.1434 84.6694 80.2007 90.7034 84.5819C93.64 86.6737 96.9636 88.16 100.48 88.9544C104.052 89.7923 107.746 89.9848 111.385 89.5229C119.562 88.4385 126.759 83.7774 128.499 74.9449C129.642 69.5377 129.359 63.9262 127.677 58.6617ZM129.505 75.1373C127.669 84.477 120.095 89.4004 111.508 90.5373C107.742 91.0165 103.921 90.815 100.227 89.9426C96.5783 89.1171 93.1283 87.5808 90.0738 85.4215C83.6987 80.7953 80.0257 73.3446 82.9291 63.5589C84.2437 59.2477 86.073 55.1107 88.3772 51.2371C90.7102 47.2727 93.492 43.5901 96.6675 40.2621C97.1908 39.714 97.8729 39.3439 98.6177 39.204C99.3557 39.0639 100.119 39.165 100.795 39.4925C101.786 39.97 102.747 40.5074 103.672 41.1016C104.547 41.6351 105.325 42.221 106.138 42.8506C107.039 42.3496 107.978 41.9198 108.946 41.5651C110.153 41.1144 111.392 40.7548 112.653 40.4895C113.55 40.2383 114.492 40.1935 115.408 40.3583C116.325 40.612 117.15 41.1216 117.787 41.8275C123.375 47.2581 126.855 52.7588 128.666 58.3031C130.411 63.7319 130.712 69.5216 129.54 75.1023L129.505 75.1373Z" fill="#141515"/>
<path fill-rule="evenodd" clip-rule="evenodd" d="M99.8596 58.1633C99.0463 56.1607 97.857 54.9976 96.1867 54.9102C95.1238 54.7813 94.0465 54.9689 93.0897 55.4496C92.133 55.9303 91.3395 56.6827 90.8085 57.6124C90.0722 58.6732 89.6591 59.9247 89.6191 61.2153C89.6191 65.7278 94.0441 68.911 98.2243 65.4917C99.8771 63.7951 100.655 61.5302 99.8596 58.1633Z" fill="#FFA925"/>
<path fill-rule="evenodd" clip-rule="evenodd" d="M120.384 59.3789C119.929 58.5019 119.281 57.7394 118.489 57.1487C117.697 56.558 116.781 56.1545 115.81 55.9684C112.767 55.4874 110.817 56.8953 109.444 59.274C107.914 62.9906 108.333 65.6666 110.196 67.5118C111.431 68.5769 112.98 69.2097 114.607 69.3139C116.235 69.4181 117.852 68.988 119.212 68.089C121.652 65.7628 121.582 62.7458 120.384 59.4139V59.3789Z" fill="#FFA925"/>
<path fill-rule="evenodd" clip-rule="evenodd" d="M118.836 50.94C118.454 50.2297 117.921 49.6118 117.274 49.1299C116.628 48.6479 115.883 48.3135 115.093 48.1503C113.196 47.7131 111.692 50.3541 113.983 50.6164C115.422 50.8175 116.823 51.2362 118.137 51.8582C119.107 52.2955 119.326 51.8582 118.836 50.9837V50.94Z" fill="#141515"/>
<path fill-rule="evenodd" clip-rule="evenodd" d="M94.0265 48.7447C94.5059 48.2392 95.0902 47.8448 95.7384 47.5895C96.3865 47.3341 97.0828 47.224 97.7782 47.2668C99.4485 47.328 100.113 49.8903 98.1455 49.5755C96.9004 49.4122 95.6376 49.4447 94.4026 49.6717C93.5281 49.8116 93.4231 49.3744 94.0265 48.7447Z" fill="#141515"/>
<path fill-rule="evenodd" clip-rule="evenodd" d="M119.448 58.9593C119.052 58.1824 118.485 57.5051 117.79 56.9782C117.095 56.4512 116.29 56.0881 115.434 55.916C112.723 55.4787 111.009 56.7293 109.776 58.8281C108.421 62.1075 108.797 64.4686 110.45 66.1039C111.549 67.0428 112.923 67.5998 114.366 67.6912C115.809 67.7827 117.242 67.4037 118.451 66.6112C120.629 64.5561 120.55 61.8888 119.492 58.9593H119.448Z" fill="#FEFEFE"/>
<path fill-rule="evenodd" clip-rule="evenodd" d="M119.448 58.9592C119.052 58.1824 118.485 57.5051 117.79 56.9782C117.095 56.4512 116.29 56.0881 115.434 55.916C112.723 55.4787 111.009 56.7293 109.776 58.8281C109.421 59.6692 109.169 60.5501 109.024 61.4516C109.248 60.5428 109.695 59.7041 110.324 59.011C110.953 58.3179 111.744 57.7922 112.627 57.4813C113.686 57.1852 114.809 57.2099 115.853 57.5524C116.898 57.8949 117.817 58.5398 118.495 59.4052C119.534 60.9069 119.999 62.7315 119.807 64.5473C120.437 62.8945 120.174 60.9881 119.44 58.9592H119.448Z" fill="#CAE6F7"/>
<path fill-rule="evenodd" clip-rule="evenodd" d="M111.464 57.219C109.155 58.8805 108.176 63.3405 110.126 65.6142C111.186 66.6922 112.592 67.3613 114.096 67.5031C118.932 68.0628 120.848 64.0051 119.501 60.0261C118.399 56.7905 114.306 55.1639 111.464 57.219ZM111.307 56.397C108.814 58.2596 107.748 63.2181 109.846 65.7366C110.975 66.9357 112.501 67.6845 114.14 67.8442C119.387 68.4564 121.433 63.9264 119.982 59.5102C118.792 55.916 114.376 54.097 111.307 56.397Z" fill="#141515"/>
<path fill-rule="evenodd" clip-rule="evenodd" d="M114.56 58.9854H114.411C114.541 59.2081 114.608 59.4621 114.604 59.7199C114.586 60.0896 114.422 60.437 114.148 60.6862C113.874 60.9353 113.513 61.0658 113.143 61.0492C112.942 61.0417 112.744 60.9919 112.564 60.903C112.383 60.8141 112.223 60.6881 112.094 60.5332C111.933 60.8766 111.841 61.2478 111.823 61.6264C111.823 62.1403 111.975 62.6428 112.258 63.0714C112.542 63.5 112.945 63.8359 113.418 64.0374C113.891 64.2389 114.412 64.297 114.918 64.2047C115.423 64.1123 115.891 63.8735 116.262 63.5179C116.633 63.1623 116.891 62.7055 117.005 62.2043C117.118 61.7031 117.082 61.1796 116.901 60.6987C116.72 60.2177 116.401 59.8007 115.985 59.4992C115.569 59.1977 115.073 59.0251 114.56 59.0028V58.9854Z" fill="#141515"/>
<path fill-rule="evenodd" clip-rule="evenodd" d="M99.2648 57.717C98.539 55.968 97.5158 54.9449 95.9942 54.8749C95.0529 54.7557 94.0973 54.9149 93.2456 55.333C92.3938 55.7511 91.6833 56.4097 91.2019 57.2273C90.5034 58.143 90.1332 59.2669 90.1506 60.4184C90.1681 61.5699 90.5722 62.6821 91.2981 63.5762C92.846 65.78 95.3296 66.0948 97.8131 64.1097C99.2823 62.6317 99.9732 60.6116 99.2648 57.717Z" fill="#FEFEFE"/>
<path fill-rule="evenodd" clip-rule="evenodd" d="M99.2649 57.717C98.539 55.968 97.5159 54.9449 95.9942 54.8749C95.0529 54.7557 94.0973 54.9149 93.2456 55.333C92.3939 55.7511 91.6834 56.4097 91.202 57.2273C90.6453 58.0285 90.2912 58.9527 90.17 59.9208C90.4851 59.1108 90.9718 58.3788 91.5968 57.7749C92.2218 57.1711 92.9702 56.7098 93.7905 56.4228C94.5824 56.1814 95.43 56.1941 96.2142 56.4592C96.9985 56.7242 97.68 57.2284 98.163 57.9007C99.0212 59.143 99.3659 60.669 99.125 62.1595C99.6178 60.7499 99.6606 59.222 99.2474 57.787L99.2649 57.717Z" fill="#CAE6F7"/>
<path fill-rule="evenodd" clip-rule="evenodd" d="M97.9444 63.7249C95.7844 66.191 92.47 65.7887 90.9484 62.7891C90.4308 61.7276 90.2866 60.5225 90.5389 59.3687C90.7912 58.215 91.4254 57.1801 92.3388 56.4315C94.2628 54.7612 96.93 54.7962 98.3992 56.7463C99.8683 58.6965 99.4923 61.9933 97.9269 63.7424L97.9444 63.7249ZM98.2855 63.8735C95.8893 66.6107 92.1639 66.1735 90.5286 62.8329C89.9564 61.6508 89.7979 60.3107 90.0786 59.0277C90.3593 57.7448 91.0629 56.5933 92.0765 55.7581C94.2103 53.8954 97.1748 53.9304 98.8102 56.0992C100.445 58.268 100.017 61.8972 98.2855 63.8735Z" fill="#141515"/>
<path fill-rule="evenodd" clip-rule="evenodd" d="M94.8573 57.8398C94.8137 57.8442 94.7698 57.8442 94.7261 57.8398C94.8429 58.0382 94.9006 58.2657 94.8923 58.4957C94.8846 58.6601 94.844 58.8212 94.773 58.9696C94.7021 59.118 94.6021 59.2508 94.479 59.36C94.356 59.4692 94.2123 59.5527 94.0565 59.6055C93.9007 59.6583 93.7359 59.6794 93.5718 59.6676C93.393 59.6644 93.217 59.623 93.0555 59.5461C92.8941 59.4691 92.7511 59.3585 92.6361 59.2216C92.5022 59.5287 92.4252 59.8576 92.4087 60.1923C92.4072 60.6566 92.5426 61.1111 92.7981 61.4988C93.0535 61.8866 93.4176 62.1905 93.8448 62.3724C94.272 62.5543 94.7434 62.6062 95.2 62.5216C95.6566 62.437 96.0781 62.2197 96.4117 61.8968C96.7454 61.5739 96.9765 61.1598 97.0761 60.7062C97.1757 60.2527 97.1393 59.7799 96.9715 59.3469C96.8038 58.9139 96.5121 58.54 96.1329 58.272C95.7537 58.0039 95.304 57.8536 94.8398 57.8398H94.8573Z" fill="#141515"/>
<path fill-rule="evenodd" clip-rule="evenodd" d="M102.824 71.0532C111.674 71.2019 120.498 74.6912 125.465 82.3431C127.272 85.222 128.087 88.6133 127.785 91.9988C127.483 95.3844 126.082 98.5782 123.795 101.092C119.964 105.246 113.983 107.686 111.289 109.837C110.924 108.983 110.827 108.038 111.009 107.126C109.645 109.75 107.966 110.511 105.929 112.199C105.207 112.795 104.577 113.493 104.057 114.271C103.872 113.499 103.578 112.756 103.183 112.067C101.967 109.829 100.166 108.998 98.2679 107.336C97.469 106.642 96.7154 105.897 96.0117 105.106L94.2627 103.436C93.9305 104.604 93.8915 105.835 94.149 107.022C90.9746 104.503 88.3948 102.151 86.6283 98.4689C81.1014 86.9517 87.3454 70.8346 102.763 71.097L102.824 71.0532Z" fill="#FFF1B6"/>
<path fill-rule="evenodd" clip-rule="evenodd" d="M102.824 71.0532C103.463 71.0532 104.101 71.0532 104.748 71.1407C111.534 74.044 114.499 77.3322 117.332 84.6605C121.04 94.28 128.884 91.0619 123.454 79.7283C124.173 80.5557 124.833 81.4324 125.43 82.3518C127.237 85.2308 128.052 88.622 127.75 92.0076C127.448 95.3931 126.047 98.5869 123.76 101.101C119.929 105.255 113.948 107.695 111.254 109.846C110.889 108.992 110.792 108.046 110.975 107.135C109.61 109.759 107.931 110.52 105.894 112.207C105.172 112.804 104.542 113.502 104.022 114.28C103.837 113.507 103.543 112.765 103.148 112.076C101.932 109.837 100.131 109.007 98.233 107.345C97.4341 106.651 96.6805 105.906 95.9768 105.115L94.2278 103.445C93.8956 104.612 93.8566 105.844 94.1141 107.03C90.9396 104.512 88.3599 102.159 86.5934 98.4776C81.0665 86.9604 87.3105 70.8433 102.728 71.1057L102.824 71.0532Z" fill="#FFDD63"/>
<path d="M116.396 73.6943C120.271 75.5726 123.565 78.4645 125.928 82.0633C127.82 85.0188 128.669 88.5216 128.342 92.0151C128.033 95.5307 126.569 98.8452 124.179 101.442C121.626 104.197 118.18 106.191 115.33 107.852C114.039 108.548 112.797 109.331 111.613 110.196L111.114 110.581L110.826 110.012C110.645 109.652 110.524 109.265 110.467 108.867C109.648 109.871 108.691 110.754 107.625 111.49C107.179 111.831 106.751 112.181 106.252 112.557C105.903 112.845 105.579 113.161 105.281 113.502C104.994 113.828 104.728 114.173 104.486 114.534L103.812 115.531L103.559 114.359C103.479 114.007 103.371 113.661 103.235 113.327C103.097 112.967 102.936 112.617 102.754 112.277C101.962 110.963 100.882 109.845 99.5972 109.007C99.0638 108.604 98.5216 108.193 97.9531 107.695C97.3847 107.197 97.0786 106.925 96.7201 106.558C96.3615 106.191 95.9855 105.815 95.6532 105.43L94.63 104.433C94.63 104.722 94.5688 105.001 94.5601 105.308C94.5427 105.845 94.5927 106.383 94.7087 106.908L95.0236 108.333L93.8867 107.459C92.3308 106.277 90.8689 104.976 89.5142 103.567C88.1677 102.135 87.0498 100.504 86.1998 98.7313C84.7896 95.7564 84.1034 92.4901 84.1972 89.1992C84.2253 85.7313 85.1277 82.3265 86.8207 79.2998C88.5374 76.2631 91.1397 73.8224 94.2802 72.3038C96.9399 71.0609 99.8549 70.4617 102.789 70.5548C107.488 70.594 112.12 71.6721 116.353 73.7118L116.396 73.6943ZM102.815 71.5692C100.044 71.4884 97.2912 72.0575 94.7787 73.2308C91.828 74.6668 89.3869 76.9706 87.7827 79.8333C86.158 82.7056 85.2884 85.9431 85.2553 89.243C85.1898 92.3371 85.8487 95.4037 87.1793 98.1979C87.9882 99.8799 89.0499 101.428 90.3275 102.789C91.3348 103.855 92.4161 104.848 93.5631 105.762C93.5542 105.588 93.5542 105.412 93.5631 105.238C93.5838 104.569 93.6837 103.906 93.8605 103.261L94.0878 102.387L96.4228 104.669C96.7288 105.019 97.0699 105.378 97.4547 105.754C97.8394 106.13 98.233 106.497 98.644 106.855C99.055 107.214 99.7109 107.73 100.227 108.123C101.633 109.045 102.809 110.278 103.664 111.726C103.867 112.105 104.051 112.493 104.215 112.89L104.267 113.047C104.346 112.942 104.433 112.855 104.521 112.758C104.854 112.378 105.216 112.024 105.605 111.7C106.104 111.289 106.567 110.939 107.013 110.598C108.498 109.646 109.719 108.335 110.563 106.785L111.936 104.162L111.534 107.083C111.458 107.551 111.44 108.027 111.482 108.5C111.482 108.639 111.482 108.779 111.543 108.902C112.417 108.272 113.581 107.625 114.822 106.899C117.612 105.281 120.988 103.322 123.436 100.681C125.656 98.2443 127.008 95.1425 127.284 91.8577C127.588 88.6172 126.803 85.3677 125.054 82.623C122.8 79.1838 119.657 76.4188 115.959 74.6213C111.867 72.6454 107.386 71.603 102.842 71.5692H102.815Z" fill="#141515"/>
<path d="M120.104 93.1172C120.155 93.1688 120.216 93.2092 120.284 93.2355C120.351 93.2619 120.424 93.2738 120.496 93.2703C120.569 93.2668 120.64 93.2481 120.704 93.2154C120.769 93.1827 120.826 93.1367 120.872 93.0805C120.918 93.0242 120.951 92.9589 120.97 92.8889C120.989 92.8188 120.993 92.7456 120.981 92.674C120.97 92.6024 120.943 92.5339 120.904 92.4732C120.864 92.4124 120.812 92.3607 120.751 92.3214C120.193 91.8617 119.556 91.5062 118.871 91.272C118.228 91.0591 117.555 90.9528 116.877 90.9572C116.741 90.9594 116.611 91.0145 116.515 91.1108C116.419 91.207 116.364 91.337 116.361 91.4731C116.364 91.6093 116.419 91.7392 116.515 91.8355C116.611 91.9317 116.741 91.9868 116.877 91.9891C117.295 91.9842 117.712 92.0282 118.119 92.1202C115.968 96.6327 112.059 98.3642 106.812 97.9532C107.081 98.3334 107.473 98.6085 107.922 98.7315C108.167 100.699 108.657 101.88 109.873 102.728C112.041 104.25 115.391 103.069 116.939 101.093C118.486 99.1163 119.037 96.1867 119.011 92.4351C119.401 92.618 119.768 92.847 120.104 93.1172Z" fill="#141515"/>
<path fill-rule="evenodd" clip-rule="evenodd" d="M115.277 101.81C114.68 102.275 113.98 102.591 113.236 102.731C112.493 102.871 111.726 102.831 111.001 102.614C109.601 102.107 110.292 101.136 111.176 100.612C111.416 100.416 111.72 100.315 112.03 100.33C112.34 100.345 112.634 100.473 112.855 100.69C112.526 100.996 112.277 101.378 112.129 101.801C112.646 101.126 113.366 100.636 114.184 100.402C114.988 100.271 116.361 100.988 115.277 101.81Z" fill="#DD2A1B"/>
<path fill-rule="evenodd" clip-rule="evenodd" d="M114.21 81.7225C111.377 74.9975 106.462 70.9486 99.1162 70.0304C91.6742 69.3745 84.8531 70.2577 79.5448 74.8226C74.8925 78.9416 73.9043 83.8738 76.3704 89.5843C80.6817 96.4141 85.9899 98.3818 92.3825 95.0149C96.7551 98.8453 102.194 99.3875 109.103 95.5571C114.849 92.6363 116.195 87.8702 114.21 81.7225Z" fill="#FFF7E4"/>
<path fill-rule="evenodd" clip-rule="evenodd" d="M93.3794 95.8195L93.7117 95.6533C94.4356 96.2994 95.2272 96.8653 96.0729 97.3411C95.1155 96.9474 94.2107 96.4363 93.3794 95.8195ZM105.911 72.1029C104.164 71.3724 102.325 70.8868 100.445 70.66C93.0034 70.0129 86.1822 70.8961 80.874 75.4523C76.2129 79.5799 75.2072 84.5122 77.6996 90.2139C79.0569 92.5688 80.9693 94.5562 83.2701 96.0031C80.7428 95.0149 78.4429 92.8549 76.3703 89.5843C73.9042 83.8738 74.8924 78.9416 79.5797 74.8226C84.888 70.2577 91.7091 69.3745 99.1511 70.0304C101.525 70.2954 103.829 70.9982 105.946 72.1029H105.911Z" fill="#FEFEFE"/>
<path fill-rule="evenodd" clip-rule="evenodd" d="M114.21 81.7222C113.82 80.7964 113.376 79.8942 112.881 79.02L113.012 79.3348C114.997 85.4564 113.65 90.2399 107.896 93.1695C100.996 96.9648 95.5307 96.4576 91.1844 92.6273C85.1154 95.828 80.0258 94.2101 75.8369 88.1936C75.9943 88.6483 76.178 89.1118 76.3704 89.584C80.6817 96.4139 85.9899 98.3815 92.3825 95.0147C96.755 98.845 102.194 99.3872 109.103 95.5569C114.849 92.636 116.195 87.87 114.21 81.7222Z" fill="#FFED91"/>
<path fill-rule="evenodd" clip-rule="evenodd" d="M92.6974 77.5336C94.9087 76.9441 97.1588 76.5116 99.4311 76.2393C102.448 75.907 106.672 75.3648 107.302 78.0758C108.019 81.2852 104.32 84.7133 101.705 86.0425C96.895 88.4736 90.3362 88.8934 86.1299 85.168C84.783 83.9635 83.6634 82.5269 82.8243 80.9267C80.2007 76.2393 82.1684 74.5953 87.1968 75.7846C89.0836 76.237 90.9362 76.8215 92.7411 77.5336H92.6974Z" fill="#EDD16D"/>
<path fill-rule="evenodd" clip-rule="evenodd" d="M92.4875 76.6764C94.6266 76.0822 96.8073 75.6496 99.0113 75.3821C101.95 75.0323 106.007 74.5076 106.628 77.2098C107.31 80.4105 103.716 83.8473 101.18 85.1678C96.5102 87.6077 90.1613 88.0274 86.0599 84.3458C84.7485 83.1334 83.6594 81.7009 82.8417 80.1132C80.3494 75.4258 82.2208 73.773 87.0918 74.9623C88.9296 75.4164 90.7328 76.0009 92.4875 76.7113V76.6764Z" fill="#141515"/>
<path fill-rule="evenodd" clip-rule="evenodd" d="M98.2242 79.4575C97.7695 79.3351 97.5071 79.1077 97.6208 78.8366C97.8132 78.3469 99.3698 77.7172 100.507 77.5598C101.644 77.4024 102.885 78.3819 101.993 79.0815C101.469 79.4837 99.0025 79.6586 98.2242 79.4575Z" fill="#FEFEFE"/>
<path d="M90.4324 96.6936C89.5831 96.9699 88.7008 97.1316 87.8088 97.1746C85.6824 97.2713 83.5688 96.7973 81.6873 95.8016C79.5953 94.6781 77.8343 93.0258 76.5802 91.0093C75.3302 89.0229 74.6078 86.7504 74.4814 84.4068C74.37 82.3829 74.8018 80.3661 75.732 78.5651C77.6209 74.9972 81.4949 72.26 86.1385 70.6946C89.3984 69.617 92.8261 69.137 96.2565 69.2779C99.7107 69.3803 103.1 70.2432 106.182 71.8052C110.281 73.9177 113.38 77.5636 114.805 81.9495C116.012 85.5349 115.74 88.6044 114.385 91.1143C112.898 93.8777 110.126 95.9503 106.593 97.3232C104.238 98.2651 101.713 98.7087 99.1774 98.6262C97.0507 98.5616 94.9981 97.8305 93.3095 96.5362C92.9921 96.2718 92.6994 95.9791 92.435 95.6617C91.825 96.0884 91.1563 96.4242 90.4498 96.6586L90.4324 96.6936ZM91.7791 94.8746C91.5775 94.5738 91.3991 94.2581 91.2456 93.9302C90.7778 92.9102 90.4823 91.8198 90.3711 90.7032C91.1395 92.6368 92.36 94.3581 93.9304 95.7229C95.4408 96.8797 97.2758 97.5341 99.1774 97.5943C101.57 97.673 103.952 97.2531 106.173 96.3613C109.488 95.0758 112.068 93.1606 113.432 90.6245C114.656 88.3596 114.892 85.5699 113.782 82.2818C112.444 78.1467 109.523 74.7098 105.657 72.7235C102.719 71.2335 99.4886 70.4066 96.1953 70.3011C92.8957 70.1855 89.6022 70.6624 86.4708 71.709C82.0983 73.1869 78.3992 75.7667 76.6502 79.0811C75.8034 80.7236 75.4081 82.5614 75.5046 84.4068C75.6191 86.5808 76.2907 88.6887 77.4547 90.5283C78.6295 92.3725 80.2666 93.877 82.2033 94.8921C83.9216 95.7979 85.8512 96.2267 87.7913 96.1339C88.5876 96.1037 89.376 95.9654 90.135 95.7229C90.7339 95.5138 91.2994 95.2192 91.8141 94.8484L91.7791 94.8746Z" fill="#141515"/>
<path fill-rule="evenodd" clip-rule="evenodd" d="M105.605 89.9949C105.246 89.9949 104.967 89.5839 104.975 89.1204C104.946 89.0189 104.941 88.9121 104.961 88.8083C104.98 88.7045 105.023 88.6066 105.087 88.5223C105.15 88.438 105.233 88.3696 105.327 88.3226C105.421 88.2755 105.526 88.251 105.631 88.251C105.737 88.251 105.841 88.2755 105.935 88.3226C106.03 88.3696 106.112 88.438 106.176 88.5223C106.239 88.6066 106.282 88.7045 106.302 88.8083C106.321 88.9121 106.316 89.0189 106.287 89.1204C106.287 89.5927 105.972 89.9949 105.605 89.9949Z" fill="#EEA846"/>
<path d="M105.325 88.6132C105.22 88.7589 105.159 88.9321 105.15 89.1117C105.142 89.2941 105.191 89.4745 105.29 89.6276C105.325 89.6832 105.372 89.7296 105.429 89.7631C105.485 89.7965 105.548 89.8161 105.614 89.82C105.679 89.8187 105.743 89.8022 105.801 89.7718C105.858 89.7415 105.908 89.6981 105.946 89.6451C106.058 89.5031 106.12 89.3277 106.121 89.1467C106.127 88.9672 106.079 88.7902 105.981 88.6395C105.944 88.5861 105.896 88.5414 105.84 88.5082C105.784 88.475 105.722 88.4542 105.657 88.4471C105.593 88.4487 105.53 88.4644 105.473 88.4931C105.415 88.5218 105.365 88.5628 105.325 88.6132ZM105.666 88.106C105.784 88.1133 105.898 88.147 106.001 88.2045C106.104 88.262 106.193 88.3419 106.261 88.4383C106.401 88.6504 106.472 88.9012 106.462 89.1554C106.462 89.4138 106.373 89.6643 106.208 89.8638C106.141 89.9627 106.05 90.0429 105.943 90.0969C105.836 90.1509 105.717 90.177 105.597 90.1726C105.478 90.1682 105.361 90.1336 105.258 90.072C105.156 90.0103 105.07 89.9236 105.01 89.82C104.868 89.609 104.797 89.3574 104.809 89.1029C104.817 88.85 104.902 88.6056 105.054 88.4033C105.126 88.3097 105.219 88.234 105.325 88.1824C105.431 88.1308 105.548 88.1046 105.666 88.106Z" fill="#141515"/>
<path fill-rule="evenodd" clip-rule="evenodd" d="M82.0721 86.5756C81.8799 86.6382 81.7188 86.7715 81.6213 86.9486C81.5239 87.1256 81.4975 87.333 81.5474 87.5288C81.5362 87.6328 81.5491 87.7379 81.5851 87.836C81.621 87.9341 81.679 88.0227 81.7546 88.0949C81.8302 88.167 81.9214 88.2209 82.0211 88.2522C82.1208 88.2835 82.2264 88.2915 82.3297 88.2756C82.433 88.2596 82.5312 88.2202 82.6168 88.1602C82.7024 88.1003 82.7731 88.0215 82.8234 87.9299C82.8738 87.8383 82.9024 87.7363 82.907 87.6319C82.9117 87.5275 82.8923 87.4234 82.8504 87.3277C82.7804 86.8642 82.4306 86.5232 82.0721 86.5756Z" fill="#EEA846"/>
<path d="M81.801 86.9781C81.7199 87.1372 81.6894 87.3172 81.7136 87.4941C81.74 87.6752 81.8226 87.8434 81.9497 87.9751C81.9948 88.0234 82.0511 88.0598 82.1136 88.0811C82.1762 88.1025 82.243 88.1081 82.3082 88.0975C82.3712 88.0861 82.4307 88.0605 82.4822 88.0226C82.5337 87.9847 82.5759 87.9356 82.6055 87.8789C82.6814 87.7151 82.7087 87.533 82.6843 87.3542C82.6527 87.1747 82.5708 87.0079 82.4481 86.8732C82.4017 86.8294 82.3465 86.7958 82.2863 86.7747C82.226 86.7536 82.162 86.7455 82.0983 86.7508C82.0348 86.7637 81.975 86.7909 81.9235 86.8303C81.872 86.8697 81.8301 86.9202 81.801 86.9781ZM82.0459 86.4097C82.164 86.395 82.2839 86.4079 82.3962 86.4473C82.5084 86.4868 82.6101 86.5517 82.693 86.6371C82.873 86.8156 82.9871 87.0499 83.0166 87.3017C83.0575 87.5524 83.0177 87.8097 82.9029 88.0363C82.8487 88.1416 82.7707 88.2328 82.675 88.3026C82.5794 88.3725 82.4687 88.419 82.3519 88.4386C82.2357 88.4581 82.1165 88.4483 82.005 88.4102C81.8936 88.372 81.7934 88.3066 81.7136 88.2199C81.5324 88.0388 81.4136 87.8048 81.3743 87.5517C81.335 87.2986 81.3772 87.0395 81.4949 86.812C81.5491 86.7067 81.6271 86.6155 81.7228 86.5456C81.8184 86.4758 81.9291 86.4293 82.0459 86.4097Z" fill="#141515"/>
<path fill-rule="evenodd" clip-rule="evenodd" d="M109.313 92.0152C109.072 92.051 108.825 92.0117 108.607 91.9026C108.388 91.7935 108.209 91.62 108.093 91.4054C107.977 91.1909 107.929 90.9458 107.957 90.7034C107.985 90.461 108.086 90.233 108.248 90.0503C108.41 89.8676 108.624 89.7391 108.861 89.6822C109.098 89.6253 109.347 89.6428 109.574 89.7322C109.801 89.8217 109.995 89.9788 110.13 90.1822C110.265 90.3857 110.334 90.6257 110.327 90.8696C110.342 91.1553 110.244 91.4353 110.054 91.6495C109.864 91.8637 109.598 91.995 109.313 92.0152Z" fill="#EEA846"/>
<path d="M108.841 90.0736C108.679 90.2777 108.591 90.5304 108.591 90.7907C108.591 91.0511 108.679 91.3038 108.841 91.5078C108.905 91.5945 108.988 91.666 109.083 91.7173C109.178 91.7687 109.284 91.7986 109.392 91.8051C109.501 91.8055 109.609 91.7822 109.709 91.737C109.808 91.6917 109.897 91.6255 109.969 91.5428C110.136 91.3446 110.229 91.094 110.231 90.8344C110.246 90.577 110.168 90.3228 110.013 90.1174C109.949 90.0291 109.866 89.9559 109.771 89.903C109.676 89.8501 109.57 89.8188 109.462 89.8113C109.352 89.8091 109.243 89.8316 109.143 89.877C109.043 89.9224 108.955 89.9896 108.884 90.0736H108.841ZM109.427 89.4702C109.586 89.4752 109.742 89.5164 109.883 89.5907C110.024 89.6649 110.146 89.7703 110.24 89.8987C110.457 90.175 110.571 90.5187 110.562 90.8702C110.552 91.2216 110.42 91.5586 110.187 91.8226C110.082 91.9498 109.947 92.0502 109.795 92.1155C109.643 92.1809 109.478 92.2094 109.313 92.1987C109.153 92.1913 108.997 92.1491 108.855 92.0751C108.713 92.0011 108.589 91.897 108.491 91.7702C108.292 91.4955 108.191 91.1627 108.202 90.824C108.213 90.4853 108.336 90.1599 108.552 89.8987C108.658 89.7721 108.793 89.6721 108.945 89.6068C109.097 89.5415 109.262 89.5127 109.427 89.5227V89.4702Z" fill="#141515"/>
<path fill-rule="evenodd" clip-rule="evenodd" d="M103.489 94.49C103.232 94.4635 102.996 94.3365 102.832 94.1366C102.668 93.9368 102.59 93.6803 102.614 93.4231C102.608 93.1756 102.694 92.9347 102.856 92.7472C103.017 92.5597 103.243 92.439 103.489 92.4087C103.731 92.4601 103.948 92.595 104.101 92.7899C104.254 92.9847 104.334 93.2272 104.327 93.4749C104.32 93.7226 104.225 93.9599 104.061 94.1454C103.897 94.331 103.673 94.4529 103.428 94.49H103.489Z" fill="#EEA846"/>
<path d="M103.06 92.8111C102.907 92.9787 102.82 93.1963 102.815 93.4233C102.804 93.6533 102.875 93.8798 103.016 94.0616C103.072 94.136 103.143 94.1974 103.224 94.2412C103.306 94.285 103.396 94.3103 103.489 94.3152C103.584 94.3187 103.678 94.2999 103.765 94.2604C103.851 94.221 103.927 94.1619 103.987 94.0879C104.144 93.92 104.229 93.6969 104.223 93.467C104.236 93.2436 104.168 93.023 104.031 92.8461C103.975 92.7694 103.903 92.7061 103.82 92.6607C103.737 92.6153 103.645 92.589 103.55 92.5837C103.456 92.5823 103.364 92.602 103.279 92.6414C103.194 92.6808 103.119 92.7388 103.06 92.8111ZM103.559 92.2427C103.703 92.2491 103.844 92.2868 103.973 92.3533C104.101 92.4197 104.213 92.5133 104.302 92.6275C104.492 92.8778 104.585 93.1884 104.564 93.502C104.57 93.8237 104.454 94.1357 104.241 94.3765C104.147 94.4863 104.03 94.5738 103.899 94.6328C103.767 94.6918 103.624 94.7208 103.48 94.7175C103.336 94.7088 103.196 94.6691 103.07 94.6012C102.943 94.5333 102.832 94.4387 102.745 94.324C102.555 94.0734 102.459 93.7638 102.474 93.4495C102.479 93.1411 102.597 92.8452 102.807 92.6187C102.897 92.5081 103.013 92.4199 103.143 92.3607C103.273 92.3016 103.416 92.2732 103.559 92.2777V92.2427Z" fill="#141515"/>
<path fill-rule="evenodd" clip-rule="evenodd" d="M83.1827 90.6246C82.9512 90.7181 82.7607 90.891 82.6452 91.1124C82.5297 91.3337 82.497 91.589 82.5528 91.8324C82.6087 92.0757 82.7494 92.2911 82.9498 92.44C83.1502 92.5889 83.3971 92.6615 83.6462 92.6447C83.8889 92.5646 84.0902 92.3921 84.2064 92.1645C84.3226 91.9369 84.3445 91.6727 84.2671 91.4291C84.2282 91.1795 84.0927 90.9552 83.8898 90.8046C83.6869 90.6541 83.4329 90.5894 83.1827 90.6246Z" fill="#EEA846"/>
<path d="M82.7979 91.132C82.6988 91.3357 82.674 91.5677 82.728 91.7878C82.7813 92.0096 82.9038 92.2087 83.0778 92.3563C83.1521 92.4137 83.2384 92.4538 83.3303 92.4735C83.4222 92.4933 83.5173 92.4922 83.6087 92.4704C83.7001 92.4486 83.7855 92.4066 83.8586 92.3475C83.9316 92.2884 83.9905 92.2137 84.031 92.1289C84.1301 91.9251 84.1549 91.6931 84.1009 91.473C84.057 91.2499 83.9325 91.0507 83.7511 90.9133C83.6779 90.854 83.5922 90.8121 83.5004 90.7908C83.4086 90.7695 83.3131 90.7693 83.2213 90.7904C83.1294 90.8115 83.0436 90.8532 82.9702 90.9124C82.8969 90.9715 82.8379 91.0466 82.7979 91.132ZM83.139 90.4586C83.2796 90.4249 83.426 90.424 83.567 90.4558C83.708 90.4877 83.8398 90.5514 83.9523 90.6422C84.2015 90.8235 84.3733 91.092 84.4333 91.3943C84.5058 91.688 84.4717 91.9979 84.3371 92.2688C84.276 92.3996 84.186 92.5147 84.0739 92.6056C83.9618 92.6965 83.8305 92.7607 83.6899 92.7935C83.5492 92.8252 83.4032 92.8252 83.2626 92.7935C83.1219 92.7617 82.99 92.699 82.8766 92.6099C82.6316 92.4209 82.4612 92.1514 82.3957 91.849C82.3207 91.5555 82.3549 91.2448 82.4919 90.9745C82.5519 90.843 82.6415 90.7272 82.7538 90.6362C82.8661 90.5452 82.9979 90.4814 83.139 90.4498V90.4586Z" fill="#141515"/>
<path fill-rule="evenodd" clip-rule="evenodd" d="M79.4574 88.5522C79.2675 88.618 79.1108 88.7554 79.0209 88.9352C78.9311 89.115 78.9151 89.3227 78.9764 89.5141C78.9902 89.6143 79.024 89.7106 79.0758 89.7973C79.1276 89.8841 79.1964 89.9595 79.278 90.0191C79.3596 90.0787 79.4524 90.1212 79.5509 90.1442C79.6493 90.1671 79.7513 90.1699 79.8509 90.1525C80.0391 90.0866 80.1948 89.951 80.2859 89.7736C80.3771 89.5963 80.3966 89.3907 80.3406 89.1993C80.3083 88.9986 80.1986 88.8185 80.0352 88.6976C79.8718 88.5767 79.6675 88.5245 79.4661 88.5522H79.4574Z" fill="#EEA846"/>
<path d="M79.195 88.9806C79.1237 89.1335 79.1052 89.3058 79.1425 89.4703C79.1774 89.637 79.2704 89.7858 79.4049 89.8901C79.4582 89.9323 79.5203 89.9619 79.5866 89.977C79.6529 89.992 79.7217 89.9919 79.788 89.9768C79.8543 89.9617 79.9163 89.9319 79.9696 89.8897C80.0228 89.8474 80.0659 89.7938 80.0957 89.7327C80.1582 89.5835 80.1716 89.4183 80.1338 89.2611C80.0961 89.1038 80.0092 88.9627 79.8858 88.8582C79.8322 88.8157 79.7702 88.7852 79.7038 88.7686C79.6375 88.752 79.5684 88.7497 79.5011 88.762C79.4348 88.7825 79.3735 88.8163 79.3208 88.8614C79.2682 88.9066 79.2254 88.962 79.195 89.0243V88.9806ZM79.4224 88.3859C79.5393 88.3611 79.6602 88.3623 79.7766 88.3895C79.893 88.4167 80.0019 88.4692 80.0957 88.5434C80.2923 88.71 80.4201 88.9437 80.4543 89.1992C80.5158 89.4408 80.4846 89.6966 80.3668 89.9163C80.3154 90.0239 80.2409 90.1188 80.1487 90.1943C80.0566 90.2699 79.9489 90.3242 79.8334 90.3536C79.7179 90.3803 79.5979 90.38 79.4826 90.3527C79.3674 90.3253 79.2599 90.2718 79.1687 90.1962C78.9649 90.0476 78.8219 89.8301 78.7665 89.584C78.716 89.3398 78.7435 89.0859 78.8452 88.8582C78.9008 88.752 78.9776 88.6585 79.0709 88.5832C79.1641 88.508 79.2719 88.4528 79.3874 88.4209L79.4224 88.3859Z" fill="#141515"/>
<path d="M110.974 62.6842C112.438 62.7293 113.847 63.2469 114.992 64.1597C116.136 65.0726 116.954 66.3314 117.324 67.748C117.693 69.1646 117.594 70.6627 117.041 72.0183C116.488 73.3738 115.511 74.5139 114.256 75.2678C113.001 76.0218 111.536 76.3492 110.08 76.201C108.623 76.0528 107.254 75.4369 106.177 74.4456C105.099 73.4543 104.372 72.1409 104.103 70.7017C103.835 69.2626 104.04 67.7752 104.687 66.4621C104.108 66.1412 103.478 65.9251 102.824 65.8237C102.187 65.7394 101.54 65.778 100.918 65.9374C101.194 67.5399 100.886 69.1885 100.048 70.5823C99.2098 71.976 97.8987 73.0221 96.3537 73.5295C94.8086 74.0369 93.1326 73.9718 91.6316 73.3461C90.1305 72.7205 88.9045 71.5759 88.1772 70.1214C87.4499 68.6668 87.2699 66.9992 87.67 65.423C88.0701 63.8467 89.0236 62.4669 90.3566 61.5353C91.6895 60.6037 93.313 60.1824 94.9308 60.3484C96.5485 60.5144 98.0526 61.2565 99.1687 62.4394C99.6837 62.9949 100.106 63.6298 100.419 64.3195C101.273 64.0843 102.165 64.0248 103.043 64.1446C103.966 64.2638 104.856 64.5608 105.666 65.0191C105.815 64.853 105.964 64.6956 106.13 64.5382C106.78 63.928 107.544 63.4523 108.378 63.1386C109.213 62.825 110.101 62.6794 110.992 62.7104L110.974 62.6842ZM90.7472 63.3226C90.2399 63.7723 89.828 64.3192 89.5356 64.9308C89.2433 65.5425 89.0766 66.2065 89.0453 66.8837C89.014 67.5609 89.1187 68.2375 89.3534 68.8735C89.588 69.5096 89.9478 70.0921 90.4114 70.5867C90.875 71.0813 91.4331 71.4779 92.0526 71.7532C92.6721 72.0284 93.3406 72.1767 94.0184 72.1892C94.6962 72.2017 95.3696 72.0782 95.9989 71.826C96.6281 71.5738 97.2005 71.1981 97.682 70.7209C98.1893 70.2712 98.6013 69.7243 98.8936 69.1127C99.1859 68.501 99.3526 67.837 99.3839 67.1598C99.4152 66.4826 99.3105 65.806 99.0758 65.17C98.8412 64.5339 98.4814 63.9514 98.0178 63.4568C97.5542 62.9622 96.9961 62.5656 96.3766 62.2903C95.7571 62.0151 95.0887 61.8668 94.4108 61.8543C93.733 61.8418 93.0596 61.9653 92.4303 62.2175C91.8011 62.4697 91.2288 62.8454 90.7472 63.3226ZM107.293 65.7712C106.566 66.4565 106.058 67.3417 105.832 68.3152C105.607 69.2888 105.675 70.3071 106.028 71.2421C106.38 72.1771 107.002 72.9869 107.813 73.5695C108.625 74.1521 109.591 74.4815 110.59 74.5162C111.255 74.5381 111.917 74.4287 112.54 74.1944C113.163 73.9601 113.733 73.6055 114.219 73.1507C114.704 72.696 115.096 72.15 115.37 71.544C115.645 70.9381 115.797 70.284 115.819 69.619C115.841 68.9541 115.732 68.2914 115.497 67.6687C115.263 67.046 114.908 66.4756 114.454 65.99C113.999 65.5044 113.453 65.1131 112.847 64.8385C112.241 64.5639 111.587 64.4113 110.922 64.3895C109.579 64.3466 108.275 64.8371 107.293 65.7537V65.7712Z" fill="#141515"/>
<path d="M105.588 126.042C105.588 126.042 105.588 125.989 105.588 125.963C105.596 125.753 105.687 125.555 105.841 125.412C105.917 125.34 106.006 125.283 106.103 125.246C106.201 125.208 106.305 125.191 106.41 125.194C106.515 125.197 106.619 125.221 106.715 125.264C106.811 125.308 106.897 125.37 106.969 125.447C107.042 125.523 107.098 125.612 107.136 125.709C107.173 125.807 107.191 125.911 107.188 126.016H107.887C107.894 125.623 107.746 125.243 107.476 124.958C107.208 124.67 106.837 124.5 106.445 124.485C106.25 124.478 106.055 124.51 105.873 124.578C105.69 124.647 105.523 124.751 105.381 124.884C105.239 125.017 105.124 125.177 105.044 125.355C104.964 125.533 104.92 125.725 104.914 125.92C104.914 125.92 104.914 125.989 104.914 126.024L105.588 126.042Z" fill="#141515"/>
<path fill-rule="evenodd" clip-rule="evenodd" d="M83.4888 18.6357L85.4652 19.0118L84.2758 34.6741C84.821 35.0905 85.2509 35.6392 85.5248 36.2681C85.7987 36.8971 85.9076 37.5855 85.8412 38.2683C85.2815 41.8101 78.9239 41.7663 79.4049 37.6299C79.5055 36.9315 79.7672 36.266 80.1694 35.6862C80.5717 35.1064 81.1033 34.6282 81.7223 34.2893L83.4888 18.6357Z" fill="#544A43"/>
<path fill-rule="evenodd" clip-rule="evenodd" d="M81.7223 34.2893L83.4713 18.6357L84.5382 18.8369C84.5382 19.7114 84.5382 20.5422 84.4595 21.3904C84.3808 22.2387 84.2234 23.2706 84.1272 24.2238C84.031 25.177 83.9086 26.1827 83.8386 27.1796C83.8386 27.5207 83.7512 27.8705 83.6987 28.2203C83.4276 30.0568 83.2002 31.867 83.0603 33.7209C83.0078 34.3331 82.9204 34.9452 82.8154 35.5574C82.6347 35.8897 82.4598 36.2307 82.2907 36.5805C81.6163 37.7124 81.1845 38.9721 81.0227 40.2797C81.0227 40.3671 81.0227 40.4546 81.0227 40.5595C80.4489 40.3352 79.9723 39.9161 79.6765 39.3757C79.3807 38.8353 79.2846 38.2079 79.4049 37.6037C79.5055 36.9053 79.7673 36.2398 80.1695 35.66C80.5717 35.0802 81.1033 34.602 81.7223 34.2631V34.2893Z" fill="#7A6C63"/>
<path fill-rule="evenodd" clip-rule="evenodd" d="M83.6375 24.5649L82.8942 23.9527L83.4888 18.6357L85.4652 19.0118L84.9667 25.5968C84.5207 25.2557 84.0922 24.9147 83.6375 24.5649Z" fill="#352A23"/>
<path d="M86.0598 18.5568L84.8268 34.4466C85.3526 34.9395 85.7722 35.5347 86.0598 36.1956C86.3715 36.8762 86.4778 37.6329 86.3659 38.3731C86.2386 39.0908 85.896 39.7528 85.3838 40.2714C84.8715 40.7899 84.2136 41.1404 83.4975 41.2764C82.9789 41.397 82.4434 41.4265 81.9147 41.3639C81.4018 41.2975 80.9062 41.1342 80.4542 40.8829C79.8763 40.5742 79.4106 40.0911 79.1232 39.5023C78.8359 38.9134 78.7416 38.249 78.8539 37.6035C78.9582 36.8185 79.259 36.0726 79.7284 35.4347C80.1308 34.8572 80.6453 34.3664 81.2413 33.9918L82.9903 18.0146L85.5613 18.5044L86.0598 18.5568ZM82.247 34.6477L82.0021 34.7789C81.4503 35.0893 80.9751 35.5197 80.6116 36.0382C80.2656 36.5287 80.0436 37.0958 79.9645 37.691C79.8793 38.1183 79.9315 38.5618 80.1137 38.9576C80.296 39.3535 80.5988 39.6815 80.9789 39.8947C81.314 40.0796 81.6827 40.1956 82.0633 40.2358C82.4636 40.2869 82.8698 40.2632 83.2614 40.1658C83.7588 40.0767 84.2178 39.8396 84.5782 39.4854C84.9386 39.1312 85.1838 38.6765 85.2815 38.1807C85.3586 37.6507 85.2796 37.1098 85.0541 36.6241C84.8025 36.0399 84.4265 35.5176 83.9523 35.0937L83.7424 34.91L84.9142 19.4751L84.0397 19.3002L82.247 34.6477Z" fill="#261C17"/>
<path fill-rule="evenodd" clip-rule="evenodd" d="M145.045 16.8431L130.546 27.8968L129.269 33.3537C116.861 30.2624 103.867 30.413 91.5343 33.791L91.132 28.7975L81.7399 18.8107L82.0459 15.1378L115.627 0.612305L145.36 13.3975L145.045 16.8431Z" fill="#544A43"/>
<path fill-rule="evenodd" clip-rule="evenodd" d="M135.321 10.4417C131.298 8.60526 127.135 7.05739 123.078 5.1947C120.096 3.84797 117.122 2.50998 114.14 1.20697L115.627 0.612305L145.36 13.3975L145.211 14.8667C141.809 13.6599 138.617 11.9983 135.321 10.4942V10.4417Z" fill="#91847B"/>
<path fill-rule="evenodd" clip-rule="evenodd" d="M91.1758 26.4011C91.1714 26.3458 91.1714 26.2902 91.1758 26.2349C91.5868 26.13 92.6624 25.6403 93.0909 25.5703C93.2396 27.0395 93.7555 32.2165 93.913 33.1785C93.1084 33.3709 92.3214 33.572 91.5343 33.7906L91.132 28.7972L91.0271 28.6835C91.0883 27.949 91.1146 27.1881 91.1758 26.4011Z" fill="#91847B"/>
<path fill-rule="evenodd" clip-rule="evenodd" d="M129.147 24.6523L129.566 24.7398C130.09 24.9332 130.594 25.1763 131.071 25.4656C131.071 25.4656 131.071 25.5181 131.071 25.5356C130.835 26.1927 130.642 26.8646 130.493 27.5469C130.415 28.0454 130.353 28.5439 130.301 29.0423L129.295 33.3537C128.578 33.1875 127.87 33.0301 127.17 32.8902C127.17 32.7852 127.232 32.6803 127.258 32.5841C128.086 29.9897 128.726 27.3389 129.173 24.6523H129.147Z" fill="#91847B"/>
<path fill-rule="evenodd" clip-rule="evenodd" d="M82.0459 15.1378L115.627 0.612305L115.749 0.664775C115.618 2.09022 115.478 3.53315 115.469 4.96733L81.7573 18.5571L82.0459 15.1378Z" fill="#7A6D64"/>
<path fill-rule="evenodd" clip-rule="evenodd" d="M101.302 10.494C105.929 8.65756 110.581 6.57624 115.408 4.94092C116.178 5.29072 116.956 5.64052 117.708 5.99907C120.997 7.43856 124.357 8.71112 127.774 9.8119C131.114 10.9837 134.376 12.2867 137.621 13.6947C139.221 14.3943 140.813 15.1376 142.404 15.8372C143.217 16.1958 144.057 16.6418 144.923 16.9478L130.581 27.8879C130.529 27.3964 130.614 26.9001 130.826 26.4537C130.891 26.329 130.922 26.1888 130.914 26.0481C130.906 25.9073 130.861 25.7714 130.782 25.6546C130.703 25.5379 130.593 25.4448 130.466 25.3854C130.338 25.3259 130.196 25.3022 130.056 25.3168H129.995C128.839 25.0385 127.703 24.685 126.593 24.2587C125.605 23.9789 124.617 23.6903 123.62 23.4716C121.451 22.9819 119.247 22.4835 117.044 22.1774C112.692 21.6999 108.292 21.9302 104.013 22.8595C101.714 23.3055 99.4573 23.8827 97.2098 24.5123C96.0905 24.8359 94.9886 25.1857 93.8692 25.5005C93.1213 25.6219 92.3996 25.8704 91.7354 26.2351C91.4798 26.4169 91.2728 26.6587 91.1325 26.9393C90.9922 27.2198 90.923 27.5306 90.9309 27.8442V28.6137L81.7399 18.8105C88.1762 16.0384 94.5338 13.1088 101.302 10.5028V10.494Z" fill="#352A23"/>
<path d="M129.698 34.0269L129.147 33.8957C122.867 32.3886 116.427 31.6544 109.969 31.7095C103.785 31.7839 97.638 32.6659 91.6829 34.333L91.0271 34.5166L90.5898 29.0335L81.1539 19.0117L81.5125 14.7529L115.618 0L145.928 13.0476L145.579 17.1403L131.044 28.2202L129.698 34.0269ZM144.739 13.7472L115.627 1.21556L82.5794 15.5137L82.317 18.6094L91.6742 28.5613L92.0415 33.0737C97.8871 31.5024 103.907 30.6739 109.96 30.6076C116.32 30.5479 122.665 31.2496 128.858 32.6977L130.047 27.5993L144.503 16.5718L144.739 13.7472Z" fill="#261C17"/>
<path d="M81.9584 19.0639L115.391 5.31675L144.748 17.14L145.028 16.4404L115.382 4.51221L81.6698 18.3731L81.9584 19.0639Z" fill="#261C17"/>
<path d="M115.297 0.730945L114.993 4.93506L115.743 4.98935L116.047 0.78524L115.297 0.730945Z" fill="#261C17"/>
<path d="M129.531 32.7154L131.394 25.2559L131.079 25.1335C117.245 20.0526 103.751 20.4111 90.9483 26.2353L90.7122 26.349L90.9745 29.401L91.7178 29.3398L91.4992 26.8125C103.926 21.2507 117.043 20.9009 130.485 25.7631L128.788 32.5667L129.531 32.7154Z" fill="#261C17"/>
<path d="M23.1743 120.891H155.224C158.268 120.89 161.282 121.489 164.094 122.653C166.906 123.817 169.461 125.524 171.614 127.676C173.766 129.828 175.473 132.383 176.637 135.196C177.801 138.008 178.4 141.022 178.399 144.065C178.399 150.212 175.957 156.106 171.611 160.452C167.265 164.798 161.371 167.24 155.224 167.24H23.1743C17.0281 167.24 11.1336 164.798 6.78761 160.452C2.44158 156.106 1.6514e-06 150.212 1.6514e-06 144.065C-0.00114754 141.022 0.59749 138.008 1.7617 135.196C2.92591 132.383 4.63288 129.828 6.78504 127.676C8.93721 125.524 11.4924 123.817 14.3045 122.653C17.1167 121.489 20.1307 120.89 23.1743 120.891Z" fill="url(#paint1_linear_396_171)"/>
<path d="M23.4367 147.529C23.4396 147.317 23.4041 147.107 23.3318 146.908C23.2559 146.7 23.1261 146.516 22.9558 146.374C22.7157 146.173 22.4476 146.008 22.16 145.885C21.7221 145.673 21.269 145.495 20.8045 145.351C20.1591 145.137 19.5256 144.889 18.9068 144.608C18.3298 144.346 17.7842 144.021 17.2802 143.637C16.8174 143.28 16.4309 142.834 16.1434 142.325C15.8575 141.787 15.713 141.185 15.7236 140.576C15.7114 139.966 15.8591 139.363 16.1521 138.827C16.4469 138.303 16.8565 137.851 17.3502 137.507C17.903 137.11 18.5218 136.814 19.1779 136.632C19.9208 136.426 20.6893 136.326 21.4604 136.335C22.4529 136.314 23.4379 136.511 24.3462 136.912C25.1417 137.251 25.8243 137.809 26.3139 138.521C26.8028 139.242 27.0535 140.099 27.0309 140.97H23.4542C23.4613 140.623 23.3801 140.28 23.2181 139.973C23.0682 139.682 22.8292 139.446 22.536 139.3C22.1775 139.123 21.7808 139.039 21.3817 139.055C20.9899 139.041 20.5996 139.109 20.2361 139.256C19.9598 139.373 19.7209 139.563 19.5452 139.807C19.3907 140.027 19.3083 140.29 19.3091 140.559C19.3069 140.777 19.3709 140.99 19.4927 141.171C19.6407 141.372 19.8245 141.544 20.0349 141.678C20.3117 141.854 20.6045 142.003 20.9094 142.124C21.2865 142.284 21.6718 142.424 22.0638 142.544C22.7874 142.782 23.4919 143.074 24.1713 143.418C24.7404 143.696 25.2674 144.052 25.7367 144.477C26.1555 144.847 26.4896 145.303 26.7161 145.815C26.9476 146.347 27.0609 146.922 27.0484 147.502C27.0563 148.107 26.9246 148.706 26.6637 149.251C26.4008 149.774 26.0171 150.227 25.5443 150.572C25.0156 150.947 24.4229 151.223 23.7953 151.385C23.0556 151.575 22.294 151.666 21.5303 151.656C20.7661 151.657 20.005 151.56 19.2654 151.368C18.5511 151.19 17.8714 150.894 17.254 150.493C16.6589 150.089 16.1651 149.554 15.8111 148.928C15.4395 148.226 15.2558 147.439 15.2776 146.645H18.8893C18.8761 147.02 18.9355 147.395 19.0642 147.747C19.1629 148.031 19.3385 148.283 19.5714 148.473C19.8157 148.664 20.0995 148.799 20.4022 148.867C20.7725 148.948 21.1511 148.986 21.5303 148.98C21.9097 148.991 22.2873 148.926 22.6409 148.788C22.8924 148.673 23.1051 148.488 23.2531 148.254C23.3767 148.033 23.44 147.782 23.4367 147.529ZM37.3763 146.444H40.9618C40.9229 147.422 40.6208 148.37 40.0873 149.19C39.5611 149.993 38.8225 150.635 37.9535 151.044C36.9531 151.502 35.8615 151.726 34.7616 151.7C33.845 151.717 32.9345 151.547 32.0856 151.201C31.3234 150.872 30.6428 150.38 30.0917 149.759C29.5298 149.086 29.1103 148.307 28.8587 147.467C28.5592 146.49 28.4146 145.472 28.4302 144.45V143.637C28.4165 142.611 28.5671 141.59 28.8762 140.611C29.1433 139.771 29.5743 138.993 30.1442 138.32C30.6896 137.689 31.3714 137.189 32.138 136.86C32.9517 136.519 33.8269 136.349 34.7091 136.361C35.8457 136.324 36.9743 136.564 37.9972 137.061C38.855 137.494 39.5756 138.157 40.0785 138.976C40.5821 139.813 40.8816 140.757 40.953 141.731H37.3676C37.3752 141.246 37.2767 140.765 37.079 140.323C36.9037 139.934 36.5928 139.623 36.2045 139.448C35.7263 139.236 35.2055 139.137 34.6829 139.16C34.2817 139.153 33.8843 139.237 33.5198 139.404C33.1802 139.584 32.896 139.853 32.6977 140.183C32.4556 140.615 32.2899 141.085 32.208 141.573C32.1017 142.244 32.052 142.923 32.0593 143.602V144.477C32.0502 145.156 32.097 145.834 32.1993 146.505C32.2705 146.987 32.4275 147.452 32.6627 147.878C32.8561 148.214 33.1413 148.487 33.4848 148.665C33.8775 148.841 34.3053 148.925 34.7353 148.91C35.2085 148.922 35.679 148.836 36.117 148.657C36.4858 148.487 36.7918 148.206 36.9915 147.852C37.2376 147.423 37.37 146.939 37.3763 146.444ZM46.4886 136.58V151.499H42.8944V136.58H46.4886ZM59.2826 148.727V151.499H51.3334V148.727H59.2826ZM52.6102 136.58V151.499H49.016V136.58H52.6102ZM58.2595 142.544V145.167H51.3334V142.544H58.2595ZM59.3176 136.624V139.396H51.3334V136.624H59.3176ZM73.2222 136.624V151.543H69.6367L64.3897 142.255V151.543H60.7605V136.58H64.3547L69.6018 145.858V136.58L73.2222 136.624ZM83.9524 146.444H87.5378C87.4947 147.421 87.1929 148.368 86.6633 149.19C86.1371 149.993 85.3985 150.635 84.5295 151.044C83.5264 151.503 82.4317 151.727 81.3288 151.7C80.43 151.708 79.5385 151.539 78.7053 151.201C77.9458 150.872 77.268 150.379 76.7202 149.759C76.1556 149.087 75.7332 148.307 75.4784 147.467C75.1863 146.489 75.0447 145.471 75.0587 144.45V143.637C75.045 142.611 75.1956 141.59 75.5047 140.611C75.7684 139.77 76.1997 138.99 76.7727 138.32C77.3167 137.691 77.9951 137.192 78.7578 136.86C79.5718 136.52 80.4468 136.35 81.3288 136.361C82.4684 136.322 83.6002 136.562 84.6257 137.061C85.4827 137.492 86.201 138.156 86.6983 138.976C87.2055 139.811 87.5053 140.756 87.5728 141.731H83.9873C83.9862 141.247 83.8881 140.768 83.6988 140.323C83.5235 139.934 83.2125 139.623 82.8242 139.448C82.3429 139.236 81.8194 139.137 81.2939 139.16C80.8955 139.152 80.5007 139.236 80.1395 139.404C79.7981 139.582 79.5132 139.851 79.3175 140.183C79.0716 140.613 78.9057 141.084 78.8278 141.573C78.7137 142.243 78.661 142.922 78.6704 143.602V144.477C78.6635 145.156 78.7133 145.834 78.819 146.505C78.8877 146.986 79.0417 147.451 79.2738 147.878C79.4718 148.21 79.7558 148.482 80.0958 148.665C80.4888 148.84 80.9164 148.924 81.3463 148.91C81.8196 148.923 82.2902 148.837 82.7281 148.657C83.0962 148.486 83.4019 148.205 83.6026 147.852C83.8323 147.418 83.9524 146.935 83.9524 146.444ZM99.501 148.727V151.499H91.5518V148.727H99.501ZM92.8286 136.58V151.499H89.2344V136.58H92.8286ZM98.4779 142.5V145.167H91.5518V142.544L98.4779 142.5ZM99.536 136.58V139.352H91.5518V136.58H99.536ZM107.109 136.58L102.002 152.776H99.5448L104.652 136.58H107.109ZM116.047 147.529C116.049 147.317 116.014 147.107 115.942 146.908C115.863 146.701 115.733 146.518 115.566 146.374C115.324 146.171 115.052 146.006 114.761 145.885C114.326 145.673 113.876 145.495 113.414 145.351C112.768 145.139 112.135 144.891 111.517 144.608C110.937 144.346 110.388 144.021 109.881 143.637C109.421 143.278 109.035 142.832 108.745 142.325C108.459 141.787 108.314 141.185 108.325 140.576C108.315 139.965 108.466 139.362 108.762 138.827C109.054 138.301 109.464 137.849 109.96 137.507C110.511 137.111 111.126 136.815 111.779 136.632C112.525 136.426 113.296 136.326 114.07 136.335C115.063 136.314 116.048 136.511 116.956 136.912C117.752 137.251 118.434 137.809 118.924 138.521C119.413 139.242 119.663 140.099 119.641 140.97H116.064C116.071 140.623 115.99 140.28 115.828 139.973C115.678 139.682 115.439 139.446 115.146 139.3C114.784 139.124 114.385 139.04 113.983 139.055C113.594 139.041 113.206 139.109 112.846 139.256C112.568 139.371 112.329 139.562 112.155 139.807C111.997 140.025 111.914 140.289 111.919 140.559C111.917 140.777 111.981 140.99 112.103 141.171C112.251 141.372 112.434 141.544 112.645 141.678C112.922 141.854 113.214 142.003 113.519 142.124C113.896 142.286 114.281 142.426 114.674 142.544C115.397 142.783 116.101 143.076 116.781 143.418C117.35 143.696 117.877 144.052 118.347 144.477C118.769 144.857 119.105 145.325 119.331 145.847C119.558 146.369 119.669 146.933 119.658 147.502C119.662 148.107 119.531 148.704 119.274 149.251C119.008 149.772 118.625 150.224 118.154 150.572C117.624 150.945 117.032 151.221 116.405 151.385C115.665 151.575 114.904 151.666 114.14 151.656C113.376 151.657 112.615 151.56 111.875 151.368C111.16 151.191 110.48 150.896 109.864 150.493C109.229 150.078 108.713 149.505 108.367 148.831C108.02 148.156 107.855 147.403 107.888 146.645H111.49C111.482 147.02 111.541 147.394 111.665 147.747C111.772 148.03 111.95 148.28 112.181 148.473C112.425 148.666 112.709 148.8 113.012 148.867C113.382 148.949 113.761 148.987 114.14 148.98C114.517 148.992 114.892 148.926 115.242 148.788C115.496 148.673 115.711 148.488 115.863 148.254C115.995 148.034 116.07 147.785 116.082 147.529H116.047ZM128.718 136.58V151.499H125.124V136.58H128.718ZM133.213 136.58V139.352H120.769V136.58H133.213ZM145.001 148.727V151.499H137.052V148.727H145.001ZM138.338 136.58V151.499H134.735V136.58H138.338ZM143.978 142.5V145.167H137.052V142.544L143.978 142.5ZM145.036 136.58V139.352H137.052V136.58H145.036ZM148.263 136.58H151.193L154.525 146.96L157.857 136.58H160.786L155.714 151.499H153.335L148.263 136.58ZM146.514 136.58H149.54L150.109 148.01V151.508H146.506L146.514 136.58ZM159.571 136.58H162.658V151.499H159.055V148.001L159.571 136.58Z" fill="white"/>
<path fill-rule="evenodd" clip-rule="evenodd" d="M13.4236 131.35C10.4591 133.466 8.6576 135.889 6.42761 138.923C7.49606 135.581 9.28749 132.514 11.6746 129.942C15.9947 125.517 21.2942 125.29 27.1009 125.124C44.2149 124.643 62.081 125.071 80.052 124.984C62.1947 125.937 44.6521 126.086 26.8648 127.467C21.1368 127.905 18.2509 127.896 13.4061 131.35H13.4236Z" fill="#FEFEFE"/>
</g>
<defs>
<linearGradient id="paint0_linear_396_171" x1="45.6841" y1="9.11253" x2="136.974" y2="165.754" gradientUnits="userSpaceOnUse">
<stop stop-color="#F6E002"/>
<stop offset="0.93" stop-color="#F7B200"/>
</linearGradient>
<linearGradient id="paint1_linear_396_171" x1="89.1993" y1="120.882" x2="89.1993" y2="167.231" gradientUnits="userSpaceOnUse">
<stop stop-color="#9569EF"/>
<stop offset="1" stop-color="#6938CC"/>
</linearGradient>
<clipPath id="clip0_396_171">
<rect width="178.399" height="167.24" fill="white"/>
</clipPath>
</defs>
</svg>
