<svg width="179" height="168" viewBox="0 0 179 168" fill="none" xmlns="http://www.w3.org/2000/svg">
<path d="M90.9484 167.24C135.382 167.24 171.403 131.219 171.403 86.7854C171.403 42.3517 135.382 6.33105 90.9484 6.33105C46.5148 6.33105 10.4941 42.3517 10.4941 86.7854C10.4941 131.219 46.5148 167.24 90.9484 167.24Z" fill="#FFF27A"/>
<path d="M90.9482 160.244C131.518 160.244 164.407 127.355 164.407 86.7854C164.407 46.2155 131.518 13.3271 90.9482 13.3271C50.3784 13.3271 17.49 46.2155 17.49 86.7854C17.49 127.355 50.3784 160.244 90.9482 160.244Z" fill="url(#paint0_linear_584_425)"/>
<path d="M151.744 92.3387L42.2649 141.766C43.7049 143.048 45.1945 144.275 46.7336 145.447L153.913 97.0698C154.276 96.967 154.612 96.7872 154.899 96.5426C155.186 96.298 155.417 95.9943 155.576 95.6524C155.735 95.3105 155.819 94.9383 155.821 94.5611C155.823 94.184 155.744 93.8108 155.589 93.4671C155.434 93.1233 155.207 92.817 154.922 92.569C154.638 92.321 154.304 92.1372 153.942 92.0302C153.581 91.9231 153.2 91.8952 152.827 91.9485C152.454 92.0017 152.096 92.1348 151.779 92.3387H151.744ZM147.914 104.459L50.8438 148.298C52.5928 149.444 54.4205 150.537 56.2832 151.534L150.082 109.19C150.611 108.85 151.001 108.332 151.179 107.728C151.358 107.125 151.314 106.478 151.055 105.905C150.797 105.332 150.341 104.87 149.771 104.605C149.2 104.34 148.554 104.288 147.949 104.459H147.914ZM153.913 80.9177L35.1902 134.577C36.3707 135.959 37.6038 137.306 38.8893 138.6L156.073 85.6488C156.43 85.5399 156.761 85.3559 157.041 85.1089C157.322 84.862 157.547 84.558 157.7 84.2171C157.854 83.8763 157.933 83.5066 157.932 83.1327C157.931 82.7589 157.85 82.3895 157.695 82.0494C157.54 81.7093 157.314 81.4063 157.032 81.1608C156.75 80.9152 156.419 80.7327 156.061 80.6256C155.702 80.5184 155.326 80.4891 154.955 80.5394C154.585 80.5898 154.229 80.7188 153.913 80.9177ZM154.298 49.6455L21.1719 109.75C21.7141 111.406 22.3146 113.032 22.9734 114.63L156.799 54.2192C156.029 52.6625 155.198 51.1409 154.324 49.6455H154.298ZM161.617 69.7591C161.328 69.1365 160.805 68.6523 160.163 68.4103C159.52 68.1684 158.809 68.1879 158.18 68.4648L29.366 126.803C30.3279 128.281 31.3336 129.724 32.4005 131.175L160.34 73.2221C160.973 72.9342 161.466 72.4069 161.71 71.7559C161.955 71.1049 161.931 70.3836 161.643 69.7503L161.617 69.7591ZM158.53 58.0232L24.6961 118.539C25.4482 120.113 26.2702 121.635 27.1272 123.139L160.41 62.8767C159.842 61.2152 159.23 59.6061 158.556 58.0145L158.53 58.0232Z" fill="#E58E0E"/>
<path d="M66.7247 123.935L61.1628 134.673L69.1908 137.612L84.4858 128.552L76.4492 125.622L66.7247 123.935Z" fill="#196A7F"/>
<path d="M57.2101 89.383C66.9083 77.1837 65.6928 60.0784 54.4991 51.176C43.3055 42.2735 26.3576 44.9407 16.6594 57.1401C6.96115 69.3394 8.17671 86.4447 19.3704 95.3209C30.564 104.197 47.5031 101.582 57.2101 89.383Z" fill="#9FE6FF"/>
<path d="M17.2366 49.6016C5.76309 64.0309 5.76309 94.3324 23.6117 104.791C31.6047 109.461 40.0261 108.832 48.7712 106.986C49.8674 106.756 51.0089 106.886 52.0243 107.359C53.0398 107.833 53.8745 108.622 54.403 109.61L69.1733 137.594L84.5034 128.552L77.8309 115.574L72.8462 106.024C71.0972 102.693 67.9665 99.2733 68.7798 95.2244C69.7068 90.677 74.0268 86.8379 75.6097 82.3954C77.1163 78.3129 77.6435 73.9337 77.1488 69.6102C75.9526 61.4527 71.6312 54.08 65.0981 49.0506C51.6745 38.338 28.7101 35.181 17.2366 49.6016ZM60.2009 88.0797C52.4616 97.8129 38.9767 99.9729 30.0918 92.8982C21.2068 85.8235 20.2536 72.1725 27.9842 62.4393C35.7148 52.706 49.2172 50.546 58.1109 57.6208C67.0045 64.6955 67.9403 78.3115 60.2009 88.0447V88.0797Z" fill="#B526A8"/>
<path d="M68.2112 69.8732C67.1006 69.3834 65.9987 68.8587 64.8969 68.3428C65.6588 71.7656 65.6353 75.3167 64.828 78.7291C64.0207 82.1416 62.4506 85.3267 60.2358 88.0453C58.909 89.7119 57.3716 91.1993 55.6621 92.4703C58.0408 93.6946 60.4194 94.9627 62.8418 96.2394C65.0018 97.385 67.2143 98.5044 69.3393 99.6587C68.7442 98.2829 68.5619 96.7638 68.8146 95.2862C69.7416 90.7301 74.0617 86.8997 75.6445 82.4485C76.6231 79.7835 77.2121 76.9914 77.3935 74.1582C74.3328 72.6278 71.2632 71.2374 68.2112 69.8732Z" fill="#84107E"/>
<path d="M11.9719 52.8638C0.480968 67.3369 2.09006 87.6603 15.5312 98.3468C19.045 101.11 23.1295 103.056 27.4885 104.045C31.8476 105.034 36.3722 105.042 40.7344 104.066C41.8347 103.821 42.9849 103.946 44.0075 104.42C45.03 104.894 45.8681 105.692 46.3924 106.69L61.1628 134.674L76.4491 125.675L69.7854 112.636L64.8007 103.095C63.0517 99.7635 59.921 96.3354 60.7342 92.2865C61.6087 87.7478 65.9813 83.9087 67.5554 79.4662C69.0578 75.3705 69.5819 70.9803 69.0858 66.646C67.8972 58.5013 63.5923 51.1363 57.0788 46.1039C43.6377 35.4088 23.4454 38.4783 11.9719 52.8638ZM52.1991 85.1155C44.4685 94.84 30.9836 97 22.0899 89.934C13.1962 82.8681 12.243 69.2346 19.9649 59.4663C27.6868 49.6981 41.1804 47.5818 50.0741 54.6478C58.9678 61.7138 59.9035 75.3823 52.1641 85.1155H52.1991Z" fill="#EF78DE"/>
<path d="M49.0509 62.1685C38.2333 50.3278 42.1423 86.0075 42.1423 86.0075C42.1423 86.0075 58.3993 72.409 49.0509 62.1685Z" fill="white"/>
<path d="M82.868 126.042C82.5823 125.94 82.2902 125.859 81.9935 125.797C81.259 125.623 80.4897 125.669 79.781 125.928L79.5798 126.042H82.868Z" fill="#141515"/>
<path fill-rule="evenodd" clip-rule="evenodd" d="M97.7783 126.042C101.005 120.795 102.842 114.674 98.714 111.849C95.9068 109.934 92.3126 110.73 90.0389 112.89C87.7652 115.05 86.7683 118.644 85.9375 120.83C85.3095 122.46 84.4237 123.977 83.314 125.325C83.1251 125.527 82.9924 125.774 82.9292 126.042H97.7783Z" fill="#B0172C"/>
<path fill-rule="evenodd" clip-rule="evenodd" d="M85.0368 126.042L85.5702 125.308C86.8291 123.347 87.7595 121.193 88.3249 118.933C88.9721 116.659 89.8378 113.685 91.5519 111.735C91.0064 112.045 90.5013 112.421 90.0477 112.855C87.739 115.032 86.7771 118.609 85.9463 120.795C85.3183 122.424 84.4325 123.942 83.3228 125.29C83.1339 125.491 83.0012 125.739 82.938 126.007L85.0368 126.042Z" fill="#FF8797"/>
<path fill-rule="evenodd" clip-rule="evenodd" d="M91.4642 126.042H94.6649L94.7436 123.06C92.0484 121.759 89.2019 120.799 86.2697 120.2L85.5701 121.949C87.949 122.591 90.032 124.037 91.4642 126.042Z" fill="#8C0013"/>
<path fill-rule="evenodd" clip-rule="evenodd" d="M92.6974 121.556C93.0231 122.953 93.2366 124.375 93.3357 125.806C93.3265 125.84 93.3265 125.877 93.3357 125.911C93.3314 125.943 93.3314 125.975 93.3357 126.007H97.7083C100.926 120.76 102.763 114.639 98.6352 111.814C95.8281 109.899 92.2339 110.695 89.9602 112.855C89.565 113.229 89.2049 113.639 88.8845 114.079C91.1058 115.854 92.1464 119.09 92.6974 121.556Z" fill="#8A0214"/>
<path d="M83.4976 126.042C83.5599 125.9 83.6424 125.768 83.7425 125.649C84.0311 125.299 84.2934 124.941 84.547 124.582C85.5755 124.924 86.5479 125.416 87.4329 126.042H89.0769C87.9334 124.997 86.5883 124.197 85.1242 123.69L85.3078 123.384C85.7398 122.624 86.1111 121.832 86.4184 121.014C86.5321 120.726 86.6895 120.288 86.8469 119.825C87.599 117.726 88.596 114.997 90.345 113.257C91.4696 112.19 92.9074 111.513 94.4464 111.325C95.8474 111.146 97.2653 111.485 98.4341 112.278C99.097 112.72 99.6383 113.321 100.008 114.027C100.883 115.671 100.725 117.84 100.008 120.148C99.3187 122.217 98.3727 124.191 97.1923 126.025H98.4079C99.4939 124.275 100.374 122.406 101.031 120.454C101.827 117.901 101.967 115.461 100.97 113.546C100.525 112.68 99.8659 111.942 99.055 111.403C97.6825 110.469 96.0145 110.07 94.3677 110.284C92.6263 110.508 91.0022 111.283 89.7328 112.496C87.7215 114.403 86.707 117.262 85.9375 119.492L85.4565 120.682C85.164 121.445 84.8131 122.185 84.4071 122.894C83.9797 123.644 83.4882 124.355 82.9379 125.019C82.6734 125.313 82.5003 125.678 82.4395 126.069L83.4976 126.042Z" fill="#141515"/>
<path fill-rule="evenodd" clip-rule="evenodd" d="M95.2072 126.042H130.135C129.737 120.937 128.739 115.898 127.162 111.027C122.842 98.259 93.1259 101.6 94.6038 113.956C95.0747 117.967 95.2763 122.004 95.2072 126.042Z" fill="#1B9DD4"/>
<path fill-rule="evenodd" clip-rule="evenodd" d="M95.2072 126.042H96.6589C96.5802 123.602 96.3528 121.189 96.1342 118.731C95.9836 116.862 95.7325 115.003 95.3821 113.161C95.2334 112.356 95.0673 111.56 94.9536 110.756C94.5875 111.781 94.4677 112.877 94.6038 113.957C95.0747 117.967 95.2763 122.005 95.2072 126.042Z" fill="#7FD9FF"/>
<path fill-rule="evenodd" clip-rule="evenodd" d="M94.9011 116.86C95.7761 117.543 96.5402 118.357 97.1661 119.274C98.5493 121.763 100.281 124.043 102.308 126.043H102.413L106.523 121.994L110.354 125.282C114.42 122.606 122.894 113.222 124.888 108.666C124.944 108.529 125.028 108.405 125.135 108.303C125.242 108.201 125.369 108.122 125.509 108.072C117.936 98.9067 93.2571 102.658 94.6038 113.948C94.7175 114.928 94.8137 115.89 94.9011 116.86Z" fill="#037CB0"/>
<path d="M94.6911 126.042H95.723C95.7926 121.984 95.591 117.926 95.1196 113.895C94.7611 110.826 96.4839 108.333 99.2823 106.558C101.492 105.246 103.927 104.356 106.462 103.935C109.216 103.425 112.032 103.334 114.813 103.664C120.288 104.319 125.159 106.733 126.672 111.219C128.238 116.041 129.227 121.031 129.619 126.086H130.659C130.268 120.914 129.267 115.806 127.677 110.869C126.016 105.946 120.804 103.322 114.962 102.614C112.076 102.274 109.154 102.368 106.296 102.894C103.63 103.347 101.073 104.297 98.7576 105.692C95.6268 107.669 93.6942 110.493 94.1227 114.018C94.5817 118.009 94.7716 122.026 94.6911 126.042Z" fill="#141515"/>
<path fill-rule="evenodd" clip-rule="evenodd" d="M131.796 126.043C131.726 122.964 131.691 119.921 131.7 116.843L113.169 121.906C113.003 123.279 112.863 124.661 112.723 126.043H131.796Z" fill="#B0172C"/>
<path fill-rule="evenodd" clip-rule="evenodd" d="M124.923 126.042C124.87 124.608 124.757 123.182 124.634 121.783C120.818 122.853 116.879 123.424 112.916 123.48L112.688 126.042H124.923Z" fill="#8A0214"/>
<path fill-rule="evenodd" clip-rule="evenodd" d="M113.965 126.042C114.105 124.547 114.263 123.051 114.429 121.564L113.169 121.906C113.003 123.278 112.863 124.66 112.723 126.042H113.965Z" fill="#FF8797"/>
<path d="M113.257 126.042C113.379 124.792 113.502 123.55 113.65 122.317L131.14 117.516C131.14 120.361 131.175 123.203 131.245 126.042H132.269C132.21 122.976 132.178 119.915 132.172 116.86C132.181 116.811 132.181 116.761 132.172 116.711C132.156 116.645 132.127 116.583 132.086 116.529C132.045 116.474 131.994 116.429 131.935 116.394C131.877 116.36 131.812 116.338 131.744 116.329C131.677 116.321 131.608 116.326 131.543 116.344L113.056 121.399C112.949 121.421 112.853 121.476 112.779 121.556C112.706 121.636 112.659 121.737 112.645 121.845C112.479 123.235 112.33 124.634 112.19 126.042H113.257Z" fill="#141515"/>
<path fill-rule="evenodd" clip-rule="evenodd" d="M106.165 117.848C110.972 114.599 116.021 111.722 121.267 109.243C118.453 114.143 114.724 118.456 110.283 121.95L106.165 117.848Z" fill="#FEFEFE"/>
<path fill-rule="evenodd" clip-rule="evenodd" d="M117.516 114.009C116.309 114.814 115.032 115.452 113.773 116.169C111.772 117.163 109.931 118.448 108.307 119.982L106.165 117.848C110.972 114.599 116.021 111.722 121.267 109.243C120.504 110.616 119.654 111.94 118.722 113.205C118.32 113.467 117.927 113.747 117.516 114.009Z" fill="#A8C9DD"/>
<path d="M112.916 113.03C115.478 111.587 118.163 110.17 121.031 108.78L122.5 108.054L121.713 109.497C120.405 111.854 118.851 114.067 117.078 116.099C115.108 118.369 112.943 120.461 110.607 122.352L110.249 122.649L105.36 117.778L105.876 117.428C107.992 115.942 110.362 114.473 112.916 113.056V113.03ZM110.292 121.259C112.457 119.489 114.47 117.541 116.309 115.435C117.658 113.884 118.878 112.226 119.956 110.476C117.673 111.63 115.478 112.776 113.432 113.974C111.114 115.286 108.946 116.598 106.987 117.971L110.292 121.259Z" fill="#141515"/>
<path fill-rule="evenodd" clip-rule="evenodd" d="M96.7375 113.266C100.264 114.26 103.523 116.028 106.278 118.443C104.856 119.905 103.524 121.452 102.291 123.078C99.7632 120.239 97.87 116.894 96.7375 113.266Z" fill="#FEFEFE"/>
<path fill-rule="evenodd" clip-rule="evenodd" d="M98.7576 117.463L98.2767 117.148C97.6461 115.904 97.1309 114.604 96.7375 113.266C100.264 114.26 103.523 116.028 106.278 118.443C105.64 119.107 105.028 119.781 104.433 120.454C102.598 119.352 100.704 118.354 98.7576 117.463Z" fill="#A8C9DD"/>
<path d="M102.238 114.971C103.821 115.81 105.291 116.847 106.611 118.058L106.995 118.416L106.637 118.792C105.911 119.553 105.212 120.314 104.547 121.092C103.882 121.871 103.27 122.614 102.693 123.392L102.308 123.908L101.888 123.41C100.569 121.905 99.3978 120.277 98.3904 118.548C97.4645 116.925 96.7253 115.203 96.1866 113.414L95.9155 112.479L96.8338 112.767C98.6815 113.336 100.473 114.074 102.186 114.971H102.238ZM97.5421 114.096C98.002 115.468 98.5875 116.794 99.2911 118.058C100.147 119.545 101.127 120.958 102.221 122.282C102.693 121.67 103.2 121.057 103.734 120.445C104.267 119.833 104.888 119.142 105.483 118.495C104.324 117.492 103.053 116.627 101.696 115.915C100.346 115.194 98.9394 114.586 97.4896 114.096H97.5421Z" fill="#141515"/>
<path fill-rule="evenodd" clip-rule="evenodd" d="M133.117 126.042C131.453 125.286 129.614 125.002 127.8 125.22C126.933 125.243 126.094 125.529 125.395 126.042H133.117Z" fill="#FFB342"/>
<path fill-rule="evenodd" clip-rule="evenodd" d="M133.047 126.042C131.386 125.278 129.544 124.994 127.73 125.22C126.862 125.236 126.021 125.523 125.325 126.042H133.047Z" fill="#EA8D13"/>
<path d="M126.173 126.042C126.663 125.814 127.185 125.664 127.721 125.596C128.761 125.465 129.815 125.504 130.843 125.71C131.262 125.791 131.674 125.902 132.076 126.042H134.525L134.42 125.972C133.373 125.349 132.224 124.917 131.027 124.695C129.892 124.474 128.729 124.432 127.581 124.573C126.42 124.649 125.334 125.176 124.555 126.042H126.173Z" fill="#141515"/>
<path fill-rule="evenodd" clip-rule="evenodd" d="M124.713 126.042H137.454C137.158 121.2 135.873 116.471 133.677 112.146C128.657 102.264 120.97 108.385 123.655 116.448C124.618 119.549 124.977 122.806 124.713 126.042Z" fill="#B0172C"/>
<path fill-rule="evenodd" clip-rule="evenodd" d="M124.713 126.042H127.1C127.03 125.317 126.96 124.582 126.89 123.865C126.613 121.867 126.643 119.838 126.978 117.848C127.599 114.761 130.24 112.348 133.178 111.228C128.167 102.667 121.057 108.605 123.655 116.475C124.615 119.568 124.974 122.815 124.713 126.042Z" fill="#8A0214"/>
<path fill-rule="evenodd" clip-rule="evenodd" d="M134.053 118.189C134.816 120.764 135.368 123.396 135.705 126.06H137.454C137.159 121.218 135.873 116.489 133.677 112.164C132.374 109.61 130.904 108.124 129.47 107.468C129.995 108.342 130.467 109.217 130.939 110.091C132.245 112.68 133.288 115.393 134.053 118.189Z" fill="#FF8797"/>
<path fill-rule="evenodd" clip-rule="evenodd" d="M124.512 119.955C128.085 118.107 132.134 117.385 136.125 117.883L137.148 122.579C133.372 122.149 129.549 122.446 125.885 123.453L124.73 123.663L124.512 119.955Z" fill="#8A0214"/>
<path d="M128.342 107.616C129.934 107.922 131.683 109.365 133.222 112.374C134.658 115.197 135.7 118.204 136.318 121.311C136.622 122.874 136.826 124.454 136.93 126.042H137.979C137.873 124.386 137.657 122.738 137.332 121.11C136.691 117.921 135.617 114.835 134.14 111.936C132.452 108.605 130.467 107.258 128.587 106.882C127.996 106.795 127.393 106.843 126.823 107.024C126.253 107.204 125.732 107.511 125.299 107.922C126.25 107.482 127.322 107.374 128.342 107.616Z" fill="#141515"/>
<path d="M124.232 126.042H126.025C125.762 126.042 125.509 125.946 125.238 125.911C125.26 125.272 125.242 124.632 125.185 123.996C127.377 123.715 129.604 123.934 131.7 124.634C132.737 124.98 133.727 125.453 134.647 126.042H136.396C135.089 124.995 133.609 124.184 132.024 123.646C129.792 122.903 127.422 122.67 125.089 122.964C124.861 120.568 124.389 117.673 123.821 116.912C124.066 118.381 124.564 123.698 124.232 126.042Z" fill="#141515"/>
<path fill-rule="evenodd" clip-rule="evenodd" d="M83.786 47.5989C82.4002 46.8944 81.0569 46.1089 79.7633 45.2465C77.7957 43.8998 77.0874 44.372 76.6414 46.5933C76.0642 49.4966 77.5159 53.7729 80.1394 55.3383C80.6408 55.6386 81.187 55.857 81.7572 55.9854C84.7917 56.7113 89.9338 50.7384 83.786 47.564V47.5989Z" fill="#FFCA52"/>
<path fill-rule="evenodd" clip-rule="evenodd" d="M76.5365 47.4769C76.3616 50.3103 77.7783 53.9307 80.1394 55.3474C80.6409 55.6477 81.187 55.8662 81.7573 55.9945C82.223 56.1159 82.7131 56.1068 83.174 55.9683C82.2995 52.0243 80.9527 48.9111 79.0201 47.1621C78.2155 46.48 77.3848 46.7161 76.5365 47.5031V47.4769Z" fill="#FFA925"/>
<path fill-rule="evenodd" clip-rule="evenodd" d="M83.7863 47.5998C83.4277 47.4161 83.0692 47.2325 82.7368 47.0488C81.8005 49.6005 80.4242 51.9683 78.6704 54.0448C79.0886 54.5513 79.5845 54.9881 80.1396 55.3391C80.641 55.6394 81.1872 55.8579 81.7574 55.9862C84.7919 56.7121 89.934 50.7392 83.7863 47.5648V47.5998Z" fill="#FFAA25"/>
<path fill-rule="evenodd" clip-rule="evenodd" d="M78.7053 54.0796C79.1234 54.586 79.6193 55.0229 80.1744 55.3739C80.6759 55.6742 81.222 55.8926 81.7923 56.021C82.2492 56.1274 82.7264 56.1093 83.174 55.9685C82.7515 54.0145 82.1121 52.1138 81.2676 50.3018C80.5245 51.6556 79.6455 52.9302 78.644 54.1058L78.7053 54.0796Z" fill="#EC7613"/>
<path fill-rule="evenodd" clip-rule="evenodd" d="M94.6038 126.042H101.442C101.442 124.835 101.407 123.669 101.337 122.544L94.6912 120.646C94.6912 122.343 94.665 124.179 94.6038 126.042Z" fill="#B0172C"/>
<path fill-rule="evenodd" clip-rule="evenodd" d="M101.442 126.043L101.373 124.206C99.0663 124.124 96.7889 123.666 94.6301 122.851L94.5776 126.043H101.442Z" fill="#8C0013"/>
<path fill-rule="evenodd" clip-rule="evenodd" d="M94.6038 126.042H96.1954C96.2653 124.337 96.3003 122.666 96.2916 121.075L94.665 120.603C94.6912 122.343 94.665 124.179 94.6038 126.042Z" fill="#FF8797"/>
<path d="M94.0879 126.042H95.1198C95.1723 124.415 95.1985 122.823 95.181 121.293L100.804 122.902C100.804 123.925 100.865 124.975 100.892 126.042H101.932C101.932 124.826 101.871 123.637 101.819 122.482C101.813 122.374 101.774 122.27 101.707 122.186C101.639 122.101 101.547 122.039 101.442 122.01L94.7962 120.104C94.747 120.096 94.6968 120.096 94.6476 120.104C94.5791 120.102 94.5111 120.115 94.4478 120.141C94.3846 120.168 94.3273 120.206 94.2797 120.256C94.2322 120.305 94.1952 120.363 94.1712 120.428C94.1473 120.492 94.1367 120.56 94.1404 120.628C94.1753 122.351 94.1491 124.179 94.0879 126.042Z" fill="#141515"/>
<path fill-rule="evenodd" clip-rule="evenodd" d="M100.76 113.686C101.446 117.162 101.693 120.711 101.495 124.25C99.5259 124.118 97.5764 123.778 95.6794 123.235C94.0003 122.737 92.3825 121.941 90.6947 121.39C88.343 120.558 85.8837 120.069 83.3926 119.938C81.8097 119.895 81.5649 118.959 82.2732 117.673C85.0192 112.689 88.3948 110.931 92.9597 110.03C96.0204 109.427 100.034 110.109 100.76 113.686Z" fill="#B0172C"/>
<path fill-rule="evenodd" clip-rule="evenodd" d="M100.76 113.685C101.167 115.704 101.419 117.75 101.512 119.807C100.506 119.249 99.463 118.761 98.3902 118.347L98.2765 120.813C93.5691 119.04 89.0611 116.777 84.8267 114.061C87.0566 111.718 89.6889 110.651 92.9595 110.004C96.0203 109.4 100.034 110.082 100.76 113.659V113.685Z" fill="#8C0013"/>
<path fill-rule="evenodd" clip-rule="evenodd" d="M101.521 123.672C101.521 123.856 101.521 124.04 101.521 124.223C99.552 124.092 97.6026 123.752 95.7055 123.209C94.0264 122.71 92.4086 121.915 90.7208 121.364C88.3691 120.532 85.9098 120.043 83.4187 119.912C81.8359 119.868 81.591 118.933 82.2994 117.647C85.0453 112.662 88.4209 110.905 92.9858 110.004C93.4909 109.907 94.0023 109.845 94.5162 109.82H94.3675C90.2748 110.695 86.497 112.444 84.0134 117.07C83.3837 118.268 83.0951 118.67 84.5031 118.705C87.0691 118.993 89.5895 119.598 92.0063 120.507C95.277 121.635 97.8743 123.305 101.547 123.637L101.521 123.672Z" fill="#FF8797"/>
<path d="M100.253 113.764C100.134 113.143 99.8654 112.561 99.4707 112.067C99.0761 111.574 98.5672 111.183 97.9879 110.931C96.4267 110.297 94.7104 110.151 93.0645 110.511C90.9829 110.848 88.9905 111.601 87.2053 112.723C85.3101 114.051 83.772 115.826 82.7279 117.892C82.5583 118.172 82.4509 118.485 82.413 118.81C82.4001 118.901 82.4186 118.993 82.4655 119.072C82.5029 119.146 82.5647 119.205 82.6404 119.238C82.8817 119.348 83.1448 119.402 83.41 119.396C84.5854 119.441 85.7552 119.581 86.908 119.815C88.2374 120.083 89.5488 120.434 90.8345 120.865C91.6128 121.127 92.3736 121.433 93.1344 121.739C94.009 122.098 94.8835 122.448 95.758 122.719C96.6406 122.973 97.5369 123.178 98.4427 123.331C99.2385 123.471 100.078 123.576 100.953 123.663C101.011 122.121 100.99 120.577 100.891 119.037C100.774 117.275 100.54 115.522 100.192 113.79L100.253 113.764ZM102.002 119.011C102.101 120.759 102.101 122.51 102.002 124.258C102.001 124.326 101.986 124.393 101.958 124.454C101.931 124.516 101.891 124.572 101.841 124.618C101.791 124.663 101.732 124.699 101.668 124.721C101.604 124.743 101.536 124.752 101.468 124.748C100.367 124.66 99.3172 124.529 98.329 124.363C97.3872 124.202 96.4556 123.986 95.5393 123.716C94.6017 123.424 93.6793 123.086 92.7759 122.701C92.0413 122.404 91.298 122.107 90.5459 121.827C89.2975 121.407 88.0241 121.065 86.7331 120.804C85.63 120.577 84.5094 120.445 83.3837 120.41C82.9561 120.409 82.5345 120.31 82.1507 120.122C81.905 119.988 81.7019 119.788 81.5648 119.544C81.4395 119.302 81.3793 119.03 81.3899 118.757C81.4289 118.267 81.5784 117.791 81.8271 117.367C82.953 115.158 84.6048 113.26 86.6369 111.84C88.5337 110.637 90.6549 109.83 92.8721 109.47C94.7336 109.067 96.6738 109.241 98.4339 109.969C99.1639 110.283 99.8046 110.774 100.299 111.397C100.793 112.019 101.126 112.754 101.267 113.537C101.631 115.322 101.874 117.131 101.993 118.95L102.002 119.011Z" fill="#141515"/>
<path d="M81.3726 46.8644C80.6992 46.4621 80.0696 46.0686 79.4837 45.6663C78.6616 45.1066 78.1457 44.9055 77.8571 45.0454C77.5685 45.1853 77.3411 45.7537 77.1488 46.6895C76.9027 48.2989 77.1055 49.9451 77.7347 51.4468C78.2205 52.8591 79.1384 54.0829 80.3582 54.9448C80.5824 55.0786 80.8162 55.1955 81.0578 55.2946C81.3056 55.3932 81.5598 55.475 81.8186 55.5394C82.3809 55.5949 82.9483 55.5132 83.4722 55.3015C83.9961 55.0898 84.4609 54.7544 84.8269 54.3239C85.2755 53.8805 85.6347 53.355 85.885 52.776C86.1204 52.225 86.202 51.6206 86.1212 51.027C85.9637 49.9863 85.2467 48.9282 83.4977 48.0537C82.7281 47.6514 82.0022 47.2579 81.3289 46.8556L81.3726 46.8644ZM83.9961 47.1442C86.0075 48.1936 86.917 49.5316 87.1181 50.8783C87.22 51.6557 87.1144 52.4462 86.812 53.1695C86.5214 53.8866 86.0937 54.5402 85.5527 55.0934C85.0696 55.6404 84.4601 56.061 83.7773 56.3186C83.0944 56.5762 82.359 56.6629 81.635 56.5713C81.3195 56.4974 81.0097 56.401 80.708 56.2828C80.4076 56.1587 80.1155 56.0156 79.8335 55.8542C78.4095 54.8858 77.3264 53.4937 76.7377 51.8753C76.0379 50.1867 75.817 48.3379 76.0993 46.532C76.3617 45.264 76.729 44.4682 77.3761 44.1621C78.0233 43.8561 78.8715 44.0747 79.9996 44.8617C80.5826 45.2465 81.1948 45.6313 81.8361 46.0161C82.492 46.4096 83.2091 46.8031 83.9611 47.1879L83.9961 47.1442Z" fill="#141515"/>
<path d="M76.8339 48.0452C76.9696 47.6974 77.1998 47.3946 77.4985 47.1707C77.6377 47.0844 77.7983 47.039 77.962 47.0395C78.1425 47.0458 78.3191 47.0937 78.478 47.1794C79.144 47.5759 79.6978 48.1358 80.0871 48.806C80.7812 49.9131 81.3669 51.0845 81.8361 52.304C82.2736 53.4943 82.6071 54.7203 82.833 55.9682L83.5064 55.837C83.2619 54.5376 82.9049 53.2618 82.4395 52.0242C81.9735 50.7782 81.3877 49.5804 80.6905 48.4475C80.2319 47.6643 79.5781 47.0135 78.7928 46.5585C78.5428 46.4327 78.268 46.364 77.9883 46.3574C77.6804 46.3418 77.3751 46.4212 77.1138 46.5848C76.7242 46.8771 76.4219 47.2702 76.2393 47.7216L76.8339 48.0452Z" fill="#141515"/>
<path fill-rule="evenodd" clip-rule="evenodd" d="M135.478 49.9599C138.418 49.9597 141.344 49.5476 144.171 48.7355C147.835 47.6599 149.068 48.7793 148.648 52.4784C148.338 56.1553 146.61 59.5673 143.83 61.993C134.402 70.2133 127.634 50.0386 135.478 49.9599Z" fill="#FFCA52"/>
<path fill-rule="evenodd" clip-rule="evenodd" d="M130.677 106.602C133.461 107.727 135.97 109.441 138.032 111.624C140.094 113.808 141.659 116.412 142.623 119.256C137.25 119.11 131.888 119.795 126.724 121.285C122.15 122.739 117.373 123.45 112.575 123.393C113.038 116.099 114.053 109.243 118.845 106.532C121.468 105.037 125.544 104.442 130.677 106.602Z" fill="#B0172C"/>
<path fill-rule="evenodd" clip-rule="evenodd" d="M131.788 107.109C134.319 108.3 136.583 109.989 138.445 112.077C140.307 114.164 141.728 116.606 142.623 119.256C137.25 119.11 131.888 119.795 126.724 121.285C122.15 122.739 117.373 123.45 112.575 123.393L112.653 122.299C117.241 122.071 121.782 121.275 126.173 119.93C130.717 118.461 135.46 117.702 140.235 117.682C138.745 113.277 135.755 109.535 131.788 107.109Z" fill="#FF8797"/>
<path fill-rule="evenodd" clip-rule="evenodd" d="M130.677 106.602C132.656 107.42 134.504 108.525 136.16 109.882C131.98 110.957 128.237 114.018 124.381 117.341C122.918 116.616 121.701 115.475 120.883 114.062C118.481 115.76 115.848 117.106 113.064 118.058C113.764 112.934 115.233 108.57 118.827 106.532C121.451 105.037 125.526 104.442 130.659 106.602H130.677Z" fill="#8C0013"/>
<path d="M130.476 107.074C128.545 106.221 126.465 105.754 124.354 105.701C122.523 105.664 120.714 106.107 119.107 106.986C116.842 108.263 115.469 110.554 114.595 113.396C113.757 116.492 113.27 119.672 113.143 122.876C115.332 122.865 117.518 122.704 119.685 122.395C122.023 122.045 124.33 121.509 126.584 120.795C129.073 120.032 131.625 119.493 134.21 119.185C136.758 118.88 139.322 118.728 141.888 118.731C140.896 116.111 139.374 113.724 137.418 111.718C135.462 109.713 133.114 108.132 130.52 107.074H130.476ZM138.285 111.14C140.428 113.418 142.07 116.12 143.104 119.072C143.129 119.135 143.141 119.202 143.14 119.27C143.138 119.338 143.123 119.405 143.096 119.467C143.068 119.529 143.028 119.585 142.978 119.631C142.929 119.677 142.87 119.713 142.806 119.736C142.737 119.753 142.665 119.753 142.597 119.736C139.835 119.708 137.075 119.857 134.332 120.182C131.807 120.482 129.313 121.009 126.882 121.757C124.576 122.486 122.217 123.03 119.824 123.383C117.424 123.734 115.001 123.901 112.575 123.882C112.439 123.879 112.309 123.824 112.212 123.728C112.116 123.632 112.061 123.502 112.059 123.366C112.184 119.897 112.697 116.453 113.589 113.099C114.542 110.012 116.055 107.511 118.591 106.103C120.348 105.132 122.33 104.643 124.337 104.686C126.592 104.73 128.816 105.224 130.878 106.138C133.664 107.284 136.185 108.989 138.285 111.149V111.14Z" fill="#141515"/>
<path fill-rule="evenodd" clip-rule="evenodd" d="M135.478 49.9602C137.446 49.9505 139.409 49.7691 141.346 49.418C142.23 53.0986 143.796 56.581 145.963 59.6846C145.34 60.5308 144.624 61.3052 143.83 61.9933C134.402 70.2137 127.634 50.0389 135.478 49.9602Z" fill="#FFAA25"/>
<path fill-rule="evenodd" clip-rule="evenodd" d="M148.211 54.875C147.528 57.6444 146 60.1324 143.838 61.9934C137.787 67.2404 132.828 60.8303 132.137 55.5396L136.195 54.2628L143.882 51.823C146.506 51.1583 148.027 51.823 148.15 54.77L148.211 54.875Z" fill="#FFA925"/>
<path fill-rule="evenodd" clip-rule="evenodd" d="M145.963 59.6847C145.34 60.5309 144.624 61.3052 143.83 61.9934C137.778 67.2404 132.82 60.8303 132.129 55.5395L136.186 54.2628L142.238 52.3389C143.1 54.9624 144.356 57.4394 145.963 59.6847Z" fill="#EC7613"/>
<path d="M139.772 49.1379C141.212 48.9565 142.636 48.6641 144.031 48.2634C146.033 47.6599 147.415 47.7037 148.281 48.4383C149.147 49.1728 149.391 50.5283 149.155 52.5572C148.969 54.4123 148.46 56.2206 147.651 57.9004C146.797 59.6175 145.608 61.1459 144.153 62.3953C140.244 65.8059 136.755 64.6778 134.411 62.0018C132.628 59.8674 131.606 57.1996 131.508 54.4199C131.508 51.6914 132.662 49.4877 135.469 49.4614C136.903 49.4509 138.334 49.3486 139.754 49.1553L139.772 49.1379ZM147.599 55.1894C147.768 54.6992 147.795 54.171 147.675 53.6663C147.556 53.1616 147.296 52.7011 146.925 52.3385C146.584 52.0571 146.16 51.8945 145.718 51.8751C145.463 51.8613 145.207 51.8818 144.958 51.9363C140.811 53.0825 136.725 54.4368 132.715 55.994C132.851 56.6783 133.041 57.3508 133.283 58.0053C133.724 59.2113 134.379 60.3281 135.216 61.3022C137.192 63.5672 140.157 64.5116 143.489 61.6083C144.837 60.4409 145.94 59.017 146.733 57.4194C147.088 56.7024 147.38 55.9564 147.607 55.1894H147.599ZM135.487 50.4846C133.414 50.4846 132.54 52.2336 132.566 54.3936C132.563 54.686 132.581 54.9782 132.618 55.2681C136.611 53.7117 140.683 52.3689 144.818 51.2454C145.128 51.1764 145.445 51.15 145.762 51.1667C146.262 51.1808 146.747 51.3372 147.161 51.6176C147.574 51.898 147.899 52.2907 148.097 52.7496C148.097 52.6271 148.097 52.5134 148.141 52.3998C148.324 50.7207 148.141 49.6626 147.607 49.1816C147.074 48.7006 145.972 48.7181 144.319 49.1816C142.887 49.601 141.425 49.9138 139.947 50.1173C138.479 50.3098 137.002 50.4149 135.522 50.4321L135.487 50.4846Z" fill="#141515"/>
<path fill-rule="evenodd" clip-rule="evenodd" d="M148.316 83.9529C148.219 93.4849 139.982 101.662 133.222 106.436C130.021 108.701 126.882 110.66 124.381 113.773C123.408 111.525 123.336 108.99 124.179 106.69C122.234 108.915 119.924 110.792 117.35 112.243C113.134 114.613 109.96 115.619 106.27 119.353C103.171 116.964 99.7304 115.053 96.0641 113.686V116.309C91.5963 113.311 87.7385 109.492 84.6956 105.055C84.6433 106.927 84.9399 108.792 85.5701 110.555C77.9269 106.393 72.881 98.1373 70.3799 85.868L68.456 87.0136C67.4718 81.4505 68.5607 75.7196 71.5168 70.9053C73.843 66.8476 77.1399 63.4982 79.6934 59.5367C82.4219 55.2517 84.0659 51.2552 85.9898 45.6671C86.87 43.0684 87.9187 40.5298 89.1293 38.0677C92.2863 31.7275 96.6413 26.5155 105.063 25.8858C109.785 25.5445 114.532 25.7882 119.195 26.6117C125.08 27.6698 128.814 31.4127 132.006 36.2749C135.362 41.2248 137.932 46.6645 139.623 52.4008C138.279 51.828 136.882 51.3887 135.452 51.089C135.717 52.7772 136.521 54.3343 137.744 55.5275C138.967 56.7208 140.544 57.4861 142.238 57.709C141.84 58.1652 141.333 58.5135 140.764 58.7214C140.195 58.9293 139.583 58.9902 138.985 58.8983C149.19 69.8471 153.912 79.5803 151.77 87.6083C151.105 85.9829 149.858 84.664 148.272 83.9091L148.316 83.9529Z" fill="#D8441D"/>
<path fill-rule="evenodd" clip-rule="evenodd" d="M71.4644 70.9049C73.7906 66.8472 77.0874 63.4979 79.641 59.5364C82.3694 55.2513 84.0135 51.2549 85.9374 45.6668C86.7265 43.314 87.6611 41.0125 88.7358 38.7757C90.8521 34.4032 93.4844 30.1181 98.4865 27.7482C100.957 26.5178 103.668 25.8489 106.427 25.7893C109.79 25.6206 113.161 25.7464 116.501 26.1654C119.253 26.4193 121.927 27.2127 124.372 28.5003C125.794 29.3112 127.098 30.3147 128.246 31.4823C130.139 33.5093 131.775 35.7621 133.117 38.1898C135.793 42.5623 138.364 47.1972 139.571 52.348C138.227 51.7752 136.829 51.3359 135.399 51.0362C135.664 52.7244 136.468 54.2815 137.691 55.4747C138.915 56.668 140.491 57.4333 142.185 57.6562C141.53 60.1398 134.315 59.4839 132.566 48.5264C132.653 48.5264 134.507 48.7363 134.507 48.7363C134.346 48.1632 134.117 47.6113 133.825 47.0922C132.417 44.6524 129.295 39.5015 127.039 36.2484C120.515 26.8562 100.428 26.5239 93.7292 36.1697C90.9483 40.1399 89.1993 44.7923 87.3716 49.2435C86.4971 51.4298 85.5351 53.5723 84.6606 55.7498C84.512 56.1083 84.3633 56.4581 84.1971 56.8167C82.2685 60.743 79.9791 64.4815 77.3585 67.9841C77.1661 68.2377 76.9825 68.4913 76.7988 68.7537C75.4048 70.546 74.103 72.4081 72.8986 74.333C70.4412 78.7055 69.8291 83.8651 70.0914 84.0312C70.1614 84.0837 72.1465 83.1043 72.2164 83.1567C72.2689 83.8476 73.3795 92.3215 75.8281 97.3587C77.735 101.222 80.0827 104.852 82.8242 108.176C83.0865 108.587 83.3489 108.998 83.62 109.409C77.0204 104.967 72.5779 97.1138 70.2925 85.8502L68.3686 86.9958C67.3844 81.4327 68.4733 75.7018 71.4294 70.8875L71.4644 70.9049Z" fill="#E87127"/>
<path fill-rule="evenodd" clip-rule="evenodd" d="M78.2592 86.4005C78.9501 82.6052 80.8041 79.0547 82.1071 75.4168C82.8416 73.3792 83.5675 71.3416 84.2234 69.2952C84.8792 67.2489 85.2378 65.3775 85.7013 63.4011C87.3978 56.6412 89.689 50.0999 93.8516 44.4506C95.5132 42.1944 96.0904 40.0169 98.7139 38.7401C101.337 37.4633 103.41 39.7283 105.596 40.4279C107.03 40.8739 109.094 39.772 110.432 39.396C112.038 38.9363 113.67 38.5771 115.321 38.3203C119.256 37.7694 122.798 41.3549 125.264 43.9346C128.19 46.9889 130.769 50.3589 132.951 53.9827C134.813 57.1134 136.711 60.2266 138.792 63.2262C140.874 66.2257 143.375 68.9279 145.299 72.0237C146.997 74.7972 148.14 77.8741 148.665 81.0835C147.719 80.5198 146.626 80.249 145.526 80.3052C145.597 84.5667 144.479 88.7637 142.299 92.4258C138.399 98.9059 130.362 105.447 127.607 107.782C126.311 108.798 125.111 109.931 124.022 111.166C123.917 111.298 123.812 111.429 123.716 111.569C123.455 109.929 123.615 108.25 124.179 106.689C122.234 108.914 119.924 110.791 117.35 112.242C113.134 114.612 109.96 115.618 106.27 119.352C103.171 116.963 99.7304 115.053 96.0641 113.685V116.309C91.5964 113.31 87.7385 109.491 84.6956 105.054C84.6433 106.926 84.9399 108.791 85.5701 110.554C85.1678 110.336 84.7743 110.108 84.3895 109.863C84.0047 109.619 83.4013 108.009 83.1215 107.467C82.6318 106.54 82.142 105.596 81.6786 104.651C79.7721 100.769 78.1805 96.7809 77.9444 92.4084C77.826 90.3983 77.9493 88.3812 78.3117 86.4005H78.2592Z" fill="#E87127"/>
<path d="M144.809 95.6705C141.734 100.022 137.911 103.794 133.519 106.812L132.164 107.756C129.47 109.636 126.917 111.438 124.783 114.053L124.241 114.726L123.9 113.93C123.161 112.2 122.919 110.298 123.2 108.438C122.675 108.963 122.107 109.488 121.504 109.986C120.283 110.996 118.975 111.894 117.595 112.671C116.51 113.283 115.504 113.79 114.543 114.289C111.621 115.608 108.956 117.435 106.672 119.684L106.357 120.008L105.99 119.737C104.412 118.562 102.762 117.487 101.049 116.519C99.6202 115.716 98.1355 115.018 96.6064 114.429V117.271L95.8106 116.746C93.3995 115.145 91.1631 113.296 89.1382 111.228C87.7388 109.798 86.4303 108.282 85.2204 106.689C85.2204 107.065 85.2991 107.441 85.3516 107.809C85.4699 108.684 85.687 109.544 85.9987 110.371L86.4972 111.665L85.2641 111.001C81.2426 108.757 77.8918 105.482 75.5572 101.512C72.8662 96.9088 70.9767 91.8818 69.9691 86.6456L68.0277 87.8087L67.8965 87.0742C67.6206 85.6127 67.4888 84.1276 67.503 82.6404V81.7659C67.5639 80.6762 67.7013 79.592 67.914 78.5215C68.5056 75.7509 69.5391 73.0934 70.9748 70.651C72.3071 68.4464 73.7946 66.3393 75.426 64.3458C76.7202 62.6843 78.0495 61.0227 79.1601 59.2125C80.467 57.1769 81.6132 55.0425 82.5882 52.8286C83.5851 50.5986 84.4683 48.2287 85.4128 45.4653C85.9375 43.9262 86.5205 42.4016 87.1618 40.8916C91.0184 31.823 95.6095 25.5878 106.182 25.1943C107.931 25.1331 109.68 25.1943 111.429 25.2555C114.341 25.4066 117.241 25.7337 120.113 26.235C129.234 27.8878 132.645 36.4929 136.615 43.4364C136.711 43.5938 136.799 43.7688 136.886 43.9262C138.344 46.5336 139.419 49.3375 140.078 52.2514L140.297 53.2309L139.37 52.8461C138.688 52.5575 138.005 52.3039 137.332 52.0853C136.93 51.9628 136.519 51.8492 136.108 51.7442C136.441 52.9738 137.075 54.1009 137.953 55.0236C139.136 56.1738 140.65 56.9233 142.282 57.1661L143.156 57.3323L142.605 57.9969C142.226 58.4654 141.736 58.8321 141.18 59.0638C140.831 59.1972 140.467 59.2854 140.095 59.3262C144.87 64.5732 148.377 69.5054 150.485 74.1228C152.723 79.0375 153.388 83.5849 152.295 87.7388L151.936 89.1117L151.333 87.835C150.97 87.0373 150.483 86.3023 149.89 85.6575C149.573 85.3185 149.211 85.0243 148.814 84.783C148.49 88.7132 147.113 92.4835 144.827 95.6968L144.809 95.6705ZM147.791 83.1301L148.508 83.445C149.302 83.792 150.014 84.3014 150.598 84.9404C150.949 85.3098 151.265 85.7108 151.543 86.1384C152.129 82.5879 151.412 78.7052 149.505 74.5425C147.345 69.7852 143.628 64.6519 138.539 59.195L137.664 58.268L138.932 58.3292C139.549 58.3853 140.17 58.3047 140.751 58.0931C140.861 58.0514 140.967 57.9986 141.066 57.9357C139.603 57.5617 138.268 56.8005 137.201 55.732C136.003 54.4587 135.195 52.8682 134.875 51.1496L134.709 50.3887L135.478 50.5374C136.202 50.6859 136.917 50.8728 137.621 51.0971C138.023 51.2195 138.425 51.3682 138.827 51.5081C138.122 48.8568 137.069 46.3104 135.697 43.9349C132.059 37.551 127.59 28.8935 119.868 27.4155C115.458 26.5708 110.966 26.2334 106.48 26.4099C96.8601 26.8384 91.6917 32.9424 88.115 41.2764C87.4737 42.7689 86.8907 44.2672 86.366 45.7714C85.4041 48.5873 84.5033 51.0184 83.5064 53.2309C82.51 55.4894 81.3405 57.6676 80.0084 59.7459C78.854 61.5736 77.5248 63.2439 76.2218 64.9929C74.6175 66.9491 73.1562 69.0183 71.8493 71.1844C70.4602 73.5342 69.4647 76.0953 68.9022 78.7664C68.4138 81.2153 68.3546 83.7305 68.7273 86.1996L70.625 85.0541L70.7649 85.7711C71.7395 91.132 73.6361 96.2833 76.3704 100.996C78.398 104.418 81.202 107.315 84.5558 109.453C84.4328 108.966 84.3364 108.472 84.2672 107.975C84.1318 107.01 84.0675 106.037 84.0748 105.063V103.462L85.0018 104.765C86.4395 106.801 88.0299 108.725 89.7591 110.52C91.5033 112.313 93.4156 113.936 95.4696 115.364V112.986L96.1517 113.231C97.9648 113.884 99.7199 114.689 101.399 115.635C103.021 116.553 104.589 117.563 106.095 118.661C108.41 116.489 111.07 114.716 113.965 113.414C114.927 112.916 115.933 112.409 116.982 111.814C118.311 111.057 119.567 110.179 120.734 109.19C121.788 108.307 122.773 107.346 123.681 106.313L125.386 104.398L124.556 106.829C124.16 107.952 123.974 109.137 124.005 110.327C124.041 111.139 124.185 111.941 124.433 112.715C126.518 110.497 128.868 108.543 131.429 106.899L132.776 105.963C137.062 103.016 140.794 99.3362 143.803 95.0933C146.192 91.8485 147.578 87.9755 147.791 83.9522V83.1301Z" fill="#141515"/>
<path fill-rule="evenodd" clip-rule="evenodd" d="M129.007 75.0322C131.175 63.9435 128.473 52.9773 117.428 42.2384C115.88 40.7255 114.848 40.5768 112.758 41.0315C110.423 41.5005 108.177 42.3358 106.103 43.5064C104.404 42.1423 102.559 40.9693 100.603 40.0084C100.025 39.7341 99.3756 39.6498 98.7471 39.7676C98.1187 39.8855 97.5437 40.1994 97.1048 40.6643C90.8306 47.2009 86.1578 55.1035 83.4538 63.7511C74.9798 92.225 124.004 100.48 129.007 75.0322Z" fill="#FFCA52"/>
<path fill-rule="evenodd" clip-rule="evenodd" d="M129.007 75.0322C131.176 63.9435 128.473 52.9773 117.428 42.2384C115.881 40.7255 114.849 40.5768 112.759 41.0315C110.424 41.5005 108.178 42.3358 106.104 43.5064C104.404 42.1423 102.559 40.9693 100.603 40.0084C100.025 39.7341 99.3758 39.6498 98.7473 39.7676C98.1189 39.8855 97.5439 40.1994 97.105 40.6643C90.8308 47.2009 86.158 55.1035 83.454 63.7511C80.332 74.2452 85.0193 81.9933 92.4264 86.3133L85.3779 77.4983C83.0167 69.3742 86.0075 56.3703 95.8107 45.1417C97.5597 43.1304 98.714 41.8711 99.9296 42.1247C101.145 42.3783 103.122 43.8212 104.678 44.9318C105.894 45.8063 105.911 45.8763 107.302 45.1942C109.217 44.241 111.298 43.1741 113.275 43.2003C115.47 43.2003 116.598 44.9056 118.836 47.5728C121.481 50.7248 123.582 54.2949 125.054 58.1368C128.981 68.456 124.739 81.215 116.825 88.7444C122.833 86.5844 127.625 82.107 129.016 75.0322H129.007Z" fill="#FFA925"/>
<path d="M127.677 58.6617C125.928 53.2747 122.518 47.914 117.052 42.6058C116.551 42.0355 115.899 41.6174 115.172 41.399C114.399 41.2746 113.607 41.3224 112.855 41.5389C111.652 41.7999 110.469 42.1417 109.313 42.5621C108.293 42.9356 107.31 43.401 106.375 43.9525L106.068 44.1274L105.789 43.9088C104.914 43.2267 104.04 42.5883 103.165 42.0024C102.287 41.4339 101.372 40.9227 100.428 40.472C99.9451 40.2373 99.3996 40.1641 98.8721 40.2633C98.3445 40.3625 97.8628 40.6289 97.4983 41.0229C94.3717 44.2881 91.6364 47.9068 89.3479 51.8056C87.0657 55.6003 85.2538 59.6586 83.9523 63.8912C81.1888 73.1434 84.6694 80.2007 90.7034 84.5819C93.64 86.6737 96.9636 88.16 100.48 88.9544C104.052 89.7923 107.746 89.9848 111.385 89.5229C119.562 88.4385 126.759 83.7774 128.499 74.9449C129.642 69.5377 129.359 63.9262 127.677 58.6617ZM129.505 75.1373C127.669 84.477 120.095 89.4004 111.508 90.5373C107.742 91.0165 103.921 90.815 100.227 89.9426C96.5783 89.1171 93.1283 87.5808 90.0738 85.4215C83.6987 80.7953 80.0257 73.3446 82.9291 63.5589C84.2437 59.2477 86.073 55.1107 88.3772 51.2371C90.7102 47.2727 93.492 43.5901 96.6675 40.2621C97.1908 39.714 97.8729 39.3439 98.6177 39.204C99.3557 39.0639 100.119 39.165 100.795 39.4925C101.786 39.97 102.747 40.5074 103.672 41.1016C104.547 41.6351 105.325 42.221 106.138 42.8506C107.039 42.3496 107.978 41.9198 108.946 41.5651C110.153 41.1144 111.392 40.7548 112.653 40.4895C113.55 40.2383 114.492 40.1935 115.408 40.3583C116.325 40.612 117.15 41.1216 117.787 41.8275C123.375 47.2581 126.855 52.7588 128.666 58.3031C130.411 63.7319 130.712 69.5216 129.54 75.1023L129.505 75.1373Z" fill="#141515"/>
<path fill-rule="evenodd" clip-rule="evenodd" d="M99.8596 58.1628C99.0463 56.1602 97.857 54.9971 96.1867 54.9097C95.1238 54.7808 94.0465 54.9684 93.0897 55.4491C92.133 55.9298 91.3395 56.6822 90.8085 57.6119C90.0722 58.6727 89.6591 59.9242 89.6191 61.2149C89.6191 65.7273 94.0441 68.9105 98.2243 65.4912C99.8771 63.7946 100.655 61.5297 99.8596 58.1628Z" fill="#FFA925"/>
<path fill-rule="evenodd" clip-rule="evenodd" d="M120.384 59.3784C119.929 58.5014 119.281 57.7389 118.489 57.1482C117.697 56.5575 116.781 56.154 115.81 55.9679C112.767 55.4869 110.817 56.8948 109.444 59.2735C107.914 62.9901 108.333 65.6661 110.196 67.5113C111.431 68.5765 112.98 69.2092 114.607 69.3134C116.235 69.4176 117.852 68.9875 119.212 68.0885C121.652 65.7623 121.582 62.7453 120.384 59.4134V59.3784Z" fill="#FFA925"/>
<path fill-rule="evenodd" clip-rule="evenodd" d="M118.836 50.94C118.454 50.2297 117.921 49.6118 117.274 49.1299C116.628 48.6479 115.883 48.3135 115.093 48.1503C113.196 47.7131 111.692 50.3541 113.983 50.6164C115.422 50.8175 116.823 51.2362 118.137 51.8582C119.107 52.2955 119.326 51.8582 118.836 50.9837V50.94Z" fill="#141515"/>
<path fill-rule="evenodd" clip-rule="evenodd" d="M94.0267 48.7447C94.506 48.2392 95.0903 47.8448 95.7385 47.5895C96.3867 47.3341 97.0829 47.224 97.7783 47.2668C99.4486 47.328 100.113 49.8903 98.1456 49.5755C96.9006 49.4122 95.6377 49.4447 94.4027 49.6717C93.5282 49.8116 93.4233 49.3744 94.0267 48.7447Z" fill="#141515"/>
<path fill-rule="evenodd" clip-rule="evenodd" d="M119.448 58.9593C119.052 58.1824 118.485 57.5051 117.79 56.9782C117.095 56.4512 116.29 56.0881 115.434 55.916C112.723 55.4787 111.009 56.7293 109.776 58.8281C108.421 62.1075 108.797 64.4686 110.45 66.1039C111.549 67.0428 112.923 67.5998 114.366 67.6912C115.809 67.7827 117.242 67.4037 118.451 66.6112C120.629 64.5561 120.55 61.8888 119.492 58.9593H119.448Z" fill="#FEFEFE"/>
<path fill-rule="evenodd" clip-rule="evenodd" d="M119.448 58.9592C119.052 58.1824 118.485 57.5051 117.79 56.9782C117.095 56.4512 116.29 56.0881 115.435 55.916C112.724 55.4787 111.01 56.7293 109.776 58.8281C109.421 59.6692 109.169 60.5501 109.024 61.4516C109.248 60.5428 109.695 59.7041 110.324 59.011C110.953 58.3179 111.745 57.7922 112.627 57.4813C113.686 57.1852 114.809 57.2099 115.853 57.5524C116.898 57.8949 117.817 58.5398 118.495 59.4052C119.534 60.9069 120 62.7315 119.807 64.5473C120.437 62.8945 120.174 60.9881 119.44 58.9592H119.448Z" fill="#CAE6F7"/>
<path fill-rule="evenodd" clip-rule="evenodd" d="M111.464 57.2185C109.155 58.8801 108.176 63.34 110.126 65.6137C111.185 66.6917 112.592 67.3608 114.096 67.5027C118.932 68.0623 120.847 64.0046 119.501 60.0257C118.399 56.79 114.306 55.1634 111.464 57.2185ZM111.307 56.3965C108.814 58.2592 107.747 63.2176 109.846 65.7362C110.975 66.9352 112.501 67.684 114.14 67.8437C119.387 68.4559 121.433 63.9259 119.982 59.5097C118.792 55.9155 114.376 54.0965 111.307 56.3965Z" fill="#141515"/>
<path fill-rule="evenodd" clip-rule="evenodd" d="M114.56 58.9854H114.411C114.541 59.2081 114.608 59.4621 114.604 59.7199C114.586 60.0896 114.422 60.437 114.148 60.6862C113.874 60.9353 113.513 61.0658 113.143 61.0492C112.942 61.0417 112.744 60.9919 112.564 60.903C112.383 60.8141 112.223 60.6881 112.094 60.5332C111.933 60.8766 111.841 61.2478 111.823 61.6264C111.823 62.1403 111.975 62.6428 112.258 63.0714C112.542 63.5 112.945 63.8359 113.418 64.0374C113.891 64.2389 114.412 64.297 114.918 64.2047C115.423 64.1123 115.891 63.8735 116.262 63.5179C116.633 63.1623 116.891 62.7055 117.005 62.2043C117.118 61.7031 117.082 61.1796 116.901 60.6987C116.72 60.2177 116.401 59.8007 115.985 59.4992C115.569 59.1977 115.073 59.0251 114.56 59.0028V58.9854Z" fill="#141515"/>
<path fill-rule="evenodd" clip-rule="evenodd" d="M99.2649 57.7175C98.5391 55.9685 97.5159 54.9454 95.9943 54.8754C95.053 54.7562 94.0974 54.9154 93.2457 55.3335C92.3939 55.7516 91.6834 56.4102 91.202 57.2278C90.5036 58.1435 90.1333 59.2674 90.1507 60.4189C90.1682 61.5704 90.5723 62.6826 91.2982 63.5767C92.8461 65.7804 95.3297 66.0953 97.8133 64.1101C99.2824 62.6322 99.9733 60.6121 99.2649 57.7175Z" fill="#FEFEFE"/>
<path fill-rule="evenodd" clip-rule="evenodd" d="M99.2648 57.7175C98.5389 55.9685 97.5157 54.9454 95.9941 54.8754C95.0528 54.7562 94.0972 54.9154 93.2455 55.3335C92.3938 55.7516 91.6833 56.4102 91.2018 57.2278C90.6452 58.029 90.2911 58.9532 90.1699 59.9213C90.485 59.1113 90.9717 58.3793 91.5967 57.7754C92.2217 57.1715 92.9701 56.7103 93.7904 56.4233C94.5822 56.1818 95.4298 56.1946 96.2141 56.4597C96.9984 56.7247 97.6799 57.2289 98.1629 57.9012C99.0211 59.1435 99.3658 60.6695 99.1248 62.16C99.6177 60.7504 99.6605 59.2225 99.2473 57.7875L99.2648 57.7175Z" fill="#CAE6F7"/>
<path fill-rule="evenodd" clip-rule="evenodd" d="M97.9443 63.7254C95.7843 66.1915 92.4699 65.7892 90.9483 62.7896C90.4307 61.7281 90.2864 60.5229 90.5388 59.3692C90.7911 58.2155 91.4253 57.1806 92.3387 56.432C94.2626 54.7617 96.9299 54.7967 98.399 56.7468C99.8682 58.697 99.4922 61.9938 97.9268 63.7428L97.9443 63.7254ZM98.2853 63.874C95.8892 66.6112 92.1638 66.174 90.5285 62.8334C89.9563 61.6513 89.7978 60.3112 90.0785 59.0282C90.3592 57.7452 91.0628 56.5938 92.0764 55.7586C94.2102 53.8959 97.1747 53.9309 98.81 56.0997C100.445 58.2685 100.017 61.8976 98.2853 63.874Z" fill="#141515"/>
<path fill-rule="evenodd" clip-rule="evenodd" d="M94.8573 57.8398C94.8137 57.8442 94.7698 57.8442 94.7261 57.8398C94.8429 58.0382 94.9006 58.2657 94.8923 58.4957C94.8846 58.6601 94.844 58.8212 94.773 58.9696C94.7021 59.118 94.6021 59.2508 94.479 59.36C94.356 59.4692 94.2123 59.5527 94.0565 59.6055C93.9007 59.6583 93.7359 59.6794 93.5718 59.6676C93.393 59.6644 93.217 59.623 93.0555 59.5461C92.8941 59.4691 92.7511 59.3585 92.6361 59.2216C92.5022 59.5287 92.4252 59.8576 92.4087 60.1923C92.4072 60.6566 92.5426 61.1111 92.7981 61.4988C93.0535 61.8866 93.4176 62.1905 93.8448 62.3724C94.272 62.5543 94.7434 62.6062 95.2 62.5216C95.6566 62.437 96.0781 62.2197 96.4117 61.8968C96.7454 61.5739 96.9765 61.1598 97.0761 60.7062C97.1757 60.2527 97.1393 59.7799 96.9715 59.3469C96.8038 58.9139 96.5121 58.54 96.1329 58.272C95.7537 58.0039 95.304 57.8536 94.8398 57.8398H94.8573Z" fill="#141515"/>
<path fill-rule="evenodd" clip-rule="evenodd" d="M102.824 71.0537C111.674 71.2024 120.498 74.6916 125.465 82.3436C127.272 85.2225 128.087 88.6137 127.785 91.9993C127.483 95.3849 126.082 98.5786 123.795 101.093C119.964 105.247 113.983 107.687 111.289 109.838C110.924 108.983 110.827 108.038 111.009 107.127C109.645 109.75 107.966 110.511 105.929 112.199C105.207 112.795 104.577 113.493 104.057 114.272C103.872 113.499 103.578 112.757 103.183 112.068C101.967 109.829 100.166 108.998 98.2679 107.337C97.469 106.642 96.7154 105.898 96.0117 105.107L94.2627 103.437C93.9305 104.604 93.8915 105.836 94.149 107.022C90.9746 104.503 88.3948 102.151 86.6283 98.4694C81.1014 86.9522 87.3454 70.8351 102.763 71.0974L102.824 71.0537Z" fill="#FFF1B6"/>
<path fill-rule="evenodd" clip-rule="evenodd" d="M102.824 71.0537C103.463 71.0537 104.101 71.0537 104.748 71.1412C111.534 74.0445 114.499 77.3326 117.332 84.661C121.04 94.2805 128.884 91.0623 123.454 79.7288C124.173 80.5562 124.833 81.4328 125.43 82.3523C127.237 85.2313 128.052 88.6225 127.75 92.0081C127.448 95.3936 126.047 98.5874 123.76 101.102C119.929 105.256 113.948 107.695 111.254 109.847C110.889 108.992 110.792 108.047 110.975 107.136C109.61 109.759 107.931 110.52 105.894 112.208C105.172 112.804 104.542 113.502 104.022 114.28C103.837 113.508 103.543 112.766 103.148 112.077C101.932 109.838 100.131 109.007 98.233 107.346C97.4341 106.651 96.6805 105.906 95.9768 105.116L94.2278 103.445C93.8956 104.613 93.8566 105.844 94.1141 107.031C90.9396 104.512 88.3599 102.16 86.5934 98.4781C81.0665 86.9609 87.3105 70.8438 102.728 71.1062L102.824 71.0537Z" fill="#FFDD63"/>
<path d="M116.396 73.6948C120.271 75.5731 123.565 78.465 125.928 82.0638C127.82 85.0193 128.669 88.522 128.342 92.0156C128.033 95.5312 126.569 98.8457 124.179 101.443C121.626 104.197 118.18 106.191 115.33 107.853C114.039 108.548 112.797 109.331 111.613 110.197L111.114 110.581L110.826 110.013C110.645 109.653 110.524 109.266 110.467 108.867C109.648 109.871 108.691 110.754 107.625 111.491C107.179 111.832 106.751 112.182 106.252 112.558C105.903 112.846 105.579 113.161 105.281 113.502C104.994 113.829 104.728 114.173 104.486 114.534L103.812 115.531L103.559 114.359C103.479 114.007 103.371 113.662 103.235 113.327C103.097 112.968 102.936 112.617 102.754 112.278C101.962 110.964 100.882 109.846 99.5972 109.007C99.0638 108.605 98.5216 108.194 97.9531 107.695C97.3847 107.197 97.0786 106.926 96.7201 106.559C96.3615 106.191 95.9855 105.815 95.6532 105.43L94.63 104.434C94.63 104.722 94.5688 105.002 94.5601 105.308C94.5427 105.846 94.5927 106.383 94.7087 106.908L95.0236 108.334L93.8867 107.459C92.3308 106.277 90.8689 104.976 89.5142 103.568C88.1677 102.135 87.0498 100.504 86.1998 98.7318C84.7896 95.7569 84.1034 92.4906 84.1972 89.1997C84.2253 85.7318 85.1277 82.327 86.8207 79.3003C88.5374 76.2636 91.1397 73.8229 94.2802 72.3043C96.9399 71.0614 99.8549 70.4622 102.789 70.5553C107.488 70.5945 112.12 71.6726 116.353 73.7123L116.396 73.6948ZM102.815 71.5697C100.044 71.4889 97.2912 72.0579 94.7787 73.2313C91.828 74.6672 89.3869 76.9711 87.7827 79.8338C86.158 82.7061 85.2884 85.9436 85.2553 89.2434C85.1898 92.3376 85.8487 95.4042 87.1793 98.1984C87.9882 99.8804 89.0499 101.429 90.3275 102.789C91.3348 103.855 92.4161 104.849 93.5631 105.763C93.5542 105.588 93.5542 105.413 93.5631 105.238C93.5838 104.57 93.6837 103.906 93.8605 103.262L94.0878 102.387L96.4228 104.67C96.7288 105.019 97.0699 105.378 97.4547 105.754C97.8394 106.13 98.233 106.497 98.644 106.856C99.055 107.214 99.7109 107.73 100.227 108.124C101.633 109.046 102.809 110.278 103.664 111.727C103.867 112.105 104.051 112.493 104.215 112.89L104.267 113.047C104.346 112.942 104.433 112.855 104.521 112.759C104.854 112.378 105.216 112.024 105.605 111.701C106.104 111.29 106.567 110.94 107.013 110.599C108.498 109.647 109.719 108.335 110.563 106.786L111.936 104.162L111.534 107.083C111.458 107.551 111.44 108.027 111.482 108.5C111.482 108.64 111.482 108.78 111.543 108.902C112.417 108.273 113.581 107.625 114.822 106.9C117.612 105.282 120.988 103.323 123.436 100.682C125.656 98.2448 127.008 95.143 127.284 91.8582C127.588 88.6176 126.803 85.3682 125.054 82.6235C122.8 79.1843 119.657 76.4193 115.959 74.6217C111.867 72.6459 107.386 71.6034 102.842 71.5697H102.815Z" fill="#141515"/>
<path d="M120.104 93.1172C120.155 93.1688 120.216 93.2092 120.284 93.2355C120.351 93.2619 120.424 93.2738 120.496 93.2703C120.569 93.2668 120.64 93.2481 120.704 93.2154C120.769 93.1827 120.826 93.1367 120.872 93.0805C120.918 93.0242 120.951 92.9589 120.97 92.8889C120.989 92.8188 120.993 92.7456 120.981 92.674C120.97 92.6024 120.943 92.5339 120.904 92.4732C120.864 92.4124 120.812 92.3607 120.751 92.3214C120.193 91.8617 119.556 91.5062 118.871 91.272C118.228 91.0591 117.555 90.9528 116.877 90.9572C116.741 90.9594 116.611 91.0145 116.515 91.1108C116.419 91.207 116.364 91.337 116.361 91.4731C116.364 91.6093 116.419 91.7392 116.515 91.8355C116.611 91.9317 116.741 91.9868 116.877 91.9891C117.295 91.9842 117.712 92.0282 118.119 92.1202C115.968 96.6327 112.059 98.3642 106.812 97.9532C107.081 98.3334 107.473 98.6085 107.922 98.7315C108.167 100.699 108.657 101.88 109.873 102.728C112.041 104.25 115.391 103.069 116.939 101.093C118.486 99.1163 119.037 96.1867 119.011 92.4351C119.401 92.618 119.768 92.847 120.104 93.1172Z" fill="#141515"/>
<path fill-rule="evenodd" clip-rule="evenodd" d="M115.277 101.809C114.68 102.275 113.98 102.59 113.236 102.73C112.493 102.87 111.726 102.83 111.001 102.614C109.601 102.107 110.292 101.136 111.176 100.611C111.416 100.415 111.72 100.315 112.03 100.33C112.34 100.344 112.634 100.472 112.855 100.69C112.526 100.996 112.277 101.377 112.129 101.801C112.646 101.126 113.366 100.635 114.184 100.401C114.988 100.27 116.361 100.987 115.277 101.809Z" fill="#DD2A1B"/>
<path fill-rule="evenodd" clip-rule="evenodd" d="M114.21 81.7225C111.377 74.9975 106.462 70.9486 99.1162 70.0304C91.6742 69.3745 84.8531 70.2577 79.5448 74.8226C74.8925 78.9416 73.9043 83.8738 76.3704 89.5843C80.6817 96.4141 85.9899 98.3818 92.3825 95.0149C96.7551 98.8453 102.194 99.3875 109.103 95.5571C114.849 92.6363 116.195 87.8702 114.21 81.7225Z" fill="#FFF7E4"/>
<path fill-rule="evenodd" clip-rule="evenodd" d="M93.3794 95.8195L93.7117 95.6533C94.4356 96.2994 95.2272 96.8653 96.0729 97.3411C95.1155 96.9474 94.2107 96.4363 93.3794 95.8195ZM105.911 72.1029C104.164 71.3724 102.325 70.8868 100.445 70.66C93.0034 70.0129 86.1822 70.8961 80.874 75.4523C76.2129 79.5799 75.2072 84.5122 77.6996 90.2139C79.0569 92.5688 80.9693 94.5562 83.2701 96.0031C80.7428 95.0149 78.4429 92.8549 76.3703 89.5843C73.9042 83.8738 74.8924 78.9416 79.5797 74.8226C84.888 70.2577 91.7091 69.3745 99.1511 70.0304C101.525 70.2954 103.829 70.9982 105.946 72.1029H105.911Z" fill="#FEFEFE"/>
<path fill-rule="evenodd" clip-rule="evenodd" d="M114.21 81.7227C113.82 80.7969 113.376 79.8947 112.881 79.0205L113.012 79.3353C114.997 85.4569 113.65 90.2404 107.896 93.17C100.996 96.9653 95.5307 96.4581 91.1844 92.6278C85.1154 95.8285 80.0258 94.2106 75.8369 88.194C75.9943 88.6488 76.178 89.1123 76.3704 89.5845C80.6817 96.4144 85.9899 98.382 92.3825 95.0152C96.755 98.8455 102.194 99.3877 109.103 95.5574C114.849 92.6365 116.195 87.8705 114.21 81.7227Z" fill="#FFED91"/>
<path fill-rule="evenodd" clip-rule="evenodd" d="M92.6974 77.5336C94.9087 76.9441 97.1588 76.5116 99.4311 76.2393C102.448 75.907 106.672 75.3648 107.302 78.0758C108.019 81.2852 104.32 84.7133 101.705 86.0425C96.895 88.4736 90.3362 88.8934 86.1299 85.168C84.783 83.9635 83.6634 82.5269 82.8243 80.9267C80.2007 76.2393 82.1684 74.5953 87.1968 75.7846C89.0836 76.237 90.9362 76.8215 92.7411 77.5336H92.6974Z" fill="#EDD16D"/>
<path fill-rule="evenodd" clip-rule="evenodd" d="M92.4875 76.6764C94.6266 76.0822 96.8073 75.6496 99.0113 75.3821C101.95 75.0323 106.007 74.5076 106.628 77.2098C107.31 80.4105 103.716 83.8473 101.18 85.1678C96.5102 87.6077 90.1613 88.0274 86.0599 84.3458C84.7485 83.1334 83.6594 81.7009 82.8417 80.1132C80.3494 75.4258 82.2208 73.773 87.0918 74.9623C88.9296 75.4164 90.7328 76.0009 92.4875 76.7113V76.6764Z" fill="#141515"/>
<path fill-rule="evenodd" clip-rule="evenodd" d="M98.2241 79.4575C97.7694 79.3351 97.507 79.1077 97.6207 78.8366C97.8131 78.3469 99.3697 77.7172 100.507 77.5598C101.643 77.4024 102.885 78.3819 101.993 79.0815C101.468 79.4837 99.0024 79.6586 98.2241 79.4575Z" fill="#FEFEFE"/>
<path d="M90.4325 96.6936C89.5833 96.9699 88.701 97.1316 87.809 97.1746C85.6825 97.2713 83.5689 96.7973 81.6874 95.8016C79.5954 94.6781 77.8345 93.0258 76.5803 91.0093C75.3303 89.0229 74.6079 86.7504 74.4815 84.4068C74.3702 82.3829 74.8019 80.3661 75.7321 78.5651C77.621 74.9972 81.4951 72.26 86.1387 70.6946C89.3985 69.617 92.8262 69.137 96.2567 69.2779C99.7108 69.3803 103.1 70.2432 106.182 71.8052C110.281 73.9177 113.38 77.5636 114.805 81.9495C116.012 85.5349 115.741 88.6044 114.385 91.1143C112.898 93.8777 110.126 95.9503 106.593 97.3232C104.238 98.2651 101.713 98.7087 99.1775 98.6262C97.0509 98.5616 94.9982 97.8305 93.3096 96.5362C92.9922 96.2718 92.6995 95.9791 92.4351 95.6617C91.8251 96.0884 91.1564 96.4242 90.45 96.6586L90.4325 96.6936ZM91.7792 94.8746C91.5776 94.5738 91.3993 94.2581 91.2458 93.9302C90.7779 92.9102 90.4824 91.8198 90.3713 90.7032C91.1396 92.6368 92.3601 94.3581 93.9305 95.7229C95.441 96.8797 97.2759 97.5341 99.1775 97.5943C101.57 97.673 103.952 97.2531 106.174 96.3613C109.488 95.0758 112.068 93.1606 113.432 90.6245C114.656 88.3596 114.892 85.5699 113.782 82.2818C112.444 78.1467 109.523 74.7098 105.658 72.7235C102.719 71.2335 99.4887 70.4066 96.1954 70.3011C92.8959 70.1855 89.6023 70.6624 86.471 71.709C82.0985 73.1869 78.3993 75.7667 76.6503 79.0811C75.8035 80.7236 75.4082 82.5614 75.5047 84.4068C75.6193 86.5808 76.2908 88.6887 77.4548 90.5283C78.6296 92.3725 80.2667 93.877 82.2034 94.8921C83.9217 95.7979 85.8513 96.2267 87.7915 96.1339C88.5877 96.1037 89.3761 95.9654 90.1351 95.7229C90.734 95.5138 91.2995 95.2192 91.8142 94.8484L91.7792 94.8746Z" fill="#141515"/>
<path fill-rule="evenodd" clip-rule="evenodd" d="M105.605 89.9949C105.247 89.9949 104.967 89.5839 104.975 89.1204C104.946 89.0189 104.941 88.9121 104.961 88.8083C104.98 88.7045 105.023 88.6066 105.087 88.5223C105.15 88.438 105.233 88.3696 105.327 88.3226C105.422 88.2755 105.526 88.251 105.631 88.251C105.737 88.251 105.841 88.2755 105.936 88.3226C106.03 88.3696 106.112 88.438 106.176 88.5223C106.239 88.6066 106.283 88.7045 106.302 88.8083C106.321 88.9121 106.316 89.0189 106.287 89.1204C106.287 89.5927 105.972 89.9949 105.605 89.9949Z" fill="#EEA846"/>
<path d="M105.325 88.6137C105.22 88.7594 105.159 88.9326 105.15 89.1122C105.142 89.2945 105.191 89.475 105.29 89.6281C105.325 89.6837 105.372 89.7301 105.429 89.7635C105.485 89.797 105.548 89.8165 105.614 89.8205C105.679 89.8192 105.743 89.8027 105.801 89.7723C105.858 89.7419 105.908 89.6986 105.946 89.6456C106.058 89.5036 106.12 89.3281 106.121 89.1472C106.127 88.9677 106.079 88.7906 105.981 88.6399C105.944 88.5866 105.896 88.5419 105.84 88.5087C105.784 88.4755 105.722 88.4547 105.657 88.4476C105.593 88.4491 105.53 88.4649 105.473 88.4936C105.415 88.5223 105.365 88.5633 105.325 88.6137ZM105.666 88.1065C105.784 88.1138 105.898 88.1475 106.001 88.205C106.104 88.2625 106.193 88.3424 106.261 88.4388C106.401 88.6509 106.472 88.9017 106.462 89.1559C106.462 89.4143 106.373 89.6648 106.208 89.8642C106.141 89.9632 106.05 90.0434 105.943 90.0974C105.836 90.1514 105.717 90.1775 105.597 90.1731C105.478 90.1687 105.361 90.1341 105.258 90.0724C105.156 90.0108 105.07 89.9241 105.01 89.8205C104.868 89.6095 104.797 89.3579 104.809 89.1034C104.817 88.8505 104.902 88.6061 105.054 88.4038C105.126 88.3101 105.219 88.2345 105.325 88.1829C105.431 88.1313 105.548 88.1051 105.666 88.1065Z" fill="#141515"/>
<path fill-rule="evenodd" clip-rule="evenodd" d="M82.0721 86.5756C81.8799 86.6382 81.7188 86.7715 81.6213 86.9486C81.5239 87.1256 81.4975 87.333 81.5474 87.5288C81.5362 87.6328 81.5491 87.7379 81.5851 87.836C81.621 87.9341 81.679 88.0227 81.7546 88.0949C81.8302 88.167 81.9214 88.2209 82.0211 88.2522C82.1208 88.2835 82.2264 88.2915 82.3297 88.2756C82.433 88.2596 82.5312 88.2202 82.6168 88.1602C82.7024 88.1003 82.7731 88.0215 82.8234 87.9299C82.8738 87.8383 82.9024 87.7363 82.907 87.6319C82.9117 87.5275 82.8923 87.4234 82.8504 87.3277C82.7804 86.8642 82.4306 86.5232 82.0721 86.5756Z" fill="#EEA846"/>
<path d="M81.8009 86.9786C81.7197 87.1377 81.6892 87.3177 81.7134 87.4946C81.7399 87.6757 81.8225 87.8439 81.9495 87.9756C81.9947 88.0238 82.051 88.0603 82.1135 88.0816C82.176 88.103 82.2429 88.1086 82.3081 88.098C82.371 88.0866 82.4305 88.061 82.4821 88.0231C82.5336 87.9852 82.5758 87.9361 82.6054 87.8794C82.6813 87.7156 82.7086 87.5335 82.6841 87.3547C82.6526 87.1752 82.5707 87.0084 82.448 86.8737C82.4016 86.8299 82.3464 86.7963 82.2861 86.7752C82.2259 86.7541 82.1618 86.746 82.0982 86.7513C82.0347 86.7642 81.9749 86.7914 81.9234 86.8308C81.8719 86.8702 81.83 86.9207 81.8009 86.9786ZM82.0457 86.4102C82.1638 86.3955 82.2837 86.4084 82.396 86.4478C82.5083 86.4873 82.6099 86.5522 82.6929 86.6376C82.8729 86.8161 82.987 87.0504 83.0164 87.3022C83.0574 87.5529 83.0176 87.8102 82.9028 88.0368C82.8486 88.1421 82.7705 88.2333 82.6749 88.3031C82.5792 88.373 82.4686 88.4195 82.3518 88.439C82.2356 88.4586 82.1164 88.4488 82.0049 88.4106C81.8934 88.3725 81.7933 88.3071 81.7134 88.2204C81.5323 88.0393 81.4135 87.8053 81.3742 87.5522C81.3349 87.299 81.3771 87.04 81.4948 86.8125C81.549 86.7072 81.627 86.616 81.7227 86.5461C81.8183 86.4763 81.9289 86.4298 82.0457 86.4102Z" fill="#141515"/>
<path fill-rule="evenodd" clip-rule="evenodd" d="M109.313 92.0152C109.072 92.051 108.825 92.0117 108.607 91.9026C108.389 91.7935 108.209 91.62 108.093 91.4054C107.977 91.1909 107.929 90.9458 107.957 90.7034C107.985 90.461 108.086 90.233 108.248 90.0503C108.41 89.8676 108.624 89.7391 108.861 89.6822C109.098 89.6253 109.348 89.6428 109.575 89.7322C109.802 89.8217 109.996 89.9788 110.13 90.1822C110.265 90.3857 110.334 90.6257 110.327 90.8696C110.342 91.1553 110.244 91.4353 110.054 91.6495C109.864 91.8637 109.598 91.995 109.313 92.0152Z" fill="#EEA846"/>
<path d="M108.841 90.0741C108.679 90.2781 108.591 90.5309 108.591 90.7912C108.591 91.0516 108.679 91.3043 108.841 91.5083C108.905 91.595 108.988 91.6664 109.083 91.7178C109.179 91.7692 109.284 91.7991 109.392 91.8056C109.501 91.806 109.609 91.7827 109.709 91.7374C109.809 91.6922 109.897 91.6259 109.969 91.5433C110.136 91.3451 110.229 91.0945 110.231 90.8349C110.246 90.5775 110.168 90.3233 110.013 90.1178C109.949 90.0296 109.866 89.9564 109.771 89.9035C109.676 89.8506 109.57 89.8193 109.462 89.8118C109.352 89.8096 109.243 89.8321 109.143 89.8775C109.043 89.9229 108.955 89.9901 108.885 90.0741H108.841ZM109.427 89.4707C109.586 89.4757 109.742 89.5169 109.883 89.5912C110.024 89.6654 110.146 89.7708 110.24 89.8992C110.457 90.1755 110.571 90.5192 110.562 90.8707C110.552 91.2221 110.42 91.5591 110.188 91.8231C110.082 91.9503 109.947 92.0507 109.795 92.116C109.643 92.1814 109.478 92.2099 109.313 92.1992C109.153 92.1917 108.997 92.1496 108.855 92.0756C108.713 92.0016 108.589 91.8975 108.491 91.7707C108.293 91.496 108.191 91.1632 108.202 90.8245C108.213 90.4858 108.336 90.1604 108.552 89.8992C108.658 89.7726 108.793 89.6726 108.945 89.6073C109.097 89.542 109.262 89.5132 109.427 89.5232V89.4707Z" fill="#141515"/>
<path fill-rule="evenodd" clip-rule="evenodd" d="M103.489 94.4895C103.232 94.463 102.996 94.336 102.832 94.1361C102.668 93.9363 102.59 93.6799 102.614 93.4226C102.608 93.1751 102.694 92.9342 102.856 92.7467C103.017 92.5592 103.243 92.4385 103.489 92.4082C103.731 92.4597 103.948 92.5946 104.101 92.7894C104.254 92.9843 104.334 93.2267 104.327 93.4744C104.32 93.7221 104.225 93.9594 104.061 94.145C103.897 94.3305 103.673 94.4524 103.428 94.4895H103.489Z" fill="#EEA846"/>
<path d="M103.06 92.8106C102.907 92.9782 102.82 93.1958 102.815 93.4228C102.804 93.6528 102.875 93.8793 103.016 94.0611C103.072 94.1356 103.143 94.1969 103.224 94.2407C103.306 94.2846 103.396 94.3098 103.489 94.3148C103.584 94.3182 103.678 94.2994 103.765 94.26C103.851 94.2205 103.927 94.1614 103.987 94.0874C104.144 93.9195 104.229 93.6965 104.223 93.4665C104.236 93.2431 104.168 93.0225 104.031 92.8456C103.975 92.7689 103.903 92.7056 103.82 92.6602C103.737 92.6148 103.645 92.5885 103.55 92.5832C103.456 92.5818 103.364 92.6015 103.279 92.6409C103.194 92.6803 103.119 92.7383 103.06 92.8106ZM103.559 92.2422C103.703 92.2486 103.844 92.2863 103.973 92.3528C104.101 92.4192 104.213 92.5128 104.302 92.627C104.492 92.8773 104.585 93.1879 104.564 93.5015C104.57 93.8232 104.454 94.1352 104.241 94.376C104.147 94.4858 104.03 94.5733 103.899 94.6323C103.767 94.6913 103.624 94.7203 103.48 94.717C103.336 94.7083 103.196 94.6686 103.07 94.6007C102.943 94.5328 102.832 94.4382 102.745 94.3235C102.555 94.0729 102.459 93.7633 102.474 93.449C102.479 93.1406 102.597 92.8447 102.807 92.6182C102.897 92.5076 103.013 92.4194 103.143 92.3602C103.273 92.3011 103.416 92.2727 103.559 92.2772V92.2422Z" fill="#141515"/>
<path fill-rule="evenodd" clip-rule="evenodd" d="M83.1829 90.6246C82.9514 90.7181 82.7608 90.891 82.6453 91.1124C82.5299 91.3337 82.4971 91.589 82.5529 91.8324C82.6088 92.0757 82.7495 92.2911 82.9499 92.44C83.1503 92.5889 83.3973 92.6615 83.6464 92.6447C83.889 92.5646 84.0903 92.3921 84.2065 92.1645C84.3228 91.9369 84.3446 91.6727 84.2673 91.4291C84.2284 91.1795 84.0928 90.9552 83.8899 90.8046C83.687 90.6541 83.4331 90.5894 83.1829 90.6246Z" fill="#EEA846"/>
<path d="M82.7981 91.132C82.6989 91.3357 82.6741 91.5677 82.7281 91.7878C82.7815 92.0096 82.904 92.2087 83.0779 92.3563C83.1523 92.4137 83.2386 92.4538 83.3304 92.4735C83.4223 92.4933 83.5174 92.4922 83.6088 92.4704C83.7002 92.4486 83.7856 92.4066 83.8587 92.3475C83.9318 92.2884 83.9907 92.2137 84.0311 92.1289C84.1303 91.9251 84.155 91.6931 84.1011 91.473C84.0571 91.2499 83.9326 91.0507 83.7513 90.9133C83.6781 90.854 83.5923 90.8121 83.5005 90.7908C83.4087 90.7695 83.3133 90.7693 83.2214 90.7904C83.1295 90.8115 83.0437 90.8532 82.9703 90.9124C82.897 90.9715 82.8381 91.0466 82.7981 91.132ZM83.1391 90.4586C83.2797 90.4249 83.4261 90.424 83.5671 90.4558C83.7081 90.4877 83.8399 90.5514 83.9524 90.6422C84.2017 90.8235 84.3734 91.092 84.4334 91.3943C84.5059 91.688 84.4718 91.9979 84.3372 92.2688C84.2761 92.3996 84.1861 92.5147 84.074 92.6056C83.9619 92.6965 83.8306 92.7607 83.69 92.7935C83.5494 92.8252 83.4034 92.8252 83.2627 92.7935C83.122 92.7617 82.9902 92.699 82.8768 92.6099C82.6317 92.4209 82.4614 92.1514 82.3958 91.849C82.3209 91.5555 82.355 91.2448 82.492 90.9745C82.552 90.843 82.6416 90.7272 82.7539 90.6362C82.8662 90.5452 82.998 90.4814 83.1391 90.4498V90.4586Z" fill="#141515"/>
<path fill-rule="evenodd" clip-rule="evenodd" d="M79.4574 88.5522C79.2675 88.618 79.1108 88.7554 79.0209 88.9352C78.9311 89.115 78.9151 89.3227 78.9764 89.5141C78.9902 89.6143 79.024 89.7106 79.0758 89.7973C79.1276 89.8841 79.1964 89.9595 79.278 90.0191C79.3596 90.0787 79.4524 90.1212 79.5509 90.1442C79.6493 90.1671 79.7513 90.1699 79.8509 90.1525C80.0391 90.0866 80.1948 89.951 80.2859 89.7736C80.3771 89.5963 80.3966 89.3907 80.3406 89.1993C80.3083 88.9986 80.1986 88.8185 80.0352 88.6976C79.8718 88.5767 79.6675 88.5245 79.4661 88.5522H79.4574Z" fill="#EEA846"/>
<path d="M79.1949 88.9806C79.1236 89.1335 79.1051 89.3058 79.1424 89.4703C79.1772 89.637 79.2702 89.7858 79.4047 89.8901C79.4581 89.9323 79.5202 89.9619 79.5865 89.977C79.6528 89.992 79.7216 89.9919 79.7879 89.9768C79.8541 89.9617 79.9162 89.9319 79.9695 89.8897C80.0227 89.8474 80.0658 89.7938 80.0956 89.7327C80.1581 89.5835 80.1714 89.4183 80.1337 89.2611C80.096 89.1038 80.0091 88.9627 79.8857 88.8582C79.8321 88.8157 79.7701 88.7852 79.7037 88.7686C79.6374 88.752 79.5682 88.7497 79.5009 88.762C79.4347 88.7825 79.3734 88.8163 79.3207 88.8614C79.2681 88.9066 79.2252 88.962 79.1949 89.0243V88.9806ZM79.4222 88.3859C79.5391 88.3611 79.6601 88.3623 79.7765 88.3895C79.8929 88.4167 80.0018 88.4692 80.0956 88.5434C80.2922 88.71 80.42 88.9437 80.4541 89.1992C80.5157 89.4408 80.4845 89.6966 80.3667 89.9163C80.3153 90.0239 80.2408 90.1188 80.1486 90.1943C80.0564 90.2699 79.9488 90.3242 79.8332 90.3536C79.7178 90.3803 79.5978 90.38 79.4825 90.3527C79.3672 90.3253 79.2598 90.2718 79.1686 90.1962C78.9648 90.0476 78.8218 89.8301 78.7664 89.584C78.7158 89.3398 78.7434 89.0859 78.8451 88.8582C78.9007 88.752 78.9775 88.6585 79.0707 88.5832C79.164 88.508 79.2717 88.4528 79.3872 88.4209L79.4222 88.3859Z" fill="#141515"/>
<path d="M110.974 62.6847C112.438 62.7298 113.847 63.2474 114.992 64.1602C116.136 65.073 116.954 66.3319 117.324 67.7485C117.693 69.1651 117.594 70.6632 117.041 72.0188C116.488 73.3743 115.511 74.5143 114.256 75.2683C113.001 76.0223 111.536 76.3497 110.08 76.2015C108.623 76.0533 107.254 75.4374 106.177 74.4461C105.099 73.4548 104.372 72.1413 104.103 70.7022C103.835 69.2631 104.04 67.7757 104.687 66.4626C104.108 66.1417 103.478 65.9256 102.824 65.8242C102.187 65.7399 101.54 65.7785 100.918 65.9379C101.194 67.5404 100.886 69.189 100.048 70.5828C99.2098 71.9765 97.8987 73.0226 96.3537 73.53C94.8086 74.0374 93.1326 73.9723 91.6316 73.3466C90.1305 72.7209 88.9045 71.5764 88.1772 70.1218C87.4499 68.6673 87.2699 66.9997 87.67 65.4235C88.0701 63.8472 89.0236 62.4674 90.3566 61.5358C91.6895 60.6042 93.313 60.1829 94.9308 60.3489C96.5485 60.5148 98.0526 61.257 99.1687 62.4398C99.6837 62.9954 100.106 63.6302 100.419 64.32C101.273 64.0848 102.165 64.0252 103.043 64.1451C103.966 64.2643 104.856 64.5613 105.666 65.0196C105.815 64.8535 105.964 64.6961 106.13 64.5387C106.78 63.9284 107.544 63.4528 108.378 63.1391C109.213 62.8254 110.101 62.6799 110.992 62.7109L110.974 62.6847ZM90.7472 63.3231C90.2399 63.7728 89.828 64.3197 89.5356 64.9313C89.2433 65.543 89.0766 66.207 89.0453 66.8842C89.014 67.5614 89.1187 68.238 89.3534 68.874C89.588 69.51 89.9478 70.0926 90.4114 70.5872C90.875 71.0818 91.4331 71.4784 92.0526 71.7537C92.6721 72.0289 93.3406 72.1772 94.0184 72.1897C94.6962 72.2022 95.3696 72.0787 95.9989 71.8265C96.6281 71.5743 97.2005 71.1985 97.682 70.7214C98.1893 70.2717 98.6013 69.7248 98.8936 69.1132C99.1859 68.5015 99.3526 67.8374 99.3839 67.1603C99.4152 66.4831 99.3105 65.8065 99.0758 65.1704C98.8412 64.5344 98.4814 63.9519 98.0178 63.4573C97.5542 62.9627 96.9961 62.566 96.3766 62.2908C95.7571 62.0156 95.0887 61.8673 94.4108 61.8548C93.733 61.8423 93.0596 61.9658 92.4303 62.218C91.8011 62.4701 91.2288 62.8459 90.7472 63.3231ZM107.293 65.7717C106.566 66.457 106.058 67.3422 105.832 68.3157C105.607 69.2892 105.675 70.3076 106.028 71.2426C106.38 72.1776 107.002 72.9873 107.813 73.57C108.625 74.1526 109.591 74.482 110.59 74.5167C111.255 74.5385 111.917 74.4292 112.54 74.1949C113.163 73.9606 113.733 73.6059 114.219 73.1512C114.704 72.6964 115.096 72.1505 115.37 71.5445C115.645 70.9386 115.797 70.2844 115.819 69.6195C115.841 68.9546 115.732 68.2919 115.497 67.6692C115.263 67.0465 114.908 66.4761 114.454 65.9905C113.999 65.5049 113.453 65.1136 112.847 64.839C112.241 64.5644 111.587 64.4118 110.922 64.39C109.579 64.3471 108.275 64.8376 107.293 65.7542V65.7717Z" fill="#141515"/>
<path d="M105.587 126.042C105.587 126.042 105.587 125.989 105.587 125.963C105.596 125.753 105.687 125.555 105.841 125.412C105.917 125.34 106.006 125.283 106.103 125.246C106.201 125.208 106.305 125.191 106.409 125.194C106.515 125.197 106.619 125.221 106.715 125.264C106.811 125.308 106.897 125.37 106.969 125.447C107.042 125.523 107.098 125.612 107.136 125.709C107.173 125.807 107.191 125.911 107.188 126.016H107.887C107.894 125.623 107.746 125.243 107.476 124.958C107.208 124.67 106.837 124.5 106.444 124.485C106.25 124.478 106.055 124.51 105.873 124.578C105.69 124.647 105.523 124.751 105.381 124.884C105.239 125.017 105.124 125.177 105.044 125.355C104.964 125.533 104.92 125.725 104.914 125.92C104.914 125.92 104.914 125.989 104.914 126.024L105.587 126.042Z" fill="#141515"/>
<path fill-rule="evenodd" clip-rule="evenodd" d="M83.4888 18.6357L85.4652 19.0118L84.2758 34.6741C84.821 35.0905 85.2509 35.6392 85.5248 36.2681C85.7987 36.8971 85.9076 37.5855 85.8412 38.2683C85.2815 41.8101 78.9239 41.7663 79.4049 37.6299C79.5055 36.9315 79.7672 36.266 80.1694 35.6862C80.5717 35.1064 81.1033 34.6282 81.7223 34.2893L83.4888 18.6357Z" fill="#544A43"/>
<path fill-rule="evenodd" clip-rule="evenodd" d="M81.7224 34.2893L83.4714 18.6357L84.5383 18.8369C84.5383 19.7114 84.5383 20.5422 84.4596 21.3904C84.3809 22.2387 84.2235 23.2706 84.1273 24.2238C84.0311 25.177 83.9087 26.1827 83.8387 27.1796C83.8387 27.5207 83.7513 27.8705 83.6988 28.2203C83.4277 30.0568 83.2004 31.867 83.0604 33.7209C83.008 34.3331 82.9205 34.9452 82.8156 35.5574C82.6348 35.8897 82.4599 36.2307 82.2909 36.5805C81.6164 37.7124 81.1846 38.9721 81.0228 40.2797C81.0228 40.3671 81.0228 40.4546 81.0228 40.5595C80.449 40.3352 79.9725 39.9161 79.6767 39.3757C79.3809 38.8353 79.2847 38.2079 79.405 37.6037C79.5056 36.9053 79.7674 36.2398 80.1696 35.66C80.5718 35.0802 81.1035 34.602 81.7224 34.2631V34.2893Z" fill="#7A6C63"/>
<path fill-rule="evenodd" clip-rule="evenodd" d="M83.6374 24.5649L82.894 23.9527L83.4887 18.6357L85.4651 19.0118L84.9666 25.5968C84.5206 25.2557 84.0921 24.9147 83.6374 24.5649Z" fill="#352A23"/>
<path d="M86.0598 18.5568L84.8268 34.4466C85.3526 34.9395 85.7722 35.5347 86.0598 36.1956C86.3715 36.8762 86.4778 37.6329 86.3659 38.3731C86.2386 39.0908 85.896 39.7528 85.3838 40.2714C84.8715 40.7899 84.2136 41.1404 83.4975 41.2764C82.9789 41.397 82.4434 41.4265 81.9147 41.3639C81.4018 41.2975 80.9062 41.1342 80.4542 40.8829C79.8763 40.5742 79.4106 40.0911 79.1232 39.5023C78.8359 38.9134 78.7416 38.249 78.8539 37.6035C78.9582 36.8185 79.259 36.0726 79.7284 35.4347C80.1308 34.8572 80.6453 34.3664 81.2413 33.9918L82.9903 18.0146L85.5613 18.5044L86.0598 18.5568ZM82.247 34.6477L82.0021 34.7789C81.4503 35.0893 80.9751 35.5197 80.6116 36.0382C80.2656 36.5287 80.0436 37.0958 79.9645 37.691C79.8793 38.1183 79.9315 38.5618 80.1137 38.9576C80.296 39.3535 80.5988 39.6815 80.9789 39.8947C81.314 40.0796 81.6827 40.1956 82.0633 40.2358C82.4636 40.2869 82.8698 40.2632 83.2614 40.1658C83.7588 40.0767 84.2178 39.8396 84.5782 39.4854C84.9386 39.1312 85.1838 38.6765 85.2815 38.1807C85.3586 37.6507 85.2796 37.1098 85.0541 36.6241C84.8025 36.0399 84.4265 35.5176 83.9523 35.0937L83.7424 34.91L84.9142 19.4751L84.0397 19.3002L82.247 34.6477Z" fill="#261C17"/>
<path fill-rule="evenodd" clip-rule="evenodd" d="M145.045 16.8431L130.546 27.8968L129.269 33.3537C116.861 30.2624 103.867 30.413 91.5342 33.791L91.1319 28.7975L81.7397 18.8107L82.0458 15.1378L115.627 0.612305L145.36 13.3975L145.045 16.8431Z" fill="#544A43"/>
<path fill-rule="evenodd" clip-rule="evenodd" d="M135.321 10.4417C131.298 8.60526 127.135 7.05739 123.078 5.1947C120.096 3.84797 117.122 2.50998 114.14 1.20697L115.627 0.612305L145.36 13.3975L145.211 14.8667C141.809 13.6599 138.617 11.9983 135.321 10.4942V10.4417Z" fill="#91847B"/>
<path fill-rule="evenodd" clip-rule="evenodd" d="M91.1758 26.4011C91.1714 26.3458 91.1714 26.2902 91.1758 26.2349C91.5868 26.13 92.6624 25.6403 93.0909 25.5703C93.2396 27.0395 93.7555 32.2165 93.913 33.1785C93.1084 33.3709 92.3214 33.572 91.5343 33.7906L91.132 28.7972L91.0271 28.6835C91.0883 27.949 91.1146 27.1881 91.1758 26.4011Z" fill="#91847B"/>
<path fill-rule="evenodd" clip-rule="evenodd" d="M129.147 24.6523L129.566 24.7398C130.09 24.9332 130.593 25.1763 131.07 25.4656C131.07 25.4656 131.07 25.5181 131.07 25.5356C130.834 26.1927 130.642 26.8646 130.493 27.5469C130.415 28.0454 130.353 28.5439 130.301 29.0423L129.295 33.3537C128.578 33.1875 127.87 33.0301 127.17 32.8902C127.17 32.7852 127.231 32.6803 127.258 32.5841C128.086 29.9897 128.726 27.3389 129.173 24.6523H129.147Z" fill="#91847B"/>
<path fill-rule="evenodd" clip-rule="evenodd" d="M82.0459 15.1378L115.627 0.612305L115.749 0.664775C115.618 2.09022 115.478 3.53315 115.469 4.96733L81.7573 18.5571L82.0459 15.1378Z" fill="#7A6D64"/>
<path fill-rule="evenodd" clip-rule="evenodd" d="M101.302 10.4945C105.928 8.65805 110.581 6.57673 115.408 4.94141C116.178 5.29121 116.956 5.64101 117.708 5.99956C120.997 7.43904 124.356 8.71161 127.774 9.81239C131.114 10.9842 134.376 12.2872 137.62 13.6952C139.221 14.3948 140.812 15.1381 142.404 15.8377C143.217 16.1963 144.057 16.6423 144.923 16.9483L130.581 27.8884C130.529 27.3969 130.614 26.9006 130.826 26.4542C130.891 26.3295 130.922 26.1893 130.914 26.0486C130.906 25.9078 130.861 25.7718 130.782 25.6551C130.703 25.5384 130.593 25.4453 130.466 25.3858C130.338 25.3263 130.196 25.3027 130.056 25.3173H129.995C128.839 25.039 127.703 24.6855 126.593 24.2592C125.605 23.9793 124.617 23.6908 123.62 23.4721C121.451 22.9824 119.247 22.4839 117.043 22.1779C112.692 21.7004 108.291 21.9307 104.013 22.86C101.713 23.306 99.4572 23.8831 97.2097 24.5128C96.0903 24.8364 94.9885 25.1862 93.8691 25.501C93.1212 25.6224 92.3995 25.8709 91.7353 26.2356C91.4797 26.4174 91.2726 26.6592 91.1323 26.9398C90.9921 27.2203 90.9228 27.5311 90.9308 27.8446V28.6142L81.7397 18.811C88.1761 16.0389 94.5337 13.1093 101.302 10.5032V10.4945Z" fill="#352A23"/>
<path d="M129.697 34.0269L129.147 33.8957C122.867 32.3886 116.426 31.6544 109.969 31.7095C103.785 31.7839 97.6378 32.6659 91.6828 34.333L91.0269 34.5166L90.5897 29.0335L81.1538 19.0117L81.5124 14.7529L115.618 0L145.928 13.0476L145.578 17.1403L131.044 28.2202L129.697 34.0269ZM144.739 13.7472L115.627 1.21556L82.5792 15.5137L82.3169 18.6094L91.6741 28.5613L92.0414 33.0737C97.887 31.5024 103.907 30.6739 109.96 30.6076C116.32 30.5479 122.665 31.2496 128.858 32.6977L130.047 27.5993L144.503 16.5718L144.739 13.7472Z" fill="#261C17"/>
<path d="M81.9585 19.0644L115.391 5.31724L144.748 17.1405L145.028 16.4409L115.382 4.5127L81.6699 18.3736L81.9585 19.0644Z" fill="#261C17"/>
<path d="M115.297 0.731433L114.992 4.93555L115.743 4.98984L116.047 0.785728L115.297 0.731433Z" fill="#261C17"/>
<path d="M129.531 32.7149L131.394 25.2554L131.079 25.133C117.245 20.0521 103.751 20.4107 90.9483 26.2348L90.7122 26.3485L90.9745 29.4005L91.7178 29.3393L91.4992 26.812C103.926 21.2502 117.043 20.9004 130.485 25.7626L128.788 32.5662L129.531 32.7149Z" fill="#261C17"/>
<path d="M23.1743 121H155.224C158.268 120.999 161.282 121.597 164.094 122.762C166.906 123.926 169.461 125.633 171.614 127.785C173.766 129.937 175.473 132.492 176.637 135.305C177.801 138.117 178.4 141.131 178.399 144.174C178.399 150.321 175.957 156.215 171.611 160.561C167.265 164.907 161.371 167.349 155.224 167.349H23.1743C17.0281 167.349 11.1336 164.907 6.78761 160.561C2.44158 156.215 1.6514e-06 150.321 1.6514e-06 144.174C-0.00114754 141.131 0.59749 138.117 1.7617 135.305C2.92591 132.492 4.63288 129.937 6.78504 127.785C8.93721 125.633 11.4924 123.926 14.3045 122.762C17.1167 121.597 20.1307 120.999 23.1743 121Z" fill="url(#paint1_linear_584_425)"/>
<path fill-rule="evenodd" clip-rule="evenodd" d="M13.4238 131.351C10.4592 133.467 8.65772 135.889 6.42773 138.924C7.49619 135.581 9.28761 132.515 11.6748 129.943C15.9948 125.518 21.2943 125.29 27.101 125.124C44.215 124.643 62.0811 125.072 80.0522 124.984C62.1948 125.937 44.6523 126.086 26.8649 127.468C21.1369 127.905 18.251 127.896 13.4063 131.351H13.4238Z" fill="#FEFEFE"/>
<defs>
<linearGradient id="paint0_linear_584_425" x1="45.684" y1="9.11204" x2="136.973" y2="165.753" gradientUnits="userSpaceOnUse">
<stop stop-color="#F6E002"/>
<stop offset="0.93" stop-color="#F7B200"/>
</linearGradient>
<linearGradient id="paint1_linear_584_425" x1="89.1993" y1="120.991" x2="89.1993" y2="167.34" gradientUnits="userSpaceOnUse">
<stop stop-color="#9569EF"/>
<stop offset="1" stop-color="#6938CC"/>
</linearGradient>
</defs>
</svg>
