<svg width="178" height="186" viewBox="0 0 178 186" fill="none" xmlns="http://www.w3.org/2000/svg">
<path d="M87.6526 178.846C132.639 178.846 169.107 142.378 169.107 97.3914C169.107 52.4051 132.639 15.9365 87.6526 15.9365C42.6662 15.9365 6.19763 52.4051 6.19763 97.3914C6.19763 142.378 42.6662 178.846 87.6526 178.846Z" fill="#93DEFF"/>
<path d="M87.6615 171.976C128.736 171.976 162.033 138.679 162.033 97.6043C162.033 56.5299 128.736 23.2324 87.6615 23.2324C46.587 23.2324 13.2896 56.5299 13.2896 97.6043C13.2896 138.679 46.587 171.976 87.6615 171.976Z" fill="url(#paint0_linear_396_434)"/>
<path d="M47.7486 54.008C50.2897 54.9439 52.9933 55.3581 55.698 55.2258C58.4028 55.0934 61.0531 54.4173 63.4906 53.2377C68.4765 50.8203 72.3359 46.5703 74.2628 41.3751C76.1898 36.1799 76.0354 30.4412 73.8319 25.3571C73.7168 25.1004 73.584 24.8525 73.46 24.6046C72.1142 24.8613 70.8039 25.1535 69.4581 25.4899C69.7324 25.9721 69.9807 26.4686 70.2018 26.9774C71.9834 31.1175 72.1037 35.7843 70.5377 40.0106C68.9718 44.237 65.8398 47.6988 61.7907 49.6785C59.8315 50.6309 57.7001 51.1775 55.5244 51.2855C53.3487 51.3935 51.1736 51.0607 49.1298 50.3071C47.6584 49.7617 46.3125 48.9245 45.1729 47.8457C44.0334 46.767 43.1236 45.469 42.4983 44.0298C41.8525 42.5416 41.5036 40.9415 41.4712 39.3196C40.2317 40.3023 39.0099 41.3205 37.8412 42.3741C38.0675 43.4924 38.4087 44.5842 38.8594 45.6323C39.702 47.5543 40.9234 49.2866 42.4508 50.7257C43.9781 52.1648 45.78 53.2812 47.7486 54.008ZM132.63 51.0331C136.232 50.5036 139.743 49.4724 143.06 47.9697C142.112 46.9161 141.147 45.8891 140.147 44.8975C132.211 48.1566 123.341 48.3146 115.294 45.3402C111.54 43.9449 108.105 41.8065 105.197 39.0529C102.288 36.2994 99.9645 32.9872 98.3657 29.3148C97.5743 27.5294 96.9518 25.6738 96.5064 23.7723C93.917 23.4667 91.3134 23.2953 88.7062 23.2588C91.1257 31.6415 90.5123 40.6089 86.974 48.5841C83.4358 56.5594 77.1991 63.0319 69.3607 66.8637C65.2023 68.8801 60.6793 70.0356 56.0632 70.2608C51.4472 70.486 46.8332 69.7762 42.4983 68.1741C35.8596 65.7126 30.32 60.9581 26.8802 54.7695C26.0391 55.9647 25.2157 57.1777 24.4454 58.4261C28.3667 64.6341 34.2222 69.3789 41.1082 71.9281C45.9422 73.714 51.0874 74.5045 56.2345 74.2519C61.3817 73.9993 66.4247 72.709 71.0606 70.4584C78.7078 66.7394 85.0132 60.7399 89.1076 53.2869C93.202 45.8339 94.8838 37.2945 93.9211 28.8455C94.169 29.5273 94.4347 30.209 94.7357 30.8819C96.5416 35.0502 99.1713 38.8105 102.467 41.9371C105.762 45.0637 109.656 47.4921 113.913 49.0765C117.328 50.336 120.906 51.0993 124.538 51.343C124.755 51.6628 125.063 51.9097 125.423 52.0513C143.538 58.7714 152.595 79.4007 145.654 98.1353C142.403 107.109 135.785 114.464 127.203 118.641C123.045 120.66 118.523 121.819 113.907 122.047C109.291 122.275 104.676 121.568 100.34 119.969C96.584 118.569 93.1493 116.424 90.2419 113.664C87.3346 110.905 85.0144 107.586 83.4205 103.908C80.135 96.3058 79.9073 87.7295 82.7851 79.9637C85.6628 72.1979 91.4242 65.8409 98.8704 62.2155C102.476 60.4572 106.4 59.4464 110.406 59.2441C114.412 59.0417 118.418 59.6519 122.182 61.0379C125.368 62.2243 128.282 64.0419 130.748 66.3819C133.214 68.7218 135.182 71.5358 136.534 74.6551C139.319 81.1032 139.512 88.3766 137.071 94.9628C134.631 101.549 129.745 106.941 123.431 110.017C120.374 111.503 117.049 112.356 113.654 112.523C110.259 112.69 106.866 112.169 103.678 110.991C101.064 110.021 98.6742 108.532 96.6518 106.613C94.6295 104.694 93.0169 102.386 91.9113 99.8264C89.6363 94.5387 89.4826 88.5784 91.4819 83.1804C93.4812 77.7824 97.4804 73.3603 102.651 70.8302C105.158 69.6124 107.886 68.9133 110.67 68.7748C113.454 68.6364 116.238 69.0615 118.853 70.0245C120.895 70.7842 122.762 71.9492 124.341 73.4496C125.921 74.9499 127.18 76.7544 128.044 78.7544C129.826 82.8957 129.946 87.5639 128.38 91.7917C126.814 96.0195 123.682 99.4829 119.633 101.464C117.673 102.415 115.541 102.96 113.365 103.067C111.19 103.173 109.015 102.839 106.972 102.084C105.505 101.539 104.163 100.702 103.028 99.6252C101.893 98.5479 100.988 97.2521 100.367 95.8157C99.083 92.8287 98.9967 89.4626 100.126 86.4138C101.254 83.365 103.512 80.8668 106.432 79.4361C107.839 78.7493 109.372 78.3551 110.936 78.2775C112.501 78.1999 114.064 78.4404 115.533 78.9846C116.429 79.3167 117.249 79.8269 117.943 80.4842C118.637 81.1415 119.19 81.9325 119.571 82.8094C120.356 84.6443 120.407 86.7105 119.713 88.5819C119.02 90.4533 117.634 91.9873 115.843 92.8673C114.984 93.2836 114.049 93.5217 113.095 93.5674C112.141 93.613 111.187 93.4652 110.292 93.133C109.969 93.0151 109.674 92.8326 109.424 92.5966C109.174 92.3606 108.976 92.0762 108.84 91.7606C108.543 91.0839 108.524 90.3175 108.787 89.6269C109.04 88.9279 109.554 88.3538 110.221 88.0243C110.531 87.8748 110.868 87.7892 111.212 87.7724C111.555 87.7557 111.899 87.8082 112.222 87.9269C112.728 88.1101 113.286 88.0847 113.773 87.8564C114.261 87.6281 114.637 87.2156 114.821 86.7095C115.004 86.2035 114.978 85.6454 114.75 85.1581C114.522 84.6708 114.109 84.2941 113.603 84.1109C112.782 83.807 111.907 83.6724 111.032 83.715C110.157 83.7576 109.3 83.9766 108.512 84.3588C106.909 85.1276 105.668 86.4891 105.05 88.156C104.432 89.8229 104.486 91.6646 105.201 93.2923C105.547 94.1018 106.053 94.8328 106.689 95.4414C107.325 96.05 108.078 96.5237 108.902 96.8338C110.298 97.3492 111.784 97.5772 113.27 97.5042C114.757 97.4311 116.213 97.0586 117.552 96.4089C120.281 95.0895 122.393 92.7652 123.446 89.923C124.499 87.0809 124.411 83.9414 123.201 81.1626C122.611 79.7967 121.751 78.5645 120.672 77.5403C119.593 76.5162 118.318 75.7214 116.923 75.204C114.954 74.4776 112.859 74.1557 110.763 74.2576C108.666 74.3596 106.612 74.8832 104.723 75.7972C100.872 77.6754 97.8935 80.9672 96.409 84.9867C94.9246 89.0061 95.0483 93.4434 96.7543 97.3739C97.5891 99.2979 98.8035 101.034 100.325 102.477C101.846 103.921 103.643 105.043 105.608 105.776C108.15 106.714 110.856 107.13 113.562 106.997C116.269 106.865 118.921 106.188 121.359 105.006C126.348 102.585 130.209 98.3298 132.135 93.1292C134.06 87.9285 133.901 82.185 131.691 77.0987C130.611 74.6111 129.04 72.3672 127.071 70.502C125.102 68.6367 122.777 67.1884 120.235 66.244C117.118 65.097 113.803 64.5905 110.487 64.7548C107.17 64.9191 103.921 65.7508 100.933 67.2002C94.8106 70.1685 90.0718 75.3883 87.7074 81.7687C85.3431 88.149 85.536 95.1963 88.2458 101.438C89.5684 104.481 91.4914 107.225 93.8996 109.507C96.3079 111.789 99.1519 113.562 102.261 114.719C105.95 116.079 109.874 116.682 113.801 116.49C117.728 116.299 121.575 115.317 125.113 113.603C132.371 110.087 137.99 103.902 140.795 96.34C143.6 88.7782 143.374 80.425 140.165 73.026C138.598 69.4218 136.32 66.1708 133.468 63.4675C130.615 60.7641 127.247 58.664 123.564 57.2928C119.303 55.7159 114.767 55.0183 110.229 55.242C105.692 55.4657 101.247 56.606 97.1616 58.5943C88.7701 62.6625 82.2765 69.8177 79.039 78.5634C75.8015 87.309 76.0707 96.9677 79.7905 105.519C81.5951 109.689 84.2243 113.45 87.52 116.576C90.8156 119.703 94.7096 122.131 98.9678 123.714C103.804 125.487 108.948 126.265 114.091 126.002C119.235 125.739 124.273 124.439 128.902 122.182C138.442 117.6 145.816 109.473 149.452 99.5342C156.385 80.8439 148.894 60.4182 132.63 51.0597V51.0331ZM51.0599 45.0834C52.4561 45.5987 53.9419 45.8267 55.4284 45.7537C56.9148 45.6807 58.3712 45.3081 59.7101 44.6584C61.277 43.9194 62.6589 42.8392 63.7543 41.4969C64.8498 40.1547 65.6311 38.5844 66.0411 36.9011C66.4511 35.2178 66.4794 33.4641 66.1239 31.7685C65.7684 30.0728 65.038 28.4782 63.9864 27.1013C62.623 27.5617 61.3303 28.0487 59.9668 28.5799C60.7209 29.2587 61.3242 30.0882 61.7376 31.0147C62.5203 32.8522 62.5692 34.9197 61.8742 36.7922C61.1792 38.6646 59.7933 40.1996 58.0013 41.0815C57.1405 41.499 56.204 41.7377 55.2484 41.7834C54.2928 41.829 53.3378 41.6806 52.4411 41.3471C52.1186 41.2264 51.8237 41.0419 51.5742 40.8046C51.3247 40.5672 51.1257 40.282 50.9891 39.9659C50.6995 39.287 50.6837 38.5225 50.9448 37.8321C51.1927 37.1346 51.7046 36.5623 52.3703 36.2385C52.6802 36.089 53.0171 36.0033 53.3609 35.9866C53.7046 35.9698 54.0482 36.0224 54.3712 36.1411C54.6166 36.2335 54.8777 36.2767 55.1397 36.2682C55.4017 36.2597 55.6595 36.1997 55.8984 36.0916C56.1372 35.9835 56.3524 35.8294 56.5317 35.6381C56.711 35.4468 56.8508 35.2221 56.9433 34.9768C57.0357 34.7315 57.0789 34.4703 57.0704 34.2083C57.0619 33.9463 57.0019 33.6885 56.8938 33.4496C56.7857 33.2108 56.6316 32.9956 56.4403 32.8163C56.249 32.637 56.0243 32.4972 55.779 32.4048C54.7161 32.0096 53.5675 31.9027 52.45 32.0949C51.0599 32.8386 49.6964 33.6443 48.3595 34.4765C47.5595 35.4523 47.0444 36.6299 46.871 37.8797C46.6976 39.1295 46.8726 40.4029 47.3767 41.5596C47.7215 42.3649 48.2255 43.0921 48.8584 43.6977C49.4913 44.3032 50.2402 44.7746 51.0599 45.0834ZM44.4284 62.9858C48.1184 64.3466 52.0452 64.9485 55.9734 64.7552C59.9015 64.562 63.7503 63.5777 67.2889 61.8613C74.1911 58.5091 79.6194 52.7356 82.5403 45.6401C85.4611 38.5445 85.6704 30.6226 83.1284 23.3827C81.7472 23.4624 80.3748 23.5864 79.0202 23.7457C81.5276 30.1383 81.536 37.2405 79.0439 43.639C76.5518 50.0374 71.7418 55.263 65.5713 58.2756C62.5124 59.7594 59.1854 60.6105 55.7898 60.7779C52.3941 60.9452 48.9996 60.4254 45.8096 59.2495C43.1978 58.2738 40.8097 56.7814 38.7879 54.8615C36.7661 52.9417 35.1523 50.6338 34.0429 48.076C33.8393 47.6156 33.6622 47.1906 33.494 46.6682C32.4758 47.7484 31.493 48.8463 30.5457 49.9795C31.8819 52.9596 33.7974 55.6441 36.1807 57.877C38.5641 60.1099 41.3677 61.8465 44.4284 62.9858ZM78.2853 108.902C77.757 108.902 77.2503 109.111 76.8767 109.485C76.5031 109.859 76.2932 110.365 76.2932 110.894C76.2932 130.222 60.0996 145.884 40.1166 145.884C36.6584 145.883 33.217 145.404 29.8905 144.458C31.3071 146.194 32.7827 147.861 34.3174 149.461C36.2297 149.731 38.1587 149.867 40.0901 149.868C62.2245 149.868 80.2509 132.417 80.2509 110.911C80.2556 110.385 80.0514 109.877 79.6831 109.501C79.3147 109.124 78.8121 108.909 78.2853 108.902ZM122.182 31.7319C120.412 30.7934 118.597 29.9168 116.737 29.1289C117.906 29.9974 119.19 30.6977 120.553 31.2095C121.085 31.4043 121.634 31.5814 122.182 31.7319ZM117.233 40.1607C123.13 42.3488 129.579 42.557 135.605 40.7539C134.303 39.6649 132.949 38.6113 131.612 37.6108C127.259 38.3703 122.783 37.9609 118.641 36.4244C113.559 34.5305 109.425 30.7146 107.131 25.7998C105.564 25.3837 103.979 24.9941 102.377 24.6754C102.624 25.4103 102.899 26.1363 103.218 26.8446C104.535 29.8933 106.455 32.6444 108.861 34.9326C111.268 37.2209 114.113 38.9992 117.224 40.1607H117.233ZM61.7464 131.921C64.589 129.201 66.8514 125.933 68.3973 122.314C69.9433 118.696 70.7408 114.802 70.7419 110.867C70.7387 106.326 69.8161 101.832 68.0297 97.6565C66.2433 93.4811 63.6301 89.7107 60.3475 86.5723C54.3266 80.8026 46.4961 77.2919 38.1828 76.6352C29.8696 75.9785 21.585 78.216 14.7328 82.9688C14.3521 84.8724 14.0599 86.8113 13.8474 88.7592C19.8781 83.3486 27.7275 80.4117 35.8286 80.5348C43.9297 80.6579 51.6863 83.832 57.5497 89.4232C60.4499 92.193 62.7605 95.5202 64.3428 99.2051C65.9252 102.89 66.7465 106.857 66.7577 110.867C66.7524 114.268 66.0604 117.632 64.7231 120.759C63.3857 123.885 61.4307 126.709 58.9752 129.062C53.8932 133.909 47.1398 136.614 40.1166 136.614C33.0935 136.614 26.34 133.909 21.258 129.062C20.5722 128.391 19.922 127.685 19.3102 126.946C20.6746 130.132 22.2634 133.218 24.0647 136.18C29.9462 139.692 36.8173 141.177 43.624 140.407C50.4307 139.638 56.797 136.657 61.7464 131.921ZM35.3444 108.238C36.0867 108.235 36.8011 108.52 37.3365 109.034C37.5851 109.271 37.7832 109.555 37.9186 109.87C38.0541 110.185 38.1241 110.524 38.1245 110.867C38.1245 111.395 38.3344 111.902 38.708 112.276C39.0816 112.649 39.5883 112.859 40.1166 112.859C40.645 112.859 41.1517 112.649 41.5252 112.276C41.8988 111.902 42.1087 111.395 42.1087 110.867C42.1088 109.992 41.9315 109.125 41.5876 108.32C41.2437 107.516 40.7403 106.789 40.1078 106.183C38.8309 104.946 37.1226 104.254 35.3444 104.254C33.5663 104.254 31.8579 104.946 30.5811 106.183C29.9502 106.79 29.4478 107.517 29.1041 108.322C28.7603 109.126 28.5821 109.992 28.5801 110.867C28.5814 112.357 28.8841 113.83 29.4699 115.2C30.0557 116.569 30.9125 117.806 31.9888 118.836C34.1728 120.937 37.0858 122.111 40.1166 122.111C43.1474 122.111 46.0604 120.937 48.2444 118.836C49.3207 117.806 50.1775 116.569 50.7633 115.2C51.3491 113.83 51.6518 112.357 51.6531 110.867C51.6497 108.769 51.2229 106.694 50.3983 104.765C49.5738 102.836 48.3684 101.093 46.8544 99.6405C43.7573 96.6729 39.6337 95.0162 35.3444 95.0162C31.0551 95.0162 26.9315 96.6729 23.8345 99.6405C22.3205 101.093 21.1151 102.836 20.2905 104.765C19.466 106.694 19.0392 108.769 19.0357 110.867C19.0391 113.577 19.5897 116.259 20.6547 118.751C21.7197 121.243 23.2771 123.494 25.2334 125.37C29.2363 129.21 34.5691 131.355 40.1166 131.355C45.6641 131.355 50.9969 129.21 54.9998 125.37C56.9558 123.494 58.5128 121.242 59.5778 118.75C60.6428 116.258 61.1937 113.577 61.1975 110.867C61.1914 107.548 60.5154 104.264 59.2101 101.212C57.9048 98.1604 55.997 95.4034 53.6009 93.1064C48.6869 88.4026 42.1469 85.777 35.3444 85.777C28.5419 85.777 22.002 88.4026 17.0879 93.1064C15.6401 94.5101 14.3623 96.0792 13.2808 97.7812C13.2944 100.813 13.4925 103.84 13.874 106.847C14.7131 102.693 16.8013 98.893 19.8591 95.9573C24.033 91.9717 29.5821 89.7478 35.3533 89.7478C41.1244 89.7478 46.6736 91.9717 50.8474 95.9573C52.8616 97.8839 54.4654 100.198 55.5624 102.76C56.6594 105.322 57.227 108.08 57.231 110.867C57.2278 113.047 56.7837 115.204 55.9256 117.208C55.0674 119.211 53.8129 121.021 52.2375 122.528C48.9729 125.636 44.6378 127.37 40.1299 127.37C35.622 127.37 31.2868 125.636 28.0223 122.528C26.4436 121.023 25.1864 119.214 24.3266 117.21C23.4668 115.206 23.0223 113.048 23.0199 110.867C23.0181 109.305 23.3307 107.758 23.9391 106.319C24.5476 104.88 25.4394 103.578 26.5615 102.491C28.9194 100.251 32.0477 99.0022 35.3001 99.0022C38.5526 99.0022 41.6809 100.251 44.0388 102.491C45.1689 103.575 46.0689 104.875 46.6851 106.314C47.3012 107.753 47.6207 109.302 47.6246 110.867C47.6303 111.82 47.4434 112.765 47.0752 113.644C46.7071 114.524 46.1652 115.32 45.482 115.985C44.0341 117.36 42.1135 118.126 40.1166 118.126C38.1198 118.126 36.1991 117.36 34.7512 115.985C34.0617 115.323 33.5132 114.528 33.1389 113.649C32.7646 112.769 32.5721 111.823 32.5732 110.867C32.5736 110.524 32.6436 110.185 32.7791 109.87C32.9145 109.555 33.1126 109.271 33.3612 109.034C33.8929 108.52 34.6047 108.234 35.3444 108.238Z" fill="url(#paint1_linear_396_434)"/>
<path d="M134.135 145.202C142.803 145.202 151.276 142.632 158.484 137.816C165.691 133.001 171.308 126.156 174.625 118.148C177.942 110.139 178.81 101.327 177.119 92.826C175.428 84.3246 171.254 76.5155 165.125 70.3862C158.996 64.257 151.187 60.083 142.685 58.3919C134.184 56.7009 125.372 57.5688 117.363 60.8859C109.355 64.203 102.51 69.8203 97.6948 77.0275C92.8791 84.2347 90.3087 92.7081 90.3087 101.376C90.3112 112.999 94.9294 124.145 103.148 132.363C111.366 140.582 122.512 145.2 134.135 145.202Z" fill="url(#paint2_linear_396_434)"/>
<path d="M171.369 112.774C170.727 113.878 169.917 114.878 168.968 115.74C168.913 115.785 168.846 115.814 168.775 115.822C168.703 115.82 168.633 115.798 168.573 115.758C168.514 115.714 168.475 115.649 168.463 115.576C168.436 115.512 168.436 115.44 168.463 115.376C168.904 114.375 169.428 113.393 169.833 112.383C166.415 111.629 162.902 111.389 159.412 111.673C155.851 112.035 152.342 112.798 148.955 113.948C149.204 114.767 149.433 115.613 149.682 116.441C150.068 117.714 150.785 119.015 150.749 120.38C150.749 120.58 150.473 120.79 150.289 120.653C149.369 119.953 149.001 118.833 148.385 117.924C147.663 116.909 146.994 115.858 146.38 114.776C144.642 115.322 142.913 115.867 141.147 116.295C135.641 117.669 129.895 117.815 124.325 116.723L123.231 117.542L120.867 119.361C120.079 120.123 119.24 120.831 118.356 121.481C118.328 121.502 118.297 121.517 118.264 121.526L117.777 121.936C117.528 122.154 117.087 121.872 117.298 121.572C117.409 121.417 117.501 121.263 117.602 121.117C117.584 121.003 117.6 120.886 117.648 120.78C118.051 120.001 118.512 119.253 119.027 118.542C119.101 118.369 119.193 118.187 119.257 118.006C119.526 117.212 119.897 116.457 120.361 115.758C115.128 114.339 109.996 112.51 104.477 112.492C102.401 112.563 100.34 112.868 98.3337 113.402C98.6118 114.459 98.981 115.491 99.4374 116.486C99.4645 116.553 99.4645 116.628 99.4374 116.695C99.425 116.768 99.3856 116.833 99.327 116.877C99.2683 116.919 99.1965 116.938 99.1247 116.932C99.0885 116.932 99.0528 116.925 99.0196 116.911C98.9864 116.897 98.9564 116.876 98.9315 116.85C97.883 116.004 97.276 114.767 96.3103 113.829L95.7585 113.939C94.5472 114.172 93.3125 114.264 92.0796 114.212C93.9989 120.391 97.2959 126.065 101.727 130.816C106.159 135.566 111.612 139.272 117.685 141.661C118.439 141.378 119.175 140.996 119.947 140.751C121.4 140.341 122.835 139.841 124.288 139.459C125.447 139.117 126.66 138.991 127.866 139.086C129.126 139.186 130.358 139.413 131.618 139.45C134.359 139.476 137.097 139.278 139.804 138.858C141.001 138.73 142.211 138.841 143.363 139.186C144.642 139.522 145.902 139.896 147.189 140.196C148.477 140.496 149.893 140.787 151.255 141.015C156.97 138.508 162.074 134.818 166.223 130.192C170.373 125.567 173.47 120.114 175.305 114.203C174.034 113.622 172.718 113.145 171.369 112.774Z" fill="url(#paint3_linear_396_434)"/>
<path d="M96.1987 100.933H95.6386C95.6386 101.044 95.0038 112.439 101.38 120.411L101.819 120.069C95.5733 112.226 96.1894 101.044 96.1987 100.933Z" fill="#C9C9C5"/>
<path d="M147.122 61.9766L146.973 62.5259C147.085 62.5259 157.767 65.7449 164.224 75.2573L164.681 74.9296C158.122 65.2437 147.244 62.0055 147.122 61.9766Z" fill="#CECECC"/>
<path d="M103.589 75.9323L104.104 76.1425C104.104 76.047 107.88 66.6645 120.412 63.416L120.274 62.8618C107.457 66.1772 103.626 75.8368 103.589 75.9323Z" fill="#E5E5E1"/>
<path d="M103.589 88.8544L120.798 94.458L103.617 88.0486L103.589 88.8544ZM133.749 83.9192L134.829 66.4033H134.196L133.749 83.9192ZM165.426 87.9021L146.932 94.6961L165.566 88.4515L165.426 87.9021ZM141.202 108.284L153.473 124.765L153.948 124.49L141.202 108.284ZM114.928 124.518L115.375 124.838L124.972 109.694L114.928 124.518Z" fill="#A3A598"/>
<path d="M172.097 100.942C172.262 113.654 165.528 120.472 165.455 120.537L165.839 120.934C165.903 120.87 172.811 113.904 172.646 100.933L172.097 100.942ZM124.228 136.335L123.953 136.806C127.019 138.344 130.413 139.096 133.835 138.996C137.441 138.967 141.014 138.288 144.384 136.991L144.192 136.474C132.169 140.991 124.319 136.4 124.228 136.353V136.335Z" fill="#A3A598"/>
<path d="M143.586 58.6829C136.665 57.084 129.456 57.1785 122.58 58.9584C121.268 60.2642 120.279 61.8546 119.69 63.6048C119.69 63.6048 130.179 63.8527 134.103 67.6452C134.103 67.6452 137.28 64.5598 147.723 63.1732C146.689 61.3949 145.277 59.8625 143.586 58.6829ZM115.701 123.319C108.85 123.595 101.25 119.123 101.25 119.123C99.8377 122.043 99.9947 126.469 100.235 129.013C104.521 134.071 109.907 138.093 115.987 140.775C119.096 139.835 122.006 138.338 124.574 136.359C117.123 129.334 115.701 123.319 115.701 123.319ZM104.916 88.4254C103.664 84.046 103.458 79.4361 104.316 74.9637C102.336 74.9892 100.36 75.1302 98.3973 75.3861C94.0311 81.2926 91.2476 88.2066 90.3087 95.4776C91.6708 97.9748 93.6467 100.088 96.0519 101.621C97.8626 96.5581 100.912 92.0232 104.925 88.4254H104.916ZM152.182 123.145C150.404 128.27 147.276 132.827 143.124 136.34C145.769 138.472 148.937 139.863 152.302 140.371C157.675 137.848 162.472 134.261 166.402 129.83C166.873 126.946 167.482 121.565 165.903 119.178C161.753 121.655 157.022 123.007 152.182 123.099V123.145ZM169.477 76.1666C167.533 74.9553 165.305 74.2686 163.013 74.174C163.013 74.174 166.116 80.9416 163.549 88.1132C167.407 91.7551 170.329 96.2645 172.071 101.263C174.224 100.142 175.973 98.3834 177.076 96.2306C176.284 88.9984 173.67 82.0817 169.477 76.1207V76.1666Z" fill="#0F110E"/>
<path d="M101.855 84.4385C101.919 84.959 102.114 85.4509 102.42 85.8612C102.726 86.2715 103.13 86.5847 103.589 86.767C102.433 82.5526 103.383 77.0278 103.383 77.0278C102.83 78.2641 102.414 79.5657 102.144 80.9058C101.856 82.0563 101.758 83.2518 101.855 84.4385Z" fill="url(#paint4_linear_396_434)"/>
<path d="M122.182 62.9454C122.422 62.9429 122.662 62.9241 122.899 62.889C123.566 62.8528 124.235 62.8528 124.902 62.889C126.176 62.9283 127.446 63.0521 128.7 63.2594C129.334 63.3641 129.969 63.5009 130.594 63.6539C131.27 63.7827 131.915 64.0171 132.498 64.3464C132.58 64.3947 132.77 64.4832 132.806 64.5879C132.842 64.6926 131.791 64.5879 131.682 64.5315C130.921 64.3544 130.177 64.1129 129.416 63.9357C128.655 63.7586 127.812 63.6217 127.005 63.509C125.419 63.2513 123.787 63.0823 122.182 62.9454Z" fill="white"/>
<path d="M165.566 77.0278C165.67 77.2546 165.799 77.4783 165.952 77.6979C166.279 78.3363 166.537 78.9835 166.723 79.6366C167.103 80.8813 167.308 82.1382 167.337 83.3978C167.337 84.041 167.337 84.6754 167.179 85.3097C167.145 85.9912 166.884 86.6649 166.408 87.302C166.408 87.3913 166.215 87.5968 166.039 87.6504C165.864 87.704 165.724 86.6587 165.741 86.5515C165.741 85.7743 166.074 85.0059 166.162 84.2376C166.25 83.4693 166.25 82.6295 166.162 81.8075C166.109 80.2083 165.864 78.6181 165.566 77.0278Z" fill="white"/>
<path d="M164.681 121.297C164.466 121.422 164.259 121.56 164.059 121.712C163.46 122.091 162.841 122.429 162.204 122.725C161.001 123.301 159.761 123.782 158.494 124.163C157.854 124.355 157.214 124.517 156.555 124.649C155.866 124.831 155.154 124.882 154.45 124.801C154.348 124.801 154.134 124.801 154.06 124.689C153.986 124.578 154.988 124.234 155.117 124.203C155.906 124.031 156.704 123.94 157.492 123.768C158.28 123.596 159.125 123.332 159.932 123.069C161.564 122.532 163.122 121.925 164.681 121.297Z" fill="white"/>
<path d="M119.305 132.311C119.138 132.151 118.961 132.004 118.774 131.868C118.287 131.435 117.817 130.983 117.375 130.496C116.526 129.583 115.744 128.61 115.037 127.583C114.683 127.052 114.347 126.512 114.028 125.972C113.661 125.401 113.391 124.772 113.231 124.112C113.201 123.987 113.201 123.857 113.231 123.732C113.302 123.572 113.904 124.449 113.957 124.546C114.356 125.21 114.674 125.91 115.064 126.565C115.453 127.22 115.949 127.92 116.392 128.566C117.304 129.841 118.296 131.089 119.305 132.311Z" fill="white"/>
<path d="M106.246 82.9544L113.286 87.6523C112.771 87.2746 117.315 82.8715 117.717 82.4662C120.419 79.8225 123.981 78.3302 126.702 75.7326C128.291 74.2219 130.366 71.5966 130.133 69.2845C129.899 66.9724 127.552 67.0921 125.86 67.5711C121.755 68.6673 117.874 70.4563 114.389 72.8586C110.649 75.4654 108.209 78.9934 106.246 82.9544Z" fill="#F9F9F9"/>
<path d="M148.6 93.67C147.463 92.4494 135.931 83.7028 133.685 83.2256C131.439 83.7028 119.934 92.4035 118.779 93.67C117.624 94.9366 124.087 111.053 124.087 111.053C124.087 111.053 128.909 111.438 133.685 111.558C138.461 111.438 143.292 111.053 143.292 111.053C143.292 111.053 149.782 94.909 148.6 93.67Z" fill="#0F110E"/>
<path d="M124.839 92.0795C125.001 91.9024 125.153 91.7165 125.296 91.5224C125.747 91.0173 126.223 90.5369 126.723 90.0834C127.667 89.2162 128.671 88.4218 129.728 87.7067C130.264 87.3394 130.818 87.0016 131.388 86.6947C131.972 86.3261 132.612 86.0625 133.281 85.9148C133.379 85.9148 133.586 85.8406 133.684 85.9148C133.783 85.9891 132.931 86.6112 132.832 86.6669C132.15 87.0568 131.442 87.3817 130.76 87.781C130.078 88.1802 129.369 88.6537 128.705 89.1271C127.369 89.9999 126.086 91.0118 124.839 92.0795Z" fill="white"/>
<path d="M59.4532 113.683C54.5748 116.817 30.2888 102.279 30.2888 102.279C30.2888 102.279 27.066 109.052 19.983 108.982C19.983 108.982 32.5111 119.987 54.9909 124.387C56.6643 122.82 59.4532 113.683 59.4532 113.683Z" fill="#3C2978"/>
<path fill-rule="evenodd" clip-rule="evenodd" d="M59.7454 114.418C59.0637 113.417 59.285 112.16 60.3298 110.655C60.611 110.202 61.0019 109.828 61.4661 109.567C61.9304 109.305 62.4531 109.165 62.9859 109.159L65.2613 109.088L65.4384 112.204C65.6114 112.786 65.9464 113.306 66.4042 113.705C66.8621 114.103 67.4238 114.363 68.0237 114.453C68.5396 114.488 69.0549 114.377 69.5116 114.135C69.9683 113.892 70.3483 113.527 70.609 113.081L71.1048 109.929C72.8756 109.876 74.487 110.133 74.974 111.062C75.9833 113.099 75.7265 114.799 73.5042 115.967C70.8481 117.207 67.9352 117.074 64.9249 116.419C63.1007 116.058 61.3538 115.381 59.7631 114.418H59.7454Z" fill="#1F1C41"/>
<path fill-rule="evenodd" clip-rule="evenodd" d="M62.6938 99.7556L63.4464 102.412C64.2374 105.141 64.8059 107.931 65.1463 110.752C65.5182 114.17 67.5546 114.966 69.0951 114.418C70.8659 113.762 70.8216 112.337 71.1669 110.814C72.0523 107.042 73.4866 104.324 75.5141 102.553L76.9042 101.42C82.3138 96.9933 61.3038 94.8683 62.7381 99.7645L62.6938 99.7556Z" fill="#F2D3A8"/>
<path fill-rule="evenodd" clip-rule="evenodd" d="M88.538 101.659C88.4944 97.3838 88.1987 93.1148 87.6526 88.8743L94.2575 87.1035C95.2764 91.3611 95.9836 95.6873 96.3736 100.048C95.5944 102.562 94.4346 102.244 93.08 100.358C91.9555 103.067 90.2645 104.953 88.5468 101.686L88.538 101.659Z" fill="#FC5A00"/>
<path fill-rule="evenodd" clip-rule="evenodd" d="M92.4868 97.091C92.2761 93.564 91.8622 90.052 91.2473 86.5727L91.9024 86.3867C93.0624 90.6284 93.6578 95.0045 93.6732 99.4018C93.6734 99.6624 93.6557 99.9228 93.6201 100.181C95.2315 102.324 96.0372 100.792 95.7981 98.6935C95.3002 94.3826 94.5493 90.1048 93.5492 85.8821L94.3815 85.6519C95.3377 89.6361 96.1523 93.8859 96.772 98.3925C97.3918 102.899 94.5055 103.351 93.2305 101.447C92.5399 103.377 91.2118 104.289 89.9635 104.103C88.7151 103.917 87.7323 103.085 87.7943 99.8268C87.8549 95.7778 87.5914 91.7305 87.0063 87.7236L88.1042 87.4138C88.6447 91.0345 88.9405 94.6876 88.9895 98.3482C88.9895 100.712 89.0781 101.695 89.5385 102.297C89.9989 102.899 90.9285 102.713 91.5483 101.934C92.5665 100.615 92.5311 98.6227 92.4337 97.029L92.4868 97.091Z" fill="#BF3A00"/>
<path fill-rule="evenodd" clip-rule="evenodd" d="M75.7795 36.9557C75.8415 30.3773 79.6132 25.9061 88.8035 24.4895C94.5319 24.4187 98.7906 26.5259 101.934 30.2622C105.387 35.0964 105.865 39.8774 102.642 44.5611C98.9411 49.7937 93.6554 51.6441 86.8114 50.1832C79.9674 47.4651 76.1868 43.1002 75.7795 36.9557Z" fill="#FC5A00"/>
<path fill-rule="evenodd" clip-rule="evenodd" d="M79.6045 38.1688C80.2391 35.6439 81.2383 33.2251 82.5705 30.9883C80.6416 32.8721 79.3269 35.2947 78.7988 37.9386L79.6045 38.1688ZM81.3752 38.8417C83.2965 34.3174 86.6344 30.9175 90.229 27.7567C86.236 30.5014 82.659 33.6622 80.5695 38.3813L81.3752 38.8417ZM86.4839 41.7723L85.8818 41.0197C88.8262 39.2698 91.5619 37.1905 94.0362 34.822C91.9362 37.5508 89.3777 39.8936 86.475 41.7457L86.4839 41.7723ZM92.1149 45.9336L91.7519 45.181C94.5761 43.7221 97.0923 41.732 99.1625 39.3198C97.67 42.3017 95.1565 44.6486 92.0795 45.9336H92.1149ZM101.704 31.2894C101.645 32.9352 101.347 34.5637 100.818 36.1235C101.627 34.9922 102.145 33.6782 102.323 32.2987C104.838 36.4777 104.882 41.7369 100.668 45.8362C95.7981 50.5729 90.5743 51.4937 84.3058 48.3861C79.3389 45.9336 76.2489 41.8431 76.3374 36.6548C76.4525 28.5358 84.3058 24.3834 91.5571 25.3131C93.5585 25.5795 95.4859 26.2459 97.2245 27.2726C98.963 28.2994 100.477 29.6654 101.677 31.2894H101.704ZM95.0012 28.3322C93.4164 28.7395 90.5743 32.405 89.3348 33.7507C92.044 31.6701 93.0091 31.0946 95.0012 28.3322ZM95.4616 50.8828C96.7292 50.4692 97.9398 49.8981 99.0651 49.1829C103.846 46.1018 106.21 41.0463 105.006 35.4064C103.678 29.253 97.923 24.8881 91.8758 24.0293C89.4883 23.712 87.0607 23.9047 84.7532 24.5945C82.4456 25.2844 80.3106 26.4557 78.4889 28.0312C77.314 29.0872 76.3967 30.3984 75.8073 31.8642C75.218 33.3299 74.9722 34.9111 75.089 36.4866C75.3901 46.2257 85.988 53.9551 95.4528 50.8828H95.4616Z" fill="#BF3A00"/>
<path fill-rule="evenodd" clip-rule="evenodd" d="M91.557 96.9135C94.6382 93.313 96.4886 89.7154 97.1084 86.1208C97.4238 84.7029 97.4926 83.2413 97.312 81.8001C97.1027 80.3889 96.599 79.0375 95.8334 77.8336C95.0277 76.6118 93.7971 75.7264 93.0887 74.4338C92.7835 73.902 92.592 73.3126 92.5265 72.703C92.461 72.0933 92.5228 71.4767 92.708 70.8922C93.4606 65.819 94.222 62.3306 93.1684 57.16C91.3977 48.6161 86.7052 41.1258 74.0708 38.7618C69.0236 38.0491 63.8994 38.0759 58.86 38.8415C53.0555 39.7402 47.517 41.8945 42.631 45.1542C37.7879 49.103 35.5479 55.4866 34.3527 62.915C33.5381 69.7944 35.6984 76.4524 40.3821 82.9334L43.7997 89.6623C44.5345 93.7793 46.0662 96.3558 48.0406 98.038L58.0808 103.244L65.9696 106.387C67.9504 107.216 70.0917 107.592 72.2364 107.486C74.3812 107.38 76.4751 106.796 78.3649 105.776C84.111 103.014 88.5379 100.048 91.557 96.9135Z" fill="#F2D3A8"/>
<path fill-rule="evenodd" clip-rule="evenodd" d="M8.64128 65.208C4.15241 57.6292 5.5336 47.3145 11.1292 41.0815C13.6325 38.8141 16.6302 37.1621 19.8841 36.2568C23.1379 35.3515 26.5581 35.2179 29.8727 35.8666C36.9557 37.7613 39.3462 42.1439 39.6738 47.6244C40.2316 56.7261 37.2036 62.8087 31.9356 67.0142C23.3297 72.0078 15.4144 72.3265 8.64128 65.2435V65.208Z" fill="#FC5A00"/>
<path fill-rule="evenodd" clip-rule="evenodd" d="M25.1004 65.4209C17.132 65.837 12.1296 63.4199 8.46416 58.5149C12.8911 62.8887 18.5486 65.0933 26.0478 64.2433C29.1201 63.898 27.5087 65.2881 25.1004 65.4209ZM34.2553 60.3565C28.6331 61.7997 23.1526 62.1804 18.3893 59.7368C23.6284 60.6333 28.9622 60.8416 34.2553 60.3565ZM35.5125 47.8107C33.1592 45.7274 30.5133 44.0003 27.6592 42.6843C30.7803 43.532 33.6822 45.0419 36.1677 47.1112L35.5125 47.8107ZM16.4326 38.0715C18.2305 37.9941 20.0312 38.1279 21.798 38.4699C19.5874 38.3756 17.3727 38.4585 15.1753 38.7178C14.5173 39.1021 13.8845 39.528 13.2806 39.9928C10.5725 42.2371 8.60899 45.2502 7.64961 48.6341C10.6085 48.1897 13.6285 48.389 16.5034 49.2184C18.7788 49.8736 18.1768 50.52 16.1493 49.9976C13.3134 49.2266 10.357 49.0013 7.43712 49.3335C5.5247 56.0713 6.55174 63.9777 12.1119 67.5635C20.8595 73.168 33.5558 68.9801 37.2301 59.2675C38.8858 54.8406 39.7004 50.458 39.2134 46.6951C36.6724 42.4896 31.9975 40.2318 26.4374 38.7887C32.1835 39.7537 36.6281 41.5334 38.8327 44.703C38.753 44.402 38.6468 44.101 38.5494 43.8176C36.4156 38.0715 30.4039 34.3264 21.072 36.5133C19.4774 36.8765 17.9231 37.3985 16.4326 38.0715ZM5.48928 59.1701C4.17007 49.5815 7.50795 40.7277 16.8664 36.7434C21.5871 34.8062 26.8141 34.4764 31.7408 35.8049C37.6197 37.5757 40.2404 42.7021 40.3378 48.6341C40.3944 53.2223 39.3531 57.7576 37.301 61.8617C36.1315 63.9002 34.591 65.702 32.759 67.1739C23.6484 74.5403 7.26889 72.0435 5.48928 59.1347V59.1701Z" fill="#BF3A00"/>
<path fill-rule="evenodd" clip-rule="evenodd" d="M93.5404 65.7661C93.7263 63.0568 90.1759 60.1439 86.2803 58.8247L84.421 62.7558C87.7854 63.8182 92.0087 65.6156 92.8321 68.741L93.5404 65.7661Z" fill="#121313"/>
<path fill-rule="evenodd" clip-rule="evenodd" d="M70.4408 83.1196C60.4006 86.6611 55.2123 83.8013 53.8842 75.8683C55.5399 72.9111 58.3731 71.9461 61.8526 72.1586C67.8998 73.1413 69.7325 77.6833 70.4054 83.1196H70.4408Z" fill="#FFEBEF"/>
<path fill-rule="evenodd" clip-rule="evenodd" d="M55.3628 69.4047L54.4774 66.2173C58.196 62.6758 63.2427 60.542 69.0596 59.1343L68.7055 62.7732C63.3401 64.2783 58.6918 66.3147 55.3628 69.4047Z" fill="#121313"/>
<path fill-rule="evenodd" clip-rule="evenodd" d="M83.4116 78.9138C83.4709 80.3566 83.795 81.7762 84.3678 83.1017C89.7509 82.7829 93.1685 79.932 91.7696 73.212C87.2807 69.9095 83.4825 73.938 83.4116 78.9138Z" fill="#FFEBEF"/>
<path fill-rule="evenodd" clip-rule="evenodd" d="M31.608 52.1754C34.0516 47.1287 38.3516 42.9497 44.508 39.6384C53.2998 35.4594 62.8442 34.1668 73.0083 35.2115C87.2718 38.0005 94.9746 44.0299 98.2771 52.2374C100.191 57.3447 101.093 62.7755 100.933 68.2273L96.8693 66.4566L96.6745 68.8559C92.6638 65.217 89.8394 59.648 87.2541 53.6628C85.1115 50.8031 83.8985 47.9521 80.8351 45.1101L80.5695 46.4558C78.356 54.4243 74.788 61.2948 69.5022 66.7045C65.881 70.3257 64.5795 70.5736 66.8461 65.5977C68.0576 62.0834 68.7554 58.4125 68.9179 54.6987L66.3149 59.1256C63.4698 63.499 60.0109 67.4409 56.0445 70.8303C56.9298 66.5628 57.7444 62.6229 58.6032 59.1876L60.2058 53.5654L60.4448 52.1046C59.5115 53.3841 58.6937 54.7441 58.0012 56.1685L52.9988 68.2805C51.5552 71.2222 49.6479 73.9127 47.35 76.2489C41.0993 80.8351 35.6896 80.7555 31.6257 73.15C28.7836 63.9775 29.2794 57.3637 31.6257 52.14L31.608 52.1754Z" fill="#FC5A00"/>
<path fill-rule="evenodd" clip-rule="evenodd" d="M53.2025 130.151C53.1228 130.151 53.9108 125.662 53.9905 125.29C54.5483 122.368 55.1503 119.296 56.7617 116.737C58.6476 113.736 61.711 112.558 65.1463 112.408C68.2092 112.136 71.2898 112.673 74.0797 113.966C75.2687 114.545 76.308 115.39 77.1166 116.436C77.8961 117.496 78.5609 118.636 79.0998 119.836C80.4899 122.935 80.8706 126.361 81.4018 129.673C81.4176 129.898 81.4592 130.121 81.5258 130.337L53.2025 130.151Z" fill="#3C2978"/>
<path fill-rule="evenodd" clip-rule="evenodd" d="M38.4342 78.5066C35.9791 74.4946 34.4403 69.99 33.9276 65.3145C35.0882 70.0596 37.0558 74.5699 39.7446 78.6483C40.0749 78.6657 40.4059 78.6657 40.7362 78.6483C38.5139 72.6365 40.0545 67.3774 42.8611 62.375C40.807 67.2888 39.6029 72.5215 41.657 78.4978C41.71 78.5026 41.7633 78.5026 41.8164 78.4978C42.1085 75.3281 43.1798 72.8667 45.11 71.2111C43.6671 73.305 42.8279 75.7553 42.684 78.2941C42.8611 78.2941 43.0293 78.2056 43.2064 78.1436C48.2796 76.4791 52.8836 67.9794 54.6544 63.2604C57.7886 54.8935 60.1437 51.2104 62.0384 50.4666C61.6125 50.9218 61.2162 51.4038 60.852 51.9098C59.1787 57.8596 57.6647 63.8713 56.496 70.0158C63.1629 63.9156 67.6606 56.7971 71.4677 49.3599C70.8214 51.0421 70.1131 52.6624 69.3605 54.2561C69.2352 58.6211 68.3047 62.9254 66.6158 66.9524C65.1461 70.3965 67.2091 68.5107 68.4486 67.1206C75.5316 59.1522 78.8784 52.1223 80.4012 45.0924C79.6929 44.3575 78.9403 43.6227 78.1435 42.8524C80.7808 44.2651 83.0586 46.2642 84.8015 48.6959C88.2457 53.3441 89.8659 59.0194 93.1241 64.0041C94.0577 65.4743 95.1057 66.8687 96.2584 68.1742C96.7719 63.7473 95.435 59.4975 94.0006 55.0441C95.9202 58.5015 97.0482 62.342 97.3031 66.2884L100.393 67.7227C100.505 63.1631 99.8251 58.6186 98.3833 54.2915C95.2667 45.4819 90.2378 41.3472 81.8267 38.1953C78.8928 37.1089 75.859 36.3141 72.7692 35.8225C60.4536 33.9012 42.8788 37.726 34.8042 48.2178C32.0555 51.5614 30.4375 55.6902 30.1825 60.011C30.0875 63.8073 30.5408 67.5974 31.5283 71.2642C32.6261 75.3547 35.1672 77.9488 38.4342 78.5597V78.5066ZM36.1676 62.4547C37.6462 50.6437 43.7199 44.8622 52.4055 42.4982C43.9236 45.8715 38.4254 52.4233 36.1676 62.4547ZM49.953 52.8217C50.5669 51.5015 51.4126 50.3021 52.4498 49.2802C52.9013 48.8552 53.9018 48.0318 54.5127 48.1558C54.8403 48.2266 54.8137 48.6605 53.6273 49.413C52.2509 50.3673 51.0167 51.512 49.9619 52.8129L49.953 52.8217ZM68.6876 55.593C68.1487 60.0382 66.9553 64.3793 65.1461 68.4753C63.8889 71.3085 67.0762 69.7148 68.183 68.5992C75.7353 61.0912 79.4539 53.4858 81.1449 45.8538C82.8249 47.6348 84.3091 49.5909 85.5718 51.6885C88.1394 55.9826 89.4675 60.5954 92.3538 64.916C93.5351 66.8883 95.1562 68.561 97.0906 69.8033C97.2405 68.9078 97.3204 68.002 97.3297 67.0941C98.5451 67.9512 99.9215 68.5536 101.376 68.8648C101.216 62.1802 100.668 54.8139 97.1526 48.9881C96.0258 47.1484 94.7113 45.4304 93.2304 43.8617C88.8035 39.1515 82.8449 36.7787 76.6206 35.3886C74.1333 34.8146 71.6054 34.4327 69.0595 34.2465C61.3153 33.6499 53.5438 34.9791 46.438 38.1156C45.1021 38.7163 43.7987 39.3872 42.5335 40.1254C36.2296 43.906 31.121 49.3245 29.607 56.7528C28.6685 61.3302 29.0757 66.3503 30.4924 71.7158C33.1485 81.6586 43.3304 82.5262 49.5369 74.9474C52.2865 71.4959 54.3566 67.5542 55.6371 63.3312C56.6742 59.7603 58.1492 56.3314 60.0286 53.1228C58.0387 59.3906 56.4478 65.7781 55.2653 72.247C60.9542 67.7952 65.5461 62.0978 68.6876 55.593Z" fill="#BF3A00"/>
<path fill-rule="evenodd" clip-rule="evenodd" d="M66.616 73.3623C69.0154 75.3633 70.3523 78.5064 70.4408 83.1015C69.9893 80.9943 68.856 77.5147 67.4394 75.8237C66.8494 75.1249 66.1497 74.5269 65.3676 74.0529C61.6136 71.6889 57.8153 72.654 54.743 75.381C54.1144 75.9388 53.7426 76.0893 52.9723 75.6023C52.453 75.294 51.9741 74.9223 51.5468 74.4956C50.6614 73.6102 51.6708 73.7961 52.2728 73.9112C52.6751 73.9915 53.0845 74.0301 53.4946 74.0263C53.217 73.8096 53.0175 73.5082 52.9264 73.1679C52.8353 72.8277 52.8577 72.467 52.99 72.1405C53.1226 72.4055 53.3119 72.6381 53.5445 72.8217C53.777 73.0053 54.0472 73.1355 54.3358 73.2029C58.0101 70.7062 63.1896 70.476 66.6248 73.38L66.616 73.3623Z" fill="#121313"/>
<path fill-rule="evenodd" clip-rule="evenodd" d="M75.7708 92.0176C76.4023 92.4747 77.1221 92.795 77.8844 92.9581C78.6466 93.1213 79.4345 93.1236 80.1977 92.9649C81.289 92.7063 82.2906 92.1589 83.0976 91.38C83.9045 90.6011 84.487 89.6195 84.784 88.538C84.9158 87.9822 84.8802 87.3998 84.6817 86.8641C84.4832 86.3285 84.1306 85.8635 83.6684 85.5278C81.8977 84.1554 81.2602 83.1638 80.9503 80.4634C80.682 81.3741 80.6803 82.3427 80.9455 83.2544C81.2107 84.1661 81.7316 84.9827 82.4466 85.6074C83.9517 86.8116 84.3236 87.573 83.5533 89.2818C82.1633 92.416 78.3738 93.0004 75.7266 92.0619L75.7708 92.0176Z" fill="#D88860"/>
<path fill-rule="evenodd" clip-rule="evenodd" d="M67.9174 103.404C67.3664 103.099 66.8395 102.753 66.3414 102.368C65.8987 102.022 65.6951 102.465 66.0758 102.731C66.592 103.093 67.1511 103.391 67.7403 103.616C68.1033 103.74 68.2892 103.616 67.9174 103.395V103.404Z" fill="#D88860"/>
<path fill-rule="evenodd" clip-rule="evenodd" d="M84.3678 83.1017C82.8715 79.0378 83.6772 72.2646 89.3083 72.6808C89.9586 72.7245 90.5867 72.9349 91.1321 73.2917C91.2639 73.3927 91.4195 73.458 91.584 73.4812C91.7484 73.5045 91.916 73.4849 92.0706 73.4245C92.5858 73.239 93.0312 72.8989 93.3456 72.4506C93.6555 72.0079 93.6201 71.636 92.9914 71.8574C92.4853 72.0037 91.9481 72.0037 91.442 71.8574C91.7151 71.7029 91.9309 71.4642 92.057 71.1769C92.1831 70.8896 92.2127 70.5692 92.1415 70.2637C91.8988 70.5463 91.5969 70.7721 91.2572 70.9251C90.9176 71.0781 90.5484 71.1546 90.1759 71.1491C88.8219 70.8793 87.4166 71.0694 86.1829 71.6891C82.5617 73.6812 82.5262 79.9409 84.4121 83.0574L84.3678 83.1017Z" fill="#121313"/>
<path fill-rule="evenodd" clip-rule="evenodd" d="M61.3568 74.7261C61.8016 74.7244 62.2407 74.8268 62.6389 75.0251C63.037 75.2234 63.3833 75.5122 63.6499 75.8682C63.4977 75.7966 63.3312 75.7602 63.163 75.762C62.8483 75.762 62.5465 75.887 62.324 76.1095C62.1016 76.332 61.9766 76.6337 61.9766 76.9484C61.9766 77.2631 62.1016 77.5648 62.324 77.7873C62.5465 78.0098 62.8483 78.1348 63.163 78.1348C63.3821 78.1375 63.5982 78.0825 63.7893 77.9753C63.9805 77.868 64.1401 77.7124 64.252 77.5239V77.6301C64.2502 78.2024 64.0789 78.7613 63.7598 79.2362C63.4406 79.7111 62.9878 80.0809 62.4586 80.2986C61.9294 80.5164 61.3476 80.5725 60.7866 80.4598C60.2255 80.3471 59.7105 80.0706 59.3065 79.6654C58.9025 79.2601 58.6276 78.7442 58.5166 78.1829C58.4056 77.6215 58.4635 77.0398 58.6828 76.5113C58.9022 75.9828 59.2733 75.5312 59.7492 75.2134C60.2251 74.8957 60.7846 74.7261 61.3568 74.7261Z" fill="#311713"/>
<path fill-rule="evenodd" clip-rule="evenodd" d="M87.8828 74.8237C88.2346 74.8202 88.5824 74.8984 88.8988 75.052C89.2153 75.2056 89.4918 75.4305 89.7067 75.709C89.577 75.6309 89.4306 75.5848 89.2795 75.5743C89.1285 75.5639 88.9771 75.5895 88.8379 75.649C88.6986 75.7085 88.5755 75.8002 88.4787 75.9166C88.3818 76.0329 88.3139 76.1707 88.2807 76.3184C88.2475 76.4661 88.2498 76.6196 88.2875 76.7662C88.3252 76.9129 88.3971 77.0485 88.4975 77.1619C88.5978 77.2753 88.7236 77.3633 88.8646 77.4185C89.0056 77.4738 89.1576 77.4948 89.3083 77.4798C89.4858 77.4845 89.6614 77.4419 89.817 77.3563C89.9726 77.2707 90.1026 77.1453 90.1937 76.9928V77.0637C90.1954 77.5197 90.0617 77.966 89.8094 78.3459C89.5571 78.7258 89.1977 79.0222 88.7767 79.1976C88.3557 79.3729 87.8921 79.4192 87.4448 79.3307C86.9974 79.2421 86.5864 79.0227 86.264 78.7002C85.9415 78.3778 85.7221 77.9668 85.6335 77.5194C85.545 77.0721 85.5913 76.6085 85.7666 76.1875C85.942 75.7665 86.2384 75.4071 86.6183 75.1548C86.9982 74.9025 87.4445 74.7688 87.9005 74.7705L87.8828 74.8237Z" fill="#311713"/>
<path fill-rule="evenodd" clip-rule="evenodd" d="M34.1934 77.2934C38.4344 74.4159 42.0025 75.9564 45.2695 79.5688C48.3241 83.1723 49.1475 91.1318 44.7383 93.1062C39.9484 93.5401 35.8845 92.4865 33.5825 87.546C31.5992 83.4202 31.9003 80.0203 34.1934 77.2934Z" fill="#F2D3A8"/>
<path fill-rule="evenodd" clip-rule="evenodd" d="M42.6753 81.4551C40.4353 78.374 35.9464 77.6037 34.8309 81.827C36.5219 79.2506 38.6114 79.1709 40.4265 80.3661C39.973 80.6314 39.5819 80.991 39.2796 81.4207C38.9773 81.8503 38.7709 82.3399 38.6743 82.8562C38.5778 83.3726 38.5933 83.9037 38.72 84.4135C38.8466 84.9234 39.0813 85.4 39.4083 85.8112C38.7797 83.8191 39.2135 82.3671 40.3556 81.3046C40.4449 81.2141 40.5527 81.1439 40.6715 81.0988C40.7903 81.0537 40.9175 81.0347 41.0444 81.0431C41.1712 81.0515 41.2948 81.0871 41.4066 81.1475C41.5185 81.2079 41.616 81.2917 41.6926 81.3932C41.8962 81.6145 42.1087 81.8447 42.3035 82.0926C43.9326 84.067 43.3571 82.3936 42.6753 81.4551Z" fill="#D88860"/>
<path fill-rule="evenodd" clip-rule="evenodd" d="M49.7406 74.4517C49.6743 83.8749 50.935 93.2606 53.4857 102.332C53.4326 105.227 52.0426 105.582 49.0588 102.89C47.7042 105.033 46.447 105.546 45.4199 102.58C44.2129 94.7769 43.7858 86.8727 44.145 78.9848C46.3962 78.0248 48.3343 76.4547 49.7406 74.4517Z" fill="#FC5A00"/>
<path fill-rule="evenodd" clip-rule="evenodd" d="M48.5454 99.2508C47.3307 93.5603 46.5494 87.7858 46.208 81.9771C45.8981 88.883 46.208 95.5854 48.085 101.801C48.1549 102.052 48.2437 102.298 48.3506 102.536C47.3855 105.032 46.1991 103.784 45.845 101.712C44.5374 93.9405 44.095 86.0479 44.5258 78.1788C44.3398 78.2762 43.9237 77.8778 43.7201 77.9574C43.7201 77.9574 43.6138 79.0287 43.605 79.1704C43.2712 86.708 43.6685 94.2601 44.7914 101.721C45.42 106.219 48.3329 105.856 49.0146 103.687C50.2011 105.36 51.7328 105.865 52.8926 105.369C54.0525 104.873 54.7431 103.784 53.778 100.667C50.9713 91.5126 50.2365 82.2958 50.2365 73.0259C49.9443 73.4597 49.6344 73.8581 49.3511 74.2566C49.0808 82.7895 50.0531 91.3165 52.2374 99.5696C52.866 101.845 53.0697 102.81 52.8041 103.518C52.5385 104.227 51.5822 104.315 50.7765 103.722C49.4219 102.739 48.9173 100.809 48.5542 99.2508H48.5454Z" fill="#BF3A00"/>
<path fill-rule="evenodd" clip-rule="evenodd" d="M59.5064 112.204C59.6822 111.506 60.0392 110.866 60.5413 110.35C61.0435 109.834 61.673 109.46 62.3662 109.265C63.8266 110.441 65.6353 111.101 67.5103 111.142C69.1109 111.194 70.7128 111.084 72.2913 110.814C72.8593 110.675 73.4091 110.47 73.9293 110.203C74.2333 110.323 74.5087 110.506 74.7375 110.739C74.9663 110.972 75.1434 111.251 75.2573 111.558C75.6558 113.196 75.4521 114.338 74.735 115.099C73.1147 116.542 70.6976 116.959 67.8024 116.72C65.2598 116.542 62.7703 115.906 60.4538 114.843C60.2097 114.739 59.9895 114.586 59.8069 114.394C59.6244 114.202 59.4835 113.974 59.3929 113.725C59.3024 113.475 59.2642 113.21 59.2806 112.946C59.2971 112.681 59.368 112.422 59.4887 112.186L59.5064 112.204Z" fill="#2A245B"/>
<path fill-rule="evenodd" clip-rule="evenodd" d="M59.3204 113.4C59.3752 113.746 59.5169 114.073 59.732 114.35C59.9472 114.627 60.2289 114.845 60.551 114.984C63.2705 116.16 66.2031 116.763 69.1658 116.755C70.8936 116.815 72.6049 116.402 74.115 115.56C74.4869 115.371 74.8089 115.097 75.055 114.76C75.3011 114.423 75.4644 114.033 75.5317 113.621C75.5388 112.653 75.3174 111.698 74.8853 110.832C73.8363 111.555 72.6484 112.053 71.3969 112.293C69.701 112.508 67.9826 112.473 66.2971 112.187C64.8733 112.015 63.4828 111.633 62.1713 111.053C61.6786 110.797 61.2078 110.501 60.7635 110.168C60.3046 110.561 59.9375 111.051 59.6882 111.601C59.4388 112.152 59.3133 112.751 59.3204 113.355V113.4Z" fill="#3C2978"/>
<path fill-rule="evenodd" clip-rule="evenodd" d="M70.9986 112.364C67.0587 112.727 63.7119 112.364 61.5073 110.708C63.5791 111.824 66.9347 112.275 70.9986 112.364ZM71.2908 110.788C68.0857 111.177 65.3764 111.062 63.1187 109.823C64.6947 111.346 67.3951 111.594 71.4413 111.151C72.4772 111.036 72.6188 110.637 71.2908 110.788Z" fill="#1F1C41"/>
<path fill-rule="evenodd" clip-rule="evenodd" d="M75.4077 110.929C74.7083 109.663 72.8313 109.557 71.4855 109.548L71.3261 110.23C72.0876 110.23 73.8583 110.168 74.4692 110.938C73.8874 111.341 73.2604 111.673 72.6011 111.93C73.3324 111.854 74.0374 111.615 74.664 111.23C74.8433 111.618 74.9656 112.029 75.027 112.452C75.1437 112.921 75.1222 113.414 74.9651 113.871C74.808 114.328 74.522 114.73 74.1417 115.029C73.8181 115.325 73.4469 115.564 73.0438 115.737C73.0692 114.642 72.9137 113.55 72.5834 112.505C72.7289 113.617 72.7793 114.74 72.7339 115.861C71.851 116.185 70.9207 116.362 69.9804 116.383C69.9982 115.21 69.8973 114.039 69.6793 112.886C69.6793 114.09 69.6793 115.285 69.6793 116.427C68.7739 116.454 67.8678 116.407 66.9701 116.286L66.917 112.833L66.6159 116.242C65.7305 116.109 64.8452 115.923 64.0129 115.719C64.0016 114.624 64.0935 113.53 64.2874 112.452C63.8714 113.455 63.626 114.52 63.5614 115.604C62.8234 115.393 62.0965 115.144 61.3833 114.86C61.5307 113.725 61.8285 112.615 62.2687 111.558C61.587 112.476 61.1456 113.551 60.9849 114.683C59.8428 114.152 59.5063 113.612 59.8959 112.346C60.2302 111.209 60.9832 110.241 62.0031 109.637C63.0063 109.445 64.0284 109.37 65.0488 109.415C65.0488 109.336 65.0488 109.247 65.0488 109.132C65.0488 109.017 65.0488 108.946 64.9957 108.813C63.9191 108.785 62.8431 108.886 61.7906 109.114C61.1616 109.403 60.6034 109.827 60.1553 110.354C59.7071 110.882 59.3799 111.501 59.1964 112.169C58.7715 113.435 58.86 114.329 60.0818 115.117C62.2953 116.56 67.3774 117.304 69.0861 117.331C71.5829 117.331 74.0974 116.782 75.452 115.268C76.4348 114.17 76.2311 112.195 75.5317 110.956L75.4077 110.929Z" fill="#272252"/>
<path fill-rule="evenodd" clip-rule="evenodd" d="M63.225 94.0187L63.8005 93.1864C64.1723 92.6463 65.1551 92.5578 64.5088 93.6556C70.6533 96.6217 81.331 96.6748 84.722 93.576C84.8371 92.5135 85.5543 92.3718 84.9876 94.2223C84.0631 95.0754 82.9401 95.6841 81.7206 95.993C79.3832 100.951 75.5229 104.528 69.1924 101.73C66.9878 100.756 65.7749 98.5518 64.3583 94.6473L64.0926 94.5322C63.4021 94.8598 62.4813 95.1077 63.2073 94.0806L63.225 94.0187Z" fill="#731310"/>
<path fill-rule="evenodd" clip-rule="evenodd" d="M74.673 102.58C74.3365 102.58 74.0178 102.669 73.699 102.686C70.9632 102.775 68.3868 101.863 66.9702 99.9504C70.2903 97.8255 74.0532 99.4192 74.673 102.607V102.58Z" fill="#C2290C"/>
<path fill-rule="evenodd" clip-rule="evenodd" d="M80.5695 96.1349C79.5779 99.4728 68.7143 98.0916 67.2888 96.1349C67.0321 95.8265 66.8774 95.446 66.8461 95.0459C71.2661 96.5087 75.9741 96.8823 80.5695 96.1349Z" fill="#FEFEFE"/>
<path d="M75.6467 114.913C80.5252 118.047 104.678 103.403 104.678 103.403C104.678 103.403 107.901 110.168 114.984 110.106C114.984 110.106 102.456 121.111 79.9762 125.502C78.3294 123.953 75.6467 114.913 75.6467 114.913Z" fill="#3C2978"/>
<path d="M119.473 107.813C119.14 108.294 118.764 108.745 118.349 109.158C117.754 109.699 117.053 110.112 116.292 110.369C115.53 110.627 114.723 110.724 113.922 110.655C112.421 110.471 110.989 109.921 109.752 109.052C108.54 108.21 107.455 107.2 106.529 106.051C105.466 104.871 104.789 103.394 104.59 101.819C104.512 100.903 104.624 99.9804 104.918 99.1093C105.243 97.8273 106.02 96.7053 107.104 95.9485C107.419 95.7824 107.764 95.6811 108.118 95.6507C108.472 95.6203 108.829 95.6614 109.167 95.7715H109.221C111.044 94.0538 113.338 91.8758 116.056 93.0711C116.626 93.349 117.128 93.7494 117.526 94.2437C117.924 94.738 118.208 95.3141 118.358 95.9308C119.016 95.7797 119.706 95.8395 120.329 96.1016C120.951 96.3638 121.476 96.8151 121.828 97.3917C122.103 97.958 122.216 98.5891 122.156 99.2156C122.589 99.2296 123.019 99.2889 123.44 99.3927C124.821 99.7999 125.042 101.234 124.741 102.474C124.428 103.751 123.774 104.919 122.85 105.855C121.925 106.79 120.764 107.458 119.491 107.786L119.473 107.813Z" fill="#F2D3A8"/>
<path d="M116.339 110.566C115.54 110.825 114.697 110.924 113.86 110.858C112.327 110.677 110.864 110.117 109.601 109.229C108.37 108.375 107.266 107.35 106.325 106.183C105.235 104.971 104.543 103.454 104.342 101.836C104.264 100.893 104.379 99.9446 104.678 99.0472C105.001 97.7068 105.816 96.5371 106.963 95.7713C107.617 95.4207 108.384 95.3412 109.096 95.55C110.965 93.7792 113.275 91.6278 116.1 92.8939C116.673 93.1664 117.18 93.5589 117.588 94.0446C117.996 94.5304 118.294 95.0981 118.464 95.7094C119.149 95.5867 119.855 95.6761 120.488 95.9657C121.121 96.2552 121.65 96.7311 122.005 97.3296C122.265 97.8671 122.389 98.4597 122.368 99.0561C122.754 99.0711 123.137 99.1275 123.51 99.2243C125.06 99.6847 125.281 101.305 124.954 102.544C124.629 103.837 123.965 105.019 123.031 105.97C122.098 106.921 120.928 107.606 119.641 107.954L119.402 108.264C119.141 108.642 118.845 108.995 118.517 109.318C117.89 109.887 117.147 110.313 116.339 110.566ZM107.556 95.9573C107.421 96.0035 107.29 96.0628 107.166 96.1343C106.108 96.8487 105.358 97.9366 105.068 99.18C104.777 100.033 104.669 100.938 104.749 101.836C104.94 103.37 105.598 104.807 106.635 105.953C107.539 107.082 108.601 108.075 109.787 108.902C110.995 109.75 112.394 110.288 113.86 110.469C114.639 110.54 115.425 110.448 116.167 110.2C116.91 109.952 117.592 109.552 118.172 109.025C118.501 108.724 118.798 108.389 119.057 108.025L119.296 107.715L119.393 107.573H119.526C120.757 107.254 121.879 106.61 122.774 105.708C123.67 104.806 124.307 103.68 124.617 102.447C124.883 101.332 124.723 99.9946 123.448 99.6139C123.046 99.5127 122.633 99.4563 122.218 99.4457H122.005V99.1623C122.062 98.5722 121.955 97.9777 121.695 97.4447C121.365 96.9032 120.872 96.4798 120.287 96.2349C119.702 95.99 119.055 95.9363 118.437 96.0812H118.216L118.172 95.9219C118.027 95.3357 117.757 94.788 117.379 94.317C117.001 93.8461 116.526 93.4631 115.985 93.1949C113.399 92.0616 111.186 94.1511 109.397 95.851L109.327 95.9219H109.176H109.123C108.609 95.7718 108.062 95.7841 107.556 95.9573Z" fill="#D88860"/>
<path d="M112.523 97.8431C112.499 97.8541 112.474 97.8599 112.448 97.8599C112.422 97.8599 112.396 97.8541 112.372 97.8431C112.324 97.8183 112.287 97.7762 112.269 97.7252C112.251 97.6742 112.253 97.6182 112.275 97.5686C112.758 96.5224 113.414 95.5647 114.214 94.7354C114.232 94.7161 114.254 94.7007 114.278 94.6902C114.303 94.6797 114.329 94.6743 114.356 94.6743C114.382 94.6743 114.408 94.6797 114.433 94.6902C114.457 94.7007 114.479 94.7161 114.497 94.7354C114.517 94.7536 114.532 94.7756 114.542 94.7999C114.553 94.8243 114.558 94.8505 114.558 94.8771C114.558 94.9036 114.553 94.9298 114.542 94.9542C114.532 94.9786 114.517 95.0005 114.497 95.0187C113.717 95.8214 113.076 96.7491 112.603 97.7634C112.584 97.7967 112.556 97.8242 112.523 97.8431Z" fill="#D88860"/>
<path d="M117.658 104.873C116.586 105.197 115.431 105.102 114.427 104.608C114.377 104.584 114.338 104.543 114.318 104.492C114.298 104.441 114.299 104.384 114.32 104.333C114.342 104.284 114.382 104.245 114.431 104.226C114.481 104.206 114.537 104.206 114.586 104.227C115.185 104.543 115.858 104.695 116.534 104.665C117.211 104.635 117.868 104.426 118.437 104.059C120.394 102.819 122.864 100.057 121.642 97.4804C121.312 96.9388 120.819 96.5154 120.234 96.2706C119.649 96.0257 119.002 95.9719 118.384 96.1169C118.357 96.1215 118.33 96.1209 118.304 96.1149C118.277 96.109 118.252 96.0979 118.23 96.0823C118.208 96.0667 118.189 96.0468 118.174 96.0239C118.16 96.001 118.15 95.9754 118.145 95.9487C118.14 95.9219 118.141 95.8945 118.147 95.868C118.153 95.8416 118.164 95.8165 118.18 95.7943C118.195 95.7721 118.215 95.7532 118.238 95.7387C118.261 95.7241 118.287 95.7143 118.313 95.7096C119.019 95.553 119.757 95.6227 120.421 95.9088C121.085 96.1948 121.643 96.6827 122.014 97.3033C123.263 99.9594 121.129 102.828 118.659 104.386C118.348 104.592 118.011 104.755 117.658 104.873Z" fill="#D88860"/>
<path d="M120.243 107.768C119.867 107.891 119.478 107.974 119.084 108.016C118.297 108.094 117.51 107.873 116.879 107.396C116.579 107.096 116.345 106.736 116.192 106.339C116.04 105.943 115.972 105.519 115.994 105.094V104.908C115.991 104.882 115.994 104.855 116.002 104.829C116.01 104.803 116.023 104.78 116.04 104.759C116.058 104.738 116.079 104.721 116.103 104.709C116.127 104.697 116.153 104.689 116.18 104.687C116.206 104.685 116.233 104.687 116.259 104.696C116.285 104.704 116.308 104.717 116.329 104.734C116.349 104.751 116.366 104.772 116.379 104.796C116.391 104.82 116.399 104.846 116.401 104.873V105.068C116.341 105.425 116.369 105.792 116.483 106.136C116.598 106.48 116.794 106.791 117.056 107.041C117.318 107.292 117.637 107.475 117.986 107.574C118.335 107.672 118.703 107.685 119.057 107.609C121.713 107.361 124.024 104.722 124.582 102.42C124.847 101.305 124.688 99.9679 123.413 99.5872C123.01 99.4861 122.598 99.4297 122.182 99.419C122.156 99.419 122.129 99.4137 122.104 99.4035C122.08 99.3933 122.057 99.3783 122.038 99.3593C122.019 99.3404 122.004 99.318 121.994 99.2933C121.984 99.2686 121.979 99.2421 121.979 99.2154C121.979 99.1886 121.984 99.1621 121.994 99.1374C122.004 99.1127 122.019 99.0903 122.038 99.0714C122.057 99.0524 122.08 99.0375 122.104 99.0272C122.129 99.017 122.156 99.0117 122.182 99.0117C122.628 99.0261 123.07 99.0885 123.502 99.1976C125.051 99.658 125.272 101.278 124.945 102.518C124.639 103.706 124.053 104.803 123.235 105.717C122.417 106.63 121.391 107.334 120.243 107.768Z" fill="#D88860"/>
<path d="M116.339 110.566C115.54 110.825 114.697 110.924 113.86 110.858C112.327 110.677 110.864 110.117 109.601 109.229C108.37 108.375 107.266 107.35 106.325 106.183C105.235 104.971 104.543 103.454 104.342 101.836C104.264 100.893 104.379 99.9445 104.678 99.0472C105.001 97.7068 105.816 96.5371 106.963 95.7713C108.636 94.8859 110.424 96.028 111.735 96.8869L111.815 96.94C112.883 97.6113 113.815 98.4796 114.559 99.4987C115.322 100.475 115.675 101.711 115.542 102.943C115.473 103.307 115.329 103.653 115.118 103.957C114.908 104.262 114.636 104.52 114.32 104.714C112 106.228 108.804 103.12 107.538 101.703C107.519 101.685 107.503 101.663 107.493 101.639C107.482 101.614 107.477 101.588 107.477 101.562C107.477 101.535 107.482 101.509 107.493 101.485C107.503 101.46 107.519 101.438 107.538 101.42C107.557 101.4 107.58 101.385 107.605 101.374C107.63 101.364 107.657 101.358 107.684 101.358C107.711 101.358 107.738 101.364 107.764 101.374C107.789 101.385 107.811 101.4 107.83 101.42C108.716 102.456 111.974 105.732 114.081 104.359C114.35 104.195 114.582 103.976 114.762 103.717C114.942 103.458 115.066 103.164 115.126 102.854C115.249 101.737 114.931 100.616 114.24 99.7289C113.517 98.7514 112.616 97.9193 111.584 97.2764L111.505 97.2233C110.212 96.3379 108.609 95.3286 107.157 96.1254C106.099 96.8398 105.35 97.9277 105.059 99.1711C104.769 100.025 104.66 100.929 104.74 101.827C104.931 103.361 105.589 104.798 106.626 105.944C107.533 107.076 108.597 108.072 109.787 108.901C110.995 109.75 112.394 110.288 113.86 110.469C114.639 110.54 115.425 110.448 116.167 110.2C116.91 109.952 117.592 109.552 118.172 109.025C118.5 108.71 118.797 108.363 119.057 107.99L119.287 107.688C119.302 107.663 119.322 107.642 119.345 107.625C119.369 107.608 119.396 107.597 119.424 107.592C119.453 107.586 119.482 107.587 119.51 107.593C119.539 107.6 119.565 107.613 119.588 107.631C119.611 107.649 119.63 107.671 119.643 107.697C119.657 107.722 119.664 107.751 119.666 107.779C119.668 107.808 119.663 107.837 119.653 107.864C119.643 107.892 119.627 107.916 119.606 107.936L119.385 108.229C119.108 108.624 118.794 108.992 118.446 109.326C117.839 109.884 117.121 110.306 116.339 110.566Z" fill="#D88860"/>
<path d="M115.436 102.005C115.395 102.018 115.351 102.018 115.31 102.005C115.269 101.993 115.232 101.968 115.206 101.934C115.169 101.896 115.148 101.845 115.148 101.792C115.148 101.739 115.169 101.689 115.206 101.651C116.649 100.535 118.287 98.9946 118.207 96.8785C118.188 96.5796 118.141 96.2831 118.065 95.9931C118.059 95.967 118.057 95.9398 118.061 95.9131C118.066 95.8864 118.075 95.8608 118.089 95.8377C118.103 95.8146 118.121 95.7946 118.143 95.7787C118.165 95.7628 118.19 95.7514 118.216 95.7452C118.241 95.7372 118.268 95.7346 118.295 95.7375C118.322 95.7403 118.347 95.7487 118.371 95.762C118.394 95.7753 118.414 95.7932 118.43 95.8147C118.446 95.8362 118.458 95.8608 118.464 95.8869C118.553 96.2194 118.603 96.561 118.614 96.9051C118.703 99.1982 116.976 100.845 115.454 102.014L115.436 102.005Z" fill="#D88860"/>
<path d="M15.4942 106.661C15.8242 107.148 16.2008 107.602 16.6186 108.016C17.2187 108.563 17.9264 108.978 18.6963 109.236C19.4662 109.494 20.2814 109.588 21.0898 109.512C22.5886 109.328 24.0199 108.781 25.2599 107.919C26.4728 107.072 27.5607 106.058 28.4915 104.908C29.5489 103.726 30.222 102.25 30.4217 100.676C30.4934 99.7778 30.3819 98.8741 30.0941 98.0201C29.771 96.7344 28.9944 95.6088 27.9072 94.8504C27.2698 94.5215 26.5283 94.4579 25.8442 94.6733H25.7911C23.9672 92.9557 21.6741 90.7777 18.956 92.0172C18.385 92.2921 17.8823 92.6906 17.4842 93.1836C17.0861 93.6767 16.8025 94.252 16.654 94.8681C15.9922 94.7167 15.2995 94.7781 14.6746 95.0436C14.0498 95.3091 13.5248 95.7652 13.1745 96.3467C12.9 96.9162 12.7867 97.5501 12.8469 98.1794C12.399 98.1635 11.9508 98.1961 11.51 98.2768C10.1288 98.6841 9.90741 100.118 10.2084 101.349C10.5263 102.624 11.1815 103.79 12.1053 104.725C13.0291 105.66 14.1874 106.329 15.4587 106.661H15.4942Z" fill="#F2D3A8"/>
<path d="M16.4768 108.149C16.1494 107.827 15.853 107.474 15.5914 107.096L15.3524 106.786C14.0668 106.439 12.8969 105.756 11.9631 104.807C11.0294 103.857 10.3656 102.676 10.0401 101.385C9.73023 100.137 9.93387 98.5164 11.4833 98.056C11.857 97.9598 12.2398 97.9034 12.6254 97.8878C12.6002 97.2758 12.728 96.6672 12.9973 96.117C13.3489 95.5156 13.8782 95.0378 14.5123 94.7493C15.1464 94.4608 15.8544 94.3756 16.5388 94.5056C16.7102 93.8942 17.0096 93.3262 17.4171 92.8393C17.8247 92.3524 18.3311 91.9576 18.9028 91.6813C21.7271 90.4418 24.0468 92.5667 25.9061 94.3374C26.6189 94.1287 27.3851 94.2082 28.0399 94.5588C29.1862 95.3246 30.0019 96.4943 30.3242 97.8347C30.6245 98.7349 30.7389 99.6867 30.6606 100.632C30.4642 102.249 29.7713 103.765 28.6774 104.971C27.7361 106.137 26.633 107.163 25.4015 108.017C24.139 108.904 22.6755 109.464 21.1428 109.646C20.3053 109.711 19.4631 109.612 18.6637 109.353C17.8536 109.121 17.1062 108.71 16.4768 108.149ZM25.8973 94.8067H25.8441H25.6936L25.6228 94.7447C23.852 93.0625 21.6209 90.973 19.0356 92.0886C18.4901 92.3518 18.009 92.7318 17.6266 93.2014C17.2441 93.6711 16.9694 94.2191 16.8221 94.8067V94.9749H16.5919C15.9744 94.8299 15.3269 94.8837 14.7418 95.1286C14.1567 95.3734 13.6639 95.7968 13.3337 96.3384C13.0741 96.8746 12.9669 97.4719 13.0238 98.0649V98.2774H12.8114C12.3959 98.2842 11.9827 98.3407 11.5807 98.4456C10.3057 98.8174 10.1464 100.154 10.4208 101.279C10.732 102.509 11.3678 103.633 12.2618 104.533C13.1557 105.433 14.2751 106.077 15.5029 106.396H15.5826L15.68 106.529L15.919 106.848C16.1829 107.208 16.4792 107.543 16.8044 107.848C17.3855 108.372 18.0685 108.769 18.8105 109.016C19.5525 109.263 20.3375 109.354 21.1162 109.283C22.5818 109.102 23.9806 108.564 25.189 107.716C26.3889 106.886 27.4625 105.887 28.3763 104.749C29.4132 103.604 30.0717 102.166 30.2622 100.632C30.3418 99.7346 30.2333 98.8299 29.9435 97.9763C29.6504 96.7364 28.9053 95.6504 27.854 94.9306C27.7262 94.8608 27.593 94.8016 27.4555 94.7536C26.9425 94.615 26.3997 94.6335 25.8973 94.8067Z" fill="#D88860"/>
<path d="M22.4444 96.6833C22.4679 96.6944 22.4936 96.7001 22.5196 96.7001C22.5456 96.7001 22.5713 96.6944 22.5949 96.6833C22.6424 96.6603 22.679 96.6197 22.6972 96.5702C22.7154 96.5206 22.7136 96.466 22.6923 96.4177C22.2002 95.3599 21.5326 94.393 20.7179 93.5579C20.6798 93.5215 20.6291 93.5013 20.5764 93.5015C20.5237 93.5016 20.4732 93.5222 20.4354 93.5589C20.3975 93.5956 20.3754 93.6455 20.3736 93.6981C20.3718 93.7508 20.3905 93.8021 20.4257 93.8413C21.2042 94.6455 21.8444 95.5729 22.3204 96.5859C22.3477 96.6331 22.3921 96.668 22.4444 96.6833Z" fill="#D88860"/>
<path d="M17.3092 103.722C18.3823 104.043 19.5371 103.945 20.5408 103.448C20.5662 103.437 20.5892 103.422 20.6084 103.402C20.6276 103.382 20.6426 103.359 20.6526 103.333C20.6625 103.308 20.6671 103.28 20.6662 103.253C20.6652 103.225 20.6587 103.198 20.647 103.173C20.6256 103.124 20.5857 103.086 20.536 103.066C20.4863 103.046 20.4308 103.046 20.3814 103.067C19.7829 103.385 19.11 103.538 18.4328 103.508C17.7556 103.478 17.0986 103.268 16.53 102.899C14.5733 101.668 12.1031 98.8971 13.3249 96.3206C13.6551 95.7791 14.148 95.3557 14.7331 95.1108C15.3182 94.866 15.9657 94.8122 16.5831 94.9571C16.6099 94.9618 16.6373 94.9611 16.6638 94.9552C16.6903 94.9493 16.7153 94.9382 16.7375 94.9225C16.7597 94.9069 16.7786 94.8871 16.7931 94.8642C16.8077 94.8412 16.8175 94.8157 16.8222 94.7889C16.8268 94.7622 16.8262 94.7348 16.8203 94.7083C16.8143 94.6818 16.8032 94.6568 16.7876 94.6346C16.772 94.6124 16.7521 94.5935 16.7292 94.5789C16.7063 94.5644 16.6807 94.5545 16.654 94.5499C15.9492 94.3939 15.2131 94.464 14.5504 94.75C13.8877 95.0361 13.3319 95.5237 12.9619 96.1436C11.7047 98.7997 13.8473 101.677 16.3087 103.227C16.6223 103.429 16.9579 103.596 17.3092 103.722Z" fill="#D88860"/>
<path d="M14.7239 106.608C15.0996 106.736 15.4888 106.819 15.8837 106.856C16.6705 106.936 17.4583 106.715 18.0883 106.237C18.388 105.937 18.6217 105.579 18.7742 105.184C18.9267 104.789 18.9946 104.366 18.9737 103.943V103.749C18.9737 103.695 18.9522 103.643 18.9141 103.605C18.8759 103.566 18.8241 103.545 18.7701 103.545C18.7161 103.545 18.6643 103.566 18.6261 103.605C18.5879 103.643 18.5664 103.695 18.5664 103.749V103.943C18.591 104.308 18.5417 104.674 18.4216 105.02C18.3014 105.365 18.1128 105.683 17.867 105.953C17.3201 106.367 16.6364 106.557 15.9546 106.484C13.2984 106.237 10.9964 103.598 10.4386 101.305C10.1642 100.181 10.3235 98.8436 11.5985 98.4718C12.0005 98.3669 12.4137 98.3104 12.8292 98.3036C12.884 98.299 12.9349 98.2734 12.9712 98.2322C13.0075 98.1909 13.0264 98.1371 13.0239 98.0822C13.0194 98.0274 12.9938 97.9765 12.9526 97.9402C12.9113 97.9039 12.8575 97.8849 12.8026 97.8874C12.3578 97.9058 11.9159 97.9681 11.4834 98.0734C9.93397 98.5337 9.71263 100.154 10.0402 101.402C10.3521 102.579 10.9394 103.665 11.7538 104.571C12.5682 105.476 13.5862 106.174 14.7239 106.608Z" fill="#D88860"/>
<path d="M18.593 109.406C19.3924 109.665 20.2346 109.764 21.0721 109.699C22.6048 109.517 24.0683 108.957 25.3308 108.07C26.5623 107.216 27.6654 106.19 28.6067 105.024C29.7006 103.818 30.3935 102.302 30.5899 100.686C30.6683 99.7397 30.5538 98.7879 30.2535 97.8877C29.9312 96.5473 29.1156 95.3776 27.9692 94.6118C26.2958 93.7264 24.5074 94.8774 23.197 95.7274L23.1173 95.7805C22.0505 96.4544 21.1196 97.3223 20.3727 98.3392C19.6174 99.3322 19.2776 100.58 19.4253 101.819C19.4942 102.183 19.6385 102.528 19.8489 102.833C20.0593 103.138 20.3312 103.396 20.6471 103.59C22.9668 105.095 26.163 101.987 27.4291 100.579C27.4472 100.559 27.4611 100.536 27.4702 100.511C27.4793 100.486 27.4833 100.459 27.4821 100.433C27.4809 100.406 27.4744 100.38 27.463 100.355C27.4516 100.331 27.4356 100.31 27.4158 100.292C27.3961 100.273 27.373 100.26 27.3478 100.25C27.3226 100.241 27.2959 100.237 27.2692 100.239C27.2425 100.24 27.2163 100.246 27.1921 100.258C27.1679 100.269 27.1461 100.285 27.1281 100.305C26.1985 101.341 22.9845 104.625 20.8773 103.244C20.6076 103.083 20.375 102.866 20.195 102.608C20.0149 102.35 19.8914 102.057 19.8326 101.748C19.7085 100.628 20.0261 99.5034 20.718 98.6137C21.4393 97.6348 22.3408 96.8024 23.3741 96.1612L23.4449 96.1081C24.7376 95.2227 26.349 94.2134 27.801 95.0102C28.8524 95.7299 29.5974 96.816 29.8905 98.0559C30.1803 98.9095 30.2889 99.8142 30.2092 100.712C30.0073 102.22 29.3528 103.63 28.3322 104.758C27.4184 105.895 26.3448 106.895 25.1449 107.724C23.9365 108.573 22.5377 109.111 21.0721 109.291C20.2934 109.362 19.5084 109.271 18.7664 109.025C18.0244 108.778 17.3414 108.38 16.7603 107.857C16.4335 107.537 16.1371 107.187 15.8749 106.812L15.6447 106.52C15.6067 106.483 15.5559 106.463 15.5031 106.463C15.4502 106.463 15.3994 106.483 15.3614 106.52C15.324 106.56 15.3032 106.612 15.3032 106.666C15.3032 106.721 15.324 106.773 15.3614 106.812L15.5828 107.105C15.8619 107.495 16.176 107.86 16.5213 108.194C17.1163 108.743 17.8231 109.156 18.593 109.406Z" fill="#D88860"/>
<path d="M19.5403 100.845C19.5856 100.859 19.6343 100.856 19.678 100.838C19.7217 100.82 19.7576 100.787 19.7796 100.745C19.8017 100.703 19.8084 100.655 19.7986 100.608C19.7889 100.562 19.7633 100.52 19.7263 100.491C18.2831 99.3752 16.6451 97.8347 16.7248 95.7186C16.7445 95.4197 16.7919 95.1233 16.8665 94.8332C16.8775 94.7805 16.868 94.7256 16.8401 94.6796C16.8121 94.6336 16.7678 94.5999 16.716 94.5853C16.6643 94.5717 16.6094 94.5789 16.563 94.6054C16.5166 94.6319 16.4825 94.6756 16.4681 94.727C16.3834 95.0604 16.3329 95.4016 16.3175 95.7452C16.229 98.0472 17.9555 99.6851 19.4783 100.863C19.5001 100.862 19.5214 100.856 19.5403 100.845Z" fill="#D88860"/>
<path d="M63.9332 120.969L83.4115 126.468C89.3728 128.149 95.6707 128.238 101.677 126.724L121.864 121.633C129.045 119.824 136.626 120.463 143.404 123.449C150.181 126.435 155.768 131.598 159.28 138.119L159.749 139.005C162.541 144.176 163.827 150.026 163.462 155.892C163.098 161.757 161.096 167.403 157.685 172.189C154.274 176.974 149.59 180.708 144.165 182.966C138.739 185.224 132.789 185.917 126.99 184.965L94.7975 179.697C90.6524 179.014 86.4189 179.077 82.2959 179.883L64.305 183.424C56.7851 184.883 48.992 183.676 42.2654 180.011C35.5388 176.346 30.2989 170.453 27.4467 163.344L26.9863 162.21C24.8215 156.864 24.2 151.018 25.1923 145.336C26.1846 139.654 28.7509 134.365 32.5996 130.069C36.4483 125.773 41.4249 122.643 46.9639 121.034C52.5029 119.426 58.3821 119.403 63.9332 120.969Z" fill="url(#paint5_linear_396_434)"/>
<path d="M53.1228 157.217C53.1271 156.948 53.0821 156.681 52.99 156.429C52.889 156.166 52.7248 155.932 52.5119 155.747C52.2067 155.494 51.8668 155.285 51.5026 155.127C50.9468 154.862 50.3728 154.638 49.7849 154.455C48.9615 154.18 48.1558 153.861 47.3856 153.516C46.6413 153.187 45.9372 152.775 45.2872 152.285C44.6987 151.837 44.2076 151.274 43.844 150.63C43.4801 149.943 43.2973 149.175 43.3128 148.399C43.2997 147.632 43.4858 146.876 43.8529 146.203C44.2281 145.537 44.7486 144.965 45.3757 144.529C46.078 144.043 46.8601 143.683 47.6866 143.467C48.6271 143.211 49.5983 143.086 50.5729 143.095C51.8301 143.068 53.078 143.316 54.2295 143.821C55.2387 144.248 56.1049 144.955 56.7263 145.858C57.3352 146.774 57.6446 147.857 57.6117 148.956H53.1228C53.1338 148.518 53.03 148.085 52.8218 147.699C52.63 147.316 52.3194 147.005 51.9364 146.814C51.4765 146.602 50.9723 146.505 50.4667 146.53C49.9761 146.518 49.4881 146.605 49.0324 146.787C48.6789 146.935 48.3727 147.177 48.147 147.487C47.9541 147.765 47.852 148.096 47.8548 148.434C47.8494 148.711 47.9298 148.983 48.085 149.213C48.2763 149.464 48.51 149.68 48.7756 149.851C49.121 150.072 49.4855 150.261 49.8646 150.417C50.3386 150.621 50.8233 150.798 51.3166 150.948C52.2306 151.234 53.119 151.595 53.9728 152.029C54.6985 152.375 55.3697 152.825 55.9649 153.366C56.4881 153.834 56.9073 154.407 57.1956 155.048C57.4874 155.724 57.6323 156.454 57.6205 157.19C57.6389 157.972 57.4688 158.746 57.1247 159.448C56.7978 160.114 56.3186 160.693 55.7258 161.139C55.0596 161.611 54.3123 161.956 53.5212 162.157C52.5855 162.405 51.6204 162.524 50.6526 162.511C49.6851 162.51 48.7215 162.388 47.784 162.148C46.8791 161.912 46.0202 161.526 45.2429 161.006C44.4718 160.498 43.8341 159.812 43.3836 159.005C42.912 158.115 42.6772 157.118 42.7019 156.11H47.2705C47.256 156.589 47.3311 157.067 47.4918 157.518C47.6312 157.862 47.8532 158.166 48.1381 158.403C48.4518 158.637 48.8106 158.803 49.1917 158.89C49.6599 158.992 50.1382 159.039 50.6172 159.032C51.096 159.052 51.5733 158.967 52.0161 158.784C52.3397 158.647 52.6122 158.411 52.7952 158.111C52.984 157.849 53.0973 157.539 53.1228 157.217ZM67.5102 155.827H62.862V152.285H67.5545C68.0922 152.308 68.6272 152.199 69.1128 151.967C69.4958 151.775 69.8064 151.464 69.9982 151.081C70.1944 150.676 70.2915 150.23 70.2815 149.78C70.2891 149.284 70.1925 148.792 69.9982 148.337C69.8209 147.899 69.5114 147.527 69.1128 147.274C68.649 146.977 68.1045 146.832 67.5545 146.858H64.5265V162.228H59.9757V143.352H67.5102C68.8595 143.314 70.1981 143.6 71.4148 144.184C72.4605 144.687 73.3395 145.48 73.9469 146.468C74.5443 147.462 74.851 148.603 74.8323 149.762C74.8539 150.888 74.5462 151.996 73.9469 152.949C73.3227 153.885 72.4442 154.622 71.4148 155.074C70.1834 155.606 68.851 155.863 67.5102 155.827ZM93.2571 152.418V153.171C93.2764 154.495 93.0698 155.812 92.6462 157.066C92.2824 158.148 91.7042 159.144 90.9462 159.997C90.2209 160.793 89.3333 161.424 88.3432 161.847C87.291 162.282 86.1615 162.499 85.023 162.485C83.876 162.499 82.7378 162.282 81.6763 161.847C80.6695 161.426 79.7639 160.796 79.0202 159.997C78.2625 159.143 77.6818 158.147 77.3114 157.066C76.895 155.81 76.6915 154.494 76.7093 153.171V152.409C76.6915 151.086 76.895 149.77 77.3114 148.514C77.6767 147.433 78.2547 146.437 79.0113 145.583C79.7342 144.784 80.6225 144.153 81.6143 143.733C82.6739 143.29 83.813 143.07 84.9611 143.086C86.1005 143.07 87.2309 143.29 88.2812 143.733C89.2923 144.146 90.1994 144.778 90.9374 145.583C91.6969 146.436 92.278 147.432 92.6462 148.514C93.0708 149.771 93.2774 151.091 93.2571 152.418ZM88.6443 153.18V152.392C88.6526 151.565 88.5695 150.739 88.3963 149.93C88.2657 149.304 88.0292 148.706 87.6969 148.159C87.412 147.701 87.0121 147.326 86.537 147.07C86.0644 146.814 85.5341 146.683 84.9965 146.69C84.4444 146.68 83.899 146.811 83.4117 147.07C82.9453 147.325 82.5567 147.702 82.2872 148.159C81.9616 148.708 81.7283 149.306 81.5966 149.93C81.4377 150.741 81.3636 151.566 81.3753 152.392V153.171C81.3645 154 81.4386 154.827 81.5966 155.641C81.729 156.265 81.9622 156.863 82.2872 157.412C82.5649 157.876 82.9585 158.261 83.4294 158.527C83.918 158.792 84.4676 158.923 85.023 158.908C85.5611 158.919 86.0926 158.788 86.5636 158.527C87.032 158.26 87.4226 157.876 87.6969 157.412C88.0287 156.865 88.2652 156.267 88.3963 155.641C88.5685 154.829 88.6516 154.001 88.6443 153.171V153.18ZM95.621 143.352H103.049C104.342 143.322 105.629 143.542 106.839 143.998C107.836 144.376 108.697 145.046 109.309 145.919C109.925 146.846 110.235 147.942 110.194 149.054C110.224 149.986 110.052 150.913 109.69 151.772C109.368 152.468 108.882 153.076 108.273 153.543C107.638 154.031 106.934 154.422 106.184 154.702L104.696 155.588H98.4985V152.046H103.12C103.619 152.063 104.115 151.956 104.563 151.736C104.946 151.544 105.256 151.233 105.449 150.851C105.661 150.419 105.764 149.942 105.75 149.461C105.764 148.977 105.661 148.497 105.449 148.062C105.254 147.681 104.944 147.372 104.563 147.177C104.124 146.959 103.637 146.852 103.147 146.867H100.269V162.237H95.621V143.352ZM105.953 162.237L101.819 153.879H106.644L110.876 162.069V162.264L105.953 162.237ZM121.439 143.352V162.237H116.87V143.352H121.439ZM127.123 143.352V146.893H111.337V143.352H127.123ZM138.571 157.217C138.575 156.948 138.53 156.681 138.438 156.429C138.343 156.163 138.178 155.927 137.96 155.747C137.655 155.494 137.315 155.285 136.951 155.127C136.397 154.864 135.826 154.639 135.242 154.455C134.426 154.183 133.626 153.87 132.842 153.516C132.11 153.187 131.417 152.774 130.779 152.285C130.191 151.837 129.7 151.274 129.336 150.63C128.972 149.943 128.79 149.175 128.805 148.399C128.795 147.631 128.984 146.875 129.354 146.203C129.726 145.538 130.243 144.966 130.868 144.529C131.57 144.043 132.352 143.683 133.179 143.467C134.119 143.211 135.091 143.086 136.065 143.095C137.325 143.068 138.576 143.316 139.731 143.821C140.737 144.249 141.601 144.955 142.219 145.858C142.827 146.774 143.137 147.857 143.104 148.956H138.58C138.591 148.518 138.487 148.085 138.279 147.699C138.087 147.316 137.776 147.005 137.393 146.814C136.938 146.594 136.437 146.488 135.932 146.504C135.439 146.49 134.948 146.578 134.489 146.761C134.134 146.905 133.826 147.147 133.604 147.46C133.404 147.735 133.299 148.067 133.303 148.407C133.301 148.684 133.381 148.955 133.533 149.187C133.729 149.434 133.962 149.649 134.224 149.824C134.569 150.045 134.933 150.235 135.313 150.391C135.787 150.593 136.272 150.77 136.765 150.922C137.678 151.21 138.566 151.571 139.421 152.002C140.144 152.348 140.812 152.799 141.404 153.339C141.93 153.805 142.349 154.379 142.635 155.021C142.927 155.697 143.071 156.428 143.06 157.164C143.076 157.944 142.91 158.717 142.573 159.422C142.238 160.082 141.752 160.655 141.156 161.095C140.492 161.57 139.744 161.915 138.952 162.113C138.016 162.36 137.051 162.48 136.083 162.467C135.115 162.465 134.152 162.343 133.214 162.104C132.309 161.868 131.45 161.482 130.673 160.962C129.871 160.434 129.22 159.707 128.782 158.852C128.344 157.997 128.136 157.043 128.176 156.084H132.807C132.797 156.562 132.872 157.039 133.028 157.491C133.168 157.835 133.39 158.139 133.675 158.377C133.989 158.609 134.348 158.774 134.728 158.864C135.197 158.965 135.675 159.012 136.154 159.005C136.633 159.026 137.11 158.941 137.553 158.757C137.876 158.62 138.149 158.385 138.332 158.085C138.485 157.821 138.567 157.522 138.571 157.217Z" fill="white"/>
<path fill-rule="evenodd" clip-rule="evenodd" d="M31.4044 145.955C34.0606 137.243 38.8682 130.142 47.5006 126.76C54.5305 123.998 60.6574 124.546 68.5107 126.645L77.5681 129.823L67.4748 127.946C60.2589 127.061 55.1237 127.008 48.9438 129.08C40.2494 132.01 35.6631 138.031 31.4044 145.955Z" fill="#FEFEFE"/>
<path fill-rule="evenodd" clip-rule="evenodd" d="M112.789 129.026C119.066 127.309 125.662 125.821 131.231 125.812C140.032 125.812 146.344 129.735 150.816 135.8C137.721 126.778 129.044 127.424 112.789 129.026Z" fill="#FEFEFE"/>
<defs>
<linearGradient id="paint0_linear_396_434" x1="41.8342" y1="18.9737" x2="134.259" y2="177.554" gradientUnits="userSpaceOnUse">
<stop stop-color="#78D6FF"/>
<stop offset="0.93" stop-color="#008FCD"/>
</linearGradient>
<linearGradient id="paint1_linear_396_434" x1="2095.99" y1="12399.3" x2="23840.3" y2="12399.3" gradientUnits="userSpaceOnUse">
<stop stop-color="#78D6FF"/>
<stop offset="0.93" stop-color="#008FCD"/>
</linearGradient>
<linearGradient id="paint2_linear_396_434" x1="103.152" y1="70.3838" x2="165.127" y2="132.368" gradientUnits="userSpaceOnUse">
<stop stop-color="#F5F7F4"/>
<stop offset="0.26" stop-color="#EFF1EE"/>
<stop offset="0.6" stop-color="#DFE0DD"/>
<stop offset="1" stop-color="#C3C4C1"/>
</linearGradient>
<linearGradient id="paint3_linear_396_434" x1="94.7376" y1="79.2477" x2="155.637" y2="140.81" gradientUnits="userSpaceOnUse">
<stop stop-color="#F5F7F4"/>
<stop offset="0.31" stop-color="#F2F4F1"/>
<stop offset="0.57" stop-color="#E8EAE7"/>
<stop offset="0.8" stop-color="#D7D8D5"/>
<stop offset="1" stop-color="#C3C4C1"/>
</linearGradient>
<linearGradient id="paint4_linear_396_434" x1="101.805" y1="81.8974" x2="103.573" y2="81.8974" gradientUnits="userSpaceOnUse">
<stop stop-color="white"/>
<stop offset="1" stop-color="#C3C4C1"/>
</linearGradient>
<linearGradient id="paint5_linear_396_434" x1="91.7961" y1="112.488" x2="96.4443" y2="191.649" gradientUnits="userSpaceOnUse">
<stop stop-color="#F955A7"/>
<stop offset="1" stop-color="#9E0752"/>
</linearGradient>
</defs>
</svg>
