<svg width="196" height="163" viewBox="0 0 196 163" fill="none" xmlns="http://www.w3.org/2000/svg">
<path d="M95.8232 160.286C140.085 160.286 175.966 124.405 175.966 80.1431C175.966 35.8813 140.085 0 95.8232 0C51.5615 0 15.6802 35.8813 15.6802 80.1431C15.6802 124.405 51.5615 160.286 95.8232 160.286Z" fill="#FF7EE3"/>
<path d="M95.4925 152.925C135.905 152.925 168.667 120.164 168.667 79.7508C168.667 39.3378 135.905 6.57666 95.4925 6.57666C55.0795 6.57666 22.3184 39.3378 22.3184 79.7508C22.3184 120.164 55.0795 152.925 95.4925 152.925Z" fill="url(#paint0_linear_492_630)"/>
<path d="M144.023 25.0098L22.3184 79.9426C22.3184 81.9375 22.4316 83.9062 22.5884 85.8575L148.291 29.1215C146.923 27.6928 145.477 26.3164 144.023 25.0098ZM151.41 32.5798L23.1198 90.5964C23.3985 92.478 23.7644 94.3248 24.1826 96.1542L154.851 37.0574C153.779 35.5068 152.629 34.0172 151.41 32.5798ZM147.22 78.5837L44.3316 125.023C46.1958 126.243 48.1122 127.393 50.0897 128.455L149.458 83.6274C149.807 83.4922 150.125 83.2872 150.392 83.0251C150.659 82.7629 150.87 82.449 151.011 82.1027C151.153 81.7563 151.222 81.3847 151.216 81.0106C151.209 80.6365 151.126 80.2676 150.972 79.9267C150.817 79.5857 150.595 79.2798 150.319 79.0275C150.043 78.7753 149.718 78.582 149.364 78.4596C149.01 78.3372 148.636 78.2881 148.262 78.3154C147.889 78.3428 147.525 78.4459 147.193 78.6185L147.22 78.5837ZM157.42 40.7596L25.3411 100.571C25.8638 102.313 26.4562 104.055 27.0834 105.797L160.173 45.5421C159.311 43.9044 158.379 42.3102 157.394 40.7596H157.42ZM151.323 65.7434L35.2719 118.106C36.7964 119.465 38.3818 120.72 40.0108 122L153.518 70.7523C154.182 70.4531 154.7 69.9023 154.958 69.2211C155.216 68.5398 155.193 67.784 154.894 67.1197C154.595 66.4555 154.044 65.9373 153.363 65.6792C152.682 65.4211 151.926 65.4442 151.262 65.7434H151.323ZM153.64 53.6348L28.8605 109.996C29.4412 111.233 30.0365 112.453 30.6463 113.655C30.9947 114.021 31.3345 114.395 31.6916 114.753L155.844 58.6524C156.177 58.5063 156.478 58.2955 156.73 58.0322C156.981 57.7689 157.178 57.4584 157.308 57.1186C157.439 56.7788 157.501 56.4164 157.49 56.0526C157.48 55.6887 157.397 55.3305 157.248 54.9987C157.098 54.6669 156.884 54.3681 156.618 54.1196C156.352 53.8711 156.039 53.6778 155.698 53.551C155.357 53.4241 154.994 53.3662 154.63 53.3806C154.266 53.395 153.909 53.4814 153.579 53.6348H153.64Z" fill="url(#paint1_linear_492_630)"/>
<path d="M184.787 64.4129C181.876 62.4332 178.777 60.7438 175.536 59.3692C173.227 58.2803 172.696 57.4701 172.365 55.0136C172.363 54.0555 172.201 53.1045 171.886 52.1998C171.531 51.4227 170.987 50.7469 170.304 50.2341C169.62 49.7213 168.82 49.3878 167.974 49.2642C167.13 49.1424 166.269 49.2291 165.465 49.5168C164.661 49.8087 163.943 50.2968 163.375 50.9367C159.498 46.9731 156.536 42.2255 152.05 38.8368C147.36 35.3377 141.98 32.8761 136.265 31.6153C124.07 28.9061 111.003 31.3104 99.8265 36.4238C89.2947 41.1976 82.0905 51.6946 78.5451 62.4094C76.5241 68.5072 73.3183 82.0793 78.9458 87.7241C81.2368 91.2086 85.4618 92.2801 89.4602 93.0205C96.6731 94.3737 103.903 95.5352 111.151 96.505C118.399 97.472 125.455 98.4215 132.615 99.3013C139.776 100.181 146.85 101.392 154.002 101.566C160.371 101.615 166.68 100.34 172.53 97.8204C177.757 95.7123 183.297 93.4648 187.514 89.6667C195.972 81.9921 193.359 70.7547 184.787 64.4129Z" fill="#07D3D3"/>
<path d="M166.903 94.249C165.535 88.4822 162.913 82.0533 158.653 77.8371C154.716 73.9519 148.845 72.4449 145.186 68.3158C142.973 65.7895 142.146 62.4967 140.438 59.7439C140.176 59.7695 139.913 59.7083 139.689 59.5697C139.462 59.4327 139.282 59.2289 139.175 58.9861C138.853 58.3588 138.522 57.7229 138.182 57.148H138.121C137.976 57.0457 137.857 56.9116 137.773 56.756C137.685 56.6036 137.632 56.4343 137.616 56.2595C132.563 47.9141 125.141 41.8163 115.272 39.8475C109.725 38.7352 104 38.8691 98.5112 40.2395C95.7479 40.8614 93.0476 41.7362 90.4446 42.8529C84.9705 48.3258 80.8898 55.0325 78.5451 62.4096C76.5241 68.5074 73.3184 82.0795 78.9458 87.7243C81.2369 91.2088 85.4618 92.2803 89.4603 93.0207C96.6731 94.3739 103.903 95.5354 111.151 96.5052C118.399 97.4722 125.455 98.4217 132.616 99.3015C139.776 100.181 146.85 101.392 154.002 101.566C158.715 101.635 163.407 100.923 167.887 99.4583C167.65 97.7059 167.322 95.9671 166.903 94.249Z" fill="#00BFB5"/>
<path d="M159.237 96.2436C148.417 97.2018 137.258 95.2156 126.578 93.7173C115.254 92.0622 103.755 90.1196 92.4915 87.724C87.6873 86.7596 82.9959 85.2999 78.4926 83.3684C77.787 83.0548 77.0117 82.7238 76.2451 82.3579C76.6151 84.3752 77.5518 86.2456 78.9456 87.7501C81.2366 91.2346 85.4616 92.3061 89.46 93.0466C96.6729 94.3997 103.903 95.5612 111.151 96.531C118.399 97.498 125.455 98.4475 132.615 99.3273C139.776 100.207 146.849 101.418 154.001 101.592C158.715 101.661 163.407 100.949 167.887 99.4841C167.669 97.8203 167.356 96.2261 167.086 95.024C164.498 95.5956 161.876 96.003 159.237 96.2436Z" fill="#00A39F"/>
<path d="M180.545 85.0849C175.701 86.8272 170.588 87.7593 165.779 89.6409C163.375 90.5904 157.992 92.8205 157.443 95.7387C157.025 98.0123 159.185 99.8156 161.232 101.079C165.119 100.426 168.919 99.3297 172.557 97.812C177.783 95.7039 183.324 93.4564 187.54 89.6583C189.299 88.1919 190.685 86.3287 191.583 84.222C192.481 82.1153 192.866 79.8255 192.706 77.541C189.245 80.9056 185.096 83.4795 180.545 85.0849Z" fill="#00A39F"/>
<path d="M137.293 105.756C143.574 105.756 148.67 99.1969 148.67 91.0954C148.67 82.994 143.574 76.4258 137.293 76.4258C131.013 76.4258 125.969 82.994 125.969 91.0954C125.969 99.1969 131.013 105.756 137.293 105.756Z" fill="#456867"/>
<path d="M139.254 79.7448C146.083 82.9244 147.32 92.0799 146.362 99.9374C147.895 97.2472 148.691 94.2004 148.67 91.1042C148.67 83.0028 143.618 76.4346 137.346 76.4346C135.492 76.5178 133.691 77.082 132.121 78.0717C130.551 79.0614 129.266 80.4425 128.391 82.0794C130.908 79.0218 134.497 77.5496 139.254 79.7448Z" fill="#2E4746"/>
<path d="M137.293 98.1344C140.02 98.1344 142.232 94.8328 142.232 90.7647C142.232 86.6966 140.02 83.395 137.293 83.395C134.567 83.395 132.363 86.6879 132.363 90.7647C132.363 94.8415 134.593 98.1344 137.293 98.1344Z" fill="#95BAB8"/>
<path d="M134.907 94.9894C133.457 92.8949 132.712 90.3927 132.781 87.8462C132.497 88.8133 132.359 89.8175 132.372 90.8254C132.372 94.8936 134.567 98.1951 137.294 98.1951C138.213 98.153 139.086 97.7785 139.75 97.141C138.825 97.2372 137.89 97.0869 137.041 96.7055C136.194 96.327 135.459 95.7358 134.907 94.9894Z" fill="#CCE5E3"/>
<path d="M137.294 93.0903C138.165 93.0903 138.853 92.0449 138.853 90.7644C138.853 89.4838 138.156 88.4385 137.294 88.4385C136.432 88.4385 135.743 89.4838 135.743 90.7644C135.743 92.0449 136.44 93.0903 137.294 93.0903Z" fill="#2E4746"/>
<path d="M136.449 61.1725C135.604 58.0438 134.134 55.1187 132.128 52.5735C130.122 50.0284 127.621 47.9159 124.776 46.3635C117.032 42.5044 112.728 50.0745 112.955 56.965C113.042 59.8746 113.181 63.481 115.568 65.5368C117.955 67.5927 121.962 67.8889 124.95 68.2896C130.429 69.0736 138.67 69.0736 136.449 61.1725Z" fill="#80D0E2"/>
<path d="M125.116 51.834C122.603 52.1734 120.162 52.9146 117.885 54.0292C116.2 54.5784 114.553 55.239 112.955 56.0067V56.9649C113.042 59.8744 113.181 63.4809 115.568 65.5367C117.955 67.5926 121.962 67.8887 124.95 68.2895C128.922 68.8383 134.349 68.9864 136.179 66.0071C134.593 59.7351 131.98 51.4681 125.116 51.834Z" fill="#5596A4"/>
<path d="M123.373 61.2945C121.637 61.0065 120.016 60.2413 118.689 59.0844C117.363 57.9275 116.385 56.4246 115.864 54.7437C114.867 55.0981 113.895 55.5201 112.955 56.0068V56.9911C113.042 59.9007 113.181 63.5071 115.568 65.563C117.955 67.6188 121.962 67.915 124.95 68.3157C128.922 68.8645 134.349 69.0126 136.179 66.0334C135.649 63.888 134.982 61.7785 134.184 59.7177C130.708 61.007 127.145 61.9914 123.373 61.2945Z" fill="#3E8193"/>
<path d="M120.708 46.6419C126.692 46.3806 132.146 53.8287 134.289 58.6373C135.314 60.9832 135.947 63.4818 136.161 66.0331C136.559 65.284 136.791 64.458 136.841 63.6114C136.891 62.7681 136.757 61.924 136.449 61.1374C135.603 58.0091 134.133 55.0844 132.127 52.5393C130.12 49.9943 127.62 47.8815 124.776 46.3283C117.032 42.4693 112.728 50.0393 112.955 56.9299C113.042 59.8394 113.181 63.4458 115.568 65.5017C116.055 65.9086 116.594 66.2485 117.171 66.5122C113.033 59.6303 112.38 47.0339 120.708 46.6419Z" fill="#009B8F"/>
<path d="M97.3351 99.8506C102.841 99.0404 106.447 92.6203 105.393 85.5207C104.339 78.421 99.0338 73.325 93.5283 74.1264C88.0228 74.9278 84.4164 81.3567 85.4617 88.465C86.5071 95.5734 91.8296 100.669 97.3351 99.8506Z" fill="#456867"/>
<path d="M95.6632 76.7918C102.075 78.6909 104.374 86.5571 104.496 93.5783C105.508 91.0171 105.809 88.23 105.367 85.5117C104.322 78.4208 99.0518 73.3161 93.5028 74.1872C91.8878 74.4973 90.3814 75.2227 89.1319 76.2919C87.8825 77.3611 86.933 78.7373 86.377 80.285C87.2364 78.6787 88.6504 77.4396 90.3556 76.7985C92.0609 76.1575 93.941 76.1582 95.6457 76.8005L95.6632 76.7918Z" fill="#2E4746"/>
<path d="M96.3426 93.1687C98.7295 92.8116 100.236 89.632 99.7138 86.0691C99.1912 82.5062 96.8217 79.9016 94.4348 80.25C92.048 80.5985 90.5409 83.7345 91.0723 87.3496C91.6037 90.9648 93.9557 93.5172 96.3426 93.1687Z" fill="#95BAB8"/>
<path d="M93.8337 90.7298C92.2937 89.0832 91.3148 86.9912 91.0374 84.7539C90.9067 85.6201 90.9067 86.501 91.0374 87.3673C91.5513 90.9389 93.9208 93.5435 96.2641 93.1864C97.0549 93.062 97.7717 92.6493 98.2764 92.0278C97.4811 92.223 96.6488 92.2084 95.8609 91.9854C95.073 91.7625 94.3565 91.3389 93.7814 90.7559L93.8337 90.7298Z" fill="#CCE5E3"/>
<path d="M95.6888 88.7431C96.4467 88.6299 96.9171 87.6281 96.7516 86.5044C96.5861 85.3806 95.8804 84.5618 95.0877 84.675C94.295 84.7883 93.8594 85.7813 94.025 86.9138C94.1905 88.0463 94.9396 88.8564 95.6888 88.7431Z" fill="#2E4746"/>
<path d="M135.691 72.1571C139.306 72.1571 142.233 70.0142 142.233 67.3747C142.233 64.7352 139.306 62.5835 135.691 62.5835C132.075 62.5835 129.157 64.7265 129.157 67.3747C129.157 70.0229 132.084 72.1571 135.691 72.1571Z" fill="#00A397"/>
<path d="M142.155 66.6604C141.676 64.3171 138.975 62.5835 135.761 62.5835C133.814 62.5388 131.924 63.2436 130.482 64.5523C132.137 68.2023 138.278 67.5315 142.155 66.6604Z" fill="#07D3D3"/>
<path d="M108.678 53.5502C108.678 50.6406 108.556 46.8687 106.151 44.7867C105.539 44.2122 104.778 43.8205 103.954 43.6558C103.131 43.4911 102.277 43.56 101.491 43.8546C101.404 43.7918 101.302 43.7527 101.195 43.7413C101.088 43.7195 100.979 43.7195 100.872 43.7413C94.6875 45.893 89.1995 51.1894 88.1715 57.9058C87.013 65.4845 94.975 66.1379 100.637 66.2511C103.155 66.2511 106.038 66.2511 107.415 63.7336C108.895 60.9982 108.678 56.5991 108.678 53.5502Z" fill="#80D0E2"/>
<path d="M108.529 50.2485C107.196 50.7102 105.916 51.1197 104.566 51.5117C101.877 52.2073 99.2542 53.1342 96.7256 54.2818C94.151 55.4382 91.9882 57.3489 90.5232 59.7612C89.9718 60.719 89.4886 61.7146 89.0771 62.7404C91.2201 65.8677 96.5601 66.2249 100.689 66.2946C103.215 66.2946 106.09 66.2946 107.466 63.777C108.965 60.972 108.73 56.5729 108.73 53.5239C108.72 52.4294 108.653 51.3361 108.529 50.2485Z" fill="#5596A4"/>
<path d="M99.8267 60.8153C98.745 60.1609 97.8462 59.244 97.2133 58.1496C96.6059 57.053 96.2797 55.8229 96.2638 54.5693C93.885 55.7164 91.8929 57.5329 90.5318 59.7961C89.9788 60.741 89.4955 61.7251 89.0858 62.7404C91.2287 65.8678 96.5687 66.2249 100.698 66.2946C103.224 66.2946 106.099 66.2946 107.475 63.7684C108.056 62.5827 108.419 61.302 108.547 59.9877C105.576 61.486 102.492 62.1481 99.8267 60.8153Z" fill="#3E8193"/>
<path d="M90.1664 60.2754C88.9032 55.6323 92.9975 50.6931 96.2642 47.9664C99.0344 45.6231 102.867 43.7676 106.282 44.9262C106.24 44.8755 106.193 44.8289 106.143 44.7869C105.527 44.2061 104.76 43.8106 103.93 43.6457C103.099 43.4781 102.238 43.5507 101.447 43.8548C101.356 43.7932 101.252 43.7544 101.142 43.7415C101.039 43.7196 100.932 43.7196 100.829 43.7415C94.6352 45.8932 89.1472 51.1896 88.1279 57.9059C87.1436 64.3696 92.71 65.746 97.8584 66.1554C94.2868 65.3279 91.081 63.7599 90.1664 60.2754Z" fill="#009B8F"/>
<path d="M170.779 89.7369C172.914 89.7369 174.656 87.7159 174.656 85.2071C174.656 82.6982 172.914 80.6772 170.779 80.6772C168.645 80.6772 166.903 82.707 166.903 85.2071C166.903 87.7072 168.636 89.7369 170.779 89.7369Z" fill="#00A39F"/>
<path d="M171.546 88.9698C173.689 88.9698 175.422 86.9401 175.422 84.44C175.422 81.9399 173.68 79.9102 171.546 79.9102C169.412 79.9102 167.669 81.9312 167.669 84.44C167.669 86.9488 169.438 88.9698 171.546 88.9698Z" fill="#EAE242"/>
<path d="M171.999 81.2693C172.887 82.0132 173.573 82.9689 173.994 84.0482C174.422 85.1231 174.569 86.2893 174.421 87.4368C175.072 86.5603 175.424 85.4972 175.423 84.4053C175.505 83.2916 175.143 82.1907 174.417 81.3423C173.691 80.4939 172.659 79.9667 171.546 79.8755C171.053 79.8745 170.565 79.9815 170.118 80.1891C170.797 80.4505 171.431 80.8148 171.999 81.2693Z" fill="#C1B625"/>
<path d="M186.216 80.938C188.037 80.938 189.509 79.1958 189.509 77.0877C189.509 74.9795 188.037 73.2373 186.216 73.2373C184.396 73.2373 182.923 74.9795 182.923 77.0877C182.923 79.1958 184.396 80.938 186.216 80.938Z" fill="#00BFB5"/>
<path d="M186.983 80.1714C188.803 80.1714 190.284 78.4292 190.284 76.3211C190.284 74.2129 188.803 72.4707 186.983 72.4707C185.162 72.4707 183.69 74.2129 183.69 76.3211C183.69 78.4292 185.162 80.1714 186.983 80.1714Z" fill="#EAE242"/>
<path d="M186.982 72.4706C186.545 72.4632 186.112 72.5587 185.719 72.7494L185.902 72.8626C188.263 74.6049 188.515 77.2792 188.123 79.8926C188.777 79.5592 189.321 79.0452 189.691 78.4117C190.058 77.7775 190.239 77.0531 190.214 76.321C190.289 75.3833 189.992 74.4537 189.387 73.7332C188.783 73.0127 187.918 72.5592 186.982 72.4706Z" fill="#C1B625"/>
<path d="M162.896 57.0087C161.955 51.9562 158.027 45.2747 153.558 42.5394C150.335 40.5794 146.345 41.2763 143.017 42.5394C140.491 43.4715 135.177 45.327 134.306 48.2452C133.714 50.3185 135.874 52.6792 137.268 54.9529C139.01 57.6795 140.108 60.2928 141.423 62.1047C141.641 62.3922 141.841 62.6797 142.033 62.9759C143.827 65.7896 144.559 66.7652 147.634 65.0753C152.599 62.4096 156.79 59.5088 162.33 57.9756C162.428 57.9471 162.519 57.8993 162.598 57.8349C162.678 57.7706 162.743 57.6911 162.792 57.6011C162.847 57.5141 162.885 57.417 162.903 57.3153C162.921 57.2136 162.918 57.1095 162.896 57.0087Z" fill="#80D0E2"/>
<path d="M162.896 57.0087C162.514 55.1144 161.878 53.2802 161.006 51.5555C160.597 52.6227 159.81 53.5026 158.795 54.0278C157.78 54.5529 156.608 54.6869 155.5 54.404C150.927 53.5329 148.531 48.855 143.531 48.9421C140.831 48.9421 137.912 50.2924 135.133 51.5555C135.778 52.6705 136.641 53.7943 137.32 54.9006C139.01 57.6272 140.16 60.2405 141.475 62.0612C141.693 62.3487 141.893 62.6361 142.076 62.9323C143.871 65.746 144.603 66.7217 147.686 65.023C152.643 62.4096 156.833 59.4565 162.373 57.9321C162.568 57.8715 162.73 57.737 162.826 57.5575C162.917 57.3896 162.942 57.1939 162.896 57.0087Z" fill="#3E8193"/>
<path d="M162.896 57.0087C161.955 51.9562 158.026 45.2747 153.558 42.5394C150.334 40.5794 146.345 41.2763 143.017 42.5394C140.918 43.306 136.919 44.7346 135.099 46.895C140.909 43.2537 148.671 40.1002 153.897 44.2816C157.687 47.3567 160.361 52.8534 161.311 58.298C161.65 58.1847 161.99 58.0715 162.356 57.9669C162.454 57.9384 162.545 57.8905 162.625 57.8262C162.704 57.7619 162.769 57.6824 162.818 57.5923C162.919 57.4154 162.947 57.206 162.896 57.0087Z" fill="#009B8F"/>
<path d="M193.829 78.1157C193.75 77.9868 193.635 77.8838 193.498 77.8195C193.359 77.7481 193.201 77.7206 193.045 77.7408C192.889 77.7611 192.744 77.828 192.627 77.9327C192.511 78.0313 192.426 78.1614 192.383 78.3073C191.686 80.0985 190.63 81.7287 189.282 83.0985C185.047 85.7348 180.522 87.8745 175.797 89.4751C173.088 90.3985 169.917 90.7382 167.199 91.9404C167.123 91.8729 167.029 91.8278 166.929 91.8097C166.829 91.7835 166.724 91.7835 166.624 91.8097C164.272 92.254 157.416 94.7889 159.882 98.3518C160.979 99.7892 163.235 99.6672 164.769 99.6672C168.128 99.6313 171.472 99.2074 174.734 98.4041C181.825 96.7751 201.844 88.5169 193.829 78.1157Z" fill="#CCE5E3"/>
<path d="M192.209 86.0692C188.008 90.3574 182.484 93.1042 176.529 93.8657C173.405 94.285 170.248 94.3959 167.103 94.1967C165.473 94.2864 163.843 94.0281 162.321 93.4389C160.213 94.6149 158.532 96.3049 159.978 98.352C161.023 99.7893 163.279 99.6674 164.812 99.6674C168.175 99.631 171.521 99.2071 174.787 98.4043C181.094 96.8711 197.871 90.0676 195.528 81.1909C194.678 82.9772 193.558 84.6224 192.209 86.0692Z" fill="#A5C4C1"/>
<path d="M171.991 93.3516C170.981 93.4039 169.969 93.4039 168.96 93.3516C168.754 93.3516 168.557 93.4333 168.411 93.5787C168.266 93.7241 168.184 93.9213 168.184 94.1269C168.184 94.3325 168.266 94.5297 168.411 94.6751C168.557 94.8205 168.754 94.9022 168.96 94.9022C175.335 95.1885 181.651 93.5625 187.096 90.233C187.237 90.1554 187.347 90.0327 187.41 89.8845C187.472 89.739 187.487 89.5775 187.453 89.4229C182.833 92.3072 177.428 93.6804 171.991 93.3516Z" fill="white"/>
<path d="M170.901 53.6458C170.865 53.039 170.705 52.4461 170.431 51.9035C170.155 51.3501 169.77 50.8583 169.298 50.4575C169.098 50.3213 168.871 50.2285 168.633 50.185C168.394 50.1415 168.149 50.1483 167.913 50.2048C167.678 50.2545 167.456 50.3524 167.26 50.4923C167.065 50.6365 166.899 50.8169 166.772 51.0237C166.682 51.2279 166.626 51.4457 166.607 51.6683C166.497 51.6715 166.389 51.7014 166.293 51.7554C166.196 51.8087 166.113 51.8832 166.049 51.9732C165.987 52.0655 165.942 52.169 165.919 52.2781C165.893 52.384 165.893 52.4945 165.919 52.6004C166.441 54.4383 167.598 56.0312 169.185 57.0954C169.333 57.1813 169.503 57.2179 169.673 57.1999C169.847 57.1802 170.009 57.1037 170.135 56.9822C170.491 56.5188 170.744 55.984 170.875 55.4141C171.019 54.8344 171.027 54.2295 170.901 53.6458Z" fill="#34E8E3"/>
<path d="M137.773 40.4921C140.869 39.0767 144.259 38.4226 147.66 38.5844C147.643 38.4761 147.605 38.3724 147.547 38.2795C147.481 38.189 147.398 38.1121 147.303 38.053C139.228 32.724 129.371 30.8102 119.889 32.7304C119.773 32.7473 119.665 32.7955 119.575 32.8698C119.485 32.9414 119.418 33.0385 119.383 33.1486H119.218C119.015 33.1508 118.821 33.2323 118.678 33.3756C118.535 33.5189 118.453 33.7126 118.451 33.9152C118.451 34.0171 118.47 34.1182 118.509 34.2124C118.548 34.3066 118.605 34.3922 118.678 34.464C118.822 34.6064 119.015 34.6876 119.218 34.6905C125.408 34.8538 131.454 36.5895 136.788 39.7343C137.082 40.0282 137.413 40.2829 137.773 40.4921Z" fill="#34E8E3"/>
<path d="M113.033 42.1386C108.678 57.5662 109.497 73.6993 110.42 89.5014C110.42 90.0067 111.23 90.0067 111.204 89.5014C110.333 73.7603 109.462 57.6968 113.817 42.3477C113.856 42.2528 113.856 42.1465 113.817 42.0515C113.765 41.961 113.681 41.8928 113.582 41.8599C113.484 41.8254 113.376 41.8254 113.277 41.8599C113.217 41.8833 113.164 41.9208 113.121 41.9694C113.079 42.0179 113.049 42.076 113.033 42.1386Z" fill="#1FA093"/>
<path d="M120.656 72.4183C120.272 71.8434 119.462 71.765 118.844 71.6343C117.581 71.3556 116.317 71.1117 114.941 70.8939C114.895 70.8721 114.844 70.8608 114.793 70.8608C114.742 70.8608 114.691 70.8721 114.645 70.8939C114.035 70.8939 113.53 71.2423 113.774 72.0438C113.922 72.6013 114.593 72.8278 115.037 73.0107C116.155 73.4372 117.328 73.7013 118.521 73.7947C118.736 73.8121 118.951 73.8121 119.166 73.7947H119.253C119.307 73.8077 119.364 73.8077 119.419 73.7947C119.476 73.7792 119.529 73.7526 119.575 73.7163C120.368 73.7686 121.239 73.4288 120.656 72.4183Z" fill="#1FA093"/>
<path d="M172.365 84.6144C172.345 84.3454 172.254 84.0865 172.101 83.8645C171.948 83.6424 171.738 83.4653 171.494 83.3513L171.285 83.2555C171.183 83.1572 171.056 83.088 170.919 83.0551C170.785 83.0161 170.643 83.0161 170.509 83.0551C170.344 83.1012 170.203 83.2107 170.117 83.36C169.936 83.4722 169.787 83.6279 169.682 83.813C169.501 84.2352 169.479 84.7088 169.621 85.1458C169.772 85.5875 170.083 85.9569 170.492 86.1824C170.637 86.3397 170.82 86.4567 171.023 86.5222C171.137 86.5805 171.262 86.6132 171.389 86.618C171.517 86.6241 171.644 86.6033 171.764 86.557C171.881 86.5088 171.988 86.4378 172.077 86.3481C172.167 86.2584 172.238 86.1517 172.286 86.0343C172.363 85.8483 172.41 85.6514 172.426 85.4507C172.491 85.1722 172.469 84.8805 172.365 84.6144Z" fill="white"/>
<path d="M187.287 77.2186C187.263 77.1213 187.234 77.0253 187.2 76.9311C187.203 76.3638 187.015 75.8119 186.668 75.3631C186.633 75.309 186.585 75.2641 186.529 75.2324C186.471 75.1981 186.405 75.18 186.337 75.1802C186.273 75.1812 186.21 75.1992 186.155 75.2324C186.096 75.2618 186.048 75.3071 186.015 75.3631H185.911C185.832 75.3329 185.745 75.3329 185.667 75.3631C185.589 75.3926 185.525 75.448 185.484 75.5199C185.357 75.7011 185.29 75.9173 185.292 76.1384C185.249 76.4067 185.249 76.6803 185.292 76.9485C185.282 77.0952 185.309 77.242 185.37 77.3754C185.423 77.514 185.51 77.6369 185.623 77.7326V77.8197C185.672 77.957 185.73 78.0908 185.797 78.2204C185.84 78.2999 185.912 78.3595 185.998 78.3859C186.036 78.4531 186.08 78.5172 186.128 78.5775C186.172 78.6147 186.223 78.6441 186.276 78.6647C186.334 78.678 186.393 78.678 186.451 78.6647C186.51 78.6542 186.567 78.6304 186.616 78.595C186.665 78.5656 186.704 78.5234 186.729 78.473C186.738 78.4387 186.738 78.4028 186.729 78.3685C187.313 78.2639 187.365 77.689 187.287 77.2186Z" fill="white"/>
<g clip-path="url(#clip0_492_630)">
<path d="M122.345 106.913C126.866 106.913 130.53 103.233 130.53 98.6929C130.53 94.153 126.866 90.4727 122.345 90.4727C117.824 90.4727 114.16 94.153 114.16 98.6929C114.16 103.233 117.824 106.913 122.345 106.913Z" fill="white"/>
<path d="M30.4898 106.202C35.0104 106.202 38.6751 102.522 38.6751 97.982C38.6751 93.442 35.0104 89.7617 30.4898 89.7617C25.9692 89.7617 22.3045 93.442 22.3045 97.982C22.3045 102.522 25.9692 106.202 30.4898 106.202Z" fill="white"/>
<path d="M122.345 102.94C124.681 102.94 126.574 101.038 126.574 98.6927C126.574 96.3469 124.681 94.4453 122.345 94.4453C120.009 94.4453 118.116 96.3469 118.116 98.6927C118.116 101.038 120.009 102.94 122.345 102.94Z" fill="#A6B3BD"/>
<path d="M122.345 70.0752C116.704 70.072 111.19 71.749 106.499 74.8941C101.807 78.0392 98.1505 82.5109 95.9905 87.7437C93.8305 92.9764 93.2645 98.735 94.3642 104.291C95.4638 109.847 98.1796 114.95 102.168 118.956C106.156 122.961 111.238 125.689 116.77 126.793C122.303 127.897 128.037 127.329 133.247 125.16C138.458 122.99 142.911 119.318 146.042 114.607C149.174 109.895 150.844 104.357 150.841 98.6926C150.841 94.9345 150.104 91.2132 148.672 87.7412C147.24 84.2692 145.141 81.1144 142.494 78.457C139.848 75.7997 136.707 73.6917 133.25 72.2536C129.793 70.8154 126.087 70.0752 122.345 70.0752ZM122.345 122.417C117.673 122.417 113.105 121.025 109.221 118.418C105.336 115.812 102.308 112.106 100.52 107.771C98.732 103.436 98.2642 98.6662 99.1757 94.0642C100.087 89.4622 102.337 85.235 105.641 81.9172C108.945 78.5993 113.154 76.3398 117.736 75.4244C122.319 74.509 127.069 74.9788 131.385 76.7745C135.702 78.5701 139.391 81.6108 141.987 85.5122C144.583 89.4136 145.968 94.0004 145.968 98.6926C145.968 104.985 143.479 111.019 139.049 115.468C134.619 119.917 128.61 122.417 122.345 122.417Z" fill="white"/>
<path d="M30.9722 70.0752C25.3331 70.0784 19.8216 71.7609 15.1346 74.9098C10.4477 78.0587 6.79574 82.5328 4.64069 87.7661C2.48564 92.9994 1.92425 98.7569 3.0275 104.311C4.13076 109.864 6.8491 114.965 10.8388 118.967C14.8285 122.969 19.9103 125.693 25.4417 126.795C30.9731 127.897 36.7055 127.327 41.9141 125.156C47.1228 122.986 51.5736 119.314 54.7039 114.603C57.8342 109.893 59.5033 104.356 59.5001 98.6926C59.5001 94.9318 58.762 91.2078 57.3279 87.7337C55.8938 84.2596 53.792 81.1034 51.1425 78.4456C48.493 75.7878 45.3479 73.6806 41.8869 72.2443C38.426 70.808 34.717 70.071 30.9722 70.0752ZM30.9722 122.417C26.3035 122.401 21.7441 120.996 17.8699 118.379C13.9957 115.763 10.9804 112.052 9.2047 107.716C7.42904 103.379 6.97268 98.6116 7.89325 94.015C8.81381 89.4183 11.07 85.1986 14.3769 81.8888C17.6839 78.5791 21.8932 76.3276 26.4735 75.4187C31.0537 74.5098 35.7994 74.9843 40.1113 76.7823C44.4232 78.5803 48.1078 81.621 50.7001 85.5207C53.2923 89.4203 54.6757 94.0039 54.6758 98.6926C54.6758 101.815 54.0621 104.906 52.8699 107.79C51.6777 110.674 49.9304 113.293 47.7283 115.497C45.5262 117.701 42.9125 119.446 40.0371 120.634C37.1617 121.821 34.0812 122.427 30.9722 122.417Z" fill="white"/>
<path d="M91.3728 98.6928C91.3728 104.845 93.1893 110.858 96.5926 115.973C99.9958 121.089 104.833 125.075 110.492 127.43C116.152 129.784 122.379 130.4 128.387 129.2C134.395 127.999 139.914 125.037 144.246 120.687C148.577 116.337 151.527 110.795 152.722 104.761C153.917 98.7273 153.304 92.4732 150.96 86.7897C148.615 81.1061 144.646 76.2482 139.552 72.8304C134.459 69.4126 128.471 67.5884 122.345 67.5884C114.131 67.5884 106.253 70.8654 100.444 76.6987C94.6359 82.5319 91.3728 90.4434 91.3728 98.6928ZM96.3579 98.6928C96.3548 93.5304 97.8762 88.4831 100.73 84.1891C103.583 79.8952 107.641 76.5477 112.389 74.5699C117.137 72.5921 122.363 72.073 127.405 73.0782C132.447 74.0833 137.079 76.5676 140.715 80.2169C144.351 83.8661 146.828 88.5163 147.832 93.5792C148.836 98.6422 148.322 103.89 146.355 108.66C144.389 113.43 141.058 117.507 136.784 120.375C132.51 123.244 127.485 124.775 122.345 124.775C115.456 124.775 108.848 122.027 103.975 117.136C99.102 112.246 96.3622 105.612 96.3579 98.6928Z" fill="black"/>
<path d="M0 98.6928C0 104.845 1.81649 110.858 5.21976 115.973C8.62302 121.089 13.4602 125.075 19.1196 127.43C24.7791 129.784 31.0065 130.4 37.0146 129.2C43.0226 127.999 48.5413 125.037 52.8728 120.687C57.2044 116.337 60.1542 110.795 61.3493 104.761C62.5443 98.7273 61.931 92.4732 59.5868 86.7897C57.2426 81.1061 53.2728 76.2482 48.1794 72.8304C43.0861 69.4126 37.0979 67.5884 30.9722 67.5884C22.7579 67.5884 14.88 70.8654 9.07155 76.6987C3.26313 82.5319 0 90.4434 0 98.6928H0ZM4.98514 98.6928C4.98196 93.5304 6.50337 88.4831 9.35693 84.1891C12.2105 79.8952 16.268 76.5477 21.0162 74.5699C25.7645 72.5921 30.9901 72.073 36.0322 73.0782C41.0742 74.0833 45.7062 76.5676 49.3421 80.2169C52.9781 83.8661 55.4547 88.5163 56.4587 93.5792C57.4627 98.6422 56.9491 103.89 54.9826 108.66C53.0162 113.43 49.6854 117.507 45.4115 120.375C41.1376 123.244 36.1126 124.775 30.9722 124.775C24.0828 124.775 17.4753 122.027 12.6023 117.136C7.7292 112.246 4.9894 105.612 4.98514 98.6928Z" fill="black"/>
<path d="M96.0202 52.7467C96.2533 52.7476 96.4829 52.6901 96.6882 52.5793C96.8935 52.4685 97.068 52.3079 97.1958 52.1121C97.3236 51.9164 97.4007 51.6917 97.4201 51.4584C97.4395 51.2252 97.4005 50.9907 97.3067 50.7764C95.6986 47.0943 95.0232 44.5265 95.2323 42.9277C95.3931 41.7487 95.9881 41.135 97.1298 40.053C97.9783 39.3142 98.7391 38.4797 99.3973 37.5659C99.8073 37.026 100.081 36.3945 100.196 35.7253C100.311 35.0561 100.263 34.3689 100.057 33.7223C98.9952 30.4923 94.1548 28.8774 93.6241 28.6997C93.4489 28.6418 93.264 28.6193 93.08 28.6335C92.8961 28.6477 92.7167 28.6983 92.5523 28.7823C92.3879 28.8664 92.2417 28.9823 92.122 29.1233C92.0024 29.2643 91.9117 29.4277 91.8552 29.6041C91.7978 29.779 91.7756 29.9637 91.7899 30.1473C91.8042 30.3309 91.8548 30.5098 91.9386 30.6736C92.0224 30.8374 92.1378 30.9828 92.2781 31.1014C92.4184 31.2201 92.5807 31.3094 92.7558 31.3644C94.0583 31.8166 96.9369 33.1894 97.4193 34.5944C97.4886 34.8252 97.4969 35.0702 97.4433 35.3052C97.3897 35.5403 97.2761 35.7572 97.1137 35.9348C96.5665 36.6883 95.9353 37.3765 95.2323 37.9858C92.3537 40.699 90.8743 42.9761 94.7498 51.8908C94.8576 52.1407 95.0347 52.3542 95.2599 52.506C95.4852 52.6577 95.7491 52.7413 96.0202 52.7467Z" fill="white"/>
<path d="M92.7397 31.3483C93.6697 31.6831 94.564 32.1105 95.4092 32.6242C95.7552 32.2724 96.0197 31.8483 96.1837 31.3821C96.3477 30.9159 96.4072 30.4191 96.358 29.9271C95.4821 29.427 94.5615 29.0107 93.6081 28.6836C93.4328 28.6257 93.2479 28.6032 93.064 28.6174C92.88 28.6316 92.7007 28.6821 92.5363 28.7662C92.3719 28.8503 92.2256 28.9661 92.106 29.1072C91.9864 29.2482 91.8957 29.4116 91.8392 29.588C91.7818 29.7629 91.7596 29.9475 91.7739 30.1311C91.7882 30.3148 91.8387 30.4937 91.9225 30.6575C92.0063 30.8213 92.1217 30.9667 92.262 31.0853C92.4023 31.2039 92.5647 31.2933 92.7397 31.3483Z" fill="#63737C"/>
<path d="M53.3893 68.5573C53.5485 68.562 53.7071 68.5345 53.8556 68.4765C54.0316 68.4121 54.1929 68.3128 54.3299 68.1846C54.467 68.0565 54.577 67.9019 54.6535 67.7302C54.73 67.5585 54.7714 67.3732 54.7752 67.1851C54.779 66.997 54.7452 66.8101 54.6758 66.6354C54.6758 66.5547 51.4595 57.3332 49.7389 52.7951C49.6744 52.6223 49.5768 52.4638 49.4514 52.3289C49.326 52.194 49.1754 52.0852 49.0082 52.0087C48.8409 51.9322 48.6603 51.8895 48.4767 51.8832C48.293 51.8768 48.1099 51.9068 47.9378 51.9715C47.7657 52.0362 47.6079 52.1343 47.4736 52.2602C47.3392 52.3861 47.2308 52.5373 47.1547 52.7053C47.0785 52.8732 47.0361 53.0546 47.0297 53.2391C47.0233 53.4235 47.0532 53.6074 47.1176 53.7802C48.7257 58.3022 51.942 67.4914 52.0385 67.5721C52.1283 67.8603 52.3082 68.1118 52.5515 68.2892C52.7948 68.4666 53.0886 68.5606 53.3893 68.5573Z" fill="#EAEAEA"/>
<path d="M48.8543 58.5609C49.7066 58.2056 50.575 57.8341 51.4434 57.5111C50.8323 55.7993 50.2373 54.152 49.8353 52.8762C49.7052 52.5271 49.4424 52.2442 49.1046 52.0897C48.7668 51.9353 48.3818 51.9219 48.0342 52.0525C47.6866 52.1832 47.4049 52.4471 47.2511 52.7863C47.0973 53.1255 47.084 53.5122 47.2141 53.8613L48.8543 58.5609Z" fill="#63737C"/>
<path d="M39.4469 53.0051C39.5231 53.635 39.8093 54.2204 40.259 54.6661C40.7087 55.1118 41.2953 55.3916 41.9234 55.4599C42.5617 55.6012 43.2262 55.5661 43.8463 55.3586C44.4664 55.151 45.0189 54.7786 45.4452 54.281C45.5375 54.174 45.602 54.0458 45.6329 53.9077C45.6637 53.7696 45.66 53.6259 45.622 53.4896C45.547 53.3617 45.4331 53.2613 45.2971 53.2032C45.161 53.1451 45.01 53.1323 44.8662 53.1666C44.5829 53.2389 44.3119 53.3532 44.0622 53.5058C43.714 53.7039 43.3206 53.8081 42.9204 53.8081C42.5202 53.8081 42.1268 53.7039 41.7787 53.5058C41.429 53.2194 41.1785 52.8293 41.063 52.3913C40.9475 51.9533 40.9728 51.4898 41.1354 51.0672C41.2802 50.5504 41.5053 49.969 40.9746 49.6298C40.7943 49.5304 40.5877 49.4895 40.3833 49.5126C40.1789 49.5358 39.9866 49.6218 39.8329 49.759C39.077 50.4858 39.2539 52.1815 39.4469 53.0051Z" fill="#7C8B96"/>
<path d="M41.1515 52.6982C40.9751 52.1745 40.9751 51.607 41.1515 51.0833C41.2963 50.5665 41.5214 49.9851 40.9907 49.6459C40.8104 49.5466 40.6039 49.5056 40.3995 49.5288C40.1951 49.5519 40.0028 49.6379 39.849 49.7751C39.5903 50.0969 39.4068 50.4729 39.3122 50.8755C39.2175 51.278 39.2141 51.6967 39.3022 52.1007C39.9644 52.1088 40.6089 52.317 41.1515 52.6982Z" fill="#63737C"/>
<path d="M45.6221 53.4898C45.547 53.3619 45.4331 53.2615 45.2971 53.2034C45.1611 53.1453 45.0101 53.1324 44.8663 53.1668C44.583 53.2391 44.312 53.3534 44.0622 53.506C43.7554 53.675 43.4174 53.7793 43.069 53.8126C42.7206 53.8459 42.3691 53.8075 42.036 53.6998C42.3812 54.2609 42.6413 54.8705 42.8079 55.5085C43.3115 55.5188 43.8108 55.4135 44.2678 55.2008C44.7248 54.9882 45.1274 54.6736 45.4452 54.2811C45.5375 54.1742 45.602 54.046 45.6329 53.9079C45.6638 53.7698 45.6601 53.6261 45.6221 53.4898Z" fill="#63737C"/>
<path d="M57.3291 47.3365C52.5048 46.3029 47.391 49.4037 42.5506 48.257C41.0368 47.6753 39.452 47.3005 37.8388 47.1427C37.2896 47.1281 36.7534 47.3114 36.3272 47.6595C36.1197 47.8381 35.976 48.08 35.918 48.3481C35.8599 48.6163 35.8907 48.8962 36.0055 49.1453C36.2424 49.4736 36.5822 49.7124 36.9704 49.8235C38.9645 50.5826 41.3284 50.7925 42.7274 52.4075C43.5797 53.3765 43.9496 54.7492 44.9466 55.6375C45.5529 56.0578 46.2592 56.3092 46.9938 56.3659C47.7283 56.4227 48.4646 56.2828 49.1277 55.9605C50.4401 55.3017 51.6799 54.5059 52.8264 53.5864C53.9075 52.8221 55.125 52.2738 56.4125 51.9715C57.0396 51.8423 57.6829 51.81 58.31 51.6485C58.9497 51.533 59.5232 51.1817 59.9181 50.6633C61.1081 48.8707 58.6156 47.611 57.3291 47.3365Z" fill="black"/>
<path d="M36.9865 48.3377C39.042 49.1346 41.2168 49.5768 43.419 49.6458H45.3809C48.372 49.6458 51.2826 49.129 54.2416 48.8383C56.1729 48.5679 58.1393 48.7054 60.0147 49.2421C59.7091 48.7501 59.3032 48.3288 58.8237 48.0058C58.3441 47.6829 57.8019 47.4658 57.2326 47.3687C52.4083 46.3351 47.2945 49.4359 42.4541 48.2893C40.9403 47.7075 39.3556 47.3327 37.7423 47.1749C37.1932 47.1603 36.657 47.3436 36.2307 47.6917C36.174 47.7434 36.1252 47.8033 36.086 47.8694L36.9865 48.3377Z" fill="#2B343A"/>
<path d="M123.326 97.32C119.18 95.0938 115.623 91.9044 112.954 88.0177C109.708 81.5129 106.835 74.8267 104.35 67.992C100.587 58.3022 97.0655 48.7738 96.6152 47.5303C95.3595 47.8044 94.136 48.2104 92.9648 48.7415C92.9422 48.8968 92.9422 49.0546 92.9648 49.2098C93.3186 51.277 93.7528 65.0528 85.9856 75.0495C80.7754 81.7516 72.8956 85.5306 62.5876 86.3543L53.7752 62.9694C52.5474 63.2184 51.3615 63.6426 50.2534 64.2291L51.4595 67.2814L50.6715 68.3473C48.3719 65.8764 43.6119 61.4998 38.0961 60.9184C31.1169 60.1755 12.9935 60.8377 12.2216 60.8054C11.7269 60.7818 11.2431 60.9566 10.8767 61.2913C10.5103 61.6259 10.2912 62.0931 10.2678 62.5899C10.2443 63.0868 10.4184 63.5726 10.7516 63.9406C11.0849 64.3086 11.55 64.5286 12.0447 64.5521L18.2681 64.3906C18.638 68.9125 20.4873 84.9977 28.946 98.9511L29.1229 99.1933L29.2354 99.2902L29.4606 99.4679H29.5571C29.6685 99.535 29.7872 99.5891 29.9108 99.6294C30.039 99.6461 30.1687 99.6461 30.2968 99.6294L68.6502 103.021H68.811C69.2953 103.023 69.7618 102.838 70.1136 102.504L101.89 71.9487C104.157 78.1162 106.794 84.1403 109.786 89.988C112.74 94.3955 116.712 98.0194 121.364 100.55C121.658 100.733 121.999 100.829 122.345 100.824C122.667 100.83 122.984 100.751 123.267 100.595C123.549 100.439 123.785 100.212 123.953 99.9362C124.087 99.7242 124.177 99.4874 124.218 99.2397C124.259 98.9921 124.25 98.7388 124.191 98.4947C124.133 98.2507 124.026 98.0209 123.877 97.8191C123.729 97.6173 123.541 97.4476 123.326 97.32ZM22.015 64.326C27.6273 64.2453 34.1884 64.326 37.7102 64.6329C42.3415 65.1335 46.5226 69.2517 48.388 71.3512L30.6988 94.6068C25.8984 85.1622 22.9349 74.8852 21.9668 64.326H22.015ZM68.1678 99.4194L34.0276 96.4156L53.0676 71.4804L59.7252 88.9382C59.8586 89.2929 60.0961 89.5986 60.4062 89.8149C60.7163 90.0311 61.0844 90.1478 61.462 90.1495H61.5584C81.4025 89.2289 89.9898 78.3117 93.7206 69.3324C95.1792 65.7083 96.1578 61.9076 96.6313 58.0276C97.7731 61.0799 99.1239 64.6167 100.523 68.2181L68.1678 99.4194Z" fill="#E90000"/>
<path d="M106.489 79.2969C102.646 69.8815 99.8153 60.0787 96.2614 50.5664C96.1695 50.3226 96.0294 50.0999 95.8497 49.9117C95.67 49.7235 95.4544 49.5736 95.2156 49.4711C94.9769 49.3685 94.72 49.3154 94.4604 49.3149C94.2007 49.3145 93.9436 49.3666 93.7045 49.4683L93.0774 49.7428C93.3001 53.4338 93.0296 57.1381 92.2733 60.7569C93.206 62.5334 94.187 64.2453 94.8141 65.828C95.5929 63.2697 96.1525 60.6493 96.4866 57.9953C97.6283 61.0476 98.9791 64.5844 100.378 68.1858L97.2745 71.1897C97.8374 72.3848 98.3841 73.596 98.8826 74.8234L101.842 71.9487C104.109 78.1162 106.746 84.1403 109.737 89.988C112.705 94.4014 116.695 98.0257 121.364 100.55C121.658 100.733 121.999 100.829 122.345 100.824C122.661 100.838 122.975 100.77 123.257 100.625C123.539 100.481 123.779 100.266 123.953 100.001C115.301 95.2528 110.188 88.373 106.489 79.2969Z" fill="#9F0000"/>
<path d="M20.9054 64.3584C20.021 64.3584 19.1526 64.3584 18.2681 64.5037C18.3646 65.4889 18.5093 67.007 18.7827 68.8965C20.021 68.7673 21.2753 68.6704 22.5296 68.5735C22.2723 66.8132 22.1115 65.3435 22.015 64.423C21.5969 64.423 21.227 64.3907 20.9054 64.3584Z" fill="#9F0000"/>
<path d="M75.0344 92.7656L68.1678 99.4193L57.6829 98.4988C57.2884 99.6859 57.0399 100.917 56.9432 102.165L68.6824 103.198H68.8432C69.3274 103.201 69.794 103.016 70.1458 102.682L77.736 95.3334C76.9938 94.3238 76.0791 93.4544 75.0344 92.7656Z" fill="#9F0000"/>
<path d="M59.8538 84.0287C58.7925 81.4286 57.8598 78.7639 56.9271 76.1153C55.6728 72.5624 54.1772 69.0417 52.8586 65.4888C52.7922 65.3049 52.6883 65.1369 52.5535 64.9956C52.4187 64.8543 52.2561 64.7428 52.0759 64.6683C51.8958 64.5938 51.7021 64.5579 51.5074 64.563C51.3126 64.568 51.121 64.6138 50.9449 64.6975C50.797 64.7624 50.6568 64.8436 50.5268 64.9397L51.4595 67.2814L50.6715 68.3473C49.7172 67.3283 48.7023 66.3683 47.6322 65.4727C47.271 66.7015 46.6937 67.8556 45.9276 68.8802C46.7918 69.6585 47.6131 70.4833 48.388 71.3512L46.7799 73.5152C47.8574 74.1698 48.8148 75.0056 49.6102 75.9861L53.0676 71.4804L59.7091 88.9221C59.8476 89.2811 60.0903 89.59 60.4057 89.8088C60.7211 90.0277 61.0947 90.1464 61.478 90.1495H62.0891C61.5589 88.0364 60.8097 85.985 59.8538 84.0287Z" fill="#9F0000"/>
<path d="M34.9764 97.9823C34.9763 98.8762 34.7114 99.7499 34.2155 100.492C33.7196 101.234 33.0151 101.812 32.1915 102.151C31.3679 102.49 30.4625 102.575 29.5905 102.396C28.7185 102.217 27.9192 101.781 27.2944 101.145C26.6696 100.508 26.2474 99.6993 26.0816 98.8211C25.9158 97.9428 26.0139 97.0349 26.3634 96.2128C26.7129 95.3907 27.2979 94.6915 28.0441 94.2043C28.7904 93.717 29.6641 93.4637 30.5541 93.4765C31.7328 93.4935 32.8575 93.9757 33.6851 94.8189C34.5126 95.662 34.9765 96.7984 34.9764 97.9823Z" fill="#A6B3BD"/>
<path d="M30.4897 100.712C31.9907 100.712 33.2074 99.4896 33.2074 97.9822C33.2074 96.4749 31.9907 95.2529 30.4897 95.2529C28.9888 95.2529 27.772 96.4749 27.772 97.9822C27.772 99.4896 28.9888 100.712 30.4897 100.712Z" fill="#7C8B96"/>
<path d="M30.4898 99.5324C31.3424 99.5324 32.0336 98.8383 32.0336 97.982C32.0336 97.1258 31.3424 96.4316 30.4898 96.4316C29.6372 96.4316 28.946 97.1258 28.946 97.982C28.946 98.8383 29.6372 99.5324 30.4898 99.5324Z" fill="black"/>
<path d="M94.2352 29.4911C94.2494 29.5821 94.2494 29.6747 94.2352 29.7657C94.3235 30.2602 94.2322 30.7702 93.9779 31.203C93.5625 31.7286 93.0038 32.1214 92.3698 32.3335C91.9338 32.584 91.4764 32.7948 91.0029 32.9633C89.3771 33.7424 87.6944 34.3957 85.9695 34.9174C85.4154 35.0268 84.9125 35.3162 84.5383 35.7411C84.4442 35.9189 84.3057 36.0692 84.1363 36.1771C84.0458 36.2202 83.947 36.2426 83.8468 36.2426C83.7467 36.2426 83.6478 36.2202 83.5574 36.1771C83.2186 35.9545 82.9058 35.6945 82.6247 35.4019C82.1989 34.9676 81.8747 34.4435 81.6759 33.8677C81.578 33.6162 81.5502 33.3426 81.5955 33.0764C81.6409 32.8915 81.7244 32.7184 81.8408 32.5681C81.9571 32.4179 82.1037 32.2939 82.2709 32.2043C82.5925 32.0105 83.0106 32.0751 83.3644 31.962C84.7404 31.302 86.063 30.5352 87.3204 29.6688C88.7238 28.9918 90.1885 28.451 91.6944 28.0538C92.1301 27.8467 92.6202 27.7845 93.0935 27.8761C93.4098 28.0187 93.6824 28.2436 93.8832 28.5276C94.0839 28.8115 94.2055 29.1442 94.2352 29.4911Z" fill="black"/>
<path d="M68.409 92.5718C66.6756 92.575 64.9821 93.0944 63.5426 94.0641C62.1031 95.0339 60.9823 96.4106 60.3219 98.0201C59.6615 99.6296 59.4912 101.4 59.8324 103.106C60.1737 104.813 61.0113 106.38 62.2392 107.609C63.4672 108.837 65.0303 109.673 66.731 110.009C68.4318 110.346 70.1936 110.168 71.7938 109.499C73.3941 108.83 74.7608 107.699 75.7212 106.25C76.6815 104.801 77.1924 103.098 77.1893 101.357C77.1893 100.201 76.9619 99.0558 76.5203 97.9878C76.0786 96.9198 75.4314 95.9498 74.6156 95.1336C73.7999 94.3174 72.8317 93.6709 71.7666 93.2313C70.7015 92.7917 69.5605 92.5676 68.409 92.5718ZM68.409 107.575C67.1845 107.575 65.9875 107.21 64.9693 106.527C63.9512 105.844 63.1576 104.873 62.689 103.737C62.2205 102.601 62.0978 101.35 62.3367 100.144C62.5756 98.9382 63.1653 97.8303 64.0311 96.9607C64.897 96.0912 66.0002 95.499 67.2011 95.2591C68.4021 95.0192 69.647 95.1423 70.7783 95.6129C71.9096 96.0835 72.8765 96.8805 73.5568 97.9029C74.2371 98.9254 74.6002 100.128 74.6002 101.357C74.6002 103.006 73.9479 104.588 72.7868 105.754C71.6258 106.92 70.051 107.575 68.409 107.575Z" fill="#E3E3E3"/>
<path d="M68.409 103.538C69.608 103.538 70.5799 102.562 70.5799 101.357C70.5799 100.153 69.608 99.1772 68.409 99.1772C67.21 99.1772 66.238 100.153 66.238 101.357C66.238 102.562 67.21 103.538 68.409 103.538Z" fill="#3B464E"/>
<path d="M73.2192 89.5872L71.474 89.0234L63.576 113.683L65.3212 114.247L73.2192 89.5872Z" fill="#3B464E"/>
<path d="M75.3078 86.3706H70.1297C69.1616 86.3706 68.3768 87.1587 68.3768 88.1309V88.2601C68.3768 89.2323 69.1616 90.0205 70.1297 90.0205H75.3078C76.2759 90.0205 77.0606 89.2323 77.0606 88.2601V88.1309C77.0606 87.1587 76.2759 86.3706 75.3078 86.3706Z" fill="black"/>
<path d="M67.1064 111.984H61.9283C60.9602 111.984 60.1755 112.772 60.1755 113.744V113.873C60.1755 114.846 60.9602 115.634 61.9283 115.634H67.1064C68.0745 115.634 68.8593 114.846 68.8593 113.873V113.744C68.8593 112.772 68.0745 111.984 67.1064 111.984Z" fill="black"/>
<path d="M68.409 102.52C69.0485 102.52 69.5668 102 69.5668 101.358C69.5668 100.715 69.0485 100.195 68.409 100.195C67.7695 100.195 67.2512 100.715 67.2512 101.358C67.2512 102 67.7695 102.52 68.409 102.52Z" fill="black"/>
</g>
<path d="M171.476 158.274L32.0971 162.212C28.9712 162.297 25.8597 161.76 22.9429 160.632C20.0262 159.505 17.3623 157.81 15.106 155.645C12.8496 153.48 11.0457 150.888 9.79888 148.021C8.55204 145.153 7.88713 142.066 7.84271 138.94C7.7983 135.813 8.37528 132.709 9.54016 129.807C10.7051 126.905 12.4346 124.263 14.6286 122.035C16.8225 119.807 19.4372 118.037 22.3207 116.827C25.2043 115.617 28.2993 114.992 31.4263 114.988H170.806C176.493 114.989 181.952 117.229 186.002 121.223C190.051 125.216 192.366 130.644 192.446 136.331C192.527 142.018 190.365 147.508 186.43 151.614C182.494 155.72 177.101 158.113 171.415 158.274H171.476Z" fill="url(#paint2_linear_492_630)"/>
<path fill-rule="evenodd" clip-rule="evenodd" d="M14.3345 130.268C15.3248 127.112 17.2065 124.311 19.7528 122.201C25.7113 117.392 37.1056 117.845 44.632 117.845L56.8277 118.29L44.7453 119.074C31.8963 119.814 23.2983 118.804 14.3519 130.268H14.3345Z" fill="#FEFEFE"/>
<path d="M53.7578 142.98L57.3086 129.938H61.9141L56.1602 147H53.1836L53.7578 142.98ZM50.5352 129.938L54.0859 142.98L54.6836 147H51.6719L45.9531 129.938H50.5352ZM74.9102 143.836V147H65.8164V143.836H74.9102ZM67.2812 129.938V147H63.168V129.938H67.2812ZM73.7383 136.711V139.77H65.8164V136.711H73.7383ZM74.9453 129.938V133.113H65.8164V129.938H74.9453ZM88.0938 136.711V139.875H79.3398V136.711H88.0938ZM80.7109 129.938V147H76.5977V129.938H80.7109ZM90.8594 129.938V147H86.7578V129.938H90.8594ZM97.8438 129.938V147H93.7422V129.938H97.8438ZM110.441 141.223H114.543C114.488 142.41 114.168 143.457 113.582 144.363C112.996 145.27 112.184 145.977 111.145 146.484C110.113 146.984 108.895 147.234 107.488 147.234C106.348 147.234 105.328 147.043 104.43 146.66C103.539 146.277 102.781 145.727 102.156 145.008C101.539 144.289 101.066 143.418 100.738 142.395C100.418 141.371 100.258 140.219 100.258 138.938V138.012C100.258 136.73 100.426 135.578 100.762 134.555C101.105 133.523 101.59 132.648 102.215 131.93C102.848 131.203 103.605 130.648 104.488 130.266C105.371 129.883 106.352 129.691 107.43 129.691C108.914 129.691 110.168 129.957 111.191 130.488C112.215 131.02 113.008 131.75 113.57 132.68C114.133 133.602 114.465 134.652 114.566 135.832H110.465C110.449 135.191 110.34 134.656 110.137 134.227C109.934 133.789 109.613 133.461 109.176 133.242C108.738 133.023 108.156 132.914 107.43 132.914C106.922 132.914 106.48 133.008 106.105 133.195C105.73 133.383 105.418 133.68 105.168 134.086C104.918 134.492 104.73 135.02 104.605 135.668C104.488 136.309 104.43 137.082 104.43 137.988V138.938C104.43 139.844 104.484 140.617 104.594 141.258C104.703 141.898 104.879 142.422 105.121 142.828C105.363 143.234 105.676 143.535 106.059 143.73C106.449 143.918 106.926 144.012 107.488 144.012C108.113 144.012 108.641 143.914 109.07 143.719C109.5 143.516 109.832 143.211 110.066 142.805C110.301 142.391 110.426 141.863 110.441 141.223ZM127.762 143.836V147H119.137V143.836H127.762ZM120.602 129.938V147H116.488V129.938H120.602ZM141.238 143.836V147H132.145V143.836H141.238ZM133.609 129.938V147H129.496V129.938H133.609ZM140.066 136.711V139.77H132.145V136.711H140.066ZM141.273 129.938V133.113H132.145V129.938H141.273ZM151.715 142.465C151.715 142.199 151.676 141.961 151.598 141.75C151.52 141.531 151.375 141.328 151.164 141.141C150.953 140.953 150.648 140.766 150.25 140.578C149.859 140.383 149.344 140.18 148.703 139.969C147.953 139.719 147.23 139.438 146.535 139.125C145.84 138.805 145.219 138.434 144.672 138.012C144.125 137.582 143.691 137.082 143.371 136.512C143.051 135.934 142.891 135.262 142.891 134.496C142.891 133.762 143.055 133.102 143.383 132.516C143.711 131.922 144.168 131.418 144.754 131.004C145.348 130.582 146.043 130.262 146.84 130.043C147.637 129.816 148.508 129.703 149.453 129.703C150.703 129.703 151.805 129.922 152.758 130.359C153.719 130.789 154.469 131.402 155.008 132.199C155.555 132.988 155.828 133.922 155.828 135H151.738C151.738 134.57 151.648 134.191 151.469 133.863C151.297 133.535 151.035 133.277 150.684 133.09C150.332 132.902 149.891 132.809 149.359 132.809C148.844 132.809 148.41 132.887 148.059 133.043C147.707 133.199 147.441 133.41 147.262 133.676C147.082 133.934 146.992 134.219 146.992 134.531C146.992 134.789 147.062 135.023 147.203 135.234C147.352 135.438 147.559 135.629 147.824 135.809C148.098 135.988 148.426 136.16 148.809 136.324C149.199 136.488 149.637 136.648 150.121 136.805C151.027 137.094 151.832 137.418 152.535 137.777C153.246 138.129 153.844 138.531 154.328 138.984C154.82 139.43 155.191 139.938 155.441 140.508C155.699 141.078 155.828 141.723 155.828 142.441C155.828 143.207 155.68 143.887 155.383 144.48C155.086 145.074 154.66 145.578 154.105 145.992C153.551 146.398 152.887 146.707 152.113 146.918C151.34 147.129 150.477 147.234 149.523 147.234C148.648 147.234 147.785 147.125 146.934 146.906C146.09 146.68 145.324 146.336 144.637 145.875C143.949 145.406 143.398 144.809 142.984 144.082C142.578 143.348 142.375 142.477 142.375 141.469H146.5C146.5 141.969 146.566 142.391 146.699 142.734C146.832 143.078 147.027 143.355 147.285 143.566C147.543 143.77 147.859 143.918 148.234 144.012C148.609 144.098 149.039 144.141 149.523 144.141C150.047 144.141 150.469 144.066 150.789 143.918C151.109 143.762 151.344 143.559 151.492 143.309C151.641 143.051 151.715 142.77 151.715 142.465Z" fill="#7B3B00"/>
<defs>
<linearGradient id="paint0_linear_492_630" x1="50.4033" y1="2.38657" x2="141.34" y2="158.413" gradientUnits="userSpaceOnUse">
<stop stop-color="#EC6BCF"/>
<stop offset="0.93" stop-color="#C0199B"/>
</linearGradient>
<linearGradient id="paint1_linear_492_630" x1="3140.59" y1="9446.83" x2="24956.1" y2="9446.83" gradientUnits="userSpaceOnUse">
<stop stop-color="#EC6BCF"/>
<stop offset="0.93" stop-color="#C0199B"/>
</linearGradient>
<linearGradient id="paint2_linear_492_630" x1="100.175" y1="114.988" x2="100.175" y2="162.9" gradientUnits="userSpaceOnUse">
<stop stop-color="#F6E001"/>
<stop offset="1" stop-color="#E85D0F"/>
</linearGradient>
<clipPath id="clip0_492_630">
<rect width="153.317" height="101.921" fill="white" transform="translate(0 27.876)"/>
</clipPath>
</defs>
</svg>
