<svg width="196" height="163" viewBox="0 0 196 163" fill="none" xmlns="http://www.w3.org/2000/svg">
<path d="M95.8231 160.286C140.085 160.286 175.966 124.405 175.966 80.1431C175.966 35.8813 140.085 0 95.8231 0C51.5613 0 15.6801 35.8813 15.6801 80.1431C15.6801 124.405 51.5613 160.286 95.8231 160.286Z" fill="#FF7EE3"/>
<path d="M95.4925 152.925C135.905 152.925 168.667 120.164 168.667 79.7513C168.667 39.3383 135.905 6.57715 95.4925 6.57715C55.0795 6.57715 22.3184 39.3383 22.3184 79.7513C22.3184 120.164 55.0795 152.925 95.4925 152.925Z" fill="url(#paint0_linear_584_622)"/>
<path d="M144.023 25.0098L22.3184 79.9426C22.3184 81.9375 22.4316 83.9062 22.5884 85.8575L148.291 29.1215C146.923 27.6928 145.477 26.3164 144.023 25.0098ZM151.41 32.5798L23.1198 90.5964C23.3985 92.478 23.7644 94.3248 24.1826 96.1542L154.851 37.0574C153.779 35.5068 152.629 34.0172 151.41 32.5798ZM147.22 78.5837L44.3316 125.023C46.1958 126.243 48.1122 127.393 50.0897 128.455L149.458 83.6274C149.807 83.4922 150.125 83.2872 150.392 83.0251C150.659 82.7629 150.87 82.449 151.011 82.1027C151.153 81.7563 151.222 81.3847 151.216 81.0106C151.209 80.6365 151.126 80.2676 150.972 79.9267C150.817 79.5857 150.595 79.2798 150.319 79.0275C150.043 78.7753 149.718 78.582 149.364 78.4596C149.01 78.3372 148.636 78.2881 148.262 78.3154C147.889 78.3428 147.525 78.4459 147.193 78.6185L147.22 78.5837ZM157.42 40.7596L25.3411 100.571C25.8638 102.313 26.4562 104.055 27.0834 105.797L160.173 45.5421C159.311 43.9044 158.379 42.3102 157.394 40.7596H157.42ZM151.323 65.7434L35.2719 118.106C36.7964 119.465 38.3818 120.72 40.0108 122L153.518 70.7523C154.182 70.4531 154.7 69.9023 154.958 69.2211C155.216 68.5398 155.193 67.784 154.894 67.1197C154.595 66.4555 154.044 65.9373 153.363 65.6792C152.682 65.4211 151.926 65.4442 151.262 65.7434H151.323ZM153.64 53.6348L28.8605 109.996C29.4412 111.233 30.0365 112.453 30.6463 113.655C30.9947 114.021 31.3345 114.395 31.6916 114.753L155.844 58.6524C156.177 58.5063 156.478 58.2955 156.73 58.0322C156.981 57.7689 157.178 57.4584 157.308 57.1186C157.439 56.7788 157.501 56.4164 157.49 56.0526C157.48 55.6887 157.397 55.3305 157.248 54.9987C157.098 54.6669 156.884 54.3681 156.618 54.1196C156.352 53.8711 156.039 53.6778 155.698 53.551C155.357 53.4241 154.994 53.3662 154.63 53.3806C154.266 53.395 153.909 53.4814 153.579 53.6348H153.64Z" fill="url(#paint1_linear_584_622)"/>
<path d="M184.787 64.4129C181.875 62.4332 178.777 60.7438 175.536 59.3692C173.227 58.2803 172.696 57.4701 172.365 55.0136C172.363 54.0555 172.201 53.1045 171.886 52.1998C171.531 51.4227 170.987 50.7469 170.304 50.2341C169.62 49.7213 168.82 49.3878 167.974 49.2642C167.13 49.1424 166.269 49.2291 165.465 49.5168C164.661 49.8087 163.943 50.2968 163.375 50.9367C159.498 46.9731 156.536 42.2255 152.05 38.8368C147.36 35.3377 141.98 32.8761 136.265 31.6153C124.07 28.9061 111.003 31.3104 99.8265 36.4238C89.2946 41.1976 82.0905 51.6946 78.545 62.4094C76.524 68.5072 73.3183 82.0793 78.9457 87.7241C81.2368 91.2086 85.4617 92.2801 89.4601 93.0205C96.673 94.3737 103.903 95.5352 111.151 96.505C118.399 97.472 125.455 98.4215 132.615 99.3013C139.776 100.181 146.85 101.392 154.001 101.566C160.371 101.615 166.68 100.34 172.53 97.8204C177.757 95.7123 183.297 93.4648 187.513 89.6667C195.972 81.9921 193.359 70.7547 184.787 64.4129Z" fill="#07D3D3"/>
<path d="M166.903 94.2495C165.535 88.4827 162.913 82.0538 158.653 77.8376C154.716 73.9524 148.844 72.4454 145.186 68.3162C142.973 65.79 142.146 62.4972 140.438 59.7444C140.176 59.77 139.913 59.7087 139.689 59.5702C139.462 59.4332 139.282 59.2294 139.175 58.9865C138.853 58.3593 138.522 57.7234 138.182 57.1485H138.121C137.976 57.0462 137.857 56.9121 137.773 56.7565C137.685 56.6041 137.632 56.4348 137.616 56.2599C132.563 47.9146 125.141 41.8168 115.272 39.848C109.725 38.7357 104 38.8696 98.5111 40.24C95.7478 40.8619 93.0476 41.7367 90.4446 42.8534C84.9705 48.3263 80.8897 55.033 78.5451 62.41C76.5241 68.5079 73.3183 82.0799 78.9458 87.7248C81.2368 91.2093 85.4618 92.2808 89.4602 93.0212C96.6731 94.3744 103.903 95.5359 111.151 96.5057C118.399 97.4726 125.455 98.4222 132.615 99.302C139.776 100.182 146.85 101.393 154.002 101.567C158.715 101.636 163.407 100.923 167.887 99.4588C167.65 97.7064 167.322 95.9676 166.903 94.2495Z" fill="#00BFB5"/>
<path d="M159.237 96.2441C148.417 97.2023 137.258 95.2161 126.578 93.7178C115.254 92.0627 103.755 90.1201 92.4915 87.7245C87.6872 86.76 82.9959 85.3004 78.4925 83.3689C77.7869 83.0553 77.0116 82.7243 76.2451 82.3584C76.615 84.3757 77.5517 86.246 78.9455 87.7506C81.2366 91.2351 85.4615 92.3066 89.46 93.047C96.6728 94.4002 103.903 95.5617 111.151 96.5315C118.399 97.4985 125.455 98.448 132.615 99.3278C139.776 100.208 146.849 101.419 154.001 101.593C158.714 101.662 163.407 100.949 167.887 99.4846C167.669 97.8208 167.356 96.2266 167.085 95.0245C164.498 95.5961 161.876 96.0035 159.237 96.2441Z" fill="#00A39F"/>
<path d="M180.545 85.0849C175.701 86.8272 170.588 87.7593 165.779 89.6409C163.375 90.5904 157.991 92.8205 157.443 95.7387C157.025 98.0123 159.185 99.8156 161.232 101.079C165.119 100.426 168.919 99.3297 172.557 97.812C177.783 95.7039 183.324 93.4564 187.54 89.6583C189.299 88.1919 190.684 86.3287 191.583 84.222C192.481 82.1153 192.866 79.8255 192.706 77.541C189.245 80.9056 185.096 83.4795 180.545 85.0849Z" fill="#00A39F"/>
<path d="M137.293 105.756C143.574 105.756 148.67 99.1969 148.67 91.0954C148.67 82.994 143.574 76.4258 137.293 76.4258C131.013 76.4258 125.969 82.994 125.969 91.0954C125.969 99.1969 131.013 105.756 137.293 105.756Z" fill="#456867"/>
<path d="M139.254 79.7448C146.083 82.9244 147.32 92.0799 146.362 99.9374C147.895 97.2472 148.691 94.2004 148.67 91.1042C148.67 83.0028 143.618 76.4346 137.346 76.4346C135.492 76.5178 133.691 77.082 132.121 78.0717C130.551 79.0614 129.265 80.4425 128.391 82.0794C130.908 79.0218 134.497 77.5496 139.254 79.7448Z" fill="#2E4746"/>
<path d="M137.293 98.1339C140.02 98.1339 142.232 94.8323 142.232 90.7642C142.232 86.6961 140.02 83.3945 137.293 83.3945C134.566 83.3945 132.363 86.6874 132.363 90.7642C132.363 94.8411 134.593 98.1339 137.293 98.1339Z" fill="#95BAB8"/>
<path d="M134.907 94.9889C133.457 92.8944 132.712 90.3922 132.781 87.8457C132.497 88.8129 132.359 89.817 132.372 90.8249C132.372 94.8931 134.567 98.1946 137.294 98.1946C138.213 98.1525 139.086 97.778 139.75 97.1406C138.825 97.2367 137.89 97.0864 137.041 96.705C136.194 96.3265 135.459 95.7353 134.907 94.9889Z" fill="#CCE5E3"/>
<path d="M137.294 93.0903C138.165 93.0903 138.853 92.0449 138.853 90.7644C138.853 89.4838 138.156 88.4385 137.294 88.4385C136.432 88.4385 135.743 89.4838 135.743 90.7644C135.743 92.0449 136.44 93.0903 137.294 93.0903Z" fill="#2E4746"/>
<path d="M136.449 61.1725C135.604 58.0438 134.134 55.1187 132.128 52.5735C130.122 50.0284 127.621 47.9159 124.776 46.3635C117.032 42.5044 112.728 50.0745 112.955 56.965C113.042 59.8746 113.181 63.481 115.568 65.5368C117.955 67.5927 121.962 67.8889 124.95 68.2896C130.429 69.0736 138.67 69.0736 136.449 61.1725Z" fill="#80D0E2"/>
<path d="M125.116 51.834C122.603 52.1734 120.162 52.9146 117.885 54.0292C116.2 54.5784 114.553 55.239 112.955 56.0067V56.9649C113.042 59.8744 113.181 63.4809 115.568 65.5367C117.955 67.5926 121.962 67.8887 124.95 68.2895C128.922 68.8383 134.349 68.9864 136.179 66.0071C134.593 59.7351 131.98 51.4681 125.116 51.834Z" fill="#5596A4"/>
<path d="M123.373 61.294C121.637 61.006 120.015 60.2408 118.689 59.0839C117.363 57.9271 116.385 56.4241 115.864 54.7432C114.867 55.0976 113.895 55.5196 112.955 56.0063V56.9906C113.042 59.9002 113.181 63.5066 115.568 65.5625C117.955 67.6183 121.962 67.9145 124.95 68.3152C128.922 68.864 134.349 69.0121 136.179 66.0329C135.649 63.8875 134.982 61.778 134.184 59.7173C130.708 61.0065 127.145 61.9909 123.373 61.294Z" fill="#3E8193"/>
<path d="M120.708 46.6419C126.692 46.3806 132.146 53.8287 134.288 58.6373C135.314 60.9832 135.947 63.4818 136.161 66.0331C136.559 65.284 136.791 64.458 136.841 63.6114C136.891 62.7681 136.757 61.924 136.449 61.1374C135.603 58.0091 134.133 55.0844 132.127 52.5393C130.12 49.9943 127.62 47.8815 124.776 46.3283C117.032 42.4693 112.728 50.0393 112.955 56.9299C113.042 59.8394 113.181 63.4458 115.568 65.5017C116.055 65.9086 116.594 66.2485 117.171 66.5122C113.033 59.6303 112.38 47.0339 120.708 46.6419Z" fill="#009B8F"/>
<path d="M97.335 99.8501C102.841 99.04 106.447 92.6198 105.393 85.5202C104.339 78.4205 99.0337 73.3245 93.5282 74.1259C88.0228 74.9273 84.4163 81.3562 85.4617 88.4646C86.507 95.5729 91.8296 100.669 97.335 99.8501Z" fill="#456867"/>
<path d="M95.6631 76.7913C102.075 78.6904 104.374 86.5566 104.496 93.5778C105.508 91.0166 105.809 88.2295 105.367 85.5113C104.322 78.4203 99.0518 73.3156 93.5027 74.1867C91.8877 74.4968 90.3813 75.2222 89.1319 76.2914C87.8824 77.3607 86.9329 78.7369 86.377 80.2845C87.2363 78.6782 88.6504 77.4391 90.3556 76.7981C92.0608 76.157 93.9409 76.1577 95.6457 76.8L95.6631 76.7913Z" fill="#2E4746"/>
<path d="M96.3425 93.1687C98.7294 92.8116 100.236 89.632 99.7138 86.0691C99.1911 82.5062 96.8216 79.9016 94.4348 80.25C92.0479 80.5985 90.5409 83.7345 91.0722 87.3496C91.6036 90.9648 93.9557 93.5172 96.3425 93.1687Z" fill="#95BAB8"/>
<path d="M93.8336 90.7298C92.2936 89.0832 91.3147 86.9912 91.0373 84.7539C90.9067 85.6201 90.9067 86.501 91.0373 87.3673C91.5513 90.9389 93.9207 93.5435 96.264 93.1864C97.0549 93.062 97.7717 92.6493 98.2763 92.0278C97.4811 92.223 96.6488 92.2084 95.8609 91.9854C95.0729 91.7625 94.3564 91.3389 93.7813 90.7559L93.8336 90.7298Z" fill="#CCE5E3"/>
<path d="M95.6887 88.7436C96.4466 88.6304 96.917 87.6286 96.7515 86.5049C96.586 85.3811 95.8804 84.5623 95.0877 84.6755C94.2949 84.7887 93.8594 85.7818 94.0249 86.9143C94.1904 88.0467 94.9396 88.8569 95.6887 88.7436Z" fill="#2E4746"/>
<path d="M135.691 72.1576C139.306 72.1576 142.233 70.0146 142.233 67.3751C142.233 64.7357 139.306 62.584 135.691 62.584C132.075 62.584 129.157 64.7269 129.157 67.3751C129.157 70.0234 132.084 72.1576 135.691 72.1576Z" fill="#00A397"/>
<path d="M142.155 66.6609C141.676 64.3176 138.975 62.584 135.761 62.584C133.814 62.5393 131.924 63.2441 130.482 64.5528C132.137 68.2028 138.278 67.532 142.155 66.6609Z" fill="#07D3D3"/>
<path d="M108.678 53.5502C108.678 50.6406 108.556 46.8687 106.151 44.7867C105.539 44.2122 104.778 43.8205 103.954 43.6558C103.131 43.4911 102.277 43.56 101.491 43.8546C101.404 43.7918 101.302 43.7527 101.195 43.7413C101.088 43.7195 100.979 43.7195 100.872 43.7413C94.6875 45.893 89.1994 51.1894 88.1715 57.9058C87.0129 65.4845 94.9749 66.1379 100.637 66.2511C103.155 66.2511 106.038 66.2511 107.415 63.7336C108.895 60.9982 108.678 56.5991 108.678 53.5502Z" fill="#80D0E2"/>
<path d="M108.529 50.249C107.196 50.7107 105.916 51.1201 104.566 51.5121C101.877 52.2078 99.2541 53.1346 96.7255 54.2823C94.151 55.4387 91.9882 57.3494 90.5232 59.7617C89.9717 60.7195 89.4885 61.7151 89.0771 62.7409C91.22 65.8682 96.56 66.2254 100.689 66.2951C103.215 66.2951 106.09 66.2951 107.466 63.7775C108.965 60.9725 108.73 56.5734 108.73 53.5244C108.72 52.4299 108.653 51.3366 108.529 50.249Z" fill="#5596A4"/>
<path d="M99.8266 60.8153C98.745 60.1609 97.8461 59.244 97.2132 58.1496C96.6058 57.053 96.2796 55.8229 96.2637 54.5693C93.885 55.7164 91.8928 57.5329 90.5317 59.7961C89.9787 60.741 89.4954 61.7251 89.0857 62.7404C91.2286 65.8678 96.5686 66.2249 100.698 66.2946C103.224 66.2946 106.099 66.2946 107.475 63.7684C108.056 62.5827 108.419 61.302 108.547 59.9877C105.576 61.486 102.492 62.1481 99.8266 60.8153Z" fill="#3E8193"/>
<path d="M90.1663 60.2754C88.9032 55.6323 92.9974 50.6931 96.2641 47.9664C99.0343 45.6231 102.867 43.7676 106.282 44.9262C106.24 44.8755 106.193 44.8289 106.143 44.7869C105.527 44.2061 104.76 43.8106 103.93 43.6457C103.099 43.4781 102.238 43.5507 101.447 43.8548C101.356 43.7932 101.252 43.7544 101.142 43.7415C101.039 43.7196 100.932 43.7196 100.829 43.7415C94.6351 45.8932 89.1471 51.1896 88.1279 57.9059C87.1435 64.3696 92.71 65.746 97.8583 66.1554C94.2867 65.3279 91.081 63.7599 90.1663 60.2754Z" fill="#009B8F"/>
<path d="M170.779 89.7364C172.914 89.7364 174.656 87.7154 174.656 85.2066C174.656 82.6978 172.914 80.6768 170.779 80.6768C168.645 80.6768 166.903 82.7065 166.903 85.2066C166.903 87.7067 168.636 89.7364 170.779 89.7364Z" fill="#00A39F"/>
<path d="M171.546 88.9698C173.689 88.9698 175.422 86.9401 175.422 84.44C175.422 81.9399 173.68 79.9102 171.546 79.9102C169.412 79.9102 167.669 81.9312 167.669 84.44C167.669 86.9488 169.438 88.9698 171.546 88.9698Z" fill="#EAE242"/>
<path d="M171.999 81.2688C172.887 82.0127 173.573 82.9684 173.994 84.0477C174.422 85.1227 174.569 86.2889 174.421 87.4363C175.072 86.5598 175.423 85.4967 175.423 84.4048C175.505 83.2912 175.143 82.1902 174.417 81.3418C173.691 80.4934 172.659 79.9662 171.546 79.875C171.053 79.874 170.565 79.9811 170.118 80.1886C170.797 80.45 171.431 80.8143 171.999 81.2688Z" fill="#C1B625"/>
<path d="M186.216 80.938C188.037 80.938 189.509 79.1958 189.509 77.0877C189.509 74.9795 188.037 73.2373 186.216 73.2373C184.396 73.2373 182.923 74.9795 182.923 77.0877C182.923 79.1958 184.396 80.938 186.216 80.938Z" fill="#00BFB5"/>
<path d="M186.983 80.1714C188.803 80.1714 190.284 78.4292 190.284 76.3211C190.284 74.2129 188.803 72.4707 186.983 72.4707C185.162 72.4707 183.69 74.2129 183.69 76.3211C183.69 78.4292 185.162 80.1714 186.983 80.1714Z" fill="#EAE242"/>
<path d="M186.982 72.4711C186.545 72.4637 186.112 72.5592 185.719 72.7499L185.902 72.8631C188.262 74.6053 188.515 77.2797 188.123 79.893C188.777 79.5597 189.321 79.0457 189.691 78.4121C190.058 77.7779 190.239 77.0535 190.214 76.3215C190.289 75.3838 189.992 74.4542 189.387 73.7337C188.782 73.0132 187.918 72.5596 186.982 72.4711Z" fill="#C1B625"/>
<path d="M162.896 57.0082C161.955 51.9557 158.026 45.2742 153.558 42.5389C150.334 40.5789 146.345 41.2758 143.017 42.5389C140.491 43.471 135.177 45.3265 134.306 48.2447C133.713 50.318 135.874 52.6787 137.268 54.9524C139.01 57.679 140.107 60.2923 141.423 62.1043C141.641 62.3917 141.841 62.6792 142.033 62.9754C143.827 65.7891 144.559 66.7648 147.634 65.0748C152.599 62.4092 156.789 59.5083 162.33 57.9752C162.428 57.9466 162.519 57.8988 162.598 57.8344C162.678 57.7701 162.743 57.6906 162.791 57.6006C162.847 57.5136 162.885 57.4165 162.903 57.3148C162.921 57.2132 162.918 57.109 162.896 57.0082Z" fill="#80D0E2"/>
<path d="M162.896 57.0082C162.513 55.1139 161.878 53.2797 161.006 51.555C160.597 52.6222 159.81 53.5021 158.795 54.0273C157.78 54.5525 156.608 54.6864 155.5 54.4036C150.927 53.5324 148.531 48.8545 143.531 48.9416C140.831 48.9416 137.912 50.2919 135.133 51.555C135.778 52.67 136.64 53.7938 137.32 54.9001C139.01 57.6267 140.16 60.2401 141.475 62.0607C141.693 62.3482 141.893 62.6356 142.076 62.9318C143.871 65.7455 144.603 66.7212 147.686 65.0225C152.643 62.4092 156.833 59.4561 162.373 57.9316C162.568 57.871 162.73 57.7365 162.826 57.557C162.917 57.3891 162.942 57.1934 162.896 57.0082Z" fill="#3E8193"/>
<path d="M162.896 57.0082C161.955 51.9557 158.026 45.2742 153.558 42.5389C150.334 40.5789 146.345 41.2758 143.017 42.5389C140.918 43.3055 136.919 44.7341 135.099 46.8945C140.909 43.2532 148.671 40.0998 153.897 44.2811C157.687 47.3562 160.361 52.853 161.311 58.2975C161.65 58.1842 161.99 58.071 162.356 57.9664C162.454 57.9379 162.545 57.8901 162.625 57.8257C162.704 57.7614 162.769 57.6819 162.818 57.5919C162.919 57.4149 162.947 57.2056 162.896 57.0082Z" fill="#009B8F"/>
<path d="M193.829 78.1157C193.75 77.9868 193.635 77.8838 193.498 77.8195C193.358 77.7481 193.2 77.7206 193.045 77.7408C192.889 77.7611 192.744 77.828 192.627 77.9327C192.511 78.0313 192.426 78.1614 192.383 78.3073C191.686 80.0985 190.63 81.7287 189.282 83.0985C185.047 85.7348 180.522 87.8745 175.797 89.4751C173.088 90.3985 169.917 90.7382 167.199 91.9404C167.123 91.8729 167.029 91.8278 166.929 91.8097C166.829 91.7835 166.724 91.7835 166.624 91.8097C164.272 92.254 157.416 94.7889 159.882 98.3518C160.979 99.7892 163.235 99.6672 164.769 99.6672C168.128 99.6313 171.472 99.2074 174.734 98.4041C181.825 96.7751 201.843 88.5169 193.829 78.1157Z" fill="#CCE5E3"/>
<path d="M192.209 86.0687C188.008 90.357 182.484 93.1037 176.529 93.8652C173.405 94.2845 170.248 94.3954 167.103 94.1963C165.473 94.2859 163.843 94.0276 162.321 93.4384C160.213 94.6144 158.531 96.3044 159.978 98.3515C161.023 99.7888 163.279 99.6669 164.812 99.6669C168.174 99.6305 171.521 99.2066 174.787 98.4038C181.093 96.8706 197.871 90.0671 195.528 81.1904C194.678 82.9767 193.558 84.6219 192.209 86.0687Z" fill="#A5C4C1"/>
<path d="M171.991 93.3516C170.981 93.4039 169.969 93.4039 168.959 93.3516C168.754 93.3516 168.557 93.4333 168.411 93.5787C168.266 93.7241 168.184 93.9213 168.184 94.1269C168.184 94.3325 168.266 94.5297 168.411 94.6751C168.557 94.8205 168.754 94.9022 168.959 94.9022C175.335 95.1885 181.651 93.5625 187.096 90.233C187.237 90.1554 187.347 90.0327 187.41 89.8845C187.472 89.739 187.487 89.5775 187.453 89.4229C182.833 92.3072 177.428 93.6804 171.991 93.3516Z" fill="white"/>
<path d="M170.901 53.6463C170.865 53.0395 170.705 52.4466 170.431 51.904C170.155 51.3506 169.769 50.8588 169.298 50.458C169.098 50.3218 168.871 50.229 168.633 50.1855C168.394 50.142 168.149 50.1488 167.913 50.2053C167.678 50.255 167.456 50.3529 167.26 50.4928C167.065 50.637 166.899 50.8174 166.772 51.0242C166.682 51.2284 166.626 51.4462 166.607 51.6688C166.497 51.672 166.389 51.7019 166.293 51.7559C166.196 51.8092 166.113 51.8836 166.049 51.9737C165.986 52.066 165.942 52.1695 165.918 52.2786C165.893 52.3845 165.893 52.495 165.918 52.6009C166.441 54.4388 167.598 56.0317 169.185 57.0959C169.333 57.1818 169.503 57.2184 169.673 57.2004C169.847 57.1807 170.009 57.1042 170.135 56.9827C170.491 56.5193 170.744 55.9844 170.875 55.4146C171.018 54.8349 171.027 54.23 170.901 53.6463Z" fill="#34E8E3"/>
<path d="M137.773 40.4926C140.869 39.0772 144.259 38.4231 147.66 38.5849C147.643 38.4766 147.605 38.3729 147.547 38.28C147.481 38.1895 147.398 38.1126 147.303 38.0535C139.228 32.7245 129.371 30.8107 119.888 32.7309C119.773 32.7478 119.665 32.796 119.575 32.8703C119.484 32.9419 119.418 33.039 119.383 33.1491H119.218C119.015 33.1513 118.821 33.2328 118.678 33.3761C118.535 33.5194 118.453 33.713 118.451 33.9157C118.45 34.0176 118.47 34.1186 118.509 34.2129C118.548 34.3071 118.605 34.3926 118.678 34.4645C118.822 34.6069 119.015 34.6881 119.218 34.691C125.408 34.8543 131.454 36.59 136.788 39.7347C137.082 40.0286 137.413 40.2834 137.773 40.4926Z" fill="#34E8E3"/>
<path d="M113.033 42.1386C108.678 57.5662 109.497 73.6993 110.42 89.5014C110.42 90.0067 111.23 90.0067 111.204 89.5014C110.333 73.7603 109.462 57.6968 113.817 42.3477C113.856 42.2528 113.856 42.1465 113.817 42.0515C113.765 41.961 113.681 41.8928 113.582 41.8599C113.484 41.8254 113.376 41.8254 113.277 41.8599C113.217 41.8833 113.164 41.9208 113.121 41.9694C113.079 42.0179 113.049 42.076 113.033 42.1386Z" fill="#1FA093"/>
<path d="M120.656 72.4188C120.272 71.8439 119.462 71.7655 118.844 71.6348C117.58 71.3561 116.317 71.1121 114.941 70.8944C114.895 70.8726 114.844 70.8613 114.793 70.8613C114.742 70.8613 114.691 70.8726 114.645 70.8944C114.035 70.8944 113.53 71.2428 113.774 72.0442C113.922 72.6018 114.593 72.8282 115.037 73.0112C116.155 73.4377 117.328 73.7017 118.521 73.7952C118.736 73.8126 118.951 73.8126 119.166 73.7952H119.253C119.307 73.8082 119.364 73.8082 119.419 73.7952C119.475 73.7797 119.529 73.7531 119.575 73.7168C120.368 73.7691 121.239 73.4293 120.656 72.4188Z" fill="#1FA093"/>
<path d="M172.365 84.6149C172.345 84.3459 172.254 84.087 172.101 83.865C171.948 83.6429 171.738 83.4658 171.494 83.3518L171.284 83.2559C171.183 83.1577 171.056 83.0885 170.919 83.0556C170.785 83.0166 170.643 83.0166 170.509 83.0556C170.343 83.1017 170.203 83.2112 170.117 83.3605C169.936 83.4727 169.787 83.6284 169.682 83.8135C169.501 84.2357 169.479 84.7092 169.621 85.1463C169.772 85.5879 170.083 85.9574 170.492 86.1829C170.637 86.3402 170.82 86.4572 171.023 86.5226C171.137 86.581 171.262 86.6137 171.389 86.6185C171.517 86.6246 171.644 86.6038 171.764 86.5575C171.881 86.5093 171.988 86.4383 172.077 86.3486C172.167 86.2589 172.238 86.1522 172.286 86.0348C172.363 85.8488 172.41 85.6519 172.426 85.4512C172.491 85.1727 172.469 84.881 172.365 84.6149Z" fill="white"/>
<path d="M187.287 77.2181C187.263 77.1208 187.234 77.0248 187.2 76.9306C187.202 76.3633 187.015 75.8114 186.668 75.3626C186.633 75.3085 186.585 75.2636 186.529 75.232C186.471 75.1976 186.405 75.1795 186.337 75.1797C186.273 75.1807 186.21 75.1987 186.154 75.232C186.096 75.2613 186.048 75.3066 186.015 75.3626H185.91C185.832 75.3324 185.745 75.3324 185.667 75.3626C185.589 75.3921 185.525 75.4475 185.484 75.5194C185.357 75.7006 185.29 75.9168 185.292 76.1379C185.248 76.4062 185.248 76.6798 185.292 76.9481C185.282 77.0947 185.309 77.2415 185.37 77.3749C185.423 77.5135 185.51 77.6364 185.623 77.7321V77.8192C185.672 77.9565 185.73 78.0904 185.797 78.2199C185.839 78.2994 185.911 78.359 185.998 78.3854C186.036 78.4526 186.08 78.5167 186.128 78.5771C186.172 78.6142 186.222 78.6436 186.276 78.6642C186.334 78.6775 186.393 78.6775 186.451 78.6642C186.51 78.6538 186.567 78.6299 186.616 78.5945C186.664 78.5651 186.704 78.5229 186.729 78.4725C186.738 78.4382 186.738 78.4023 186.729 78.368C187.313 78.2635 187.365 77.6885 187.287 77.2181Z" fill="white"/>
<g clip-path="url(#clip0_584_622)">
<path d="M122.345 106.913C126.866 106.913 130.53 103.233 130.53 98.6929C130.53 94.153 126.866 90.4727 122.345 90.4727C117.824 90.4727 114.16 94.153 114.16 98.6929C114.16 103.233 117.824 106.913 122.345 106.913Z" fill="white"/>
<path d="M30.4898 106.202C35.0104 106.202 38.6751 102.522 38.6751 97.982C38.6751 93.442 35.0104 89.7617 30.4898 89.7617C25.9692 89.7617 22.3045 93.442 22.3045 97.982C22.3045 102.522 25.9692 106.202 30.4898 106.202Z" fill="white"/>
<path d="M122.345 102.94C124.681 102.94 126.574 101.038 126.574 98.6927C126.574 96.3469 124.681 94.4453 122.345 94.4453C120.009 94.4453 118.116 96.3469 118.116 98.6927C118.116 101.038 120.009 102.94 122.345 102.94Z" fill="#A6B3BD"/>
<path d="M122.345 70.0752C116.704 70.072 111.19 71.749 106.499 74.8941C101.807 78.0392 98.1505 82.5109 95.9905 87.7437C93.8305 92.9764 93.2645 98.735 94.3642 104.291C95.4638 109.847 98.1796 114.95 102.168 118.956C106.156 122.961 111.238 125.689 116.77 126.793C122.303 127.897 128.037 127.329 133.247 125.16C138.458 122.99 142.911 119.318 146.042 114.607C149.174 109.895 150.844 104.357 150.841 98.6926C150.841 94.9345 150.104 91.2132 148.672 87.7412C147.24 84.2692 145.141 81.1144 142.494 78.457C139.848 75.7997 136.707 73.6917 133.25 72.2536C129.793 70.8154 126.087 70.0752 122.345 70.0752ZM122.345 122.417C117.673 122.417 113.105 121.025 109.221 118.418C105.336 115.812 102.308 112.106 100.52 107.771C98.732 103.436 98.2642 98.6662 99.1757 94.0642C100.087 89.4622 102.337 85.235 105.641 81.9172C108.945 78.5993 113.154 76.3398 117.736 75.4244C122.319 74.509 127.069 74.9788 131.385 76.7745C135.702 78.5701 139.391 81.6108 141.987 85.5122C144.583 89.4136 145.968 94.0004 145.968 98.6926C145.968 104.985 143.479 111.019 139.049 115.468C134.619 119.917 128.61 122.417 122.345 122.417Z" fill="white"/>
<path d="M30.9722 70.0752C25.3331 70.0784 19.8216 71.7609 15.1346 74.9098C10.4477 78.0587 6.79574 82.5328 4.64069 87.7661C2.48564 92.9994 1.92425 98.7569 3.0275 104.311C4.13076 109.864 6.8491 114.965 10.8388 118.967C14.8285 122.969 19.9103 125.693 25.4417 126.795C30.9731 127.897 36.7055 127.327 41.9141 125.156C47.1228 122.986 51.5736 119.314 54.7039 114.603C57.8342 109.893 59.5033 104.356 59.5001 98.6926C59.5001 94.9318 58.762 91.2078 57.3279 87.7337C55.8938 84.2596 53.792 81.1034 51.1425 78.4456C48.493 75.7878 45.3479 73.6806 41.8869 72.2443C38.426 70.808 34.717 70.071 30.9722 70.0752ZM30.9722 122.417C26.3035 122.401 21.7441 120.996 17.8699 118.379C13.9957 115.763 10.9804 112.052 9.2047 107.716C7.42904 103.379 6.97268 98.6116 7.89325 94.015C8.81381 89.4183 11.07 85.1986 14.3769 81.8888C17.6839 78.5791 21.8932 76.3276 26.4735 75.4187C31.0537 74.5098 35.7994 74.9843 40.1113 76.7823C44.4232 78.5803 48.1078 81.621 50.7001 85.5207C53.2923 89.4203 54.6757 94.0039 54.6758 98.6926C54.6758 101.815 54.0621 104.906 52.8699 107.79C51.6777 110.674 49.9304 113.293 47.7283 115.497C45.5262 117.701 42.9125 119.446 40.0371 120.634C37.1617 121.821 34.0812 122.427 30.9722 122.417Z" fill="white"/>
<path d="M91.3728 98.6923C91.3728 104.844 93.1893 110.858 96.5926 115.973C99.9958 121.088 104.833 125.075 110.492 127.429C116.152 129.783 122.379 130.399 128.387 129.199C134.395 127.999 139.914 125.036 144.246 120.686C148.577 116.336 151.527 110.794 152.722 104.76C153.917 98.7268 153.304 92.4728 150.96 86.7892C148.615 81.1056 144.646 76.2477 139.552 72.8299C134.459 69.4121 128.471 67.5879 122.345 67.5879C114.131 67.5879 106.253 70.865 100.444 76.6982C94.6359 82.5314 91.3728 90.4429 91.3728 98.6923ZM96.3579 98.6923C96.3548 93.5299 97.8762 88.4826 100.73 84.1886C103.583 79.8947 107.641 76.5472 112.389 74.5694C117.137 72.5916 122.363 72.0725 127.405 73.0777C132.447 74.0828 137.079 76.5672 140.715 80.2164C144.351 83.8656 146.828 88.5158 147.832 93.5788C148.836 98.6417 148.322 103.89 146.355 108.66C144.389 113.429 141.058 117.506 136.784 120.375C132.51 123.243 127.485 124.774 122.345 124.774C115.456 124.774 108.848 122.027 103.975 117.136C99.102 112.245 96.3622 105.611 96.3579 98.6923Z" fill="black"/>
<path d="M0 98.6923C0 104.844 1.81649 110.858 5.21976 115.973C8.62302 121.088 13.4602 125.075 19.1196 127.429C24.7791 129.783 31.0065 130.399 37.0146 129.199C43.0226 127.999 48.5413 125.036 52.8728 120.686C57.2044 116.336 60.1542 110.794 61.3493 104.76C62.5443 98.7268 61.931 92.4728 59.5868 86.7892C57.2426 81.1056 53.2728 76.2477 48.1794 72.8299C43.0861 69.4121 37.0979 67.5879 30.9722 67.5879C22.7579 67.5879 14.88 70.865 9.07155 76.6982C3.26313 82.5314 0 90.4429 0 98.6923H0ZM4.98514 98.6923C4.98196 93.5299 6.50337 88.4826 9.35693 84.1886C12.2105 79.8947 16.268 76.5472 21.0162 74.5694C25.7645 72.5916 30.9901 72.0725 36.0322 73.0777C41.0742 74.0828 45.7062 76.5672 49.3421 80.2164C52.9781 83.8656 55.4547 88.5158 56.4587 93.5788C57.4627 98.6417 56.9491 103.89 54.9826 108.66C53.0162 113.429 49.6854 117.506 45.4115 120.375C41.1376 123.243 36.1126 124.774 30.9722 124.774C24.0828 124.774 17.4753 122.027 12.6023 117.136C7.7292 112.245 4.9894 105.611 4.98514 98.6923Z" fill="black"/>
<path d="M96.0202 52.7472C96.2533 52.7481 96.4829 52.6906 96.6882 52.5798C96.8935 52.469 97.068 52.3084 97.1958 52.1126C97.3236 51.9169 97.4007 51.6922 97.4201 51.4589C97.4395 51.2256 97.4005 50.9912 97.3067 50.7769C95.6986 47.0948 95.0232 44.527 95.2323 42.9281C95.3931 41.7492 95.9881 41.1355 97.1298 40.0535C97.9783 39.3147 98.7391 38.4802 99.3973 37.5664C99.8073 37.0265 100.081 36.395 100.196 35.7258C100.311 35.0566 100.263 34.3694 100.057 33.7228C98.9952 30.4928 94.1548 28.8779 93.6241 28.7002C93.4489 28.6423 93.264 28.6198 93.08 28.634C92.8961 28.6482 92.7167 28.6987 92.5523 28.7828C92.3879 28.8669 92.2417 28.9827 92.122 29.1238C92.0024 29.2648 91.9117 29.4282 91.8552 29.6046C91.7978 29.7795 91.7756 29.9641 91.7899 30.1477C91.8042 30.3314 91.8548 30.5103 91.9386 30.6741C92.0224 30.8379 92.1378 30.9833 92.2781 31.1019C92.4184 31.2205 92.5807 31.3099 92.7558 31.3649C94.0583 31.8171 96.9369 33.1898 97.4193 34.5949C97.4886 34.8257 97.4969 35.0707 97.4433 35.3057C97.3897 35.5408 97.2761 35.7577 97.1137 35.9353C96.5665 36.6888 95.9353 37.377 95.2323 37.9863C92.3537 40.6995 90.8743 42.9766 94.7498 51.8913C94.8576 52.1412 95.0347 52.3547 95.2599 52.5065C95.4852 52.6582 95.7491 52.7418 96.0202 52.7472Z" fill="white"/>
<path d="M92.7397 31.3483C93.6697 31.6831 94.564 32.1105 95.4092 32.6242C95.7552 32.2724 96.0197 31.8483 96.1837 31.3821C96.3477 30.9159 96.4072 30.4191 96.358 29.9271C95.4821 29.427 94.5615 29.0107 93.6081 28.6836C93.4328 28.6257 93.2479 28.6032 93.064 28.6174C92.88 28.6316 92.7007 28.6821 92.5363 28.7662C92.3719 28.8503 92.2256 28.9661 92.106 29.1072C91.9864 29.2482 91.8957 29.4116 91.8392 29.588C91.7818 29.7629 91.7596 29.9475 91.7739 30.1311C91.7882 30.3148 91.8387 30.4937 91.9225 30.6575C92.0063 30.8213 92.1217 30.9667 92.262 31.0853C92.4023 31.2039 92.5647 31.2933 92.7397 31.3483Z" fill="#63737C"/>
<path d="M53.3893 68.5578C53.5485 68.5625 53.7071 68.535 53.8556 68.477C54.0316 68.4126 54.1929 68.3133 54.3299 68.1851C54.467 68.0569 54.577 67.9024 54.6535 67.7307C54.73 67.559 54.7714 67.3736 54.7752 67.1856C54.779 66.9975 54.7452 66.8106 54.6758 66.6359C54.6758 66.5552 51.4595 57.3337 49.7389 52.7956C49.6744 52.6228 49.5768 52.4643 49.4514 52.3294C49.326 52.1945 49.1754 52.0857 49.0082 52.0092C48.8409 51.9327 48.6603 51.89 48.4767 51.8837C48.293 51.8773 48.1099 51.9073 47.9378 51.972C47.7657 52.0366 47.6079 52.1347 47.4736 52.2606C47.3392 52.3866 47.2308 52.5378 47.1547 52.7058C47.0785 52.8737 47.0361 53.0551 47.0297 53.2395C47.0233 53.424 47.0532 53.6079 47.1176 53.7807C48.7257 58.3027 51.942 67.4919 52.0385 67.5726C52.1283 67.8608 52.3082 68.1123 52.5515 68.2897C52.7948 68.4671 53.0886 68.5611 53.3893 68.5578Z" fill="#EAEAEA"/>
<path d="M48.8543 58.5604C49.7066 58.2051 50.575 57.8336 51.4434 57.5107C50.8323 55.7988 50.2373 54.1515 49.8353 52.8757C49.7052 52.5266 49.4424 52.2437 49.1046 52.0892C48.7668 51.9348 48.3818 51.9214 48.0342 52.052C47.6866 52.1827 47.4049 52.4466 47.2511 52.7858C47.0973 53.1251 47.084 53.5117 47.2141 53.8608L48.8543 58.5604Z" fill="#63737C"/>
<path d="M39.4469 53.0056C39.5231 53.6355 39.8093 54.2209 40.259 54.6666C40.7087 55.1123 41.2953 55.3921 41.9234 55.4604C42.5617 55.6016 43.2262 55.5666 43.8463 55.3591C44.4664 55.1515 45.0189 54.7791 45.4452 54.2814C45.5375 54.1745 45.602 54.0463 45.6329 53.9082C45.6637 53.77 45.66 53.6264 45.622 53.4901C45.547 53.3622 45.4331 53.2618 45.2971 53.2037C45.161 53.1456 45.01 53.1327 44.8662 53.1671C44.5829 53.2394 44.3119 53.3537 44.0622 53.5063C43.714 53.7044 43.3206 53.8086 42.9204 53.8086C42.5202 53.8086 42.1268 53.7044 41.7787 53.5063C41.429 53.2199 41.1785 52.8298 41.063 52.3918C40.9475 51.9538 40.9728 51.4903 41.1354 51.0676C41.2802 50.5508 41.5053 49.9695 40.9746 49.6303C40.7943 49.5309 40.5877 49.49 40.3833 49.5131C40.1789 49.5363 39.9866 49.6223 39.8329 49.7595C39.077 50.4862 39.2539 52.182 39.4469 53.0056Z" fill="#7C8B96"/>
<path d="M41.1515 52.6982C40.9751 52.1745 40.9751 51.607 41.1515 51.0833C41.2963 50.5665 41.5214 49.9851 40.9907 49.6459C40.8104 49.5466 40.6039 49.5056 40.3995 49.5288C40.1951 49.5519 40.0028 49.6379 39.849 49.7751C39.5903 50.0969 39.4068 50.4729 39.3122 50.8755C39.2175 51.278 39.2141 51.6967 39.3022 52.1007C39.9644 52.1088 40.6089 52.317 41.1515 52.6982Z" fill="#63737C"/>
<path d="M45.6221 53.4893C45.547 53.3614 45.4331 53.261 45.2971 53.2029C45.1611 53.1448 45.0101 53.132 44.8663 53.1663C44.583 53.2386 44.312 53.3529 44.0622 53.5055C43.7554 53.6745 43.4174 53.7788 43.069 53.8121C42.7206 53.8455 42.3691 53.8071 42.036 53.6993C42.3812 54.2604 42.6413 54.87 42.8079 55.508C43.3115 55.5183 43.8108 55.413 44.2678 55.2004C44.7248 54.9877 45.1274 54.6731 45.4452 54.2807C45.5375 54.1737 45.602 54.0455 45.6329 53.9074C45.6638 53.7693 45.6601 53.6256 45.6221 53.4893Z" fill="#63737C"/>
<path d="M57.3291 47.3365C52.5048 46.3029 47.391 49.4037 42.5506 48.257C41.0368 47.6753 39.452 47.3005 37.8388 47.1427C37.2896 47.1281 36.7534 47.3114 36.3272 47.6595C36.1197 47.8381 35.976 48.08 35.918 48.3481C35.8599 48.6163 35.8907 48.8962 36.0055 49.1453C36.2424 49.4736 36.5822 49.7124 36.9704 49.8235C38.9645 50.5826 41.3284 50.7925 42.7274 52.4075C43.5797 53.3765 43.9496 54.7492 44.9466 55.6375C45.5529 56.0578 46.2592 56.3092 46.9938 56.3659C47.7283 56.4227 48.4646 56.2828 49.1277 55.9605C50.4401 55.3017 51.6799 54.5059 52.8264 53.5864C53.9075 52.8221 55.125 52.2738 56.4125 51.9715C57.0396 51.8423 57.6829 51.81 58.31 51.6485C58.9497 51.533 59.5232 51.1817 59.9181 50.6633C61.1081 48.8707 58.6156 47.611 57.3291 47.3365Z" fill="black"/>
<path d="M36.9865 48.3377C39.042 49.1346 41.2168 49.5768 43.419 49.6458H45.3809C48.372 49.6458 51.2826 49.129 54.2416 48.8383C56.1729 48.5679 58.1393 48.7054 60.0147 49.2421C59.7091 48.7501 59.3032 48.3288 58.8237 48.0058C58.3441 47.6829 57.8019 47.4658 57.2326 47.3687C52.4083 46.3351 47.2945 49.4359 42.4541 48.2893C40.9403 47.7075 39.3556 47.3327 37.7423 47.1749C37.1932 47.1603 36.657 47.3436 36.2307 47.6917C36.174 47.7434 36.1252 47.8033 36.086 47.8694L36.9865 48.3377Z" fill="#2B343A"/>
<path d="M123.326 97.32C119.18 95.0938 115.623 91.9044 112.954 88.0177C109.708 81.5129 106.835 74.8267 104.35 67.992C100.587 58.3022 97.0655 48.7738 96.6152 47.5303C95.3595 47.8044 94.136 48.2104 92.9648 48.7415C92.9422 48.8968 92.9422 49.0546 92.9648 49.2098C93.3186 51.277 93.7528 65.0528 85.9856 75.0495C80.7754 81.7516 72.8956 85.5306 62.5876 86.3543L53.7752 62.9694C52.5474 63.2184 51.3615 63.6426 50.2534 64.2291L51.4595 67.2814L50.6715 68.3473C48.3719 65.8764 43.6119 61.4998 38.0961 60.9184C31.1169 60.1755 12.9935 60.8377 12.2216 60.8054C11.7269 60.7818 11.2431 60.9566 10.8767 61.2913C10.5103 61.6259 10.2912 62.0931 10.2678 62.5899C10.2443 63.0868 10.4184 63.5726 10.7516 63.9406C11.0849 64.3086 11.55 64.5286 12.0447 64.5521L18.2681 64.3906C18.638 68.9125 20.4873 84.9977 28.946 98.9511L29.1229 99.1933L29.2354 99.2902L29.4606 99.4679H29.5571C29.6685 99.535 29.7872 99.5891 29.9108 99.6294C30.039 99.6461 30.1687 99.6461 30.2968 99.6294L68.6502 103.021H68.811C69.2953 103.023 69.7618 102.838 70.1136 102.504L101.89 71.9487C104.157 78.1162 106.794 84.1403 109.786 89.988C112.74 94.3955 116.712 98.0194 121.364 100.55C121.658 100.733 121.999 100.829 122.345 100.824C122.667 100.83 122.984 100.751 123.267 100.595C123.549 100.439 123.785 100.212 123.953 99.9362C124.087 99.7242 124.177 99.4874 124.218 99.2397C124.259 98.9921 124.25 98.7388 124.191 98.4947C124.133 98.2507 124.026 98.0209 123.877 97.8191C123.729 97.6173 123.541 97.4476 123.326 97.32ZM22.015 64.326C27.6273 64.2453 34.1884 64.326 37.7102 64.6329C42.3415 65.1335 46.5226 69.2517 48.388 71.3512L30.6988 94.6068C25.8984 85.1622 22.9349 74.8852 21.9668 64.326H22.015ZM68.1678 99.4194L34.0276 96.4156L53.0676 71.4804L59.7252 88.9382C59.8586 89.2929 60.0961 89.5986 60.4062 89.8149C60.7163 90.0311 61.0844 90.1478 61.462 90.1495H61.5584C81.4025 89.2289 89.9898 78.3117 93.7206 69.3324C95.1792 65.7083 96.1578 61.9076 96.6313 58.0276C97.7731 61.0799 99.1239 64.6167 100.523 68.2181L68.1678 99.4194Z" fill="#E90000"/>
<path d="M106.489 79.2973C102.646 69.882 99.8153 60.0791 96.2614 50.5669C96.1695 50.3231 96.0294 50.1004 95.8497 49.9122C95.67 49.7239 95.4544 49.5741 95.2156 49.4715C94.9769 49.369 94.72 49.3159 94.4604 49.3154C94.2007 49.315 93.9436 49.3671 93.7045 49.4688L93.0774 49.7433C93.3001 53.4343 93.0296 57.1385 92.2733 60.7574C93.206 62.5339 94.187 64.2458 94.8141 65.8284C95.5929 63.2702 96.1525 60.6498 96.4866 57.9958C97.6283 61.0481 98.9791 64.5849 100.378 68.1863L97.2745 71.1902C97.8374 72.3852 98.3841 73.5965 98.8826 74.8239L101.842 71.9492C104.109 78.1167 106.746 84.1408 109.737 89.9885C112.705 94.4019 116.695 98.0262 121.364 100.55C121.658 100.734 121.999 100.829 122.345 100.825C122.661 100.839 122.975 100.77 123.257 100.626C123.539 100.481 123.779 100.266 123.953 100.001C115.301 95.2533 110.188 88.3735 106.489 79.2973Z" fill="#9F0000"/>
<path d="M20.9054 64.3584C20.021 64.3584 19.1526 64.3584 18.2681 64.5037C18.3646 65.4889 18.5093 67.007 18.7827 68.8965C20.021 68.7673 21.2753 68.6704 22.5296 68.5735C22.2723 66.8132 22.1115 65.3435 22.015 64.423C21.5969 64.423 21.227 64.3907 20.9054 64.3584Z" fill="#9F0000"/>
<path d="M75.0344 92.7656L68.1678 99.4193L57.6829 98.4988C57.2884 99.6859 57.0399 100.917 56.9432 102.165L68.6824 103.198H68.8432C69.3274 103.201 69.794 103.016 70.1458 102.682L77.736 95.3334C76.9938 94.3238 76.0791 93.4544 75.0344 92.7656Z" fill="#9F0000"/>
<path d="M59.8538 84.0287C58.7925 81.4286 57.8598 78.7639 56.9271 76.1153C55.6728 72.5624 54.1772 69.0417 52.8586 65.4888C52.7922 65.3049 52.6883 65.1369 52.5535 64.9956C52.4187 64.8543 52.2561 64.7428 52.0759 64.6683C51.8958 64.5938 51.7021 64.5579 51.5074 64.563C51.3126 64.568 51.121 64.6138 50.9449 64.6975C50.797 64.7624 50.6568 64.8436 50.5268 64.9397L51.4595 67.2814L50.6715 68.3473C49.7172 67.3283 48.7023 66.3683 47.6322 65.4727C47.271 66.7015 46.6937 67.8556 45.9276 68.8802C46.7918 69.6585 47.6131 70.4833 48.388 71.3512L46.7799 73.5152C47.8574 74.1698 48.8148 75.0056 49.6102 75.9861L53.0676 71.4804L59.7091 88.9221C59.8476 89.2811 60.0903 89.59 60.4057 89.8088C60.7211 90.0277 61.0947 90.1464 61.478 90.1495H62.0891C61.5589 88.0364 60.8097 85.985 59.8538 84.0287Z" fill="#9F0000"/>
<path d="M34.9764 97.9818C34.9763 98.8757 34.7114 99.7494 34.2155 100.492C33.7196 101.234 33.0151 101.811 32.1915 102.15C31.3679 102.489 30.4625 102.575 29.5905 102.396C28.7185 102.217 27.9192 101.781 27.2944 101.144C26.6696 100.508 26.2474 99.6988 26.0816 98.8206C25.9158 97.9423 26.0139 97.0344 26.3634 96.2123C26.7129 95.3902 27.2979 94.6911 28.0441 94.2038C28.7904 93.7166 29.6641 93.4632 30.5541 93.476C31.7328 93.493 32.8575 93.9752 33.6851 94.8184C34.5126 95.6615 34.9765 96.7979 34.9764 97.9818Z" fill="#A6B3BD"/>
<path d="M30.4897 100.712C31.9907 100.712 33.2074 99.4896 33.2074 97.9822C33.2074 96.4749 31.9907 95.2529 30.4897 95.2529C28.9888 95.2529 27.772 96.4749 27.772 97.9822C27.772 99.4896 28.9888 100.712 30.4897 100.712Z" fill="#7C8B96"/>
<path d="M30.4898 99.5324C31.3424 99.5324 32.0336 98.8383 32.0336 97.982C32.0336 97.1258 31.3424 96.4316 30.4898 96.4316C29.6372 96.4316 28.946 97.1258 28.946 97.982C28.946 98.8383 29.6372 99.5324 30.4898 99.5324Z" fill="black"/>
<path d="M94.2352 29.4911C94.2494 29.5821 94.2494 29.6747 94.2352 29.7657C94.3235 30.2602 94.2322 30.7702 93.9779 31.203C93.5625 31.7286 93.0038 32.1214 92.3698 32.3335C91.9338 32.584 91.4764 32.7948 91.0029 32.9633C89.3771 33.7424 87.6944 34.3957 85.9695 34.9174C85.4154 35.0268 84.9125 35.3162 84.5383 35.7411C84.4442 35.9189 84.3057 36.0692 84.1363 36.1771C84.0458 36.2202 83.947 36.2426 83.8468 36.2426C83.7467 36.2426 83.6478 36.2202 83.5574 36.1771C83.2186 35.9545 82.9058 35.6945 82.6247 35.4019C82.1989 34.9676 81.8747 34.4435 81.6759 33.8677C81.578 33.6162 81.5502 33.3426 81.5955 33.0764C81.6409 32.8915 81.7244 32.7184 81.8408 32.5681C81.9571 32.4179 82.1037 32.2939 82.2709 32.2043C82.5925 32.0105 83.0106 32.0751 83.3644 31.962C84.7404 31.302 86.063 30.5352 87.3204 29.6688C88.7238 28.9918 90.1885 28.451 91.6944 28.0538C92.1301 27.8467 92.6202 27.7845 93.0935 27.8761C93.4098 28.0187 93.6824 28.2436 93.8832 28.5276C94.0839 28.8115 94.2055 29.1442 94.2352 29.4911Z" fill="black"/>
<path d="M68.409 92.5723C66.6756 92.5755 64.9821 93.0948 63.5426 94.0646C62.1031 95.0344 60.9823 96.4111 60.3219 98.0206C59.6615 99.6301 59.4912 101.4 59.8324 103.107C60.1737 104.814 61.0113 106.38 62.2392 107.609C63.4672 108.838 65.0303 109.673 66.731 110.01C68.4318 110.346 70.1936 110.168 71.7938 109.499C73.3941 108.83 74.7608 107.7 75.7212 106.25C76.6815 104.801 77.1924 103.099 77.1893 101.358C77.1893 100.201 76.9619 99.0563 76.5203 97.9883C76.0786 96.9202 75.4314 95.9503 74.6156 95.1341C73.7999 94.3178 72.8317 93.6714 71.7666 93.2318C70.7015 92.7922 69.5605 92.5681 68.409 92.5723ZM68.409 107.575C67.1845 107.575 65.9875 107.211 64.9693 106.528C63.9512 105.844 63.1576 104.873 62.689 103.737C62.2205 102.601 62.0978 101.351 62.3367 100.145C62.5756 98.9387 63.1653 97.8308 64.0311 96.9612C64.897 96.0917 66.0002 95.4995 67.2011 95.2596C68.4021 95.0197 69.647 95.1428 70.7783 95.6134C71.9096 96.084 72.8765 96.881 73.5568 97.9034C74.2371 98.9259 74.6002 100.128 74.6002 101.358C74.6002 103.007 73.9479 104.588 72.7868 105.754C71.6258 106.92 70.051 107.575 68.409 107.575Z" fill="#E3E3E3"/>
<path d="M68.409 103.538C69.608 103.538 70.5799 102.562 70.5799 101.358C70.5799 100.154 69.608 99.1777 68.409 99.1777C67.21 99.1777 66.238 100.154 66.238 101.358C66.238 102.562 67.21 103.538 68.409 103.538Z" fill="#3B464E"/>
<path d="M73.2192 89.5872L71.474 89.0234L63.576 113.683L65.3212 114.247L73.2192 89.5872Z" fill="#3B464E"/>
<path d="M75.3078 86.3701H70.1297C69.1616 86.3701 68.3768 87.1582 68.3768 88.1304V88.2596C68.3768 89.2318 69.1616 90.02 70.1297 90.02H75.3078C76.2759 90.02 77.0606 89.2318 77.0606 88.2596V88.1304C77.0606 87.1582 76.2759 86.3701 75.3078 86.3701Z" fill="black"/>
<path d="M67.1064 111.984H61.9283C60.9602 111.984 60.1755 112.772 60.1755 113.745V113.874C60.1755 114.846 60.9602 115.634 61.9283 115.634H67.1064C68.0745 115.634 68.8593 114.846 68.8593 113.874V113.745C68.8593 112.772 68.0745 111.984 67.1064 111.984Z" fill="black"/>
<path d="M68.409 102.52C69.0485 102.52 69.5668 101.999 69.5668 101.357C69.5668 100.715 69.0485 100.194 68.409 100.194C67.7695 100.194 67.2512 100.715 67.2512 101.357C67.2512 101.999 67.7695 102.52 68.409 102.52Z" fill="black"/>
</g>
<path d="M171.476 158.274L32.097 162.212C28.9711 162.297 25.8595 161.76 22.9428 160.632C20.0261 159.505 17.3622 157.81 15.1059 155.645C12.8495 153.48 11.0456 150.888 9.79876 148.021C8.55192 145.153 7.887 142.066 7.84259 138.94C7.79818 135.813 8.37516 132.709 9.54004 129.807C10.7049 126.905 12.4345 124.263 14.6285 122.035C16.8224 119.807 19.437 118.037 22.3206 116.827C25.2041 115.617 28.2992 114.992 31.4262 114.988H170.805C176.493 114.989 181.952 117.229 186.001 121.223C190.051 125.216 192.366 130.644 192.446 136.331C192.526 142.018 190.365 147.508 186.43 151.614C182.494 155.72 177.101 158.113 171.415 158.274H171.476Z" fill="url(#paint2_linear_584_622)"/>
<path fill-rule="evenodd" clip-rule="evenodd" d="M14.3344 130.268C15.3247 127.112 17.2064 124.311 19.7527 122.201C25.7112 117.392 37.1054 117.845 44.6319 117.845L56.8276 118.29L44.7452 119.074C31.8961 119.814 23.2982 118.804 14.3518 130.268H14.3344Z" fill="#FEFEFE"/>
<defs>
<linearGradient id="paint0_linear_584_622" x1="50.4033" y1="2.38706" x2="141.34" y2="158.413" gradientUnits="userSpaceOnUse">
<stop stop-color="#EC6BCF"/>
<stop offset="0.93" stop-color="#C0199B"/>
</linearGradient>
<linearGradient id="paint1_linear_584_622" x1="3140.59" y1="9446.83" x2="24956.1" y2="9446.83" gradientUnits="userSpaceOnUse">
<stop stop-color="#EC6BCF"/>
<stop offset="0.93" stop-color="#C0199B"/>
</linearGradient>
<linearGradient id="paint2_linear_584_622" x1="100.175" y1="114.988" x2="100.175" y2="162.9" gradientUnits="userSpaceOnUse">
<stop stop-color="#F6E001"/>
<stop offset="1" stop-color="#E85D0F"/>
</linearGradient>
<clipPath id="clip0_584_622">
<rect width="153.317" height="101.921" fill="white" transform="translate(0 27.876)"/>
</clipPath>
</defs>
</svg>
