<svg width="117" height="241" viewBox="0 0 117 241" fill="none" xmlns="http://www.w3.org/2000/svg">
<path fill-rule="evenodd" clip-rule="evenodd" d="M64.6741 137.242C68.3826 137.385 71.2015 138.521 72.9036 140.878C75.0395 144.868 77.6813 148.566 80.7635 151.88C81.1258 151.665 81.5493 151.576 81.9674 151.628C82.3856 151.679 82.7749 151.868 83.0741 152.165L85.6272 153.844C83.074 158.573 82.6812 163.517 83.8827 168.628C82.0998 169.009 80.2516 168.96 78.4914 168.485C77.3014 168.1 76.6891 167.13 76.4504 165.789C73.7864 165.149 71.27 164.004 69.0372 162.416C61.7782 157.025 60.6229 144.906 64.6625 137.242H64.6741Z" fill="#E7F8FA"/>
<path fill-rule="evenodd" clip-rule="evenodd" d="M64.675 137.242C68.3835 137.385 71.2024 138.521 72.9045 140.877C74.1335 143.144 75.5154 145.325 77.0404 147.405C73.0123 147.274 68.7147 149.33 63.9086 155.492C61.5981 149.685 61.9331 142.425 64.6788 137.23L64.675 137.242Z" fill="#B8DAE1"/>
<path fill-rule="evenodd" clip-rule="evenodd" d="M68.9607 139.26L68.8066 138.082C71.1865 138.825 73.1313 140.866 74.7795 144.009C76.1196 146.543 78.1414 149.207 80.556 151.934C80.7999 151.709 81.1022 151.557 81.4285 151.496C81.7547 151.434 82.0916 151.466 82.4006 151.587L85.5776 153.705L84.9576 155.277L82.5315 153.902C81.3993 153.255 81.2568 153.266 79.9668 153.039C77.5218 150.854 75.4748 148.261 73.9169 145.376C73.0774 143.858 72.5305 142.734 71.3444 141.378C70.6365 140.578 69.8334 139.866 68.953 139.26H68.9607Z" fill="#FEFEFE"/>
<path fill-rule="evenodd" clip-rule="evenodd" d="M76.5883 166.515L76.7077 165.317C73.2688 164.204 70.5462 163.006 68.2356 161.277L68.0469 162.325C70.0571 163.919 72.8182 165.336 76.5845 166.515H76.5883Z" fill="#7DB7B7"/>
<path fill-rule="evenodd" clip-rule="evenodd" d="M83.7597 167.838C82.9896 163.005 83.2822 158.538 85.2154 154.664C90.8802 155.888 96.3062 155.133 101.597 153.266C102.572 153.32 103.269 154.217 103.762 155.711C104.351 157.775 104.147 159.674 102.514 161.256C98.0507 165.188 91.6003 167.183 83.7597 167.838Z" fill="#F7B3AC"/>
<path fill-rule="evenodd" clip-rule="evenodd" d="M83.7597 167.838C82.9896 163.005 83.2822 158.538 85.2154 154.664C85.8893 154.818 86.5671 154.926 87.2449 155.026C83.8483 167.184 93.4064 164.053 102.626 161.149C102.591 161.188 102.554 161.224 102.514 161.257C98.0507 165.189 91.6003 167.184 83.7597 167.838Z" fill="#EB877C"/>
<path fill-rule="evenodd" clip-rule="evenodd" d="M96.3594 154.675C92.6841 155.429 88.8929 155.417 85.2223 154.641L84.6562 156.312C89.9937 156.697 94.0449 156.508 96.783 155.461L96.3594 154.675Z" fill="#FFF8F8"/>
<path fill-rule="evenodd" clip-rule="evenodd" d="M96.502 154.687C98.2303 154.33 99.9325 153.857 101.597 153.27C102.571 153.323 103.268 154.221 103.761 155.715C104.35 157.779 104.146 159.678 102.513 161.26C101.35 162.279 100.076 163.165 98.7163 163.902C98.53 160.725 97.7802 157.606 96.502 154.691V154.687Z" fill="#521C12"/>
<path fill-rule="evenodd" clip-rule="evenodd" d="M65.1934 138.636L65.2588 137.249C70.0725 136.725 72.5949 138.79 74.274 141.87C76.3381 145.625 77.8014 148.267 81.1287 151.259L80.4625 152.337C74.6668 146.857 75.1135 144.25 71.7939 140.834C69.9609 138.932 67.8197 138.139 65.2126 138.616L65.1934 138.636Z" fill="#7DB7B7"/>
<path fill-rule="evenodd" clip-rule="evenodd" d="M84.3526 168.582C83.4438 163.899 83.4438 159.008 85.893 154.314C86.2781 153.582 86.1548 153.594 85.5079 153.116L83.0625 151.345L83.0317 151.322C82.7658 151.124 82.4554 150.994 82.1277 150.945C81.7999 150.895 81.465 150.927 81.1524 151.037C80.594 151.268 80.105 151.78 79.6775 152.654C79.082 153.672 78.5496 154.725 78.0832 155.808C77.6264 156.888 77.2405 157.997 76.9279 159.128C76.5418 160.558 76.2536 162.013 76.0653 163.483C75.9056 164.532 75.8979 165.598 76.0422 166.649C76.158 167.305 76.4836 167.907 76.9703 168.362C77.5916 168.89 78.3478 169.234 79.1538 169.356C79.8679 169.483 80.5932 169.534 81.318 169.51C82.1217 169.481 82.9228 169.404 83.7172 169.279C84.2948 169.202 84.4373 169.106 84.3526 168.601V168.582ZM85.0727 154.141C82.8661 158.134 82.4733 162.971 83.282 168.224C82.6196 168.319 81.9523 168.377 81.2834 168.397C80.6387 168.424 79.993 168.38 79.3579 168.266C78.7503 168.178 78.1773 167.93 77.6981 167.546C77.3837 167.241 77.1769 166.843 77.1089 166.41C76.9834 165.475 76.999 164.526 77.1551 163.595C77.3301 162.176 77.6029 160.771 77.9715 159.39C78.2753 158.31 78.6471 157.25 79.0845 156.216C79.5367 155.171 80.0511 154.154 80.6249 153.17L80.648 153.124C80.9406 152.504 81.2372 152.154 81.5414 152.034C81.6921 151.99 81.8512 151.983 82.0053 152.013C82.1595 152.043 82.3041 152.11 82.4271 152.208L85.0727 154.141Z" fill="#7DB7B7"/>
<path fill-rule="evenodd" clip-rule="evenodd" d="M85.5736 154.311L85.2578 155.209C88.9316 155.838 92.6899 155.786 96.3448 155.055L95.9866 154.23C92.5613 155.002 89.0104 155.029 85.5736 154.311Z" fill="#DB736E"/>
<path fill-rule="evenodd" clip-rule="evenodd" d="M83.959 167.424L84.0244 168.306C89.643 167.921 94.4644 166.673 98.4617 164.517L98.4271 163.492C94.8226 165.541 90.1128 166.916 83.959 167.424Z" fill="#DB736E"/>
<path fill-rule="evenodd" clip-rule="evenodd" d="M103.519 154.063C102.984 153.069 102.144 152.318 100.858 152.796C99.2722 153.396 97.6438 153.876 95.9863 154.232L96.3445 155.056C97.7778 154.772 99.1924 154.4 100.581 153.943C101.67 153.593 102.052 153.451 102.575 154.567C103.123 155.631 103.418 156.806 103.438 158.002C103.419 159.37 103.053 159.97 102.052 160.887C100.936 161.884 99.7158 162.758 98.4124 163.494L98.4471 164.518C99.7847 163.801 101.053 162.962 102.236 162.011C103.681 160.856 104.497 159.916 104.547 158.388C104.531 156.887 104.18 155.41 103.519 154.063Z" fill="#280905"/>
<path d="M96.6378 154.469C97.3378 155.952 97.8936 157.5 98.2975 159.09C98.6853 160.649 98.9048 162.244 98.9522 163.85H98.4054C98.3697 162.288 98.1644 160.735 97.7931 159.217C97.4077 157.662 96.8631 156.151 96.168 154.708L96.6378 154.469Z" fill="#280905"/>
<path fill-rule="evenodd" clip-rule="evenodd" d="M108.903 132.318C109.052 131.994 109.068 131.623 108.945 131.288C108.822 130.952 108.572 130.679 108.248 130.527C107.87 130.559 107.509 130.702 107.211 130.939C106.914 131.175 106.693 131.494 106.577 131.856C102.414 143.64 98.9249 155.435 97.0918 167.216C97.2535 169.495 97.9313 169.595 99.1521 167.347C103.038 155.666 106.172 143.986 108.903 132.303V132.318Z" fill="#F58F3A"/>
<path fill-rule="evenodd" clip-rule="evenodd" d="M106.599 131.901L105.494 135.109L108.124 135.775L108.895 132.467C109.384 130.33 107.289 129.88 106.584 131.901H106.599Z" fill="#FFD6B5"/>
<path d="M96.4788 166.693C98.4543 153.626 101.893 143.726 105.267 134.04L106.226 131.279C106.326 130.959 106.516 130.673 106.773 130.457C107.031 130.241 107.344 130.103 107.677 130.059C107.925 130.022 108.178 130.037 108.421 130.101C108.665 130.168 108.893 130.288 109.087 130.451C109.319 130.65 109.49 130.91 109.578 131.202C109.667 131.494 109.67 131.806 109.587 132.1C108.147 138.092 106.684 144.038 105.113 149.872C103.541 155.706 101.774 161.563 99.7752 167.294C99.3901 168.449 98.8355 169.157 98.3349 169.454C98.0737 169.615 97.7611 169.67 97.4608 169.608C97.3111 169.571 97.1703 169.505 97.0466 169.413C96.9229 169.321 96.8189 169.205 96.7406 169.073C96.4441 168.614 96.3132 167.794 96.4788 166.693ZM106.106 134.969L107.689 135.354C107.974 134.198 108.259 133.008 108.54 131.842C108.573 131.743 108.578 131.637 108.552 131.536C108.527 131.435 108.473 131.343 108.398 131.272C108.323 131.214 108.238 131.174 108.147 131.152C108.049 131.12 107.945 131.112 107.843 131.129C107.71 131.148 107.585 131.205 107.483 131.292C107.381 131.379 107.305 131.494 107.265 131.622C106.838 132.843 106.576 133.621 106.303 134.395L106.106 134.969ZM107.558 135.897L105.933 135.492C102.702 144.773 99.4594 154.362 97.5686 166.855C97.4376 167.686 97.5031 168.233 97.6687 168.495L97.7111 168.549C97.7433 168.54 97.7735 168.524 97.7996 168.503C98.0962 168.33 98.4427 167.829 98.7585 166.932C100.738 161.267 102.471 155.46 104.065 149.602C105.309 145.027 106.457 140.464 107.558 135.912V135.897Z" fill="#CC6212"/>
<path fill-rule="evenodd" clip-rule="evenodd" d="M72.4517 206.297L55.4766 207.106C56.3815 212.705 57.1363 218.273 57.506 223.826C57.7563 227.473 57.4637 230.335 57.506 233.839C57.5291 237.189 58.4033 238.414 59.7357 238.845C60.6946 239.161 64.6149 239.173 65.7047 238.965C66.7214 238.768 67.3337 238.168 68.2156 236.304C69.3516 233.955 70.1411 230.427 70.9113 226.707C72.059 219.966 72.5824 213.134 72.4748 206.297H72.4517Z" fill="#F7B3AC"/>
<path fill-rule="evenodd" clip-rule="evenodd" d="M57.5066 231.609C57.5066 232.333 57.4873 233.061 57.5066 233.827C57.5297 237.177 58.4039 238.402 59.7363 238.833C60.6952 239.149 64.6155 239.16 65.7053 238.953C66.722 238.756 67.3343 238.155 68.2162 236.292C68.9015 234.77 69.4392 233.187 69.822 231.562C65.7259 231.84 61.6161 231.854 57.5182 231.605L57.5066 231.609Z" fill="#521C12"/>
<path fill-rule="evenodd" clip-rule="evenodd" d="M72.4517 206.297L55.4766 207.106C56.1197 211.08 56.6896 215.05 57.0901 219.001L72.1089 216.798C72.3657 213.381 72.4748 209.881 72.4363 206.297H72.4517Z" fill="#EB877C"/>
<path fill-rule="evenodd" clip-rule="evenodd" d="M72.3745 211.163L70.9573 211.109C70.5968 218.028 69.4165 224.879 67.4414 231.52L69.8521 231.204C71.8392 224.915 72.44 218.157 72.3745 211.179V211.163Z" fill="#FFF8F8"/>
<path fill-rule="evenodd" clip-rule="evenodd" d="M56.5586 208.055L55.0605 208.166C56.3174 215.674 56.9191 223.276 56.8589 230.887L58.1529 231.064C58.3404 223.361 57.8066 215.658 56.5586 208.055Z" fill="#DB736E"/>
<path fill-rule="evenodd" clip-rule="evenodd" d="M68.6206 232.94C68.3156 234.114 67.948 235.271 67.5192 236.406C66.8722 237.877 65.7593 238.331 63.8069 238.37C62.3011 238.4 59.9559 238.293 59.0779 237.572C58.1998 236.852 57.9534 235.262 58.0651 233.282C58.1036 232.539 58.1305 231.796 58.1536 231.049L56.8597 230.872C56.8366 232.327 56.7865 233.783 56.698 235.235C56.5593 237.584 57.1139 238.916 58.9585 239.375C60.1831 239.679 64.9082 239.852 66.1406 239.613C68.2278 239.228 68.6629 237.715 69.5025 234.992C69.9569 233.544 70.3535 232.092 70.7117 230.645L69.1713 230.918C69.0018 231.6 68.8208 232.274 68.6206 232.94Z" fill="#280905"/>
<path fill-rule="evenodd" clip-rule="evenodd" d="M73.2251 207.182L72.0043 207.074C71.7617 215.096 71.2342 223.09 69.1777 230.923L70.7181 230.65C72.6513 222.836 73.3175 215.011 73.2251 207.182Z" fill="#DB736E"/>
<path fill-rule="evenodd" clip-rule="evenodd" d="M57.5716 231.929L57.3867 230.99C61.5596 231.514 65.7853 231.452 69.9409 230.805L69.6444 231.817C65.636 232.291 61.588 232.329 57.5716 231.929Z" fill="#280905"/>
<path fill-rule="evenodd" clip-rule="evenodd" d="M24.8457 208.75L43.3304 209.285C42.6265 218.987 40.8705 228.583 38.0931 237.906C37.4358 239.806 34.9712 240.447 30.6992 239.831C28.7044 239.539 27.7224 238.314 27.449 236.458C27.9156 227.151 27.0441 217.825 24.8611 208.765L24.8457 208.75Z" fill="#F7B3AC"/>
<path fill-rule="evenodd" clip-rule="evenodd" d="M24.8457 208.75L43.3304 209.285C43.0916 212.366 42.7604 215.419 42.3368 218.443L26.9907 220.931C26.5244 216.832 25.8132 212.764 24.8611 208.75H24.8457Z" fill="#EB877C"/>
<path fill-rule="evenodd" clip-rule="evenodd" d="M30.6526 239.828C27.8144 239.305 27.0712 236.563 27.6411 232.438C31.6272 232.819 35.6434 232.749 39.6138 232.23C39.2287 236.378 38.162 239.547 35.0735 239.786L30.6526 239.828Z" fill="#521C12"/>
<path fill-rule="evenodd" clip-rule="evenodd" d="M43.1417 212.496L41.4473 212.585C40.7272 219.463 38.9711 225.782 36.9609 232.529L39.387 232.209C41.3741 225.913 43.2072 219.501 43.1417 212.496Z" fill="#FFF8F8"/>
<path fill-rule="evenodd" clip-rule="evenodd" d="M38.6976 233.851C38.4204 235.033 38.0522 236.191 37.5963 237.317C36.9532 238.803 35.8364 239.242 33.8839 239.292C32.3898 239.315 30.033 239.215 29.1588 238.495C28.2846 237.775 28.0343 236.184 28.1421 234.205C28.1806 233.462 28.1999 232.719 28.2115 231.975L26.8829 231.825C26.8829 233.265 26.8636 234.706 26.7789 236.15C26.6364 238.507 27.8456 240.024 30.0946 240.309C31.9738 240.548 35.2356 240.721 36.2215 240.536C38.3164 240.151 38.9364 238.691 39.5834 235.915C39.9197 234.482 40.2445 233.048 40.5577 231.613L39.1906 231.833C39.0288 232.511 38.8709 233.184 38.6976 233.851Z" fill="#280905"/>
<path fill-rule="evenodd" clip-rule="evenodd" d="M43.0307 207.527C42.3948 215.72 41.107 223.85 39.1797 231.839L40.5468 231.619C42.3375 223.42 43.7315 215.256 44.3747 207.627L43.0307 207.527Z" fill="#DB736E"/>
<path fill-rule="evenodd" clip-rule="evenodd" d="M25.8164 208.961L24.3223 209.08C25.5238 216.663 26.8215 224.249 26.8832 231.828L28.2118 231.978C28.3234 224.465 27.0603 216.786 25.8164 208.961Z" fill="#DB736E"/>
<path fill-rule="evenodd" clip-rule="evenodd" d="M27.6498 232.843L27.4766 231.904C31.6462 232.416 35.8665 232.354 40.0192 231.719L39.7342 232.732C35.7217 233.201 31.6703 233.239 27.6498 232.843Z" fill="#280905"/>
<path fill-rule="evenodd" clip-rule="evenodd" d="M38.1445 174.245L39.9237 171.406C51.2109 172.177 61.5238 171.792 70.9895 170.328C73.6852 169.912 73.5311 172.639 70.6391 173.055C59.877 174.564 48.9882 174.963 38.1445 174.245Z" fill="#FEFEFE"/>
<path fill-rule="evenodd" clip-rule="evenodd" d="M19.6835 206.386C22.1943 194.833 24.967 183.842 27.9361 173.233C43.7328 175.341 58.2921 175.212 71.6139 172.848C75.8807 185.806 77.2247 198.38 75.4648 210.564C58.7401 212.189 41.7111 213.017 24.0621 212.178C21.1353 212.101 19.6604 210.179 19.6719 206.401L19.6835 206.386Z" fill="#2F3D75"/>
<path fill-rule="evenodd" clip-rule="evenodd" d="M57.191 202.685C59.6318 202.687 61.994 203.548 63.864 205.116C65.734 206.685 66.9925 208.861 67.4192 211.265C60.6183 211.808 53.7636 212.2 46.8203 212.378C46.9989 209.749 48.1691 207.285 50.0942 205.486C52.0193 203.687 54.5559 202.685 57.191 202.685ZM75.0942 204.048C73.8693 204.064 72.6533 203.838 71.5156 203.384C70.3779 202.93 69.3408 202.257 68.4634 201.402C67.586 200.547 66.8856 199.528 66.4022 198.402C65.9188 197.277 65.6617 196.067 65.6458 194.842C65.6299 193.617 65.8553 192.401 66.3093 191.264C66.7634 190.126 67.437 189.089 68.2919 188.211C69.1467 187.334 70.166 186.634 71.2915 186.15C72.417 185.667 73.6267 185.41 74.8515 185.394C76.0008 191.523 76.426 197.766 76.1185 203.994C75.7796 204.025 75.4407 204.048 75.0942 204.048ZM73.7386 180.226C72.4237 181.27 70.8623 181.957 69.2046 182.223C67.547 182.489 65.8488 182.324 64.2734 181.744C62.698 181.164 61.2983 180.188 60.2091 178.91C59.1198 177.633 58.3775 176.097 58.0536 174.449C62.5973 174.16 67.1214 173.618 71.6052 172.828C72.4216 175.306 73.1302 177.773 73.7309 180.23L73.7386 180.226ZM50.4248 179.771C52.2871 179.768 54.1084 180.318 55.6583 181.35C57.2082 182.383 58.4169 183.852 59.1315 185.572C59.8461 187.291 60.0345 189.184 59.6727 191.011C59.311 192.838 58.4155 194.517 57.0994 195.834C55.7834 197.152 54.1061 198.049 52.2797 198.413C50.4533 198.777 48.56 198.591 46.8394 197.879C45.1188 197.166 43.6482 195.96 42.6138 194.411C41.5794 192.862 41.0277 191.042 41.0284 189.179C41.0295 186.687 42.0194 184.296 43.781 182.532C45.5426 180.768 47.932 179.776 50.4248 179.771ZM25.3203 183.568C28.3169 183.568 31.1908 184.759 33.3097 186.878C35.4287 188.997 36.6191 191.871 36.6191 194.867C36.6191 197.864 35.4287 200.738 33.3097 202.857C31.1908 204.976 28.3169 206.166 25.3203 206.166C23.4693 206.172 21.6458 205.718 20.0137 204.845C21.6208 197.551 23.3268 190.459 25.1316 183.568H25.3203Z" fill="#5367B8"/>
<path fill-rule="evenodd" clip-rule="evenodd" d="M73.4997 208.641C74.7859 197.365 73.7847 185.369 71.5742 172.988C75.7324 184.982 77.0339 197.781 75.3751 210.366C57.8116 212.403 40.1078 212.958 22.4512 212.026C41.2285 211.567 58.5964 210.574 73.5074 208.641H73.4997Z" fill="#748DF2"/>
<path fill-rule="evenodd" clip-rule="evenodd" d="M62.2778 133.463C55.9977 131.752 49.4362 131.329 42.9883 132.219C48.5337 137.645 52.6504 143.191 54.6683 148.898C58.1611 144.5 60.4447 139.174 62.2778 133.463Z" fill="#F7B3AC"/>
<path fill-rule="evenodd" clip-rule="evenodd" d="M30.0527 170.262C43.8186 172.6 57.8813 172.588 71.6433 170.227C71.4469 158.112 70.1375 146.104 68.3045 134.151L62.4433 133.069C60.69 138.646 58.1219 143.932 54.8222 148.758C51.8273 142.517 47.8223 136.814 42.9689 131.879L38.186 134.301L33.9499 150.96C32.2901 157.534 31.2119 163.592 30.0527 170.262Z" fill="#E7F8FA"/>
<path fill-rule="evenodd" clip-rule="evenodd" d="M69.8878 145.831C69.4295 141.934 68.8827 138.037 68.2935 134.151L62.4323 133.069C61.2994 136.695 59.8148 140.202 57.9998 143.54C62.0279 143.913 66.0097 144.68 69.8878 145.831ZM52.0385 143.64C49.4887 139.378 46.4404 135.435 42.9579 131.895L38.175 134.317L34.8555 147.441C41.017 146.066 45.1491 144.687 51.9422 143.64H52.0385Z" fill="#B8DAE1"/>
<path fill-rule="evenodd" clip-rule="evenodd" d="M69.001 138.287L67.8457 138.113C69.1756 148.845 69.8393 159.648 69.8328 170.461L71.5889 170.099C71.5118 159.675 70.499 149.042 69.0125 138.302L69.001 138.287Z" fill="#FEFEFE"/>
<path fill-rule="evenodd" clip-rule="evenodd" d="M38.1445 174.244L39.9237 171.406C41.6143 171.529 43.8093 171.614 45.4575 171.68C45.1159 172.063 44.8868 172.532 44.7957 173.037C44.7046 173.542 44.7551 174.063 44.9415 174.541C42.7041 174.499 40.4474 174.398 38.1445 174.244Z" fill="#B8DAE1"/>
<path fill-rule="evenodd" clip-rule="evenodd" d="M27.5001 172.588L27.4346 172.827C24.7928 180.783 22.5862 189.267 20.6222 198.043C19.9984 200.87 19.0818 204.493 18.9509 207.462C18.82 210.432 19.4554 212.8 23.6568 212.977C42.1415 213.747 59.7982 213.27 76.2958 211.121C77.9324 197.608 76.0339 184.726 72.2022 172.191L70.8466 172.38C63.4465 173.438 55.9857 174.017 48.511 174.113C40.2275 174.267 33.5345 173.197 27.5001 172.573V172.588ZM71.174 173.439C74.8632 185.554 76.6231 197.673 74.8093 209.777C58.5428 211.96 41.6254 212.18 24.4116 211.545C21.1344 211.425 20.5606 209.538 20.5799 206.993C20.5991 204.135 21.4964 200.446 22.0856 198.001C24.0804 189.671 26.2215 181.592 28.5899 173.897C35.1896 174.856 41.8541 175.297 48.5225 175.218C56.1034 175.113 63.6696 174.519 71.174 173.439Z" fill="#21305E"/>
<path d="M68.8399 134.926C69.8669 140.8 70.6743 146.68 71.2622 152.567C71.8501 158.454 72.1556 164.336 72.1787 170.212H71.085C71.0542 164.374 70.7526 158.527 70.1801 152.671C69.6255 146.833 68.8053 140.98 67.7578 135.118L68.8399 134.926Z" fill="#7DB7B7"/>
<path fill-rule="evenodd" clip-rule="evenodd" d="M65.3364 134.783H66.0758C66.846 139.674 65.2709 143.995 62.0284 147.877L59.3096 146.067L55.3239 149.802C55.5549 153.545 55.7089 157.235 55.8476 160.87C55.9785 164.571 56.0555 168.217 56.1095 171.83H55.2931C55.2468 168.235 55.1595 164.586 55.0312 160.881C54.9131 157.287 54.7411 153.618 54.5151 149.875L48.0224 145.597L45.9814 149.024C42.0611 144.615 39.092 139.782 37.6094 134.279L38.7107 133.994C40.0278 138.453 42.3384 142.578 45.8042 146.779L47.7028 143.868L54.1108 148.604C51.1956 142.678 47.387 136.586 41.5682 132.122L43.2703 131.391C48.3519 136.021 52.2963 141.761 54.7963 148.165C57.9733 143.856 59.687 138.657 61.4662 134.129L62.6215 134.325C61.1157 138.561 58.5818 144.457 55.4817 148.616L59.402 144.488L61.8127 146.059C64.5546 142.612 65.1554 138.888 65.3518 134.783H65.3364Z" fill="#7DB7B7"/>
<path fill-rule="evenodd" clip-rule="evenodd" d="M58.8974 154.947C59.1561 154.948 59.4094 154.873 59.6252 154.73C59.8409 154.588 60.0095 154.384 60.1093 154.145C60.2092 153.907 60.236 153.644 60.1861 153.39C60.1363 153.136 60.0122 152.903 59.8296 152.72C59.6469 152.536 59.414 152.412 59.1603 152.361C58.9066 152.311 58.6436 152.337 58.4046 152.436C58.1657 152.535 57.9616 152.703 57.8183 152.918C57.675 153.133 57.5989 153.387 57.5996 153.645C57.5996 153.99 57.7362 154.32 57.9795 154.564C58.2228 154.808 58.5528 154.946 58.8974 154.947Z" fill="#FEFEFE"/>
<path fill-rule="evenodd" clip-rule="evenodd" d="M59.2432 161.029C59.5022 161.032 59.7563 160.958 59.973 160.816C60.1898 160.674 60.3595 160.471 60.4606 160.233C60.5617 159.994 60.5895 159.731 60.5406 159.477C60.4917 159.222 60.3682 158.988 60.1858 158.804C60.0035 158.62 59.7706 158.495 59.5166 158.444C59.2627 158.393 58.9994 158.418 58.76 158.517C58.5206 158.616 58.3161 158.784 58.1724 158.999C58.0287 159.215 57.9524 159.468 57.9531 159.727C57.9521 160.071 58.0873 160.401 58.3292 160.645C58.571 160.889 58.8997 161.027 59.2432 161.029Z" fill="#FEFEFE"/>
<path d="M58.8617 151.996C59.0717 151.998 59.2793 152.041 59.4723 152.124C59.6654 152.206 59.8401 152.327 59.9862 152.478C60.2884 152.786 60.4572 153.201 60.456 153.633C60.4581 153.847 60.4176 154.059 60.3369 154.258C60.2563 154.456 60.1371 154.636 59.9862 154.788C59.842 154.944 59.6672 155.068 59.4727 155.153C59.2782 155.238 59.0682 155.282 58.8559 155.282C58.6437 155.282 58.4337 155.238 58.2392 155.153C58.0447 155.068 57.8699 154.944 57.7257 154.788C57.4238 154.479 57.2551 154.065 57.2559 153.633C57.2583 153.202 57.4266 152.788 57.7257 152.478C57.8758 152.324 58.0556 152.201 58.2541 152.119C58.4527 152.036 58.6659 151.994 58.881 151.996H58.8617ZM59.5934 152.859C59.4981 152.759 59.3837 152.68 59.2569 152.626C59.1302 152.572 58.9938 152.544 58.8559 152.544C58.7181 152.544 58.5817 152.572 58.455 152.626C58.3282 152.68 58.2138 152.759 58.1185 152.859C57.9155 153.064 57.8019 153.341 57.8027 153.629C57.8048 153.917 57.9179 154.193 58.1185 154.399C58.2138 154.499 58.3282 154.578 58.455 154.632C58.5817 154.686 58.7181 154.714 58.8559 154.714C58.9938 154.714 59.1302 154.686 59.2569 154.632C59.3837 154.578 59.4981 154.499 59.5934 154.399C59.794 154.193 59.9071 153.917 59.9092 153.629C59.91 153.341 59.7964 153.064 59.5934 152.859Z" fill="#7DB7B7"/>
<path d="M59.2311 158.047C59.443 158.047 59.6526 158.09 59.8477 158.173C60.0428 158.256 60.2194 158.376 60.3671 158.528C60.6653 158.839 60.8333 159.253 60.837 159.684C60.8377 160.115 60.669 160.53 60.3671 160.839C60.2222 160.995 60.0464 161.12 59.8508 161.204C59.6553 161.289 59.4442 161.333 59.2311 161.332C59.0199 161.331 58.8111 161.287 58.6176 161.202C58.4242 161.117 58.2502 160.994 58.1066 160.839C57.9557 160.687 57.8365 160.507 57.7559 160.308C57.6752 160.11 57.6347 159.898 57.6368 159.684C57.6369 159.252 57.8054 158.837 58.1066 158.528C58.2522 158.377 58.4268 158.256 58.6199 158.173C58.8131 158.091 59.021 158.048 59.2311 158.047ZM59.9743 158.909C59.8791 158.81 59.7646 158.731 59.6378 158.676C59.5111 158.622 59.3747 158.594 59.2369 158.594C59.099 158.594 58.9626 158.622 58.8359 158.676C58.7091 158.731 58.5947 158.81 58.4994 158.909C58.3987 159.011 58.319 159.131 58.2648 159.263C58.2106 159.395 58.183 159.537 58.1836 159.68C58.1857 159.968 58.2988 160.243 58.4994 160.45C58.5947 160.549 58.7091 160.629 58.8359 160.683C58.9626 160.737 59.099 160.765 59.2369 160.765C59.3747 160.765 59.5111 160.737 59.6378 160.683C59.7646 160.629 59.8791 160.549 59.9743 160.45C60.1749 160.243 60.288 159.968 60.2901 159.68C60.2907 159.537 60.2631 159.395 60.2089 159.263C60.1548 159.131 60.075 159.011 59.9743 158.909Z" fill="#7DB7B7"/>
<path d="M71.5363 172.49C71.7322 172.414 71.9078 172.294 72.0494 172.139C72.1911 171.984 72.2949 171.798 72.3527 171.597C72.3932 171.461 72.3932 171.316 72.3527 171.181C72.3216 171.058 72.253 170.947 72.1563 170.865C72.0313 170.768 71.8855 170.702 71.7305 170.671C71.5754 170.64 71.4154 170.646 71.2629 170.688C64.3321 171.902 57.3076 172.501 50.2712 172.478C43.2447 172.447 36.2309 171.877 29.2911 170.776C28.8549 170.684 28.4015 170.714 27.9818 170.865C27.8429 170.923 27.7276 171.026 27.6545 171.158C27.5963 171.311 27.5842 171.479 27.6198 171.639C27.7566 172.123 28.0229 172.561 28.39 172.906L27.6198 173.676C27.0893 173.192 26.7129 172.563 26.5377 171.866C26.4305 171.474 26.4698 171.055 26.6484 170.69C26.827 170.324 27.1326 170.036 27.5081 169.879C28.1199 169.636 28.7894 169.579 29.4336 169.713C36.3123 170.804 43.2643 171.367 50.2289 171.396C57.1997 171.423 64.1591 170.827 71.0241 169.617C71.3398 169.546 71.6677 169.55 71.9818 169.627C72.2959 169.705 72.5877 169.854 72.8341 170.064C73.0827 170.281 73.2621 170.566 73.3501 170.884C73.4362 171.197 73.4467 171.525 73.3809 171.843C73.2828 172.205 73.1044 172.54 72.8591 172.823C72.6138 173.106 72.3077 173.331 71.9638 173.48L71.5363 172.49Z" fill="#21305E"/>
<path fill-rule="evenodd" clip-rule="evenodd" d="M33.1938 165.91L44.8661 133.304C39.0241 132.953 32.7817 136.084 26.1657 142.504C22.18 146.239 18.7526 151.203 15.7296 157.068C13.8503 157.241 12.9145 157.068 11.9094 159.021C10.6001 161.555 10.5346 164.096 11.0892 166.642C15.641 163.465 20.6088 165.067 25.7229 168.452L33.1938 165.91Z" fill="#E7F8FA"/>
<path fill-rule="evenodd" clip-rule="evenodd" d="M33.1938 165.91L44.8661 133.304C39.0241 132.953 32.7817 136.084 26.1657 142.504C22.18 146.239 18.7526 151.203 15.7296 157.068C13.8503 157.241 12.9145 157.068 11.9094 159.021C10.6001 161.555 10.5346 164.096 11.0892 166.642C15.641 163.465 20.6088 165.067 25.7229 168.452L33.1938 165.91Z" fill="#B8DAE1"/>
<path fill-rule="evenodd" clip-rule="evenodd" d="M43.3572 132.571L42.4214 131.543C38.1853 133.468 33.9493 135.344 30.1522 138.051C24.5721 142.025 19.4426 148.102 14.9023 156.921L16.5044 157.086C20.0549 149.77 24.8109 143.908 30.7183 139.445C35.2355 136.018 38.2739 134.893 43.3572 132.579V132.571Z" fill="#7DB7B7"/>
<path fill-rule="evenodd" clip-rule="evenodd" d="M22.3341 157.828L17.7168 157.054L28.9693 149.391L33.1399 150.415L22.3341 157.828Z" fill="#FEFEFE"/>
<path fill-rule="evenodd" clip-rule="evenodd" d="M30.7411 170.363C31.8831 161.927 33.4524 153.554 35.4431 145.277C32.7474 151.512 30.7488 160.146 29.166 170.155L30.7411 170.363Z" fill="#7DB7B7"/>
<path fill-rule="evenodd" clip-rule="evenodd" d="M15.9395 157.003C19.9445 148.4 25.952 140.902 35.5448 135.438L37.2161 136.015C28.7439 140.883 21.8777 147.391 16.648 157.061L15.9395 157.003Z" fill="#FEFEFE"/>
<path fill-rule="evenodd" clip-rule="evenodd" d="M23.0827 170.213L17.9609 157.212L22.3934 157.878L33.5612 150.227L36.8577 163.509C34.4469 166.917 31.4971 169.505 27.6153 170.756C26.0872 171.107 24.4848 170.915 23.0827 170.213Z" fill="#78BBCE"/>
<path fill-rule="evenodd" clip-rule="evenodd" d="M32.7093 164.108C33.6027 160.55 32.3588 157.946 30.21 157.48C28.5194 158.062 27.9918 159.645 28.6696 162.275C29.8942 165.464 31.2459 165.93 32.7093 164.108Z" fill="#B6E7F5"/>
<path d="M30.0132 157.198C30.7333 157.067 31.465 157.437 32.0542 158.134C32.6777 158.932 33.0873 159.875 33.2441 160.876C33.4365 161.866 33.3647 162.89 33.0362 163.845C32.7204 164.707 32.162 165.297 31.4303 165.427C30.6986 165.558 29.9785 165.189 29.3893 164.476C28.7637 163.686 28.3538 162.746 28.1994 161.75C28.0091 160.756 28.0767 159.73 28.3958 158.769C28.7231 157.918 29.2815 157.317 30.0132 157.198ZM31.6383 158.484C31.1685 157.937 30.6216 157.645 30.0979 157.714C29.5742 157.783 29.1621 158.269 28.9079 158.946C28.6397 159.817 28.5812 160.739 28.7371 161.636C28.8931 162.534 29.2591 163.381 29.8052 164.11C30.275 164.665 30.818 164.962 31.3456 164.881C31.8732 164.8 32.2814 164.326 32.5356 163.648C32.8057 162.776 32.8652 161.852 32.7093 160.953C32.5533 160.053 32.1863 159.203 31.6383 158.473V158.484Z" fill="#155C68"/>
<path fill-rule="evenodd" clip-rule="evenodd" d="M23.0827 170.216L17.9609 157.215L22.3934 157.881L22.5783 157.75L27.7039 170.724L27.6384 170.743C26.1048 171.104 24.4933 170.918 23.0827 170.216Z" fill="#3F8699"/>
<path fill-rule="evenodd" clip-rule="evenodd" d="M21.6926 183.362C12.2038 183.069 9.59668 176.684 11.0485 166.695C14.4412 164.249 17.9802 164.476 21.604 166.475L23.0828 170.214C29.3907 171.959 33.8347 167.788 37.7434 162.562C41.9333 163.564 42.0873 167.781 40.2081 171.035C35.972 178.378 29.9375 182.745 21.7234 183.389L21.6926 183.362Z" fill="#F7B3AC"/>
<path fill-rule="evenodd" clip-rule="evenodd" d="M35.4558 167.641C31.8205 171.407 26.2135 173.56 21.627 169.651C26.2481 171.704 30.4149 170.421 34.1696 166.855L35.4558 167.641Z" fill="#FFF8F8"/>
<path fill-rule="evenodd" clip-rule="evenodd" d="M21.6926 183.361C12.2038 183.069 9.59668 176.684 11.0485 166.694C14.4412 164.249 17.9802 164.476 21.604 166.475L22.2048 167.992C18.7658 168.581 16.332 169.948 16.0432 172.401C14.757 183.45 30.4959 178.659 37.9321 174.423C33.8809 179.707 28.5666 182.826 21.7003 183.361H21.6926Z" fill="#EB877C"/>
<path fill-rule="evenodd" clip-rule="evenodd" d="M27.838 181.331C22.5968 183.384 16.3967 183.746 12.9809 178.35C11.1902 175.524 10.8821 171.126 11.9412 165.754L10.678 166.524C6.48433 184.239 22.281 188.621 34.6157 178.816C35.8755 177.826 37.0212 176.698 38.0315 175.454C38.147 175.316 38.2664 175.166 38.3858 175.008L38.1778 173.14C35.6514 176.865 32.0421 179.724 27.838 181.331Z" fill="#DB736E"/>
<path d="M17.8796 157.948C17.0823 157.772 16.2724 157.659 15.4574 157.609C14.7637 157.568 14.0679 157.632 13.3932 157.798C12.5784 158.868 11.971 160.082 11.6025 161.376C11.2399 162.777 11.1769 164.239 11.4177 165.666C12.8305 164.848 14.4261 164.397 16.0581 164.356C18.0725 164.363 20.0522 164.881 21.8115 165.862L21.2993 166.825C19.7066 165.927 17.9097 165.453 16.0812 165.45C14.382 165.489 12.7312 166.024 11.333 166.99L10.6667 167.437L10.4896 166.667C10.0818 164.998 10.0639 163.258 10.4372 161.581C10.8106 159.904 11.5651 158.335 12.6423 156.997L12.7501 156.843L12.9234 156.801C13.7622 156.573 14.6319 156.481 15.4997 156.527C16.3741 156.579 17.2432 156.699 18.0991 156.885L17.8796 157.948Z" fill="#7DB7B7"/>
<path d="M22.496 170.112L17.4898 158.093C17.0662 157.08 17.1047 156.991 17.7978 156.414L28.9195 148.893C29.4971 148.508 29.4971 148.958 29.8167 149.359C30.895 149.547 31.9771 149.744 33.0554 149.94L33.9103 149.37L37.0527 163.037L36.2825 164.216L33.2672 150.999L23.4126 157.831L28.0337 170.385L27.0209 170.77L22.2496 158.335L18.8992 157.95L23.6475 170.308L22.496 170.112ZM28.7847 149.775L18.6759 156.849L19.3652 156.926L22.6077 154.819L20.0006 156.991L20.4589 157.045L27.2173 152.678L21.3561 157.145L22.1841 157.23L32.1735 150.529L28.7847 149.775Z" fill="#155C68"/>
<path fill-rule="evenodd" clip-rule="evenodd" d="M34.1346 166.725C35.4369 165.429 36.6344 164.032 37.716 162.547C41.9059 163.548 42.0599 167.765 40.1806 171.019C39.7031 171.847 39.1986 172.644 38.6749 173.395C37.8585 170.122 36.295 167.981 34.123 166.737L34.1346 166.725Z" fill="#521C12"/>
<path fill-rule="evenodd" clip-rule="evenodd" d="M42.0052 165.927C41.6201 163.844 40.149 161.891 37.2878 161.672C36.159 163.441 34.8518 165.091 33.3867 166.593L34.4265 167.271L34.4573 167.294L34.5189 167.337L34.4573 167.294C35.4065 167.899 36.209 168.709 36.8064 169.663C37.4602 170.73 37.9253 171.903 38.1812 173.129L38.3891 174.996C40.1336 172.724 42.5058 168.673 42.0052 165.927ZM40.149 169.859C39.6837 170.771 39.1695 171.656 38.6086 172.512C38.33 171.401 37.8805 170.34 37.2762 169.366C36.6452 168.371 35.812 167.519 34.8308 166.867C35.9413 165.69 36.9706 164.44 37.9116 163.124C39.452 163.701 40.1259 164.237 40.5842 165.403C41.2427 167.063 40.9231 168.373 40.149 169.859Z" fill="#280905"/>
<path fill-rule="evenodd" clip-rule="evenodd" d="M20.8594 169.216C25.6731 172.84 30.1402 171.55 34.4263 167.272L33.3866 166.594C29.9669 169.979 26.0004 171.411 20.8594 169.216Z" fill="#DB736E"/>
<path fill-rule="evenodd" clip-rule="evenodd" d="M94.5462 54.7402C102.198 62.238 109.111 71.3417 114.186 84.5737C117.067 92.1255 113.944 93.5349 109.153 86.8535C102.275 77.2491 97.3844 67.0518 93.2253 56.6503C92.2125 54.1163 91.9583 52.1832 94.5578 54.7248L94.5462 54.7402Z" fill="#F7B3AC"/>
<path fill-rule="evenodd" clip-rule="evenodd" d="M91.8076 53.8298C96.2169 66.0142 101.227 76.9356 107.1 85.9892C113.573 96.0018 118.965 94.6578 114.675 83.4784C109.51 70 102.12 60.8924 93.8601 53.4832C92.57 52.3279 90.7793 50.9723 91.8076 53.8298ZM94.5802 55.4356C99.0859 61.551 102.918 67.9474 105.671 74.7791C101.435 67.674 97.353 61.343 93.4442 55.8746C97.6572 66.9539 102.687 75.9382 107.855 84.1331C113.277 92.7246 116.238 91.835 112.476 82.2345C107.627 69.9114 101.331 62.2095 94.5957 55.4356H94.5802Z" fill="#CC736E"/>
<path fill-rule="evenodd" clip-rule="evenodd" d="M91.0218 33.2273C79.5228 20.0609 58.5658 16.7567 42.7229 23.1031C41.3866 23.6384 40.0696 24.2584 38.7487 24.8168C34.7773 26.533 31.0149 28.6972 27.5347 31.2672C20.4854 36.4556 14.8308 43.3089 11.0756 51.2152C6.9589 60.0263 6.28883 69.3456 7.30549 78.9191C7.80996 83.6404 8.84588 88.2809 9.43893 92.9752C10.1591 98.7208 10.756 104.478 11.3875 110.231C11.8111 114.082 12.1076 117.633 9.5506 120.868C7.42101 123.563 4.04756 124.657 0.693359 124.553C1.09771 124.553 2.74593 126.914 3.13873 127.295C4.0141 128.156 4.95815 128.944 5.9615 129.652C11.3798 133.441 18.4695 133.437 24.8043 132.787C35.7064 131.67 45.9847 128.269 55.8432 123.594C74.2431 114.876 90.217 98.3704 97.53 79.2696C101.061 70.0504 102.351 59.9261 100.018 50.2525C98.4338 43.9358 95.3476 38.0952 91.0218 33.2273Z" fill="#FF618E"/>
<path fill-rule="evenodd" clip-rule="evenodd" d="M52.0501 20.5889C46.6223 21.7249 41.3518 23.5131 36.3535 25.9148C69.1446 17.5851 100.33 28.8531 99.1244 69.7543C99.3863 70.1933 99.6597 70.6169 99.9331 71.0328C103.326 54.9743 99.4517 42.8668 91.0374 33.2278C81.4946 22.4451 68.047 19.1486 52.0655 20.5889H52.0501Z" fill="#FFB8CC"/>
<path d="M92.4309 33.6485C83.6931 23.1815 69.6794 18.5642 56.3357 19.5886C42.6609 20.6437 29.5445 27.1288 19.8401 36.7369C16.895 39.6372 14.3162 42.8872 12.1612 46.4144C4.86748 58.4564 4.94835 72.397 7.54006 85.8061C8.72231 91.9676 9.64269 98.1715 10.3859 104.399C11.029 109.813 12.1381 116.406 8.30255 120.958C7.38947 122.07 6.19161 122.914 4.83667 123.399C4.19356 123.627 3.51978 123.757 2.83801 123.784C2.49331 123.796 2.14824 123.78 1.80595 123.738C1.42873 123.639 1.03457 123.624 0.650662 123.692C-1.01296 124.22 0.974147 126.68 1.52099 127.331C2.34156 128.251 3.25963 129.078 4.25902 129.8C7.40527 132.195 11.0714 133.358 14.957 133.816C21.8233 134.629 29.0054 133.335 35.6522 131.648C49.7544 128.07 63.5178 121.955 74.701 112.528C79.5514 108.469 83.9374 103.885 87.7789 98.8609C91.4242 94.0364 94.4395 88.7669 96.7517 83.1797C98.5688 78.8425 99.9192 74.3243 100.78 69.7013C103.052 57.2934 100.699 43.557 92.4309 33.6485ZM99.8595 61.7606C99.6006 66.8035 98.6454 71.7864 97.0213 76.5676C96.382 78.4854 95.6824 80.3839 94.9225 82.2632C92.9836 87.1377 90.4897 91.7728 87.4901 96.0766C84.34 100.524 80.6277 104.364 76.7074 108.122C66.4214 117.989 53.0586 124.99 39.4069 128.891C35.1042 130.121 30.7162 131.03 26.2789 131.61C25.2853 131.74 24.2918 131.852 23.2982 131.952C17.2522 132.549 10.7787 132.106 5.58376 128.621C4.85654 128.135 4.16541 127.597 3.51579 127.011C3.20386 126.73 2.08322 125.213 1.74434 125.19C13.0007 126.01 12.8852 111.403 12.1112 103.859C11.6683 99.5271 10.9559 95.2294 10.3282 90.924C9.41933 84.7933 7.83658 78.7126 7.63248 72.4932C7.39372 65.2881 8.44503 57.9674 11.4835 51.3861C12.1025 50.0504 12.8008 48.7528 13.5745 47.5004C16.8979 42.1784 21.3381 37.4532 26.1634 33.5021C37.1001 24.6064 50.6325 19.731 64.8271 21.2714C67.2486 21.5291 69.6445 21.9877 71.99 22.6424H72.0285C83.6006 25.8965 93.3667 34.4726 97.4949 45.8368C99.3224 50.9403 100.126 56.354 99.8595 61.7683V61.7606Z" fill="#E03B72"/>
<path fill-rule="evenodd" clip-rule="evenodd" d="M108.451 103.01C109.504 99.0361 109.624 94.6986 108.813 89.9978C108.132 86.048 106.777 82.2445 104.808 78.753C101.5 72.7724 98.1498 68.3823 95.1345 61.9435L90.8984 52.8359C92.5004 61.7779 94.7071 67.5544 99.5208 75.0946C104.334 82.6348 106.241 87.1481 107.881 98.4777L108.451 103.01Z" fill="#FFF8F8"/>
<path fill-rule="evenodd" clip-rule="evenodd" d="M105.671 79.9972L98.4426 68.8524L93.1282 57.596C85.5842 41.6299 67.0802 28.5867 49.1539 35.5839C32.5678 42.0612 22.5167 59.5061 19.952 76.4697C19.0778 82.2461 19.2011 88.4578 17.9148 94.1418C15.3924 105.31 16.4091 116.254 23.5141 126.875C29.9337 134.192 41.2094 137.342 51.1872 138.043C61.7659 138.786 73.5229 137.727 85.7382 130.98C96.544 125.015 100.083 121.414 104.67 115.029C105.652 112.268 107.462 109.831 108.035 107.22C110.284 97.0146 109.433 87.961 105.671 79.9972Z" fill="#F7B3AC"/>
<path fill-rule="evenodd" clip-rule="evenodd" d="M19.782 121.545C16.166 112.58 15.8386 102.675 18.207 92.3125C25.7395 94.3535 30.4146 98.3893 30.4223 105.725C29.4634 112.942 26.5906 118.915 19.782 121.545Z" fill="#EA9794"/>
<path d="M107.296 81.4828C106.567 79.944 105.755 78.4463 104.862 76.9964C103.899 75.4226 102.785 73.7628 101.52 72.0171C101.273 71.6743 101.038 71.3393 100.811 71.0043C97.684 66.4601 96.1551 62.7362 94.7534 59.3011C93.4055 55.997 91.9768 52.7545 89.8588 49.847C82.4418 39.6958 69.7298 31.9631 56.8328 33.1184C45.0604 34.1812 34.994 41.8562 28.5936 51.4683C20.599 63.4795 18.6774 77.7435 17.2333 91.761C16.6017 97.8802 15.5581 103.969 16.1781 110.142C16.8982 117.305 19.4206 123.867 24.2228 128.842C25.4553 130.186 26.8305 131.392 28.3241 132.439C30.2149 133.694 32.2906 134.387 34.3971 135.169C36.8246 136.07 39.3071 136.815 41.8294 137.399C46.8777 138.574 52.0508 139.126 57.2333 139.043C62.4185 138.969 67.5744 138.252 72.5833 136.91C82.8269 134.156 93.1167 129.023 100.522 121.298C104.533 117.092 107.364 111.902 108.729 106.252C110.72 98.377 110.804 88.9575 107.296 81.4828ZM107.034 107.153C105.563 112.231 102.883 116.877 99.2244 120.693C95.6275 124.36 91.3029 127.24 86.7626 129.616C79.825 133.265 72.3268 135.731 64.5772 136.91C60.8676 137.449 57.1161 137.642 53.3708 137.487C49.6072 137.336 45.8672 136.82 42.203 135.947C40.3801 135.509 38.5806 134.978 36.8116 134.357C33.4266 133.167 30.265 131.661 27.4037 129.447C26.6947 128.919 26.0242 128.341 25.3973 127.718C20.8686 123.023 18.4887 116.804 17.8032 110.003C17.1178 103.202 18.3385 96.3244 19.4399 89.5929C20.5143 83.0116 20.9803 76.3032 22.6054 69.8259C24.1438 63.6838 26.7087 57.8458 30.1918 52.5581C33.4544 47.547 37.7391 43.2819 42.7652 40.0424L43.2736 39.7266C47.4349 37.1406 52.1318 35.539 57.0061 35.0439C70.0994 33.8578 84.1363 42.534 90.4287 53.775C91.4932 55.7694 92.4346 57.8271 93.2477 59.9366C94.7881 63.7028 96.4786 67.8195 100.179 72.9837C100.256 73.0838 100.326 73.1839 100.399 73.2879C101.531 74.8783 102.552 76.4033 103.445 77.8628C104.304 79.26 105.087 80.7023 105.79 82.1836C107.365 85.5455 108.101 89.5313 108.313 93.6018C108.544 98.0997 108.355 102.821 107.034 107.153Z" fill="#EA7E78"/>
<path fill-rule="evenodd" clip-rule="evenodd" d="M47.1708 59.8003C50.0102 58.0442 53.2669 57.6591 56.9407 58.645C59.9752 59.4652 59.0356 62.5537 56.3823 61.7797C53.4517 60.9474 50.3423 60.9849 47.4326 61.8875C44.244 62.7963 45.5764 60.7746 47.1708 59.7926V59.8003Z" fill="#541817"/>
<path fill-rule="evenodd" clip-rule="evenodd" d="M86.6547 88.523C79.8963 89.1893 73.0184 91.8734 66.0019 96.9182C56.698 105.248 55.3579 113.454 62.5361 121.534C72.3175 130.322 83.0926 131.931 94.6725 127.614C104.685 121.152 108.089 112.384 107.797 102.321C106.387 90.1173 97.6107 87.8568 86.6624 88.523H86.6547Z" fill="#FCE8E8"/>
<path fill-rule="evenodd" clip-rule="evenodd" d="M86.6541 88.523C79.8957 89.1893 73.0178 91.8734 66.0014 96.9182C65.9436 96.9721 65.8781 97.026 65.8242 97.0799C71.9858 93.1288 78.028 90.9684 83.9777 90.3908C94.926 89.713 103.702 91.9735 105.112 104.189C105.374 113.323 102.589 121.403 94.5679 127.645L94.6642 127.614C104.677 121.152 108.081 112.384 107.788 102.321C106.379 90.1173 97.6025 87.8568 86.6541 88.523Z" fill="white"/>
<path fill-rule="evenodd" clip-rule="evenodd" d="M62.9436 99.9727C56.5009 107.255 56.2314 114.448 62.5277 121.538C72.3092 130.326 83.0842 131.936 94.6641 127.619C98.6922 125.019 101.65 122.039 103.725 118.762C101.808 120.893 99.6053 122.749 97.1788 124.276C85.5989 128.608 74.8431 126.991 65.0424 118.195C59.7165 112.2 59.0926 106.13 62.9359 99.9842L62.9436 99.9727Z" fill="#E6C8C8"/>
<path fill-rule="evenodd" clip-rule="evenodd" d="M62.8558 98.8503C70.3998 91.2061 81.9258 87.0278 92.8202 87.5939C109.98 88.4873 112.46 107.496 103.453 120.712C97.7918 129.007 90.0052 131.934 79.9849 130.81C64.504 129.077 48.2837 113.619 62.8558 98.8464V98.8503ZM64.1112 99.5242C71.2163 92.4846 82.0567 88.6298 92.3196 89.1535C108.494 89.9738 110.804 107.496 102.332 119.653C96.9947 127.317 89.6817 130.024 80.2391 128.988C65.6555 127.382 50.3825 113.137 64.1151 99.5242H64.1112Z" fill="#EA7E78"/>
<path fill-rule="evenodd" clip-rule="evenodd" d="M67.322 104.243C67.7687 101.763 68.7815 100.411 70.2564 99.9648C72.594 99.8762 73.7608 101.328 74.1536 103.816C73.9457 107.301 72.7557 109.492 69.8521 109.461C67.7341 108.926 66.9369 107.151 67.322 104.255V104.243Z" fill="#EDB4B4"/>
<path fill-rule="evenodd" clip-rule="evenodd" d="M67.3227 104.243C67.7694 101.763 68.7822 100.411 70.2572 99.9647C72.3097 99.8877 73.4573 100.989 73.9695 102.934C73.3264 102.048 72.3636 101.578 71.0004 101.625C69.537 102.083 68.5204 103.423 68.0621 105.903C67.9357 106.735 67.9357 107.582 68.0621 108.414C67.2919 107.505 67.057 106.103 67.3112 104.243H67.3227Z" fill="#CF8080"/>
<path fill-rule="evenodd" clip-rule="evenodd" d="M92.0882 98.1076C90.6248 96.2168 90.5478 94.6417 91.5991 93.3247C92.8969 92.1694 94.522 92.1694 96.6632 93.9023C98.2998 95.4196 99.2626 97.0255 98.3538 98.8701C96.6516 100.572 94.5875 100.41 92.0882 98.0999V98.1076Z" fill="#EDB4B4"/>
<path fill-rule="evenodd" clip-rule="evenodd" d="M90.9986 96.0321C90.8721 95.5678 90.8608 95.0796 90.9654 94.6099C91.0701 94.1402 91.2877 93.7031 91.5993 93.3364C92.8971 92.1811 94.5222 92.1811 96.6633 93.9141C98.1036 95.2581 99.0201 96.6675 98.5888 98.2387C98.327 97.2683 97.6068 96.3594 96.6633 95.4776C94.5222 93.7408 92.8971 93.7639 91.5993 94.8999C91.3208 95.239 91.1162 95.6325 90.9986 96.0552V96.0321Z" fill="#CF8080"/>
<path fill-rule="evenodd" clip-rule="evenodd" d="M34.1235 113.424L38.1324 113.574C39.8461 113.64 40.3698 115.18 38.0438 114.918L37.1697 114.822C39.4802 121.796 43.2388 124.939 47.9524 125.52C51.5453 125.967 49.2617 126.71 47.2977 126.456C41.9487 125.782 37.8205 122.254 35.4329 114.626L34.1312 114.483C32.2982 114.275 32.6717 113.37 34.1312 113.424H34.1235Z" fill="#CC5754"/>
<path fill-rule="evenodd" clip-rule="evenodd" d="M82.6679 52.5953C79.5448 51.3938 76.2715 51.6479 72.8557 53.3039C70.029 54.6825 71.5348 57.5399 73.9878 56.2845C76.7102 54.9165 79.7706 54.3667 82.7989 54.7018C86.0953 54.9867 84.4163 53.2615 82.6679 52.5953Z" fill="#541817"/>
<path fill-rule="evenodd" clip-rule="evenodd" d="M88.1906 64.6278C86.6194 60.6112 83.2575 59.2364 78.3667 60.1722C74.8508 61.3506 73.0639 63.9846 73.915 68.8638C75.9984 73.8393 78.9444 76.9509 83.5963 76.3386C88.7374 74.1782 89.7001 70.0076 88.1906 64.6278Z" fill="white"/>
<path fill-rule="evenodd" clip-rule="evenodd" d="M88.1906 64.6278C86.6194 60.6112 83.2575 59.2364 78.3667 60.1722C74.8508 61.3506 73.0639 63.9846 73.915 68.8638C74.1538 69.4299 74.4041 69.9768 74.6659 70.4889C73.9227 65.783 75.7134 63.2183 79.1639 62.0746C83.4654 61.2543 86.5885 62.2132 88.3446 65.1823C88.2907 64.9974 88.2483 64.7972 88.1906 64.6278Z" fill="#CBEBEF"/>
<path fill-rule="evenodd" clip-rule="evenodd" d="M87.0468 61.7455C85.2984 59.8777 82.6451 58.9497 79.7646 59.2115C75.956 59.5389 74.1229 61.6993 73.3565 63.852C70.9535 70.6181 80.8467 81.8822 87.4819 73.9377C90.3201 70.5411 90.0043 64.911 87.0468 61.7455ZM86.4768 62.6813C84.9364 60.9791 82.6258 60.1396 80.0919 60.3707C76.7531 60.6788 75.1357 62.6428 74.4695 64.6067C72.363 70.7876 81.0161 81.0697 86.8504 73.8106C89.3381 70.7298 89.0647 65.581 86.4653 62.6851L86.4768 62.6813Z" fill="#541817"/>
<path fill-rule="evenodd" clip-rule="evenodd" d="M83.4237 60.2833L82.7344 59.7904C83.5391 59.261 84.2389 58.5873 84.7985 57.8033C85.9538 56.1435 87.0012 57.7186 85.6495 58.9586C84.9984 59.5394 84.2432 59.9915 83.4237 60.291V60.2833Z" fill="#541817"/>
<path fill-rule="evenodd" clip-rule="evenodd" d="M84.7737 60.8458L84.25 60.1911C85.1665 59.8881 86.021 59.4223 86.7724 58.8163C88.3128 57.5262 88.9212 59.3169 87.2845 60.1488C86.4982 60.5351 85.6467 60.7714 84.7737 60.8458Z" fill="#541817"/>
<path fill-rule="evenodd" clip-rule="evenodd" d="M84.12 64.902C82.6451 67.1395 79.7646 65.938 80.0804 62.9766C73.2141 66.3154 79.884 75.0032 84.2394 70.1817C85.5179 68.7723 85.5411 67.0239 84.12 64.8866V64.902Z" fill="#541817"/>
<path fill-rule="evenodd" clip-rule="evenodd" d="M40.4125 73.402C41.0132 70.3212 42.9233 68.053 45.9271 66.4048C53.0206 64.0673 58.1539 65.4883 60.8689 71.5574C61.5582 78.1041 59.5826 82.8754 54.1566 85.4209C47.2018 88.675 38.7527 81.8511 40.4125 73.402Z" fill="white"/>
<path fill-rule="evenodd" clip-rule="evenodd" d="M40.4122 73.402C41.013 70.3212 42.9231 68.053 45.9268 66.4048C53.0203 64.0673 58.1537 65.4883 60.8686 71.5574C60.9456 72.2544 60.9918 72.9322 60.9995 73.5984C58.2384 67.7757 53.1513 66.4164 46.1887 68.7192C43.1849 70.3675 41.2633 72.6472 40.6741 75.7165C40.5355 76.4282 40.4658 77.1517 40.4662 77.8769C40.1373 76.4052 40.1189 74.8812 40.4122 73.402Z" fill="#CBEBEF"/>
<path fill-rule="evenodd" clip-rule="evenodd" d="M42.4252 68.9013L43.1145 68.4122C42.3115 67.8807 41.6121 67.2073 41.0504 66.4251C39.8951 64.7654 38.8477 66.3366 40.1994 67.5804C40.8495 68.1625 41.6051 68.6148 42.4252 68.9129V68.9013Z" fill="#541817"/>
<path fill-rule="evenodd" clip-rule="evenodd" d="M41.7093 70.379L42.2023 69.6088C41.1959 69.3922 40.2378 68.9928 39.3757 68.4304C37.585 67.2289 37.1498 69.2006 38.9713 69.9054C39.8469 70.2296 40.7759 70.3851 41.7093 70.3636V70.379Z" fill="#541817"/>
<path fill-rule="evenodd" clip-rule="evenodd" d="M54.7139 72.9216C52.6806 74.462 50.3546 72.9447 51.6331 70.1836C45.2251 69.1438 44.0275 75.7944 46.9388 78.4555C48.8643 80.2038 52.3764 80.1614 53.9476 78.0704C54.8641 76.8689 55.1722 74.9703 54.7178 72.9062L54.7139 72.9216Z" fill="#541817"/>
<path fill-rule="evenodd" clip-rule="evenodd" d="M39.734 73.2946C40.0718 71.6507 40.8114 70.116 41.8867 68.8275C46.065 63.8828 54.2445 62.8046 59.1236 67.5182C65.5394 73.7182 59.0043 89.1337 47.8018 86.1068C42.137 84.5664 38.4247 79.1751 39.734 73.2946ZM40.7622 73.9493C41.0715 72.4501 41.7417 71.049 42.7146 69.8672C46.504 65.3231 53.8825 64.3296 58.2918 68.6542C64.0991 74.3421 58.184 88.4559 48.0636 85.6832C42.9457 84.2853 39.5915 79.306 40.7468 73.9493H40.7622Z" fill="#541817"/>
<path fill-rule="evenodd" clip-rule="evenodd" d="M38.4877 91.3909C36.2079 88.7607 35.4647 85.9687 37.5403 82.8879C41.0062 79.1101 45.3347 77.6159 49.8634 76.6994C54.7311 76.2642 58.8247 76.3605 62.1866 76.9728C63.8369 75.7344 65.7153 74.8336 67.7143 74.3222C69.7132 73.8107 71.7934 73.6986 73.8358 73.9922C79.7624 70.7073 85.9394 68.2157 92.9173 68.2504C97.9929 68.828 98.844 72.1899 96.8569 77.4311C95.1548 82.5606 90.7454 84.6016 84.9805 85.083C79.3157 84.0355 75.7882 81.4592 73.2658 78.1512C70.4854 77.6159 68.0477 78.2475 66.0067 80.1152C65.5177 87.0239 62.9837 91.6681 58.7476 94.3638C51.7196 97.3907 44.9072 97.2135 38.4761 91.3832L38.4877 91.3909ZM80.5056 80.0189C78.738 79.0138 77.4711 77.847 77.9948 76.0755C82.5236 72.9023 87.1755 71.7316 91.9661 72.4518C94.0957 73.1411 94.4231 74.6699 93.0791 76.9728C89.9059 81.042 85.7147 82.0574 80.5056 80.0189ZM44.372 91.1213C50.029 93.532 55.3126 92.9313 60.0608 88.3139C62.2097 84.7133 62.46 82.1023 59.6757 81.078C55.1893 80.0382 49.9713 80.7622 44.0446 83.2037C40.3977 86.065 40.3669 88.7067 44.3604 91.1213H44.372Z" fill="#804E73"/>
<path d="M73.8504 74.7072C71.8819 74.3101 69.8498 74.3548 67.9006 74.8382C65.9886 75.3414 64.1963 76.2212 62.6287 77.426L62.4323 77.5762L62.2012 77.5338C59.7008 77.0324 57.1527 76.809 54.6032 76.8676C52.0638 76.929 49.5399 77.2843 47.0823 77.9266C45.5993 78.3264 44.1557 78.8601 42.7692 79.521C40.9823 80.3836 39.2455 81.5081 38.0864 82.8944C36.985 84.2153 36.4266 85.7634 36.8888 87.5425C36.992 87.9343 37.1339 88.3149 37.3124 88.6786C37.6669 89.4143 38.1105 90.1036 38.6332 90.7311C40.6974 93.2227 43.9399 94.8709 47.4212 95.5564C50.9025 96.2419 54.6032 95.9415 57.5608 94.5089C58.3631 94.1308 59.1148 93.6534 59.7982 93.0879C61.4768 91.6609 62.796 89.8588 63.6492 87.8275C64.6995 85.2607 65.3226 82.5393 65.4938 79.7713L65.5169 79.5325L65.7017 79.39C66.6765 78.6216 67.8106 78.0808 69.0213 77.8073C70.3981 77.5164 71.8123 77.4462 73.2111 77.5993L73.4499 77.6224L73.6039 77.8188C75.953 80.9728 79.3804 83.2988 82.9926 84.1075C84.6509 84.5129 86.3778 84.5506 88.0523 84.218C89.7267 83.8854 91.3081 83.1905 92.6855 82.182C93.2227 81.791 93.7206 81.3486 94.172 80.8611C94.6212 80.3835 95.0093 79.8518 95.3273 79.2783C96.6828 76.8445 97.4453 74.3337 97.2528 72.3466C97.1938 71.725 97.0049 71.1228 96.6982 70.579C96.3788 70.057 95.9254 69.6301 95.385 69.3428C94.3491 68.7652 92.8319 68.5149 90.7639 68.7421C87.8727 69.0522 85.0287 69.7051 82.2917 70.6868C79.4712 71.7189 76.7681 73.0472 74.2278 74.6495L74.0391 74.7573L73.8504 74.7072ZM56.521 81.0729C54.7681 81.1227 53.0207 81.2938 51.2914 81.5851C49.5385 81.8754 47.8116 82.3055 46.1272 82.8713C44.3365 83.4836 43.1158 84.3347 42.4265 85.2859C41.9929 85.8335 41.7655 86.5159 41.7838 87.2141C41.8021 87.9123 42.065 88.5819 42.5266 89.106C43.2698 90.0457 44.556 90.8505 46.3467 91.3665C46.6625 91.4513 46.9475 91.5283 47.2325 91.5938C50.0113 92.2336 52.9191 92.0133 55.5698 90.9622C56.8518 90.4652 58.0021 89.6797 58.9317 88.6666C59.8613 87.6536 60.5452 86.4401 60.9304 85.1203C60.9843 84.9239 61.0382 84.7352 61.0844 84.5195C61.1494 84.2224 61.1778 83.9185 61.1691 83.6145C61.1736 83.0703 60.9665 82.5456 60.5915 82.1512C60.0893 81.6729 59.4544 81.3575 58.77 81.2462C58.0311 81.0904 57.275 81.0322 56.521 81.0729ZM51.1297 80.503C52.9055 80.2094 54.6988 80.0344 56.4979 79.9792C57.3397 79.9422 58.1829 80.0081 59.0088 80.1756C59.9067 80.3365 60.7357 80.7631 61.3886 81.4002C61.9554 81.9891 62.2727 82.7742 62.2744 83.5914C62.2856 83.9801 62.2455 84.3686 62.155 84.7467C62.1088 84.9739 62.0549 85.1934 61.9894 85.4129C61.0613 88.6439 58.7931 90.8043 56.0088 91.9596C53.1483 93.0914 50.012 93.3303 47.013 92.6451C46.6741 92.5681 46.3583 92.491 46.0618 92.4063C44.0323 91.8287 42.5689 90.8659 41.6871 89.7838C41.0899 89.0627 40.745 88.166 40.7051 87.2306C40.6894 86.2932 40.9891 85.3778 41.5561 84.6312C42.3725 83.5106 43.782 82.517 45.7922 81.8392C47.5332 81.2516 49.3179 80.8022 51.1297 80.4952V80.503ZM83.7127 80.5684C85.3541 80.7618 87.0177 80.5379 88.5496 79.9176C90.051 79.3512 91.3738 78.394 92.3813 77.1449C92.8402 76.5722 93.1675 75.9057 93.3402 75.1925C93.4462 74.7405 93.3932 74.2659 93.19 73.8485C92.9676 73.4466 92.6061 73.1398 92.1733 72.9858C91.5094 72.7341 90.7976 72.6341 90.09 72.6932C88.4408 72.7569 86.8023 72.9865 85.1992 73.3786C83.3749 73.8258 81.6168 74.5093 79.9696 75.412C79.4093 75.6561 78.9318 76.0574 78.5948 76.5673C78.5085 76.7242 78.4633 76.9004 78.4633 77.0794C78.4633 77.2585 78.5085 77.4347 78.5948 77.5916C78.8605 78.0641 79.229 78.4707 79.6731 78.7816C80.8645 79.6803 82.2467 80.293 83.7127 80.5723V80.5684ZM88.9308 80.9189C87.3197 81.6418 85.5399 81.9049 83.7885 81.6793C82.0371 81.4537 80.3822 80.748 79.0069 79.6403C78.4297 79.2306 77.9552 78.6928 77.6205 78.0691C77.4563 77.7596 77.3704 77.4145 77.3704 77.064C77.3704 76.7136 77.4563 76.3685 77.6205 76.0589C78.0597 75.3498 78.697 74.7849 79.4536 74.4338C81.1856 73.4922 83.0311 72.7766 84.9451 72.3042C86.6126 71.9093 88.3156 71.6823 90.0284 71.6265C90.8958 71.5549 91.7682 71.6786 92.5815 71.9884C93.2475 72.247 93.8029 72.7289 94.1527 73.3517C94.4706 73.9947 94.559 74.7272 94.4031 75.4274C94.197 76.2981 93.8027 77.1131 93.2478 77.815C92.1145 79.225 90.6256 80.3071 88.9347 80.9497L88.9308 80.9189ZM67.6234 73.7791C69.6574 73.2758 71.7761 73.2167 73.835 73.6059C76.3935 72.0122 79.1117 70.6906 81.9451 69.6625C84.7487 68.6404 87.666 67.9628 90.6329 67.6445C92.9435 67.4058 94.6842 67.6985 95.9165 68.3878C96.6205 68.7654 97.2088 69.3271 97.6186 70.0129C98.0181 70.6887 98.2615 71.4452 98.3311 72.2272C98.5698 74.4338 97.7418 77.1642 96.29 79.7944C95.9221 80.4365 95.4857 81.0369 94.9884 81.5851C94.4886 82.1226 93.9365 82.609 93.3402 83.0369C91.8432 84.1462 90.1212 84.9139 88.2955 85.2858C86.4698 85.6577 84.5848 85.6249 82.7731 85.1896C78.8312 84.2179 75.3427 81.9217 72.8915 78.6853C71.6878 78.5671 70.473 78.6372 69.2908 78.8932C68.3164 79.106 67.3979 79.522 66.5952 80.114C66.3987 82.9228 65.7484 85.6811 64.6697 88.2819C63.748 90.4814 62.3142 92.4289 60.4875 93.9621C59.7364 94.5765 58.9109 95.094 58.0306 95.5025C54.8535 97.0429 50.914 97.3587 47.2132 96.6578C43.5124 95.9569 40.0273 94.1315 37.7937 91.4359C37.2126 90.7429 36.7209 89.9795 36.3304 89.1638C36.1203 88.7379 35.9551 88.2914 35.8374 87.8314C35.2713 85.6594 35.9376 83.784 37.2584 82.2128C38.5139 80.6724 40.3893 79.4709 42.3032 78.5544C43.7504 77.8626 45.2588 77.3069 46.8089 76.8946C49.3476 76.2264 51.9557 75.8568 54.5801 75.7932C57.1281 75.7324 59.6752 75.9441 62.1781 76.4248C63.8092 75.2071 65.6591 74.3142 67.6272 73.7946L67.6234 73.7791Z" fill="#603156"/>
<path fill-rule="evenodd" clip-rule="evenodd" d="M68.0517 27.4047C58.5821 26.4189 49.0163 28.9451 40.3747 33.0156C34.8447 35.6073 29.6305 39.258 25.5754 43.9216C17.2573 53.472 14.6733 66.9427 14.192 79.2388C14.061 82.6277 14.0495 86.0204 14.0533 89.4131C14.0533 92.2821 14.5655 95.1087 14.889 97.9507L18.5936 92.8328C19.0455 90.8123 19.5769 88.7392 20.1879 86.6135C27.3469 67.3008 37.8601 58.2202 49.1781 51.5696C46.44 57.5964 41.788 63.4383 34.683 69.0684L34.9757 70.3354C52.5554 64.9209 64.2431 53.9264 74.0515 41.1643L80.3363 30.474C80.3864 30.1543 74.9026 28.7564 74.3673 28.6024C72.3006 28.0217 70.1875 27.621 68.0517 27.4047Z" fill="#FF618E"/>
<path d="M79.9235 31.1708C79.6848 31.0206 75.9031 36.8241 75.5604 37.3324C75.0443 38.1026 74.5514 38.9036 74.0508 39.6892C70.0714 45.9303 65.1164 51.4925 59.3747 56.1637C53.1939 61.1699 46.0773 65.2443 38.0788 68.4021C34.9749 69.6228 35.3254 69.6883 37.9248 67.3623C40.6906 64.9217 43.2393 62.2455 45.542 59.3638C47.578 56.8144 49.3435 54.0603 50.8102 51.1458L52.0117 48.7351L49.6934 50.0637C43.2738 53.7337 37.3703 58.197 32.2677 63.9272C27.3715 69.4467 23.4868 75.7861 20.7918 82.6545C19.4632 86.0665 18.5814 89.6402 17.2143 93.0521C16.2121 95.542 14.9195 97.9049 13.3633 100.092C14.0218 99.1636 15.127 98.4127 15.8741 97.527C17.3804 95.7406 18.5708 93.7102 19.3939 91.5233C20.1179 89.6594 20.7186 87.7493 21.2924 85.8354C21.8595 84.1392 22.5348 82.4812 23.3142 80.8715C24.7459 77.6809 26.4343 74.6119 28.3628 71.6946C29.9099 69.3526 31.6201 67.1225 33.4808 65.0209C37.6884 60.3365 42.5573 56.2914 47.9335 53.0136C46.8346 54.8751 45.6083 56.6585 44.2635 58.351C42.013 61.1575 39.5292 63.7688 36.8388 66.1569C34.1008 68.5907 32.7683 69.9771 33.0417 70.7781C33.3999 71.7716 35.1906 71.3134 38.6719 69.9501C46.8167 66.7269 54.0758 62.5909 60.3952 57.4499C66.2007 52.726 71.2228 47.1139 75.2754 40.8214C76.4653 38.9806 77.2625 36.9704 78.2098 35.0064C78.6142 34.1707 79.0185 33.3389 79.4075 32.4956C79.5808 32.1105 79.912 31.6175 79.9312 31.1862C79.9312 31.1939 79.9274 31.1939 79.9235 31.1708Z" fill="#E03B72"/>
<path fill-rule="evenodd" clip-rule="evenodd" d="M15.2553 43.4157C10.9653 32.8949 11.3042 24.1609 14.9049 16.6707C19.3836 10.1895 22.4374 10.8943 24.5015 16.6707C24.9829 24.1917 27.0893 30.6536 32.5577 36.0796C33.9556 38.86 33.4203 42.0949 29.993 46.0113C27.7209 47.9868 24.6671 49.0343 20.4618 48.9265C17.7007 48.5414 16.0833 46.5581 15.2553 43.435V43.4157Z" fill="#EADDDC"/>
<path fill-rule="evenodd" clip-rule="evenodd" d="M12.9394 36.1143C12.2849 33.2257 12.0258 30.2616 12.1692 27.3033C17.1755 28.0234 21.7966 27.0953 25.8247 24.673C26.4806 26.9769 27.4498 29.1797 28.7053 31.2197C24.6695 35.2132 19.4052 36.819 12.9432 36.0989L12.9394 36.1143ZM13.4554 20.2637C13.8597 19.037 14.3408 17.837 14.8957 16.6707C19.3744 10.1895 22.4282 10.8943 24.4923 16.6707C24.5347 17.3446 24.5924 18.0109 24.6579 18.6655C21.1134 20.1165 17.2643 20.6656 13.4554 20.2637ZM31.7475 35.217C32.0094 35.502 32.2828 35.787 32.5563 36.0604C33.9542 38.8408 33.4189 42.0756 29.9915 45.992C27.7194 47.9676 24.6656 49.0151 20.4603 48.9072C17.8417 48.5452 16.2474 46.7237 15.3848 43.874C23.8569 44.0049 29.3112 41.1193 31.7475 35.217Z" fill="#B79C9C"/>
<path fill-rule="evenodd" clip-rule="evenodd" d="M22.2862 12.9492C21.1579 26.185 25.34 35.2155 32.5144 41.897C33.6466 39.8906 33.6042 37.2373 32.0215 35.489C26.9112 29.8242 24.6237 23.1042 24.0538 15.6988C23.9537 14.3895 23.1488 13.7733 22.2862 12.9492Z" fill="#FFF8F8"/>
<path d="M14.0338 20.8401C13.476 22.8304 13.1174 24.8712 12.9632 26.9324C15.2374 27.202 17.5416 27.0571 19.7641 26.5049C21.4842 26.0748 23.1554 25.4682 24.7511 24.6949C24.2419 22.9625 23.9268 21.1788 23.8114 19.3768C22.3323 19.9444 20.7976 20.3549 19.2326 20.6014C17.5195 20.8533 15.7842 20.9191 14.0569 20.7978L14.0338 20.8401ZM16.0748 43.272C19.2512 43.6222 22.4611 43.0457 25.3172 41.6123C27.8517 40.3271 29.8531 38.1908 30.9704 35.5778C29.997 34.4922 29.0964 33.3434 28.2747 32.1389C26.199 33.9129 23.7748 35.2326 21.1581 36.013C18.767 36.7435 16.2469 36.9523 13.7681 36.6253C14.34 38.9049 15.1132 41.1292 16.0787 43.272H16.0748ZM31.575 36.2325C30.3562 38.8673 28.2881 41.0167 25.7023 42.3363C22.8472 43.7787 19.6469 44.3974 16.4599 44.1231C16.7872 44.824 17.1338 45.5326 17.5074 46.2334C17.8809 46.9343 18.7089 47.4118 19.6793 47.7045C21.0642 48.0854 22.5124 48.1784 23.9347 47.9779C25.1508 47.8075 26.3254 47.416 27.4005 46.8226C28.3908 46.266 29.2748 45.5385 30.0115 44.6738C31.1656 43.2106 31.9917 41.5164 32.4338 39.706C32.7072 38.4853 32.6841 37.3608 32.0718 36.7254C31.91 36.5637 31.7444 36.3865 31.5827 36.2132L31.575 36.2325ZM13.5948 35.7742C16.0535 36.1415 18.563 35.9587 20.9425 35.2389C23.4827 34.4755 25.833 33.1842 27.8396 31.4496C27.2063 30.4491 26.634 29.4113 26.1259 28.3418C25.6982 27.4106 25.3253 26.4552 25.0091 25.4805C23.3925 26.2545 21.7024 26.8647 19.9643 27.3021C17.657 27.8648 15.2674 28.0083 12.9093 27.7257C12.8187 29.6557 12.9128 31.59 13.1904 33.5021C13.2906 34.2454 13.433 34.9963 13.5948 35.7511V35.7742ZM23.7575 18.5141C23.5611 15.8955 22.9296 14.2357 22.0669 13.3731C21.8694 13.1617 21.631 12.9927 21.3663 12.8762C21.1015 12.7597 20.8158 12.6982 20.5265 12.6953C19.8288 12.7391 19.1593 12.9868 18.6011 13.4077C16.9413 14.563 15.3123 16.8736 14.2995 20.0006C15.9073 20.0987 17.521 20.0251 19.1132 19.7811C20.7105 19.5414 22.2743 19.1162 23.7729 18.5141H23.7575ZM11.5769 33.7563C10.9304 29.295 11.2282 24.7477 12.4511 20.4088C13.5409 16.4577 15.5703 13.4771 17.6576 12.0561C18.4957 11.4505 19.4934 11.105 20.5265 11.0625C21.0306 11.0632 21.5292 11.166 21.9925 11.3645C22.4558 11.5631 22.8741 11.8533 23.2222 12.2178C24.4006 13.4077 25.244 15.5912 25.4173 18.9531C25.5833 21.967 26.3285 24.9207 27.6123 27.6525C29.0288 30.6 30.9293 33.2893 33.2348 35.6086C34.3053 36.7023 34.3901 38.3621 34.005 40.0757C33.4902 42.1453 32.5455 44.0833 31.2323 45.7636C30.3645 46.7697 29.3302 47.619 28.1746 48.2745C26.9321 48.9476 25.58 49.3949 24.1811 49.5953C22.5163 49.8238 20.8224 49.7125 19.2018 49.268C17.8501 48.8829 16.6602 48.1512 16.0594 46.9959C13.7103 42.5519 12.1815 38.1657 11.5615 33.7563H11.5769Z" fill="#704747"/>
<path fill-rule="evenodd" clip-rule="evenodd" d="M87.4984 26.1874C88.1299 16.017 85.3341 8.69244 80.1391 3.37425C74.4859 -0.861825 72.0944 0.62465 71.9866 6.09303C73.7196 12.6397 73.785 18.7127 70.685 24.8896C70.2999 27.6508 71.6785 30.2502 75.7182 32.5916C78.2059 33.6198 81.1096 33.639 84.6486 32.3413C86.886 31.2283 87.6832 29.0679 87.4984 26.1797V26.1874Z" fill="#EADDDC"/>
<path fill-rule="evenodd" clip-rule="evenodd" d="M87.3674 19.3016C87.103 16.6616 86.4784 14.0703 85.5112 11.5996C81.7145 13.594 77.3369 14.1884 73.1458 13.2787C73.2516 15.4229 73.0612 17.5715 72.5797 19.6636C77.1521 21.8997 82.0787 21.7791 87.3597 19.3016H87.3674ZM82.3881 5.98493C81.6997 5.05765 80.9482 4.17883 80.1391 3.35471C74.4859 -0.881357 72.0944 0.605119 71.9866 6.0735C72.1368 6.6627 72.2793 7.22879 72.4102 7.81799C75.8366 8.04215 79.2651 7.4123 82.3881 5.98493ZM71.1356 23.9228C70.9931 24.2385 70.8506 24.5543 70.685 24.8701C70.2999 27.6313 71.6785 30.2307 75.7182 32.5721C78.2059 33.6003 81.1096 33.6195 84.6486 32.3217C86.7667 31.2627 87.6062 29.2641 87.5176 26.5915C80.3574 29.1254 74.8967 28.2346 71.1356 23.9189V23.9228Z" fill="#B79C9C"/>
<path fill-rule="evenodd" clip-rule="evenodd" d="M87.3944 26.9555C88.4534 18.441 85.442 11.9367 83.347 7.70059C81.1635 3.26812 78.1829 1.15393 74.459 1.20399C81.3907 4.69683 86.293 14.5861 83.967 32.6087C86.6435 31.4534 87.6024 29.4778 87.3944 26.967V26.9555Z" fill="#FFF8F8"/>
<path d="M82.0837 6.63869C83.1216 8.17219 84.0064 9.80383 84.7255 11.5102C82.8711 12.3872 80.874 12.9233 78.8296 13.0929C77.2433 13.224 75.6473 13.1827 74.0698 12.9697C74.0044 11.3552 73.7629 9.75271 73.3497 8.19064C74.7675 8.25653 76.1882 8.16483 77.5858 7.91722C79.1164 7.6432 80.6129 7.20419 82.0491 6.60789L82.0837 6.63869ZM86.755 26.2787C84.1576 27.4917 81.2637 27.9238 78.4253 27.5225C75.9053 27.1497 73.5957 25.9057 71.8979 24.0066C72.4092 22.8059 72.8426 21.5737 73.1957 20.3174C75.4649 21.2325 77.9019 21.6577 80.3469 21.5651C82.5864 21.5012 84.786 20.9575 86.7973 19.9708C86.9753 22.0677 86.9612 24.1766 86.755 26.271V26.2787ZM71.5706 24.7383C73.3631 26.6298 75.7392 27.8639 78.3175 28.2427C81.1509 28.6488 84.0414 28.2595 86.6664 27.1182C86.5893 27.8075 86.4931 28.5045 86.3853 29.2131C86.2774 29.9217 85.6959 30.5571 84.9642 31.0808C83.8938 31.8023 82.6866 32.2964 81.4175 32.5326C80.3431 32.7364 79.2406 32.7442 78.1634 32.5558C77.1614 32.3637 76.2008 31.9975 75.3253 31.4736C73.9316 30.5585 72.7498 29.3557 71.8594 27.9461C71.2779 26.9872 70.9736 26.0206 71.3125 25.3159C71.4011 25.1195 71.4858 24.9308 71.5744 24.7383H71.5706ZM86.7203 19.2044C84.7357 20.2171 82.5509 20.7761 80.3238 20.8411C77.9519 20.9278 75.5888 20.5076 73.3921 19.6088C73.6422 18.5765 73.8274 17.5295 73.9466 16.4741C74.0577 15.558 74.1092 14.6357 74.1006 13.7129C75.6933 13.9149 77.3027 13.951 78.9028 13.8208C81.0215 13.6451 83.0914 13.0908 85.0143 12.1841C85.643 13.8049 86.1188 15.4809 86.4353 17.1904C86.5547 17.8566 86.6548 18.5305 86.728 19.2198L86.7203 19.2044ZM73.1456 7.4474C72.568 5.16762 72.6219 3.57332 73.1032 2.59132C73.2121 2.35786 73.3667 2.14861 73.5578 1.97597C73.749 1.80332 73.9729 1.67079 74.2162 1.58622C74.8291 1.41425 75.4794 1.429 76.0839 1.62858C77.8053 2.10995 79.8463 3.61568 81.6177 5.99558C80.2772 6.54025 78.8832 6.94295 77.4587 7.19708C76.0358 7.44932 74.5881 7.53334 73.1456 7.4474ZM87.8563 16.9131C87.1322 12.9363 85.5772 9.15712 83.2929 5.82229C81.2326 2.77617 78.6718 0.81602 76.4844 0.219119C75.6015 -0.062143 74.6546 -0.0728722 73.7656 0.188312C73.3358 0.331688 72.9399 0.561424 72.6022 0.863406C72.2644 1.16539 71.992 1.53324 71.8016 1.94436C71.1354 3.2999 71.0314 5.38328 71.8555 8.28691C72.5868 10.8954 72.8013 13.6216 72.4871 16.3123C72.1237 19.2222 71.2791 22.0515 69.9878 24.6844C69.387 25.9167 69.7799 27.3569 70.6001 28.7009C71.6198 30.3174 72.9784 31.6931 74.582 32.7329C75.6039 33.3502 76.7282 33.7793 77.9016 33.9999C79.1478 34.2231 80.4244 34.2152 81.6678 33.9768C83.1475 33.6953 84.5546 33.1162 85.8038 32.2746C86.832 31.5429 87.6407 30.6033 87.8255 29.448C88.5456 24.9924 88.5957 20.8334 87.8563 16.9169V16.9131Z" fill="#704747"/>
<path fill-rule="evenodd" clip-rule="evenodd" d="M17.8066 73.6544C11.7259 82.4654 6.66187 92.7244 4.21265 106.673C2.8186 114.629 6.13814 115.418 9.58476 107.951C14.5179 97.2069 17.3791 86.2817 19.4856 75.2679C19.9978 72.5723 19.89 70.6468 17.8143 73.6505L17.8066 73.6544Z" fill="#F7B3AC"/>
<path fill-rule="evenodd" clip-rule="evenodd" d="M20.3289 72.2436C18.3109 85.0403 15.4612 96.6972 11.4216 106.717C6.96983 117.777 1.40902 117.5 3.50781 105.693C6.01864 91.4907 11.5409 81.1316 18.2455 72.2898C19.2929 70.9034 20.8102 69.2321 20.3289 72.2436ZM17.9181 74.3423C14.6525 81.1971 12.0993 88.2058 10.7014 95.4418C13.5088 87.659 16.3007 80.6618 19.1081 74.5503C17.0748 86.238 13.8554 96.0079 10.3317 105.038C6.63095 114.5 3.56171 114.196 5.45254 104.056C7.8748 91.044 12.5807 82.2561 17.9181 74.3423Z" fill="#CC736E"/>
</svg>
