<svg width="767" height="80" viewBox="0 0 767 80" fill="none" xmlns="http://www.w3.org/2000/svg">
<path d="M187.601 76.1334C186.554 78.3118 184.473 79.5345 181.743 79.5857H145.435C141.738 79.5857 138.729 76.577 138.729 72.8804C138.729 69.1948 141.727 66.1921 145.406 66.175C145.56 66.175 145.708 66.1123 145.816 65.9989C145.924 65.891 145.981 65.743 145.975 65.5835C145.816 61.1644 148.864 58.3604 151.765 57.2115C152.97 56.7338 154.199 56.5005 155.387 56.5005C157.844 56.5005 160.148 57.4844 161.757 59.3272C161.888 59.4752 162.076 59.5434 162.269 59.5148C162.457 59.4922 162.622 59.3669 162.701 59.1963C165.09 54.1289 170.277 53.3498 174.087 54.7717C178.006 56.2391 181.27 60.1521 179.735 65.6001C179.684 65.7877 179.729 65.9924 179.86 66.1348C179.996 66.2828 180.19 66.3451 180.389 66.311C183.073 65.8103 185.36 66.5954 186.827 68.512C188.437 70.6163 188.756 73.7499 187.601 76.133L187.601 76.1334Z" fill="white"/>
<path d="M60.0189 42.9703C58.7336 45.6456 56.1772 47.1472 52.8246 47.2101H8.23483C3.69503 47.2101 0 43.515 0 38.9752C0 34.449 3.68093 30.7614 8.19978 30.7404C8.38833 30.7404 8.57007 30.6634 8.70258 30.5241C8.8351 30.3915 8.90526 30.2098 8.89795 30.014C8.70258 24.5869 12.4463 21.1433 16.0084 19.7322C17.489 19.1456 18.9979 18.8592 20.4576 18.8592C23.4749 18.8592 26.3037 20.0674 28.2804 22.3305C28.4411 22.5123 28.6716 22.5961 28.9089 22.561C29.1393 22.5332 29.342 22.3793 29.4399 22.1698C32.3735 15.9465 38.7438 14.9898 43.423 16.7359C48.2357 18.5381 52.2446 23.3436 50.359 30.0343C50.2961 30.2647 50.3521 30.5162 50.5124 30.6911C50.68 30.8728 50.9173 30.9493 51.1619 30.9074C54.4589 30.2925 57.2666 31.2567 59.0684 33.6105C61.046 36.1947 61.4373 40.0431 60.019 42.9698L60.0189 42.9703Z" fill="white"/>
<path d="M253.258 42.9703C251.973 45.6456 249.416 47.1472 246.064 47.2101H201.474C196.934 47.2101 193.239 43.515 193.239 38.9752C193.239 34.449 196.92 30.7614 201.439 30.7404C201.628 30.7404 201.809 30.6634 201.942 30.5241C202.074 30.3915 202.145 30.2098 202.137 30.014C201.942 24.5869 205.686 21.1433 209.248 19.7322C210.728 19.1456 212.237 18.8592 213.697 18.8592C216.714 18.8592 219.543 20.0674 221.52 22.3305C221.68 22.5123 221.911 22.5961 222.148 22.561C222.379 22.5332 222.581 22.3793 222.679 22.1698C225.613 15.9465 231.983 14.9898 236.662 16.7359C241.475 18.5381 245.484 23.3436 243.598 30.0343C243.535 30.2647 243.591 30.5162 243.752 30.6911C243.919 30.8728 244.157 30.9493 244.401 30.9074C247.698 30.2925 250.506 31.2567 252.308 33.6105C254.285 36.1947 254.677 40.0431 253.258 42.9698L253.258 42.9703Z" fill="white"/>
<path d="M406.766 4.24059C408.052 1.56532 410.608 0.0637381 413.961 0.000876096L458.55 0.000879994C463.09 0.000880391 466.785 3.69591 466.785 8.23571C466.785 12.7619 463.104 16.4496 458.585 16.4705C458.397 16.4705 458.215 16.5475 458.083 16.6869C457.95 16.8194 457.88 17.0011 457.887 17.197C458.083 22.6241 454.339 26.0677 450.777 27.4787C449.296 28.0653 447.787 28.3518 446.328 28.3518C443.31 28.3518 440.481 27.1435 438.505 24.8804C438.344 24.6987 438.114 24.6149 437.876 24.6499C437.646 24.6777 437.443 24.8317 437.345 25.0412C434.412 31.2644 428.041 32.2212 423.362 30.475C418.549 28.6728 414.541 23.8674 416.426 17.1766C416.489 16.9462 416.433 16.6948 416.273 16.5199C416.105 16.3382 415.868 16.2617 415.623 16.3036C412.326 16.9184 409.519 15.9542 407.717 13.6005C405.739 11.0163 405.348 7.16782 406.766 4.24111L406.766 4.24059Z" fill="white"/>
<path d="M765.669 62.4938C764.384 65.169 761.828 66.6706 758.475 66.7335H713.885C709.345 66.7335 705.65 63.0385 705.65 58.4987C705.65 53.9725 709.331 50.2848 713.85 50.2638C714.039 50.2638 714.22 50.1869 714.353 50.0475C714.485 49.915 714.556 49.7333 714.548 49.5374C714.353 44.1103 718.097 40.6667 721.659 39.2557C723.139 38.6691 724.648 38.3826 726.108 38.3826C729.125 38.3826 731.954 39.5909 733.931 41.854C734.092 42.0357 734.322 42.1195 734.559 42.0844C734.79 42.0567 734.992 41.9027 735.09 41.6932C738.024 35.47 744.394 34.5132 749.073 36.2594C753.886 38.0615 757.895 42.867 756.009 49.5577C755.947 49.7882 756.003 50.0396 756.163 50.2145C756.33 50.3962 756.568 50.4727 756.812 50.4308C760.109 49.8159 762.917 50.7802 764.719 53.1339C766.696 55.7181 767.088 59.5665 765.669 62.4933L765.669 62.4938Z" fill="white"/>
</svg>
