<svg width="750" height="307" viewBox="0 0 750 307" fill="none" xmlns="http://www.w3.org/2000/svg">
<g opacity="0.5">
<path d="M160.893 97.6999C159.846 99.8782 157.765 101.101 155.035 101.152H118.727C115.03 101.152 112.021 98.1434 112.021 94.4468C112.021 90.7612 115.019 87.7585 118.698 87.7414C118.852 87.7414 119 87.6787 119.108 87.5653C119.216 87.4574 119.273 87.3094 119.267 87.1499C119.108 82.7308 122.156 79.9268 125.057 78.7779C126.262 78.3002 127.491 78.0669 128.679 78.0669C131.136 78.0669 133.44 79.0508 135.049 80.8936C135.18 81.0416 135.368 81.1098 135.561 81.0812C135.749 81.0586 135.914 80.9333 135.993 80.7627C138.382 75.6953 143.569 74.9162 147.379 76.3381C151.298 77.8055 154.562 81.7185 153.027 87.1665C152.976 87.3541 153.021 87.5588 153.152 87.7013C153.288 87.8492 153.482 87.9115 153.681 87.8774C156.365 87.3767 158.652 88.1619 160.119 90.0784C161.729 92.1827 162.048 95.3163 160.893 97.6994L160.893 97.6999Z" fill="#7FBEE5"/>
</g>
<g opacity="0.5">
<path fill-rule="evenodd" clip-rule="evenodd" d="M36.4452 192.826C36.4507 196.907 33.1467 200.22 29.0658 200.226C24.9848 200.231 21.6718 196.927 21.6663 192.846C21.6607 188.766 24.9647 185.453 29.0457 185.447C33.1266 185.441 36.4396 188.745 36.4452 192.826Z" fill="#84C9BD"/>
<path fill-rule="evenodd" clip-rule="evenodd" d="M30.0272 163.958C29.4006 163.596 28.6323 163.597 28.0066 163.96C24.9995 165.706 22.9779 168.965 22.9829 172.692C22.988 176.419 25.0185 179.673 28.0303 181.41C28.6569 181.771 29.4252 181.77 30.051 181.407C33.058 179.661 35.0797 176.402 35.0746 172.675C35.0695 168.948 33.039 165.694 30.0272 163.958Z" fill="#84C9BD"/>
<path fill-rule="evenodd" clip-rule="evenodd" d="M8.06992 170.351C7.37158 170.537 6.82939 171.081 6.64494 171.78C5.75208 175.143 6.62759 178.877 9.26452 181.506C11.9042 184.138 15.6403 185.004 19.0003 184.102C19.6959 183.915 20.2408 183.369 20.4253 182.673C21.3181 179.31 20.4426 175.576 17.803 172.944C15.1661 170.314 11.4299 169.449 8.07003 170.351L8.06992 170.351Z" fill="#84C9BD"/>
<path fill-rule="evenodd" clip-rule="evenodd" d="M0.310015 191.734C-0.0516963 192.361 -0.0506522 193.129 0.312761 193.755C2.05815 196.762 5.31722 198.784 9.04418 198.779C12.7711 198.774 16.0252 196.743 17.7619 193.731C18.1236 193.105 18.1226 192.336 17.7592 191.711C16.0138 188.704 12.7547 186.682 9.02774 186.687C5.30078 186.692 2.04676 188.723 0.310015 191.734Z" fill="#84C9BD"/>
<path fill-rule="evenodd" clip-rule="evenodd" d="M6.70285 213.692C6.88913 214.387 7.43281 214.932 8.1317 215.117C11.4945 216.009 15.2283 215.134 17.8576 212.497C20.4901 209.857 21.3554 206.121 20.4534 202.761C20.2671 202.066 19.7207 201.521 19.0245 201.336C15.6617 200.443 11.9279 201.319 9.29587 203.958C6.66614 206.595 5.80074 210.332 6.70273 213.691L6.70285 213.692Z" fill="#84C9BD"/>
<path fill-rule="evenodd" clip-rule="evenodd" d="M30.0819 204.001C29.4553 203.639 28.687 203.64 28.0613 204.003C25.0542 205.749 23.0326 209.008 23.0376 212.735C23.0427 216.459 25.0732 219.716 28.085 221.453C28.7116 221.814 29.4799 221.813 30.1056 221.45C33.1127 219.704 35.1343 216.443 35.1293 212.718C35.1242 208.991 33.0937 205.737 30.0819 204.001V204.001Z" fill="#84C9BD"/>
<path fill-rule="evenodd" clip-rule="evenodd" d="M39.1128 201.308C38.4172 201.494 37.8723 202.041 37.6879 202.737C36.795 206.1 37.6705 209.833 40.3101 212.465C42.947 215.095 46.6832 215.961 50.0431 215.059C50.7414 214.872 51.2836 214.326 51.4681 213.63C52.3609 210.267 51.4854 206.533 48.8485 203.904C46.2088 201.271 42.4727 200.406 39.1127 201.308L39.1128 201.308Z" fill="#84C9BD"/>
<path fill-rule="evenodd" clip-rule="evenodd" d="M40.351 191.68C39.9893 192.306 39.9904 193.075 40.3538 193.7C42.0992 196.707 45.3582 198.729 49.0852 198.724C52.8122 198.719 56.0662 196.688 57.8029 193.677C58.1646 193.05 58.1636 192.282 57.8002 191.656C56.0548 188.649 52.7957 186.627 49.0688 186.632C45.3418 186.637 42.0878 188.668 40.351 191.68V191.68Z" fill="#84C9BD"/>
<path fill-rule="evenodd" clip-rule="evenodd" d="M37.6596 182.648C37.8459 183.344 38.3923 183.889 39.0885 184.073C42.4513 184.966 46.1851 184.091 48.8171 181.451C51.4469 178.814 52.3123 175.078 51.4103 171.718C51.224 171.02 50.6803 170.478 49.9814 170.293C46.6186 169.4 42.8848 170.276 40.2555 172.913C37.623 175.553 36.7577 179.289 37.6597 182.649L37.6596 182.648Z" fill="#84C9BD"/>
</g>
<g opacity="0.5">
<path fill-rule="evenodd" clip-rule="evenodd" d="M171.652 258.531C171.662 265.314 166.17 270.821 159.386 270.83C152.603 270.839 147.096 265.347 147.087 258.564C147.078 251.781 152.57 246.274 159.353 246.265C166.136 246.255 171.643 251.747 171.652 258.531Z" fill="#84C9BD"/>
<path fill-rule="evenodd" clip-rule="evenodd" d="M160.985 210.549C159.944 209.948 158.667 209.95 157.626 210.554C152.628 213.455 149.268 218.872 149.276 225.067C149.285 231.262 152.66 236.671 157.666 239.558C158.708 240.159 159.985 240.157 161.025 239.553C166.023 236.652 169.383 231.235 169.375 225.04C169.367 218.845 165.991 213.436 160.985 210.549Z" fill="#84C9BD"/>
<path fill-rule="evenodd" clip-rule="evenodd" d="M124.493 221.174C123.333 221.483 122.431 222.387 122.125 223.549C120.641 229.138 122.096 235.345 126.479 239.715C130.867 244.091 137.077 245.529 142.662 244.03C143.818 243.72 144.724 242.812 145.03 241.655C146.515 236.065 145.059 229.859 140.672 225.484C136.289 221.113 130.078 219.674 124.494 221.173L124.493 221.174Z" fill="#84C9BD"/>
<path fill-rule="evenodd" clip-rule="evenodd" d="M111.592 256.713C110.991 257.755 110.993 259.032 111.597 260.072C114.498 265.07 119.915 268.431 126.11 268.422C132.305 268.414 137.714 265.039 140.601 260.033C141.202 258.991 141.2 257.714 140.596 256.674C137.695 251.675 132.278 248.315 126.083 248.323C119.888 248.332 114.479 251.707 111.592 256.713Z" fill="#84C9BD"/>
<path fill-rule="evenodd" clip-rule="evenodd" d="M122.22 293.209C122.53 294.366 123.433 295.271 124.595 295.578C130.185 297.062 136.391 295.607 140.761 291.224C145.137 286.836 146.575 280.626 145.076 275.041C144.766 273.884 143.858 272.979 142.701 272.672C137.111 271.188 130.905 272.643 126.53 277.031C122.159 281.414 120.72 287.624 122.22 293.209L122.22 293.209Z" fill="#84C9BD"/>
<path fill-rule="evenodd" clip-rule="evenodd" d="M161.079 277.1C160.037 276.499 158.76 276.501 157.72 277.105C152.722 280.006 149.362 285.423 149.37 291.618C149.378 297.808 152.753 303.222 157.76 306.109C158.801 306.71 160.078 306.708 161.118 306.104C166.117 303.203 169.477 297.781 169.469 291.591C169.46 285.396 166.085 279.987 161.079 277.1V277.1Z" fill="#84C9BD"/>
<path fill-rule="evenodd" clip-rule="evenodd" d="M176.085 272.626C174.929 272.936 174.023 273.844 173.717 275.001C172.232 280.591 173.688 286.797 178.075 291.172C182.458 295.544 188.669 296.982 194.253 295.483C195.414 295.173 196.315 294.265 196.622 293.108C198.106 287.518 196.651 281.312 192.268 276.941C187.88 272.565 181.67 271.127 176.085 272.627L176.085 272.626Z" fill="#84C9BD"/>
<path fill-rule="evenodd" clip-rule="evenodd" d="M178.143 256.623C177.542 257.665 177.544 258.942 178.148 259.982C181.049 264.98 186.466 268.341 192.661 268.332C198.856 268.324 204.265 264.949 207.152 259.943C207.753 258.901 207.751 257.624 207.147 256.584C204.246 251.586 198.829 248.225 192.634 248.234C186.439 248.242 181.03 251.617 178.143 256.623V256.623Z" fill="#84C9BD"/>
<path fill-rule="evenodd" clip-rule="evenodd" d="M173.673 241.619C173.982 242.776 174.89 243.681 176.048 243.988C181.637 245.472 187.844 244.017 192.219 239.629C196.59 235.246 198.028 229.036 196.529 223.451C196.219 222.29 195.316 221.389 194.154 221.082C188.564 219.598 182.358 221.054 177.988 225.437C173.612 229.824 172.174 236.034 173.673 241.619L173.673 241.619Z" fill="#84C9BD"/>
</g>
<g opacity="0.5">
<path d="M310.763 85.1183C309.298 88.1677 306.384 89.8793 302.563 89.9509H251.738C246.563 89.9509 242.352 85.7392 242.352 80.5645C242.352 75.4054 246.547 71.2021 251.698 71.1782C251.913 71.1782 252.12 71.0904 252.271 70.9316C252.422 70.7806 252.502 70.5734 252.494 70.3502C252.271 64.1642 256.538 60.239 260.598 58.6307C262.286 57.9621 264.006 57.6355 265.67 57.6355C269.109 57.6355 272.333 59.0128 274.587 61.5923C274.77 61.7995 275.032 61.895 275.303 61.855C275.566 61.8234 275.797 61.6479 275.908 61.4091C279.252 54.3156 286.513 53.225 291.847 55.2154C297.332 57.2696 301.902 62.747 299.753 70.3733C299.681 70.636 299.745 70.9226 299.927 71.1219C300.119 71.3291 300.389 71.4163 300.668 71.3685C304.426 70.6677 307.626 71.7667 309.68 74.4496C311.934 77.3952 312.38 81.7818 310.763 85.1177L310.763 85.1183Z" fill="#7FBEE5"/>
</g>
<g opacity="0.5">
<path d="M354.756 168.865C353.612 171.245 351.338 172.581 348.355 172.637H308.679C304.639 172.637 301.352 169.35 301.352 165.31C301.352 161.283 304.627 158.001 308.648 157.983C308.815 157.983 308.977 157.914 309.095 157.79C309.213 157.672 309.275 157.511 309.269 157.336C309.095 152.507 312.426 149.443 315.596 148.188C316.913 147.666 318.256 147.411 319.555 147.411C322.239 147.411 324.756 148.486 326.515 150.5C326.658 150.661 326.863 150.736 327.075 150.705C327.28 150.68 327.46 150.543 327.547 150.357C330.157 144.819 335.826 143.968 339.989 145.522C344.272 147.125 347.839 151.401 346.161 157.354C346.105 157.56 346.155 157.783 346.297 157.939C346.446 158.101 346.658 158.169 346.875 158.131C349.809 157.584 352.307 158.442 353.91 160.537C355.67 162.836 356.018 166.26 354.756 168.864L354.756 168.865Z" fill="#7FBEE5"/>
</g>
<g opacity="0.5">
<path fill-rule="evenodd" clip-rule="evenodd" d="M441.266 201.588C441.273 206.897 436.975 211.207 431.665 211.214C426.356 211.222 422.046 206.923 422.038 201.614C422.031 196.304 426.33 191.994 431.639 191.987C436.949 191.98 441.259 196.278 441.266 201.588Z" fill="#84C9BD"/>
<path fill-rule="evenodd" clip-rule="evenodd" d="M432.915 164.029C432.1 163.558 431.1 163.56 430.286 164.032C426.374 166.303 423.744 170.543 423.75 175.392C423.757 180.241 426.399 184.474 430.317 186.734C431.132 187.205 432.132 187.203 432.946 186.73C436.858 184.46 439.488 180.22 439.482 175.371C439.475 170.522 436.833 166.288 432.915 164.029Z" fill="#84C9BD"/>
<path fill-rule="evenodd" clip-rule="evenodd" d="M404.349 172.344C403.44 172.586 402.735 173.294 402.495 174.203C401.333 178.578 402.472 183.436 405.903 186.857C409.337 190.281 414.198 191.407 418.569 190.234C419.474 189.991 420.183 189.28 420.423 188.375C421.585 184 420.446 179.142 417.011 175.718C413.581 172.296 408.72 171.17 404.349 172.344L404.349 172.344Z" fill="#84C9BD"/>
<path fill-rule="evenodd" clip-rule="evenodd" d="M394.253 200.164C393.783 200.979 393.784 201.979 394.257 202.793C396.528 206.705 400.768 209.335 405.617 209.329C410.465 209.322 414.699 206.681 416.959 202.762C417.429 201.947 417.428 200.947 416.955 200.133C414.684 196.221 410.444 193.591 405.595 193.597C400.746 193.604 396.513 196.246 394.253 200.164Z" fill="#84C9BD"/>
<path fill-rule="evenodd" clip-rule="evenodd" d="M402.571 228.731C402.813 229.636 403.52 230.345 404.43 230.585C408.805 231.747 413.662 230.608 417.083 227.177C420.508 223.743 421.634 218.882 420.46 214.51C420.218 213.605 419.507 212.897 418.601 212.657C414.226 211.495 409.369 212.634 405.944 216.068C402.523 219.499 401.397 224.36 402.571 228.731L402.571 228.731Z" fill="#84C9BD"/>
<path fill-rule="evenodd" clip-rule="evenodd" d="M432.987 216.123C432.172 215.652 431.172 215.653 430.358 216.126C426.446 218.397 423.816 222.637 423.823 227.486C423.829 232.331 426.471 236.568 430.389 238.828C431.205 239.298 432.204 239.297 433.018 238.824C436.93 236.553 439.561 232.31 439.554 227.464C439.547 222.616 436.906 218.382 432.987 216.123V216.123Z" fill="#84C9BD"/>
<path fill-rule="evenodd" clip-rule="evenodd" d="M444.735 212.621C443.83 212.863 443.121 213.574 442.881 214.48C441.72 218.855 442.859 223.713 446.293 227.137C449.723 230.558 454.584 231.684 458.956 230.511C459.864 230.268 460.57 229.558 460.81 228.652C461.971 224.277 460.832 219.419 457.401 215.998C453.967 212.573 449.106 211.448 444.735 212.621L444.735 212.621Z" fill="#84C9BD"/>
<path fill-rule="evenodd" clip-rule="evenodd" d="M446.347 200.09C445.876 200.905 445.878 201.905 446.351 202.719C448.621 206.631 452.862 209.261 457.71 209.255C462.559 209.248 466.793 206.606 469.052 202.688C469.523 201.873 469.521 200.873 469.049 200.059C466.778 196.147 462.538 193.517 457.689 193.523C452.84 193.53 448.607 196.171 446.347 200.09V200.09Z" fill="#84C9BD"/>
<path fill-rule="evenodd" clip-rule="evenodd" d="M442.846 188.344C443.088 189.249 443.799 189.958 444.705 190.198C449.08 191.36 453.938 190.221 457.362 186.787C460.783 183.356 461.909 178.495 460.736 174.124C460.493 173.215 459.786 172.51 458.877 172.27C454.502 171.108 449.644 172.247 446.223 175.678C442.798 179.112 441.672 183.973 442.846 188.344L442.846 188.344Z" fill="#84C9BD"/>
</g>
<g opacity="0.5">
<path d="M523.319 28.4168C524.784 25.3675 527.698 23.6559 531.519 23.5842L582.344 23.5843C587.519 23.5843 591.73 27.796 591.73 32.9706C591.73 38.1297 587.535 42.3331 582.384 42.357C582.169 42.357 581.962 42.4447 581.811 42.6035C581.66 42.7546 581.58 42.9617 581.588 43.185C581.811 49.371 577.544 53.2961 573.484 54.9045C571.796 55.5731 570.076 55.8996 568.412 55.8996C564.973 55.8996 561.749 54.5224 559.495 51.9428C559.312 51.7357 559.05 51.6401 558.779 51.6801C558.516 51.7118 558.285 51.8873 558.174 52.1261C554.83 59.2195 547.569 60.3101 542.235 58.3198C536.75 56.2656 532.18 50.7881 534.33 43.1618C534.401 42.8991 534.337 42.6126 534.155 42.4132C533.964 42.2061 533.693 42.1189 533.414 42.1666C529.656 42.8675 526.456 41.7684 524.402 39.0856C522.148 36.14 521.702 31.7534 523.319 28.4174L523.319 28.4168Z" fill="#7FBEE5"/>
</g>
<circle cx="709.141" cy="40.6854" r="40.6854" fill="#F0D97F"/>
<g opacity="0.5">
<path fill-rule="evenodd" clip-rule="evenodd" d="M681.053 251.662C681.06 256.971 676.762 261.281 671.452 261.289C666.143 261.296 661.833 256.997 661.826 251.688C661.818 246.379 666.117 242.068 671.426 242.061C676.736 242.054 681.046 246.352 681.053 251.662Z" fill="#84C9BD"/>
<path fill-rule="evenodd" clip-rule="evenodd" d="M672.702 214.103C671.887 213.632 670.887 213.634 670.073 214.107C666.161 216.377 663.531 220.617 663.537 225.466C663.544 230.315 666.186 234.549 670.104 236.808C670.919 237.279 671.919 237.277 672.733 236.805C676.645 234.534 679.275 230.294 679.269 225.445C679.262 220.596 676.621 216.363 672.702 214.103Z" fill="#84C9BD"/>
<path fill-rule="evenodd" clip-rule="evenodd" d="M644.136 222.418C643.227 222.661 642.522 223.368 642.282 224.277C641.12 228.652 642.259 233.51 645.69 236.931C649.124 240.356 653.985 241.481 658.356 240.308C659.261 240.066 659.97 239.355 660.21 238.449C661.372 234.074 660.233 229.216 656.799 225.792C653.368 222.37 648.507 221.245 644.136 222.418L644.136 222.418Z" fill="#84C9BD"/>
<path fill-rule="evenodd" clip-rule="evenodd" d="M634.04 250.238C633.57 251.054 633.571 252.053 634.044 252.867C636.315 256.779 640.555 259.41 645.404 259.403C650.253 259.396 654.486 256.755 656.746 252.836C657.216 252.021 657.215 251.022 656.742 250.207C654.471 246.295 650.231 243.665 645.382 243.672C640.533 243.678 636.3 246.32 634.04 250.238Z" fill="#84C9BD"/>
<path fill-rule="evenodd" clip-rule="evenodd" d="M642.358 278.805C642.6 279.71 643.308 280.419 644.217 280.659C648.592 281.821 653.45 280.682 656.87 277.251C660.295 273.817 661.421 268.956 660.247 264.585C660.005 263.68 659.294 262.971 658.389 262.731C654.013 261.569 649.156 262.708 645.731 266.142C642.31 269.573 641.184 274.434 642.358 278.805L642.358 278.805Z" fill="#84C9BD"/>
<path fill-rule="evenodd" clip-rule="evenodd" d="M672.774 266.197C671.959 265.726 670.96 265.728 670.145 266.2C666.233 268.471 663.603 272.711 663.61 277.56C663.616 282.405 666.258 286.642 670.176 288.902C670.992 289.373 671.991 289.371 672.805 288.898C676.717 286.628 679.348 282.384 679.341 277.539C679.335 272.69 676.693 268.456 672.774 266.197V266.197Z" fill="#84C9BD"/>
<path fill-rule="evenodd" clip-rule="evenodd" d="M684.522 262.695C683.617 262.938 682.908 263.648 682.668 264.554C681.507 268.929 682.646 273.787 686.08 277.211C689.511 280.633 694.371 281.759 698.743 280.585C699.651 280.343 700.357 279.632 700.597 278.726C701.758 274.351 700.619 269.493 697.189 266.073C693.754 262.648 688.894 261.522 684.522 262.695L684.522 262.695Z" fill="#84C9BD"/>
<path fill-rule="evenodd" clip-rule="evenodd" d="M686.134 250.164C685.664 250.979 685.665 251.979 686.138 252.793C688.409 256.705 692.649 259.335 697.497 259.329C702.346 259.322 706.58 256.681 708.839 252.762C709.31 251.947 709.309 250.947 708.836 250.133C706.565 246.221 702.325 243.591 697.476 243.597C692.627 243.604 688.394 246.246 686.134 250.164V250.164Z" fill="#84C9BD"/>
<path fill-rule="evenodd" clip-rule="evenodd" d="M682.633 238.418C682.875 239.323 683.586 240.032 684.492 240.272C688.867 241.434 693.725 240.295 697.149 236.861C700.57 233.43 701.696 228.569 700.523 224.198C700.28 223.289 699.573 222.584 698.664 222.344C694.289 221.182 689.431 222.322 686.01 225.752C682.585 229.186 681.46 234.047 682.633 238.419L682.633 238.418Z" fill="#84C9BD"/>
</g>
</svg>
