<svg width="1240" height="58" viewBox="0 0 1240 58" fill="none" xmlns="http://www.w3.org/2000/svg">
    <g opacity="0.5">
        <path d="M811.361 9L675.5 42.1364V54H1186.5L1119.58 12.2727L1100.32 20.0455H1078.01L1036.44 29.8636L968.514 0L878.278 32.7273L811.361 9Z"
              fill="#283F79" fill-opacity="0.3"/>
        <path d="M300.361 9L164.5 54H675.5V39.2727L608.583 12.2727L589.319 20.0455H567.014L525.444 29.8636L457.514 0L367.278 32.7273L300.361 9Z"
              fill="#283F79" fill-opacity="0.3"/>
        <path d="M82 28.4988C44.0327 25.6274 0.333334 30.9988 -17 35.9988V77.6613H1243.5V48.1612H1193.5C1168.5 48.1612 1156 40.1613 1122.5 40.1613C1089 40.1613 1076.5 48.1612 1033.5 48.1612C990.5 48.1612 949 36.1612 912.5 36.1612C876 36.1612 876 48.1612 818 48.1612C760 48.1612 724 36.1612 657.5 36.1612C591 36.1612 567 48.1612 522 48.1612C477 48.1612 388 17.1612 306 36.1612C224 55.1612 141.5 32.9986 82 28.4988Z"
              fill="#283F79"/>
        <path d="M628 16L641.5 9L655 16V44H628V16Z" fill="#283F79"/>
        <path d="M653 28L661.5 24L670 28V44H653V28Z" fill="#283F79"/>
        <path d="M674 29.6L679.5 27L685 29.6V40H674V29.6Z" fill="#283F79"/>
    </g>
</svg>
