<svg width="563" height="204" viewBox="0 -20 563 184" fill="none" xmlns="http://www.w3.org/2000/svg">
<g clip-path="url(#clip0_1179_94583)">
<path d="M79.0085 0C79.1809 0.0570523 79.2958 0.114105 79.4682 0.114105C81.1345 0.114105 82.686 0.513471 84.2374 1.08399C85.5015 1.54041 86.7657 2.05388 88.1447 2.28209C89.4089 2.45325 90.6155 2.56735 91.8222 2.11094C92.9714 1.71157 93.8908 2.45325 94.0057 3.65135C94.0057 3.87956 94.0057 4.16482 94.0057 4.45008C94.0057 7.87322 94.0057 11.3534 94.0057 14.7765C94.0057 14.9477 94.0057 15.1759 94.0057 15.3471C94.0057 16.5452 93.661 17.0016 92.5117 17.3439C90.8454 17.9144 89.1216 17.8574 87.3977 17.5151C85.8463 17.2298 84.4098 16.6593 82.9733 16.0887C80.0428 14.9477 77.1697 15.0618 74.2967 16.374C74.1243 16.4311 73.9519 16.5452 73.7795 16.6593C73.7795 18.0856 73.7795 19.5689 73.7795 20.9952C73.7795 21.1664 73.837 21.2805 73.9519 21.4517C74.0669 21.6228 74.2967 21.794 74.4691 21.9651C86.4784 33.8891 98.4877 45.813 110.497 57.7369C110.727 57.9081 110.957 58.0792 111.129 58.1933C109.52 59.7908 108.026 61.2742 106.475 62.8146C95.04 51.4612 83.5479 40.0507 71.9983 28.5832C60.3912 40.1078 48.8416 51.5182 37.4069 62.9287C35.8555 61.3883 34.3615 59.9049 32.8101 58.3645C32.925 58.2504 33.1548 58.0222 33.3847 57.794C45.6238 45.6418 57.8055 33.5468 70.0446 21.3946C70.4468 20.9952 70.6192 20.5388 70.6192 19.9683C70.6192 15.1189 70.6192 10.2124 70.6192 5.36292C70.6192 4.9065 70.6192 4.45008 70.6192 3.93661C70.6192 3.08082 71.0214 2.45325 71.7684 2.05388C73.7796 0.912837 75.9056 0.171157 78.2615 0.114105C78.4339 0.114105 78.6063 0.0570523 78.7786 0L79.0085 0Z" fill="#FFFFFF"/>
<path d="M71.9982 134.586C71.7684 134.244 71.596 134.016 71.4236 133.788C69.2401 130.65 67.0566 127.512 64.6433 124.602C59.0121 117.813 52.5765 111.994 44.9343 107.486C38.1539 103.493 30.7989 100.811 23.0992 99.2139C16.3763 97.8447 9.53847 97.3882 2.70065 97.5594C1.8962 97.5594 1.14921 97.6164 0.344759 97.6164C0.287299 97.6164 0.229838 97.6164 0.172377 97.5594C-4.79072e-06 95.1632 0.114917 92.767 0.229838 90.3137C0.517141 90.3137 0.746984 90.2567 0.976827 90.2567C5.57368 90.0285 10.1705 90.1426 14.7674 90.542C22.3522 91.2266 29.7646 92.767 36.8898 95.4485C46.8305 99.1569 55.5645 104.748 63.2068 112.051C66.1947 114.96 69.0103 118.041 71.596 121.293C71.7109 121.464 71.8833 121.635 71.9982 121.807C72.0557 121.864 72.0557 121.864 72.1706 121.864C72.343 121.693 72.5154 121.464 72.6303 121.293C78.0891 114.447 84.2948 108.399 91.6498 103.55C99.5794 98.244 108.256 94.5927 117.565 92.4817C122.966 91.2836 128.482 90.542 134.056 90.3708C136.986 90.3137 139.859 90.3137 142.79 90.3137C143.02 90.3137 143.25 90.3708 143.537 90.3708C143.767 92.824 143.709 95.2202 143.652 97.6735C143.364 97.6735 143.192 97.6735 143.02 97.6735C139.112 97.4453 135.205 97.5594 131.355 97.8447C119.92 98.7004 109.06 101.667 99.1197 107.544C91.6498 111.937 85.2717 117.642 79.698 124.317C77.1697 127.341 74.9862 130.593 72.7452 133.788C72.4005 134.016 72.2281 134.244 71.9982 134.586Z" fill="#FFFFFF"/>
<path d="M89.4089 72.6277V89.5722H81.0196C80.8472 88.8876 80.9621 88.1459 80.9621 87.4042C80.9621 86.7196 80.9621 85.9779 80.9621 85.2933V81.0144H63.2068V89.5152C62.6322 89.6863 56.1391 89.7434 55.0474 89.5722V72.6277H89.4089Z" fill="#FFFFFF"/>
<path d="M73.5497 70.2313V53.2297H74.2392C79.4681 53.2297 84.697 53.2297 89.9834 53.2297C90.4431 53.2297 90.7304 53.3438 91.0177 53.6862C94.5228 57.2234 98.0279 60.7036 101.59 64.1838C102.452 65.0396 102.912 66.0094 102.855 67.2646C102.797 68.2345 102.855 69.2044 102.855 70.2313C102.28 70.3454 74.4116 70.4025 73.5497 70.2313Z" fill="#FFFFFF"/>
<path d="M70.9065 53.2868V70.1743C70.3894 70.3454 42.8657 70.4025 41.6016 70.2313C41.6016 70.0031 41.6016 69.7749 41.6016 69.5467C41.6016 68.748 41.6016 67.9492 41.6016 67.1505C41.6016 65.9524 42.0612 64.9825 42.8657 64.1267C45.1067 61.9017 47.4051 59.6766 49.6461 57.4516C50.9102 56.1965 52.1743 54.9413 53.4385 53.6862C53.7258 53.3438 54.0705 53.2297 54.4728 53.2297C59.7017 53.2297 64.9306 53.2297 70.1021 53.2297C70.3894 53.2297 70.6192 53.2297 70.9065 53.2868Z" fill="#FFFFFF"/>
<path d="M39.2457 130.365C39.2457 131.677 39.0733 133.16 38.6711 134.529C37.9816 137.097 36.4876 139.151 34.3041 140.634C32.0631 142.174 29.5349 143.144 26.8342 143.601C25.9148 143.772 24.9955 143.829 24.0761 143.943C23.0992 144.057 22.9269 143.886 22.6396 142.973C21.95 140.634 21.4903 138.181 21.5478 135.728C21.6053 133.16 22.2948 130.707 23.6739 128.539C24.5358 127.113 25.7999 126.029 27.2364 125.173C29.1901 124.032 31.2587 123.347 33.4422 122.948C34.419 122.777 35.3384 122.605 36.3152 122.434C36.3727 122.434 36.4301 122.434 36.4301 122.434C37.5794 122.263 37.9241 122.491 38.2114 123.632C38.786 125.743 39.2457 127.968 39.2457 130.365Z" fill="#FFFFFF"/>
<path d="M123.943 135.956C123.885 138.694 123.541 140.805 122.908 142.916C122.621 143.829 122.391 144 121.414 143.886C118.771 143.658 116.243 143.201 113.83 142.117C111.589 141.147 109.75 139.664 108.256 137.781C107.222 136.412 106.647 134.758 106.36 133.046C105.958 130.536 106.245 128.025 106.705 125.572C106.819 124.888 106.992 124.146 107.164 123.461C107.394 122.663 107.681 122.377 108.543 122.491C111.359 122.777 114.117 123.233 116.645 124.488C117.45 124.888 118.254 125.344 119.001 125.857C121.644 127.683 123.081 130.193 123.598 133.331C123.828 134.358 123.885 135.442 123.943 135.956Z" fill="#FFFFFF"/>
<path d="M85.7313 131.506C85.7888 129.052 86.5358 126.884 87.9723 124.888C89.8685 122.263 92.2818 120.152 95.1549 118.669C96.419 118.041 96.6489 118.041 97.5108 119.239C98.2003 120.209 98.8898 121.179 99.5794 122.149C100.958 124.26 101.935 126.599 102.223 129.109C102.51 131.62 101.993 133.902 100.671 136.013C99.6368 137.781 98.2003 139.265 96.6489 140.634C95.4422 141.661 94.1206 142.517 92.7415 143.258C91.9371 143.715 91.5923 143.658 90.9603 142.973C90.9028 142.916 90.9028 142.916 90.8453 142.859C88.7193 140.463 87.1678 137.724 86.3059 134.643C85.9612 133.617 85.8462 132.533 85.7313 131.506Z" fill="#FFFFFF"/>
<path d="M25.0529 104.748C26.6618 104.805 27.811 104.919 28.9028 105.262C31.8907 106.174 34.5914 107.544 36.8898 109.597C37.9241 110.51 37.9816 110.739 37.2346 111.937C36.6025 112.907 35.9704 113.876 35.2809 114.789C34.1891 116.33 32.8675 117.642 31.3161 118.783C28.2707 121.065 24.8805 121.636 21.203 120.666C18.1001 119.81 15.342 118.326 12.8712 116.216C12.1242 115.588 12.0668 115.246 12.469 114.39C13.6757 111.994 15.3995 109.883 17.3532 108.114C18.7897 106.802 20.456 105.775 22.3522 105.319C23.3865 104.976 24.4783 104.805 25.0529 104.748Z" fill="#FFFFFF"/>
<path d="M119.863 104.577C122.047 104.691 124 105.262 125.839 106.46C128.712 108.399 131.01 110.853 132.677 113.933C132.734 114.105 132.849 114.276 132.907 114.447C133.136 115.017 133.136 115.303 132.677 115.702C129.861 118.212 126.701 120.038 122.966 120.78C120.15 121.35 117.507 120.837 115.036 119.353C113.37 118.384 111.933 117.128 110.727 115.645C109.692 114.276 108.716 112.849 107.739 111.48C107.337 110.91 107.394 110.51 107.911 110.054C110.497 107.715 113.427 106.003 116.875 105.147C117.852 104.805 118.886 104.748 119.863 104.577Z" fill="#FFFFFF"/>
<path d="M59.6442 131.22C59.7017 132.989 59.242 134.586 58.6674 136.127C57.748 138.637 56.4264 140.862 54.6451 142.859C54.0131 143.544 53.7832 143.601 52.9213 143.201C50.3356 141.889 48.0946 140.063 46.1984 137.896C44.5895 136.013 43.4977 133.902 43.2679 131.392C43.0955 129.737 43.3254 128.083 43.8425 126.485C44.1298 125.515 44.532 124.602 44.9917 123.689C45.8536 121.864 47.0028 120.266 48.267 118.669C48.7267 118.041 49.0714 117.984 49.7035 118.327C52.5191 119.753 54.9899 121.693 57.001 124.146C58.7248 126.257 59.6442 128.767 59.6442 131.22Z" fill="#FFFFFF"/>
<path d="M56.3115 50.7196C56.4839 50.5484 56.7137 50.4343 56.8861 50.2632C61.4255 45.756 65.9649 41.2489 70.5043 36.7418C71.0215 36.1712 71.5386 35.6007 72.1132 34.9731C72.5729 35.3725 73.0326 35.7148 73.4348 36.1142C78.2615 40.9066 83.0882 45.699 87.9149 50.4914C88.0298 50.6055 88.1447 50.7196 88.3171 50.8907H56.369L56.3115 50.7196Z" fill="#FFFFFF"/>
<path d="M52.3468 89.6291H41.6591V72.6846H52.3468C52.5191 73.141 52.5191 88.7733 52.3468 89.6291Z" fill="#FFFFFF"/>
<path d="M92.0521 72.6277H102.682C102.855 73.1982 102.97 87.4613 102.797 89.5152C102.28 89.6293 93.3162 89.6863 92.0521 89.5722C91.9946 89.0588 91.9371 73.5405 92.0521 72.6277Z" fill="#FFFFFF"/>
<path d="M42.9232 92.0254C49.6461 92.0254 56.369 92.0254 63.0344 92.0254C63.1494 92.5389 63.2643 102.466 63.0919 104.178C62.4598 103.778 61.9427 103.265 61.4255 102.865C60.8509 102.409 60.2763 101.952 59.7017 101.553C59.1271 101.154 58.5525 100.697 57.9779 100.298C57.4033 99.8986 56.7712 99.4992 56.1392 99.0999C55.5645 98.7005 54.9325 98.3582 54.3579 97.9588C53.7258 97.5595 53.0937 97.2171 52.4617 96.8178C51.8296 96.4755 51.255 96.1332 50.6229 95.7908C49.9909 95.4485 49.3588 95.1062 48.6693 94.7639C48.0372 94.4216 47.4051 94.1363 46.7731 93.8511C46.0835 93.5087 45.4515 93.2235 44.7619 92.9382C44.1299 92.653 43.4978 92.3677 42.8657 92.0824L42.9232 92.0254Z" fill="#FFFFFF"/>
<path d="M81.0196 104.006C80.9622 100.013 80.9622 96.0191 80.9622 92.0825C81.5942 91.9113 100.556 91.9113 101.246 92.0825C93.8908 95.1062 87.1679 99.0999 81.0196 104.006Z" fill="#FFFFFF"/>
<path d="M41.4292 113.135C43.9 113.135 45.8537 115.074 45.7962 117.528C45.7962 119.981 43.7851 121.921 41.3143 121.921C38.8435 121.921 36.9473 119.981 36.9473 117.471C36.9473 115.531 38.5562 113.021 41.4292 113.135Z" fill="#FFFFFF"/>
<path d="M104.291 121.75C101.591 121.864 99.7518 119.411 99.7518 117.471C99.7518 114.96 101.648 113.021 104.119 112.964C106.59 112.964 108.601 114.903 108.601 117.357C108.658 119.81 106.762 121.75 104.291 121.75Z" fill="#FFFFFF"/>
<path d="M181.978 73.8827C183.759 74.4532 185.426 75.252 186.747 76.5642C190.999 80.6719 189.85 87.2329 184.449 89.6862C182.553 90.542 180.542 90.9413 178.416 90.9413C173.244 90.9413 168.073 90.9413 162.901 90.9413C162.269 90.9413 161.752 90.7702 161.465 90.1997C161.177 89.6291 161.292 89.0586 161.752 88.6022C163.188 87.347 163.476 85.8066 163.418 83.981C163.303 76.6783 163.361 69.3185 163.418 62.0158C163.418 61.5023 163.303 61.103 162.959 60.7607C162.556 60.3043 162.154 59.7908 161.752 59.3344C161.35 58.8779 161.235 58.3074 161.465 57.7369C161.752 57.1664 162.212 56.9952 162.844 56.9952C167.843 56.9952 172.842 56.9382 177.783 57.0523C180.599 57.1093 183.242 57.9081 185.368 59.8478C189.161 63.271 188.529 69.5467 184.219 72.5134C183.53 73.141 182.725 73.4833 181.978 73.8827ZM171.635 75.8795C171.578 76.0507 171.52 76.1077 171.52 76.1077C171.52 78.9033 171.463 81.7559 171.52 84.5515C171.52 85.9207 172.555 87.0618 173.991 87.1759C175.198 87.2329 176.404 87.1188 177.611 86.8906C179.048 86.6054 179.967 85.5784 180.427 84.1521C180.944 82.4976 180.944 80.8431 180.484 79.2456C180.024 77.477 178.818 76.393 177.036 76.1648C175.198 75.9366 173.359 75.9366 171.635 75.8795ZM171.52 60.8177V72.1141C172.669 72.1141 173.761 72.2282 174.853 72.1141C177.496 71.8288 178.818 70.6307 179.162 68.1775C179.335 66.9794 179.277 65.7813 179.105 64.5832C178.76 62.4152 177.381 61.2171 175.14 60.9889C173.934 60.8748 172.784 60.8748 171.52 60.8177Z" fill="#FFFFFF"/>
<path d="M295.118 73.8255C296.267 74.4531 297.704 75.1377 298.968 76.0506C303.45 79.3596 303.45 86.8334 297.417 89.6861C295.52 90.5989 293.452 90.9983 291.326 90.9983C286.154 90.9983 280.925 90.9983 275.754 90.9983C275.122 90.9983 274.605 90.8271 274.375 90.2566C274.088 89.6861 274.203 89.1155 274.662 88.7162C276.156 87.461 276.386 85.8636 276.386 84.0379C276.271 76.7352 276.386 69.4325 276.329 62.1298C276.329 61.7304 276.099 61.274 275.869 60.9317C275.467 60.3612 274.949 59.8477 274.547 59.2772C274.203 58.8208 274.088 58.2502 274.432 57.7938C274.72 57.4515 275.179 57.1092 275.582 57.1092C280.638 57.0521 285.637 57.0521 290.694 57.1092C293.337 57.1662 295.865 57.9079 297.991 59.6195C301.669 62.6433 301.726 68.5767 298.164 71.7716C297.187 72.6274 295.98 73.255 295.118 73.8255ZM284.431 75.8794C284.431 78.9032 284.373 81.7558 284.431 84.6655C284.431 86.0918 285.465 87.1187 286.901 87.2328C287.878 87.2899 288.912 87.2328 289.889 87.0617C291.9 86.7193 293.107 85.4642 293.337 83.5244C293.509 82.2693 293.509 80.9 293.337 79.5878C293.05 77.648 291.728 76.3929 289.774 76.1076C288.051 75.9365 286.269 75.9365 284.431 75.8794ZM284.431 72.2281C285.752 72.171 287.074 72.171 288.338 71.9998C290.406 71.7146 291.785 70.4594 292.015 68.3485C292.188 67.1504 292.13 65.8953 292.015 64.6972C291.843 63.385 291.211 62.2439 289.947 61.5593C288.223 60.6464 286.327 60.8176 284.431 60.8176V72.2281Z" fill="#FFFFFF"/>
<path d="M378.206 77.1346C381.309 74.5672 384.297 72.0569 387.285 69.5466C387.055 69.2043 386.768 68.9761 386.71 68.6908C386.596 68.2344 386.538 67.721 386.653 67.2645C386.768 66.7511 387.285 66.5229 387.86 66.5229C389.469 66.5229 391.135 66.5229 392.744 66.5229C393.433 66.5229 393.836 66.8081 394.008 67.4357C394.18 68.0633 393.893 68.4626 393.318 68.7479C389.928 70.4595 387.515 73.3121 384.527 75.5942C386.251 77.3628 387.975 79.0744 389.641 80.843C392.227 83.5244 394.87 86.1489 397.456 88.8303C397.858 89.2867 398.088 89.7431 397.858 90.3137C397.628 90.8842 397.168 91.1124 396.536 91.1124C392.686 91.1124 388.894 91.1124 385.044 91.1124C383.78 91.1124 383.148 90.0284 383.78 88.9444C384.125 88.3739 384.47 87.8604 384.929 87.1758C382.746 85.1219 380.562 83.068 378.379 81.0141C378.379 81.0712 378.264 81.2994 378.264 81.5276C378.264 83.1821 378.264 84.7796 378.264 86.4341C378.264 86.6623 378.379 86.9476 378.551 87.1758C379.011 87.7463 379.47 88.3168 379.988 88.8303C380.39 89.2867 380.562 89.8002 380.275 90.3137C380.045 90.8842 379.528 91.1124 378.953 91.1124C375.793 91.1124 372.633 91.1124 369.53 91.1124C368.955 91.1124 368.496 90.8842 368.266 90.3707C367.978 89.8573 368.151 89.3438 368.495 88.8874C368.783 88.5451 369.013 88.2027 369.3 87.9745C370.104 87.2899 370.277 86.4341 370.277 85.3501C370.219 78.2756 370.277 71.2011 370.277 64.1267C370.277 63.6132 370.162 63.2138 369.702 62.8715C369.357 62.5862 369.013 62.301 368.668 61.9587C367.748 61.1029 368.036 59.7336 369.185 59.3913C371.483 58.6496 373.839 57.965 376.138 57.2804C377.287 56.9381 378.321 57.908 378.321 59.1631C378.321 64.8113 378.321 70.5165 378.321 76.1647C378.206 76.45 378.206 76.6782 378.206 77.1346Z" fill="#FFFFFF"/>
<path d="M475.315 68.9191C476.349 68.2915 477.269 67.6069 478.303 67.1505C483.015 65.1536 488.186 67.8921 489.22 72.9698C489.393 73.9397 489.508 74.9096 489.508 75.8795C489.565 79.2456 489.508 82.6687 489.508 86.0348C489.508 86.5483 489.623 86.8906 489.967 87.2329C490.427 87.6893 490.829 88.2028 491.289 88.7162C491.691 89.1727 491.806 89.6861 491.576 90.2567C491.346 90.8272 490.887 91.0554 490.255 91.0554C487.094 91.0554 483.934 91.0554 480.831 91.0554C480.257 91.0554 479.797 90.8272 479.567 90.3137C479.337 89.8002 479.395 89.2868 479.739 88.8303C479.797 88.7733 479.854 88.6592 479.912 88.6021C481.348 87.404 481.636 85.9207 481.578 84.095C481.406 80.6148 481.463 77.1346 481.406 73.6544C481.406 72.7986 481.176 71.8858 480.889 71.03C480.429 69.6608 479.28 69.2043 477.901 69.7178C476.866 70.1172 476.119 70.9159 475.43 71.7717C475.315 71.8858 475.315 72.1711 475.315 72.3422C475.315 76.9635 475.315 81.6418 475.315 86.263C475.315 86.5483 475.43 86.8335 475.602 87.0617C476.062 87.6322 476.579 88.2028 477.039 88.7733C477.441 89.2297 477.498 89.6861 477.269 90.2567C477.039 90.7701 476.579 91.0554 476.004 91.0554C472.844 91.0554 469.684 91.0554 466.466 91.0554C465.891 91.0554 465.432 90.8272 465.202 90.3137C464.972 89.8002 465.087 89.3438 465.374 88.8874C465.432 88.8303 465.489 88.7162 465.547 88.6592C466.983 87.4611 467.27 85.9207 467.213 84.095C467.098 77.4199 467.156 70.6877 467.213 64.0126C467.213 63.4991 467.098 63.1568 466.696 62.8715C466.351 62.6433 466.006 62.301 465.719 62.0158C464.685 61.1029 464.972 59.7337 466.294 59.2772C468.132 58.7067 469.971 58.1933 471.81 57.6227C472.097 57.5086 472.442 57.4516 472.729 57.3375C474.223 56.881 475.257 57.6798 475.257 59.2202C475.257 62.1869 475.257 65.1536 475.257 68.1204L475.315 68.9191Z" fill="#FFFFFF"/>
<path d="M411.649 83.4103C411.649 82.4404 411.649 81.4705 411.649 80.5577C411.649 79.7019 411.936 79.2455 412.568 79.0743C413.2 78.9602 413.602 79.1884 413.947 79.9872C415.039 82.2122 416.303 84.3232 418.257 85.9206C419.865 87.2899 421.762 87.9745 423.945 87.5751C427.22 87.0046 428.657 83.5244 426.703 80.843C426.129 80.0442 425.324 79.3596 424.462 78.8461C422.968 77.9333 421.359 77.1916 419.751 76.3929C417.51 75.2518 415.269 74.1108 413.487 72.2281C410.614 69.1472 410.27 63.5561 413.2 60.5323C414.866 58.8208 416.935 57.9079 419.233 57.3945C424.06 56.3105 428.772 56.881 433.311 58.7637C434.46 59.2772 435.093 60.19 435.093 61.4452C435.093 63.0426 435.093 64.5831 435.093 66.1805C435.093 66.8081 434.92 67.2645 434.288 67.4357C433.599 67.6068 433.196 67.2645 432.909 66.751C431.645 64.526 430.036 62.5862 427.623 61.4452C425.899 60.6464 424.175 60.4182 422.336 60.9888C419.578 61.7875 418.831 64.6401 420.842 66.694C422.279 68.1774 424.175 68.919 425.956 69.8319C427.91 70.8588 429.864 71.8287 431.702 73.0268C434.058 74.5672 435.667 76.7352 435.954 79.6449C436.529 85.0078 433.886 89.1155 428.714 90.656C423.428 92.2534 418.257 91.6258 413.315 89.2296C412.108 88.6591 411.649 87.6322 411.649 86.32C411.649 85.3501 411.649 84.3802 411.649 83.4103Z" fill="#FFFFFF"/>
<path d="M222.718 88.602C221.569 89.7431 220.477 90.6559 219.098 91.1123C215.018 92.5386 210.421 90.3136 209.1 86.0347C208.697 84.8366 208.525 83.5244 208.525 82.2122C208.468 78.6179 208.525 75.0236 208.468 71.4293C208.468 71.087 208.295 70.6876 208.123 70.4024C207.721 69.8318 207.203 69.3184 206.744 68.7478C206.341 68.2914 206.169 67.7779 206.456 67.2074C206.744 66.694 207.203 66.4657 207.835 66.4657C210.191 66.4657 212.547 66.4657 214.961 66.4657C216.11 66.4657 216.569 66.9222 216.569 68.1203C216.569 71.4293 216.569 74.7954 216.569 78.1044C216.569 80.5006 216.684 82.8968 216.857 85.2359C216.857 85.7494 217.087 86.2629 217.259 86.7193C217.719 87.8604 218.753 88.3168 219.96 87.9174C221.224 87.518 222.028 86.5481 222.718 85.5212C222.833 85.35 222.775 85.1218 222.775 84.9507C222.775 80.3865 222.775 75.8223 222.775 71.2011C222.775 70.9158 222.603 70.5165 222.43 70.2882C222.028 69.7177 221.511 69.2043 221.051 68.6908C220.649 68.2344 220.534 67.7209 220.822 67.1504C221.109 66.5798 221.569 66.4087 222.143 66.4087C224.557 66.4087 226.912 66.4087 229.326 66.4087C230.245 66.4087 230.762 66.8651 230.82 67.7209C230.82 67.9491 230.82 68.1773 230.82 68.4055C230.82 73.8255 230.82 79.2455 230.82 84.6654C230.82 85.1789 230.935 85.5212 231.394 85.8065C231.797 86.0917 232.141 86.434 232.486 86.7193C233.348 87.5751 233.061 88.9443 231.854 89.2867C229.613 89.9713 227.372 90.6559 225.131 91.2835C223.81 91.6829 222.775 90.8271 222.718 89.4578C222.718 89.3437 222.718 89.0585 222.718 88.602Z" fill="#FFFFFF"/>
<path d="M536.913 66.5229C539.958 66.58 543.751 68.0634 546.336 71.9429C549.784 77.1347 548.98 85.7496 542.774 89.5721C537.545 92.767 530.018 91.9683 525.938 87.7464C523.352 85.122 522.49 81.87 522.605 78.2757C522.893 71.3724 528.121 66.5229 536.913 66.5229ZM540.303 83.8098C540.131 79.8732 539.556 76.5071 538.407 73.2551C538.062 72.2852 537.487 71.3153 536.855 70.4596C535.189 68.4627 532.029 69.0333 531.109 71.4865C530.765 72.3993 530.65 73.4263 530.65 74.3391C530.592 77.3629 531.167 80.3296 531.971 83.2393C532.374 84.7797 532.891 86.263 533.925 87.5752C534.787 88.6022 535.821 89.0586 537.143 88.8304C538.522 88.6022 539.499 87.8035 539.843 86.4913C540.131 85.4073 540.246 84.3803 540.303 83.8098Z" fill="#FFFFFF"/>
<path d="M507.148 66.5229C511.17 66.58 514.848 68.0063 517.434 71.4865C521.341 76.7924 520.594 86.3201 513.469 90.0285C508.642 92.5388 501.345 92.0253 497.322 87.7464C495.254 85.5214 494.219 82.954 494.047 79.9873C493.875 76.5071 494.679 73.3122 497.035 70.6307C499.678 67.7211 503.068 66.58 507.148 66.5229ZM511.745 83.7527C511.573 79.9873 511.055 76.7353 509.964 73.5404C509.561 72.2852 509.044 71.1442 508.068 70.1743C506.401 68.5768 503.528 69.0332 502.666 71.1442C502.264 72.057 502.092 73.141 502.092 74.168C502.034 77.3058 502.551 80.3296 503.471 83.2963C503.873 84.6656 504.505 86.0348 505.252 87.2329C505.941 88.431 507.148 88.9445 508.585 88.7163C510.021 88.4881 510.998 87.6323 511.343 86.206C511.573 85.3502 511.688 84.3233 511.745 83.7527Z" fill="#FFFFFF"/>
<path d="M244.208 81.87C246.219 85.6355 250.356 87.2329 253.976 85.6355C255.298 85.0649 256.332 84.1521 257.252 83.1251C257.596 82.6687 258.056 82.4405 258.573 82.6687C258.976 82.8399 259.32 83.1822 259.493 83.5245C259.608 83.7527 259.55 84.1521 259.435 84.4374C256.045 91.8542 245.472 93.9651 239.439 88.374C236.911 86.0348 235.876 83.011 235.761 79.702C235.646 75.9936 236.623 72.6275 239.439 70.0031C241.795 67.721 244.725 66.7511 248.001 66.58C253.976 66.2947 257.539 70.1743 259.09 74.9667C259.378 75.8795 258.976 76.5071 257.884 76.9064C255.585 77.7622 253.287 78.561 250.988 79.4167C248.69 80.2155 246.449 81.0142 244.208 81.87ZM243.174 79.4167C246.219 78.2757 249.15 77.1917 252.138 76.1077C251.391 74.1679 250.529 72.4564 249.15 71.0301C248.748 70.6307 248.23 70.2313 247.713 70.0031C246.047 69.0903 244.381 69.6037 243.576 71.3153C242.254 73.9397 242.484 76.6212 243.174 79.4167Z" fill="#FFFFFF"/>
<path d="M349.074 75.5942C349.131 77.9334 349.591 79.9872 350.625 81.927C353.268 86.9476 359.072 87.6893 362.922 83.5245C363.094 83.2963 363.324 83.0681 363.496 82.8969C363.956 82.4975 364.646 82.4975 365.163 82.8399C365.622 83.1822 365.852 83.7527 365.508 84.3803C363.267 88.7162 359.762 91.2836 354.762 91.5688C352.119 91.683 349.648 91.2265 347.35 89.8573C344.362 88.0316 342.638 85.3502 342.064 81.927C341.432 78.4468 341.776 75.0237 343.787 72.057C346.431 68.1204 350.338 66.58 354.935 66.637C357.463 66.637 359.876 67.0934 362.002 68.5768C362.922 69.2614 363.784 70.1172 364.473 70.973C365.565 72.2852 365.622 73.8256 364.761 75.309C363.956 76.7923 362.577 77.534 360.853 77.4199C359.129 77.3628 357.98 76.45 357.233 74.9096C356.544 73.5403 355.854 72.2281 355.05 70.9159C354.762 70.4595 354.245 70.1172 353.728 69.889C352.407 69.2044 351.142 69.5467 350.28 70.7448C349.246 72.2281 349.131 73.9397 349.074 75.5942Z" fill="#FFFFFF"/>
<path d="M446.125 75.7084C446.182 78.1046 446.7 80.3867 447.964 82.4406C449.515 85.008 451.814 86.4913 454.916 86.2631C457.1 86.092 458.766 84.9509 460.203 83.4105C460.318 83.2393 460.49 83.0682 460.605 82.9541C461.065 82.5547 461.812 82.5547 462.271 82.9541C462.788 83.3534 462.903 83.8669 462.616 84.4374C460.605 88.317 457.617 90.8273 453.193 91.5119C451.067 91.8542 448.998 91.626 446.929 90.9985C443.712 89.9715 441.356 87.9176 440.034 84.7798C438.54 81.2425 438.425 77.6482 439.862 74.0539C441.873 69.2615 445.723 66.9794 450.779 66.6371C453.02 66.466 455.204 66.7512 457.272 67.55C459.054 68.2916 460.548 69.4327 461.639 70.9731C462.616 72.3424 462.731 73.8257 461.927 75.3091C461.122 76.7924 459.743 77.5341 458.077 77.4771C456.41 77.42 455.204 76.5642 454.457 75.0238C453.94 73.9398 453.48 72.7988 452.848 71.7718C452.446 71.0872 451.871 70.5167 451.239 70.0603C449.917 69.1474 448.366 69.4897 447.447 70.8019C446.757 71.7718 446.47 72.9699 446.297 74.111C446.182 74.6244 446.125 75.1379 446.125 75.7084Z" fill="#FFFFFF"/>
<path d="M201.802 72.7417C201.802 77.2488 201.802 81.6989 201.802 86.2061C201.802 86.5484 201.974 86.9477 202.147 87.233C202.549 87.8035 203.009 88.317 203.468 88.8305C203.871 89.2869 204.043 89.8004 203.756 90.3138C203.468 90.8843 203.009 91.1126 202.434 91.1126C199.331 91.1126 196.171 91.1126 193.068 91.1126C192.493 91.1126 191.976 90.8843 191.746 90.3138C191.459 89.7433 191.574 89.1728 192.034 88.8305C193.585 87.5753 193.815 85.9208 193.758 84.0381C193.643 77.42 193.7 70.7449 193.758 64.1268C193.758 63.6704 193.643 63.3281 193.24 63.0428C192.838 62.7576 192.436 62.4152 192.091 62.0729C191.229 61.2172 191.517 59.9049 192.666 59.5056C194.964 58.7639 197.32 58.0793 199.619 57.3946C200.768 57.0523 201.802 58.0222 201.802 59.2774C201.802 61.5595 201.802 63.8986 201.802 66.1807C201.802 68.3487 201.802 70.5167 201.802 72.7417Z" fill="#FFFFFF"/>
<path d="M560.817 72.6845C560.817 77.1346 560.817 81.5847 560.817 86.0918C560.817 86.4912 560.989 86.8905 561.219 87.2329C561.621 87.8034 562.081 88.2598 562.54 88.8303C562.885 89.2867 563.058 89.7432 562.828 90.2566C562.54 90.8271 562.138 91.0554 561.506 91.0554C558.346 91.0554 555.185 91.0554 552.082 91.0554C551.508 91.0554 551.048 90.8272 550.761 90.3137C550.474 89.7432 550.588 89.2297 550.991 88.8303C551.048 88.7733 551.106 88.6592 551.163 88.6021C552.542 87.4611 552.772 86.0348 552.772 84.3232C552.657 77.591 552.715 70.8588 552.772 64.1267C552.772 63.6132 552.657 63.2709 552.255 62.9856C551.968 62.7574 551.68 62.5292 551.393 62.301C550.129 61.1599 550.416 59.8477 552.025 59.3913C553.864 58.8208 555.645 58.3073 557.484 57.7368C557.714 57.6798 557.943 57.5657 558.231 57.5086C559.782 57.0522 560.817 57.7939 560.817 59.3913C560.817 63.7844 560.817 68.2344 560.817 72.6845Z" fill="#FFFFFF"/>
<path d="M315.172 70.1743C315.919 69.4326 316.494 68.6339 317.241 68.0063C318.85 66.58 320.746 65.9525 322.929 66.523C324.94 67.0935 326.032 68.8621 325.687 70.916C325.4 72.8558 323.791 74.225 321.895 74.225C321.033 74.225 320.401 73.7686 319.769 73.1981C319.252 72.6846 318.735 72.1712 318.16 71.7147C317.356 71.0872 316.666 71.1442 315.977 71.8859C315.459 72.4564 315.115 73.0269 315.172 73.8827C315.23 77.9905 315.172 82.0983 315.23 86.149C315.23 86.4913 315.402 86.9477 315.632 87.233C316.034 87.8035 316.494 88.3169 316.953 88.8304C317.298 89.2868 317.471 89.7433 317.183 90.3138C316.896 90.8843 316.494 91.1125 315.862 91.1125C312.701 91.1125 309.541 91.1125 306.438 91.1125C305.863 91.1125 305.404 90.8843 305.174 90.3708C304.887 89.8574 305.002 89.3439 305.404 88.8875C305.404 88.8304 305.461 88.8304 305.519 88.7734C307.013 87.5182 307.3 85.9208 307.242 84.038C307.128 80.4437 307.185 76.7924 307.242 73.1981C307.242 72.7417 307.128 72.3994 306.783 72.1712C306.381 71.8859 306.036 71.5436 305.691 71.2013C304.772 70.3455 305.002 68.9762 306.208 68.5769C308.449 67.8922 310.69 67.2076 312.989 66.523C314.253 66.1807 315.287 66.9794 315.344 68.2916C315.23 68.9192 315.172 69.4897 315.172 70.1743Z" fill="#FFFFFF"/>
<path d="M337.409 77.42C337.409 80.3296 337.409 83.2393 337.409 86.149C337.409 86.4913 337.582 86.9477 337.812 87.233C338.214 87.7464 338.673 88.2599 339.076 88.7734C339.478 89.2298 339.593 89.7433 339.363 90.3138C339.133 90.8843 338.673 91.1125 338.041 91.1125C334.938 91.1125 331.778 91.1125 328.675 91.1125C328.101 91.1125 327.584 90.8843 327.354 90.3138C327.066 89.7433 327.181 89.1728 327.698 88.7734C329.077 87.5753 329.48 86.149 329.422 84.3233C329.307 80.672 329.365 77.0206 329.422 73.3122C329.422 72.7987 329.25 72.3994 328.848 72.1141C328.503 71.8289 328.158 71.5436 327.813 71.2013C326.894 70.3455 327.181 68.9762 328.331 68.6339C330.629 67.8922 332.985 67.2076 335.283 66.58C336.432 66.2377 337.467 67.2076 337.467 68.5198C337.409 71.4295 337.352 74.4533 337.409 77.42Z" fill="#FFFFFF"/>
<path d="M332.985 56.3105C335.398 56.3105 337.352 57.908 337.639 60.1901C337.869 62.301 336.203 64.5261 333.962 65.0396C331.146 65.7242 328.503 64.1267 328.158 61.5023C327.756 58.7068 329.997 56.3105 332.985 56.3105Z" fill="#FFFFFF"/>
</g>
<defs>
<clipPath id="clip0_1179_94583">
<rect width="563" height="144" fill="white"/>
</clipPath>
</defs>
</svg>
