<?xml version="1.0" encoding="UTF-8" standalone="no"?>
<svg
   width="45.613834"
   height="45.324261"
   viewBox="0 0 45.613834 45.324261"
   fill="none"
   version="1.1"
   id="svg8"
   sodipodi:docname="Group 70.svg"
   inkscape:export-filename="/home/felipe/Desktop/star.png"
   inkscape:export-xdpi="108.35"
   inkscape:export-ydpi="108.35"
   inkscape:version="1.1.1 (3bf5ae0d25, 2021-09-20)"
   xmlns:inkscape="http://www.inkscape.org/namespaces/inkscape"
   xmlns:sodipodi="http://sodipodi.sourceforge.net/DTD/sodipodi-0.dtd"
   xmlns="http://www.w3.org/2000/svg"
   xmlns:svg="http://www.w3.org/2000/svg">
  <defs
     id="defs12" />
  <sodipodi:namedview
     id="namedview10"
     pagecolor="#505050"
     bordercolor="#ffffff"
     borderopacity="1"
     inkscape:pageshadow="0"
     inkscape:pageopacity="0"
     inkscape:pagecheckerboard="1"
     showgrid="false"
     fit-margin-top="0"
     fit-margin-left="0"
     fit-margin-right="0"
     fit-margin-bottom="0"
     inkscape:zoom="2.4050935"
     inkscape:cx="-90.433076"
     inkscape:cy="5.8209796"
     inkscape:window-width="1366"
     inkscape:window-height="731"
     inkscape:window-x="0"
     inkscape:window-y="0"
     inkscape:window-maximized="1"
     inkscape:current-layer="svg8" />
  <g
     id="g71"
     transform="matrix(0.61599304,0,0,0.61599304,-76.478113,-57.930387)">
    <path
       d="m 148.0511,167.6214 c -2.8287,-0.0892 -5.5085,-1.2887 -7.4596,-3.3387 -1.951,-2.0501 -3.0165,-4.7859 -2.9658,-7.6155 l 0.0716,-12.4331 -9.51951,-7.7872 c -1.51109,-1.2387 -2.6647,-2.8577 -3.34202,-4.6904 -0.67733,-1.8328 -0.85389,-3.8129 -0.51151,-5.7366 0.32783,-1.8971 1.15629,-3.6723 2.39978,-5.1421 1.24349,-1.4698 2.85689,-2.5809 4.6735,-3.2185 l 16.10966,-5.5666 4.4781,-11.28557 c 0.7284,-1.916572 2.0025,-3.577662 3.6648,-4.777922 1.6623,-1.20026 3.6399,-1.887078 5.6884,-1.975539 2.0484,-0.08846 4.0778,0.425309 5.8374,1.477799 1.7596,1.05249 3.1722,2.59755 4.0631,4.44419 l 5.5209,11.123642 12.1952,1.605 c 1.9842,0.2665 3.8518,1.0916 5.385,2.379 1.5332,1.2874 2.6689,2.984 3.2747,4.8922 0.6735,1.9687 0.7713,4.0887 0.2819,6.111 -0.4893,2.0223 -1.5456,3.863 -3.0447,5.306 l -6.8113,6.5316 0.9261,17.4285 c 0.0888,1.5058 -0.1328,3.0137 -0.651,4.4303 -0.5181,1.4166 -1.3218,2.7117 -2.3612,3.8048 -1.0037,1.0455 -2.2117,1.8733 -3.5489,2.4321 -1.3372,0.5587 -2.7751,0.8364 -4.2242,0.8158 v 0 c -1.989,-0.0404 -3.925,-0.6484 -5.5801,-1.7523 l -9.1933,-6.1222 -9.0064,6.6238 c -1.8339,1.3615 -4.067,2.0776 -6.3506,2.0365 z"
       fill="#ffffff"
       id="path2" />
    <path
       d="m 157.9562,103.15252 -4.8268,12.14168 c -0.2203,0.5765 -0.563,1.0983 -1.0043,1.5296 -0.4414,0.4313 -0.971,0.7618 -1.5523,0.9688 l -17.10625,5.9232 c -3.19606,1.1048 -3.95221,5.5757 -1.26081,7.7432 l 10.29406,8.3983 c 0.5197,0.4312 0.9357,0.9738 1.2172,1.5876 0.2815,0.6137 0.4214,1.283 0.4093,1.9581 l -0.0796,13.3013 c -0.021,3.589 3.7647,5.7104 6.5195,3.672 l 10.4191,-7.636 c 0.6526,-0.4901 1.4409,-0.7663 2.2566,-0.7907 0.8158,-0.0245 1.6191,0.204 2.2999,0.6541 l 10.6442,7.0726 c 2.8631,1.9002 6.5557,-0.4378 6.3645,-4.0304 l -0.9838,-18.2141 c -0.0432,-0.6542 0.0546,-1.3101 0.2867,-1.9233 0.2321,-0.6131 0.5932,-1.1693 1.0589,-1.6309 l 7.439,-7.1452 c 2.6151,-2.5296 1.2716,-7.2284 -2.265,-7.6988 l -13.479,-1.7679 c -0.6803,-0.0949 -1.3265,-0.3568 -1.881,-0.7622 -0.5545,-0.4054 -1,-0.9418 -1.2967,-1.5613 l -5.9606,-12.14727 c -0.3389,-0.73315 -0.8889,-1.3485 -1.5795,-1.76729 -0.6906,-0.4188 -1.4905,-0.622 -2.2973,-0.5836 -0.8068,0.0384 -1.5837,0.31666 -2.2315,0.79916 -0.6477,0.4825 -1.1367,1.1473 -1.4045,1.90932 z"
       fill="#f79411"
       id="path4" />
    <path
       d="m 148.2039,158.1048 c -0.334,-0.0413 -0.6385,-0.2119 -0.8481,-0.4752 -0.2097,-0.2632 -0.3079,-0.5981 -0.2735,-0.9329 l 0.0855,-13.2754 c 0.0162,-1.13 -0.2229,-2.249 -0.6992,-3.2738 -0.4764,-1.0247 -1.1778,-1.9288 -2.052,-2.6449 l -10.2878,-8.3918 c -0.2017,-0.1801 -0.3529,-0.4097 -0.4389,-0.666 -0.086,-0.2563 -0.1037,-0.5307 -0.0514,-0.7959 0.0308,-0.2328 0.1224,-0.4534 0.2655,-0.6396 0.1431,-0.1862 0.3327,-0.3314 0.5497,-0.4211 l 17.0995,-5.904 c 0.9978,-0.3505 1.9078,-0.913 2.6674,-1.6488 0.7595,-0.7358 1.3506,-1.6275 1.7326,-2.6137 L 160.78,104.28 c 0.0642,-0.2267 0.1996,-0.4268 0.3861,-0.5707 0.1865,-0.144 0.4144,-0.2243 0.6499,-0.229 0.2029,0.007 0.3992,0.0738 0.5651,0.1907 0.1659,0.117 0.2943,0.2796 0.3696,0.4681 l 6.0312,12.1549 c 0.5173,1.063 1.2882,1.9823 2.2448,2.6769 0.9566,0.6946 2.0694,1.1431 3.2403,1.306 l 13.4791,1.7678 c 0.2199,0.0406 0.4235,0.1437 0.5864,0.297 0.1628,0.1533 0.2781,0.3503 0.332,0.5673 0.1011,0.2776 0.1208,0.5783 0.0567,0.8667 -0.064,0.2884 -0.2092,0.5525 -0.4183,0.7612 l -7.4713,7.1511 c -0.7849,0.7614 -1.3965,1.683 -1.7931,2.7021 -0.3966,1.0192 -0.5688,2.1118 -0.505,3.2034 l 0.9834,18.2399 c 0.0205,0.2098 -0.004,0.4215 -0.0715,0.6211 -0.0677,0.1996 -0.177,0.3826 -0.3208,0.5367 -0.1032,0.1063 -0.2272,0.1903 -0.3643,0.2467 -0.137,0.0563 -0.2842,0.0839 -0.4324,0.081 -0.1792,-0.007 -0.3526,-0.0653 -0.4989,-0.1691 l -10.6188,-7.0529 c -1.1979,-0.7992 -2.6131,-1.2094 -4.0527,-1.1746 -1.4396,0.0348 -2.8334,0.5128 -3.9913,1.369 l -10.419,7.636 c -0.1578,0.1149 -0.348,0.1771 -0.5433,0.1775 z"
       fill="#ffa21a"
       id="path6" />
  </g>
</svg>
