<svg width="352" height="88" viewBox="0 0 352 88" fill="none" xmlns="http://www.w3.org/2000/svg">
<path d="M67.5713 27.2642H20.5228C17.598 27.2642 15.2271 29.6351 15.2271 32.5599V43.5599C15.2955 46.4328 17.649 48.7235 20.5228 48.7142H23.6656C25.9221 48.7142 27.7513 50.5434 27.7513 52.7999V70.0856C27.7388 71.4901 28.2847 72.8421 29.269 73.8441C30.2533 74.8461 31.5954 75.416 32.9999 75.4284H55.0785C58.0032 75.4284 60.3742 73.0575 60.3742 70.1327V52.847C60.3616 51.7607 60.7822 50.7141 61.543 49.9386C62.3038 49.163 63.3421 48.7224 64.4285 48.7142H67.5713C68.9744 48.7183 70.3214 48.1639 71.315 47.1733C72.3086 46.1826 72.8671 44.8372 72.8671 43.4342V32.4342C72.7988 29.5586 70.4477 27.2633 67.5713 27.2642Z" fill="#C92373"/>
<path d="M38.3115 24.9229C37.8558 23.9014 37.3844 22.8957 36.8815 21.9057C36.089 20.2157 35.2077 18.5686 34.2415 16.9714C33.4214 15.4945 32.2965 14.2089 30.9415 13.2C29.8317 12.4198 28.3671 12.3645 27.2015 13.0586C26.2432 13.8438 25.8112 15.1033 26.0858 16.3114C26.5578 18.0383 27.5987 19.5554 29.0401 20.6172C30.4624 21.7839 31.9758 22.8349 33.5658 23.76C34.3201 24.2314 35.1373 24.6714 35.8601 25.1272C36.583 25.5829 37.3058 26.2429 38.0915 26.0229C38.6101 25.8343 38.4687 25.2843 38.3115 24.9229Z" fill="#210B57"/>
<path d="M49.7358 24.9229C50.1915 23.9014 50.6787 22.8957 51.1658 21.9057C51.9637 20.2154 52.8502 18.5684 53.8215 16.9714C54.6368 15.4911 55.7625 14.2046 57.1215 13.2C58.2314 12.4198 59.696 12.3645 60.8615 13.0586C61.8137 13.8481 62.2443 15.1037 61.9772 16.3114C61.4931 18.0327 60.4547 19.5461 59.023 20.6172C57.6007 21.7839 56.0873 22.8349 54.4972 23.76L52.1872 25.1429C51.5587 25.4886 50.7415 26.2586 49.9558 26.0386C49.4372 25.8343 49.5787 25.2843 49.7358 24.9229Z" fill="#210B57"/>
<path d="M25.8971 41.093C27.6155 41.093 29.0085 39.6999 29.0085 37.9815C29.0085 36.2632 27.6155 34.8701 25.8971 34.8701C24.1787 34.8701 22.7856 36.2632 22.7856 37.9815C22.7856 39.6999 24.1787 41.093 25.8971 41.093Z" fill="white"/>
<path d="M26.9499 37.9815C26.5739 37.9727 26.2485 37.7174 26.1505 37.3543C26.0524 36.9912 26.2051 36.6069 26.5256 36.41C25.8619 36.1915 25.1336 36.4374 24.7383 37.0137C24.343 37.5899 24.3757 38.3579 24.8185 38.8985C25.2614 39.439 26.008 39.6222 26.6507 39.348C27.2935 39.0738 27.6779 38.4081 27.5942 37.7143C27.4254 37.8883 27.1923 37.985 26.9499 37.9815Z" fill="#210B57"/>
<path d="M62.1656 41.093C63.884 41.093 65.2771 39.6999 65.2771 37.9815C65.2771 36.2632 63.884 34.8701 62.1656 34.8701C60.4472 34.8701 59.0542 36.2632 59.0542 37.9815C59.0542 39.6999 60.4472 41.093 62.1656 41.093Z" fill="white"/>
<path d="M63.2187 37.9815C62.8427 37.9727 62.5173 37.7174 62.4193 37.3543C62.3212 36.9912 62.4739 36.6069 62.7944 36.41C62.1307 36.1915 61.4024 36.4374 61.0071 37.0137C60.6117 37.5899 60.6445 38.3579 61.0873 38.8985C61.5302 39.439 62.2768 39.6222 62.9195 39.348C63.5623 39.0738 63.9467 38.4081 63.863 37.7143C63.6942 37.8883 63.4611 37.985 63.2187 37.9815Z" fill="#210B57"/>
<path d="M44.0002 45.3042C42.243 45.3219 40.6334 44.3242 39.8673 42.7428C39.7903 42.4931 39.9052 42.2243 40.1389 42.1074C40.3727 41.9906 40.6566 42.0599 40.8102 42.2713C41.4095 43.4807 42.6426 44.2459 43.9923 44.2459C45.3421 44.2459 46.5751 43.4807 47.1745 42.2713C47.3089 42.0146 47.6235 41.9119 47.8835 42.0398C48.1436 42.1677 48.2542 42.4796 48.133 42.7428C47.3582 44.3163 45.7541 45.3104 44.0002 45.3042Z" fill="white"/>
<path fill-rule="evenodd" clip-rule="evenodd" d="M330.57 32.4975C331.252 31.8133 332.177 31.4287 333.143 31.4287C334.121 31.4286 335.058 31.8213 335.743 32.5186C336.429 33.216 336.805 34.1595 336.788 35.1373V67.5716C336.878 68.9283 336.204 70.222 335.042 70.9274C333.88 71.6329 332.421 71.6329 331.259 70.9274C330.097 70.222 329.423 68.9283 329.513 67.5716V35.0744C329.509 34.109 329.889 33.1816 330.57 32.4975ZM281.427 42.4287C273.462 42.4374 267.011 48.8998 267.017 56.8649C267.023 64.83 273.483 71.283 281.448 71.2801C289.413 71.2772 295.868 64.8195 295.868 56.8544C295.868 53.0258 294.346 49.3542 291.638 46.6484C288.929 43.9426 285.256 42.4245 281.427 42.4287ZM281.427 64.0044C278.535 64.0044 275.928 62.2624 274.822 59.5906C273.715 56.9188 274.327 53.8435 276.371 51.7986C278.416 49.7537 281.492 49.142 284.163 50.2487C286.835 51.3553 288.577 53.9625 288.577 56.8544C288.534 60.7725 285.346 63.9261 281.427 63.9258V64.0044ZM297.786 56.8544C297.786 48.8873 304.244 42.4287 312.212 42.4287C316.037 42.4287 319.707 43.9486 322.412 46.6539C325.117 49.3593 326.637 53.0285 326.637 56.8544C326.637 64.8215 320.179 71.2801 312.212 71.2801C304.244 71.2801 297.786 64.8215 297.786 56.8544ZM312.211 64.0044C309.319 64.0044 306.712 62.2624 305.605 59.5906C304.499 56.9188 305.11 53.8435 307.155 51.7986C309.2 49.7537 312.276 49.142 314.947 50.2487C317.619 51.3553 319.361 53.9625 319.361 56.8544C319.31 60.7689 316.126 63.9176 312.211 63.9258V64.0044ZM120.89 37.9815C120.96 36.976 120.608 35.9867 119.92 35.2506C119.231 34.5144 118.268 34.0976 117.26 34.1001H94.0657C92.1162 34.0683 90.475 35.5515 90.31 37.4943C90.2402 38.4998 90.5916 39.4891 91.28 40.2253C91.9685 40.9614 92.9321 41.3782 93.94 41.3758H100.666C101.377 41.3758 101.954 41.9527 101.954 42.6643V67.4301C101.92 69.3576 103.368 70.99 105.286 71.1858C106.299 71.2738 107.303 70.9328 108.052 70.2457C108.802 69.5586 109.229 68.5885 109.23 67.5715V42.6643C109.239 41.9501 109.82 41.3757 110.534 41.3758H117.134C119.081 41.3998 120.718 39.9206 120.89 37.9815ZM154.425 44.0001C156.799 42.7646 159.472 42.2201 162.14 42.4287C169.935 43.0764 175.794 49.818 175.348 57.6271C174.902 65.4361 168.315 71.4672 160.497 71.2236C152.679 70.9799 146.479 64.5503 146.52 56.7287V35.1373C146.518 34.1293 146.935 33.1658 147.671 32.4773C148.407 31.7888 149.396 31.4374 150.402 31.5073C152.345 31.6722 153.828 33.3134 153.796 35.263V43.6073C153.798 43.7573 153.876 43.8962 154.003 43.9757C154.13 44.0552 154.289 44.0644 154.425 44.0001ZM160.945 63.9572C157.007 63.9312 153.831 60.725 153.843 56.7865C153.854 52.8479 157.049 49.6603 160.987 49.6574C164.926 49.6545 168.125 52.8373 168.143 56.7758C168.143 58.6803 167.383 60.5061 166.032 61.8484C164.681 63.1906 162.85 63.9384 160.945 63.9258V63.9572ZM115.135 52.5009C116.906 46.8524 121.947 42.859 127.851 42.4286C131.817 42.1642 135.716 43.5496 138.626 46.2572C141.536 48.9647 143.198 52.754 143.22 56.7287V67.4772C143.241 69.4662 141.701 71.1234 139.716 71.2486C138.437 71.2633 137.245 70.6074 136.573 69.5201C136.517 69.421 136.423 69.3495 136.313 69.3227C136.203 69.2959 136.086 69.3162 135.991 69.3787C130.836 72.2885 124.427 71.7538 119.825 68.0301C115.224 64.3063 113.364 58.1493 115.135 52.5009ZM136.022 56.823C135.996 60.7635 132.787 63.9402 128.846 63.9258C124.906 63.9114 121.72 60.7113 121.722 56.7707C121.725 52.8301 124.916 49.6346 128.857 49.6258C132.805 49.6258 136.007 52.827 136.007 56.7758L136.022 56.823ZM243.775 44.0001C245.801 42.956 248.049 42.4169 250.328 42.4287C258.304 42.5905 264.697 49.0811 264.738 57.0587V67.5715C264.736 68.5767 264.318 69.5361 263.582 70.2211C262.846 70.9061 261.86 71.2554 260.857 71.1858C258.908 71.0286 257.416 69.3852 257.447 67.4301V56.9644C257.455 55.0237 256.691 53.1594 255.323 51.7827C253.955 50.406 252.096 49.63 250.155 49.6258C246.258 49.6945 243.138 52.8781 243.147 56.7758V67.5715C243.145 68.5738 242.728 69.5306 241.996 70.2151C241.264 70.8996 240.281 71.2509 239.281 71.1858C237.332 71.0286 235.84 69.3852 235.871 67.4301V35.1372C235.873 34.1308 236.291 33.1701 237.027 32.4826C237.762 31.7952 238.748 31.4422 239.752 31.5072C241.695 31.6722 243.179 33.3134 243.147 35.263V43.6072C243.148 43.7573 243.226 43.8962 243.354 43.9757C243.481 44.0552 243.64 44.0644 243.775 44.0001ZM231.267 61.2858H231.126C229.581 60.5875 227.766 60.9192 226.569 62.1186C225.165 63.4708 223.267 64.1867 221.32 64.0986C217.495 63.8578 214.541 60.6446 214.621 56.8133C214.701 52.982 217.787 49.8951 221.619 49.8143C223.494 49.8035 225.298 50.5383 226.631 51.8572C227.78 53.0285 229.539 53.3551 231.031 52.6743C232.061 52.1905 232.794 51.2412 233.003 50.1233C233.211 49.0054 232.87 47.8554 232.084 47.0329C227.997 42.7283 221.689 41.3673 216.19 43.6034C210.691 45.8394 207.123 51.2158 207.199 57.1517C207.275 63.0875 210.98 68.3706 216.535 70.4648C222.089 72.559 228.36 71.0367 232.336 66.6286C233.124 65.8374 233.468 64.7066 233.253 63.6106C233.039 62.5146 232.295 61.5964 231.267 61.16V61.2858ZM191.714 48.8558C194.635 49.2392 197.463 50.1497 200.058 51.543V51.4173C204.034 53.7901 206.014 57.5773 205.354 61.4587C204.6 66.0001 200.656 69.5987 195.313 70.7144C193.989 70.9856 192.641 71.1225 191.29 71.123C186.667 71.1212 182.144 69.7843 178.263 67.273C176.793 66.1252 176.409 64.0616 177.369 62.4624C178.328 60.8632 180.33 60.2304 182.034 60.9873C186.403 63.5487 190.127 64.3187 193.804 63.5487C196.523 62.9987 197.906 61.4273 198.094 60.2958C198.283 59.1644 197.23 58.2687 196.303 57.7187C194.453 56.8798 192.478 56.349 190.457 56.1473L190.298 56.1192C186.692 55.4824 182.634 54.766 179.63 51.6687C177.257 49.3762 176.292 45.9892 177.1 42.7901C178.199 39.0462 181.181 36.1532 184.957 35.1687C190.65 33.729 196.674 34.4512 201.866 37.1958C203.679 38.1158 204.404 40.332 203.484 42.1458C202.564 43.9597 200.348 44.6844 198.534 43.7644C195.039 41.885 190.983 41.3271 187.11 42.193C185.801 42.4426 184.711 43.3435 184.218 44.5815C184.065 45.2857 184.313 46.0171 184.863 46.483C186.261 47.8973 188.917 48.3687 191.714 48.8558Z" fill="white"/>
</svg>
