<svg width="187" height="167" viewBox="0 0 187 167" fill="none" xmlns="http://www.w3.org/2000/svg">
<path d="M2.05576 4.14C1.52532 4.15459 1.01082 3.95786 0.625434 3.5931C0.240047 3.22835 0.0153439 2.72543 0.000756995 2.195C-0.0138299 1.66457 0.182894 1.15006 0.547653 0.764677C0.912411 0.37929 1.41532 0.154587 1.94576 0.14C3.47576 0.06 5.05576 0 6.53576 0C7.06619 0 7.5749 0.210714 7.94997 0.585786C8.32504 0.960859 8.53576 1.46957 8.53576 2C8.53576 2.53043 8.32504 3.03914 7.94997 3.41421C7.5749 3.78929 7.06619 4 6.53576 4C5.07576 4 3.59576 4.06 2.12576 4.14H2.05576Z" fill="#38B7EE"/>
<path d="M170.416 165.73H170.206C167.146 165.41 164.056 164.95 161.046 164.34C160.78 164.298 160.525 164.203 160.297 164.06C160.068 163.917 159.871 163.729 159.717 163.508C159.563 163.287 159.455 163.038 159.4 162.774C159.345 162.51 159.344 162.238 159.396 161.974C159.449 161.71 159.554 161.459 159.706 161.237C159.858 161.014 160.053 160.825 160.28 160.68C160.507 160.535 160.761 160.437 161.026 160.392C161.292 160.348 161.564 160.357 161.826 160.42C164.726 161 167.686 161.42 170.626 161.75C170.888 161.764 171.146 161.829 171.383 161.942C171.62 162.056 171.833 162.215 172.009 162.41C172.185 162.605 172.321 162.834 172.409 163.082C172.496 163.33 172.534 163.592 172.521 163.855C172.507 164.118 172.442 164.375 172.328 164.612C172.215 164.85 172.056 165.062 171.861 165.238C171.665 165.414 171.437 165.55 171.189 165.638C170.941 165.726 170.678 165.764 170.416 165.75V165.73ZM152.636 162.17C152.439 162.169 152.244 162.138 152.056 162.08C149.056 161.19 146.156 160.14 143.326 158.98C143.072 158.889 142.839 158.747 142.641 158.564C142.443 158.38 142.284 158.159 142.174 157.912C142.064 157.665 142.005 157.399 142.001 157.129C141.997 156.86 142.047 156.592 142.149 156.342C142.251 156.092 142.402 155.865 142.594 155.675C142.786 155.485 143.015 155.336 143.266 155.237C143.517 155.138 143.785 155.091 144.055 155.098C144.325 155.105 144.59 155.167 144.836 155.28C147.556 156.39 150.376 157.4 153.216 158.28C153.68 158.415 154.079 158.714 154.34 159.121C154.601 159.527 154.705 160.015 154.635 160.493C154.564 160.971 154.322 161.407 153.955 161.721C153.588 162.035 153.119 162.205 152.636 162.2V162.17ZM135.856 155.28C135.531 155.277 135.212 155.194 134.926 155.04C132.181 153.593 129.511 152.007 126.926 150.29C126.707 150.144 126.519 149.956 126.373 149.737C126.227 149.518 126.126 149.272 126.075 149.014C126.024 148.756 126.024 148.49 126.076 148.232C126.127 147.974 126.229 147.729 126.376 147.51C126.522 147.291 126.71 147.104 126.929 146.958C127.148 146.812 127.394 146.71 127.652 146.659C127.91 146.608 128.176 146.608 128.434 146.66C128.692 146.712 128.937 146.814 129.156 146.96C131.613 148.606 134.153 150.125 136.766 151.51C137.162 151.718 137.477 152.054 137.66 152.463C137.843 152.871 137.883 153.329 137.775 153.764C137.667 154.198 137.416 154.584 137.062 154.859C136.709 155.134 136.273 155.282 135.826 155.28H135.856ZM120.796 145.19C120.327 145.188 119.874 145.022 119.516 144.72C117.131 142.737 114.861 140.62 112.716 138.38C112.348 137.997 112.148 137.483 112.16 136.953C112.171 136.422 112.392 135.917 112.776 135.55C113.159 135.183 113.672 134.983 114.203 134.994C114.734 135.005 115.238 135.227 115.606 135.61C117.646 137.731 119.807 139.735 122.076 141.61C122.278 141.778 122.446 141.984 122.568 142.217C122.691 142.449 122.767 142.704 122.791 142.966C122.815 143.228 122.787 143.492 122.709 143.743C122.631 143.995 122.504 144.228 122.336 144.43C122.152 144.663 121.918 144.852 121.651 144.984C121.385 145.115 121.093 145.186 120.796 145.19ZM108.286 132.08C107.975 132.08 107.669 132.008 107.391 131.869C107.114 131.73 106.872 131.528 106.686 131.28C105.536 129.74 104.426 128.14 103.406 126.53C102.776 125.53 102.166 124.53 101.586 123.45C101.458 123.22 101.377 122.968 101.348 122.706C101.318 122.445 101.34 122.181 101.412 121.928C101.485 121.676 101.606 121.44 101.77 121.234C101.933 121.029 102.136 120.857 102.366 120.73C102.596 120.603 102.848 120.522 103.109 120.492C103.37 120.462 103.635 120.484 103.887 120.557C104.14 120.629 104.376 120.751 104.581 120.914C104.787 121.078 104.958 121.28 105.086 121.51C105.626 122.51 106.196 123.46 106.786 124.39C107.786 125.91 108.786 127.39 109.886 128.88C110.109 129.177 110.244 129.53 110.278 129.9C110.311 130.27 110.241 130.642 110.075 130.974C109.908 131.307 109.653 131.586 109.337 131.781C109.021 131.977 108.657 132.08 108.286 132.08ZM99.5157 116.25C99.1163 116.251 98.7257 116.133 98.3942 115.91C98.0627 115.687 97.8055 115.37 97.6557 115C96.553 112.099 95.6149 109.137 94.8457 106.13C94.7131 105.615 94.7903 105.069 95.0604 104.612C95.3304 104.154 95.7712 103.823 96.2857 103.69C96.8002 103.557 97.3463 103.635 97.8039 103.905C98.2615 104.175 98.5931 104.615 98.7257 105.13C99.4496 107.992 100.338 110.81 101.386 113.57C101.575 114.065 101.56 114.614 101.344 115.098C101.128 115.581 100.73 115.96 100.236 116.15C100.004 116.227 99.7598 116.261 99.5157 116.25ZM94.8757 98.71C94.4007 98.7173 93.9386 98.5553 93.5721 98.253C93.2057 97.9507 92.9588 97.5277 92.8757 97.06C92.4157 94.47 91.9757 91.68 91.4657 88.06C91.4289 87.7974 91.4443 87.53 91.5108 87.2733C91.5773 87.0166 91.6938 86.7755 91.8535 86.5638C92.0132 86.3521 92.2131 86.1739 92.4417 86.0394C92.6702 85.9049 92.9231 85.8168 93.1857 85.78C93.4483 85.7432 93.7157 85.7586 93.9724 85.8251C94.2291 85.8916 94.4702 86.0081 94.6819 86.1678C94.8936 86.3275 95.0718 86.5274 95.2063 86.7559C95.3408 86.9845 95.4289 87.2374 95.4657 87.5C95.9757 91.11 96.4057 93.85 96.8557 96.4C96.9073 96.6904 96.8941 96.9885 96.817 97.2732C96.7399 97.5578 96.6008 97.8219 96.4097 98.0465C96.2186 98.2711 95.9801 98.4506 95.7115 98.5722C95.4428 98.6938 95.1506 98.7546 94.8557 98.75L94.8757 98.71ZM92.2357 80.71C91.7504 80.7148 91.2799 80.5429 90.9119 80.2265C90.544 79.91 90.3036 79.4706 90.2357 78.99C89.7257 75.39 89.2957 72.64 88.8357 70.09C88.7734 69.5829 88.9075 69.0712 89.2105 68.6599C89.5135 68.2486 89.9625 67.9688 90.4652 67.878C90.968 67.7871 91.4864 67.8922 91.9142 68.1715C92.342 68.4508 92.6466 68.8832 92.7657 69.38C93.2457 71.99 93.6857 74.78 94.1957 78.38C94.2699 78.9051 94.1325 79.4382 93.8137 79.862C93.4949 80.2858 93.0208 80.5657 92.4957 80.64L92.2357 80.71ZM88.8757 62.89C88.4374 62.8903 88.0111 62.7466 87.6624 62.4811C87.3137 62.2155 87.0619 61.8427 86.9457 61.42C86.1694 58.5763 85.2244 55.7813 84.1157 53.05C84.003 52.8047 83.9411 52.5392 83.9338 52.2694C83.9264 51.9995 83.9738 51.731 84.073 51.48C84.1722 51.229 84.3211 51.0006 84.5109 50.8087C84.7007 50.6167 84.9274 50.4652 85.1773 50.3632C85.4272 50.2612 85.6952 50.2109 85.9651 50.2152C86.235 50.2195 86.5012 50.2785 86.7477 50.3884C86.9942 50.4984 87.2159 50.6571 87.3995 50.855C87.583 51.0529 87.7246 51.2859 87.8157 51.54C88.9915 54.4206 89.9933 57.3693 90.8157 60.37C90.8955 60.6663 90.906 60.977 90.8465 61.2781C90.7869 61.5791 90.6589 61.8624 90.4723 62.1061C90.2857 62.3497 90.0456 62.5471 89.7704 62.6831C89.4953 62.819 89.1926 62.8898 88.8857 62.89H88.8757ZM82.0557 46.1C81.7016 46.1032 81.353 46.0123 81.0455 45.8366C80.7381 45.6609 80.4827 45.4067 80.3057 45.1C78.8794 42.5136 77.3034 40.0127 75.5857 37.61C75.4334 37.3959 75.3247 37.154 75.2659 36.8979C75.207 36.6419 75.1992 36.3767 75.2429 36.1177C75.2865 35.8586 75.3808 35.6106 75.5202 35.388C75.6597 35.1653 75.8416 34.9723 76.0557 34.82C76.2698 34.6677 76.5117 34.559 76.7678 34.5002C77.0238 34.4413 77.289 34.4335 77.548 34.4772C77.8071 34.5208 78.0551 34.6151 78.2777 34.7545C78.5004 34.894 78.6934 35.0759 78.8457 35.29C80.6629 37.8181 82.3324 40.4491 83.8457 43.17C84.022 43.4754 84.1145 43.8219 84.1137 44.1745C84.1129 44.5271 84.0189 44.8732 83.8413 45.1778C83.6636 45.4824 83.4086 45.7346 83.102 45.9088C82.7955 46.0831 82.4483 46.1732 82.0957 46.17L82.0557 46.1ZM71.5257 31.33C71.2483 31.328 70.9744 31.2682 70.7213 31.1546C70.4682 31.041 70.2416 30.8759 70.0557 30.67C68.0768 28.4744 65.9733 26.3943 63.7557 24.44C63.5587 24.266 63.3979 24.0549 63.2825 23.8188C63.1671 23.5826 63.0994 23.3261 63.0831 23.0637C63.0669 22.8014 63.1025 22.5385 63.1878 22.2899C63.2732 22.0413 63.4067 21.812 63.5807 21.615C63.7547 21.418 63.9658 21.2572 64.2019 21.1418C64.4381 21.0264 64.6946 20.9587 64.957 20.9424C65.2193 20.9262 65.4822 20.9618 65.7308 21.0471C65.9794 21.1325 66.2087 21.266 66.4057 21.44C68.7455 23.4983 70.9658 25.6885 73.0557 28C73.409 28.3942 73.5916 28.9124 73.5634 29.441C73.5353 29.9696 73.2988 30.4655 72.9057 30.82C72.5272 31.1592 72.0338 31.3415 71.5257 31.33ZM57.9357 19.33C57.5277 19.3399 57.1264 19.2248 56.7857 19C54.3703 17.301 51.8595 15.7418 49.2657 14.33C49.0352 14.2039 48.8318 14.0337 48.6672 13.829C48.5025 13.6244 48.3797 13.3893 48.3059 13.1371C48.2321 12.885 48.2086 12.6209 48.2369 12.3597C48.2652 12.0985 48.3446 11.8455 48.4707 11.615C48.5968 11.3845 48.767 11.1811 48.9717 11.0165C49.1763 10.8518 49.4114 10.729 49.6636 10.6552C49.9157 10.5814 50.1798 10.5579 50.441 10.5862C50.7022 10.6145 50.9552 10.6939 51.1857 10.82C53.9083 12.3048 56.5458 13.9407 59.0857 15.72C59.4351 15.9639 59.6974 16.3129 59.8346 16.7163C59.9717 17.1196 59.9764 17.5563 59.8481 17.9625C59.7197 18.3688 59.465 18.7234 59.121 18.9748C58.777 19.2262 58.3617 19.3611 57.9357 19.36V19.33ZM42.0557 10.62C41.7952 10.6185 41.5373 10.5676 41.2957 10.47C38.5634 9.34461 35.7727 8.36654 32.9357 7.54C32.6825 7.46653 32.4462 7.3437 32.2406 7.17858C32.0351 7.01347 31.8641 6.80932 31.7377 6.5779C31.6113 6.34648 31.532 6.09235 31.5041 5.83013C31.4763 5.56791 31.5007 5.30278 31.5757 5.05C31.7263 4.54263 32.0719 4.11565 32.5368 3.86261C33.0016 3.60956 33.5478 3.55109 34.0557 3.7C37.0314 4.56716 39.9589 5.59194 42.8257 6.77C43.255 6.94632 43.6096 7.26645 43.8288 7.67553C44.0479 8.08461 44.118 8.55718 44.027 9.01226C43.936 9.46734 43.6895 9.8766 43.3299 10.1699C42.9702 10.4632 42.5198 10.6223 42.0557 10.62ZM24.6357 5.52H24.2657C21.3857 4.99 18.4257 4.6 15.4657 4.35C14.9353 4.30624 14.4439 4.05356 14.0998 3.64754C13.7557 3.24153 13.5869 2.71543 13.6307 2.185C13.6745 1.65457 13.9271 1.16324 14.3332 0.819114C14.7392 0.474985 15.2653 0.30624 15.7957 0.35C18.8857 0.61 21.9857 1.02 24.9957 1.58C25.5261 1.62774 26.0159 1.88424 26.3572 2.29307C26.6985 2.7019 26.8634 3.22957 26.8157 3.76C26.768 4.29043 26.5115 4.78018 26.1026 5.12149C25.6938 5.46281 25.1661 5.62774 24.6357 5.58V5.52Z" fill="#38B7EE"/>
<path d="M180.316 166.24H179.566C179.035 166.24 178.527 166.029 178.152 165.654C177.777 165.279 177.566 164.77 177.566 164.24C177.566 163.71 177.777 163.201 178.152 162.826C178.527 162.451 179.035 162.24 179.566 162.24C181.026 162.24 182.506 162.24 183.976 162.17C184.506 162.15 185.023 162.342 185.412 162.703C185.801 163.064 186.031 163.565 186.051 164.095C186.071 164.625 185.879 165.142 185.518 165.531C185.157 165.92 184.656 166.15 184.126 166.17C182.876 166.22 181.586 166.24 180.316 166.24Z" fill="#38B7EE"/>
</svg>
