<svg width="198" height="93" viewBox="0 0 198 93" fill="none" xmlns="http://www.w3.org/2000/svg">
    <path d="M 13.8 1.2 C 9.8 1.2 5.7 1.5 1.7 2.1 C 1.2 2.2 0.7 2.5 0.4 2.9 C 0.1 3.3 -0.1 3.9 0 4.4 C 0.1 4.9 0.4 5.4 0.8 5.7 C 1.2 6 1.8 6.2 2.3 6.1 C 26 2.5 52.4 10.2 76.5 27.5 C 86 34.4 94.6 42.5 102.9 50.5 C 111.4 58.7 120.2 67.1 130 74.1 C 149 87.7 172.1 94.7 195.5 93.9 C 195.7 93.9 196 93.9 196.2 93.8 C 196.4 93.7 196.7 93.5 196.8 93.3 C 197 93.1 197.2 92.9 197.3 92.6 C 197.3 92.4 197.4 92.1 197.4 91.9 C 197.4 91.6 197.3 91.4 197.2 91.1 C 197.1 90.9 196.9 90.7 196.7 90.5 C 196.6 90.3 196.3 90.2 196.1 90.1 C 195.8 90 195.6 89.9 195.3 89.9 C 172.8 90.7 150.7 84 132.3 70.9 C 122.7 64 114 55.7 105.6 47.7 C 97.2 39.6 88.5 31.3 78.8 24.3 C 57.9 9.2 35.2 1.2 13.8 1.2 Z"
          fill="#38B7EE"/>
</svg>
