<svg width="128" height="155" viewBox="0 0 128 155" fill="none" xmlns="http://www.w3.org/2000/svg">
    <path d="M111.319 152.439H15.7023C12.0682 152.439 8.58298 150.995 6.0133 148.426C3.44363 145.856 2 142.371 2 138.737V15.7023C2.00361 12.0693 3.44839 8.58618 6.01729 6.01729C8.58618 3.44839 12.0693 2.00361 15.7023 2H111.319C114.953 2 118.438 3.44363 121.008 6.0133C123.577 8.58298 125.021 12.0682 125.021 15.7023V138.737C125.023 140.537 124.669 142.319 123.981 143.983C123.294 145.646 122.284 147.157 121.012 148.43C119.739 149.702 118.228 150.712 116.564 151.4C114.901 152.088 113.118 152.441 111.319 152.439V152.439Z"
          stroke="#1D1D1F" stroke-width="4" stroke-miterlimit="10"/>
    <path d="M98.2707 84.0365C104.898 84.0365 110.27 78.6641 110.27 72.0368C110.27 65.4096 104.898 60.0371 98.2707 60.0371C91.6435 60.0371 86.271 65.4096 86.271 72.0368C86.271 78.6641 91.6435 84.0365 98.2707 84.0365Z"
          stroke="#1D1D1F" stroke-width="4" stroke-miterlimit="10"/>
    <path d="M99.2232 152.48L38.1758 97.8752L2.16309 127.214" stroke="#1D1D1F" stroke-width="4" stroke-linecap="round"
          stroke-linejoin="round"/>
    <path d="M124.939 135.4L98.1748 109.643L75.2378 130.973" stroke="#1D1D1F" stroke-width="4" stroke-linecap="round"
          stroke-linejoin="round"/>
    <path d="M16.397 29.6768H110.624" stroke="#1D1D1F" stroke-width="4" stroke-linecap="round" stroke-linejoin="round"/>
</svg>
