<svg width="128" height="155" viewBox="0 0 128 155" fill="none" xmlns="http://www.w3.org/2000/svg">
    <path d="M111.327 152.45H15.7033C12.0689 152.45 8.58346 151.006 6.0136 148.436C3.44373 145.867 2 142.381 2 138.747V15.7033C2.00361 12.07 3.4485 8.58666 6.01758 6.01758C8.58666 3.4485 12.0701 2.00361 15.7033 2H111.327C114.961 2 118.446 3.44373 121.016 6.0136C123.586 8.58346 125.03 12.0689 125.03 15.7033V138.747C125.032 140.547 124.678 142.329 123.99 143.993C123.302 145.656 122.293 147.168 121.02 148.44C119.747 149.713 118.236 150.723 116.573 151.411C114.909 152.099 113.127 152.452 111.327 152.45V152.45Z"
          stroke="#1D1D1F" stroke-width="4" stroke-miterlimit="10"/>
    <path d="M98.2774 39.0913C104.905 39.0913 110.278 33.7184 110.278 27.0907C110.278 20.4629 104.905 15.0901 98.2774 15.0901C91.6497 15.0901 86.2769 20.4629 86.2769 27.0907C86.2769 33.7184 91.6497 39.0913 98.2774 39.0913Z"
          stroke="#1D1D1F" stroke-width="4" stroke-miterlimit="10"/>
    <path d="M99.2303 107.54L38.1785 52.9309L2.16309 82.2717" stroke="#1D1D1F" stroke-width="4" stroke-linecap="round"
          stroke-linejoin="round"/>
    <path d="M124.949 90.4446L98.1828 64.6863L75.2441 86.0313" stroke="#1D1D1F" stroke-width="4" stroke-linecap="round"
          stroke-linejoin="round"/>
    <path d="M16.3979 130.478H110.632" stroke="#1D1D1F" stroke-width="4" stroke-linecap="round"
          stroke-linejoin="round"/>
</svg>
