<svg width="255"
     height="267"
     viewBox="0 0 500 467"
     fill="none"
     xmlns="http://www.w3.org/2000/svg">
    <path fill-rule="evenodd" clip-rule="evenodd"
          d="M71.064 65.6331L103.868 77.2519C107.619 78.5788 111.651 78.9015 115.565 78.1881C119.479 77.4747 123.138 75.7499 126.179 73.185L153.148 50.4292C163.542 41.6687 179.418 49.2272 179.163 62.8187L178.503 98.0617C178.427 102.01 179.379 105.911 181.264 109.381C183.149 112.851 185.904 115.773 189.257 117.858L218.997 136.388C230.548 143.587 228.216 161.052 215.175 164.964L181.554 175.045C177.773 176.189 174.353 178.294 171.629 181.156C168.906 184.018 166.972 187.538 166.017 191.371L157.44 225.644C154.147 238.871 136.783 242.015 129.039 230.767L109.268 202.01C107.016 198.735 103.947 196.105 100.365 194.382C96.7838 192.658 92.814 191.901 88.8495 192.184L53.6971 194.714C40.1084 195.676 31.7157 180.191 39.9779 169.341L61.323 141.331C63.7244 138.179 65.2626 134.455 65.7858 130.527C66.3091 126.599 65.7994 122.603 64.307 118.932L51.1483 86.5114C45.9951 73.8819 58.2141 61.0908 71.064 65.6331Z"
          fill="#3A2984"/>
</svg>
