<svg width="182"
     height="185"
     viewBox="0 0 382 385"
     fill="none"
     xmlns="http://www.w3.org/2000/svg">
    <path fill-rule="evenodd" clip-rule="evenodd"
          d="M38.7368 58.3191L64.5046 57.9564C67.4503 57.9139 70.3336 57.1016 72.8682 55.6001C75.4028 54.0987 77.5007 51.9604 78.9534 49.3976L91.8336 26.6625C96.8002 17.907 109.768 19.0756 113.085 28.58L121.685 53.2248C122.647 55.9863 124.311 58.4505 126.512 60.376C128.713 62.3015 131.377 63.6222 134.242 64.2088L159.658 69.4332C169.53 71.4637 172.4 84.1921 164.348 90.2604L143.591 105.903C141.259 107.669 139.425 110.011 138.269 112.698C137.113 115.385 136.675 118.327 136.997 121.235L139.85 147.24C140.963 157.273 129.712 163.919 121.443 158.098L100.321 143.209C97.9154 141.513 95.1082 140.476 92.1779 140.2C89.2476 139.923 86.296 140.418 83.6156 141.633L59.8536 152.426C50.664 156.586 40.8555 147.99 43.8045 138.331L51.4287 113.393C52.2861 110.587 52.3973 107.605 51.751 104.743C51.1048 101.88 49.7236 99.236 47.7436 97.0702L30.2723 77.9374C23.4474 70.4911 28.6454 58.4675 38.7368 58.3191Z"
          fill="#3A2984"/>
</svg>
