<svg width="145" height="151" viewBox="0 0 145 151" fill="none" xmlns="http://www.w3.org/2000/svg">
<path fill-rule="evenodd" clip-rule="evenodd" d="M8.86602 65.9816L32.764 54.487C35.4955 53.172 37.8355 51.1654 39.5516 48.6664C41.2677 46.1675 42.3004 43.263 42.5469 40.2416L44.728 13.4413C45.5739 3.11748 58.1858 -1.40597 65.3967 6.03078L84.0951 25.3141C86.1893 27.4754 88.8089 29.0556 91.6974 29.9001C94.586 30.7446 97.6443 30.8243 100.573 30.1316L126.562 24.0049C136.657 21.6263 144.846 32.2664 139.957 41.4172L127.352 65.0069C125.94 67.6653 125.241 70.6449 125.326 73.6542C125.41 76.6634 126.274 79.5992 127.834 82.1741L141.756 105.216C147.139 114.1 139.513 125.175 129.274 123.321L103.109 118.566C100.129 118.025 97.0598 118.272 94.2046 119.283C91.3495 120.293 88.808 122.033 86.8322 124.328L69.322 144.691C62.5447 152.554 49.6662 148.775 48.2375 138.481L44.5582 111.9C44.1437 108.909 42.9566 106.078 41.1141 103.685C39.2716 101.293 36.8373 99.4222 34.0512 98.2576L9.45776 87.9605C-0.137333 83.964 -0.49039 70.4891 8.86602 65.9816Z" fill="#332377"/>
</svg>
