<svg width="519"
     height="353"
     viewBox="0 0 819 1053"
     fill="none"
     xmlns="http://www.w3.org/2000/svg">
    <path fill-rule="evenodd" clip-rule="evenodd"
          d="M166.772 15.7605L211.472 50.7741C216.583 54.7749 222.652 57.3691 229.076 58.2992C235.5 59.2292 242.055 58.4627 248.091 56.0758L301.625 34.8928C322.253 26.7437 342.879 46.6823 335.424 67.5711L316.092 121.736C313.924 127.804 313.37 134.331 314.482 140.678C315.595 147.025 318.337 152.974 322.44 157.942L358.81 202.053C372.935 219.189 360.253 244.989 338.051 244.263L280.815 242.388C274.372 242.191 267.989 243.671 262.289 246.682C256.59 249.693 251.77 254.132 248.302 259.565L217.23 308.116C205.265 326.863 176.775 322.703 170.642 301.284L155.005 246.535C153.223 240.299 149.843 234.638 145.199 230.111C140.555 225.585 134.808 222.351 128.529 220.729L72.847 206.378C51.3304 200.806 46.3953 172.496 64.8111 160.008L112.377 127.777C117.729 124.15 122.042 119.189 124.892 113.386C127.743 107.583 129.031 101.137 128.63 94.6836L125.122 37.7043C123.714 15.4936 149.258 2.05894 166.772 15.7605Z"
          fill="#372583"/>
</svg>
