<svg width="237" height="256" viewBox="0 0 237 256" fill="none" xmlns="http://www.w3.org/2000/svg">
<g clip-path="url(#clip0_459_73)">
<path d="M125.722 132.741C124.945 132.848 124.154 132.798 123.397 132.592C122.64 132.387 121.932 132.031 121.316 131.546C120.7 131.061 120.188 130.456 119.81 129.768C119.433 129.08 119.198 128.324 119.12 127.543C119.042 126.762 119.122 125.974 119.356 125.225C119.589 124.476 119.972 123.782 120.48 123.184C120.987 122.587 121.611 122.097 122.312 121.746C123.013 121.395 123.778 121.189 124.561 121.14C125.562 121.037 126.532 120.732 127.412 120.245C128.293 119.758 129.065 119.097 129.684 118.304C131.005 116.591 131.62 114.438 131.405 112.286C131.19 110.133 130.16 108.145 128.526 106.728C127.762 106.073 126.874 105.578 125.915 105.275C124.955 104.972 123.944 104.866 122.943 104.963C120.16 105.247 117.464 106.088 115.013 107.437C112.563 108.786 110.41 110.615 108.682 112.814C105.109 117.432 103.443 123.244 104.024 129.053C104.605 134.863 107.39 140.229 111.806 144.048C113.935 145.863 116.408 147.229 119.077 148.066C121.746 148.903 124.557 149.193 127.34 148.918C131.897 148.454 136.314 147.074 140.324 144.861C144.335 142.648 147.858 139.648 150.681 136.04C156.515 128.525 159.241 119.055 158.293 109.587C157.346 100.119 152.799 91.3771 145.591 85.1668C142.108 82.1926 138.061 79.9524 133.691 78.5808C129.322 77.2091 124.721 76.7342 120.164 77.1845C113.823 77.8232 107.677 79.7385 102.095 82.815C96.5139 85.8915 91.6126 90.0656 87.6863 95.0862C79.5835 105.495 75.7961 118.624 77.1094 131.75C78.4227 144.877 84.7359 156.995 94.7403 165.592C99.5828 169.738 105.214 172.861 111.294 174.773C117.375 176.686 123.779 177.348 130.122 176.721C138.23 175.892 146.087 173.434 153.222 169.495C160.357 165.556 166.623 160.216 171.646 153.796C182.016 140.489 186.864 123.698 185.185 106.909C183.505 90.1206 175.426 74.6232 162.625 63.6338C156.431 58.3351 149.231 54.3416 141.457 51.8927C133.682 49.4437 125.494 48.5896 117.382 49.3817C107.487 50.3881 97.8977 53.3825 89.1882 58.1854C80.4787 62.9884 72.8287 69.5009 66.6967 77.3326C54.0591 93.5389 48.1495 113.992 50.1956 134.443C52.2417 154.894 62.0861 173.771 77.6839 187.152C85.2462 193.613 94.035 198.479 103.523 201.46C113.012 204.441 123.004 205.475 132.901 204.499C144.569 203.312 155.876 199.781 166.146 194.117C176.416 188.453 185.437 180.774 192.667 171.539C207.572 152.435 214.542 128.321 212.13 104.209C209.718 80.0976 198.108 57.8427 179.714 42.0705C170.796 34.4525 160.433 28.7131 149.245 25.1962C138.057 21.6794 126.274 20.4574 114.603 21.6035C101.151 22.9687 88.1133 27.0385 76.2732 33.5687C64.433 40.0988 54.0343 48.9546 45.7014 59.6044C28.4349 81.5487 20.3987 109.36 23.2987 137.134C29.1191 195.31 79.43 237.905 135.68 232.278C137.22 232.124 138.757 232.587 139.954 233.567C141.151 234.547 141.911 235.962 142.065 237.501C142.219 239.041 141.755 240.579 140.775 241.776C139.796 242.973 138.381 243.733 136.842 243.887C74.1904 250.155 18.1575 202.84 11.6999 138.294C8.50787 107.496 17.4434 76.6673 36.6093 52.3527C55.0235 29.0775 82.0919 13.1391 113.442 10.0026C126.668 8.7016 140.02 10.0873 152.696 14.0766C165.373 18.0658 177.113 24.5762 187.211 33.2169C207.935 50.9257 221.019 75.9555 223.733 103.082C226.447 130.208 218.581 157.333 201.776 178.797C193.591 189.268 183.374 197.977 171.739 204.398C160.103 210.82 147.29 214.823 134.068 216.166C122.622 217.295 111.065 216.099 100.092 212.65C89.1185 209.201 78.9552 203.57 70.212 196.094C52.2713 180.778 40.9429 159.119 38.5943 135.645C36.2458 112.171 43.0588 88.6971 57.6095 70.13C64.6988 61.0709 73.545 53.538 83.6174 47.9833C93.6897 42.4286 104.78 38.9667 116.224 37.8054C125.882 36.857 135.633 37.8664 144.893 40.7732C154.153 43.6799 162.732 48.4244 170.117 54.7229C185.247 67.6578 194.8 85.9363 196.781 105.745C198.763 125.554 193.021 145.362 180.753 161.038C174.758 168.679 167.285 175.033 158.779 179.72C150.273 184.407 140.91 187.331 131.249 188.317C123.359 189.095 115.393 188.271 107.829 185.895C100.265 183.519 93.259 179.639 87.2307 174.488C74.8827 163.955 67.0853 149.054 65.4694 132.902C63.8535 116.751 68.5443 100.601 78.5607 87.8296C83.4537 81.5942 89.5548 76.411 96.4986 72.5904C103.442 68.7698 111.086 66.3905 118.971 65.5951C125.088 64.9937 131.264 65.6337 137.128 67.4767C142.992 69.3197 148.423 72.3277 153.097 76.3206C162.634 84.4714 168.655 95.991 169.904 108.475C171.153 120.96 167.534 133.444 159.801 143.322C156.012 148.155 151.288 152.172 145.911 155.136C140.534 158.099 134.614 159.947 128.506 160.568C124.173 160.996 119.798 160.544 115.644 159.239C111.49 157.933 107.643 155.802 104.333 152.973C97.5784 147.224 93.3122 139.082 92.429 130.255C91.5459 121.428 94.1145 112.602 99.5961 105.628C102.281 102.2 105.63 99.3505 109.443 97.2497C113.256 95.1488 117.455 93.8404 121.786 93.4028C124.335 93.1501 126.908 93.4154 129.352 94.1826C131.796 94.9499 134.059 96.2033 136.006 97.8675C139.98 101.223 142.492 105.994 143.01 111.17C143.528 116.346 142.011 121.52 138.781 125.597C137.2 127.611 135.229 129.286 132.986 130.521C130.743 131.755 128.273 132.524 125.726 132.782L125.722 132.741Z" fill="#372583"/>
</g>
<defs>
<clipPath id="clip0_459_73">
<rect width="235.052" height="214.485" fill="white" transform="translate(213.419) rotate(84.2867)"/>
</clipPath>
</defs>
</svg>
