<svg width="451" height="426" viewBox="0 0 451 426" fill="none" xmlns="http://www.w3.org/2000/svg">
<g clip-path="url(#clip0_459_49)">
<path d="M218.949 225.771C218.629 224.529 218.563 223.235 218.755 221.967C218.947 220.699 219.393 219.482 220.066 218.39C220.739 217.298 221.626 216.353 222.673 215.611C223.719 214.87 224.905 214.347 226.159 214.074C227.412 213.801 228.708 213.784 229.968 214.023C231.229 214.263 232.428 214.754 233.494 215.467C234.56 216.181 235.471 217.102 236.173 218.175C236.875 219.249 237.353 220.453 237.578 221.716C237.933 223.323 238.609 224.841 239.565 226.18C240.522 227.519 241.739 228.651 243.144 229.508C246.173 231.333 249.786 231.93 253.243 231.178C256.699 230.426 259.736 228.381 261.733 225.462C262.655 224.098 263.291 222.563 263.605 220.947C263.918 219.332 263.902 217.67 263.556 216.061C262.575 211.594 260.703 207.37 258.053 203.642C255.403 199.914 252.03 196.758 248.134 194.361C239.964 189.422 230.211 187.801 220.881 189.832C211.552 191.863 203.356 197.391 197.978 205.279C195.428 209.077 193.67 213.35 192.809 217.843C191.949 222.335 192.004 226.955 192.971 231.426C194.577 238.742 197.645 245.659 201.99 251.761C206.335 257.862 211.868 263.024 218.257 266.935C231.557 275.008 247.451 277.665 262.655 274.355C277.859 271.045 291.211 262.023 299.952 249.151C304.132 242.937 307.015 235.943 308.426 228.588C309.837 221.234 309.748 213.67 308.164 206.35C305.94 196.169 301.679 186.542 295.638 178.051C289.596 169.559 281.898 162.377 273.007 156.938C254.582 145.721 232.546 142.023 211.466 146.612C190.387 151.201 171.882 163.723 159.786 181.584C153.957 190.226 149.937 199.958 147.967 210.194C145.997 220.43 146.118 230.958 148.324 241.145C151.187 254.162 156.649 266.466 164.383 277.321C172.117 288.175 181.964 297.357 193.332 304.315C216.891 318.673 245.075 323.409 272.035 317.54C298.996 311.672 322.661 295.649 338.119 272.797C345.569 261.743 350.71 249.299 353.234 236.212C355.759 223.124 355.615 209.662 352.811 196.632C349.325 180.745 342.667 165.727 333.236 152.476C323.804 139.225 311.793 128.015 297.923 119.518C269.231 102.019 234.899 96.2437 202.058 103.393C169.217 110.542 140.392 130.065 121.57 157.907C112.489 171.401 106.227 186.589 103.159 202.561C100.091 218.533 100.281 234.959 103.716 250.856C107.827 269.588 115.678 287.298 126.8 302.922C137.922 318.547 152.086 331.765 168.441 341.784C202.264 362.424 242.742 369.238 281.461 360.81C320.181 352.381 354.164 329.358 376.347 296.526C387.055 280.614 394.44 262.705 398.061 243.871C401.682 225.038 401.463 205.668 397.418 186.921C392.685 165.323 383.634 144.904 370.811 126.89C357.988 108.877 341.657 93.6398 322.797 82.0943C283.918 58.1482 237.234 50.2945 192.656 60.2004C99.2338 80.5369 39.4453 170.237 59.1086 260.566C59.6466 263.038 59.1806 265.622 57.813 267.75C56.4454 269.878 54.2882 271.376 51.8161 271.914C49.344 272.453 46.7593 271.987 44.6308 270.62C42.5023 269.252 41.0043 267.096 40.4662 264.624C18.5654 164.016 84.9509 64.1376 188.601 41.5746C238.037 30.6288 289.792 39.379 332.877 65.9674C374.133 91.5291 405.089 132.522 416.048 182.866C420.635 204.108 420.881 226.058 416.771 247.398C412.661 268.739 404.281 289.029 392.132 307.05C367.239 344.029 329.024 369.966 285.464 379.448C241.903 388.931 196.365 381.225 158.353 357.94C139.811 346.602 123.753 331.632 111.144 313.93C98.5356 296.229 89.6365 276.162 84.9817 254.934C81.0062 236.549 80.7874 217.551 84.3384 199.079C87.8894 180.607 95.137 163.043 105.646 147.441C127.173 115.431 160.24 92.9765 197.936 84.7707C235.632 76.5648 275.04 83.2426 307.925 103.408C323.968 113.231 337.86 126.193 348.768 141.517C359.675 156.842 367.374 174.212 371.401 192.585C374.748 208.099 374.932 224.128 371.941 239.715C368.951 255.302 362.848 270.126 353.997 283.301C335.813 310.3 307.906 329.238 276.096 336.162C244.286 343.087 211.032 337.463 183.271 320.465C169.736 312.155 158.016 301.202 148.811 288.261C139.606 275.32 133.105 260.656 129.696 245.145C126.957 232.473 126.805 219.378 129.251 206.645C131.697 193.913 136.689 181.805 143.929 171.048C158.732 149.018 181.481 133.564 207.418 127.918C233.354 122.272 260.468 126.872 283.089 140.755C294.134 147.538 303.696 156.48 311.201 167.046C318.707 177.612 324.002 189.584 326.769 202.245C328.89 212.071 329.005 222.223 327.108 232.094C325.21 241.965 321.34 251.352 315.727 259.691C304.269 276.709 286.681 288.646 266.633 293.01C246.586 297.374 225.627 293.828 208.133 283.113C199.574 277.862 192.163 270.939 186.343 262.758C180.523 254.577 176.415 245.305 174.263 235.499C172.757 228.54 172.674 221.348 174.017 214.356C175.36 207.363 178.103 200.714 182.08 194.808C190.157 182.759 202.587 174.306 216.761 171.22C230.936 168.134 245.754 170.657 258.109 178.257C264.18 181.977 269.436 186.886 273.562 192.687C277.688 198.489 280.599 205.065 282.12 212.02C283.007 216.113 283.058 220.344 282.268 224.457C281.479 228.57 279.866 232.482 277.526 235.956C272.818 243.04 265.537 248.013 257.225 249.822C248.914 251.631 240.224 250.135 232.998 245.65C229.429 243.458 226.34 240.57 223.915 237.157C221.489 233.743 219.778 229.876 218.883 225.785L218.949 225.771Z" fill="#372583"/>
</g>
<defs>
<clipPath id="clip0_459_49">
<rect width="384.377" height="350.744" fill="white" transform="translate(450.997 343.414) rotate(167.719)"/>
</clipPath>
</defs>
</svg>
