<svg width="395" height="392" viewBox="0 0 395 392" fill="none" xmlns="http://www.w3.org/2000/svg">
<g clip-path="url(#clip0_459_53)">
<path d="M186.509 197.631C187.104 196.859 187.848 196.215 188.698 195.737C189.547 195.259 190.484 194.958 191.452 194.851C192.421 194.743 193.401 194.833 194.335 195.113C195.268 195.393 196.135 195.859 196.885 196.483C197.634 197.106 198.25 197.874 198.695 198.741C199.141 199.607 199.407 200.555 199.478 201.527C199.549 202.499 199.423 203.475 199.108 204.397C198.793 205.319 198.295 206.168 197.644 206.894C196.848 207.857 196.254 208.971 195.899 210.17C195.544 211.369 195.435 212.627 195.578 213.869C195.901 216.536 197.232 218.979 199.298 220.698C201.363 222.416 204.008 223.28 206.69 223.112C207.937 223.027 209.154 222.69 210.268 222.123C211.382 221.556 212.37 220.769 213.172 219.81C215.389 217.135 217.044 214.04 218.038 210.71C219.033 207.381 219.347 203.885 218.961 200.432C218.102 193.23 214.515 186.631 208.938 181.992C203.362 177.354 196.22 175.028 188.982 175.494C185.516 175.741 182.135 176.685 179.042 178.269C175.949 179.853 173.208 182.045 170.982 184.714C167.35 189.095 164.641 194.165 163.017 199.619C161.393 205.073 160.888 210.799 161.531 216.454C162.911 228.193 168.748 238.954 177.836 246.514C186.923 254.073 198.567 257.854 210.361 257.074C216.037 256.674 221.573 255.131 226.638 252.539C231.702 249.947 236.191 246.359 239.835 241.99C244.894 235.9 248.668 228.849 250.931 221.262C253.193 213.674 253.897 205.708 253.001 197.84C251.108 181.563 243.024 166.636 230.425 156.155C217.825 145.674 201.677 140.443 185.326 141.545C177.426 142.093 169.718 144.233 162.667 147.836C155.616 151.44 149.366 156.433 144.295 162.515C137.837 170.313 133.021 179.335 130.134 189.04C127.247 198.745 126.349 208.933 127.494 218.994C129.904 239.814 140.239 258.909 156.354 272.314C172.468 285.719 193.125 292.405 214.036 290.985C224.138 290.281 233.994 287.544 243.012 282.94C252.031 278.336 260.027 271.958 266.521 264.189C274.407 254.677 280.291 243.671 283.82 231.829C287.349 219.987 288.45 207.555 287.057 195.276C284.129 169.914 271.544 146.651 251.914 130.322C232.284 113.993 207.12 105.852 181.648 107.591C169.322 108.458 157.298 111.805 146.298 117.432C135.298 123.058 125.548 130.848 117.633 140.335C108.334 151.552 101.396 164.531 97.2355 178.494C93.0749 192.457 91.7769 207.118 93.4196 221.596C96.8635 251.5 111.699 278.929 134.843 298.181C157.986 317.433 187.657 327.027 217.688 324.97C232.223 323.947 246.401 320.001 259.374 313.368C272.346 306.736 283.846 297.552 293.184 286.369C303.908 273.44 311.908 258.477 316.705 242.378C321.501 226.279 322.995 209.377 321.096 192.685C317.269 158.208 300.156 126.576 273.39 104.505C217.55 58.0545 135.883 64.1641 90.97 118.155C89.7411 119.633 87.9754 120.561 86.0616 120.737C84.1477 120.912 82.2424 120.32 80.7648 119.091C79.2872 117.862 78.3582 116.096 78.1824 114.183C78.0066 112.269 78.5982 110.364 79.8272 108.886C129.851 48.7508 220.697 41.8358 282.651 93.3725C312.31 117.867 331.256 152.954 335.466 191.186C339.437 227.842 329.35 265.54 304.319 295.632C293.739 308.306 280.707 318.712 266.005 326.223C251.303 333.735 235.233 338.197 218.762 339.343C184.981 341.715 151.586 330.947 125.549 309.288C99.5126 287.63 82.846 256.753 79.0285 223.104C77.1542 206.7 78.6159 190.086 83.3255 174.261C88.0352 158.437 95.8958 143.729 106.435 131.02C115.588 120.047 126.865 111.037 139.588 104.532C152.311 98.0262 166.218 94.1588 180.474 93.1618C209.707 91.0957 238.61 100.407 261.141 119.15C283.673 137.893 298.09 164.618 301.38 193.738C302.994 207.937 301.723 222.316 297.642 236.011C293.561 249.705 286.755 262.434 277.632 273.432C269.905 282.687 260.39 290.288 249.657 295.782C238.924 301.275 227.192 304.547 215.165 305.403C190.496 307.13 166.111 299.265 147.098 283.449C128.085 267.632 115.912 245.087 113.119 220.515C111.771 208.525 112.854 196.387 116.303 184.826C119.753 173.264 125.497 162.517 133.194 153.227C139.504 145.664 147.277 139.453 156.046 134.968C164.815 130.482 174.4 127.814 184.226 127.124C204.339 125.694 224.227 132.098 239.729 144.994C255.232 157.89 265.149 176.28 267.405 196.316C268.504 206.102 267.616 216.008 264.795 225.441C261.975 234.874 257.278 243.64 250.988 251.215C246.095 257.077 240.068 261.89 233.269 265.367C226.47 268.844 219.039 270.912 211.421 271.448C195.873 272.538 180.505 267.582 168.522 257.614C156.539 247.646 148.868 233.436 147.11 217.95C146.255 210.37 146.938 202.696 149.118 195.387C151.299 188.078 154.932 181.284 159.8 175.412C163.264 171.258 167.533 167.847 172.348 165.384C177.164 162.921 182.428 161.456 187.825 161.078C198.816 160.285 209.688 163.779 218.16 170.827C226.633 177.875 232.047 187.929 233.268 198.881C233.877 204.255 233.394 209.697 231.847 214.88C230.301 220.063 227.723 224.879 224.268 229.04C222.231 231.485 219.72 233.492 216.888 234.942C214.055 236.391 210.959 237.253 207.784 237.475C201.341 237.966 194.96 235.929 189.992 231.796C185.024 227.663 181.86 221.76 181.169 215.335C180.813 212.174 181.1 208.973 182.011 205.926C182.922 202.878 184.438 200.046 186.47 197.598L186.509 197.631Z" fill="#372583"/>
</g>
<defs>
<clipPath id="clip0_459_53">
<rect width="292.011" height="266.46" fill="white" transform="translate(224.492 391.594) rotate(-140.244)"/>
</clipPath>
</defs>
</svg>
