<svg width="329"
     height="311"
     viewBox="0 0 829 811"
     fill="none" xmlns="http://www.w3.org/2000/svg">
    <g clip-path="url(#clip0_459_61)">
        <path d="M163.942 136.813C164.523 137.379 164.983 138.056 165.296 138.804C165.609 139.552 165.767 140.355 165.762 141.166C165.757 141.977 165.589 142.778 165.267 143.522C164.945 144.267 164.477 144.938 163.889 145.497C163.302 146.056 162.608 146.491 161.849 146.776C161.09 147.06 160.281 147.189 159.471 147.153C158.661 147.118 157.866 146.92 157.135 146.57C156.403 146.221 155.75 145.728 155.213 145.12C154.494 144.369 153.63 143.771 152.674 143.361C151.718 142.952 150.689 142.741 149.649 142.739C147.414 142.748 145.266 143.612 143.647 145.153C142.028 146.694 141.059 148.796 140.939 151.028C140.889 152.067 141.049 153.105 141.41 154.081C141.772 155.056 142.326 155.948 143.041 156.704C145.038 158.794 147.435 160.46 150.09 161.603C152.745 162.747 155.604 163.344 158.495 163.358C164.529 163.343 170.328 161.016 174.699 156.856C179.071 152.696 181.682 147.02 181.996 140.994C182.126 138.105 181.673 135.221 180.662 132.512C179.652 129.803 178.105 127.326 176.115 125.229C172.845 121.806 168.918 119.078 164.568 117.209C160.218 115.341 155.535 114.37 150.8 114.356C140.967 114.363 131.511 118.147 124.387 124.927C117.263 131.706 113.015 140.963 112.521 150.784C112.303 155.512 113.043 160.236 114.696 164.671C116.349 169.106 118.881 173.162 122.139 176.594C126.683 181.363 132.145 185.162 138.196 187.764C144.247 190.367 150.762 191.717 157.35 191.736C170.983 191.743 184.098 186.505 193.975 177.105C203.852 167.706 209.734 154.867 210.401 141.25C210.712 134.669 209.687 128.093 207.39 121.919C205.093 115.744 201.571 110.099 197.035 105.321C191.215 99.2319 184.225 94.3806 176.484 91.0581C168.743 87.7355 160.411 86.0101 151.987 85.9852C134.55 85.9665 117.774 92.6629 105.142 104.685C92.509 116.706 84.9898 133.13 84.1447 150.546C83.7511 158.962 85.0605 167.37 87.9945 175.267C90.9284 183.163 95.4265 190.386 101.219 196.502C108.318 203.937 116.845 209.862 126.289 213.921C135.733 217.98 145.9 220.09 156.18 220.125C177.421 220.154 197.858 212 213.246 197.357C228.634 182.713 237.791 162.705 238.813 141.489C239.287 131.22 237.682 120.961 234.095 111.329C230.507 101.696 225.011 92.8871 217.937 85.4305C209.566 76.6638 199.511 69.678 188.374 64.8919C177.238 60.1057 165.249 57.6179 153.127 57.5774C128.084 57.5362 103.987 67.147 85.844 84.4122C67.7012 101.677 56.9085 125.269 55.7092 150.283C55.151 162.392 57.0429 174.489 61.2713 185.849C65.4998 197.208 71.9779 207.597 80.3176 216.393C89.9657 226.503 101.558 234.558 114.397 240.076C127.237 245.594 141.06 248.46 155.036 248.502C183.894 248.669 211.684 237.582 232.506 217.595C276.28 175.938 279.116 107.865 238.838 65.5399C237.736 64.3818 237.139 62.8332 237.179 61.2348C237.219 59.6364 237.892 58.1191 239.05 57.0168C240.208 55.9145 241.757 55.3173 243.356 55.3568C244.954 55.3963 246.471 56.0691 247.573 57.2272C292.435 104.369 289.378 180.105 240.811 226.322C217.708 248.466 186.885 260.734 154.887 260.521C124.214 260.263 94.0369 248.289 71.5885 224.7C62.1366 214.734 54.7965 202.961 50.009 190.087C45.2215 177.213 43.0854 163.504 43.7289 149.783C45.0305 121.639 57.1518 95.0842 77.5627 75.6606C97.9735 56.237 125.096 45.446 153.27 45.5402C167.006 45.5752 180.593 48.387 193.215 53.8064C205.836 59.2259 217.231 67.1412 226.715 77.0768C234.898 85.6999 241.254 95.888 245.402 107.029C249.549 118.171 251.402 130.036 250.85 141.912C249.735 166.267 239.25 189.251 221.587 206.06C203.924 222.868 180.449 232.202 156.069 232.109C144.18 232.072 132.421 229.633 121.499 224.939C110.577 220.245 100.716 213.392 92.5086 204.792C85.6072 197.513 80.2447 188.916 76.7417 179.517C73.2388 170.118 71.6673 160.108 72.1213 150.087C73.0761 129.536 81.9295 110.145 96.8343 95.9612C111.739 81.7772 131.544 73.8953 152.118 73.9597C162.156 74.0034 172.081 76.0703 181.302 80.0367C190.522 84.0031 198.848 89.7877 205.781 97.0448C211.422 102.989 215.803 110.011 218.663 117.69C221.523 125.369 222.802 133.547 222.424 141.734C221.663 158.491 214.452 174.307 202.299 185.872C190.146 197.437 173.993 203.856 157.218 203.785C149.027 203.749 140.927 202.059 133.404 198.818C125.882 195.576 119.091 190.849 113.44 184.92C109.068 180.31 105.673 174.866 103.456 168.912C101.24 162.958 100.248 156.618 100.541 150.271C101.141 137.319 106.72 125.098 116.113 116.158C125.507 107.219 137.99 102.252 150.956 102.295C157.302 102.32 163.577 103.625 169.406 106.133C175.236 108.64 180.499 112.298 184.881 116.887C187.979 120.151 190.385 124.008 191.956 128.225C193.526 132.442 194.228 136.933 194.02 141.429C193.614 150.588 189.677 159.234 183.035 165.555C176.394 171.875 167.563 175.379 158.395 175.33C153.895 175.315 149.445 174.39 145.312 172.611C141.179 170.833 137.448 168.238 134.343 164.981C132.519 163.062 131.103 160.794 130.179 158.313C129.255 155.833 128.841 153.191 128.964 150.546C129.181 145.175 131.48 140.099 135.375 136.393C139.269 132.686 144.453 130.641 149.829 130.691C152.475 130.702 155.092 131.248 157.522 132.295C159.953 133.342 162.147 134.869 163.973 136.784L163.942 136.813Z"
              fill="#372583"/>
    </g>
    <defs>
        <clipPath id="clip0_459_61">
            <rect width="242.936" height="221.679" fill="white" transform="translate(0 149.473) rotate(-43.5803)"/>
        </clipPath>
    </defs>
</svg>
