<svg width="1260" height="633" viewBox="0 0 1260 633" fill="none" xmlns="http://www.w3.org/2000/svg">
<g opacity="0.5">
<path d="M1187.23 114.526C1183.54 122.199 1176.21 126.506 1166.6 126.686H1038.71C1025.69 126.686 1015.09 116.088 1015.09 103.068C1015.09 90.0869 1025.65 79.5105 1038.61 79.4505C1039.15 79.4505 1039.67 79.2297 1040.05 78.83C1040.43 78.4499 1040.63 77.9287 1040.61 77.367C1040.05 61.8019 1050.79 51.9256 1061.01 47.8787C1065.25 46.1963 1069.58 45.3747 1073.77 45.3747C1082.42 45.3747 1090.53 48.8401 1096.2 55.3307C1096.66 55.8519 1097.32 56.0923 1098 55.9917C1098.67 55.9121 1099.25 55.4705 1099.53 54.8696C1107.94 37.0212 1126.21 34.2771 1139.63 39.2852C1153.43 44.4539 1164.93 58.2361 1159.52 77.4253C1159.34 78.0863 1159.5 78.8073 1159.96 79.3089C1160.44 79.8301 1161.13 80.0495 1161.83 79.9294C1171.28 78.1659 1179.34 80.9313 1184.5 87.6819C1190.17 95.0935 1191.3 106.131 1187.23 114.525L1187.23 114.526Z" fill="#7FBEE5"/>
</g>
<path d="M215.967 24.7893C224.297 27.5661 229.85 35.3407 229.85 43.9493C229.85 54.7782 220.687 63.6643 209.859 63.6643H150.992C139.885 63.6643 131 54.7788 131 43.9493C131 33.6754 138.497 25.0675 148.77 23.9575C149.881 17.016 154.324 11.4623 160.71 8.96334C166.819 6.46454 173.761 7.01937 179.036 10.6292C184.034 1.46624 194.307 -1.31061 203.472 2.02178C212.913 5.63151 218.466 14.7945 215.967 24.7899L215.967 24.7893ZM212.635 28.9546C211.246 28.6771 210.414 27.0106 210.691 25.6227C214.023 17.2928 210.135 9.51718 201.805 6.4627C193.753 3.40837 185.7 6.4627 182.369 14.7927C181.813 16.4586 179.87 17.014 178.481 15.9031C174.039 12.0159 167.93 10.9048 162.654 13.1263C157.101 15.3476 153.491 20.3459 153.213 26.1765C153.213 27.5649 152.103 28.6753 150.714 28.6753C142.384 28.6753 135.72 35.3394 135.72 43.9463C135.72 52.2762 142.662 59.2172 150.991 59.2172H209.858C218.188 59.2172 225.129 52.2757 225.129 43.9463C225.129 36.4492 219.853 30.3405 212.634 28.9521L212.635 28.9546Z" fill="#7FBEE5"/>
<g opacity="0.5">
<path d="M217.405 364.049C214.377 370.352 208.354 373.889 200.456 374.038H95.4014C84.7055 374.038 76 365.332 76 354.636C76 343.972 84.6723 335.284 95.3188 335.235C95.763 335.235 96.1912 335.053 96.5034 334.725C96.8156 334.413 96.9809 333.985 96.9637 333.523C96.5034 320.737 105.324 312.624 113.716 309.299C117.204 307.917 120.759 307.242 124.199 307.242C131.307 307.242 137.972 310.089 142.629 315.421C143.008 315.849 143.551 316.047 144.11 315.964C144.653 315.899 145.13 315.536 145.361 315.042C152.273 300.38 167.281 298.126 178.305 302.24C189.644 306.486 199.089 317.808 194.647 333.571C194.498 334.114 194.63 334.706 195.008 335.118C195.403 335.547 195.962 335.727 196.538 335.628C204.306 334.179 210.921 336.451 215.166 341.997C219.825 348.085 220.747 357.152 217.406 364.047L217.405 364.049Z" fill="#7FBEE5"/>
</g>
<g clip-path="url(#clip0_1617_125558)">
<path d="M1063.31 433.914C1050.18 433.914 1037.59 428.699 1028.31 419.416C1019.03 410.133 1013.81 397.542 1013.81 384.414C1013.81 371.286 1019.03 358.695 1028.31 349.412C1037.59 340.129 1050.18 334.914 1063.31 334.914C1076.44 334.914 1089.03 340.129 1098.31 349.412C1107.6 358.695 1112.81 371.286 1112.81 384.414C1112.81 397.542 1107.6 410.133 1098.31 419.416C1089.03 428.699 1076.44 433.914 1063.31 433.914ZM1055.06 293.664H1071.56V318.414H1055.06V293.664ZM993.309 326.078L1004.97 314.413L1022.47 331.911L1010.81 343.577L993.309 326.078ZM1104.15 436.917L1115.81 425.252L1133.31 442.75L1121.65 454.415L1104.15 436.917ZM1121.65 314.405L1133.31 326.078L1115.81 343.577L1104.15 331.911L1121.65 314.413V314.405ZM1010.81 425.252L1022.47 436.917L1004.97 454.415L993.309 442.75L1010.81 425.252ZM1154.06 376.164V392.664H1129.31V376.164H1154.06ZM997.311 376.164V392.664H972.561V376.164H997.311Z" fill="#EFD97F"/>
</g>
<path d="M1072.6 387.664C1075.68 387.664 1078.15 388.019 1081.11 388.882C1083.72 389.645 1086.33 390.405 1088.95 391.13C1090.9 391.668 1092.88 391.602 1094.85 391.022C1097.28 390.304 1098.68 391.318 1098.7 393.875C1098.75 400.111 1098.74 406.347 1098.7 412.583C1098.7 414.531 1098.14 415.21 1096.28 415.794C1092.8 416.887 1089.33 416.524 1085.92 415.511C1083.35 414.747 1080.87 413.646 1078.28 412.958C1074.39 411.924 1070.6 412.528 1066.97 414.234C1066.42 414.489 1066.22 414.797 1066.23 415.411C1066.28 416.966 1066.17 418.535 1066.28 420.087C1066.33 420.721 1066.62 421.471 1067.06 421.918C1072.74 427.699 1078.47 433.434 1084.19 439.186C1097.69 452.755 1111.18 466.328 1124.69 479.893C1125.17 480.376 1125.76 480.748 1126.3 481.173L1126.31 481.403C1125.48 482.174 1124.63 482.921 1123.83 483.718C1122.12 485.411 1120.44 487.13 1118.76 488.827C1100.25 470.216 1081.79 451.662 1063.36 433.13L1007.82 488.961C1005.21 486.308 1002.78 483.83 1000.31 481.311C1000.66 480.99 1001.18 480.539 1001.67 480.051C1020.97 460.647 1040.27 441.238 1059.59 421.851C1060.61 420.829 1061.06 419.715 1061.05 418.289C1061 410.343 1061.02 402.397 1060.94 394.451C1060.92 392.586 1061.66 391.356 1063.27 390.521C1065.88 389.17 1068.59 388.127 1071.52 387.785C1071.69 387.764 1071.98 387.727 1072.15 387.702L1072.6 387.664H1072.6Z" fill="#3452A5"/>
<path d="M1061.32 498.82H1013.36C1013.36 496.689 1013.14 494.553 1013.44 492.505C1013.63 491.249 1014.41 489.894 1015.31 488.968C1020.96 483.162 1026.72 477.455 1032.47 471.741C1032.77 471.441 1033.27 471.174 1033.68 471.169C1042.76 471.14 1051.84 471.149 1060.92 471.153C1061.03 471.153 1061.13 471.186 1061.32 471.215V498.824L1061.32 498.82Z" fill="#3452A5"/>
<path d="M1091.08 530.389H1077.68V516.124H1048.8V530.351H1035.93V502.738H1091.08V530.389Z" fill="#3452A5"/>
<path d="M1111.72 498.91H1065.62V471.147H1066.66C1075.04 471.147 1083.43 471.134 1091.81 471.172C1092.3 471.172 1092.99 471.468 1093.34 471.826C1098.93 477.616 1104.5 483.435 1110.05 489.266C1111.16 490.426 1111.8 491.79 1111.73 493.475C1111.65 495.243 1111.71 497.02 1111.71 498.906L1111.72 498.91Z" fill="#3452A5"/>
<path d="M1048.73 534.289H1013.45V561.577H1048.73V534.289Z" fill="#3452A5"/>
<path d="M1111.72 534.238H1077.75V561.664H1111.72V534.238Z" fill="#3452A5"/>
<path d="M1036.76 466.917C1045.67 458.199 1054.58 449.481 1063.58 440.672C1071.85 449.319 1080.38 458.232 1089.06 467.301H1036.91L1036.75 466.917H1036.76Z" fill="#3452A5"/>
<path d="M1031.65 502.738H1013.34V530.343H1031.65V502.738Z" fill="#3452A5"/>
<path d="M1111.76 502.691H1095.35V530.384H1111.76V502.691Z" fill="#3452A5"/>
<g clip-path="url(#clip1_1617_125558)">
<path d="M1131.18 548.094C1133.08 545.925 1134.84 544.446 1136.8 543.2C1137.66 542.654 1137.95 542.689 1138.67 543.423C1140.6 545.407 1142.32 547.54 1143.51 550.071C1144.6 552.391 1145.11 554.823 1144.95 557.372C1144.84 559.215 1144.17 560.905 1143.21 562.462C1141.78 564.745 1139.87 566.579 1137.78 568.243C1137.18 568.724 1136.58 569.212 1135.95 569.66C1135.23 570.178 1134.79 570.152 1134.17 569.52C1132.11 567.384 1130.24 565.108 1129.05 562.358C1128.66 561.475 1128.36 560.551 1128.11 559.616C1127.27 556.366 1127.83 553.31 1129.56 550.461C1130.15 549.487 1130.84 548.577 1131.18 548.1L1131.18 548.094Z" fill="#3E6B5F"/>
<path d="M1159.75 567.007C1158 568.911 1155.92 570.206 1153.43 570.792C1150.1 571.58 1146.75 571.66 1143.4 570.884C1141.94 570.546 1141.79 570.342 1141.92 568.842C1142.02 567.582 1142.13 566.317 1142.29 565.063C1142.65 562.4 1143.48 559.899 1144.98 557.642C1146.45 555.424 1148.48 553.948 1150.98 553.102C1153.05 552.401 1155.19 552.152 1157.36 552.155C1159.03 552.15 1160.68 552.35 1162.31 552.712C1163.27 552.929 1163.48 553.187 1163.55 554.184C1163.55 554.233 1163.55 554.282 1163.55 554.33C1163.58 557.73 1162.97 561.006 1161.51 564.082C1161.02 565.103 1160.34 566.032 1159.75 567L1159.75 567.007Z" fill="#3E6B5F"/>
<path d="M1113.87 565.286C1112.21 563.717 1111.01 561.896 1110.4 559.709C1109.41 556.178 1109.27 552.615 1110.1 549.026C1110.14 548.83 1110.19 548.641 1110.24 548.452C1110.45 547.815 1110.65 547.629 1111.3 547.615C1115.27 547.54 1119.06 548.233 1122.56 550.171C1125.22 551.644 1126.98 553.879 1127.94 556.758C1128.59 558.687 1128.88 560.679 1128.8 562.701C1128.72 564.51 1128.51 566.312 1128.31 568.109C1128.22 568.86 1127.89 569.131 1127.19 569.146C1123.51 569.243 1119.97 568.625 1116.64 566.995C1115.67 566.515 1114.79 565.857 1113.87 565.285L1113.87 565.286Z" fill="#3E6B5F"/>
</g>
<g clip-path="url(#clip2_1617_125558)">
<path d="M982.64 553.48C984.005 550.937 985.382 549.099 987.008 547.442C987.724 546.715 988.019 546.683 988.884 547.235C991.212 548.731 993.371 550.42 995.102 552.616C996.687 554.63 997.73 556.885 998.155 559.403C998.465 561.223 998.198 563.02 997.607 564.755C996.736 567.301 995.287 569.52 993.626 571.615C993.15 572.219 992.68 572.829 992.17 573.408C991.58 574.076 991.144 574.151 990.405 573.674C987.915 572.058 985.578 570.264 983.795 567.855C983.219 567.083 982.709 566.253 982.262 565.396C980.704 562.421 980.557 559.318 981.597 556.152C981.95 555.07 982.424 554.026 982.641 553.486L982.64 553.48Z" fill="#3E6B5F"/>
<path d="M1014.75 565.441C1013.48 567.693 1011.74 569.425 1009.45 570.557C1006.39 572.078 1003.14 572.915 999.698 572.917C998.204 572.916 998.006 572.753 997.794 571.262C997.613 570.011 997.431 568.754 997.304 567.496C997.048 564.822 997.293 562.198 998.243 559.66C999.175 557.167 1000.82 555.27 1003.06 553.881C1004.92 552.731 1006.94 552.004 1009.06 551.515C1010.69 551.133 1012.34 550.955 1014.01 550.94C1014.99 550.933 1015.26 551.137 1015.55 552.093C1015.56 552.14 1015.57 552.187 1015.58 552.235C1016.38 555.54 1016.53 558.868 1015.8 562.195C1015.56 563.3 1015.11 564.359 1014.75 565.436L1014.75 565.441Z" fill="#3E6B5F"/>
<path d="M969.671 574.137C967.692 572.986 966.113 571.484 965.024 569.491C963.265 566.274 962.324 562.835 962.315 559.153C962.313 558.952 962.318 558.756 962.329 558.56C962.383 557.894 962.536 557.667 963.174 557.505C967.017 556.536 970.872 556.352 974.716 557.45C977.636 558.284 979.861 560.062 981.447 562.648C982.514 564.382 983.252 566.255 983.626 568.244C983.961 570.023 984.159 571.827 984.368 573.623C984.459 574.374 984.193 574.713 983.514 574.887C979.951 575.813 976.361 576.012 972.758 575.175C971.701 574.928 970.692 574.486 969.665 574.138L969.671 574.137Z" fill="#3E6B5F"/>
</g>
<path fill-rule="evenodd" clip-rule="evenodd" d="M-34 499.988L22.6667 489.895C79.3333 479.802 192.667 459.616 306 484.849C419.333 510.081 532.667 580.733 646 595.873C759.333 611.012 872.667 570.64 986 560.547C1099.33 550.454 1212.67 570.64 1269.33 580.733L1326 590.826V681.664H1269.33C1212.67 681.664 1099.33 681.664 986 681.664C872.667 681.664 759.333 681.664 646 681.664C532.667 681.664 419.333 681.664 306 681.664C192.667 681.664 79.3333 681.664 22.6667 681.664H-34V499.988Z" fill="#3E6B5F"/>
<defs>
<clipPath id="clip0_1617_125558">
<rect width="198" height="198" fill="white" transform="translate(964.311 293.664)"/>
</clipPath>
<clipPath id="clip1_1617_125558">
<rect width="54.0376" height="27.5389" fill="white" transform="translate(1110.8 540.156) rotate(5.66367)"/>
</clipPath>
<clipPath id="clip2_1617_125558">
<rect width="54.0376" height="27.5389" fill="white" transform="translate(961 550.355) rotate(-7.40638)"/>
</clipPath>
</defs>
</svg>
