<svg width="1240" height="72" viewBox="0 0 1240 72" fill="none" xmlns="http://www.w3.org/2000/svg">
<g opacity="0.5">
<path d="M811.361 23L675.5 56.1364V68H1186.5L1119.58 26.2727L1100.32 34.0455H1078.01L1036.44 43.8636L968.514 14L878.278 46.7273L811.361 23Z" fill="#283F79" fill-opacity="0.3"/>
<path d="M300.361 23L164.5 68H675.5V53.2727L608.583 26.2727L589.319 34.0455H567.014L525.444 43.8636L457.514 14L367.278 46.7273L300.361 23Z" fill="#283F79" fill-opacity="0.3"/>
<path d="M82 42.4988C44.0327 39.6274 0.333334 44.9988 -17 49.9988V91.6613H1243.5V62.1612H1193.5C1168.5 62.1612 1156 54.1613 1122.5 54.1613C1089 54.1613 1076.5 62.1612 1033.5 62.1612C990.5 62.1612 949 50.1612 912.5 50.1612C876 50.1612 876 62.1612 818 62.1612C760 62.1612 724 50.1612 657.5 50.1612C591 50.1612 567 62.1612 522 62.1612C477 62.1612 388 31.1612 306 50.1612C224 69.1612 141.5 46.9986 82 42.4988Z" fill="#283F79"/>
<g opacity="0.5">
<path d="M794.361 55L658.5 88.1364V100H1169.5L1102.58 58.2727L1083.32 66.0455H1061.01L1019.44 75.8636L951.514 46L861.278 78.7273L794.361 55Z" fill="#283F79" fill-opacity="0.3"/>
<path d="M283.361 55L147.5 100H658.5V85.2727L591.583 58.2727L572.319 66.0455H550.014L508.444 75.8636L440.514 46L350.278 78.7273L283.361 55Z" fill="#283F79" fill-opacity="0.3"/>
<path d="M65 74.4988C27.0327 71.6274 -16.6667 76.9988 -34 81.9988V123.661H1226.5V94.1612H1176.5C1151.5 94.1612 1139 86.1613 1105.5 86.1613C1072 86.1613 1059.5 94.1612 1016.5 94.1612C973.5 94.1612 932 82.1612 895.5 82.1612C859 82.1612 859 94.1612 801 94.1612C743 94.1612 707 82.1612 640.5 82.1612C574 82.1612 550 94.1612 505 94.1612C460 94.1612 371 63.1612 289 82.1612C207 101.161 124.5 78.9986 65 74.4988Z" fill="#283F79"/>
<path d="M611 62L624.5 55L638 62V90H611V62Z" fill="#283F79"/>
<path d="M636 74L644.5 70L653 74V90H636V74Z" fill="#283F79"/>
</g>
<path d="M669.375 0C670.328 0 671.094 0.110032 672.009 0.377994C672.816 0.614887 673.624 0.850486 674.435 1.07573C675.039 1.24272 675.652 1.22201 676.262 1.04207C677.013 0.819418 677.449 1.13398 677.455 1.92751C677.468 3.86278 677.466 5.79806 677.455 7.73333C677.453 8.33786 677.282 8.54887 676.704 8.7301C675.627 9.06926 674.554 8.95664 673.5 8.64207C672.702 8.40518 671.934 8.06343 671.133 7.84984C669.928 7.5288 668.756 7.71651 667.632 8.24596C667.464 8.32492 667.399 8.42071 667.404 8.611C667.42 9.09385 667.386 9.58058 667.42 10.0621C667.434 10.2589 667.524 10.4919 667.659 10.6304C669.419 12.4246 671.192 14.2045 672.962 15.9896C677.14 20.2006 681.317 24.4129 685.498 28.6227C685.648 28.7728 685.83 28.888 685.997 29.0201L686 29.0913C685.744 29.3307 685.48 29.5625 685.232 29.8097C684.703 30.3353 684.184 30.8686 683.663 31.3955C677.933 25.6194 672.221 19.8615 666.515 14.11L649.323 31.4369C648.518 30.6136 647.765 29.8447 647 29.0628C647.107 28.9631 647.269 28.8233 647.419 28.6718C653.395 22.6498 659.368 16.6265 665.349 10.6097C665.664 10.2926 665.804 9.94693 665.8 9.50421C665.785 7.03819 665.79 4.57217 665.767 2.10615C665.762 1.52751 665.989 1.14563 666.488 0.886731C667.296 0.467314 668.134 0.143689 669.042 0.0375405C669.093 0.031068 669.182 0.0194175 669.236 0.0116505L669.374 0L669.375 0Z" fill="#283F79"/>
<path d="M665.885 34.4979H651.039C651.039 33.8364 650.97 33.1737 651.065 32.5381C651.123 32.1484 651.363 31.7277 651.642 31.4403C653.392 29.6384 655.175 27.8675 656.953 26.094C657.047 26.0008 657.202 25.918 657.329 25.9167C660.139 25.9076 662.95 25.9102 665.76 25.9115C665.793 25.9115 665.826 25.9219 665.883 25.9309V34.4992L665.885 34.4979Z" fill="#283F79"/>
<path d="M675.096 44.2922H670.948V39.865H662.008V44.2805H658.023V35.7109H675.096V44.2922Z" fill="#283F79"/>
<path d="M681.483 34.5231H667.214V25.9069H667.538C670.132 25.9069 672.726 25.903 675.32 25.9146C675.474 25.9146 675.688 26.0065 675.794 26.1179C677.526 27.9146 679.249 29.7205 680.967 31.5302C681.309 31.89 681.508 32.3133 681.486 32.8363C681.463 33.3852 681.481 33.9366 681.481 34.5218L681.483 34.5231Z" fill="#283F79"/>
<path d="M661.987 45.5039H651.066V53.9725H661.987V45.5039Z" fill="#283F79"/>
<path d="M681.483 45.4883H670.968V53.9996H681.483V45.4883Z" fill="#283F79"/>
<path d="M658.281 24.5942C661.039 21.8887 663.797 19.1832 666.583 16.4492C669.143 19.1327 671.784 21.8991 674.469 24.7133H658.328L658.279 24.5942H658.281Z" fill="#283F79"/>
<path d="M656.701 35.7109H651.034V44.2779H656.701V35.7109Z" fill="#283F79"/>
<path d="M681.497 35.6992H676.419V44.2934H681.497V35.6992Z" fill="#283F79"/>
</g>
</svg>
