<svg width="779" height="495" viewBox="0 0 779 495" fill="none" xmlns="http://www.w3.org/2000/svg">
<path fill-rule="evenodd" clip-rule="evenodd" d="M264.71 388.386C329.913 376.68 390.947 318.524 455.629 301.011C520.311 283.499 588.641 306.631 656.451 323.957C756.921 250.091 746.89 251.982 780.534 257.741L780.534 405.742C747.672 408.692 730.514 410.958 664.79 416.858C599.065 422.758 533.341 428.657 467.617 434.557C401.892 440.456 336.168 446.356 270.443 452.256C204.719 458.155 138.995 464.055 106.132 467.005L73.2702 469.955C147.26 402.109 119.074 414.532 264.71 388.386Z" fill="#7DD4C2"/>
<circle cx="607.654" cy="197.619" r="97.1348" fill="#EFD97F"/>
<g clip-path="url(#clip0_1178_48665)">
<path d="M539.608 271.371C539.552 269.088 539.78 267.285 540.251 265.51C540.459 264.729 540.649 264.592 541.46 264.633C543.647 264.752 545.793 265.069 547.842 265.902C549.72 266.667 551.32 267.81 552.597 269.376C553.522 270.507 554.041 271.847 554.313 273.272C554.711 275.364 554.582 277.457 554.258 279.547C554.167 280.149 554.083 280.753 553.958 281.35C553.814 282.04 553.544 282.262 552.849 282.223C550.504 282.086 548.194 281.766 546.026 280.807C545.328 280.501 544.652 280.13 544.009 279.715C541.775 278.278 540.459 276.202 539.936 273.617C539.756 272.734 539.674 271.831 539.611 271.375L539.608 271.371Z" fill="#3E6B5F"/>
<path d="M566.373 267.037C566.377 269.084 565.859 270.955 564.73 272.629C563.216 274.873 561.308 276.721 558.943 278.067C557.915 278.651 557.715 278.616 556.986 277.674C556.372 276.884 555.755 276.091 555.176 275.275C553.954 273.536 553.095 271.636 552.756 269.518C552.422 267.438 552.811 265.491 553.809 263.659C554.636 262.142 555.746 260.849 557.013 259.683C557.983 258.784 559.047 258.017 560.188 257.353C560.865 256.963 561.126 257 561.699 257.544C561.726 257.572 561.753 257.6 561.78 257.627C563.62 259.59 565.026 261.819 565.824 264.394C566.091 265.248 566.193 266.154 566.366 267.036L566.373 267.037Z" fill="#3E6B5F"/>
<path d="M538.768 290.653C536.956 290.635 535.282 290.219 533.754 289.274C531.286 287.75 529.293 285.753 527.847 283.224C527.767 283.086 527.694 282.95 527.624 282.81C527.401 282.331 527.418 282.115 527.793 281.754C530.057 279.584 532.637 277.95 535.71 277.201C538.045 276.633 540.271 276.985 542.374 278.144C543.786 278.919 545.026 279.919 546.061 281.14C546.988 282.233 547.829 283.397 548.676 284.55C549.032 285.031 548.981 285.369 548.582 285.754C546.494 287.784 544.102 289.325 541.297 290.159C540.474 290.403 539.607 290.493 538.764 290.655L538.768 290.653Z" fill="#3E6B5F"/>
</g>
<g clip-path="url(#clip1_1178_48665)">
<path d="M663.494 265.3C665.574 264.357 667.323 263.864 669.142 263.604C669.942 263.492 670.142 263.613 670.42 264.376C671.165 266.436 671.71 268.535 671.742 270.747C671.771 272.774 671.342 274.693 670.399 276.48C669.719 277.773 668.688 278.774 667.482 279.581C665.711 280.763 663.733 281.461 661.683 281.979C661.093 282.13 660.504 282.288 659.906 282.406C659.214 282.542 658.904 282.38 658.669 281.725C657.88 279.512 657.273 277.262 657.31 274.891C657.32 274.128 657.398 273.361 657.529 272.608C657.98 269.989 659.379 267.968 661.554 266.478C662.296 265.968 663.096 265.54 663.492 265.304L663.494 265.3Z" fill="#3E6B5F"/>
<path d="M677.928 288.254C676.045 289.057 674.119 289.31 672.138 288.923C669.481 288.405 667.035 287.369 664.872 285.717C663.934 284.998 663.888 284.8 664.471 283.761C664.959 282.888 665.449 282.011 665.973 281.159C667.098 279.355 668.512 277.824 670.33 276.685C672.114 275.566 674.059 275.164 676.135 275.368C677.855 275.537 679.479 276.055 681.046 276.767C682.253 277.308 683.374 277.989 684.43 278.781C685.054 279.252 685.122 279.506 684.844 280.247C684.829 280.282 684.814 280.318 684.799 280.353C683.71 282.813 682.206 284.978 680.147 286.717C679.464 287.296 678.67 287.744 677.926 288.248L677.928 288.254Z" fill="#3E6B5F"/>
<path d="M645.413 272.051C644.723 270.376 644.452 268.673 644.726 266.897C645.166 264.029 646.228 261.416 647.992 259.097C648.087 258.97 648.184 258.849 648.286 258.731C648.64 258.338 648.845 258.269 649.324 258.474C652.206 259.712 654.717 261.449 656.605 263.987C658.04 265.915 658.584 268.102 658.337 270.49C658.175 272.093 657.738 273.625 657.017 275.054C656.372 276.334 655.63 277.563 654.898 278.792C654.595 279.308 654.264 279.393 653.754 279.176C651.069 278.046 648.717 276.445 646.854 274.187C646.309 273.524 645.887 272.761 645.409 272.049L645.413 272.051Z" fill="#3E6B5F"/>
</g>
<path fill-rule="evenodd" clip-rule="evenodd" d="M233.805 444.462C294.436 446.69 352.554 435.665 405.014 394.821C457.475 353.978 535.742 279.851 558.046 272.342C586.244 272.342 605.379 272.342 651.706 272.342C707.032 288.799 762.56 320.812 780.932 332.171L780.932 348.628L780.932 499.362L733.893 499.362C702.007 499.362 658.526 499.362 596.203 499.362C533.88 499.362 483.636 499.362 420.83 499.362C358.024 499.362 319.857 499.362 256.085 499.362C192.313 499.362 129.025 499.362 95.6892 499.362C95.6892 499.362 67.5343 499.362 24.5338 499.362C151.9 421.244 119.594 440.266 233.805 444.462Z" fill="#3E6B5F"/>
<path d="M801.145 135.183C798.241 141.227 792.466 144.62 784.892 144.762H684.155C673.899 144.762 665.551 136.414 665.551 126.158C665.551 115.932 673.867 107.601 684.076 107.554C684.502 107.554 684.912 107.38 685.212 107.065C685.511 106.766 685.669 106.355 685.653 105.913C685.212 93.6516 693.669 85.8719 701.717 82.6842C705.062 81.3589 708.471 80.7117 711.768 80.7117C718.585 80.7117 724.976 83.4414 729.441 88.5542C729.805 88.9648 730.325 89.1541 730.861 89.0749C731.382 89.0121 731.84 88.6643 732.061 88.191C738.689 74.1315 753.08 71.97 763.652 75.9149C774.524 79.9864 783.581 90.8428 779.321 105.958C779.179 106.479 779.306 107.047 779.668 107.442C780.047 107.853 780.583 108.026 781.135 107.931C788.584 106.542 794.927 108.72 798.998 114.038C803.465 119.876 804.349 128.57 801.145 135.182L801.145 135.183Z" fill="#7FBEE5"/>
<path d="M551.288 24.2109C559.648 26.9976 565.221 34.7998 565.221 43.439C565.221 54.3063 556.025 63.224 545.158 63.224H486.082C474.936 63.224 466.02 54.3069 466.02 43.439C466.02 33.1285 473.543 24.4901 483.853 23.3762C484.967 16.41 489.426 10.8366 495.835 8.32874C501.966 5.82107 508.932 6.37788 514.226 10.0006C519.242 0.805023 529.551 -1.98169 538.749 1.36254C548.223 4.98509 553.796 14.1806 551.288 24.2115L551.288 24.2109ZM547.944 28.391C546.551 28.1125 545.715 26.4401 545.993 25.0473C549.337 16.6877 545.436 8.88455 537.076 5.81923C528.995 2.75405 520.914 5.81923 517.571 14.1788C517.013 15.8506 515.063 16.408 513.67 15.2932C509.211 11.3921 503.081 10.2771 497.786 12.5064C492.213 14.7356 488.59 19.7517 488.312 25.603C488.312 26.9964 487.197 28.1107 485.804 28.1107C477.444 28.1107 470.756 34.7984 470.756 43.4359C470.756 51.7955 477.723 58.7611 486.082 58.7611H545.157C553.517 58.7611 560.483 51.7949 560.483 43.4359C560.483 35.9122 555.188 29.7818 547.943 28.3885L547.944 28.391Z" fill="#7FBEE5"/>
<path d="M613.167 129.934C615.709 129.934 617.75 130.225 620.19 130.935C622.344 131.562 624.498 132.186 626.66 132.782C628.272 133.224 629.905 133.17 631.531 132.693C633.534 132.104 634.697 132.937 634.714 135.038C634.749 140.163 634.742 145.288 634.714 150.413C634.708 152.013 634.251 152.572 632.711 153.052C629.84 153.95 626.979 153.652 624.166 152.819C622.039 152.192 619.991 151.287 617.853 150.721C614.642 149.871 611.517 150.368 608.519 151.77C608.069 151.979 607.898 152.233 607.912 152.737C607.953 154.015 607.864 155.304 607.953 156.58C607.991 157.101 608.231 157.718 608.591 158.085C613.284 162.836 618.011 167.549 622.732 172.277C633.874 183.428 645.013 194.583 656.162 205.731C656.56 206.128 657.047 206.433 657.493 206.783L657.5 206.972C656.817 207.606 656.114 208.219 655.452 208.874C654.042 210.266 652.656 211.678 651.267 213.073C635.987 197.778 620.756 182.53 605.541 167.299L559.696 213.183C557.548 211.003 555.541 208.967 553.5 206.896C553.785 206.632 554.217 206.262 554.618 205.861C570.553 189.914 586.481 173.963 602.43 158.03C603.27 157.19 603.644 156.275 603.634 155.102C603.593 148.572 603.606 142.041 603.545 135.511C603.531 133.979 604.138 132.967 605.469 132.282C607.624 131.171 609.857 130.314 612.279 130.033C612.416 130.016 612.653 129.985 612.797 129.964L613.164 129.934H613.167Z" fill="#3452A5"/>
<path d="M603.861 221.287H564.272C564.272 219.535 564.087 217.78 564.341 216.097C564.495 215.065 565.137 213.951 565.881 213.19C570.547 208.418 575.301 203.728 580.042 199.032C580.293 198.785 580.708 198.566 581.044 198.562C588.54 198.538 596.036 198.545 603.528 198.549C603.617 198.549 603.703 198.576 603.857 198.6V221.29L603.861 221.287Z" fill="#3452A5"/>
<path d="M628.423 247.23H617.363V235.506H593.521V247.199H582.896V224.506H628.423V247.23Z" fill="#3452A5"/>
<path d="M645.456 221.36H607.404V198.543H608.269C615.185 198.543 622.104 198.532 629.02 198.563C629.432 198.563 630.001 198.807 630.286 199.101C634.903 203.86 639.497 208.642 644.08 213.434C644.993 214.387 645.521 215.508 645.463 216.893C645.401 218.346 645.449 219.807 645.449 221.356L645.456 221.36Z" fill="#3452A5"/>
<path d="M593.466 250.436H564.344V272.862H593.466V250.436Z" fill="#3452A5"/>
<path d="M645.455 250.395H617.414V272.934H645.455V250.395Z" fill="#3452A5"/>
<path d="M583.582 195.065C590.937 187.901 598.292 180.736 605.722 173.496C612.549 180.602 619.592 187.928 626.751 195.381H583.708L583.578 195.065H583.582Z" fill="#3452A5"/>
<path d="M579.369 224.506H564.258V247.193H579.369V224.506Z" fill="#3452A5"/>
<path d="M645.49 224.469H631.949V247.227H645.49V224.469Z" fill="#3452A5"/>
<defs>
<clipPath id="clip0_1178_48665">
<rect width="42.7584" height="21.7907" fill="white" transform="translate(523.5 277.686) rotate(-37.0329)"/>
</clipPath>
<clipPath id="clip1_1178_48665">
<rect width="42.7584" height="21.7907" fill="white" transform="translate(651.395 252.934) rotate(30)"/>
</clipPath>
</defs>
</svg>
