<svg width="1440" height="811" viewBox="0 0 1440 811" fill="none" xmlns="http://www.w3.org/2000/svg">
    <path fill-rule="evenodd" clip-rule="evenodd"
          d="M-19.6836 771.833L45.4335 765.988L388.824 735.164L800.892 698.175L1212.96 661.187L1449.67 639.939V283.236C1388.96 324.414 1319.68 375.513 1245.55 430.182L1245.55 430.187L1245.51 430.213C1229.08 442.334 1212.4 454.631 1195.53 467.034C1177.82 462.508 1160.09 457.793 1142.36 453.077C1018.24 420.067 894.12 387.058 775.84 419.081C712.757 436.161 651.334 471.738 589.912 507.316C519.715 547.976 449.518 588.637 376.842 601.684C240.575 626.148 95.5945 553.536 23.1041 517.23L-19.6836 495.8V771.833Z"
          fill="#7DD4C2"/>
    <circle cx="1093.55" cy="203" r="203" fill="#EFD97F"/>
    <path d="M1108.89 58C1113.97 58 1118.05 58.5848 1122.93 60.009C1127.24 61.268 1131.55 62.5202 1135.87 63.7173C1139.1 64.6048 1142.36 64.4947 1145.61 63.5384C1149.62 62.3551 1151.95 64.0269 1151.98 68.2443C1152.05 78.53 1152.04 88.8156 1151.98 99.1012C1151.97 102.314 1151.06 103.436 1147.97 104.399C1142.23 106.201 1136.51 105.603 1130.88 103.931C1126.63 102.672 1122.53 100.856 1118.26 99.7204C1111.84 98.0142 1105.59 99.0118 1099.59 101.826C1098.69 102.245 1098.35 102.755 1098.38 103.766C1098.46 106.332 1098.28 108.919 1098.46 111.478C1098.53 112.524 1099.01 113.763 1099.73 114.499C1109.12 124.034 1118.58 133.494 1128.02 142.982C1150.3 165.363 1172.58 187.75 1194.88 210.124C1195.67 210.922 1196.65 211.535 1197.54 212.236L1197.55 212.615C1196.19 213.887 1194.78 215.119 1193.46 216.433C1190.64 219.226 1187.86 222.061 1185.09 224.861C1154.53 194.162 1124.06 163.56 1093.64 132.992L1001.94 225.081C997.649 220.706 993.635 216.619 989.553 212.463C990.122 211.934 990.987 211.191 991.789 210.386C1023.66 178.38 1055.51 146.367 1087.41 114.389C1089.09 112.703 1089.84 110.866 1089.82 108.513C1089.74 95.4067 1089.77 82.3002 1089.64 69.1938C1089.61 66.1184 1090.83 64.0888 1093.49 62.7128C1097.8 60.4837 1102.27 58.7637 1107.11 58.1995C1107.38 58.1651 1107.86 58.1032 1108.15 58.0619L1108.88 58L1108.89 58Z"
          fill="#3452A5"/>
    <path d="M1090.27 241.346H1011.1C1011.1 237.83 1010.73 234.307 1011.23 230.929C1011.54 228.858 1012.83 226.622 1014.32 225.095C1023.65 215.518 1033.16 206.106 1042.64 196.68C1043.14 196.185 1043.97 195.745 1044.64 195.738C1059.63 195.69 1074.62 195.703 1089.61 195.71C1089.79 195.71 1089.96 195.765 1090.27 195.814V241.352L1090.27 241.346Z"
          fill="#3452A5"/>
    <path d="M1139.4 293.413H1117.28V269.884H1069.59V293.351H1048.35V247.806H1139.4V293.413Z" fill="#3452A5"/>
    <path d="M1173.46 241.49H1097.36V195.697H1099.09C1112.92 195.697 1126.76 195.676 1140.59 195.738C1141.42 195.738 1142.56 196.226 1143.12 196.818C1152.36 206.368 1161.55 215.965 1170.71 225.583C1172.54 227.496 1173.59 229.746 1173.48 232.525C1173.35 235.443 1173.45 238.373 1173.45 241.483L1173.46 241.49Z"
          fill="#3452A5"/>
    <path d="M1069.48 299.847H1011.24V344.856H1069.48V299.847Z" fill="#3452A5"/>
    <path d="M1173.46 299.764H1117.38V345H1173.46V299.764Z" fill="#3452A5"/>
    <path d="M1049.72 188.721C1064.43 174.341 1079.14 159.962 1094 145.432C1107.65 159.694 1121.74 174.397 1136.06 189.354H1049.97L1049.71 188.721H1049.72Z"
          fill="#3452A5"/>
    <path d="M1041.29 247.806H1011.07V293.338H1041.29V247.806Z" fill="#3452A5"/>
    <path d="M1173.53 247.73H1146.45V293.407H1173.53V247.73Z" fill="#3452A5"/>
    <g>
        <path d="M954.577 347.705C955.045 342.954 955.98 339.274 957.41 335.711C958.042 334.146 958.471 333.909 960.142 334.203C964.648 335.008 969.017 336.215 973.055 338.469C976.754 340.536 979.779 343.316 982.028 346.89C983.657 349.472 984.391 352.385 984.591 355.41C984.88 359.851 984.077 364.159 982.871 368.412C982.528 369.638 982.199 370.867 981.788 372.074C981.311 373.469 980.694 373.86 979.263 373.601C974.434 372.717 969.726 371.463 965.474 368.918C964.103 368.105 962.797 367.162 961.57 366.138C957.303 362.586 955.106 357.941 954.683 352.447C954.534 350.57 954.595 348.676 954.582 347.713L954.577 347.705Z"
              fill="#3E6B5F"/>
        <path d="M1011.2 345.565C1010.69 349.812 1009.14 353.561 1006.36 356.742C1002.65 361.011 998.22 364.355 992.97 366.542C990.689 367.49 990.282 367.367 989.011 365.225C987.94 363.43 986.864 361.627 985.871 359.787C983.781 355.867 982.488 351.706 982.326 347.227C982.165 342.828 983.47 338.887 986.008 335.344C988.112 332.408 990.746 330.01 993.672 327.917C995.913 326.299 998.316 324.981 1000.85 323.897C1002.36 323.26 1002.89 323.403 1003.94 324.68C1003.99 324.744 1004.04 324.808 1004.08 324.873C1007.4 329.414 1009.75 334.398 1010.74 339.943C1011.08 341.782 1011.06 343.688 1011.19 345.561L1011.2 345.565Z"
              fill="#3E6B5F"/>
        <path d="M947.901 387.482C944.148 386.982 940.782 385.692 937.854 383.341C933.124 379.548 929.503 374.895 927.15 369.279C927.019 368.974 926.902 368.671 926.794 368.364C926.454 367.314 926.543 366.87 927.414 366.217C932.667 362.295 938.434 359.565 945.001 358.799C949.989 358.218 954.516 359.519 958.581 362.46C961.311 364.429 963.627 366.821 965.462 369.619C967.104 372.123 968.552 374.751 970.013 377.36C970.629 378.448 970.437 379.136 969.511 379.832C964.661 383.51 959.305 386.094 953.273 387.106C951.503 387.401 949.682 387.366 947.892 387.487L947.901 387.482Z"
              fill="#3E6B5F"/>
    </g>
    <g>
        <path d="M1212.61 337.845C1216.96 335.875 1220.61 334.845 1224.41 334.302C1226.08 334.066 1226.5 334.32 1227.08 335.914C1228.64 340.219 1229.78 344.606 1229.85 349.229C1229.9 353.467 1229.01 357.476 1227.04 361.211C1225.62 363.912 1223.46 366.005 1220.94 367.691C1217.24 370.161 1213.11 371.62 1208.82 372.702C1207.59 373.018 1206.36 373.348 1205.11 373.595C1203.66 373.88 1203.01 373.541 1202.52 372.172C1200.87 367.548 1199.61 362.844 1199.68 357.889C1199.7 356.295 1199.87 354.692 1200.14 353.118C1201.08 347.646 1204.01 343.422 1208.55 340.308C1210.1 339.241 1211.78 338.346 1212.6 337.854L1212.61 337.845Z"
              fill="#3E6B5F"/>
        <path d="M1242.77 385.816C1238.84 387.492 1234.81 388.021 1230.67 387.213C1225.12 386.131 1220.01 383.965 1215.49 380.513C1213.53 379.011 1213.43 378.597 1214.65 376.426C1215.67 374.601 1216.69 372.767 1217.79 370.987C1220.14 367.217 1223.1 364.017 1226.9 361.637C1230.62 359.298 1234.69 358.458 1239.03 358.884C1242.62 359.239 1246.01 360.321 1249.29 361.808C1251.81 362.94 1254.15 364.362 1256.36 366.018C1257.67 367.001 1257.81 367.534 1257.23 369.08C1257.2 369.155 1257.16 369.229 1257.13 369.303C1254.86 374.444 1251.71 378.969 1247.41 382.604C1245.98 383.813 1244.32 384.748 1242.77 385.802L1242.77 385.816Z"
              fill="#3E6B5F"/>
        <path d="M1174.82 351.952C1173.38 348.451 1172.81 344.892 1173.38 341.18C1174.3 335.187 1176.52 329.725 1180.21 324.879C1180.41 324.613 1180.61 324.361 1180.82 324.114C1181.56 323.294 1181.99 323.149 1182.99 323.577C1189.02 326.165 1194.26 329.795 1198.21 335.099C1201.21 339.128 1202.35 343.698 1201.83 348.69C1201.49 352.038 1200.58 355.241 1199.07 358.228C1197.72 360.903 1196.17 363.471 1194.64 366.04C1194.01 367.118 1193.32 367.296 1192.25 366.842C1186.64 364.48 1181.73 361.134 1177.83 356.416C1176.69 355.03 1175.81 353.436 1174.81 351.947L1174.82 351.952Z"
              fill="#3E6B5F"/>
    </g>
    <path fill-rule="evenodd" clip-rule="evenodd"
          d="M-20.4608 660.455C59.4714 712.397 182.855 732.56 310.045 732.56C437.234 732.56 560.426 700.485 670.063 615.127C779.699 529.77 892.712 373.343 1012.86 343.378C1061.83 343.378 1107.26 343.378 1175.41 343.378C1291.04 377.771 1411 460.667 1449.39 484.406L1449.39 833.604L1357.38 833.604C1290.74 833.604 1199.87 833.604 1069.62 833.604C939.377 833.604 834.372 833.604 703.116 833.604C571.859 833.604 492.095 833.604 358.82 833.604C225.544 833.604 93.2774 833.604 23.6105 833.604L-20.4635 833.604L-20.4608 660.455Z"
          fill="#3E6B5F"/>
</svg>
