<svg width="127" height="127" viewBox="0 0 127 127" fill="none" xmlns="http://www.w3.org/2000/svg">
<mask id="mask0_1217_79837" style="mask-type:alpha" maskUnits="userSpaceOnUse" x="0" y="0" width="127" height="127">
<rect width="127" height="127" rx="8" fill="#ECECEC"/>
</mask>
<g mask="url(#mask0_1217_79837)">
<path fill-rule="evenodd" clip-rule="evenodd" d="M91.5388 112.864C89.4536 112.562 85.3861 111.148 83.4825 108.706C81.4124 106.049 82.5746 104.396 80.4319 100.677C78.2892 96.9575 74.2822 97.1239 72.8658 99.2757C71.2618 101.718 71.6795 106.306 73.6103 110.446C77.0725 117.867 84.0787 119.398 90.979 119.202C93.8238 119.123 94.8437 113.349 91.5358 112.864H91.5388Z" fill="#FDDCD9"/>
<path fill-rule="evenodd" clip-rule="evenodd" d="M91.5409 112.862C87.1889 112.223 82.8157 108.861 81.9441 104.751C80.4309 97.6149 75.755 97.2427 73.7031 98.4169C74.8804 97.745 76.8415 98.9798 77.6677 99.682C78.9246 100.807 79.8383 102.264 80.3038 103.886C80.909 105.913 81.7564 108.026 83.1335 109.657C84.4729 111.269 86.2359 112.476 88.2239 113.14C88.603 113.264 88.989 113.365 89.38 113.443C89.6403 113.492 89.8975 113.537 90.1578 113.576L90.3636 113.607C92.5396 113.93 93.0874 116.969 92.2521 118.751C94.0588 117.329 94.301 113.262 91.5409 112.862Z" fill="#FEFEFE"/>
<path fill-rule="evenodd" clip-rule="evenodd" d="M93.5975 116.197C93.8245 113.824 92.3567 112.656 89.5906 112.414C88.6875 114.523 88.3085 116.819 88.4859 119.105C91.4609 119.792 93.2828 118.981 93.5975 116.197Z" fill="#511B12"/>
<path d="M82.0733 103.678C81.5255 102.186 81.011 100.682 79.9548 99.4414C79.8822 99.3567 79.8095 99.275 79.7339 99.1933C79.5731 99.0209 79.4024 98.8582 79.2224 98.706C77.9392 97.6195 75.9387 96.8357 74.3105 97.5953C70.3762 99.4354 71.1207 104.801 72.2374 108.164C73.6205 112.334 76.6984 116.09 80.666 118.027C81.9105 118.584 83.2232 118.975 84.5701 119.189C86.694 119.592 88.8557 119.76 91.0164 119.691C92.2269 119.655 93.1591 118.783 93.6705 117.657C93.9074 117.134 94.0517 116.574 94.0973 116.002C94.1534 115.435 94.0905 114.863 93.9127 114.322C93.7638 113.81 93.4679 113.353 93.0617 113.008C92.6555 112.663 92.1569 112.444 91.6277 112.379C89.6291 112.101 87.7384 111.304 86.1438 110.067C84.4732 108.739 83.3958 106.914 82.5787 104.968C82.3941 104.544 82.2307 104.111 82.0733 103.678ZM92.9684 114.634C93.098 115.051 93.1463 115.488 93.1107 115.923C93.0711 116.385 92.9555 116.837 92.7687 117.261C92.4025 118.069 91.77 118.692 90.974 118.711C90.3203 118.729 89.6646 118.729 89.0068 118.711C88.9412 117.791 88.9777 116.868 89.1158 115.957C89.2738 114.952 89.524 113.964 89.8633 113.006C90.391 113.161 90.929 113.28 91.4734 113.36C91.8212 113.401 92.1492 113.544 92.4162 113.77C92.6832 113.997 92.8774 114.298 92.9745 114.634H92.9684ZM88.9342 112.7C88.575 113.708 88.3125 114.748 88.1504 115.805C88.0047 116.746 87.9621 117.7 88.0232 118.65C86.4628 118.54 84.914 118.301 83.3928 117.936C79.3314 116.952 76.1718 113.735 74.1774 110.188C73.2059 108.477 72.5768 106.593 72.3252 104.641C72.1012 102.825 72.2919 100.404 73.7022 99.0722C75.4031 97.4531 78.1087 98.6969 79.3162 100.253C81.35 102.876 80.781 104.992 83.5532 108.708C84.6609 110.197 86.97 111.998 88.9402 112.7H88.9342Z" fill="#BA625D"/>
<path d="M93.9031 114.322C93.7542 113.81 93.4584 113.353 93.0522 113.007C92.646 112.662 92.1474 112.444 91.6182 112.379C90.8415 112.261 90.0783 112.067 89.3393 111.801V111.822C89.2454 111.948 89.1672 112.085 89.1063 112.231C89.0427 112.367 89.0003 112.509 88.9459 112.651C88.941 112.664 88.935 112.676 88.9277 112.688C88.9357 112.689 88.9439 112.689 88.9519 112.688C88.5927 113.695 88.3303 114.735 88.1681 115.793C88.0305 116.694 87.9858 117.606 88.0349 118.516C88.0575 118.58 88.0727 118.646 88.0803 118.713C88.0954 118.831 88.0985 118.952 88.1045 119.07C88.1045 119.255 88.1318 119.433 88.1499 119.615C89.1032 119.679 90.0626 119.697 91.019 119.666C92.2295 119.63 93.1617 118.759 93.6731 117.633C93.9099 117.11 94.0543 116.55 94.0999 115.977C94.1487 115.418 94.0817 114.854 93.9031 114.322ZM93.1163 115.923C93.0767 116.384 92.9611 116.836 92.7743 117.26C92.4081 118.069 91.7756 118.692 90.9796 118.71C90.3259 118.728 89.6702 118.728 89.0124 118.71C88.9468 117.791 88.9833 116.867 89.1214 115.956C89.2794 114.952 89.5297 113.964 89.8689 113.005C90.3966 113.161 90.9347 113.279 91.479 113.359C91.8269 113.402 92.1543 113.547 92.4203 113.775C92.6863 114.003 92.8789 114.305 92.974 114.643C93.1025 115.056 93.1507 115.491 93.1163 115.923Z" fill="#1E0604"/>
<path fill-rule="evenodd" clip-rule="evenodd" d="M68.5393 136.518C69.2173 141.581 69.5138 147.201 70.0102 152.079C70.101 152.987 69.9829 153.024 70.7547 153.593C72.2679 154.743 74.2441 154.855 76.4141 154.104C77.2797 153.801 77.1465 153.886 77.4098 153.03C78.8746 148.248 79.4768 142.812 79.4314 137.205C79.3255 124.212 67.0413 125.417 68.5363 136.511L68.5393 136.518Z" fill="#FCDCD9"/>
<path fill-rule="evenodd" clip-rule="evenodd" d="M75.6457 154.337C75.8969 154.274 76.1511 154.195 76.4053 154.11C77.2709 153.808 77.1377 153.893 77.401 153.036C78.8658 148.254 79.468 142.819 79.4226 137.211C79.35 127.992 73.1428 125.925 70.0801 129.457C73.2911 128.11 77.6098 130.825 77.6673 138.512C77.7157 144.114 77.1135 149.55 75.6457 154.331V154.337Z" fill="#FEFEFE"/>
<path fill-rule="evenodd" clip-rule="evenodd" d="M68.917 139.776C72.5487 139.677 76.0079 138.566 79.4217 137.322V137.21C79.3157 124.218 67.0315 125.428 68.5265 136.517C68.6991 137.791 68.8171 138.787 68.917 139.776Z" fill="#E2B1AF"/>
<path fill-rule="evenodd" clip-rule="evenodd" d="M50.7284 137.743C51.4154 142.806 51.7029 148.42 52.2022 153.308C52.293 154.216 52.175 154.243 52.9467 154.821C54.4599 155.968 56.4332 156.086 58.6061 155.332C59.4687 155.03 59.3385 155.117 59.6079 154.252C61.0727 149.476 61.6689 144.041 61.6295 138.433C61.5236 125.44 49.2212 126.63 50.7344 137.74L50.7284 137.743Z" fill="#FCDCD9"/>
<path fill-rule="evenodd" clip-rule="evenodd" d="M50.7284 137.743C51.4154 142.806 51.7029 148.42 52.2022 153.308C52.293 154.216 52.175 154.243 52.9467 154.821C54.4599 155.968 56.4332 156.086 58.6061 155.332C59.4687 155.03 59.3385 155.117 59.6079 154.252C61.0727 149.476 61.6689 144.041 61.6295 138.433C61.5236 125.44 49.2212 126.63 50.7344 137.74L50.7284 137.743Z" fill="#FCDCD9"/>
<path fill-rule="evenodd" clip-rule="evenodd" d="M51.1097 140.973C51.5939 140.973 52.0812 140.973 52.5533 141.006C53.5883 141.064 54.6264 141.142 55.6645 141.127C57.661 141.059 59.6493 140.837 61.6114 140.461C61.6255 139.792 61.6316 139.117 61.6295 138.437C61.5236 125.444 49.2212 126.634 50.7344 137.744C50.8736 138.8 50.9856 139.883 51.1097 140.973Z" fill="#E2B1AF"/>
<path fill-rule="evenodd" clip-rule="evenodd" d="M51.838 99.4484C49.8617 110.949 46.2361 124.516 46 135.729C58.2146 138.15 71.3281 138.429 82.883 133.399C82.0447 122.455 79.9383 109.617 77.1691 100.538C75.4078 94.7878 70.1932 90.7747 64.6276 89.8002C57.8575 88.5896 54.2379 92.2032 52.6006 97.793L51.838 99.4484Z" fill="#F06389"/>
<path fill-rule="evenodd" clip-rule="evenodd" d="M52.4981 97.5286C52.1954 99.0418 51.92 100.603 51.6719 102.186C56.6435 100.321 61.9149 99.3838 67.2247 99.4201C70.9051 99.4101 74.573 99.8492 78.147 100.728C77.8746 99.8045 77.5871 98.9117 77.2754 98.025C75.7138 93.5912 71.0924 90.5073 66.1563 89.7568C60.158 88.8337 53.748 91.2427 52.4981 97.5286Z" fill="#D63466"/>
<path fill-rule="evenodd" clip-rule="evenodd" d="M46.0272 134.294C46.0272 134.7 46.0061 135.096 46 135.484C58.2146 137.944 68.6982 138.28 83.0404 134.845C82.2021 123.762 80.4407 109.12 77.6685 99.9353C76.7303 96.812 74.2971 94.1245 71.8517 92.2148C73.5345 93.9406 74.7798 96.044 75.4834 98.3494C78.2526 107.519 80.356 122.279 81.1943 133.359C69.6364 136.171 57.6759 136.264 46.0182 134.294H46.0272Z" fill="#F79FBA"/>
<path fill-rule="evenodd" clip-rule="evenodd" d="M51.4536 98.9171C52.4009 95.6849 53.9232 92.2862 56.7983 90.2888C60.1939 87.9312 64.7971 88.0341 68.5287 89.4777C69.112 89.6996 69.6811 89.9573 70.2326 90.2494C74.0994 92.3003 77.0073 95.7863 78.3313 99.9582C81.3396 109.552 82.7862 123.846 83.7032 135.428C67.303 138.942 58.5839 138.996 45.307 136.433C45.0437 136.381 45.6641 130.286 45.7246 129.69C46.6719 120.308 48.2123 110.965 50.6456 101.862C50.9028 100.905 51.1631 99.9098 51.4536 98.9171ZM52.3616 100.43C53.4329 96.5959 55.0853 92.2741 59.0046 90.5884C63.7076 88.5637 69.5789 90.6792 73.2287 94.0415C75.1945 95.8672 76.6488 98.1749 77.4476 100.736C80.2803 109.761 81.5121 123.552 82.3746 134.459C69.7998 137.183 59.168 137.788 46.6779 135.367C46.2936 135.292 47.0744 129.841 47.1228 129.36C47.5617 125.102 48.4151 118.677 49.4955 113.063C50.7939 106.289 52.3071 100.633 52.3646 100.427L52.3616 100.43Z" fill="#BC2654"/>
<path fill-rule="evenodd" clip-rule="evenodd" d="M70.8008 110.672L71.3092 126.246L70.2469 127.547L65.2896 127.702C62.7747 122.768 60.4474 119.107 57.5723 116.57L58.6436 114.543L66.8694 114.304L70.8008 110.672Z" fill="#D63466"/>
<path fill-rule="evenodd" clip-rule="evenodd" d="M68.8729 116.928C67.5564 114.541 66.0129 112.449 64.2879 111.039L59.4062 114.586C62.4145 117.407 64.8357 121.417 66.7756 125.881L71.0126 125.741C73.2416 121.633 74.998 117.286 76.2483 112.782L71.1609 111.287C70.6885 113.272 69.9181 115.174 68.8759 116.928H68.8729Z" fill="#FEFEFE"/>
<path d="M66.4193 126.431L66.274 126.099C64.1555 121.256 61.7344 117.513 59.0288 114.979L58.5566 114.535L64.3068 110.367L64.6276 110.627C66.1136 111.838 67.5391 113.593 68.8646 115.836C69.6641 114.371 70.2597 112.804 70.6351 111.178L70.7531 110.612L76.8998 112.428L76.7636 112.934C75.6075 117.213 73.9309 121.368 71.4825 126.005L71.3402 126.28L66.4193 126.431ZM60.2242 114.647C62.7846 117.201 65.0967 120.793 67.1093 125.339L70.6684 125.221C72.7301 121.383 74.3758 117.336 75.5772 113.148L71.5642 111.962C71.0622 113.796 70.3193 115.556 69.3549 117.195L68.8828 118.03L68.4076 117.186C67.1063 114.825 65.7141 112.988 64.2614 111.717L60.2242 114.647Z" fill="#A81A4D"/>
<path fill-rule="evenodd" clip-rule="evenodd" d="M71.7033 98.117C64.2522 103.156 59.2677 88.5444 66.9306 89.4765C75.2775 90.4904 74.7842 96.0317 71.7033 98.117Z" fill="#FDDCD9"/>
<path fill-rule="evenodd" clip-rule="evenodd" d="M72.4918 92.1614L74.4136 93.3084C75.4093 99.0253 70.9392 102.578 65.9033 100.539C61.3818 98.7075 61.1457 93.6171 61.866 89.4648L65.0922 89.5042C63.9936 92.5578 64.1842 98.3141 68.7239 98.3081C72.1014 98.3081 72.631 94.6763 72.5009 92.1644L72.4918 92.1614Z" fill="#FEFEFE"/>
<path d="M68.7571 101.578C67.7175 101.568 66.6896 101.356 65.7307 100.954C60.8491 98.9781 60.6887 93.5699 61.415 89.3813L61.4816 89L65.7186 89.0514L65.5037 89.6567C64.7804 91.6663 64.6805 94.7441 65.9123 96.4964C66.2232 96.9396 66.6414 97.2967 67.1278 97.5343C67.6142 97.7719 68.1529 97.8824 68.6936 97.8553C69.0863 97.8725 69.4783 97.8061 69.8435 97.6605C70.2087 97.515 70.5388 97.2936 70.8121 97.0109C71.9984 95.758 72.065 93.4519 72.0015 92.1899L71.9561 91.3424L74.7888 93.0282L74.8251 93.234C75.3305 96.1454 74.5225 98.6997 72.6098 100.24C71.517 101.115 70.1568 101.587 68.7571 101.578ZM62.2503 89.917C61.645 93.7152 61.8962 98.4213 66.0727 100.113C68.3062 101.021 70.4943 100.806 72.0771 99.5289C73.6599 98.2518 74.3772 96.0788 73.9989 93.5881L72.9608 92.9707C72.9457 94.4173 72.6794 96.3935 71.5082 97.6314C71.1483 98.0048 70.7139 98.2983 70.2331 98.4928C69.7524 98.6873 69.2361 98.7784 68.7178 98.7602C68.0318 98.7867 67.35 98.6411 66.7347 98.3366C66.1194 98.0322 65.5901 97.5785 65.195 97.017C63.8906 95.1618 63.8513 92.1747 64.4808 89.9473L62.2503 89.917Z" fill="#C41C58"/>
<path fill-rule="evenodd" clip-rule="evenodd" d="M54.493 119.602C53.4126 117.786 51.9387 113.749 52.6288 110.728C53.3793 107.445 55.3889 107.293 56.9263 103.292C58.4637 99.2914 55.7974 96.2801 53.2371 96.5434C50.3317 96.846 47.0359 100.063 45.0446 104.176C41.4794 111.545 44.7177 117.946 49.2271 123.173C51.0853 125.328 56.206 122.471 54.493 119.602Z" fill="#FDDCD9"/>
<path fill-rule="evenodd" clip-rule="evenodd" d="M54.4939 119.605C52.2392 115.828 52.0727 110.314 54.7209 107.042C59.2968 101.358 56.6336 97.4997 54.4182 96.6523C55.6802 97.1396 55.9617 99.4427 55.9314 100.523C55.8545 102.209 55.3015 103.839 54.3365 105.223C53.1501 106.972 52.0455 108.964 51.6521 111.061C51.2563 113.123 51.445 115.254 52.1968 117.214C52.3414 117.585 52.5092 117.947 52.6992 118.297C52.8233 118.53 52.9534 118.76 53.0866 118.987C53.1229 119.045 53.1562 119.105 53.1925 119.166C54.3153 121.054 52.3118 123.403 50.4082 123.869C52.6145 124.377 55.9223 121.996 54.4939 119.605Z" fill="#FEFEFE"/>
<path fill-rule="evenodd" clip-rule="evenodd" d="M53.2035 123.301C55.1858 121.978 55.1646 120.105 53.603 117.805C51.3992 118.437 49.3814 119.594 47.7227 121.176C49.0664 123.915 50.8459 124.808 53.2035 123.295V123.301Z" fill="#511B12"/>
<path d="M55.6302 106.459C56.4412 105.094 57.2796 103.735 57.5701 102.146C57.5913 102.037 57.6064 101.929 57.6216 101.817C57.6522 101.583 57.6694 101.347 57.673 101.111C57.7063 99.4317 57.0496 97.3828 55.4335 96.602C51.5173 94.7075 47.8311 98.6811 45.9275 101.671C43.5699 105.376 42.5984 110.145 43.6062 114.434C43.961 115.751 44.4881 117.016 45.1739 118.196C46.2063 120.094 47.4445 121.873 48.8661 123.501C49.6651 124.424 50.9211 124.593 52.1195 124.276C52.6746 124.128 53.1999 123.885 53.6721 123.558C54.1473 123.242 54.5513 122.829 54.8584 122.348C55.1616 121.908 55.329 121.39 55.3398 120.856C55.3505 120.322 55.2042 119.797 54.919 119.346C53.8734 117.62 53.2984 115.651 53.2514 113.635C53.2242 111.501 53.9566 109.513 54.9523 107.651C55.158 107.255 55.3941 106.856 55.6302 106.459ZM54.011 121.83C53.7709 122.194 53.4625 122.507 53.1031 122.753C52.7199 123.016 52.2953 123.212 51.8471 123.334C50.9907 123.561 50.11 123.468 49.5925 122.862C49.1627 122.366 48.7501 121.855 48.3546 121.331C49.0247 120.698 49.7638 120.143 50.5579 119.675C51.436 119.163 52.36 118.733 53.318 118.392C53.5313 118.898 53.78 119.389 54.0625 119.86C54.2486 120.157 54.343 120.502 54.3338 120.853C54.3247 121.203 54.2124 121.543 54.011 121.83ZM52.9699 117.484C51.9616 117.843 50.9898 118.297 50.0676 118.84C49.2471 119.321 48.481 119.889 47.7827 120.535C46.8818 119.257 46.0891 117.907 45.413 116.498C43.5971 112.727 44.1086 108.245 45.5976 104.459C46.3097 102.624 47.3726 100.947 48.7269 99.5195C49.995 98.1969 51.9833 96.8259 53.9142 97.0711C56.2415 97.3737 56.989 100.252 56.5441 102.168C55.7966 105.4 53.7962 106.299 52.6612 110.79C52.2103 112.585 52.2708 115.511 52.9699 117.484Z" fill="#BA625D"/>
<path d="M54.9196 119.354C54.5269 118.686 54.1976 117.983 53.936 117.254C53.7454 117.299 53.5517 117.339 53.361 117.387L52.9827 117.484H52.9585C51.958 117.841 50.9933 118.292 50.0773 118.831C49.2847 119.295 48.5432 119.842 47.865 120.462C47.8424 120.495 47.8171 120.527 47.7894 120.556C47.7016 120.644 47.6199 120.734 47.5382 120.825C47.3989 120.979 47.2628 121.128 47.1387 121.306C47.6774 122.06 48.2584 122.795 48.8668 123.494C49.6657 124.417 50.9217 124.587 52.1202 124.269C52.6753 124.122 53.2006 123.879 53.6727 123.552C54.1479 123.235 54.552 122.823 54.8591 122.341C55.1591 121.903 55.3247 121.388 55.3354 120.857C55.3462 120.326 55.2017 119.804 54.9196 119.354ZM54.0117 121.83C53.7715 122.193 53.4632 122.507 53.1038 122.753C52.7205 123.015 52.296 123.212 51.8478 123.334C50.9913 123.561 50.1106 123.467 49.5931 122.862C49.1633 122.366 48.7507 121.855 48.3553 121.33C49.0254 120.698 49.7644 120.143 50.5585 119.675C51.4366 119.162 52.3607 118.733 53.3186 118.392C53.5319 118.898 53.7807 119.389 54.0631 119.86C54.2492 120.157 54.3436 120.502 54.3345 120.853C54.3253 121.203 54.213 121.543 54.0117 121.83Z" fill="#1E0604"/>
<path fill-rule="evenodd" clip-rule="evenodd" d="M83.5117 34.3139C90.3 27.0747 93.2417 19.433 88.7747 11.0105C87.7306 9.02815 89.2014 8.36234 90.642 8.58932C92.0825 8.8163 93.4868 9.94819 94.8124 11.4735C102.515 20.3409 101.928 32.0078 92.9511 42.5851C87.098 40.9599 84.3803 38.0213 83.5117 34.3109V34.3139Z" fill="#EADDDC"/>
<path fill-rule="evenodd" clip-rule="evenodd" d="M83.5117 34.3139C90.3 27.0747 93.2417 19.433 88.7747 11.0105C87.7306 9.02815 89.2014 8.36234 90.642 8.58932C90.9352 8.63829 91.2223 8.71844 91.4984 8.82841C90.536 9.0221 89.9217 9.76963 90.6995 11.2495C95.1665 19.6812 92.2127 27.3229 85.4365 34.553C86.2143 37.8821 88.4932 40.6059 93.1993 42.2946L92.9511 42.5972C87.098 40.9721 84.3803 38.0334 83.5117 34.323V34.3139Z" fill="#FFF8F8"/>
<path fill-rule="evenodd" clip-rule="evenodd" d="M83.5117 34.3137C84.3803 38.0241 87.098 40.9719 92.9511 42.588C95.0863 40.1227 96.8445 37.3548 98.1687 34.3743C94.7882 31.5355 91.3986 29.3655 87.9969 28.5242C86.7088 30.6059 85.2055 32.5464 83.5117 34.3137ZM90.0579 24.1359C94.1405 24.5868 97.5634 25.6249 100.045 27.465C100.347 24.8229 100.116 22.1471 99.3641 19.5963C96.7009 18.6308 93.8348 18.2011 90.9143 18.7398C90.936 20.5666 90.6485 22.3838 90.0639 24.1147L90.0579 24.1359ZM90.0579 13.9641C91.4803 13.1469 93.4717 12.805 95.9231 12.8534C95.569 12.3903 95.2028 11.9273 94.8124 11.4764C93.4868 9.96315 92.0886 8.82824 90.642 8.59218C89.1953 8.35612 87.7306 9.02496 88.7747 11.0133C89.2857 11.9607 89.715 12.9498 90.0579 13.9701V13.9641Z" fill="#B79C9C"/>
<path fill-rule="evenodd" clip-rule="evenodd" d="M83.5121 34.3129C84.3807 38.0233 87.0984 40.971 92.9515 42.5871L93.1997 42.2845C88.4906 40.6139 86.2147 37.8901 85.4369 34.561C87.0408 32.872 88.477 31.0314 89.7254 29.0651C89.1565 28.8501 88.5755 28.6693 87.9852 28.5233C86.6971 30.605 85.1938 32.5455 83.5 34.3129H83.5121ZM90.0583 24.135C90.715 24.2107 91.3505 24.2984 91.971 24.4013C92.6157 22.5171 92.9021 20.5288 92.8153 18.5392C92.1755 18.5694 91.5385 18.6432 90.9087 18.7601C90.9304 20.5869 90.6428 22.4042 90.0583 24.135ZM90.0583 13.9632C90.5593 13.6785 91.0941 13.4579 91.6502 13.3065C91.3757 12.5988 91.0583 11.9085 90.6999 11.2394C89.9221 9.77161 90.5364 9.02408 91.4988 8.81829C91.2193 8.71182 90.9291 8.63573 90.6333 8.5913C89.1927 8.35827 87.7219 9.02408 88.766 11.0124C89.277 11.9598 89.7063 12.949 90.0492 13.9693L90.0583 13.9632Z" fill="#FFF8F8"/>
<path d="M100.532 26.468C100.862 20.9992 99.0457 15.7454 95.1144 11.2148C94.4872 10.4726 93.7764 9.80536 92.9959 9.22645C92.3231 8.70548 91.5355 8.3527 90.6989 8.19747C90.0788 8.07514 89.436 8.15138 88.8618 8.41537C88.6516 8.5234 88.4677 8.67631 88.3231 8.86328C88.1736 9.05878 88.0758 9.28881 88.0386 9.53212C87.98 10.1128 88.114 10.6966 88.42 11.1936C90.596 15.3065 90.9682 19.2288 89.9725 22.9967C88.9768 26.7646 86.5678 30.4689 83.2175 34.031L83.0723 34.1914L83.1237 34.4002C83.5589 36.3745 84.5951 38.1655 86.0896 39.527C87.6512 40.9736 89.8515 42.1448 92.8446 42.9741L93.0928 43.0407L93.2592 42.8409C97.7867 37.5114 100.211 31.8853 100.532 26.468ZM99.6843 26.9673C97.4387 25.209 94.5212 24.1497 90.6323 23.6655C90.6777 23.5112 90.7231 23.3629 90.7654 23.2025C91.1169 21.8718 91.299 20.5021 91.3072 19.1259C94.3336 18.678 96.9787 19.0956 99.1456 20.3697C99.6558 22.3444 99.8529 24.3868 99.7297 26.4226C99.7115 26.6042 99.7115 26.7858 99.6843 26.9673ZM98.7764 19.135C96.6246 18.112 94.1096 17.7973 91.2739 18.1998C91.2022 16.883 90.9694 15.58 90.5808 14.3199C92.0002 13.6087 93.7555 13.3636 95.9376 13.5815C97.1577 15.2775 98.1175 17.1462 98.7855 19.1259L98.7764 19.135ZM88.8376 9.66528C88.8547 9.55446 88.9006 9.45008 88.9708 9.36264C89.0427 9.26884 89.1348 9.19232 89.2401 9.13868C89.6601 8.95604 90.1265 8.90845 90.5748 9.00249C91.2863 9.14287 91.9555 9.44641 92.5298 9.88924C93.2569 10.4329 93.919 11.0584 94.5031 11.7535C94.7543 12.0562 94.9933 12.3346 95.2264 12.6281C93.2895 12.5283 91.6673 12.8067 90.3024 13.4604C89.9709 12.5509 89.5754 11.666 89.1191 10.8123C88.907 10.4691 88.8085 10.0677 88.8376 9.66528ZM92.8143 42.1267C90.0905 41.3398 88.0689 40.2594 86.6374 38.9338C85.3172 37.729 84.384 36.1597 83.956 34.4244C85.5721 32.7152 87.0147 30.8498 88.2626 28.8558C92.4481 30.4054 95.3959 32.2908 97.5476 34.7664C96.3025 37.4185 94.7109 39.8935 92.8143 42.1267ZM97.9592 33.8525C95.7621 31.4313 92.8143 29.5882 88.7438 28.0629C89.3751 26.9429 89.9058 25.7691 90.3296 24.5553C94.4092 25.0304 97.357 26.1442 99.5542 28.0447C99.2694 30.0415 98.7293 31.9933 97.9471 33.8525H97.9592Z" fill="#7F5757"/>
<path fill-rule="evenodd" clip-rule="evenodd" d="M48.564 37.2158C38.8492 30.0735 33.6377 21.5844 37.1059 10.5167C37.9231 7.92915 36.0225 7.44492 34.3398 8.04112C32.6571 8.63733 31.2468 10.3019 30.0029 12.4143C22.7607 24.7288 26.0413 38.5444 39.1155 49.1974C45.7524 45.9683 48.3551 41.8523 48.567 37.2158H48.564Z" fill="#EADDDC"/>
<path fill-rule="evenodd" clip-rule="evenodd" d="M48.5638 37.2158C38.849 30.0735 33.6375 21.5844 37.1058 10.5167C37.9229 7.92915 36.0223 7.44492 34.3396 8.04112C33.8356 8.23334 33.364 8.50179 32.9414 8.83707C34.3275 8.66154 35.529 9.35157 34.8511 11.5185C31.3828 22.577 36.5943 31.0571 46.3152 38.2085C46.1185 42.3214 44.0514 46.0227 38.9489 49.0643C39.0064 49.1067 39.0608 49.1551 39.1153 49.1974C45.7523 45.9683 48.355 41.8523 48.5668 37.2158H48.5638Z" fill="#FFF8F8"/>
<path fill-rule="evenodd" clip-rule="evenodd" d="M48.5633 37.2171C48.3514 41.8536 45.7487 45.9695 39.1117 49.1987C36.0159 46.7248 33.3013 43.8083 31.0554 40.5432C34.4692 36.3788 38.0404 33.0497 41.9263 31.2944C43.9294 33.4912 46.1535 35.4759 48.5633 37.2171ZM38.4853 26.5036C33.7035 27.9502 29.8509 29.9446 27.2875 32.7168C26.349 29.6238 26.0332 26.3753 26.3584 23.1594C29.3424 21.4071 32.6624 20.2661 36.282 20.257C36.6584 22.4487 37.4033 24.5608 38.4853 26.5036ZM36.2366 14.3374C34.3572 13.6685 31.8967 13.7079 28.9732 14.3101C29.2759 13.6776 29.6239 13.042 29.9931 12.4156C31.2461 10.3031 32.6776 8.64163 34.3391 8.0424C36.0006 7.44317 37.9224 7.93042 37.1082 10.518C36.7127 11.7649 36.4212 13.0424 36.2366 14.3374Z" fill="#B79C9C"/>
<path fill-rule="evenodd" clip-rule="evenodd" d="M48.5638 37.2174C48.352 41.8539 45.7492 45.9699 39.1123 49.199L38.9458 49.0659C44.0484 46.0395 46.1154 42.323 46.3121 38.2101C43.9471 36.508 41.7609 34.5702 39.7872 32.4266C40.4671 32.0021 41.1749 31.6239 41.9057 31.2947C43.9155 33.4927 46.1467 35.4774 48.5638 37.2174ZM38.4858 26.5039C37.6747 26.7521 36.8818 27.0154 36.1222 27.2908C34.9595 25.1626 34.2099 22.8337 33.9129 20.4268C34.6993 20.3195 35.4919 20.2629 36.2856 20.2574C36.661 22.4488 37.4049 24.5609 38.4858 26.5039ZM36.2372 14.3377C35.5858 14.1155 34.9101 13.9722 34.2246 13.911C34.3911 13.1241 34.5999 12.3221 34.8511 11.511C35.529 9.34408 34.3396 8.65406 32.9414 8.83867C33.364 8.50338 33.8356 8.23494 34.3396 8.04272C36.0163 7.43743 37.9168 7.91864 37.1027 10.5183C36.7072 11.7652 36.4157 13.0427 36.2311 14.3377H36.2372Z" fill="#FFF8F8"/>
<path d="M48.8661 36.8164C44.0632 33.2967 40.3921 29.4501 38.3342 25.1253C36.2762 20.8006 35.8797 16.0672 37.5775 10.653C37.8263 9.99417 37.8581 9.27314 37.6683 8.595C37.5702 8.30876 37.4004 8.05243 37.175 7.8505C36.958 7.66299 36.703 7.52465 36.4275 7.44496C35.6834 7.25152 34.8972 7.29921 34.1819 7.58115C33.2195 7.95762 32.3576 8.55227 31.6639 9.31832C30.8638 10.186 30.1643 11.1414 29.5787 12.1662C27.553 15.5326 26.2858 19.3003 25.8653 23.2066L25.8078 23.255L25.8562 23.3095C25.5904 26.0915 25.7982 28.8984 26.4706 31.611C26.5705 32.0195 26.6855 32.4281 26.8065 32.8215C26.8079 32.8285 26.8079 32.8357 26.8065 32.8427L26.8368 32.8639C28.6526 38.8169 32.6505 44.5429 38.8093 49.5637L39.0575 49.7634L39.3359 49.6272C42.7315 47.9718 45.0861 46.0833 46.6477 44.0102C48.1335 42.0513 48.979 39.6819 49.0689 37.225L49.084 36.9617L48.8661 36.8164ZM40.8824 30.8241C36.3851 33.5479 33.2619 36.4199 31.1525 39.7823C29.8478 37.7883 28.7976 35.639 28.0262 33.3844C30.2112 30.6153 33.4737 28.6239 38.2918 27.1439C39.0485 28.4425 39.9152 29.6737 40.8824 30.8241ZM30.4261 12.6655C30.9697 11.7047 31.6228 10.81 32.3721 9.99926C32.9613 9.34348 33.6934 8.83195 34.5118 8.50421C35.0321 8.28853 35.6073 8.24298 36.1551 8.37407C36.2938 8.41223 36.4213 8.48276 36.5274 8.57987C36.6302 8.67392 36.7091 8.79117 36.7574 8.92186C36.8785 9.40369 36.8424 9.91162 36.6545 10.3715C36.3118 11.4545 36.0438 12.5597 35.8525 13.6794C34.0881 13.2042 32.0997 13.2285 29.8208 13.7581C30.0085 13.3919 30.2112 13.0287 30.4261 12.6655ZM29.0612 15.2864C31.6548 14.5298 33.8187 14.433 35.6679 14.9838C35.4965 16.516 35.5056 18.063 35.6951 19.593C32.2359 19.7322 29.3094 20.6402 26.9639 22.3319C27.3172 19.894 28.0237 17.5206 29.0612 15.2864ZM27.433 31.3749C26.8401 29.0022 26.6196 26.5519 26.7793 24.1115C29.0794 22.0807 32.1451 20.9852 35.9009 20.852C36.2205 22.4711 36.741 24.0439 37.4504 25.5339C37.5231 25.6852 37.5987 25.8365 37.6744 25.9788C33.1348 27.4103 29.8753 29.3078 27.5782 31.9015C27.5298 31.732 27.4784 31.5534 27.433 31.3749ZM45.8609 43.4382C44.4415 45.3328 42.2776 47.0699 39.1816 48.6194C36.4442 46.393 34.0122 43.8155 31.9484 40.9535C33.9731 37.5094 37.0933 34.598 41.7359 31.8137C43.6563 33.8942 45.7758 35.7816 48.0641 37.4489C47.9394 39.6196 47.1725 41.7042 45.8609 43.4382Z" fill="#7F5757"/>
<path fill-rule="evenodd" clip-rule="evenodd" d="M93.8976 87.4118C83.986 93.7431 70.4428 95.6164 54.1062 94.8356C-2.48795 92.1421 27.4736 29.5678 68.7873 30.5665C87.5512 31.0205 99.5418 43.2412 103.258 56.9963C106.248 68.079 104.771 80.4571 93.8976 87.4118Z" fill="#FDDCD9"/>
<path fill-rule="evenodd" clip-rule="evenodd" d="M104.305 71.0703C100.398 71.373 97.2988 75.8127 97.2988 81.2694C97.2979 82.3382 97.4208 83.4035 97.665 84.4441C101.518 80.7125 103.585 76.0427 104.305 71.0703Z" fill="#FFC0E4"/>
<path fill-rule="evenodd" clip-rule="evenodd" d="M45.9276 93.9309C44.9864 82.2519 35.3896 75.8541 24.0254 78.2298C26.504 85.6687 33.3468 91.655 45.9276 93.9309Z" fill="#FFC0E4"/>
<path d="M93.633 87.0016C98.1225 84.2084 101.441 79.8761 102.969 74.8142C104.682 69.2456 104.368 63.0111 102.779 57.1248C100.787 49.6624 96.4025 43.0592 90.2979 38.3276C84.702 34.0362 77.4749 31.27 68.7739 31.0642C51.3448 30.6466 35.9584 41.6567 28.3833 54.6703C25.8653 58.9739 24.2099 63.5135 23.6409 67.9109C23.0719 72.3083 23.5804 76.5271 25.366 80.2829C28.9977 87.9247 37.9982 93.581 54.1321 94.3558C62.258 94.7402 69.697 94.4648 76.3279 93.3087C82.9588 92.1526 88.7362 90.1279 93.633 87.0016ZM76.4943 94.265C69.7938 95.4362 62.2702 95.7086 54.0988 95.3182C37.5473 94.5253 28.2834 88.6449 24.4943 80.6885C22.618 76.7541 22.0883 72.3356 22.6785 67.7747C23.2686 63.2139 24.9604 58.5774 27.545 54.1558C35.2775 40.8971 50.9907 29.6418 68.8042 30.0746C77.7291 30.2925 85.1469 33.1434 90.8971 37.5468C97.1779 42.4056 101.689 49.1925 103.738 56.8645C105.369 62.9173 105.69 69.3424 103.917 75.0987C102.318 80.3786 98.8535 84.8967 94.1686 87.8097C89.1569 91.0086 83.2312 93.0908 76.5064 94.262L76.4943 94.265Z" fill="#EDBAB7"/>
<path fill-rule="evenodd" clip-rule="evenodd" d="M59.0318 47.191C64.4794 48.2593 70.0571 47.0185 73.5345 45.8775C73.25 47.1425 72.8051 49.5909 69.5547 52.3783C83.1222 53.725 94.1232 48.571 93.3121 44.1131C91.7747 35.6391 66.038 34.5224 58.1814 39.6915C54.3651 42.2004 52.7853 45.9713 59.0318 47.191Z" fill="#F16188"/>
<path fill-rule="evenodd" clip-rule="evenodd" d="M57.7638 48.0499C63.747 49.2605 67.9295 49.0577 71.7549 47.6776C70.8288 49.5631 69.2491 51.4546 65.8927 53.3401C81.0067 56.1547 95.8725 50.3137 94.8768 44.0671C93.2819 34.1374 64.6035 32.4608 56.3414 39.3035C54.2713 41.0195 53.4118 42.9352 53.6176 44.7299C53.778 46.1463 54.9643 47.487 57.7577 48.059L57.7638 48.0499ZM59.0318 47.1904C64.4794 48.2587 70.0571 47.0179 73.5345 45.8769C73.25 47.142 72.8051 49.5903 69.5547 52.3777C83.1222 53.7244 94.1232 48.5704 93.3121 44.1125C91.7747 35.6385 66.038 34.5218 58.1814 39.6909C54.3651 42.1998 52.7853 45.9707 59.0318 47.1904Z" fill="#DD3E70"/>
<path fill-rule="evenodd" clip-rule="evenodd" d="M49.8923 56.253C51.5417 54.2374 53.9356 54.2162 55.8907 55.345C57.0831 56.0381 56.2448 57.3728 54.9828 56.719C53.518 55.9594 52.026 56.0441 50.5097 56.8734C49.6835 57.3183 49.2992 56.9672 49.8802 56.2409L49.8923 56.253Z" fill="#3F0F09"/>
<path fill-rule="evenodd" clip-rule="evenodd" d="M92.9341 55.5724C91.6207 53.9563 89.7019 53.9442 88.1342 54.8551C87.1839 55.4029 87.8528 56.4773 88.8515 55.9537C90.0227 55.3484 91.2212 55.415 92.4378 56.0778C93.0976 56.4379 93.4123 56.1504 92.9341 55.5724Z" fill="#3F0F09"/>
<path fill-rule="evenodd" clip-rule="evenodd" d="M50.9862 78.2201C51.6983 78.8559 52.6163 79.2128 53.5708 79.2248C54.1634 79.2212 54.7481 79.088 55.2838 78.8344C57.7049 77.7177 59.4451 74.2948 59.4451 70.2636C59.4801 68.1284 58.9374 66.0235 57.8744 64.1714C56.2008 61.4264 53.4588 60.8 51.6006 61.375C50.3507 61.7533 49.358 62.6763 48.6377 63.8899C46.4163 67.6336 47.3545 75.1543 50.9862 78.2201Z" fill="#FEFEFE"/>
<path fill-rule="evenodd" clip-rule="evenodd" d="M59.3629 69.9946C59.2235 68.1129 58.709 66.2782 57.8496 64.5985C56.176 61.4631 53.4341 60.7519 51.5759 61.4056C50.326 61.8384 49.3333 62.8915 48.613 64.2776C47.3752 66.6716 47.5235 70.3819 48.1772 73.829C47.8988 70.9328 47.8473 68.0577 48.8733 66.0753C49.5875 64.6953 50.5893 63.6542 51.8301 63.2033C53.6883 62.5556 56.4363 63.2638 58.1039 66.4022C58.693 67.5325 59.1141 68.7427 59.3538 69.9946H59.3629Z" fill="#CBEBEF"/>
<path fill-rule="evenodd" clip-rule="evenodd" d="M50.8534 78.5198C47.0189 75.1635 46.0323 66.9407 48.3687 62.8399C49.1253 61.5173 50.1846 60.5065 51.5011 60.0889C53.4713 59.4685 56.3736 60.1464 58.1592 63.1546C59.1882 64.9009 59.8207 67.2464 59.8207 69.8128C59.8207 74.2283 57.9625 77.969 55.4112 79.1947C54.8457 79.4713 54.2249 79.6161 53.5954 79.6184C52.5835 79.6013 51.6135 79.2111 50.8716 78.5228L50.8534 78.5198ZM51.1561 78.1082C47.7392 75.0818 46.8646 67.7064 48.9438 64.0263C49.6126 62.8338 50.5538 61.9289 51.7311 61.5537C53.4834 60.9907 56.068 61.6051 57.6447 64.3047C58.65 66.1386 59.1601 68.2029 59.1246 70.294C59.1246 74.2646 57.4692 77.6209 55.1903 78.7165C54.6889 78.9622 54.1386 79.0916 53.5802 79.0948C52.6782 79.0805 51.8142 78.7285 51.1591 78.1082H51.1561Z" fill="#3F0F09"/>
<path fill-rule="evenodd" clip-rule="evenodd" d="M53.25 65.2109C52.9038 65.2169 52.5706 65.3444 52.3088 65.5711C52.5657 65.72 52.7776 65.9355 52.922 66.195C53.0664 66.4545 53.1379 66.7482 53.129 67.0449C53.129 67.9317 52.5237 68.655 51.7489 68.655C51.4755 68.6539 51.2098 68.5636 50.9923 68.3978C50.8978 68.9981 50.8643 69.6065 50.8925 70.2136C50.9923 72.9677 52.2211 75.2042 53.6162 75.2042C55.0114 75.2042 56.0797 72.9677 55.9738 70.2136C55.8679 67.4596 54.6452 65.214 53.25 65.214V65.2109Z" fill="#3F0F09"/>
<path fill-rule="evenodd" clip-rule="evenodd" d="M54.3151 71.8614C54.0458 71.8281 53.7794 72.2185 53.7098 72.7299C53.6402 73.2414 53.7976 73.6863 54.0639 73.7196C54.3302 73.7529 54.5935 73.3715 54.6692 72.857C54.7449 72.3426 54.5784 71.8977 54.3151 71.8614Z" fill="#FEFEFE"/>
<path fill-rule="evenodd" clip-rule="evenodd" d="M50.318 61.6734L50.6781 61.3254C49.7237 60.6763 48.8875 59.8687 48.2055 58.9375C47.1705 57.6543 46.3897 58.7075 47.4459 59.794C48.2488 60.6297 49.2308 61.2723 50.318 61.6734Z" fill="#3F0F09"/>
<path fill-rule="evenodd" clip-rule="evenodd" d="M49.6094 62.3272L49.8787 61.9217C48.6023 61.4491 47.3998 60.7969 46.3076 59.9848C44.9971 58.983 44.4917 60.1936 45.7779 60.9895C46.9568 61.6809 48.2575 62.1392 49.6094 62.3393V62.3272Z" fill="#3F0F09"/>
<path fill-rule="evenodd" clip-rule="evenodd" d="M49.2829 63.2305L49.4282 62.7463C48.2785 62.6525 47.153 62.3649 46.0991 61.8958C44.5859 61.2906 44.4134 62.5949 45.8661 63.0156C46.9759 63.3408 48.1442 63.4142 49.286 63.2305H49.2829Z" fill="#3F0F09"/>
<path fill-rule="evenodd" clip-rule="evenodd" d="M89.3035 74.0204C89.8569 74.5616 90.5966 74.8703 91.3706 74.8829C91.8485 74.883 92.3196 74.7689 92.7446 74.55C94.6754 73.5906 96.0736 70.661 96.0736 67.1958C96.1076 65.3733 95.673 63.5726 94.8116 61.9661C93.4709 59.6085 91.2798 59.0729 89.7877 59.5662C88.792 59.89 87.99 60.6829 87.4211 61.721C85.6536 64.935 86.3921 71.4055 89.2975 74.0204H89.3035Z" fill="#FEFEFE"/>
<path fill-rule="evenodd" clip-rule="evenodd" d="M96.0209 66.4523C95.9098 64.9464 95.4981 63.478 94.8104 62.1336C93.4696 59.6217 91.2785 59.0527 89.7865 59.5763C88.7908 59.9243 87.9888 60.7687 87.4198 61.8734C86.4302 63.7891 86.2274 66.7913 86.751 69.5544C86.521 67.2362 86.8024 64.9089 87.6226 63.32C88.1976 62.2123 88.9936 61.3679 89.9953 61.0169C91.4813 60.4994 93.6785 61.0683 95.0192 63.5803C95.4902 64.4836 95.8257 65.4513 96.0149 66.4523H96.0209Z" fill="#CBEBEF"/>
<path fill-rule="evenodd" clip-rule="evenodd" d="M89.2115 74.2702C86.1366 71.4072 85.3497 64.3829 87.2231 60.8843C87.8284 59.7524 88.6728 58.8929 89.726 58.5388C91.3027 58.0001 93.627 58.5842 95.0464 61.1506C95.9548 62.9099 96.4134 64.8667 96.3811 66.8464C96.3811 70.6143 94.889 73.8071 92.8492 74.8482C92.4003 75.0811 91.9023 75.2035 91.3965 75.2053C90.5738 75.1918 89.7892 74.856 89.2115 74.2702ZM89.4596 73.9191C86.7359 71.3436 86.0246 65.0366 87.6861 61.8951C88.2218 60.8783 88.9815 60.1065 89.9166 59.7766C91.3239 59.3015 93.391 59.822 94.653 62.1282C95.4648 63.711 95.8714 65.4704 95.8363 67.2489C95.8363 70.6354 94.5168 73.5015 92.6979 74.4427C92.1756 74.7225 91.5759 74.8231 90.9909 74.729C90.4059 74.635 89.8679 74.3515 89.4596 73.9221V73.9191Z" fill="#3F0F09"/>
<path fill-rule="evenodd" clip-rule="evenodd" d="M90.8562 62.625C90.5429 62.6322 90.242 62.7489 90.0058 62.9549C90.238 63.0862 90.4299 63.2786 90.5606 63.5112C90.6913 63.7438 90.7559 64.0077 90.7473 64.2744C90.7473 65.0734 90.1904 65.7271 89.5034 65.7271C89.2587 65.7243 89.0216 65.6413 88.8285 65.491C88.7413 66.0301 88.7089 66.5766 88.7317 67.1223C88.8285 69.6009 89.9422 71.6165 91.1982 71.6165C92.4542 71.6165 93.4166 69.6009 93.3167 67.1223C93.2168 64.6436 92.1213 62.625 90.8562 62.625Z" fill="#3F0F09"/>
<path fill-rule="evenodd" clip-rule="evenodd" d="M91.8008 68.6113C91.5647 68.581 91.3226 68.9139 91.256 69.3921C91.1894 69.8703 91.3407 70.2486 91.5768 70.2819C91.8129 70.3152 92.055 69.9792 92.1216 69.5011C92.1881 69.0229 92.0338 68.6446 91.8008 68.6113Z" fill="#FEFEFE"/>
<path fill-rule="evenodd" clip-rule="evenodd" d="M93.0048 59.9028L92.6719 59.6939C93.3074 59.0248 93.8288 58.256 94.2153 57.4181C94.8206 56.2408 95.6045 56.9459 94.9477 57.9598C94.4599 58.7496 93.7946 59.4149 93.0048 59.9028Z" fill="#3F0F09"/>
<path fill-rule="evenodd" clip-rule="evenodd" d="M93.6582 60.3024L93.3828 60.0269C94.3061 59.443 95.1408 58.7296 95.8615 57.9085C96.727 56.9097 97.3202 57.7783 96.4456 58.6106C95.6302 59.3406 94.6846 59.9104 93.6582 60.2902V60.3024Z" fill="#3F0F09"/>
<path fill-rule="evenodd" clip-rule="evenodd" d="M94.0655 60.9573L93.8809 60.6063C94.7641 60.3415 95.5976 59.9324 96.3474 59.3957C97.452 58.6694 97.788 59.6681 96.7136 60.231C95.8962 60.6678 94.9913 60.9159 94.0655 60.9573Z" fill="#3F0F09"/>
<path d="M86.2793 30.5625C89.9715 32.6174 93.6214 34.6512 96.7356 37.0148" stroke="#141515" stroke-width="4.25" stroke-miterlimit="10"/>
<path fill-rule="evenodd" clip-rule="evenodd" d="M103.978 56.7708C103.787 56.7711 103.597 56.7822 103.409 56.8041C103.993 59.1807 104.283 61.6202 104.271 64.0675C104.288 66.9364 103.88 69.792 103.061 72.5415C103.36 72.5959 103.664 72.6243 103.968 72.6262C107.41 72.6262 110.197 69.0732 110.197 64.697C110.197 60.3208 107.41 56.7617 103.968 56.7617L103.978 56.7708Z" fill="#CC8A43"/>
<path fill-rule="evenodd" clip-rule="evenodd" d="M103.977 56.7695C103.787 56.7698 103.597 56.7809 103.408 56.8028C103.584 57.4959 103.735 58.2162 103.859 58.9546C107.013 59.348 109.479 62.7286 109.479 66.8505C109.48 67.532 109.409 68.2117 109.267 68.8782C109.894 67.5767 110.215 66.1492 110.206 64.7048C110.206 60.3226 107.418 56.7695 103.977 56.7695Z" fill="#FFC17F"/>
<path d="M103.977 56.2812C105.853 56.2812 107.548 57.2406 108.765 58.7932C110.019 60.5085 110.696 62.5786 110.696 64.7038C110.696 66.829 110.019 68.8991 108.765 70.6144C107.554 72.1639 105.853 73.1263 103.977 73.1263C103.82 73.1263 103.656 73.1263 103.478 73.0991C103.299 73.0718 103.145 73.0597 102.981 73.0355L102.439 72.9296L102.603 72.406C103 71.1013 103.296 69.7677 103.487 68.4172C103.686 66.9791 103.787 65.5291 103.789 64.0773C103.792 62.8463 103.719 61.6163 103.571 60.3942C103.439 59.2266 103.229 58.069 102.945 56.9289L102.809 56.3842L103.363 56.3206C103.463 56.3064 103.564 56.2973 103.665 56.2934C103.783 56.2934 103.886 56.2934 103.968 56.2934L103.977 56.2812ZM104.552 60.2882C104.699 61.55 104.773 62.8192 104.773 64.0894C104.777 65.5867 104.676 67.0824 104.47 68.5655C104.301 69.7764 104.05 70.9745 103.72 72.1518H103.995C105.551 72.1518 106.976 71.3317 108.011 70.0121C109.126 68.4711 109.726 66.6178 109.726 64.7159C109.726 62.814 109.126 60.9607 108.011 59.4197C106.985 58.1092 105.59 57.3012 104.04 57.3012C104.263 58.2872 104.434 59.2843 104.552 60.2882Z" fill="#84420C"/>
<path fill-rule="evenodd" clip-rule="evenodd" d="M99.4511 49.1945C106.79 61.9751 108.21 75.5577 99.4117 90.7625L98.8034 90.248C98.3585 89.8757 98.2889 89.5731 98.5008 89.0374C103.525 75.8543 103.727 52.8535 88.4712 47.07C69.9707 40.0487 42.2093 43.8287 37.131 64.4689C34.6917 74.3865 34.619 84.6128 38.3082 95.2052C38.5503 95.8892 38.2114 96.2494 37.6394 96.5459L36.7133 97.0211L33.2965 93.7072C28.8355 80.6935 29.6073 67.9826 35.1123 55.5319C39.7034 44.7124 51.113 38.3599 72.1134 38.2812C83.1507 38.6172 92.7263 41.3077 99.4601 49.1764L99.4511 49.1945Z" fill="#591C11"/>
<path d="M36.5942 97.8146L32.7386 94.0618L32.6871 93.9166C28.2685 81.0422 28.8829 68.0407 34.503 55.2722C36.9241 49.5855 41.1762 45.2184 47.1595 42.304C53.4272 39.2473 61.8164 37.6826 72.0911 37.6523C84.9292 38.0397 93.7694 41.5867 99.9342 48.7745L100.004 48.8743C108.175 63.0985 108.175 76.9141 99.9645 91.0839L99.5801 91.7497L98.3696 90.7328C98.0679 90.5235 97.8511 90.2131 97.7584 89.8578C97.6657 89.5026 97.7032 89.1259 97.8641 88.7959C101.048 80.446 102.507 67.0843 98.188 57.4724C96.0211 52.6452 92.6648 49.3434 88.2008 47.6577C75.9165 42.997 60.7693 43.4843 50.5127 48.8683C43.8304 52.3759 39.4148 57.8235 37.7382 64.6238C35.1143 75.2859 35.4956 85.2217 38.9004 94.994C39.203 95.9019 38.9004 96.6161 37.9198 97.1125L36.5942 97.8146ZM33.8553 93.3506L36.8273 96.2409L37.3448 95.9746C37.8108 95.7324 37.7775 95.6416 37.6989 95.4177C34.2094 85.4063 33.819 75.2284 36.5034 64.3151C38.2709 57.1486 42.9104 51.4135 49.9286 47.7303C60.4939 42.1829 76.0618 41.6775 88.6668 46.4532C93.4516 48.269 97.05 51.7948 99.3622 56.9428C103.829 66.8906 102.343 80.6639 99.0596 89.2498C98.9506 89.5525 98.9597 89.5525 99.1867 89.7462L99.217 89.7734C106.783 76.2846 106.674 63.1257 98.9143 49.5674C93.0098 42.6913 84.4783 39.3139 72.079 38.9386C52.3831 38.9991 40.4741 44.5102 35.6863 55.7836C30.2175 68.2071 29.6002 80.8424 33.8553 93.3506Z" fill="#3F0F09"/>
<path fill-rule="evenodd" clip-rule="evenodd" d="M100.215 90.6186C108.365 81.1519 108.184 64.6337 105.218 53.1605C101.822 39.9502 93.6145 30.4049 80.4253 26.528C73.3586 24.4489 65.6775 24.3096 58.2326 25.5656C45.4368 27.7113 32.399 33.8671 24.5818 44.505C12.6274 60.769 15.7113 83.2432 35.8794 96.965C36.5936 97.4492 36.5997 97.1163 36.3364 96.4868C33.8364 90.6146 32.4903 84.316 32.3718 77.9348C32.1629 64.2221 36.5785 50.4761 49.7101 44.2477C57.7423 40.4375 69.4545 38.8637 79.817 40.6402C89.3472 42.2836 97.6487 46.3904 101.268 55.7723C105.336 66.3043 103.662 81.2942 99.8731 90.4188C99.5281 91.245 99.7036 91.2117 100.215 90.6155V90.6186Z" fill="#873A2C"/>
<path fill-rule="evenodd" clip-rule="evenodd" d="M47.3027 33.7946C50.6136 31.0285 55.5195 30.2022 61.9325 31.21L59.1572 33.0895C55.462 32.23 52.263 32.7535 49.4727 34.4544L47.3027 33.7946Z" fill="#661D10"/>
<path fill-rule="evenodd" clip-rule="evenodd" d="M100.216 90.6181C99.7043 91.2234 99.5288 91.2476 99.8738 90.4214C103.663 81.2967 105.321 66.3068 101.269 55.7749C99.7145 51.6472 96.9136 48.1059 93.255 45.6424C97.6887 48.0817 101.248 51.6953 103.297 57.0187C106.323 64.8874 106.169 75.259 104.311 83.8026C103.32 86.2793 101.937 88.5806 100.216 90.6181ZM90.3285 31.0672C87.8402 29.6674 85.2002 28.5566 82.4598 27.7563C75.3931 25.6741 67.712 25.5379 60.267 26.7938C47.4652 28.9517 34.4274 35.1105 26.6102 45.7604C14.9524 61.6098 17.5944 83.3638 36.4581 97.1733C36.3794 97.2338 36.2039 97.1733 35.8892 96.9645C15.7211 83.2336 12.6372 60.7685 24.5915 44.5045C32.3997 33.8666 45.4375 27.7109 58.2484 25.55C65.6934 24.294 73.3805 24.4332 80.4412 26.5124C83.9454 27.5296 87.278 29.0648 90.3285 31.0672Z" fill="#BA5B4A"/>
<path fill-rule="evenodd" clip-rule="evenodd" d="M82.3363 40.587C79.6549 41.5887 75.315 40.357 73.7262 38.0932C72.0071 35.6479 70.9055 36.8373 69.7676 38.187C68.1333 40.1149 63.0762 41.0833 63.0762 39.9272C63.0762 38.302 66.9106 34.5493 68.0546 33.3327C68.3089 33.0573 69.2652 32.0676 69.5678 31.9829C69.589 31.9829 70.3729 31.2898 71.2112 31.1657C73.5143 30.8207 75.0517 32.0222 77.028 33.1087C78.3929 33.8623 81.7885 38.2899 82.2546 39.7668C82.3848 40.1724 82.6329 40.4599 82.3394 40.5779L82.3363 40.587Z" fill="#661D10"/>
<path fill-rule="evenodd" clip-rule="evenodd" d="M103.341 47.2524C101.444 48.3964 99.2072 51.1868 96.3412 48.0635C95.6875 47.3493 89.3199 43.3967 89.3017 43.3725C89.2835 43.3483 87.05 42.6311 87.386 41.7806C87.386 41.7806 89.2018 40.8727 90.0795 40.8394C91.4747 40.788 92.6822 40.3945 94.6978 40.3945C96.7134 40.3945 97.924 40.6972 99.2375 42.1105C99.9184 42.8429 102.019 44.4499 102.222 45.4396C102.352 45.4729 102.902 46.4746 102.915 46.5715C103.048 46.5987 103.353 47.2252 103.341 47.2403V47.2524Z" fill="#661D10"/>
<path fill-rule="evenodd" clip-rule="evenodd" d="M52.4453 42.9218L47.264 45.6093C44.059 45.6093 39.5315 47.4615 37.2284 49.6011C34.2655 52.3552 27.8223 52.6033 28.5214 46.9258C28.7514 45.0403 33.1306 40.9183 33.1791 40.7035C33.4151 40.649 35.9997 38.0463 38.324 37.9434C42.5307 37.7527 40.6422 37.668 44.395 38.7726C45.4551 39.1256 46.5481 39.371 47.6575 39.505C49.3916 39.741 52.4392 40.0618 52.4392 42.1501V42.9218H52.4453Z" fill="#661D10"/>
<path d="M100.588 90.9405C100.195 91.3914 99.856 91.6094 99.5806 91.5246C99.1811 91.3975 99.1085 90.992 99.4232 90.2354C101.427 85.4203 102.825 78.9498 103.094 72.3795C103.321 66.6293 102.683 60.8125 100.809 55.9672C99.2235 51.7453 96.3049 48.1553 92.4957 45.7409C88.8398 43.3712 84.4424 41.9579 79.7394 41.1468C74.594 40.3047 69.3547 40.2027 64.1805 40.8441C58.9206 41.4706 53.9482 42.8113 49.92 44.724C44.3782 47.3219 39.8714 51.7084 37.1243 57.1777C33.9647 63.3153 32.7541 70.6211 32.8631 77.9299C32.9117 81.0488 33.2644 84.1555 33.9163 87.2059C34.5951 90.3194 35.5565 93.3645 36.7884 96.3033C36.979 96.7482 37.0456 97.1326 36.9003 97.3898C36.6734 97.7742 36.2739 97.8196 35.605 97.3686C35.0815 97.0145 34.573 96.6483 34.0676 96.2822C24.7856 89.4636 19.4016 80.7233 17.6947 71.6955C15.9878 62.6677 17.958 53.3312 23.3874 45.3656C23.6507 44.9843 23.917 44.606 24.1984 44.2277C27.9391 39.1039 32.8631 35.0395 38.3924 31.9253C44.5394 28.5264 51.2238 26.2068 58.1549 25.0674C62.0066 24.4071 65.9171 24.1535 69.8218 24.3108C73.4593 24.4496 77.0662 25.032 80.5626 26.0449C87.1238 27.9788 92.4745 31.2958 96.6238 35.7749C100.927 40.3932 103.945 46.2402 105.703 53.0527C107.346 59.4233 108.124 67.3526 107.15 74.7794C106.333 80.8625 104.323 86.6248 100.601 90.9496L100.588 90.9405ZM106.163 74.6432C107.138 67.3435 106.357 59.5535 104.744 53.2858C103.034 46.6276 100.098 40.9319 95.9095 36.4316C91.8753 32.0948 86.6729 28.8656 80.2872 26.9862C76.8676 25.9948 73.3401 25.4237 69.7824 25.2853C65.9433 25.1353 62.0991 25.3869 58.3123 26.0359C51.4974 27.1563 44.9248 29.4359 38.8796 32.7757C33.4684 35.8233 28.6473 39.8152 24.9823 44.7997C24.716 45.1598 24.4527 45.5321 24.1984 45.9104C18.9052 53.6641 16.9865 62.7312 18.648 71.5109C20.3095 80.2905 25.5634 88.8281 34.6426 95.4953L35.711 96.261C34.5359 93.3969 33.6163 90.4346 32.963 87.4087C32.2949 84.2959 31.933 81.1253 31.8825 77.942C31.7706 70.491 33.0144 63.0248 36.2527 56.7268C39.0975 51.0592 43.7636 46.5114 49.5024 43.8131C53.6304 41.861 58.7057 40.484 64.0716 39.8484C69.3371 39.2001 74.6685 39.3102 79.9028 40.1753C84.7239 40.9985 89.2454 42.4572 93.0254 44.9056C97.0104 47.431 100.065 51.1854 101.726 55.601C103.645 60.5915 104.305 66.5385 104.069 72.3946C103.833 78.2507 102.689 84.119 101.042 88.7827C103.881 84.8181 105.482 79.8517 106.187 74.6311L106.163 74.6432ZM36.0499 96.9086C36.0529 96.9053 36.0545 96.901 36.0545 96.8965C36.0545 96.892 36.0529 96.8877 36.0499 96.8844C36.0257 96.948 36.0106 96.9813 36.0499 96.9086ZM99.8681 90.5955C99.9074 90.6106 99.9135 90.5955 99.9135 90.5955C99.8106 90.5773 99.7652 90.5713 99.8681 90.5955Z" fill="#6D2920"/>
<path fill-rule="evenodd" clip-rule="evenodd" d="M87.9807 35.9989L90.7559 35.6236C87.2423 31.8769 83.5591 30.7814 79.7852 31.1899L80.9685 33.0482C83.7346 33.0724 86.1134 33.9561 87.9807 35.9929V35.9989Z" fill="#661D10"/>
<path fill-rule="evenodd" clip-rule="evenodd" d="M24.9577 74.5909C22.0341 74.5909 19.6523 70.8169 19.6523 66.1835C19.6523 61.55 22.0311 57.7852 24.9577 57.7852C27.8842 57.7852 30.2539 61.5591 30.2539 66.1835C30.2539 70.8079 27.8721 74.5909 24.9577 74.5909Z" fill="#591C11"/>
<path fill-rule="evenodd" clip-rule="evenodd" d="M24.6548 72.5692C22.1428 72.5692 20.0879 69.2402 20.0879 65.1787C20.0879 61.1173 22.1428 57.7852 24.6548 57.7852C27.1667 57.7852 29.2186 61.1142 29.2186 65.1787C29.2186 69.2432 27.1667 72.5692 24.6548 72.5692Z" fill="#CC8A43"/>
<path fill-rule="evenodd" clip-rule="evenodd" d="M23.3322 70.9905C21.5163 70.9905 20.0273 68.6965 20.0273 65.8698C20.0273 63.0431 21.5133 60.7461 23.3322 60.7461C25.1511 60.7461 26.628 63.0492 26.628 65.8698C26.628 68.6905 25.1511 70.9905 23.3322 70.9905Z" fill="#B86A16"/>
<path fill-rule="evenodd" clip-rule="evenodd" d="M24.656 57.7852C23.4121 57.7852 22.2802 58.5902 21.457 59.9037C22.057 59.3233 22.8531 58.9896 23.6875 58.9685C26.2055 58.9685 28.2514 62.2794 28.2514 66.362C28.291 68.2116 27.8186 70.0361 26.8864 71.6341C28.2786 70.3721 29.2198 67.957 29.2198 65.1848C29.2198 61.1021 27.18 57.7912 24.656 57.7912V57.7852Z" fill="#FFC17F"/>
<path d="M24.6558 57.2934C26.0933 57.2934 27.3796 58.2013 28.2875 59.6933C29.2145 61.3719 29.7008 63.2581 29.7008 65.1757C29.7008 67.0932 29.2145 68.9795 28.2875 70.658C27.3796 72.144 26.0812 73.058 24.6558 73.058C23.2303 73.058 21.932 72.1501 21.0241 70.658C20.0949 68.978 19.6074 67.0895 19.6074 65.1696C19.6074 63.2497 20.0949 61.3613 21.0241 59.6812C21.932 58.1952 23.2273 57.2812 24.6558 57.2812V57.2934ZM21.8412 60.2048C21.0129 61.7307 20.5791 63.4394 20.5791 65.1757C20.5791 66.9119 21.0129 68.6206 21.8412 70.1466C22.5797 71.339 23.5753 72.0774 24.6558 72.0774C25.7362 72.0774 26.7289 71.339 27.4673 70.1466C28.2956 68.6206 28.7295 66.9119 28.7295 65.1757C28.7295 63.4394 28.2956 61.7307 27.4673 60.2048C26.7289 59.0124 25.7332 58.2739 24.6558 58.2739C23.5784 58.2739 22.5797 59.0124 21.8412 60.2048Z" fill="#84420C"/>
<path fill-rule="evenodd" clip-rule="evenodd" d="M22.7178 69.7416C21.135 69.7416 19.8457 67.5444 19.8457 64.8569C19.8457 62.1695 21.135 59.9844 22.7178 59.9844C24.3006 59.9844 25.5899 62.1755 25.5899 64.872C25.5899 67.5686 24.2945 69.7567 22.7178 69.7567V69.7416Z" fill="#C27625"/>
<path fill-rule="evenodd" clip-rule="evenodd" d="M22.7179 59.9865C21.4408 59.9865 20.3634 61.3999 19.9941 63.3549C20.5238 62.2745 21.3167 61.5966 22.2004 61.5966C23.7893 61.5966 25.0725 63.7817 25.0725 66.4812C25.0732 66.9889 25.0266 67.4955 24.9333 67.9944C25.3856 67.0149 25.6141 65.947 25.6021 64.8681C25.6021 62.1655 24.3128 59.9805 22.73 59.9805L22.7179 59.9865Z" fill="#FFC17F"/>
<path d="M22.7178 59.4805C23.6923 59.4805 24.5609 60.113 25.1631 61.1541C25.7835 62.2886 26.0965 63.5656 26.0711 64.8584C26.0945 66.1501 25.7817 67.4256 25.1631 68.5597C24.5579 69.5948 23.6923 70.2333 22.7178 70.2333C21.7433 70.2333 20.8717 69.5948 20.2634 68.5597C19.6669 67.4166 19.3555 66.1463 19.3555 64.8569C19.3555 63.5675 19.6669 62.2972 20.2634 61.1541C20.8686 60.113 21.7342 59.4805 22.7178 59.4805ZM21.1077 61.6444C20.6005 62.6382 20.3361 63.7381 20.3361 64.8539C20.3361 65.9697 20.6005 67.0696 21.1077 68.0634C21.5405 68.7958 22.1095 69.2528 22.7178 69.2528C23.3261 69.2528 23.8951 68.7958 24.3248 68.0634C24.8547 67.0796 25.1216 65.9756 25.0996 64.8584C25.1219 63.7383 24.8551 62.6313 24.3248 61.6444C23.8951 60.912 23.3201 60.461 22.7178 60.461C22.1155 60.461 21.5405 60.912 21.1077 61.6444Z" fill="#84420C"/>
<path fill-rule="evenodd" clip-rule="evenodd" d="M28.6206 44.066C26.9954 47.737 31.1386 51.3022 34.9337 47.5403C37.4698 45.0132 39.6307 43.6483 41.6372 43.0188C43.8163 42.3318 46.1769 42.9341 48.5012 42.9734C56.612 43.1157 65.1465 41.0819 69.4955 34.5206C71.0087 32.2296 72.8972 31.2249 74.5375 34.0969C77.3581 39.0088 82.4213 43.0188 90.7894 42.4559C94.4513 42.2138 94.981 44.0327 97.9529 45.6155C102.145 47.846 102.008 42.241 100.171 39.4537C99.0507 37.7802 97.7418 36.2408 96.2702 34.8657C95.3018 29.288 89.2066 26.1526 84.1645 25.1387C81.356 24.5758 76.2747 24.3004 74.0502 26.6519C72.2102 28.5949 70.7 28.4133 69.1293 27.0454C63.8966 22.5057 53.0892 22.5057 47.3178 24.4094C42.9295 25.856 40.9412 28.7069 39.9273 32.1358C34.7824 35.6344 30.5454 39.7019 28.6297 44.0811L28.6206 44.066ZM84.673 35.365C82.0339 34.2604 80.4057 32.8077 79.6794 31.0524C83.3837 30.7497 87.079 32.0662 90.7833 35.71C88.9675 36.4182 86.9216 36.2881 84.673 35.365ZM47.4026 33.9305C52.9288 35.3923 57.6924 34.1877 61.9112 31.1764C55.4559 30.3533 50.4108 31.0342 47.4026 33.9305Z" fill="#78BBCE"/>
<path fill-rule="evenodd" clip-rule="evenodd" d="M96.4721 35.0486C97.8629 36.3761 99.1032 37.8528 100.17 39.452C102.007 42.2394 102.144 47.8443 97.952 45.6138C94.9801 44.031 94.4505 42.2121 90.7885 42.4543C82.4204 43.0172 77.3572 39.0072 74.5366 34.0953C72.8963 31.2232 71.0048 32.228 69.4946 34.519C65.1547 41.0803 56.6111 43.114 48.5003 42.9718C46.1911 42.9324 43.8154 42.3302 41.6364 43.0172C39.6299 43.6406 37.469 45.0116 34.9449 47.5386C31.5675 50.8677 27.9236 48.4466 28.2868 45.2749C30.2691 47.3601 32.5601 47.0332 35.2294 43.7102C37.1784 41.3163 40.1867 39.3461 44.0666 37.724L47.8557 38.6016C53.4046 39.0431 58.9608 37.8421 63.8322 35.1485L68.6078 31.3594C71.029 29.7039 73.5772 30.1488 76.2344 32.7273C78.3287 35.3633 81.3491 37.7845 86.8269 39.6488C92.4409 40.708 95.6035 39.2493 96.3783 35.3119L96.4721 35.0486Z" fill="#2D849C"/>
<path fill-rule="evenodd" clip-rule="evenodd" d="M61.1664 28.383C62.4799 29.2031 62.8279 30.1504 61.9956 31.249C56.2727 30.3864 51.1489 30.7647 47.3568 33.9001C44.282 32.859 44.3304 31.3731 46.2552 29.6208C51.6483 26.9847 56.6328 26.5187 61.1664 28.383Z" fill="#2D849C"/>
<path fill-rule="evenodd" clip-rule="evenodd" d="M91.6011 32.9544C92.2488 34.2255 91.9038 35.1213 90.8294 35.775C86.8254 31.9678 83.1271 30.6301 79.674 31.196C79.0203 29.129 80.3277 28.2271 83.0242 28.1484C86.5682 28.3512 89.4887 29.8221 91.6011 32.9544Z" fill="#2D849C"/>
<path fill-rule="evenodd" clip-rule="evenodd" d="M32.322 42.497C31.9286 42.1944 31.3021 42.3275 30.9147 42.8178C30.5273 43.3081 30.5243 43.9497 30.9147 44.2584C31.3051 44.5671 31.9346 44.4218 32.322 43.9376C32.7094 43.4534 32.7154 42.8057 32.322 42.497Z" fill="#CAEDF7"/>
<path d="M31.3923 44.7353C31.1462 44.739 30.9061 44.659 30.7114 44.5084C30.5962 44.4155 30.501 44.3003 30.4313 44.1698C30.3616 44.0393 30.3189 43.8961 30.3058 43.7487C30.2809 43.3406 30.4082 42.9377 30.6631 42.6179C30.918 42.2981 31.2824 42.0843 31.6859 42.0176C31.8332 41.998 31.983 42.0079 32.1264 42.0469C32.2698 42.0859 32.404 42.1531 32.5212 42.2446C32.6355 42.3373 32.7301 42.4521 32.7992 42.582C32.8684 42.712 32.9107 42.8546 32.9237 43.0012C32.9592 43.4128 32.8309 43.8217 32.5666 44.1391C32.4271 44.3191 32.2494 44.466 32.0463 44.5691C31.8433 44.6721 31.6199 44.7289 31.3923 44.7353ZM31.8311 42.6501H31.7615C31.6417 42.6668 31.5265 42.7073 31.4225 42.7691C31.3186 42.831 31.2281 42.913 31.1562 43.0103C30.9995 43.1944 30.9193 43.4316 30.9323 43.6731C30.9421 43.7983 31.0008 43.9146 31.0957 43.9969C31.3439 44.1906 31.7797 44.0665 32.0521 43.7276C32.1308 43.6371 32.1909 43.532 32.2288 43.4183C32.2667 43.3045 32.2818 43.1844 32.273 43.0648C32.2625 42.9397 32.2039 42.8236 32.1096 42.7409C32.0292 42.6809 31.9314 42.649 31.8311 42.6501Z" fill="#166172"/>
<path fill-rule="evenodd" clip-rule="evenodd" d="M98.1978 40.4557C98.5882 40.265 99.1057 40.5071 99.3357 41.0035C99.5657 41.4998 99.4538 42.0506 99.0603 42.2413C98.6669 42.4319 98.1524 42.1807 97.9163 41.6905C97.6803 41.2002 97.8044 40.6433 98.1978 40.4557Z" fill="#CAEDF7"/>
<path d="M98.7717 42.6283C98.5251 42.6135 98.2873 42.5308 98.0849 42.3892C97.8824 42.2477 97.7231 42.0528 97.6246 41.8263C97.322 41.1574 97.5006 40.428 98.0574 40.1587C98.1794 40.1015 98.3114 40.0691 98.446 40.0634C98.5806 40.0577 98.7149 40.0788 98.8413 40.1254C99.1871 40.2645 99.4684 40.528 99.6297 40.8641C99.791 41.2001 99.8207 41.5844 99.7129 41.9413C99.6723 42.0716 99.6058 42.1924 99.5174 42.2964C99.429 42.4004 99.3205 42.4855 99.1984 42.5465C99.0642 42.6058 98.9183 42.6337 98.7717 42.6283ZM98.3359 40.7428C98.1089 40.8548 98.0483 41.224 98.2057 41.5539C98.3631 41.8838 98.693 42.0593 98.92 41.9503C99.008 41.9022 99.0741 41.822 99.1046 41.7264C99.16 41.5324 99.1394 41.3246 99.0471 41.1453C98.9639 40.9616 98.8149 40.8158 98.6294 40.7367C98.5815 40.7168 98.53 40.7065 98.4781 40.7065C98.4262 40.7065 98.3747 40.7168 98.3268 40.7367L98.3359 40.7428Z" fill="#166172"/>
<path d="M62.2413 28.2334C60.7735 26.9048 57.3839 26.2965 53.61 26.6869C49.0703 27.156 44.2734 29.1081 44.2734 31.7865C44.2812 32.1194 44.3604 32.4467 44.5055 32.7464C44.6507 33.0461 44.8584 33.3111 45.1148 33.5236C46.2921 34.5829 48.6829 35.1821 51.5157 35.1821C52.2587 35.1809 53.0011 35.1415 53.7401 35.0641C58.2797 34.598 63.0857 32.6429 63.0857 29.9706C63.0783 29.6373 62.999 29.3096 62.8533 29.0098C62.7076 28.71 62.4988 28.4451 62.2413 28.2334ZM45.5597 31.7865C45.5597 30.3822 48.919 28.4574 53.731 27.9671C57.6321 27.5646 60.3891 28.2909 61.3727 29.1777C61.4942 29.271 61.5943 29.3892 61.6663 29.5244C61.7384 29.6596 61.7807 29.8087 61.7904 29.9615C61.7844 30.1554 61.7304 30.3446 61.633 30.5123C56.939 29.9434 51.1071 29.7709 47.0517 33.1907C46.6663 33.0434 46.3083 32.8327 45.9924 32.5673C45.8677 32.4766 45.7643 32.3597 45.6895 32.2248C45.6147 32.0899 45.5704 31.9403 45.5597 31.7865ZM53.61 33.7839C51.9302 33.9855 50.2299 33.9355 48.5649 33.6356C51.2584 31.7562 55.0082 31.1388 60.4436 31.6836C59.0363 32.6218 56.6061 33.4752 53.61 33.7839Z" fill="#166172"/>
<path d="M85.9071 27.9769C83.4164 27.2172 81.1738 27.3262 79.9088 28.2795C79.5896 28.5035 79.3299 28.8019 79.1522 29.1489C78.9745 29.4959 78.8841 29.881 78.8889 30.2709C78.8889 32.5286 81.8063 35.1858 85.5318 36.3237C86.5353 36.6441 87.5807 36.8144 88.6339 36.8292C89.8173 36.8292 90.8281 36.5659 91.5332 36.0423C91.8518 35.8184 92.1111 35.5205 92.2887 35.1741C92.4664 34.8276 92.5572 34.4432 92.5532 34.0539C92.5501 31.7781 89.6327 29.1148 85.9071 27.9769ZM80.6714 29.2994C81.1496 28.9453 81.9001 28.7668 82.7899 28.7668C83.7145 28.7806 84.6321 28.9295 85.5137 29.2086C88.9457 30.2588 91.2639 32.5377 91.2639 34.0509C91.2638 34.2042 91.2317 34.3558 91.1697 34.4959C91.1077 34.6361 91.0171 34.7618 90.9038 34.865C87.6685 31.6721 84.0701 30.171 80.1842 30.398C80.1842 30.3496 80.1842 30.3012 80.1842 30.2558C80.1794 30.0684 80.2214 29.8828 80.3065 29.7158C80.3916 29.5488 80.517 29.4057 80.6714 29.2994ZM85.9041 35.0769C83.4436 34.3263 81.5703 32.9341 80.7017 31.66C83.9369 31.5874 86.8756 32.8282 89.6448 35.434C88.387 35.6041 87.1069 35.4819 85.9041 35.0769Z" fill="#166172"/>
<path d="M100.576 39.1843C100.018 38.3385 99.4053 37.5297 98.7423 36.7631C98.1159 36.0247 97.441 35.3104 96.7298 34.6234C96.2365 32.0873 94.7384 30.0384 92.7773 28.4556C90.3168 26.4854 87.1179 25.2415 84.2518 24.6665C82.1669 24.2393 80.026 24.1575 77.9145 24.4244C76.253 24.6726 74.7065 25.2355 73.6775 26.3159C72.8543 27.1845 72.128 27.5779 71.4531 27.5991C70.7782 27.6203 70.1245 27.2783 69.4314 26.67C66.9861 24.5515 63.3998 23.3924 59.6591 22.9414C55.1437 22.3967 50.3831 22.8749 47.1509 23.9402C45.1624 24.5377 43.3736 25.6643 41.9757 27.1996C40.8198 28.5375 39.9698 30.1116 39.485 31.8119C36.9356 33.5214 34.574 35.4955 32.4395 37.7013C30.6786 39.5003 29.2339 41.5834 28.1662 43.8631C27.9042 44.4251 27.7669 45.0372 27.7637 45.6573C27.7606 46.2774 27.8917 46.8908 28.148 47.4555C28.439 48.0652 28.8858 48.5872 29.4433 48.9687C30.0197 49.3625 30.6949 49.5868 31.3923 49.6163C32.6029 49.6769 33.9648 49.1775 35.2722 47.8761C36.3362 46.7962 37.5017 45.8212 38.7526 44.9647C39.6888 44.3319 40.707 43.8299 41.779 43.4727C43.1984 43.0278 44.7631 43.1701 46.3187 43.3093C47.0389 43.3758 47.7592 43.4424 48.4795 43.4545C52.9344 43.5332 57.5195 42.9582 61.4931 41.3603C64.9069 40.0105 67.8577 37.892 69.9066 34.7899C70.9659 33.1859 72.4639 32.2174 73.7138 34.4025C75.2846 37.1263 77.9266 39.5474 81.0287 41.1333C83.6587 42.4891 86.8879 43.2154 90.8222 42.9491C93.1314 42.7917 94.1059 43.5544 95.3618 44.4926C96.0986 45.0767 96.8843 45.5962 97.7104 46.0452C98.6606 46.5536 99.4324 46.6989 100.053 46.5808C100.341 46.5275 100.613 46.4104 100.85 46.2381C101.086 46.0658 101.282 45.8427 101.421 45.5851C101.7 45.0563 101.852 44.4699 101.866 43.8722C101.905 42.2169 101.457 40.5866 100.576 39.1843ZM40.4565 32.3566C40.5624 30.6497 41.6005 29.0851 42.7172 27.8352C44.0025 26.4324 45.6432 25.4034 47.4657 24.8572C50.5799 23.8373 55.18 23.3742 59.5502 23.9038C63.1214 24.3336 66.511 25.4171 68.7989 27.3963C69.6766 28.162 70.5543 28.6069 71.4955 28.5615C72.4367 28.5161 73.3809 28.05 74.3948 26.9787C75.2452 26.0708 76.5859 25.5986 78.0507 25.3807C80.0543 25.1285 82.0857 25.2062 84.0642 25.6107C86.788 26.1585 89.8326 27.3449 92.1629 29.2092C93.7064 30.4439 95.0471 32.1055 95.5797 34.0514C95.8503 34.9261 95.8237 35.8658 95.5041 36.7238C95.1895 37.4412 94.6469 38.0348 93.9606 38.4125C93.7002 38.5622 93.4303 38.6946 93.1525 38.809C89.6601 40.2435 82.8234 38.2703 79.0827 34.7536C78.5137 34.2149 77.9962 33.6822 77.4969 33.1647C75.7658 31.3791 74.2707 29.8356 72.0705 29.7479C69.4284 29.651 67.2797 31.4063 65.1945 33.1072C64.1367 34.0333 62.9914 34.8543 61.7746 35.5586C57.356 37.892 48.2404 39.4385 43.4193 36.6814C41.8396 35.7735 40.3445 34.1695 40.4565 32.3566ZM33.1598 38.3671C35.0636 36.3998 37.1558 34.6238 39.4063 33.0648C39.5628 34.0326 39.9352 34.9526 40.4958 35.7568C41.0563 36.561 41.7908 37.2287 42.6446 37.7104C39.0764 39.0057 36.8944 41.1817 34.7759 43.2941C34.0889 43.9811 33.3777 44.6893 32.6241 45.3672C32.2538 45.6531 31.8192 45.8441 31.3582 45.9238C30.8972 46.0034 30.4238 45.9692 29.979 45.8242C29.7164 45.7536 29.4773 45.6143 29.2864 45.4207C29.0955 45.2271 28.9595 44.9862 28.8925 44.7226C28.9388 44.5657 28.9954 44.412 29.062 44.2626C30.0835 42.0791 31.4692 40.0855 33.1598 38.3671ZM100.894 43.8147C100.893 44.2551 100.79 44.6893 100.591 45.0828C100.522 45.2175 100.422 45.3346 100.301 45.4253C100.179 45.516 100.038 45.5779 99.8894 45.6063C99.4838 45.685 98.9239 45.5609 98.1885 45.1766C97.4096 44.7467 96.6685 44.2516 95.9732 43.6966C94.5447 42.6162 93.4401 41.7809 90.7647 41.9625C87.021 42.2107 83.9613 41.5297 81.4887 40.2556C78.5712 38.7424 76.0593 36.4938 74.5733 33.9001C72.9361 31.0341 70.5754 31.9904 69.0985 34.233C67.1677 37.1444 64.3803 39.1479 61.1602 40.4432C57.3137 41.9867 52.8527 42.5436 48.5158 42.4709C47.8288 42.4709 47.1297 42.3923 46.4276 42.3257C44.7661 42.1774 43.0985 42.023 41.5036 42.5285C40.3405 42.9103 39.2371 43.4544 38.226 44.1446C36.9185 45.0311 35.702 46.0448 34.5943 47.171C33.5018 48.2575 32.3971 48.6842 31.4408 48.6297C30.9253 48.6181 30.4233 48.463 29.9911 48.1818C29.5789 47.8928 29.2501 47.5003 29.0378 47.0439C28.9925 46.9454 28.953 46.8444 28.9198 46.7412C29.1234 46.8685 29.3419 46.9702 29.5704 47.0439C29.9829 47.1776 30.414 47.245 30.8476 47.2436C31.8064 47.2649 32.7413 46.9429 33.4836 46.3357C34.2614 45.6366 34.9968 44.9163 35.6838 44.2172C37.9234 41.9807 40.5261 39.6776 44.2758 38.4942C49.6719 40.4886 58.1126 38.9482 62.3738 36.6996C63.6661 36.0186 64.8585 35.0441 66.0055 34.1059C67.9939 32.4838 69.8794 30.9463 72.016 31.0341C73.7017 31.1007 74.9668 32.4081 76.5708 34.0605C77.0792 34.5871 77.6058 35.1288 78.196 35.6887C81.0862 38.4125 86.1918 40.5764 90.3561 40.5764C91.4768 40.5977 92.5909 40.4014 93.6368 39.9984C94.4644 39.6819 95.1938 39.1526 95.7512 38.4639C96.3086 37.7751 96.6744 36.9515 96.8115 36.0761C97.2201 36.4998 97.6196 36.9296 97.9979 37.3745C98.6323 38.1179 99.2225 38.8981 99.7653 39.7109C100.538 40.9407 100.931 42.3715 100.894 43.8238V43.8147Z" fill="#166172"/>
<path fill-rule="evenodd" clip-rule="evenodd" d="M89.291 81.492C87.0998 74.3587 80.5325 72.1827 73.9621 72.782C67.9517 73.3267 62.7946 76.5831 60.3614 82.2819C57.9887 87.8354 60.3432 93.6401 69.6071 95.2622C78.2748 96.7754 92.8107 92.9652 89.2789 81.492H89.291Z" fill="white"/>
<path d="M89.7563 81.3455C90.3037 82.99 90.4489 84.7418 90.18 86.4541C89.7903 88.5728 88.6636 90.4854 86.9992 91.8532C85.2541 93.2849 83.2328 94.3419 81.0614 94.9583C77.3229 96.0849 73.3784 96.3538 69.5216 95.7452C68.0262 95.4953 66.5641 95.076 65.1636 94.4953C62.7091 93.4481 61.0355 91.9712 60.061 90.2583C59.0956 88.5374 58.7738 86.5292 59.1531 84.5928C59.3083 83.7309 59.5632 82.8899 59.9127 82.0869C61.0591 79.3537 62.9576 77.0019 65.3875 75.3047C67.9193 73.5701 70.8601 72.5269 73.919 72.2783C77.5507 71.9514 81.1824 72.4478 84.1181 74.1244C86.6754 75.5771 88.7031 77.9044 89.7593 81.3334L89.7563 81.3455ZM83.6308 74.99C80.8707 73.4193 77.4418 72.9562 74.0007 73.2679C71.1127 73.4977 68.3347 74.4773 65.9414 76.1098C63.6629 77.7023 61.8797 79.9051 60.7964 82.4652C60.4799 83.1999 60.2493 83.9686 60.1094 84.7562C59.7694 86.467 60.0506 88.2429 60.9024 89.765C61.7709 91.2963 63.2902 92.6189 65.5328 93.5813C66.8674 94.1436 68.2629 94.5488 69.6911 94.7888C73.3949 95.3758 77.1835 95.1182 80.7739 94.0353C82.8149 93.4553 84.716 92.4646 86.3606 91.1238C87.8481 89.9009 88.8591 88.1947 89.2176 86.3027C89.458 84.7363 89.32 83.1351 88.8151 81.633C87.8466 78.4673 85.9763 76.3216 83.6278 74.9748L83.6308 74.99Z" fill="#EDBAB7"/>
<path fill-rule="evenodd" clip-rule="evenodd" d="M71.3974 79.5068C72.7048 77.6092 69.7026 76.7194 68.0684 78.3416C66.767 79.6369 66.5824 81.9067 68.598 81.4164C69.7192 81.1161 70.7046 80.4425 71.3914 79.5068H71.3974Z" fill="#FDDCD9"/>
<path fill-rule="evenodd" clip-rule="evenodd" d="M71.641 79.0525C72.2221 77.4667 69.5679 76.8402 68.0759 78.3322C67.3283 79.0707 66.95 80.1299 67.1407 80.8109C67.2874 80.1774 67.6118 79.5989 68.0759 79.1433C69.2713 77.9328 71.2233 78.1143 71.641 79.0525Z" fill="#E5B5B3"/>
<path fill-rule="evenodd" clip-rule="evenodd" d="M81.2823 79.2573C80.0445 77.4596 82.8893 76.6152 84.4358 78.1526C85.6645 79.3632 85.8401 81.5301 83.9304 81.064C82.8676 80.776 81.934 80.1358 81.2823 79.2482V79.2573Z" fill="#FDDCD9"/>
<path fill-rule="evenodd" clip-rule="evenodd" d="M81.0069 78.6657C80.7042 77.2978 83.0739 76.8015 84.4358 78.1543C85.253 78.9654 85.598 80.182 85.1924 80.7782C85.1041 80.0814 84.7844 79.4345 84.2845 78.9411C83.2313 77.894 81.5607 77.9515 81.019 78.6657H81.0069Z" fill="#E5B5B3"/>
<path fill-rule="evenodd" clip-rule="evenodd" d="M71.6737 86.0273C71.4731 86.4832 71.37 86.9759 71.3711 87.474C71.3711 89.5925 73.2535 91.3085 75.5839 91.3085C77.7024 91.3085 79.4698 89.8679 79.7573 88.0036C78.8711 88.3592 77.9248 88.541 76.97 88.5393C74.6608 88.5393 72.6664 87.5194 71.6768 86.0273H71.6737Z" fill="#5B1A1A"/>
<path fill-rule="evenodd" clip-rule="evenodd" d="M77.0467 91.0721C77.0467 91.0328 77.0467 90.9874 77.0467 90.948C77.0467 89.9977 75.8634 89.232 74.4046 89.232C73.6525 89.2089 72.9152 89.445 72.3164 89.9009C72.7312 90.3501 73.2356 90.7075 73.797 90.9499C74.3584 91.1923 74.9644 91.3143 75.5759 91.3082C76.0736 91.3085 76.5682 91.2288 77.0407 91.0721H77.0467Z" fill="#D63466"/>
</g>
</svg>
