<svg width="224" height="56" viewBox="0 0 224 56" fill="none" xmlns="http://www.w3.org/2000/svg">
<path d="M42.9999 17.3501H13.0599C11.1987 17.3501 9.68994 18.8589 9.68994 20.7201V27.7201C9.73347 29.5484 11.2312 31.0061 13.0599 31.0001H15.0599C16.4959 31.0001 17.6599 32.1642 17.6599 33.6001V44.6001C17.6519 45.4939 17.9994 46.3542 18.6257 46.9919C19.2521 47.6295 20.1062 47.9922 20.9999 48.0001H35.0499C36.9111 48.0001 38.4199 46.4913 38.4199 44.6301V33.6301C38.4119 32.9388 38.6796 32.2728 39.1637 31.7793C39.6479 31.2858 40.3086 31.0054 40.9999 31.0001H42.9999C43.8928 31.0028 44.75 30.6499 45.3823 30.0195C46.0146 29.3891 46.3699 28.533 46.3699 27.6401V20.6401C46.3265 18.8102 44.8303 17.3496 42.9999 17.3501Z" fill="#C92373"/>
<path d="M24.3802 15.8601C24.0902 15.2101 23.7902 14.5701 23.4702 13.9401C22.9658 12.8646 22.405 11.8165 21.7902 10.8001C21.2683 9.86023 20.5524 9.04213 19.6902 8.4001C18.9839 7.90362 18.0519 7.86838 17.3102 8.3101C16.7003 8.80977 16.4254 9.6113 16.6002 10.3801C16.9005 11.479 17.5629 12.4444 18.4802 13.1201C19.3852 13.8626 20.3483 14.5314 21.3602 15.1201C21.8402 15.4201 22.3602 15.7001 22.8202 15.9901C23.2802 16.2801 23.7402 16.7001 24.2402 16.5601C24.5702 16.4401 24.4802 16.0901 24.3802 15.8601Z" fill="#210B57"/>
<path d="M31.6499 15.8601C31.9399 15.2101 32.2499 14.5701 32.5599 13.9401C33.0677 12.8645 33.6318 11.8163 34.2499 10.8001C34.7687 9.85808 35.4851 9.03938 36.3499 8.4001C37.0562 7.90362 37.9882 7.86838 38.7299 8.3101C39.3358 8.81251 39.6099 9.61156 39.4399 10.3801C39.1318 11.4754 38.471 12.4385 37.5599 13.1201C36.6548 13.8626 35.6918 14.5314 34.6799 15.1201L33.2099 16.0001C32.8099 16.2201 32.2899 16.7101 31.7899 16.5701C31.4599 16.4401 31.5499 16.0901 31.6499 15.8601Z" fill="#210B57"/>
<path d="M16.48 26.1499C17.5735 26.1499 18.46 25.2635 18.46 24.1699C18.46 23.0764 17.5735 22.1899 16.48 22.1899C15.3865 22.1899 14.5 23.0764 14.5 24.1699C14.5 25.2635 15.3865 26.1499 16.48 26.1499Z" fill="white"/>
<path d="M17.1502 24.1699C16.9109 24.1643 16.7038 24.0019 16.6415 23.7708C16.5791 23.5397 16.6762 23.2951 16.8802 23.1699C16.4578 23.0308 15.9943 23.1873 15.7428 23.554C15.4912 23.9207 15.512 24.4095 15.7938 24.7535C16.0757 25.0974 16.5508 25.214 16.9598 25.0395C17.3688 24.865 17.6135 24.4414 17.5602 23.9999C17.4528 24.1106 17.3044 24.1721 17.1502 24.1699Z" fill="#210B57"/>
<path d="M39.5601 26.1499C40.6536 26.1499 41.5401 25.2635 41.5401 24.1699C41.5401 23.0764 40.6536 22.1899 39.5601 22.1899C38.4666 22.1899 37.5801 23.0764 37.5801 24.1699C37.5801 25.2635 38.4666 26.1499 39.5601 26.1499Z" fill="white"/>
<path d="M40.2298 24.1699C39.9905 24.1643 39.7834 24.0019 39.721 23.7708C39.6587 23.5397 39.7558 23.2951 39.9598 23.1699C39.5374 23.0308 39.0739 23.1873 38.8224 23.554C38.5708 23.9207 38.5916 24.4095 38.8734 24.7535C39.1553 25.0974 39.6304 25.214 40.0394 25.0395C40.4484 24.865 40.6931 24.4414 40.6398 23.9999C40.5324 24.1106 40.384 24.1721 40.2298 24.1699Z" fill="#210B57"/>
<path d="M28.0001 28.8301C26.8819 28.8413 25.8576 28.2065 25.3701 27.2001C25.3211 27.0412 25.3942 26.8701 25.543 26.7958C25.6917 26.7214 25.8724 26.7655 25.9701 26.9001C26.3515 27.6697 27.1362 28.1566 27.9951 28.1566C28.8541 28.1566 29.6387 27.6697 30.0201 26.9001C30.1057 26.7367 30.3059 26.6714 30.4714 26.7527C30.6368 26.8341 30.7073 27.0326 30.6301 27.2001C30.137 28.2014 29.1163 28.834 28.0001 28.8301Z" fill="white"/>
<path fill-rule="evenodd" clip-rule="evenodd" d="M210.363 20.6801C210.796 20.2447 211.386 20 212 20C212.622 19.9999 213.218 20.2498 213.655 20.6936C214.091 21.1374 214.331 21.7378 214.32 22.36V43C214.377 43.8634 213.948 44.6866 213.209 45.1355C212.469 45.5845 211.541 45.5845 210.801 45.1355C210.062 44.6866 209.633 43.8634 209.69 43V22.32C209.687 21.7056 209.929 21.1155 210.363 20.6801ZM179.09 27C174.021 27.0055 169.916 31.118 169.92 36.1867C169.924 41.2553 174.035 45.3618 179.103 45.36C184.172 45.3582 188.28 41.2487 188.28 36.18C188.28 33.7436 187.311 31.4071 185.588 29.6852C183.864 27.9634 181.526 26.9973 179.09 27ZM179.09 40.73C177.25 40.73 175.591 39.6214 174.886 37.9212C174.182 36.221 174.571 34.264 175.873 32.9627C177.174 31.6614 179.131 31.2721 180.831 31.9763C182.531 32.6806 183.64 34.3397 183.64 36.18C183.613 38.6733 181.583 40.6801 179.09 40.68V40.73ZM189.5 36.18C189.5 31.11 193.61 27 198.68 27C201.115 27 203.45 27.9672 205.171 29.6888C206.893 31.4103 207.86 33.7453 207.86 36.18C207.86 41.25 203.75 45.36 198.68 45.36C193.61 45.36 189.5 41.25 189.5 36.18ZM198.68 40.73C196.84 40.73 195.181 39.6214 194.476 37.9212C193.772 36.221 194.161 34.264 195.463 32.9627C196.764 31.6614 198.721 31.2721 200.421 31.9763C202.121 32.6806 203.23 34.3397 203.23 36.18C203.197 38.6711 201.171 40.6748 198.68 40.68V40.73ZM76.9299 24.17C76.9743 23.5301 76.7507 22.9006 76.3126 22.4321C75.8745 21.9637 75.2613 21.6985 74.6199 21.7H59.8599C58.6193 21.6798 57.5749 22.6237 57.4699 23.86C57.4255 24.4999 57.6491 25.1294 58.0872 25.5979C58.5253 26.0663 59.1385 26.3315 59.7799 26.33H64.0599C64.5128 26.33 64.8799 26.6971 64.8799 27.15V42.91C64.858 44.1366 65.7795 45.1754 66.9999 45.3C67.6447 45.356 68.2834 45.139 68.7605 44.7018C69.2377 44.2645 69.5095 43.6472 69.5099 43V27.15C69.5154 26.6955 69.8854 26.33 70.3399 26.33H74.5399C75.7787 26.3453 76.8202 25.404 76.9299 24.17ZM98.2699 28C99.7807 27.2138 101.482 26.8673 103.18 27C108.14 27.4121 111.869 31.7023 111.585 36.6717C111.301 41.6411 107.109 45.4791 102.134 45.324C97.1588 45.169 93.2136 41.0774 93.2399 36.1V22.36C93.2384 21.7186 93.5036 21.1054 93.972 20.6673C94.4405 20.2292 95.07 20.0056 95.7099 20.05C96.9462 20.155 97.8901 21.1994 97.8699 22.44V27.75C97.8709 27.8455 97.9205 27.9339 98.0015 27.9845C98.0825 28.0351 98.1836 28.0409 98.2699 28ZM102.42 40.7C99.9136 40.6835 97.8926 38.6431 97.9 36.1368C97.9073 33.6304 99.9402 31.602 102.447 31.6001C104.953 31.5982 106.989 33.6237 107 36.13C107 37.342 106.516 38.5038 105.657 39.358C104.797 40.2121 103.632 40.688 102.42 40.68V40.7ZM73.2677 33.4096C74.3945 29.8151 77.6029 27.2739 81.3599 27C83.8837 26.8317 86.3649 27.7133 88.2166 29.4363C90.0684 31.1593 91.1262 33.5707 91.1399 36.1V42.94C91.1531 44.2057 90.1732 45.2603 88.9099 45.34C88.0965 45.3493 87.3376 44.9319 86.9099 44.24C86.8746 44.177 86.8147 44.1315 86.7445 44.1144C86.6743 44.0973 86.6002 44.1102 86.5399 44.15C83.2595 46.0017 79.1808 45.6615 76.2525 43.2918C73.3242 40.9221 72.1408 37.0041 73.2677 33.4096ZM86.5599 36.16C86.5434 38.6676 84.501 40.6891 81.9934 40.68C79.4857 40.6708 77.4582 38.6344 77.46 36.1267C77.4618 33.619 79.4922 31.5856 81.9999 31.58C84.5128 31.58 86.5499 33.6171 86.5499 36.13L86.5599 36.16ZM155.13 28C156.419 27.3356 157.85 26.9925 159.3 27C164.376 27.103 168.444 31.2334 168.47 36.31V43C168.469 43.6397 168.202 44.2502 167.734 44.6861C167.266 45.122 166.638 45.3443 166 45.3C164.76 45.2 163.81 44.1542 163.83 42.91V36.25C163.835 35.015 163.349 33.8286 162.479 32.9526C161.608 32.0765 160.425 31.5826 159.19 31.58C156.71 31.6237 154.724 33.6496 154.73 36.13V43C154.728 43.6378 154.463 44.2467 153.998 44.6822C153.532 45.1178 152.906 45.3414 152.27 45.3C151.03 45.2 150.08 44.1542 150.1 42.91V22.36C150.101 21.7195 150.367 21.1082 150.835 20.6707C151.303 20.2332 151.931 20.0086 152.57 20.05C153.806 20.155 154.75 21.1994 154.73 22.44V27.75C154.731 27.8455 154.781 27.9339 154.861 27.9845C154.942 28.0351 155.044 28.0409 155.13 28ZM147.17 39H147.08C146.097 38.5556 144.942 38.7668 144.18 39.53C143.287 40.3905 142.079 40.846 140.84 40.79C138.406 40.6368 136.526 38.592 136.577 36.1539C136.628 33.7158 138.592 31.7514 141.03 31.7C142.224 31.6931 143.371 32.1607 144.22 33C144.951 33.7454 146.07 33.9532 147.02 33.52C147.675 33.2121 148.142 32.608 148.274 31.8966C148.407 31.1852 148.19 30.4534 147.69 29.93C145.089 27.1907 141.075 26.3246 137.575 27.7476C134.076 29.1705 131.805 32.5919 131.854 36.3692C131.902 40.1466 134.26 43.5085 137.795 44.8412C141.329 46.1739 145.32 45.2051 147.85 42.4C148.351 41.8965 148.57 41.1769 148.434 40.4794C148.298 39.782 147.824 39.1977 147.17 38.92V39ZM122 31.09C123.859 31.334 125.658 31.9133 127.31 32.8V32.72C129.84 34.23 131.1 36.64 130.68 39.11C130.2 42 127.69 44.29 124.29 45C123.447 45.1726 122.59 45.2597 121.73 45.26C118.788 45.2589 115.91 44.4081 113.44 42.81C112.505 42.0796 112.26 40.7664 112.871 39.7487C113.482 38.731 114.755 38.3284 115.84 38.81C118.62 40.44 120.99 40.93 123.33 40.44C125.06 40.09 125.94 39.09 126.06 38.37C126.18 37.65 125.51 37.08 124.92 36.73C123.743 36.1962 122.486 35.8584 121.2 35.73L121.099 35.7121C118.804 35.3069 116.222 34.851 114.31 32.88C112.8 31.4211 112.186 29.2658 112.7 27.23C113.399 24.8475 115.297 23.0065 117.7 22.38C121.323 21.4638 125.156 21.9234 128.46 23.67C129.614 24.2554 130.075 25.6657 129.49 26.82C128.904 27.9743 127.494 28.4354 126.34 27.85C124.115 26.654 121.535 26.299 119.07 26.85C118.237 27.0088 117.543 27.5821 117.23 28.37C117.132 28.8181 117.29 29.2835 117.64 29.58C118.53 30.48 120.22 30.78 122 31.09Z" fill="#210B57"/>
</svg>
