<svg width="81" height="88" viewBox="0 0 81 88" fill="none" xmlns="http://www.w3.org/2000/svg">
<path d="M73.285 20.5673H7.4143C3.31949 20.5673 0 23.8868 0 27.9816V43.3822C0.0957754 47.4045 3.39086 50.6116 7.4143 50.5985H11.8145C14.9737 50.5985 17.5347 53.1595 17.5347 56.3187V80.5197C17.5171 82.4861 18.2815 84.3789 19.6595 85.7818C21.0376 87.1846 22.9166 87.9825 24.883 88H55.7942C59.889 88 63.2085 84.6805 63.2085 80.5857V56.3847C63.1909 54.8638 63.7798 53.3985 64.8449 52.3127C65.9101 51.2269 67.3638 50.6101 68.8848 50.5985H73.285C75.2493 50.6043 77.1352 49.8281 78.5263 48.4411C79.9174 47.0541 80.6993 45.1705 80.6992 43.2062V27.8056C80.6037 23.7796 77.312 20.5661 73.285 20.5673Z" fill="#C92373"/>
<path d="M32.3196 17.2891C31.6815 15.8591 31.0215 14.451 30.3175 13.065C29.2078 10.6988 27.9741 8.39283 26.6213 6.1567C25.4731 4.08891 23.8982 2.28901 22.0011 0.87649C20.4473 -0.215795 18.3968 -0.293336 16.7649 0.678482C15.4232 1.77781 14.8184 3.54124 15.2029 5.23267C15.8637 7.6504 17.321 9.77441 19.339 11.2609C21.3303 12.8944 23.4492 14.3658 25.6753 15.6611C26.7313 16.3211 27.8754 16.9371 28.8874 17.5752C29.8995 18.2132 30.9115 19.1372 32.0115 18.8292C32.7376 18.5652 32.5396 17.7952 32.3196 17.2891Z" fill="white"/>
<path d="M48.3143 17.2892C48.9523 15.8591 49.6343 14.451 50.3164 13.065C51.4335 10.6985 52.6746 8.39254 54.0345 6.1567C55.176 4.08418 56.752 2.28296 58.6547 0.87649C60.2085 -0.215795 62.259 -0.293336 63.8909 0.678482C65.2239 1.78384 65.8269 3.54183 65.453 5.23267C64.7752 7.64248 63.3213 9.76139 61.3168 11.2609C59.3256 12.8944 57.2067 14.3658 54.9806 15.6611L51.7464 17.5972C50.8664 18.0812 49.7223 19.1592 48.6223 18.8512C47.8963 18.5652 48.0943 17.7952 48.3143 17.2892Z" fill="white"/>
<path d="M14.9392 39.9279C17.345 39.9279 19.2954 37.9776 19.2954 35.5718C19.2954 33.1659 17.345 31.2156 14.9392 31.2156C12.5333 31.2156 10.583 33.1659 10.583 35.5718C10.583 37.9776 12.5333 39.9279 14.9392 39.9279Z" fill="white"/>
<path d="M16.413 35.5723C15.8865 35.56 15.431 35.2026 15.2937 34.6942C15.1564 34.1858 15.3702 33.6478 15.8189 33.3722C14.8897 33.0661 13.87 33.4105 13.3165 34.2173C12.7631 35.0241 12.8089 36.0994 13.4289 36.8562C14.0489 37.613 15.0942 37.8694 15.9941 37.4855C16.894 37.1016 17.4322 36.1695 17.315 35.1982C17.0787 35.4418 16.7523 35.5772 16.413 35.5723Z" fill="#210B57"/>
<path d="M65.7175 39.9279C68.1234 39.9279 70.0737 37.9776 70.0737 35.5718C70.0737 33.1659 68.1234 31.2156 65.7175 31.2156C63.3117 31.2156 61.3613 33.1659 61.3613 35.5718C61.3613 37.9776 63.3117 39.9279 65.7175 39.9279Z" fill="white"/>
<path d="M67.1913 35.5723C66.6648 35.56 66.2093 35.2026 66.072 34.6942C65.9348 34.1858 66.1485 33.6478 66.5973 33.3722C65.668 33.0661 64.6483 33.4105 64.0948 34.2173C63.5414 35.0241 63.5872 36.0994 64.2072 36.8562C64.8272 37.613 65.8725 37.8694 66.7724 37.4855C67.6723 37.1016 68.2105 36.1695 68.0933 35.1982C67.857 35.4418 67.5306 35.5772 67.1913 35.5723Z" fill="#210B57"/>
<path d="M40.2834 45.8246C37.8233 45.8493 35.5697 44.4526 34.4972 42.2385C34.3894 41.8889 34.5502 41.5126 34.8775 41.349C35.2047 41.1853 35.6023 41.2824 35.8172 41.5784C36.6563 43.2717 38.3827 44.3429 40.2724 44.3429C42.1622 44.3429 43.8885 43.2717 44.7276 41.5784C44.9159 41.2191 45.3563 41.0753 45.7203 41.2543C46.0844 41.4333 46.2394 41.87 46.0697 42.2385C44.9848 44.4415 42.739 45.8333 40.2834 45.8246Z" fill="white"/>
</svg>
